<?xml version="1.0" standalone="no"?>
<!DOCTYPE svg PUBLIC "-//W3C//DTD SVG 1.1//EN" "http://www.w3.org/Graphics/SVG/1.1/DTD/svg11.dtd" >
<svg xmlns="http://www.w3.org/2000/svg" xmlns:xlink="http://www.w3.org/1999/xlink" version="1.1">
<metadata>
Created by FontForge 20161003 at Mon Feb 20 18:09:46 2017
 By www-data
Copyright (c)2015, HK Grotesk Latin by Alfredo Marco Pradil (ammpradil@gmail.com) and HK Grotesk Cyrillic by Stefan Peev (http://www.contextbg.net/). HK Grotesk is a trademark of Alfredo Marco Pradil.
</metadata>
<defs>
<font id="HKGroteskMedium" horiz-adv-x="1042" >
  <font-face 
    font-family="HKGroteskMedium"
    font-weight="500"
    font-stretch="normal"
    units-per-em="2048"
    panose-1="0 0 6 0 0 0 0 0 0 0"
    ascent="1434"
    descent="-614"
    x-height="999"
    cap-height="1412"
    bbox="-953 -513 2674 2240"
    underline-thickness="82"
    underline-position="-182"
    unicode-range="U+0020-FB02"
  />
<missing-glyph horiz-adv-x="1134" 
d="M158 0v954h819v-954h-819zM260 102h614v750h-614v-750z" />
    <glyph glyph-name="fi" unicode="fi" horiz-adv-x="1050" 
d="M178 838h-151v161h152q0 195 94 315t302 120q79 0 136.5 -18t93 -42.5t77.5 -62.5l-104 -141q-45 47 -92.5 70t-113.5 23q-113 0 -159.5 -69.5t-46.5 -194.5h530v-999h-183v838h-347v-838h-188v838z" />
    <glyph glyph-name="fl" unicode="fl" horiz-adv-x="1070" 
d="M757.5 36q-44.5 56 -44.5 164v1009q-27 25 -68 41t-93 16q-93 0 -139.5 -39t-46.5 -121v-107h189v-161h-189v-838h-188v838h-151v161h152v120q0 97 47.5 168.5t132.5 109t196 37.5q180 0 341 -146v-1047q0 -36 7 -54.5t20 -24t37 -5.5q27 0 58 9v-166q-22 -6 -60 -13
t-77 -7q-79 0 -123.5 56z" />
    <glyph glyph-name="f_f_i" unicode="ffi" horiz-adv-x="1654" 
d="M178 838h-151v161h152v99q0 101 50.5 177.5t136.5 117.5t189 41q82 0 160 -26.5t140 -79.5q54 50 135.5 78t161.5 28t165 -30t169 -91l-99 -143q-29 31 -84 64.5t-144 33.5q-100 0 -156 -45.5t-56 -128.5v-95h557v-999h-183v838h-374v-838h-190v838h-388v-838h-191v838z
M759 999v99q0 50 6 91q-29 35 -78.5 60.5t-121.5 25.5q-95 0 -145.5 -48t-50.5 -133v-95h390z" />
    <glyph glyph-name="f_f_l" unicode="ffl" horiz-adv-x="1674" 
d="M1362 25.5q-43 45.5 -43 137.5v1040q-20 24 -62.5 42t-101.5 18q-91 0 -146 -46t-55 -133v-85h182v-161h-182v-838h-190v838h-395v-838h-192v838h-150v161h152v106q0 104 50 178.5t135 112.5t188 38q181 0 313 -117q48 58 125 87.5t171 29.5q116 0 192 -36t150 -109
v-1070q0 -35 13 -48.5t43 -13.5q33 0 65 9v-166q-80 -20 -137 -20q-82 0 -125 45.5zM766 999q0 52 1 99t5 77q-77 88 -205 88q-94 0 -146 -45.5t-52 -123.5v-95h397z" />
    <glyph glyph-name=".notdef" horiz-adv-x="1134" 
d="M158 0v954h819v-954h-819zM260 102h614v750h-614v-750z" />
    <glyph glyph-name=".null" horiz-adv-x="0" 
 />
    <glyph glyph-name="nonmarkingreturn" horiz-adv-x="682" 
 />
    <glyph glyph-name="space" unicode=" " horiz-adv-x="518" 
 />
    <glyph glyph-name="exclam" unicode="!" horiz-adv-x="632" 
d="M243 403l-29 1031h204l-28 -1031h-147zM202 0v227h229v-227h-229z" />
    <glyph glyph-name="quotedbl" unicode="&#x22;" horiz-adv-x="931" 
d="M220 929v484h168v-484h-168zM543 929v484h168v-484h-168z" />
    <glyph glyph-name="numbersign" unicode="#" horiz-adv-x="1375" 
d="M240 0l90 427h-237v140h267l61 300h-246v143h275l95 424h154l-96 -437h288l92 437h154l-93 -427h237v-140h-266l-61 -300h245v-142h-275l-92 -425h-153l92 436h-288l-90 -436h-153zM513 567h288l60 300h-287z" />
    <glyph glyph-name="dollar" unicode="$" horiz-adv-x="1122" 
d="M485 -12q-105 15 -194 64t-149 131t-77 192l196 48q10 -83 54 -140t112 -85.5t151 -28.5q123 0 192 55.5t69 167.5q0 68 -39.5 116t-98 80.5t-160.5 75.5q-124 53 -199.5 97t-129 118.5t-53.5 184.5q0 97 43 174t117 125.5t166 64.5v231h151v-227q234 -29 341 -227
l-161 -100q-39 75 -105 113t-145 38q-55 0 -102 -22.5t-74.5 -63t-27.5 -93.5q0 -62 37 -106.5t93 -74.5t154 -71q126 -53 205 -99t135 -126t56 -199q0 -117 -53 -208.5t-145.5 -145.5t-207.5 -63v-230h-151v234z" />
    <glyph glyph-name="percent" unicode="%" horiz-adv-x="1559" 
d="M215 838q-60 51 -85.5 125t-25.5 148t25 148.5t83.5 125.5t151.5 51q87 0 146.5 -48t88.5 -122.5t29 -156.5q0 -80 -28.5 -154t-86.5 -121t-143 -47q-95 0 -155 51zM303 -8l771 1437h169l-771 -1437h-169zM454 978q31 57 31 133q0 78 -31.5 133.5t-89.5 55.5
q-59 0 -90 -55.5t-31 -133.5t32 -134t92 -56q56 0 87 57zM1042.5 48q-59.5 51 -85 125.5t-25.5 148.5q0 75 25 149.5t83 125.5t151 51q87 0 146.5 -48t89 -123t29.5 -156t-28.5 -155t-87 -121.5t-143.5 -47.5q-95 0 -154.5 51zM1282 188q31 58 31 135q0 78 -31.5 134
t-90.5 56q-57 0 -88.5 -56.5t-31.5 -134.5q0 -79 31.5 -135.5t92.5 -56.5q56 0 87 58z" />
    <glyph glyph-name="ampersand" unicode="&#x26;" horiz-adv-x="1379" 
d="M1164 -64l-190 221q-85 -85 -196 -132t-241 -47q-122 0 -220 39t-155 115t-57 183q0 102 46 183.5t118 142t174 123.5q-76 87 -127 171.5t-51 175.5q0 96 51 168.5t135 111.5t179 39q94 0 173 -42t125 -114.5t46 -161.5q0 -118 -71 -206.5t-198 -173.5l251 -288
q46 112 54 250l182 -20q-14 -208 -110 -375l215 -246zM586 850q106 67 162 126.5t56 133.5q0 46 -22 83.5t-61.5 59.5t-88.5 22t-92 -19.5t-69 -57.5t-26 -90q0 -96 141 -258zM719 183q82 37 142 105l-302 351q-87 -55 -144.5 -101t-93.5 -102t-36 -122q0 -84 70 -126
t180 -42q102 0 184 37z" />
    <glyph glyph-name="quotesingle" unicode="'" horiz-adv-x="608" 
d="M220 958v484h168v-484h-168z" />
    <glyph glyph-name="parenleft" unicode="(" horiz-adv-x="566" 
d="M229 135.5q-55 132.5 -84.5 284t-29.5 286.5q0 238 62 442t177 337h171q-128 -163 -191.5 -360.5t-63.5 -422.5q0 -233 62 -421t191 -356h-166q-73 78 -128 210.5z" />
    <glyph glyph-name="parenright" unicode=")" horiz-adv-x="566" 
d="M233.5 282.5q62.5 189.5 62.5 420.5q0 220 -65 421t-190 361h170q115 -132 177.5 -334t62.5 -444q0 -137 -29.5 -289t-84.5 -284t-128 -209h-166q128 168 190.5 357.5z" />
    <glyph glyph-name="asterisk" unicode="*" horiz-adv-x="884" 
d="M324 842l-123 84l166 180l-239 36l48 138l220 -91l-30 224h152l-30 -224l220 91l47 -138l-239 -36l166 -180l-123 -84l-118 221z" />
    <glyph glyph-name="plus" unicode="+" horiz-adv-x="1259" 
d="M556 106v446h-456v147h456v444h147v-444h457v-147h-457v-446h-147z" />
    <glyph glyph-name="comma" unicode="," horiz-adv-x="627" 
d="M132 -315l139 579h235l-249 -579h-125z" />
    <glyph glyph-name="hyphen" unicode="-" horiz-adv-x="850" 
d="M152 545v147h546v-147h-546z" />
    <glyph glyph-name="period" unicode="." horiz-adv-x="655" 
d="M217 0v227h221v-227h-221z" />
    <glyph glyph-name="slash" unicode="/" horiz-adv-x="930" 
d="M-12 -430l767 1946h187l-765 -1946h-189z" />
    <glyph glyph-name="zero" unicode="0" horiz-adv-x="1170" 
d="M279 91.5q-123 111.5 -177.5 277.5t-54.5 338q0 173 53 339.5t172.5 278t308.5 111.5q175 0 298.5 -104.5t185.5 -272t62 -355.5q0 -186 -60.5 -352t-180.5 -269t-291 -103q-193 0 -316 111.5zM775.5 251.5q73.5 82.5 107 206.5t33.5 251q0 130 -34 252t-109.5 201.5
t-191.5 79.5t-191 -80t-109 -202.5t-34 -252.5q0 -131 34.5 -253.5t111 -203.5t196.5 -81q113 0 186.5 82.5z" />
    <glyph glyph-name="one" unicode="1" horiz-adv-x="1170" 
d="M569 1060h-375v157h223q78 0 121 44t43 119v33h189v-1413h-201v1060z" />
    <glyph glyph-name="two" unicode="2" horiz-adv-x="1170" 
d="M65 169q122 79 255.5 180t240.5 208q121 125 184.5 233t63.5 222q0 110 -59 174t-164 64q-128 0 -194 -90t-73 -234l-199 16q0 140 56.5 251.5t161 175t244.5 63.5q127 0 226 -52t153.5 -145.5t54.5 -212.5q0 -152 -86.5 -295.5t-243.5 -298.5q-95 -93 -166 -148
t-144 -101h709v-179h-1020v169z" />
    <glyph glyph-name="three" unicode="3" horiz-adv-x="1170" 
d="M312.5 29.5q-113.5 49.5 -180 149t-66.5 242.5l190 15q0 -85 41.5 -147t112.5 -94t157 -32q81 0 151 29t112.5 87.5t42.5 141.5q0 77 -35.5 131.5t-98.5 82.5t-144 28h-130v173h130q95 0 147.5 53.5t52.5 144.5q0 68 -31 116.5t-84 73.5t-117 25q-68 0 -122.5 -27.5
t-86 -79t-32.5 -119.5l-188 17q0 121 57 210.5t154.5 136.5t215.5 47q115 0 212.5 -45.5t155.5 -130.5t58 -199q0 -90 -38 -167.5t-107 -126.5q109 -48 163.5 -141t57.5 -213q0 -139 -67 -236t-179.5 -146t-250.5 -49q-140 0 -253.5 49.5z" />
    <glyph glyph-name="four" unicode="4" horiz-adv-x="1170" 
d="M680 0v358h-653v117l677 938h175v-875h225v-180h-225v-358h-199zM279 538h401v565z" />
    <glyph glyph-name="five" unicode="5" horiz-adv-x="1170" 
d="M357.5 34q-101.5 54 -169 147.5t-92.5 208.5l185 56q24 -121 95 -204.5t202 -83.5q88 0 153.5 45t100 117t34.5 152t-32.5 148t-96 109t-152.5 41q-80 0 -151.5 -38.5t-113.5 -106.5l-180 61l130 727h740v-183h-581l-65 -366q104 82 249 82q129 0 234.5 -64.5
t165.5 -173.5t60 -237q0 -131 -65.5 -244t-178.5 -180t-249 -67q-121 0 -222.5 54z" />
    <glyph glyph-name="six" unicode="6" horiz-adv-x="1170" 
d="M343 44q-112 64 -177.5 173.5t-65.5 239.5q0 137 72 248l417 708h229l-309 -497q47 7 81 7q134 0 246 -59.5t177.5 -164.5t65.5 -236q0 -128 -63.5 -239t-175.5 -177.5t-251 -66.5q-134 0 -246 64zM736.5 207q67.5 40 107 107.5t39.5 146.5q0 80 -39.5 147.5t-107 107
t-146.5 39.5q-80 0 -147 -39.5t-106.5 -107t-39.5 -147.5q0 -79 39.5 -146.5t106.5 -107.5t147 -40q79 0 146.5 40z" />
    <glyph glyph-name="seven" unicode="7" horiz-adv-x="1170" 
d="M235 0l600 1231h-736v182h977v-102l-617 -1311h-224z" />
    <glyph glyph-name="eight" unicode="8" horiz-adv-x="1170" 
d="M337 27.5q-113 47.5 -181 141.5t-68 228q0 124 60 218t169 148q-76 51 -116.5 128.5t-40.5 168.5q0 115 58 200t155.5 129.5t212.5 44.5q114 0 211.5 -45t155.5 -129.5t58 -198.5q0 -93 -40.5 -170t-114.5 -128q109 -54 167.5 -148.5t58.5 -216.5q0 -135 -68 -229.5
t-181 -141.5t-248 -47t-248 47.5zM707 858.5q52 25.5 82 74t30 114.5q0 68 -30.5 117t-83 74.5t-116.5 25.5q-61 0 -113.5 -24t-84.5 -71t-32 -113q0 -67 28.5 -117.5t81 -78t121.5 -27.5q65 0 117 25.5zM732.5 179q67.5 29 108 87.5t40.5 142.5q0 81 -39.5 140t-107 89.5
t-150.5 30.5q-84 0 -152 -30.5t-107 -89t-39 -139.5q0 -84 41 -142.5t108.5 -88t148.5 -29.5t148.5 29z" />
    <glyph glyph-name="nine" unicode="9" horiz-adv-x="1170" 
d="M661 497q-46 -7 -81 -7q-133 0 -245.5 59.5t-178 165t-65.5 235.5q0 128 63.5 239t176 178t251.5 67q133 0 245 -64.5t177.5 -174t65.5 -239.5q0 -136 -70 -247l-419 -709h-226zM727.5 697.5q67.5 39.5 107 107t39.5 147.5t-39.5 147.5t-107 107.5t-147.5 40
q-79 0 -146 -40t-106.5 -107.5t-39.5 -147.5t39.5 -147.5t106.5 -107t146 -39.5q80 0 147.5 39.5z" />
    <glyph glyph-name="colon" unicode=":" horiz-adv-x="673" 
d="M222 728v226h229v-226h-229zM222 0v227h229v-227h-229z" />
    <glyph glyph-name="semicolon" unicode=";" horiz-adv-x="656" 
d="M228 728v226h229v-226h-229zM118 -315l139 579h235l-249 -579h-125z" />
    <glyph glyph-name="less" unicode="&#x3c;" horiz-adv-x="1223" 
d="M1014 161l-938 513l938 512l85 -146l-706 -366l706 -367z" />
    <glyph glyph-name="equal" unicode="=" horiz-adv-x="1265" 
d="M237 764v169h792v-169h-792zM237 410v170h792v-170h-792z" />
    <glyph glyph-name="greater" unicode="&#x3e;" horiz-adv-x="1223" 
d="M209 161l-85 146l706 367l-706 366l85 146l939 -512z" />
    <glyph glyph-name="question" unicode="?" horiz-adv-x="1010" 
d="M412 588q0 75 24.5 123.5t60 76t93.5 58.5q53 29 83.5 52t51.5 62t21 97q0 105 -68 158t-182 53q-115 0 -181 -62.5t-67 -176.5h-178q0 124 54.5 216t149.5 140.5t214 48.5t218 -44t157.5 -130.5t58.5 -206.5q0 -96 -31.5 -159t-74.5 -97.5t-110 -72.5q-43 -24 -67.5 -41
t-40.5 -41t-16 -56v-187h-170v189zM386 0v227h229v-227h-229z" />
    <glyph glyph-name="at" unicode="@" horiz-adv-x="2042" 
d="M566.5 -242.5q-202.5 105.5 -321.5 302t-119 458.5q0 255 114 464t320 329.5t471 120.5q263 0 465.5 -118t313 -318.5t110.5 -442.5q0 -161 -50.5 -301.5t-153 -228t-251.5 -87.5q-132 0 -204 68.5t-69 187.5q-60 -66 -140.5 -101.5t-165.5 -35.5q-105 0 -178 52.5
t-109.5 141t-36.5 194.5q0 138 58 279t166 234t249 93q96 0 166.5 -45t98.5 -119l23 115h172q-11 -56 -30 -137t-25 -106q-45 -183 -69.5 -306.5t-24.5 -210.5q0 -72 24.5 -100.5t87.5 -28.5q105 0 171.5 66t96 167.5t29.5 211.5q0 197 -89 360t-253 258.5t-380 95.5
q-220 0 -388.5 -99t-260.5 -269.5t-92 -379.5q0 -216 97 -374.5t262 -241.5t364 -83q66 0 125 10t121 29l59 -158q-73 -26 -147.5 -39t-159.5 -13q-244 0 -446.5 105.5zM1085 293.5q77 68.5 117 172t40 204.5q0 208 -180 208q-106 0 -183.5 -68t-117.5 -170.5t-40 -202.5
q0 -101 45 -156.5t137 -55.5q105 0 182 68.5z" />
    <glyph glyph-name="A" unicode="A" horiz-adv-x="1323" 
d="M39 0l547 1413h154l544 -1413h-219l-108 307h-587l-109 -307h-222zM438 486h450l-224 628z" />
    <glyph glyph-name="B" unicode="B" horiz-adv-x="1257" 
d="M198 1413h437q119 0 221.5 -37t167 -118.5t64.5 -208.5q0 -103 -47.5 -179t-123.5 -119q107 -45 173.5 -140t66.5 -219q0 -130 -63 -218t-166.5 -131t-224.5 -43h-505v1413zM647 816q108 0 176 51.5t68 163.5q0 105 -69.5 152t-183.5 47h-238v-414h247zM707 191
q114 0 182 52t68 167q0 112 -70.5 170t-182.5 58h-304v-447h307z" />
    <glyph glyph-name="C" unicode="C" horiz-adv-x="1425" 
d="M397.5 77.5q-147.5 97.5 -220 262.5t-72.5 368q0 202 72 367t221 263t368 98q206 0 358.5 -98.5t230.5 -291.5l-188 -78q-40 145 -148.5 210.5t-257.5 65.5q-155 0 -257 -71t-150 -190.5t-48 -268.5q0 -155 48.5 -277t151 -194t259.5 -72q144 0 246 65.5t159 213.5
l187 -79q-82 -189 -236 -290t-361 -101q-215 0 -362.5 97.5z" />
    <glyph glyph-name="D" unicode="D" horiz-adv-x="1407" 
d="M198 1413h383q234 0 395.5 -83t244.5 -243t83 -391q0 -221 -84.5 -377t-247 -237.5t-393.5 -81.5h-381v1413zM555 186q254 0 400 127t146 394q0 265 -127 393t-397 128h-176v-1042h154z" />
    <glyph glyph-name="E" unicode="E" horiz-adv-x="1242" 
d="M198 0v1413h927v-182h-724v-434h649v-180h-649v-428h724v-189h-927z" />
    <glyph glyph-name="F" unicode="F" horiz-adv-x="1214" 
d="M198 0v1413h951v-182h-748v-434h660v-180h-660v-617h-203z" />
    <glyph glyph-name="G" unicode="G" horiz-adv-x="1521" 
d="M398 77.5q-148 97.5 -220.5 262.5t-72.5 367t72.5 367t220 263.5t362.5 98.5q205 0 358 -100t236 -290l-182 -78q-56 141 -163 213t-251 72q-152 0 -253.5 -72.5t-150 -194t-48.5 -269.5q0 -156 48.5 -280.5t150.5 -198t257 -73.5q112 0 205.5 49t151.5 142t66 220h-323
v162h517v-738h-164l-11 230q-34 -71 -97.5 -127.5t-151.5 -89.5t-193 -33q-216 0 -364 97.5z" />
    <glyph glyph-name="H" unicode="H" horiz-adv-x="1472" 
d="M198 0v1413h203v-616h669v616h204v-1413h-204v617h-669v-617h-203z" />
    <glyph glyph-name="I" unicode="I" horiz-adv-x="599" 
d="M198 0v1413h203v-1413h-203z" />
    <glyph glyph-name="J" unicode="J" horiz-adv-x="1128" 
d="M272 38q-99 58 -155 157.5t-65 221.5l200 24q8 -119 70.5 -197.5t180.5 -78.5q100 0 154.5 40.5t75 112t20.5 177.5v736h-533v182h736v-907q0 -245 -109 -385.5t-344 -140.5q-132 0 -231 58z" />
    <glyph glyph-name="K" unicode="K" horiz-adv-x="1470" 
d="M198 0v1413h203v-786l738 786h268l-549 -567l571 -846h-249l-461 708l-318 -329v-379h-203z" />
    <glyph glyph-name="L" unicode="L" horiz-adv-x="1049" 
d="M198 0v1413h203v-1224h605v-189h-808z" />
    <glyph glyph-name="M" unicode="M" horiz-adv-x="1779" 
d="M198 0v1413h298l392 -1074l395 1074h298v-1413h-198v1173l-390 -1050h-207l-390 1050v-1173h-198z" />
    <glyph glyph-name="N" unicode="N" horiz-adv-x="1435" 
d="M198 0v1413h240l601 -1125v1125h198v-1413h-243l-598 1127v-1127h-198z" />
    <glyph glyph-name="O" unicode="O" horiz-adv-x="1521" 
d="M397.5 78q-147.5 98 -220.5 263t-73 366t73 366t220.5 263t362.5 98t363 -98t221 -263t73 -366t-73 -366t-221 -263t-363 -98t-362.5 98zM1016 237q101 74 147.5 196.5t46.5 273.5q0 150 -46.5 272.5t-147.5 196.5t-256 74q-154 0 -254.5 -74t-147 -196.5t-46.5 -272.5
q0 -151 46.5 -273.5t147 -196.5t254.5 -74q155 0 256 74z" />
    <glyph glyph-name="P" unicode="P" horiz-adv-x="1157" 
d="M198 1413h418q141 0 248 -48t166.5 -139t59.5 -216q0 -126 -59.5 -215t-166.5 -135t-248 -46h-216v-614h-202v1413zM616 800q273 0 273 210q0 104 -69.5 160.5t-203.5 56.5h-216v-427h216z" />
    <glyph glyph-name="Q" unicode="Q" horiz-adv-x="1558" 
d="M1143 94q-152 -114 -383 -114q-215 0 -362.5 98t-220.5 263t-73 366t73 366t220.5 263t362.5 98t363 -98.5t221 -263.5t73 -367q0 -143 -37.5 -271.5t-110.5 -222.5l199 -195l-128 -123zM1000 231l-196 191l126 122l195 -190q89 144 89 353q0 150 -47.5 271t-149.5 193.5
t-257 72.5t-256.5 -72.5t-149 -193.5t-47.5 -271t47.5 -271.5t149 -194t256.5 -72.5q142 0 240 62z" />
    <glyph glyph-name="R" unicode="R" horiz-adv-x="1242" 
d="M198 1412h429q129 0 235 -48.5t168 -140t62 -214.5q0 -91 -36.5 -166t-102 -126.5t-151.5 -74.5l388 -644h-235l-351 621h-203v-621h-203v1414zM651 794q110 5 175 61t65 152q0 69 -32.5 119.5t-92 77.5t-137.5 27h-226v-437h248z" />
    <glyph glyph-name="S" unicode="S" horiz-adv-x="1123" 
d="M345.5 29q-109.5 45 -184.5 134t-96 216l197 53q9 -89 53.5 -149t113.5 -89t151 -29q122 0 192 57.5t70 160.5q0 72 -40.5 122t-100.5 83t-163 76q-122 51 -197.5 94.5t-128.5 117.5t-53 185q0 113 55 197.5t149 130t206 45.5q131 0 237 -58t173 -175l-162 -103
q-40 76 -106.5 116.5t-146.5 40.5q-55 0 -101.5 -22.5t-74.5 -63.5t-28 -95q0 -61 37 -104.5t92.5 -73t153.5 -71.5q128 -54 207.5 -100t135.5 -126t56 -199q0 -125 -61 -219.5t-167 -145.5t-236 -51q-123 0 -232.5 45z" />
    <glyph glyph-name="T" unicode="T" horiz-adv-x="1208" 
d="M502 0v1237h-461v176h1126v-176h-461v-1237h-204z" />
    <glyph glyph-name="U" unicode="U" horiz-adv-x="1366" 
d="M391 51q-115 71 -169 195.5t-54 287.5v879h203v-842q0 -192 69.5 -294t241.5 -102t242.5 102t70.5 294v842h204v-869q0 -167 -54.5 -293.5t-170.5 -198.5t-292 -72t-291 71z" />
    <glyph glyph-name="V" unicode="V" horiz-adv-x="1333" 
d="M587 0l-548 1413h220l410 -1108l408 1108h217l-545 -1413h-162z" />
    <glyph glyph-name="W" unicode="W" horiz-adv-x="1987" 
d="M461 0l-410 1413h210l319 -1135l334 1053h160l334 -1053l318 1135h211l-410 -1413h-208l-324 1007l-327 -1007h-207z" />
    <glyph glyph-name="X" unicode="X" horiz-adv-x="1299" 
d="M50 0l470 707l-468 706h242l356 -566l357 566h240l-466 -706l468 -707h-240l-361 557l-356 -557h-242z" />
    <glyph glyph-name="Y" unicode="Y" horiz-adv-x="1317" 
d="M556 0v552l-529 861h242l388 -661l390 661h243l-527 -861v-552h-207z" />
    <glyph glyph-name="Z" unicode="Z" horiz-adv-x="1273" 
d="M74 0v148l845 1083h-800v182h1067v-155l-841 -1074h841v-184h-1112z" />
    <glyph glyph-name="bracketleft" unicode="[" horiz-adv-x="637" 
d="M191 -126v1662h395v-124h-236v-1412h236v-126h-395z" />
    <glyph glyph-name="backslash" unicode="\" horiz-adv-x="930" 
d="M755 -430l-767 1946h189l765 -1946h-187z" />
    <glyph glyph-name="bracketright" unicode="]" horiz-adv-x="637" 
d="M51 -126v126h236v1412h-236v124h395v-1662h-395z" />
    <glyph glyph-name="asciicircum" unicode="^" horiz-adv-x="978" 
d="M96 823l392 638l395 -638h-198l-197 319l-195 -319h-197z" />
    <glyph glyph-name="underscore" unicode="_" horiz-adv-x="1241" 
d="M214 -147v147h813v-147h-813z" />
    <glyph glyph-name="grave" unicode="`" horiz-adv-x="534" 
d="M317 1113l-281 300h224l221 -300h-164z" />
    <glyph glyph-name="a" unicode="a" 
d="M232.5 17q-77.5 37 -121.5 107.5t-44 167.5q0 150 109.5 220.5t310.5 70.5h243q0 125 -55 196.5t-168 71.5q-88 0 -152 -41.5t-105 -104.5l-145 108q72 100 169.5 153.5t227.5 53.5q129 0 221.5 -51.5t140.5 -144t48 -214.5v-610h-161l-10 169q-56 -99 -141.5 -144
t-190.5 -45q-99 0 -176.5 37zM585 187q67 43 105.5 111.5t39.5 141.5h-229q-117 0 -176 -39t-59 -115q0 -69 45.5 -105.5t122.5 -36.5q84 0 151 43z" />
    <glyph glyph-name="b" unicode="b" horiz-adv-x="1150" 
d="M483.5 16q-76.5 36 -126.5 104v-120h-197v1413h197v-533q51 68 126.5 104t169.5 36q131 0 225 -70t142.5 -188t48.5 -262q0 -143 -48.5 -261.5t-142 -188.5t-223.5 -70q-95 0 -171.5 36zM755.5 199.5q60.5 46.5 90 125.5t29.5 175t-29.5 175t-90 126.5t-149.5 47.5
t-149 -47t-89 -126t-29 -176t29 -175.5t89 -125t149 -46.5t149.5 46.5z" />
    <glyph glyph-name="c" unicode="c" horiz-adv-x="988" 
d="M283 51.5q-103 71.5 -155 190t-52 256.5q0 137 51.5 256.5t154.5 192.5t249 73q142 0 248 -72t161 -207l-183 -75q-22 83 -82.5 133t-143.5 50q-89 0 -147 -51t-84.5 -130.5t-26.5 -169.5q0 -91 26 -169.5t84 -128.5t148 -50q82 0 143 49t83 130l172 -69
q-47 -132 -151 -206t-245 -74q-147 0 -250 71.5z" />
    <glyph glyph-name="d" unicode="d" horiz-adv-x="1149" 
d="M989 1413v-1413h-184l-6 125q-51 -71 -128 -108t-175 -37q-129 0 -223 70t-143 188.5t-49 261.5t49 261.5t142.5 188.5t221.5 70q95 0 172 -36t128 -104v533h195zM694.5 196.5q59.5 46.5 87.5 125.5t28 178q0 97 -28 176t-87.5 126t-149.5 47q-89 0 -149 -47.5
t-89 -126.5t-29 -175q0 -97 29 -176.5t89 -126.5t149 -47q90 0 149.5 46.5z" />
    <glyph glyph-name="e" unicode="e" horiz-adv-x="1051" 
d="M288.5 53q-107.5 70 -161 186t-53.5 256q0 137 51.5 256t155.5 192t253 73q158 0 257 -72.5t142 -185t43 -237.5q0 -53 -6 -85h-691q7 -125 75.5 -202.5t196.5 -77.5q81 0 144.5 24.5t116.5 82.5l134 -113q-82 -86 -177.5 -126.5t-217.5 -40.5q-155 0 -262.5 70zM788 583
q-7 122 -70.5 197t-184.5 75q-116 0 -179.5 -76t-74.5 -196h509z" />
    <glyph glyph-name="f" unicode="f" horiz-adv-x="683" 
d="M209 838h-182v161h183v152q0 90 40 154t106.5 96.5t146.5 32.5q89 0 172 -40l-56 -157q-54 28 -99 28q-51 0 -82.5 -32.5t-31.5 -97.5v-136h262v-161h-262v-838h-197v838z" />
    <glyph glyph-name="g" unicode="g" horiz-adv-x="1036" 
d="M771 100.5q81 -23.5 136.5 -82.5t55.5 -165q0 -104 -56 -175.5t-151 -107t-212 -35.5q-135 0 -237 45t-156.5 124t-54.5 178q0 23 3 41l126 121q-114 66 -114 201q0 56 20 101.5t63 82.5q-40 47 -62 105.5t-22 124.5q0 104 52.5 185.5t142 126.5t196.5 45q71 0 134.5 -20
t114.5 -58l150 133l105 -130l-154 -122q40 -75 40 -168q0 -106 -51.5 -186t-139.5 -123.5t-195 -43.5q-103 0 -189 40q-37 -25 -37 -65q0 -44 35.5 -69t90 -36.5t157.5 -25.5q128 -18 209 -41.5zM400 837.5q-44 -27.5 -67.5 -74t-23.5 -104.5q0 -91 52 -146.5t143 -55.5
q90 0 142 55.5t52 146.5q0 58 -23.5 105t-67.5 74t-103 27q-60 0 -104 -27.5zM718 -268.5q66 36.5 66 102.5q0 44 -29.5 68.5t-77 35.5t-139.5 24l-39 6q-93 14 -149 27l-85 -117q4 -53 40 -94.5t99.5 -65t146.5 -23.5q101 0 167 36.5z" />
    <glyph glyph-name="h" unicode="h" horiz-adv-x="1145" 
d="M160 1413h194v-556q53 77 136 119t172 42q119 0 198 -56.5t116.5 -149t37.5 -203.5v-609h-197v582q0 258 -197 258q-81 0 -141 -42t-92.5 -114t-32.5 -161v-523h-194v1413z" />
    <glyph glyph-name="i" unicode="i" horiz-adv-x="509" 
d="M150 1205v208h209v-208h-209zM158 0v999h193v-999h-193z" />
    <glyph glyph-name="j" unicode="j" horiz-adv-x="515" 
d="M153 1209v204h212v-204h-212zM1 -428.5q-46 9.5 -78 22.5l45 158q60 -20 103 -20q47 0 68.5 31.5t21.5 84.5v1151h196v-1130q0 -138 -68 -222.5t-205 -84.5q-37 0 -83 9.5z" />
    <glyph glyph-name="k" unicode="k" horiz-adv-x="1081" 
d="M160 0v1413h194v-895l413 481h248l-349 -376l403 -623h-230l-299 499l-186 -206v-293h-194z" />
    <glyph glyph-name="l" unicode="l" horiz-adv-x="544" 
d="M196 34q-43 54 -43 166v1213h194v-1200q0 -18 15.5 -39.5t48.5 -21.5q45 0 83 8v-160q-34 -8 -76.5 -14t-80.5 -6q-98 0 -141 54z" />
    <glyph glyph-name="m" unicode="m" horiz-adv-x="1719" 
d="M158 999h195v-131q39 70 109.5 111t153.5 41q101 0 176.5 -48.5t117.5 -145.5q52 95 134.5 144.5t185.5 49.5q121 0 201 -57t118.5 -151t38.5 -208v-604h-197v582q0 114 -42.5 189t-146.5 75q-72 0 -124.5 -41.5t-80.5 -109t-28 -144.5v-551h-196v586q0 114 -41.5 187
t-144.5 73q-72 0 -125 -44t-81 -115.5t-28 -152.5v-534h-195v999z" />
    <glyph glyph-name="n" unicode="n" horiz-adv-x="1139" 
d="M158 999h192v-147q54 80 135 123t174 43q119 0 197 -56.5t114.5 -150.5t36.5 -207v-604h-192v582q0 112 -52 187.5t-158 75.5q-115 0 -185 -79.5t-70 -233.5v-532h-192v999z" />
    <glyph glyph-name="o" unicode="o" horiz-adv-x="1123" 
d="M304.5 50.5q-111.5 70.5 -173.5 190t-62 261.5t61.5 260.5t173.5 188t256 69.5q143 0 255.5 -69.5t175 -188.5t62.5 -260q0 -142 -62.5 -261.5t-175 -190t-255.5 -70.5q-144 0 -255.5 70.5zM724.5 194q65.5 50 97 131t31.5 177t-31.5 176t-97 128.5t-163.5 48.5
t-163.5 -48.5t-97 -128.5t-31.5 -176t31.5 -177.5t97.5 -131t163 -49.5q98 0 163.5 50z" />
    <glyph glyph-name="p" unicode="p" horiz-adv-x="1149" 
d="M160 999h195v-119q50 68 126.5 104t167.5 36q132 0 226.5 -69.5t143.5 -188t49 -262.5q0 -143 -48.5 -261.5t-143 -188.5t-225.5 -70q-90 0 -167.5 35.5t-128.5 104.5v-558h-195v1437zM753.5 199.5q60.5 46.5 89.5 125t29 175.5t-29 176t-89.5 126.5t-149.5 47.5
t-149 -47.5t-89 -126.5t-29 -176t29 -175.5t89 -125t149 -46.5t149.5 46.5z" />
    <glyph glyph-name="q" unicode="q" horiz-adv-x="1149" 
d="M794 120q-51 -67 -126 -103.5t-168 -36.5q-132 0 -226.5 69.5t-143.5 188t-49 262.5q0 143 48.5 261.5t143 188.5t225.5 70q91 0 168.5 -36t127.5 -104v119h195v-1437h-195v558zM694.5 199q59.5 46 87.5 124.5t28 176.5q0 97 -28 176t-87.5 126t-149.5 47q-89 0 -149 -47
t-89 -126t-29 -176t29 -175.5t89 -125t149 -46.5q90 0 149.5 46z" />
    <glyph glyph-name="r" unicode="r" horiz-adv-x="805" 
d="M158 999h190v-173q35 90 113 142t169 52q50 0 94.5 -16t76.5 -45l-85 -163q-49 37 -116 37q-73 0 -130.5 -42t-90.5 -125t-33 -203v-463h-188v999z" />
    <glyph glyph-name="s" unicode="s" horiz-adv-x="888" 
d="M268.5 15q-81.5 35 -137.5 95t-80 133l158 74q27 -78 83 -127.5t149 -49.5q83 0 131.5 40t48.5 103q0 46 -28 76t-70.5 47.5t-117.5 39.5q-96 28 -156 55.5t-102.5 82t-42.5 143.5q0 93 46.5 159.5t124.5 100t171 33.5q119 0 209.5 -55t142.5 -153l-147 -81
q-70 135 -212 135q-69 0 -111 -32t-42 -82q0 -38 26 -64t65 -41.5t110 -37.5q102 -31 166 -61t110.5 -90.5t46.5 -158.5q0 -104 -51.5 -176t-135 -107.5t-177.5 -35.5q-96 0 -177.5 35z" />
    <glyph glyph-name="t" unicode="t" horiz-adv-x="711" 
d="M265.5 57q-69.5 77 -69.5 213v568h-161v161h163v236l190 156v-392h253v-161h-253v-548q0 -74 33 -109t87 -35q29 0 60.5 9t58.5 22v-172q-24 -10 -67 -17.5t-89 -7.5q-136 0 -205.5 77z" />
    <glyph glyph-name="u" unicode="u" horiz-adv-x="1140" 
d="M216.5 104q-87.5 125 -87.5 340v555h196v-564q0 -132 42.5 -209t153.5 -77q72 0 133 37.5t97.5 115.5t36.5 192v505h195v-999h-195v145q-44 -72 -125 -119t-180 -47q-179 0 -266.5 125z" />
    <glyph glyph-name="v" unicode="v" horiz-adv-x="972" 
d="M405 0l-390 999h212l260 -748l262 748h208l-388 -999h-164z" />
    <glyph glyph-name="w" unicode="w" horiz-adv-x="1441" 
d="M324 -2l-293 1001h206l189 -719l210 719h170l210 -717l189 717h206l-293 -999h-180l-216 738l-218 -740h-180z" />
    <glyph glyph-name="x" unicode="x" horiz-adv-x="972" 
d="M29 0l340 504l-340 495h236l221 -351l222 351h234l-338 -495l338 -504h-234l-222 359l-221 -359h-236z" />
    <glyph glyph-name="y" unicode="y" horiz-adv-x="1002" 
d="M226 -430l177 445l-387 984h213l274 -759l271 759h212l-552 -1429h-208z" />
    <glyph glyph-name="z" unicode="z" horiz-adv-x="964" 
d="M890 999v-147l-573 -688h573v-164h-830v136l590 702h-561v161h801z" />
    <glyph glyph-name="braceleft" unicode="{" horiz-adv-x="608" 
d="M306.5 -111.5q-40.5 24.5 -70.5 67.5q-35 48 -35 160v364q0 42 -35 66.5t-96 47.5v136q68 21 99.5 54.5t31.5 93.5v426q0 116 53.5 175.5t172.5 59.5h53q43 0 64 -2v-125q-48 10 -82 10q-49 0 -70.5 -12t-21.5 -38v-508q0 -74 -40 -122.5t-121 -86.5q161 -62 161 -171
v-363q0 -139 118 -139q28 0 56 9v-125q-42 -2 -67 -2h-71q-59 0 -99.5 24.5z" />
    <glyph glyph-name="bar" unicode="|" horiz-adv-x="622" 
d="M239 -512v2046h143v-2046h-143z" />
    <glyph glyph-name="braceright" unicode="}" horiz-adv-x="608" 
d="M64 -134v125q30 -9 56 -9q118 0 118 139v363q0 106 161 171q-83 38 -122 86t-39 123v508q0 26 -21.5 38t-70.5 12q-32 0 -82 -10v125q21 2 65 2h52q119 0 172.5 -59.5t53.5 -175.5v-426q0 -60 31.5 -93.5t99.5 -54.5v-136q-61 -23 -96 -47.5t-35 -66.5v-364
q0 -114 -33 -161q-31 -43 -71.5 -67t-99.5 -24h-72q-25 0 -67 2z" />
    <glyph glyph-name="asciitilde" unicode="~" horiz-adv-x="1159" 
d="M652.5 391q-38.5 12 -66 29t-65.5 44q-39 28 -64.5 41.5t-53.5 13.5q-46 0 -62.5 -29t-15.5 -84h-133q0 116 54.5 180.5t154.5 64.5q56 0 99 -12.5t72 -29.5t65 -44q34 -25 56.5 -37t49.5 -12q49 0 66.5 30.5t17.5 98.5h141q0 -130 -59 -198t-172 -68q-46 0 -84.5 12z
" />
    <glyph glyph-name="uni00A0" unicode="&#xa0;" horiz-adv-x="563" 
 />
    <glyph glyph-name="exclamdown" unicode="&#xa1;" horiz-adv-x="631" 
d="M201 773v226h229v-226h-229zM213 -435l29 1032h147l28 -1032h-204z" />
    <glyph glyph-name="cent" unicode="&#xa2;" horiz-adv-x="1126" 
d="M521 -18q-124 18 -209.5 92.5t-127.5 185t-42 238.5q0 127 42.5 238t127.5 185.5t209 92.5v186h142v-186q237 -34 343 -275l-180 -71q-24 89 -83.5 136t-148.5 47q-91 0 -150 -50t-85.5 -130t-26.5 -173q0 -94 26.5 -174t85 -130t150.5 -50q89 0 148.5 48t83.5 136
l167 -68q-43 -121 -127 -191.5t-203 -87.5v-186h-142v187z" />
    <glyph glyph-name="sterling" unicode="&#xa3;" horiz-adv-x="1222" 
d="M151 160q0 -5 68 46.5t122.5 120t54.5 141.5q0 31 -5 65t-10.5 58t-7.5 31h-219v166h178q0 -4 -11.5 35t-21 91.5t-9.5 110.5q0 114 48 208.5t141 150t222 55.5q93 0 170 -39.5t132 -107t86 -150.5l-156 -58q-32 87 -92.5 137.5t-139.5 50.5q-115 0 -180 -66t-65 -183
q0 -54 10.5 -106.5t23.5 -92t13 -36.5h474v-166h-434q1 -6 5 -28.5t7.5 -56t3.5 -66.5q0 -92 -33.5 -159.5t-75 -109t-41.5 -35.5h769v-167h-1027v160z" />
    <glyph glyph-name="currency" unicode="&#xa4;" horiz-adv-x="1362" 
d="M200 264l106 104q-42 58 -63.5 125.5t-21.5 137.5q0 71 21.5 138.5t63.5 124.5l-104 101l110 116l105 -107q59 43 127.5 65t139.5 22q70 0 137 -21.5t124 -63.5l104 103l111 -110l-103 -103q42 -58 63.5 -125.5t21.5 -139.5q0 -71 -21.5 -139t-63.5 -126l103 -102
l-109 -115l-106 107q-58 -42 -126 -64t-139 -22q-70 0 -138 22t-127 64l-105 -107zM562.5 348q56.5 -23 116.5 -23t116.5 23t100.5 68q44 44 66.5 100t22.5 115q0 60 -23 115t-67 99t-100 66.5t-115 22.5t-115.5 -23.5t-101.5 -67.5q-43 -43 -65 -99.5t-22 -116.5
q0 -59 21.5 -114t63.5 -97q45 -45 101.5 -68z" />
    <glyph glyph-name="yen" unicode="&#xa5;" horiz-adv-x="1314" 
d="M570 0v249h-299v148h299v118h-299v149h230l-474 749h206l425 -686l424 686h206l-474 -750h230v-148h-300v-118h300v-148h-300v-249h-174z" />
    <glyph glyph-name="brokenbar" unicode="&#xa6;" horiz-adv-x="630" 
d="M239 731v744h152v-744h-152zM239 -307v727h152v-727h-152z" />
    <glyph glyph-name="section" unicode="&#xa7;" horiz-adv-x="1119" 
d="M292 54.5q-116 72.5 -150 215.5l183 58q23 -99 85 -142t164 -43q93 0 153.5 33t60.5 108q0 47 -32 76t-80.5 44.5t-131.5 33.5q-112 24 -183 50.5t-121 83.5t-50 155q0 63 25 116.5t70 95.5q-46 36 -69.5 86t-23.5 107q0 94 51.5 162.5t135.5 104t180 35.5
q130 0 229 -59.5t145 -161.5l-164 -77q-21 70 -77 105.5t-138 35.5q-56 0 -101 -19t-70.5 -53t-25.5 -77t30.5 -69t76 -40t126.5 -31q116 -25 188.5 -51t124.5 -86t52 -163q0 -127 -88 -209q44 -36 66 -86t22 -110q0 -102 -55.5 -170t-144 -99.5t-190.5 -31.5
q-157 0 -273 72.5zM763.5 605q24.5 36 24.5 83q0 55 -37.5 88.5t-90.5 51t-141 36.5l-61 14q-49 -20 -75 -60t-26 -85q0 -51 38 -83t91.5 -48.5t138.5 -35.5l66 -15q48 18 72.5 54z" />
    <glyph glyph-name="dieresis" unicode="&#xa8;" horiz-adv-x="837" 
d="M153 1205v208h186v-208h-186zM498 1205v208h186v-208h-186z" />
    <glyph glyph-name="copyright" unicode="&#xa9;" horiz-adv-x="1745" 
d="M487 52q-177 102 -280 275.5t-103 379.5q0 205 103 378.5t280 275.5t386 102t385 -102t279.5 -275.5t103.5 -378.5q0 -206 -103.5 -379.5t-279.5 -275.5t-385 -102t-386 102zM1179 184.5q142 82.5 226 222t84 300.5t-84 300t-226 221.5t-306 82.5q-165 0 -307 -82.5
t-226 -221.5t-84 -300t84 -300.5t226 -222t307 -82.5q164 0 306 82.5zM686.5 339.5q-83.5 56.5 -125.5 152.5t-42 213t42 212.5t125.5 152t202.5 56.5q113 0 196.5 -55t132.5 -160l-139 -59q-31 62 -77.5 92t-112.5 30q-74 0 -123.5 -36t-73.5 -97t-24 -136
q0 -116 55 -191.5t164 -75.5q68 0 114 30t76 92l141 -60q-50 -107 -132.5 -162t-196.5 -55q-119 0 -202.5 56.5z" />
    <glyph glyph-name="ordfeminine" unicode="&#xaa;" horiz-adv-x="899" 
d="M246.5 735.5q-54.5 26.5 -87 75t-32.5 112.5q0 109 73.5 161.5t195.5 52.5h204q-2 88 -41 134.5t-124 46.5q-58 0 -104 -29.5t-76 -73.5l-104 68q58 79 126 115t162 36q90 0 154 -35t97.5 -99t33.5 -149v-428h-114l-5 101q-46 -59 -104 -87t-136 -28q-64 0 -118.5 26.5z
M493.5 855q46.5 28 75 73.5t31.5 94.5h-194q-62 0 -100 -27t-38 -73q0 -27 18.5 -49t47 -34.5t58.5 -12.5q55 0 101.5 28z" />
    <glyph glyph-name="guillemotleft" unicode="&#xab;" horiz-adv-x="959" 
d="M438 171l-396 340l396 340v-185l-187 -155l187 -155v-185zM802 171l-398 340l398 340v-185l-188 -155l188 -155v-185z" />
    <glyph glyph-name="logicalnot" unicode="&#xac;" horiz-adv-x="1292" 
d="M872 291v333h-727v173h911v-506h-184z" />
    <glyph glyph-name="uni00AD" unicode="&#xad;" horiz-adv-x="993" 
d="M152 545v147h689v-147h-689z" />
    <glyph glyph-name="registered" unicode="&#xae;" horiz-adv-x="1745" 
d="M487 54q-177 102 -280 275.5t-103 379.5q0 205 103 378.5t280 275.5t386 102t385 -102t279.5 -275.5t103.5 -378.5q0 -206 -103.5 -379.5t-279.5 -275.5t-385 -102t-386 102zM1183.5 179q143.5 83 228.5 224t85 306q0 164 -85 305t-228.5 224.5t-310.5 83.5
q-168 0 -312 -83.5t-229.5 -224.5t-85.5 -305q0 -165 85.5 -306t229.5 -224t312 -83q167 0 310.5 83zM615 1106h311q134 0 203.5 -63.5t69.5 -178.5q0 -91 -43.5 -147t-111.5 -77l201 -343h-175l-174 325h-130v-325h-151v809zM926 762q70 0 101 24t31 78q0 55 -30 78
t-102 23h-170v-203h170z" />
    <glyph glyph-name="macron" unicode="&#xaf;" horiz-adv-x="851" 
d="M149 1166v134h549v-134h-549z" />
    <glyph glyph-name="degree" unicode="&#xb0;" horiz-adv-x="916" 
d="M311.5 887.5q-67.5 39.5 -107 106.5t-39.5 147t39.5 147t107 106.5t146.5 39.5t146 -39.5t106.5 -106.5t39.5 -147t-39.5 -147t-106.5 -106.5t-146 -39.5t-146.5 39.5zM541.5 996.5q38.5 22.5 61 61t22.5 83.5t-22.5 83t-61 60.5t-83.5 22.5t-83 -22.5t-60.5 -60.5
t-22.5 -83t22.5 -83.5t60.5 -61t83 -22.5t83.5 22.5z" />
    <glyph glyph-name="plusminus" unicode="&#xb1;" horiz-adv-x="1325" 
d="M589 106v446h-457v147h457v444h147v-444h457v-147h-457v-446h-147zM134 -147v147h1058v-147h-1058z" />
    <glyph glyph-name="acute" unicode="&#xb4;" horiz-adv-x="534" 
d="M50 1124l221 289h225l-291 -289h-155z" />
    <glyph glyph-name="uni00B5" unicode="&#xb5;" horiz-adv-x="1296" 
d="M238 999h190v-589q0 -115 42 -187t146 -72q75 0 140 39.5t103.5 105t38.5 139.5v564h190v-999h-190v136q-44 -65 -123.5 -112t-173.5 -47q-98 0 -174 42l-20 -285h-169v1265z" />
    <glyph glyph-name="paragraph" unicode="&#xb6;" horiz-adv-x="1299" 
d="M547 623q-119 0 -223 47.5t-167 137.5t-63 210t63 210t167 137.5t223 47.5h152v-1659h-152v869zM907 -246v1659h153v-1659h-153z" />
    <glyph glyph-name="periodcentered" unicode="&#xb7;" horiz-adv-x="630" 
d="M246 695.5q-31 18.5 -49 49.5t-18 68q0 58 39 96.5t96 38.5q38 0 69 -17.5t49.5 -48.5t18.5 -69q0 -37 -18.5 -68t-50 -49.5t-68.5 -18.5t-68 18.5z" />
    <glyph glyph-name="cedilla" unicode="&#xb8;" horiz-adv-x="569" 
d="M146 -477q-52 36 -74 91l116 54q6 -25 28 -43t50 -18q40 0 65 25t25 63q0 32 -21 59t-61 43t-96 16h-54l109 186h131l-72 -108q91 -7 139.5 -58.5t48.5 -129.5q0 -58 -28 -107.5t-78 -79t-114 -29.5q-62 0 -114 36z" />
    <glyph glyph-name="ordmasculine" unicode="&#xba;" horiz-adv-x="942" 
d="M290.5 759.5q-79.5 48.5 -124 131.5t-44.5 182t44.5 181.5t124 131t180.5 48.5q100 0 179 -48.5t123.5 -131t44.5 -181.5t-44.5 -182t-123.5 -131.5t-179 -48.5q-101 0 -180.5 48.5zM620.5 902.5q48.5 65.5 48.5 170.5q0 104 -48.5 170t-149.5 66q-102 0 -151 -66
t-49 -170q0 -105 49 -170.5t151 -65.5q101 0 149.5 65.5z" />
    <glyph glyph-name="guillemotright" unicode="&#xbb;" horiz-adv-x="960" 
d="M155 171v185l187 155l-187 155v185l397 -340zM517 171v185l188 155l-188 155v185l398 -340z" />
    <glyph glyph-name="questiondown" unicode="&#xbf;" horiz-adv-x="1007" 
d="M395 773v226h229v-226h-229zM302.5 -390q-98.5 44 -156.5 129.5t-58 206.5q0 97 31.5 160t74.5 98t110 72q45 25 68.5 41.5t39.5 40.5t16 56v187h169v-189q0 -75 -24.5 -124t-60 -76.5t-93.5 -58.5q-53 -29 -83.5 -52t-51.5 -62t-21 -97q0 -104 68.5 -157.5t180.5 -53.5
q71 0 127.5 26.5t89 77.5t33.5 123h177q-1 -120 -57 -208.5t-151 -136t-211 -47.5q-119 0 -217.5 44z" />
    <glyph glyph-name="Agrave" unicode="&#xc0;" horiz-adv-x="1323" 
d="M39 0l547 1413h154l544 -1413h-219l-108 307h-587l-109 -307h-222zM438 486h450l-224 628zM593 1526l-281 300h224l221 -300h-164z" />
    <glyph glyph-name="Aacute" unicode="&#xc1;" horiz-adv-x="1323" 
d="M39 0l547 1413h154l544 -1413h-219l-108 307h-587l-109 -307h-222zM438 486h450l-224 628zM555 1537l221 289h225l-291 -289h-155z" />
    <glyph glyph-name="Acircumflex" unicode="&#xc2;" horiz-adv-x="1323" 
d="M39 0l547 1413h154l544 -1413h-219l-108 307h-587l-109 -307h-222zM438 486h450l-224 628zM338 1511l323 354l323 -354h-173l-150 167l-148 -167h-175z" />
    <glyph glyph-name="Atilde" unicode="&#xc3;" horiz-adv-x="1323" 
d="M39 0l547 1413h154l544 -1413h-219l-108 307h-587l-109 -307h-222zM438 486h450l-224 628zM692.5 1565q-36.5 24 -77.5 68q-28 30 -46.5 44t-40.5 14q-34 0 -51 -37t-17 -100h-118q0 124 50 195.5t139 71.5q39 0 69.5 -13.5t52 -32t49.5 -48.5q29 -30 46.5 -43.5
t38.5 -13.5q33 0 50 38t17 107h124q0 -132 -51 -203t-142 -71q-56 0 -92.5 24z" />
    <glyph glyph-name="Adieresis" unicode="&#xc4;" horiz-adv-x="1323" 
d="M39 0l547 1413h154l544 -1413h-219l-108 307h-587l-109 -307h-222zM438 486h450l-224 628zM395 1618v208h186v-208h-186zM740 1618v208h186v-208h-186z" />
    <glyph glyph-name="Aring" unicode="&#xc5;" horiz-adv-x="1323" 
d="M554 1331q-49 28 -78 78t-29 109t28.5 108.5t77.5 78.5t108 29q58 0 108 -28.5t80 -78t30 -109.5q0 -59 -29.5 -108.5t-78.5 -76.5l513 -1333h-219l-108 307h-587l-109 -307h-222zM733.5 1447q28.5 29 28.5 72t-27.5 70t-73.5 27q-44 0 -71 -27t-27 -70q0 -44 28 -72.5
t70 -28.5q44 0 72.5 29zM438 486h450l-224 628z" />
    <glyph glyph-name="AE" unicode="&#xc6;" horiz-adv-x="1835" 
d="M39 0l542 1413h1149v-168h-747v-453h659v-171h-659v-446h747v-175h-939v307h-434l-110 -307h-208zM420 474h371v771h-82z" />
    <glyph glyph-name="Ccedilla" unicode="&#xc7;" horiz-adv-x="1425" 
d="M1153 104q-131 -99 -306 -119l-63 -94q91 -7 139.5 -58.5t48.5 -129.5q0 -58 -28 -107.5t-78 -79t-114 -29.5q-62 0 -114 36t-74 91l116 54q6 -25 28 -43t50 -18q40 0 65 25t25 63q0 32 -21 59t-61 43t-96 16h-54l99 168q-200 11 -337.5 110.5t-205 260.5t-67.5 356
q0 202 72 367t221 263t368 98q206 0 358.5 -98.5t230.5 -291.5l-188 -78q-40 145 -148.5 210.5t-257.5 65.5q-155 0 -257 -71t-150 -190.5t-48 -268.5q0 -155 48.5 -277t151 -194t259.5 -72q144 0 246 65.5t159 213.5l187 -79q-73 -168 -204 -267z" />
    <glyph glyph-name="Egrave" unicode="&#xc8;" horiz-adv-x="1242" 
d="M198 0v1413h927v-182h-724v-434h649v-180h-649v-428h724v-189h-927zM576 1526l-281 300h224l221 -300h-164z" />
    <glyph glyph-name="Eacute" unicode="&#xc9;" horiz-adv-x="1242" 
d="M198 0v1413h927v-182h-724v-434h649v-180h-649v-428h724v-189h-927zM538 1537l221 289h225l-291 -289h-155z" />
    <glyph glyph-name="Ecircumflex" unicode="&#xca;" horiz-adv-x="1242" 
d="M198 0v1413h927v-182h-724v-434h649v-180h-649v-428h724v-189h-927zM321 1511l323 354l323 -354h-173l-150 167l-148 -167h-175z" />
    <glyph glyph-name="Edieresis" unicode="&#xcb;" horiz-adv-x="1242" 
d="M198 0v1413h927v-182h-724v-434h649v-180h-649v-428h724v-189h-927zM378 1618v208h186v-208h-186zM723 1618v208h186v-208h-186z" />
    <glyph glyph-name="Igrave" unicode="&#xcc;" horiz-adv-x="599" 
d="M198 0v1413h203v-1413h-203zM230 1526l-281 300h224l221 -300h-164z" />
    <glyph glyph-name="Iacute" unicode="&#xcd;" horiz-adv-x="599" 
d="M198 0v1413h203v-1413h-203zM192 1537l221 289h225l-291 -289h-155z" />
    <glyph glyph-name="Icircumflex" unicode="&#xce;" horiz-adv-x="599" 
d="M198 0v1413h203v-1413h-203zM-25 1511l323 354l323 -354h-173l-150 167l-148 -167h-175z" />
    <glyph glyph-name="Idieresis" unicode="&#xcf;" horiz-adv-x="599" 
d="M198 0v1413h203v-1413h-203zM32 1618v208h186v-208h-186zM377 1618v208h186v-208h-186z" />
    <glyph glyph-name="Eth" unicode="&#xd0;" horiz-adv-x="1426" 
d="M218 639h-113v148h113v626h381q232 0 394.5 -83t246.5 -243.5t84 -390.5q0 -221 -85.5 -377t-249 -237.5t-392.5 -81.5h-379v639zM572 181q166 0 290.5 55.5t194.5 173.5t70 297q0 527 -532 527h-182v-447h381v-148h-381v-458h159z" />
    <glyph glyph-name="Ntilde" unicode="&#xd1;" horiz-adv-x="1435" 
d="M198 0v1413h240l601 -1125v1125h198v-1413h-243l-598 1127v-1127h-198zM747.5 1565q-36.5 24 -77.5 68q-28 30 -46.5 44t-40.5 14q-34 0 -51 -37t-17 -100h-118q0 124 50 195.5t139 71.5q39 0 69.5 -13.5t52 -32t49.5 -48.5q29 -30 46.5 -43.5t38.5 -13.5q33 0 50 38
t17 107h124q0 -132 -51 -203t-142 -71q-56 0 -92.5 24z" />
    <glyph glyph-name="Ograve" unicode="&#xd2;" horiz-adv-x="1521" 
d="M397.5 78q-147.5 98 -220.5 263t-73 366t73 366t220.5 263t362.5 98t363 -98t221 -263t73 -366t-73 -366t-221 -263t-363 -98t-362.5 98zM1016 237q101 74 147.5 196.5t46.5 273.5q0 150 -46.5 272.5t-147.5 196.5t-256 74q-154 0 -254.5 -74t-147 -196.5t-46.5 -272.5
q0 -151 46.5 -273.5t147 -196.5t254.5 -74q155 0 256 74zM691 1526l-281 300h224l221 -300h-164z" />
    <glyph glyph-name="Oacute" unicode="&#xd3;" horiz-adv-x="1521" 
d="M397.5 78q-147.5 98 -220.5 263t-73 366t73 366t220.5 263t362.5 98t363 -98t221 -263t73 -366t-73 -366t-221 -263t-363 -98t-362.5 98zM1016 237q101 74 147.5 196.5t46.5 273.5q0 150 -46.5 272.5t-147.5 196.5t-256 74q-154 0 -254.5 -74t-147 -196.5t-46.5 -272.5
q0 -151 46.5 -273.5t147 -196.5t254.5 -74q155 0 256 74zM653 1537l221 289h225l-291 -289h-155z" />
    <glyph glyph-name="Ocircumflex" unicode="&#xd4;" horiz-adv-x="1521" 
d="M397.5 78q-147.5 98 -220.5 263t-73 366t73 366t220.5 263t362.5 98t363 -98t221 -263t73 -366t-73 -366t-221 -263t-363 -98t-362.5 98zM1016 237q101 74 147.5 196.5t46.5 273.5q0 150 -46.5 272.5t-147.5 196.5t-256 74q-154 0 -254.5 -74t-147 -196.5t-46.5 -272.5
q0 -151 46.5 -273.5t147 -196.5t254.5 -74q155 0 256 74zM436 1511l323 354l323 -354h-173l-150 167l-148 -167h-175z" />
    <glyph glyph-name="Otilde" unicode="&#xd5;" horiz-adv-x="1521" 
d="M397.5 78q-147.5 98 -220.5 263t-73 366t73 366t220.5 263t362.5 98t363 -98t221 -263t73 -366t-73 -366t-221 -263t-363 -98t-362.5 98zM1016 237q101 74 147.5 196.5t46.5 273.5q0 150 -46.5 272.5t-147.5 196.5t-256 74q-154 0 -254.5 -74t-147 -196.5t-46.5 -272.5
q0 -151 46.5 -273.5t147 -196.5t254.5 -74q155 0 256 74zM790.5 1565q-36.5 24 -77.5 68q-28 30 -46.5 44t-40.5 14q-34 0 -51 -37t-17 -100h-118q0 124 50 195.5t139 71.5q39 0 69.5 -13.5t52 -32t49.5 -48.5q29 -30 46.5 -43.5t38.5 -13.5q33 0 50 38t17 107h124
q0 -132 -51 -203t-142 -71q-56 0 -92.5 24z" />
    <glyph glyph-name="Odieresis" unicode="&#xd6;" horiz-adv-x="1521" 
d="M397.5 78q-147.5 98 -220.5 263t-73 366t73 366t220.5 263t362.5 98t363 -98t221 -263t73 -366t-73 -366t-221 -263t-363 -98t-362.5 98zM1016 237q101 74 147.5 196.5t46.5 273.5q0 150 -46.5 272.5t-147.5 196.5t-256 74q-154 0 -254.5 -74t-147 -196.5t-46.5 -272.5
q0 -151 46.5 -273.5t147 -196.5t254.5 -74q155 0 256 74zM493 1618v208h186v-208h-186zM838 1618v208h186v-208h-186z" />
    <glyph glyph-name="multiply" unicode="&#xd7;" horiz-adv-x="1097" 
d="M226 198l-104 103l322 324l-314 314l104 105l315 -315l323 322l104 -103l-323 -323l314 -314l-104 -105l-314 315z" />
    <glyph glyph-name="Oslash" unicode="&#xd8;" horiz-adv-x="1521" 
d="M1357 1042q60 -154 60 -335q0 -201 -73 -366t-221 -263t-363 -98q-174 0 -310 68l-28 -48h-154l71 121q-116 99 -175.5 252t-59.5 334q0 201 73 366t220.5 263t362.5 98q175 0 309 -67l27 46h153l-69 -119q117 -98 177 -252zM344 476q32 -107 97 -181l532 907
q-91 48 -213 48q-154 0 -254.5 -74t-147 -196.5t-46.5 -272.5q0 -124 32 -231zM1016 237q101 74 147.5 196.5t46.5 273.5q0 125 -32.5 232.5t-99.5 181.5l-532 -909q93 -49 214 -49q155 0 256 74z" />
    <glyph glyph-name="Ugrave" unicode="&#xd9;" horiz-adv-x="1366" 
d="M391 51q-115 71 -169 195.5t-54 287.5v879h203v-842q0 -192 69.5 -294t241.5 -102t242.5 102t70.5 294v842h204v-869q0 -167 -54.5 -293.5t-170.5 -198.5t-292 -72t-291 71zM614 1526l-281 300h224l221 -300h-164z" />
    <glyph glyph-name="Uacute" unicode="&#xda;" horiz-adv-x="1366" 
d="M391 51q-115 71 -169 195.5t-54 287.5v879h203v-842q0 -192 69.5 -294t241.5 -102t242.5 102t70.5 294v842h204v-869q0 -167 -54.5 -293.5t-170.5 -198.5t-292 -72t-291 71zM576 1537l221 289h225l-291 -289h-155z" />
    <glyph glyph-name="Ucircumflex" unicode="&#xdb;" horiz-adv-x="1366" 
d="M391 51q-115 71 -169 195.5t-54 287.5v879h203v-842q0 -192 69.5 -294t241.5 -102t242.5 102t70.5 294v842h204v-869q0 -167 -54.5 -293.5t-170.5 -198.5t-292 -72t-291 71zM359 1511l323 354l323 -354h-173l-150 167l-148 -167h-175z" />
    <glyph glyph-name="Udieresis" unicode="&#xdc;" horiz-adv-x="1366" 
d="M391 51q-115 71 -169 195.5t-54 287.5v879h203v-842q0 -192 69.5 -294t241.5 -102t242.5 102t70.5 294v842h204v-869q0 -167 -54.5 -293.5t-170.5 -198.5t-292 -72t-291 71zM416 1618v208h186v-208h-186zM761 1618v208h186v-208h-186z" />
    <glyph glyph-name="Yacute" unicode="&#xdd;" horiz-adv-x="1317" 
d="M556 0v552l-529 861h242l388 -661l390 661h243l-527 -861v-552h-207zM550 1537l221 289h225l-291 -289h-155z" />
    <glyph glyph-name="Thorn" unicode="&#xde;" horiz-adv-x="1150" 
d="M198 1413h193v-197h253q137 0 235.5 -48t150 -137.5t51.5 -211.5q0 -130 -58.5 -220.5t-164.5 -136.5t-246 -46h-221v-416h-193v1413zM612 593q136 0 206 55.5t70 165.5q0 109 -70.5 168t-205.5 59h-221v-448h221z" />
    <glyph glyph-name="germandbls" unicode="&#xdf;" horiz-adv-x="1181" 
d="M488 34l72 171q41 -20 83 -30.5t77 -10.5q44 0 82 19t60.5 51.5t22.5 71.5q0 41 -19 76t-47.5 63t-75.5 67q-54 45 -87 78t-55.5 77.5t-22.5 99.5q0 45 16.5 77.5t40 53.5t63.5 49q35 24 56 42.5t35 44t14 60.5q0 45 -25 83.5t-73.5 62t-116.5 23.5q-114 0 -175 -74
t-61 -229v-960h-192v961q0 158 56 264.5t151 157.5t212 51q104 0 201 -44t157.5 -124.5t60.5 -184.5q0 -59 -21 -100t-49.5 -65.5t-74.5 -54.5q-46 -29 -66.5 -49.5t-20.5 -51.5q0 -33 27 -61t85 -71q62 -45 103.5 -83.5t71 -96t29.5 -133.5q0 -97 -47 -172.5t-129 -118
t-182 -42.5q-109 0 -236 52z" />
    <glyph glyph-name="agrave" unicode="&#xe0;" 
d="M232.5 17q-77.5 37 -121.5 107.5t-44 167.5q0 150 109.5 220.5t310.5 70.5h243q0 125 -55 196.5t-168 71.5q-88 0 -152 -41.5t-105 -104.5l-145 108q72 100 169.5 153.5t227.5 53.5q129 0 221.5 -51.5t140.5 -144t48 -214.5v-610h-161l-10 169q-56 -99 -141.5 -144
t-190.5 -45q-99 0 -176.5 37zM585 187q67 43 105.5 111.5t39.5 141.5h-229q-117 0 -176 -39t-59 -115q0 -69 45.5 -105.5t122.5 -36.5q84 0 151 43zM434 1113l-281 300h224l221 -300h-164z" />
    <glyph glyph-name="aacute" unicode="&#xe1;" 
d="M232.5 17q-77.5 37 -121.5 107.5t-44 167.5q0 150 109.5 220.5t310.5 70.5h243q0 125 -55 196.5t-168 71.5q-88 0 -152 -41.5t-105 -104.5l-145 108q72 100 169.5 153.5t227.5 53.5q129 0 221.5 -51.5t140.5 -144t48 -214.5v-610h-161l-10 169q-56 -99 -141.5 -144
t-190.5 -45q-99 0 -176.5 37zM585 187q67 43 105.5 111.5t39.5 141.5h-229q-117 0 -176 -39t-59 -115q0 -69 45.5 -105.5t122.5 -36.5q84 0 151 43zM396 1124l221 289h225l-291 -289h-155z" />
    <glyph glyph-name="acircumflex" unicode="&#xe2;" 
d="M232.5 17q-77.5 37 -121.5 107.5t-44 167.5q0 150 109.5 220.5t310.5 70.5h243q0 125 -55 196.5t-168 71.5q-88 0 -152 -41.5t-105 -104.5l-145 108q72 100 169.5 153.5t227.5 53.5q129 0 221.5 -51.5t140.5 -144t48 -214.5v-610h-161l-10 169q-56 -99 -141.5 -144
t-190.5 -45q-99 0 -176.5 37zM585 187q67 43 105.5 111.5t39.5 141.5h-229q-117 0 -176 -39t-59 -115q0 -69 45.5 -105.5t122.5 -36.5q84 0 151 43zM179 1098l323 354l323 -354h-173l-150 167l-148 -167h-175z" />
    <glyph glyph-name="atilde" unicode="&#xe3;" 
d="M232.5 17q-77.5 37 -121.5 107.5t-44 167.5q0 150 109.5 220.5t310.5 70.5h243q0 125 -55 196.5t-168 71.5q-88 0 -152 -41.5t-105 -104.5l-145 108q72 100 169.5 153.5t227.5 53.5q129 0 221.5 -51.5t140.5 -144t48 -214.5v-610h-161l-10 169q-56 -99 -141.5 -144
t-190.5 -45q-99 0 -176.5 37zM585 187q67 43 105.5 111.5t39.5 141.5h-229q-117 0 -176 -39t-59 -115q0 -69 45.5 -105.5t122.5 -36.5q84 0 151 43zM533.5 1152q-36.5 24 -77.5 68q-28 30 -46.5 44t-40.5 14q-34 0 -51 -37t-17 -100h-118q0 124 50 195.5t139 71.5
q39 0 69.5 -13.5t52 -32t49.5 -48.5q29 -30 46.5 -43.5t38.5 -13.5q33 0 50 38t17 107h124q0 -132 -51 -203t-142 -71q-56 0 -92.5 24z" />
    <glyph glyph-name="adieresis" unicode="&#xe4;" 
d="M232.5 17q-77.5 37 -121.5 107.5t-44 167.5q0 150 109.5 220.5t310.5 70.5h243q0 125 -55 196.5t-168 71.5q-88 0 -152 -41.5t-105 -104.5l-145 108q72 100 169.5 153.5t227.5 53.5q129 0 221.5 -51.5t140.5 -144t48 -214.5v-610h-161l-10 169q-56 -99 -141.5 -144
t-190.5 -45q-99 0 -176.5 37zM585 187q67 43 105.5 111.5t39.5 141.5h-229q-117 0 -176 -39t-59 -115q0 -69 45.5 -105.5t122.5 -36.5q84 0 151 43zM236 1205v208h186v-208h-186zM581 1205v208h186v-208h-186z" />
    <glyph glyph-name="aring" unicode="&#xe5;" 
d="M232.5 17q-77.5 37 -121.5 107.5t-44 167.5q0 150 109.5 220.5t310.5 70.5h243q0 125 -55 196.5t-168 71.5q-88 0 -152 -41.5t-105 -104.5l-145 108q72 100 169.5 153.5t227.5 53.5q129 0 221.5 -51.5t140.5 -144t48 -214.5v-610h-161l-10 169q-56 -99 -141.5 -144
t-190.5 -45q-99 0 -176.5 37zM585 187q67 43 105.5 111.5t39.5 141.5h-229q-117 0 -176 -39t-59 -115q0 -69 45.5 -105.5t122.5 -36.5q84 0 151 43zM392 1103.5q-49 29.5 -77.5 79.5t-28.5 108q0 59 28.5 108t78 78t108.5 29q58 0 108 -28.5t79.5 -78t29.5 -108.5t-29 -109
t-79 -79t-109 -29q-60 0 -109 29.5zM573 1220q29 29 29 72q0 42 -28 69.5t-73 27.5q-44 0 -71 -27t-27 -70q0 -44 28 -72.5t70 -28.5q43 0 72 29z" />
    <glyph glyph-name="ae" unicode="&#xe6;" horiz-adv-x="1670" 
d="M230 17.5q-77 37.5 -122.5 106.5t-45.5 158q0 157 102.5 229t278.5 72h291q0 134 -56 203t-182 69q-80 0 -146 -39.5t-104 -97.5l-142 98q76 101 172 150.5t228 49.5q117 0 201 -46t129 -132q112 174 328 174q158 0 255.5 -72t139.5 -188.5t42 -260.5q0 -17 -2.5 -33.5
t-3.5 -21.5h-691q4 -78 35.5 -139t90 -96.5t140.5 -35.5q90 0 152 21t117 77l132 -113q-84 -86 -179.5 -124t-218.5 -38q-139 0 -230.5 59.5t-138.5 165.5q-58 -108 -158.5 -170.5t-245.5 -62.5q-91 0 -168 37.5zM1411 583q-6 123 -70.5 192.5t-188.5 69.5
q-114 0 -177.5 -73t-72.5 -189h509zM584.5 184.5q67.5 42.5 107.5 110.5t42 141h-277q-90 0 -147 -41t-57 -111q0 -42 26 -74.5t68 -50t90 -17.5q80 0 147.5 42.5z" />
    <glyph glyph-name="ccedilla" unicode="&#xe7;" horiz-adv-x="988" 
d="M674 199q61 49 83 130l172 -69q-42 -119 -130.5 -191t-209.5 -86l-61 -92q91 -7 139.5 -58.5t48.5 -129.5q0 -58 -28 -107.5t-78 -79t-114 -29.5q-62 0 -114 36t-74 91l116 54q6 -25 28 -43t50 -18q40 0 65 25t25 63q0 32 -21 59t-61 43t-96 16h-54l101 172
q-124 17 -211 91.5t-130.5 184.5t-43.5 237q0 137 51.5 256.5t154.5 192.5t249 73q142 0 248 -72t161 -207l-183 -75q-22 83 -82.5 133t-143.5 50q-89 0 -147 -51t-84.5 -130.5t-26.5 -169.5q0 -91 26 -169.5t84 -128.5t148 -50q82 0 143 49z" />
    <glyph glyph-name="egrave" unicode="&#xe8;" horiz-adv-x="1051" 
d="M288.5 53q-107.5 70 -161 186t-53.5 256q0 137 51.5 256t155.5 192t253 73q158 0 257 -72.5t142 -185t43 -237.5q0 -53 -6 -85h-691q7 -125 75.5 -202.5t196.5 -77.5q81 0 144.5 24.5t116.5 82.5l134 -113q-82 -86 -177.5 -126.5t-217.5 -40.5q-155 0 -262.5 70zM788 583
q-7 122 -70.5 197t-184.5 75q-116 0 -179.5 -76t-74.5 -196h509zM450 1113l-281 300h224l221 -300h-164z" />
    <glyph glyph-name="eacute" unicode="&#xe9;" horiz-adv-x="1051" 
d="M288.5 53q-107.5 70 -161 186t-53.5 256q0 137 51.5 256t155.5 192t253 73q158 0 257 -72.5t142 -185t43 -237.5q0 -53 -6 -85h-691q7 -125 75.5 -202.5t196.5 -77.5q81 0 144.5 24.5t116.5 82.5l134 -113q-82 -86 -177.5 -126.5t-217.5 -40.5q-155 0 -262.5 70zM788 583
q-7 122 -70.5 197t-184.5 75q-116 0 -179.5 -76t-74.5 -196h509zM412 1124l221 289h225l-291 -289h-155z" />
    <glyph glyph-name="ecircumflex" unicode="&#xea;" horiz-adv-x="1051" 
d="M288.5 53q-107.5 70 -161 186t-53.5 256q0 137 51.5 256t155.5 192t253 73q158 0 257 -72.5t142 -185t43 -237.5q0 -53 -6 -85h-691q7 -125 75.5 -202.5t196.5 -77.5q81 0 144.5 24.5t116.5 82.5l134 -113q-82 -86 -177.5 -126.5t-217.5 -40.5q-155 0 -262.5 70zM788 583
q-7 122 -70.5 197t-184.5 75q-116 0 -179.5 -76t-74.5 -196h509zM195 1098l323 354l323 -354h-173l-150 167l-148 -167h-175z" />
    <glyph glyph-name="edieresis" unicode="&#xeb;" horiz-adv-x="1051" 
d="M288.5 53q-107.5 70 -161 186t-53.5 256q0 137 51.5 256t155.5 192t253 73q158 0 257 -72.5t142 -185t43 -237.5q0 -53 -6 -85h-691q7 -125 75.5 -202.5t196.5 -77.5q81 0 144.5 24.5t116.5 82.5l134 -113q-82 -86 -177.5 -126.5t-217.5 -40.5q-155 0 -262.5 70zM788 583
q-7 122 -70.5 197t-184.5 75q-116 0 -179.5 -76t-74.5 -196h509zM252 1205v208h186v-208h-186zM597 1205v208h186v-208h-186z" />
    <glyph glyph-name="igrave" unicode="&#xec;" horiz-adv-x="508" 
d="M158 0v999h193v-999h-193zM185 1113l-281 300h224l221 -300h-164z" />
    <glyph glyph-name="iacute" unicode="&#xed;" horiz-adv-x="508" 
d="M158 0v999h193v-999h-193zM147 1124l221 289h225l-291 -289h-155z" />
    <glyph glyph-name="icircumflex" unicode="&#xee;" horiz-adv-x="508" 
d="M158 0v999h193v-999h-193zM-70 1098l323 354l323 -354h-173l-150 167l-148 -167h-175z" />
    <glyph glyph-name="idieresis" unicode="&#xef;" horiz-adv-x="508" 
d="M158 0v999h193v-999h-193zM-13 1205v208h186v-208h-186zM332 1205v208h186v-208h-186z" />
    <glyph glyph-name="eth" unicode="&#xf0;" horiz-adv-x="1166" 
d="M960.5 1049q105.5 -204 105.5 -505q0 -165 -58 -292t-168.5 -197.5t-263.5 -70.5q-158 0 -272 73t-172.5 194.5t-58.5 264.5q0 140 57 255t163 182t249 67q86 0 154.5 -24t112.5 -64q-54 190 -269 318l-86 -126l-96 62l80 118q-67 30 -153 61l92 151q90 -36 158 -70
l65 95l99 -59l-63 -92q219 -137 324.5 -341zM732 214q66 49 98.5 129t32.5 174q0 96 -34 175.5t-100 127t-159 47.5q-96 0 -162.5 -48.5t-99 -128.5t-32.5 -174t32.5 -174t99 -128.5t162.5 -48.5t162 49z" />
    <glyph glyph-name="ntilde" unicode="&#xf1;" horiz-adv-x="1139" 
d="M158 999h192v-147q54 80 135 123t174 43q119 0 197 -56.5t114.5 -150.5t36.5 -207v-604h-192v582q0 112 -52 187.5t-158 75.5q-115 0 -185 -79.5t-70 -233.5v-532h-192v999zM598.5 1152q-36.5 24 -77.5 68q-28 30 -46.5 44t-40.5 14q-34 0 -51 -37t-17 -100h-118
q0 124 50 195.5t139 71.5q39 0 69.5 -13.5t52 -32t49.5 -48.5q29 -30 46.5 -43.5t38.5 -13.5q33 0 50 38t17 107h124q0 -132 -51 -203t-142 -71q-56 0 -92.5 24z" />
    <glyph glyph-name="ograve" unicode="&#xf2;" horiz-adv-x="1123" 
d="M304.5 50.5q-111.5 70.5 -173.5 190t-62 261.5t61.5 260.5t173.5 188t256 69.5q143 0 255.5 -69.5t175 -188.5t62.5 -260q0 -142 -62.5 -261.5t-175 -190t-255.5 -70.5q-144 0 -255.5 70.5zM724.5 194q65.5 50 97 131t31.5 177t-31.5 176t-97 128.5t-163.5 48.5
t-163.5 -48.5t-97 -128.5t-31.5 -176t31.5 -177.5t97.5 -131t163 -49.5q98 0 163.5 50zM492 1113l-281 300h224l221 -300h-164z" />
    <glyph glyph-name="oacute" unicode="&#xf3;" horiz-adv-x="1123" 
d="M304.5 50.5q-111.5 70.5 -173.5 190t-62 261.5t61.5 260.5t173.5 188t256 69.5q143 0 255.5 -69.5t175 -188.5t62.5 -260q0 -142 -62.5 -261.5t-175 -190t-255.5 -70.5q-144 0 -255.5 70.5zM724.5 194q65.5 50 97 131t31.5 177t-31.5 176t-97 128.5t-163.5 48.5
t-163.5 -48.5t-97 -128.5t-31.5 -176t31.5 -177.5t97.5 -131t163 -49.5q98 0 163.5 50zM454 1124l221 289h225l-291 -289h-155z" />
    <glyph glyph-name="ocircumflex" unicode="&#xf4;" horiz-adv-x="1123" 
d="M304.5 50.5q-111.5 70.5 -173.5 190t-62 261.5t61.5 260.5t173.5 188t256 69.5q143 0 255.5 -69.5t175 -188.5t62.5 -260q0 -142 -62.5 -261.5t-175 -190t-255.5 -70.5q-144 0 -255.5 70.5zM724.5 194q65.5 50 97 131t31.5 177t-31.5 176t-97 128.5t-163.5 48.5
t-163.5 -48.5t-97 -128.5t-31.5 -176t31.5 -177.5t97.5 -131t163 -49.5q98 0 163.5 50zM237 1098l323 354l323 -354h-173l-150 167l-148 -167h-175z" />
    <glyph glyph-name="otilde" unicode="&#xf5;" horiz-adv-x="1123" 
d="M304.5 50.5q-111.5 70.5 -173.5 190t-62 261.5t61.5 260.5t173.5 188t256 69.5q143 0 255.5 -69.5t175 -188.5t62.5 -260q0 -142 -62.5 -261.5t-175 -190t-255.5 -70.5q-144 0 -255.5 70.5zM724.5 194q65.5 50 97 131t31.5 177t-31.5 176t-97 128.5t-163.5 48.5
t-163.5 -48.5t-97 -128.5t-31.5 -176t31.5 -177.5t97.5 -131t163 -49.5q98 0 163.5 50zM591.5 1152q-36.5 24 -77.5 68q-28 30 -46.5 44t-40.5 14q-34 0 -51 -37t-17 -100h-118q0 124 50 195.5t139 71.5q39 0 69.5 -13.5t52 -32t49.5 -48.5q29 -30 46.5 -43.5t38.5 -13.5
q33 0 50 38t17 107h124q0 -132 -51 -203t-142 -71q-56 0 -92.5 24z" />
    <glyph glyph-name="odieresis" unicode="&#xf6;" horiz-adv-x="1123" 
d="M304.5 50.5q-111.5 70.5 -173.5 190t-62 261.5t61.5 260.5t173.5 188t256 69.5q143 0 255.5 -69.5t175 -188.5t62.5 -260q0 -142 -62.5 -261.5t-175 -190t-255.5 -70.5q-144 0 -255.5 70.5zM724.5 194q65.5 50 97 131t31.5 177t-31.5 176t-97 128.5t-163.5 48.5
t-163.5 -48.5t-97 -128.5t-31.5 -176t31.5 -177.5t97.5 -131t163 -49.5q98 0 163.5 50zM294 1205v208h186v-208h-186zM639 1205v208h186v-208h-186z" />
    <glyph glyph-name="divide" unicode="&#xf7;" horiz-adv-x="1102" 
d="M434 870v227h229v-227h-229zM106 555v147h886v-147h-886zM434 142v227h229v-227h-229z" />
    <glyph glyph-name="oslash" unicode="&#xf8;" horiz-adv-x="1123" 
d="M1002 738.5q51 -109.5 51 -236.5q0 -142 -62.5 -261.5t-175 -190t-255.5 -70.5q-121 0 -220 51l-18 -31h-109l48 81q-91 72 -141.5 182.5t-50.5 238.5q0 142 61.5 260.5t173.5 188t256 69.5q119 0 221 -50l17 29h108l-46 -79q91 -72 142 -181.5zM290 355.5
q21 -68.5 62 -118.5l344 587q-59 31 -135 31q-98 0 -163.5 -48.5t-97 -128.5t-31.5 -176q0 -78 21 -146.5zM724.5 194q65.5 50 97 131t31.5 177q0 78 -21 146.5t-63 116.5l-344 -589q61 -32 136 -32q98 0 163.5 50z" />
    <glyph glyph-name="ugrave" unicode="&#xf9;" horiz-adv-x="1140" 
d="M216.5 104q-87.5 125 -87.5 340v555h196v-564q0 -132 42.5 -209t153.5 -77q72 0 133 37.5t97.5 115.5t36.5 192v505h195v-999h-195v145q-44 -72 -125 -119t-180 -47q-179 0 -266.5 125zM498 1113l-281 300h224l221 -300h-164z" />
    <glyph glyph-name="uacute" unicode="&#xfa;" horiz-adv-x="1140" 
d="M216.5 104q-87.5 125 -87.5 340v555h196v-564q0 -132 42.5 -209t153.5 -77q72 0 133 37.5t97.5 115.5t36.5 192v505h195v-999h-195v145q-44 -72 -125 -119t-180 -47q-179 0 -266.5 125zM460 1124l221 289h225l-291 -289h-155z" />
    <glyph glyph-name="ucircumflex" unicode="&#xfb;" horiz-adv-x="1140" 
d="M216.5 104q-87.5 125 -87.5 340v555h196v-564q0 -132 42.5 -209t153.5 -77q72 0 133 37.5t97.5 115.5t36.5 192v505h195v-999h-195v145q-44 -72 -125 -119t-180 -47q-179 0 -266.5 125zM243 1098l323 354l323 -354h-173l-150 167l-148 -167h-175z" />
    <glyph glyph-name="udieresis" unicode="&#xfc;" horiz-adv-x="1140" 
d="M216.5 104q-87.5 125 -87.5 340v555h196v-564q0 -132 42.5 -209t153.5 -77q72 0 133 37.5t97.5 115.5t36.5 192v505h195v-999h-195v145q-44 -72 -125 -119t-180 -47q-179 0 -266.5 125zM300 1205v208h186v-208h-186zM645 1205v208h186v-208h-186z" />
    <glyph glyph-name="yacute" unicode="&#xfd;" horiz-adv-x="1002" 
d="M226 -430l177 445l-387 984h213l274 -759l271 759h212l-552 -1429h-208zM392 1124l221 289h225l-291 -289h-155z" />
    <glyph glyph-name="thorn" unicode="&#xfe;" horiz-adv-x="1147" 
d="M161 1413h193v-526q51 64 126 98.5t170 34.5q131 0 225 -70t142.5 -188t48.5 -262t-48.5 -262t-142.5 -188t-225 -70q-94 0 -169.5 34.5t-126.5 97.5v-550h-193v1851zM759.5 198q60.5 46 90 124.5t29.5 177.5q0 98 -29.5 176t-90 124t-150.5 46q-89 0 -150.5 -46
t-91.5 -124.5t-30 -175.5q0 -99 30 -177.5t91.5 -124.5t150.5 -46q90 0 150.5 46z" />
    <glyph glyph-name="ydieresis" unicode="&#xff;" horiz-adv-x="1002" 
d="M226 -430l177 445l-387 984h213l274 -759l271 759h212l-552 -1429h-208zM232 1205v208h186v-208h-186zM577 1205v208h186v-208h-186z" />
    <glyph glyph-name="Amacron" unicode="&#x100;" horiz-adv-x="1323" 
d="M39 0l547 1413h154l544 -1413h-219l-108 307h-587l-109 -307h-222zM438 486h450l-224 628zM388 1579v134h549v-134h-549z" />
    <glyph glyph-name="amacron" unicode="&#x101;" 
d="M232.5 17q-77.5 37 -121.5 107.5t-44 167.5q0 150 109.5 220.5t310.5 70.5h243q0 125 -55 196.5t-168 71.5q-88 0 -152 -41.5t-105 -104.5l-145 108q72 100 169.5 153.5t227.5 53.5q129 0 221.5 -51.5t140.5 -144t48 -214.5v-610h-161l-10 169q-56 -99 -141.5 -144
t-190.5 -45q-99 0 -176.5 37zM585 187q67 43 105.5 111.5t39.5 141.5h-229q-117 0 -176 -39t-59 -115q0 -69 45.5 -105.5t122.5 -36.5q84 0 151 43zM229 1166v134h549v-134h-549z" />
    <glyph glyph-name="Abreve" unicode="&#x102;" horiz-adv-x="1323" 
d="M39 0l547 1413h154l544 -1413h-219l-108 307h-587l-109 -307h-222zM438 486h450l-224 628zM431.5 1626q-80.5 70 -80.5 200h153q0 -66 45 -104.5t113 -38.5q69 0 113 38.5t44 104.5h153q0 -132 -81.5 -201t-228.5 -69q-150 0 -230.5 70z" />
    <glyph glyph-name="abreve" unicode="&#x103;" 
d="M232.5 17q-77.5 37 -121.5 107.5t-44 167.5q0 150 109.5 220.5t310.5 70.5h243q0 125 -55 196.5t-168 71.5q-88 0 -152 -41.5t-105 -104.5l-145 108q72 100 169.5 153.5t227.5 53.5q129 0 221.5 -51.5t140.5 -144t48 -214.5v-610h-161l-10 169q-56 -99 -141.5 -144
t-190.5 -45q-99 0 -176.5 37zM585 187q67 43 105.5 111.5t39.5 141.5h-229q-117 0 -176 -39t-59 -115q0 -69 45.5 -105.5t122.5 -36.5q84 0 151 43zM272.5 1213q-80.5 70 -80.5 200h153q0 -66 45 -104.5t113 -38.5q69 0 113 38.5t44 104.5h153q0 -132 -81.5 -201t-228.5 -69
q-150 0 -230.5 70z" />
    <glyph glyph-name="Aogonek" unicode="&#x104;" horiz-adv-x="1323" 
d="M39 0l547 1413h154l544 -1413h-219l-108 307h-587l-109 -307h-222zM438 486h450l-224 628zM1044 -425.5q-49 25.5 -77 72t-28 107.5q0 71 37 124.5t81.5 83.5t71.5 38h155q-28 -10 -76.5 -36t-95 -74.5t-46.5 -111.5q0 -50 22.5 -74t57.5 -24q70 0 113 61l107 -74
q-37 -56 -88.5 -87t-123.5 -31q-61 0 -110 25.5z" />
    <glyph glyph-name="aogonek" unicode="&#x105;" 
d="M994 -333q-37 -56 -88.5 -87t-123.5 -31q-61 0 -110 25.5t-77 72t-28 107.5q0 71 37 124.5t81.5 83.5t71.5 38h-6l-10 169q-56 -99 -141.5 -144t-190.5 -45q-99 0 -176.5 37t-121.5 107.5t-44 167.5q0 150 109.5 220.5t310.5 70.5h243q0 125 -55 196.5t-168 71.5
q-88 0 -152 -41.5t-105 -104.5l-145 108q72 100 169.5 153.5t227.5 53.5q129 0 221.5 -51.5t140.5 -144t48 -214.5v-610q-28 -10 -76.5 -36t-95 -74.5t-46.5 -111.5q0 -50 22.5 -74t57.5 -24q70 0 113 61zM585 187q67 43 105.5 111.5t39.5 141.5h-229q-117 0 -176 -39
t-59 -115q0 -69 45.5 -105.5t122.5 -36.5q84 0 151 43z" />
    <glyph glyph-name="Cacute" unicode="&#x106;" horiz-adv-x="1425" 
d="M397.5 77.5q-147.5 97.5 -220 262.5t-72.5 368q0 202 72 367t221 263t368 98q206 0 358.5 -98.5t230.5 -291.5l-188 -78q-40 145 -148.5 210.5t-257.5 65.5q-155 0 -257 -71t-150 -190.5t-48 -268.5q0 -155 48.5 -277t151 -194t259.5 -72q144 0 246 65.5t159 213.5
l187 -79q-82 -189 -236 -290t-361 -101q-215 0 -362.5 97.5zM608 1537l221 289h225l-291 -289h-155z" />
    <glyph glyph-name="cacute" unicode="&#x107;" horiz-adv-x="988" 
d="M283 51.5q-103 71.5 -155 190t-52 256.5q0 137 51.5 256.5t154.5 192.5t249 73q142 0 248 -72t161 -207l-183 -75q-22 83 -82.5 133t-143.5 50q-89 0 -147 -51t-84.5 -130.5t-26.5 -169.5q0 -91 26 -169.5t84 -128.5t148 -50q82 0 143 49t83 130l172 -69
q-47 -132 -151 -206t-245 -74q-147 0 -250 71.5zM425 1124l221 289h225l-291 -289h-155z" />
    <glyph glyph-name="Cdotaccent" unicode="&#x10a;" horiz-adv-x="1425" 
d="M397.5 77.5q-147.5 97.5 -220 262.5t-72.5 368q0 202 72 367t221 263t368 98q206 0 358.5 -98.5t230.5 -291.5l-188 -78q-40 145 -148.5 210.5t-257.5 65.5q-155 0 -257 -71t-150 -190.5t-48 -268.5q0 -155 48.5 -277t151 -194t259.5 -72q144 0 246 65.5t159 213.5
l187 -79q-82 -189 -236 -290t-361 -101q-215 0 -362.5 97.5zM607 1618v208h212v-208h-212z" />
    <glyph glyph-name="cdotaccent" unicode="&#x10b;" horiz-adv-x="988" 
d="M283 51.5q-103 71.5 -155 190t-52 256.5q0 137 51.5 256.5t154.5 192.5t249 73q142 0 248 -72t161 -207l-183 -75q-22 83 -82.5 133t-143.5 50q-89 0 -147 -51t-84.5 -130.5t-26.5 -169.5q0 -91 26 -169.5t84 -128.5t148 -50q82 0 143 49t83 130l172 -69
q-47 -132 -151 -206t-245 -74q-147 0 -250 71.5zM424 1205v208h212v-208h-212z" />
    <glyph glyph-name="Ccaron" unicode="&#x10c;" horiz-adv-x="1425" 
d="M397.5 77.5q-147.5 97.5 -220 262.5t-72.5 368q0 202 72 367t221 263t368 98q206 0 358.5 -98.5t230.5 -291.5l-188 -78q-40 145 -148.5 210.5t-257.5 65.5q-155 0 -257 -71t-150 -190.5t-48 -268.5q0 -155 48.5 -277t151 -194t259.5 -72q144 0 246 65.5t159 213.5
l187 -79q-82 -189 -236 -290t-361 -101q-215 0 -362.5 97.5zM714 1493l-322 332h174l148 -160l150 160h174z" />
    <glyph glyph-name="ccaron" unicode="&#x10d;" horiz-adv-x="988" 
d="M283 51.5q-103 71.5 -155 190t-52 256.5q0 137 51.5 256.5t154.5 192.5t249 73q142 0 248 -72t161 -207l-183 -75q-22 83 -82.5 133t-143.5 50q-89 0 -147 -51t-84.5 -130.5t-26.5 -169.5q0 -91 26 -169.5t84 -128.5t148 -50q82 0 143 49t83 130l172 -69
q-47 -132 -151 -206t-245 -74q-147 0 -250 71.5zM531 1080l-322 332h174l148 -160l150 160h174z" />
    <glyph glyph-name="Dcaron" unicode="&#x10e;" horiz-adv-x="1407" 
d="M198 1413h383q234 0 395.5 -83t244.5 -243t83 -391q0 -221 -84.5 -377t-247 -237.5t-393.5 -81.5h-381v1413zM555 186q254 0 400 127t146 394q0 265 -127 393t-397 128h-176v-1042h154zM720 1493l-322 332h174l148 -160l150 160h174z" />
    <glyph glyph-name="dcaron" unicode="&#x10f;" horiz-adv-x="1234" 
d="M273.5 49.5q-94.5 69.5 -143.5 188t-49 262.5q0 143 48.5 261.5t143 188.5t225.5 70q91 0 168.5 -36t127.5 -104v533h195v-1413h-195v120q-51 -67 -126 -103.5t-168 -36.5q-132 0 -226.5 69.5zM1100 990l108 423h233l-217 -423h-124zM744 251.5q66 96.5 66 248.5
q0 97 -28 174.5t-87.5 123t-149.5 45.5q-89 0 -149 -45.5t-89 -123t-29 -174.5t29 -175t89 -124t149 -46q133 0 199 96.5z" />
    <glyph glyph-name="Dcroat" unicode="&#x110;" horiz-adv-x="1426" 
d="M218 639h-113v148h113v626h381q232 0 394.5 -83t246.5 -243.5t84 -390.5q0 -221 -85.5 -377t-249 -237.5t-392.5 -81.5h-379v639zM572 181q166 0 290.5 55.5t194.5 173.5t70 297q0 527 -532 527h-182v-447h381v-148h-381v-458h159z" />
    <glyph glyph-name="dcroat" unicode="&#x111;" horiz-adv-x="1149" 
d="M1150 1149h-161v-1149h-184l-6 125q-51 -71 -128 -108t-175 -37q-129 0 -223 70t-143 188.5t-49 261.5t49 261.5t142.5 188.5t221.5 70q95 0 172 -36t128 -104v269h-278v139h278v125h195v-125h161v-139zM694.5 196.5q59.5 46.5 87.5 125.5t28 178q0 97 -28 176t-87.5 126
t-149.5 47q-89 0 -149 -47.5t-89 -126.5t-29 -175q0 -97 29 -176.5t89 -126.5t149 -47q90 0 149.5 46.5z" />
    <glyph glyph-name="Emacron" unicode="&#x112;" horiz-adv-x="1242" 
d="M198 0v1413h927v-182h-724v-434h649v-180h-649v-428h724v-189h-927zM371 1579v134h549v-134h-549z" />
    <glyph glyph-name="emacron" unicode="&#x113;" horiz-adv-x="1051" 
d="M288.5 53q-107.5 70 -161 186t-53.5 256q0 137 51.5 256t155.5 192t253 73q158 0 257 -72.5t142 -185t43 -237.5q0 -53 -6 -85h-691q7 -125 75.5 -202.5t196.5 -77.5q81 0 144.5 24.5t116.5 82.5l134 -113q-82 -86 -177.5 -126.5t-217.5 -40.5q-155 0 -262.5 70zM788 583
q-7 122 -70.5 197t-184.5 75q-116 0 -179.5 -76t-74.5 -196h509zM245 1166v134h549v-134h-549z" />
    <glyph glyph-name="Edotaccent" unicode="&#x116;" horiz-adv-x="1242" 
d="M198 0v1413h927v-182h-724v-434h649v-180h-649v-428h724v-189h-927zM537 1618v208h212v-208h-212z" />
    <glyph glyph-name="edotaccent" unicode="&#x117;" horiz-adv-x="1051" 
d="M288.5 53q-107.5 70 -161 186t-53.5 256q0 137 51.5 256t155.5 192t253 73q158 0 257 -72.5t142 -185t43 -237.5q0 -53 -6 -85h-691q7 -125 75.5 -202.5t196.5 -77.5q81 0 144.5 24.5t116.5 82.5l134 -113q-82 -86 -177.5 -126.5t-217.5 -40.5q-155 0 -262.5 70zM788 583
q-7 122 -70.5 197t-184.5 75q-116 0 -179.5 -76t-74.5 -196h509zM411 1205v208h212v-208h-212z" />
    <glyph glyph-name="Eogonek" unicode="&#x118;" horiz-adv-x="1242" 
d="M198 0v1413h927v-182h-724v-434h649v-180h-649v-428h724v-189h-927zM885 -425.5q-49 25.5 -77 72t-28 107.5q0 71 37 124.5t81.5 83.5t71.5 38h155q-28 -10 -76.5 -36t-95 -74.5t-46.5 -111.5q0 -50 22.5 -74t57.5 -24q70 0 113 61l107 -74q-37 -56 -88.5 -87t-123.5 -31
q-61 0 -110 25.5z" />
    <glyph glyph-name="eogonek" unicode="&#x119;" horiz-adv-x="1051" 
d="M970 436h-691q7 -125 75.5 -202.5t196.5 -77.5q81 0 144.5 24.5t116.5 82.5l134 -113q-100 -105 -224 -144q-57 -33 -96.5 -79t-39.5 -103q0 -50 22.5 -74t57.5 -24q70 0 113 61l107 -74q-37 -56 -88.5 -87t-123.5 -31q-61 0 -110 25.5t-77 72t-28 107.5q0 105 88 183
q-154 1 -260.5 71t-159.5 186t-53 255q0 137 51.5 256t155.5 192t253 73q158 0 257 -72.5t142 -185t43 -237.5q0 -53 -6 -85zM788 583q-7 122 -70.5 197t-184.5 75q-116 0 -179.5 -76t-74.5 -196h509z" />
    <glyph glyph-name="Ecaron" unicode="&#x11a;" horiz-adv-x="1242" 
d="M198 0v1413h927v-182h-724v-434h649v-180h-649v-428h724v-189h-927zM644 1493l-322 332h174l148 -160l150 160h174z" />
    <glyph glyph-name="ecaron" unicode="&#x11b;" horiz-adv-x="1051" 
d="M288.5 53q-107.5 70 -161 186t-53.5 256q0 137 51.5 256t155.5 192t253 73q158 0 257 -72.5t142 -185t43 -237.5q0 -53 -6 -85h-691q7 -125 75.5 -202.5t196.5 -77.5q81 0 144.5 24.5t116.5 82.5l134 -113q-82 -86 -177.5 -126.5t-217.5 -40.5q-155 0 -262.5 70zM788 583
q-7 122 -70.5 197t-184.5 75q-116 0 -179.5 -76t-74.5 -196h509zM518 1080l-322 332h174l148 -160l150 160h174z" />
    <glyph glyph-name="Gbreve" unicode="&#x11e;" horiz-adv-x="1521" 
d="M398 77.5q-148 97.5 -220.5 262.5t-72.5 367t72.5 367t220 263.5t362.5 98.5q205 0 358 -100t236 -290l-182 -78q-56 141 -163 213t-251 72q-152 0 -253.5 -72.5t-150 -194t-48.5 -269.5q0 -156 48.5 -280.5t150.5 -198t257 -73.5q112 0 205.5 49t151.5 142t66 220h-323
v162h517v-738h-164l-11 230q-34 -71 -97.5 -127.5t-151.5 -89.5t-193 -33q-216 0 -364 97.5zM530.5 1626q-80.5 70 -80.5 200h153q0 -66 45 -104.5t113 -38.5q69 0 113 38.5t44 104.5h153q0 -132 -81.5 -201t-228.5 -69q-150 0 -230.5 70z" />
    <glyph glyph-name="gbreve" unicode="&#x11f;" horiz-adv-x="1036" 
d="M771 100.5q81 -23.5 136.5 -82.5t55.5 -165q0 -104 -56 -175.5t-151 -107t-212 -35.5q-135 0 -237 45t-156.5 124t-54.5 178q0 23 3 41l126 121q-114 66 -114 201q0 56 20 101.5t63 82.5q-40 47 -62 105.5t-22 124.5q0 104 52.5 185.5t142 126.5t196.5 45q71 0 134.5 -20
t114.5 -58l150 133l105 -130l-154 -122q40 -75 40 -168q0 -106 -51.5 -186t-139.5 -123.5t-195 -43.5q-103 0 -189 40q-37 -25 -37 -65q0 -44 35.5 -69t90 -36.5t157.5 -25.5q128 -18 209 -41.5zM400 837.5q-44 -27.5 -67.5 -74t-23.5 -104.5q0 -91 52 -146.5t143 -55.5
q90 0 142 55.5t52 146.5q0 58 -23.5 105t-67.5 74t-103 27q-60 0 -104 -27.5zM718 -268.5q66 36.5 66 102.5q0 44 -29.5 68.5t-77 35.5t-139.5 24l-39 6q-93 14 -149 27l-85 -117q4 -53 40 -94.5t99.5 -65t146.5 -23.5q101 0 167 36.5zM273.5 1213q-80.5 70 -80.5 200h153
q0 -66 45 -104.5t113 -38.5q69 0 113 38.5t44 104.5h153q0 -132 -81.5 -201t-228.5 -69q-150 0 -230.5 70z" />
    <glyph glyph-name="Gdotaccent" unicode="&#x120;" horiz-adv-x="1521" 
d="M398 77.5q-148 97.5 -220.5 262.5t-72.5 367t72.5 367t220 263.5t362.5 98.5q205 0 358 -100t236 -290l-182 -78q-56 141 -163 213t-251 72q-152 0 -253.5 -72.5t-150 -194t-48.5 -269.5q0 -156 48.5 -280.5t150.5 -198t257 -73.5q112 0 205.5 49t151.5 142t66 220h-323
v162h517v-738h-164l-11 230q-34 -71 -97.5 -127.5t-151.5 -89.5t-193 -33q-216 0 -364 97.5zM653 1618v208h212v-208h-212z" />
    <glyph glyph-name="gdotaccent" unicode="&#x121;" horiz-adv-x="1036" 
d="M771 100.5q81 -23.5 136.5 -82.5t55.5 -165q0 -104 -56 -175.5t-151 -107t-212 -35.5q-135 0 -237 45t-156.5 124t-54.5 178q0 23 3 41l126 121q-114 66 -114 201q0 56 20 101.5t63 82.5q-40 47 -62 105.5t-22 124.5q0 104 52.5 185.5t142 126.5t196.5 45q71 0 134.5 -20
t114.5 -58l150 133l105 -130l-154 -122q40 -75 40 -168q0 -106 -51.5 -186t-139.5 -123.5t-195 -43.5q-103 0 -189 40q-37 -25 -37 -65q0 -44 35.5 -69t90 -36.5t157.5 -25.5q128 -18 209 -41.5zM400 837.5q-44 -27.5 -67.5 -74t-23.5 -104.5q0 -91 52 -146.5t143 -55.5
q90 0 142 55.5t52 146.5q0 58 -23.5 105t-67.5 74t-103 27q-60 0 -104 -27.5zM718 -268.5q66 36.5 66 102.5q0 44 -29.5 68.5t-77 35.5t-139.5 24l-39 6q-93 14 -149 27l-85 -117q4 -53 40 -94.5t99.5 -65t146.5 -23.5q101 0 167 36.5zM396 1205v208h212v-208h-212z" />
    <glyph glyph-name="Gcommaaccent" unicode="&#x122;" horiz-adv-x="1521" 
d="M398 77.5q-148 97.5 -220.5 262.5t-72.5 367t72.5 367t220 263.5t362.5 98.5q205 0 358 -100t236 -290l-182 -78q-56 141 -163 213t-251 72q-152 0 -253.5 -72.5t-150 -194t-48.5 -269.5q0 -156 48.5 -280.5t150.5 -198t257 -73.5q112 0 205.5 49t151.5 142t66 220h-323
v162h517v-738h-164l-11 230q-34 -71 -97.5 -127.5t-151.5 -89.5t-193 -33q-216 0 -364 97.5zM539 -452l129 343h231l-237 -343h-123z" />
    <glyph glyph-name="gcommaaccent" unicode="&#x123;" horiz-adv-x="1036" 
d="M736 1428l-129 -307h-231l237 307h123zM771 100.5q81 -23.5 136.5 -82.5t55.5 -165q0 -104 -56 -175.5t-151 -107t-212 -35.5q-135 0 -237 45t-156.5 124t-54.5 178q0 23 3 41l126 121q-114 66 -114 201q0 56 20 101.5t63 82.5q-40 47 -62 105.5t-22 124.5
q0 104 52.5 185.5t142 126.5t196.5 45q71 0 134.5 -20t114.5 -58l150 133l105 -130l-154 -122q40 -75 40 -168q0 -106 -51.5 -186t-139.5 -123.5t-195 -43.5q-103 0 -189 40q-37 -25 -37 -65q0 -44 35.5 -69t90 -36.5t157.5 -25.5q128 -18 209 -41.5zM400 837.5
q-44 -27.5 -67.5 -74t-23.5 -104.5q0 -91 52 -146.5t143 -55.5q90 0 142 55.5t52 146.5q0 58 -23.5 105t-67.5 74t-103 27q-60 0 -104 -27.5zM718 -268.5q66 36.5 66 102.5q0 44 -29.5 68.5t-77 35.5t-139.5 24l-39 6q-93 14 -149 27l-85 -117q4 -53 40 -94.5t99.5 -65
t146.5 -23.5q101 0 167 36.5z" />
    <glyph glyph-name="Hbar" unicode="&#x126;" horiz-adv-x="1472" 
d="M1382 1172v-115h-108v-1057h-204v617h-669v-617h-203v1057h-109v115h109v241h203v-241h669v241h204v-241h108zM1070 797v260h-669v-260h669z" />
    <glyph glyph-name="hbar" unicode="&#x127;" horiz-adv-x="1145" 
d="M860 961.5q79 -56.5 116.5 -149t37.5 -203.5v-609h-197v582q0 258 -197 258q-81 0 -141 -42t-92.5 -114t-32.5 -161v-523h-194v1118h-164v139h164v156h194v-156h276v-139h-276v-261q53 77 136 119t172 42q119 0 198 -56.5z" />
    <glyph glyph-name="Itilde" unicode="&#x128;" horiz-adv-x="599" 
d="M198 0v1413h203v-1413h-203zM329.5 1565q-36.5 24 -77.5 68q-28 30 -46.5 44t-40.5 14q-34 0 -51 -37t-17 -100h-118q0 124 50 195.5t139 71.5q39 0 69.5 -13.5t52 -32t49.5 -48.5q29 -30 46.5 -43.5t38.5 -13.5q33 0 50 38t17 107h124q0 -132 -51 -203t-142 -71
q-56 0 -92.5 24z" />
    <glyph glyph-name="itilde" unicode="&#x129;" horiz-adv-x="508" 
d="M158 0v999h193v-999h-193zM284.5 1152q-36.5 24 -77.5 68q-28 30 -46.5 44t-40.5 14q-34 0 -51 -37t-17 -100h-118q0 124 50 195.5t139 71.5q39 0 69.5 -13.5t52 -32t49.5 -48.5q29 -30 46.5 -43.5t38.5 -13.5q33 0 50 38t17 107h124q0 -132 -51 -203t-142 -71
q-56 0 -92.5 24z" />
    <glyph glyph-name="Imacron" unicode="&#x12a;" horiz-adv-x="599" 
d="M198 0v1413h203v-1413h-203zM25 1579v134h549v-134h-549z" />
    <glyph glyph-name="imacron" unicode="&#x12b;" horiz-adv-x="508" 
d="M158 0v999h193v-999h-193zM-20 1166v134h549v-134h-549z" />
    <glyph glyph-name="Iogonek" unicode="&#x12e;" horiz-adv-x="599" 
d="M198 0v1413h203v-1413h-203zM161 -425.5q-49 25.5 -77 72t-28 107.5q0 71 37 124.5t81.5 83.5t71.5 38h155q-28 -10 -76.5 -36t-95 -74.5t-46.5 -111.5q0 -50 22.5 -74t57.5 -24q70 0 113 61l107 -74q-37 -56 -88.5 -87t-123.5 -31q-61 0 -110 25.5z" />
    <glyph glyph-name="iogonek" unicode="&#x12f;" horiz-adv-x="508" 
d="M158 0v999h193v-999h-193zM146 1205v208h212v-208h-212zM111 -425.5q-49 25.5 -77 72t-28 107.5q0 71 37 124.5t81.5 83.5t71.5 38h155q-28 -10 -76.5 -36t-95 -74.5t-46.5 -111.5q0 -50 22.5 -74t57.5 -24q70 0 113 61l107 -74q-37 -56 -88.5 -87t-123.5 -31
q-61 0 -110 25.5z" />
    <glyph glyph-name="Idotaccent" unicode="&#x130;" horiz-adv-x="599" 
d="M198 0v1413h203v-1413h-203zM191 1618v208h212v-208h-212z" />
    <glyph glyph-name="dotlessi" unicode="&#x131;" horiz-adv-x="508" 
d="M158 0v999h193v-999h-193z" />
    <glyph glyph-name="IJ" unicode="&#x132;" horiz-adv-x="1727" 
d="M198 0v1413h203v-1413h-203zM871 38q-99 58 -155 157.5t-65 221.5l200 24q8 -119 70.5 -197.5t180.5 -78.5q100 0 154.5 40.5t75 112t20.5 177.5v736h-533v182h736v-907q0 -245 -109 -385.5t-344 -140.5q-132 0 -231 58z" />
    <glyph glyph-name="Kcommaaccent" unicode="&#x136;" horiz-adv-x="1470" 
d="M198 0v1413h203v-786l738 786h268l-549 -567l571 -846h-249l-461 708l-318 -329v-379h-203zM488 -452l129 343h231l-237 -343h-123z" />
    <glyph glyph-name="kcommaaccent" unicode="&#x137;" horiz-adv-x="1081" 
d="M160 0v1413h194v-895l413 481h248l-349 -376l403 -623h-230l-299 499l-186 -206v-293h-194zM374 -452l129 343h231l-237 -343h-123z" />
    <glyph glyph-name="kgreenlandic" unicode="&#x138;" horiz-adv-x="1078" 
d="M158 0v999h193v-473l413 473h248l-349 -376l403 -623h-230l-299 497l-186 -206v-291h-193z" />
    <glyph glyph-name="Lacute" unicode="&#x139;" horiz-adv-x="1049" 
d="M198 0v1413h203v-1224h605v-189h-808zM204 1537l221 289h225l-291 -289h-155z" />
    <glyph glyph-name="lacute" unicode="&#x13a;" horiz-adv-x="544" 
d="M196 34q-43 54 -43 166v1213h194v-1200q0 -18 15.5 -39.5t48.5 -21.5q45 0 83 8v-160q-34 -8 -76.5 -14t-80.5 -6q-98 0 -141 54zM150 1537l221 289h225l-291 -289h-155z" />
    <glyph glyph-name="Lcommaaccent" unicode="&#x13b;" horiz-adv-x="1049" 
d="M198 0v1413h203v-1224h605v-189h-808zM305 -452l129 343h231l-237 -343h-123z" />
    <glyph glyph-name="lcommaaccent" unicode="&#x13c;" horiz-adv-x="544" 
d="M196 34q-43 54 -43 166v1213h194v-1200q0 -18 15.5 -39.5t48.5 -21.5q45 0 83 8v-160q-34 -8 -76.5 -14t-80.5 -6q-98 0 -141 54zM121 -452l129 343h231l-237 -343h-123z" />
    <glyph glyph-name="Lcaron" unicode="&#x13d;" horiz-adv-x="1074" 
d="M198 0v1413h203v-1224h605v-189h-808zM633 990l109 423h232l-217 -423h-124z" />
    <glyph glyph-name="lcaron" unicode="&#x13e;" horiz-adv-x="613" 
d="M196.5 33.5q-43.5 53.5 -43.5 166.5v1213h194v-1200q0 -19 15.5 -40t51.5 -21q42 0 80 8v-160q-34 -8 -76.5 -14t-77.5 -6q-100 0 -143.5 53.5zM479 990l109 423h232l-217 -423h-124z" />
    <glyph glyph-name="Lslash" unicode="&#x141;" horiz-adv-x="1073" 
d="M423 189h605v-189h-808v315l-104 -116v225l104 118v871h203v-641l307 348v-235l-307 -343v-353z" />
    <glyph glyph-name="lslash" unicode="&#x142;" horiz-adv-x="544" 
d="M494 160v-160q-34 -8 -76.5 -14t-80.5 -6q-98 0 -141 54t-43 166v240l-115 -130v185l115 130v788h194v-570l145 164v-185l-145 -164v-445q0 -18 15.5 -39.5t48.5 -21.5q45 0 83 8z" />
    <glyph glyph-name="Nacute" unicode="&#x143;" horiz-adv-x="1435" 
d="M198 0v1413h240l601 -1125v1125h198v-1413h-243l-598 1127v-1127h-198zM610 1537l221 289h225l-291 -289h-155z" />
    <glyph glyph-name="nacute" unicode="&#x144;" horiz-adv-x="1139" 
d="M158 999h192v-147q54 80 135 123t174 43q119 0 197 -56.5t114.5 -150.5t36.5 -207v-604h-192v582q0 112 -52 187.5t-158 75.5q-115 0 -185 -79.5t-70 -233.5v-532h-192v999zM461 1124l221 289h225l-291 -289h-155z" />
    <glyph glyph-name="Ncommaaccent" unicode="&#x145;" horiz-adv-x="1435" 
d="M198 0v1413h240l601 -1125v1125h198v-1413h-243l-598 1127v-1127h-198zM484 -452l129 343h231l-237 -343h-123z" />
    <glyph glyph-name="ncommaaccent" unicode="&#x146;" horiz-adv-x="1139" 
d="M158 999h192v-147q54 80 135 123t174 43q119 0 197 -56.5t114.5 -150.5t36.5 -207v-604h-192v582q0 112 -52 187.5t-158 75.5q-115 0 -185 -79.5t-70 -233.5v-532h-192v999zM335 -452l129 343h231l-237 -343h-123z" />
    <glyph glyph-name="Ncaron" unicode="&#x147;" horiz-adv-x="1435" 
d="M198 0v1413h240l601 -1125v1125h198v-1413h-243l-598 1127v-1127h-198zM716 1493l-322 332h174l148 -160l150 160h174z" />
    <glyph glyph-name="ncaron" unicode="&#x148;" horiz-adv-x="1139" 
d="M158 999h192v-147q54 80 135 123t174 43q119 0 197 -56.5t114.5 -150.5t36.5 -207v-604h-192v582q0 112 -52 187.5t-158 75.5q-115 0 -185 -79.5t-70 -233.5v-532h-192v999zM567 1080l-322 332h174l148 -160l150 160h174z" />
    <glyph glyph-name="Eng" unicode="&#x14a;" horiz-adv-x="1436" 
d="M835 -230q65 -2 112 13t72 43t25 64q0 24 -12 51l-636 1179v-1120h-198v1412h236l605 -1119v1119h197v-1412q0 -148 -61.5 -258.5t-240.5 -110.5h-99v139z" />
    <glyph glyph-name="eng" unicode="&#x14b;" horiz-adv-x="1137" 
d="M614 -206h65q61 0 90.5 28t36.5 63.5t7 82.5v615q0 114 -41 184t-145 70q-75 0 -139 -38.5t-101.5 -102.5t-37.5 -137v-559h-191v999h191v-143q50 76 132.5 118t170.5 42q122 0 200.5 -56.5t115 -149.5t36.5 -205v-680q0 -68 -17 -130.5t-81 -113t-191 -50.5h-101v163z
" />
    <glyph glyph-name="Omacron" unicode="&#x14c;" horiz-adv-x="1521" 
d="M397.5 78q-147.5 98 -220.5 263t-73 366t73 366t220.5 263t362.5 98t363 -98t221 -263t73 -366t-73 -366t-221 -263t-363 -98t-362.5 98zM1016 237q101 74 147.5 196.5t46.5 273.5q0 150 -46.5 272.5t-147.5 196.5t-256 74q-154 0 -254.5 -74t-147 -196.5t-46.5 -272.5
q0 -151 46.5 -273.5t147 -196.5t254.5 -74q155 0 256 74zM486 1579v134h549v-134h-549z" />
    <glyph glyph-name="omacron" unicode="&#x14d;" horiz-adv-x="1123" 
d="M304.5 50.5q-111.5 70.5 -173.5 190t-62 261.5t61.5 260.5t173.5 188t256 69.5q143 0 255.5 -69.5t175 -188.5t62.5 -260q0 -142 -62.5 -261.5t-175 -190t-255.5 -70.5q-144 0 -255.5 70.5zM724.5 194q65.5 50 97 131t31.5 177t-31.5 176t-97 128.5t-163.5 48.5
t-163.5 -48.5t-97 -128.5t-31.5 -176t31.5 -177.5t97.5 -131t163 -49.5q98 0 163.5 50zM287 1166v134h549v-134h-549z" />
    <glyph glyph-name="Ohungarumlaut" unicode="&#x150;" horiz-adv-x="1521" 
d="M397.5 78q-147.5 98 -220.5 263t-73 366t73 366t220.5 263t362.5 98t363 -98t221 -263t73 -366t-73 -366t-221 -263t-363 -98t-362.5 98zM1016 237q101 74 147.5 196.5t46.5 273.5q0 150 -46.5 272.5t-147.5 196.5t-256 74q-154 0 -254.5 -74t-147 -196.5t-46.5 -272.5
q0 -151 46.5 -273.5t147 -196.5t254.5 -74q155 0 256 74zM480 1516l221 310h203l-269 -310h-155zM819 1516l221 310h224l-291 -310h-154z" />
    <glyph glyph-name="ohungarumlaut" unicode="&#x151;" horiz-adv-x="1123" 
d="M304.5 50.5q-111.5 70.5 -173.5 190t-62 261.5t61.5 260.5t173.5 188t256 69.5q143 0 255.5 -69.5t175 -188.5t62.5 -260q0 -142 -62.5 -261.5t-175 -190t-255.5 -70.5q-144 0 -255.5 70.5zM724.5 194q65.5 50 97 131t31.5 177t-31.5 176t-97 128.5t-163.5 48.5
t-163.5 -48.5t-97 -128.5t-31.5 -176t31.5 -177.5t97.5 -131t163 -49.5q98 0 163.5 50zM281 1103l221 310h203l-269 -310h-155zM620 1103l221 310h224l-291 -310h-154z" />
    <glyph glyph-name="OE" unicode="&#x152;" horiz-adv-x="2249" 
d="M397.5 78q-147.5 98 -220.5 263t-73 366t73 366t220.5 263t362.5 98q313 0 454 -226v205h918v-182h-715v-434h649v-180h-649v-428h715v-189h-918v205q-142 -225 -454 -225q-215 0 -362.5 98zM1017 241.5q102 72.5 149.5 194t47.5 271.5t-47.5 271t-149.5 193.5t-257 72.5
t-256.5 -72.5t-149 -193.5t-47.5 -271t47.5 -271.5t149 -194t256.5 -72.5t257 72.5z" />
    <glyph glyph-name="oe" unicode="&#x153;" horiz-adv-x="1805" 
d="M304 49q-112 69 -173.5 187t-61.5 260q0 141 61.5 259t173.5 187.5t256 69.5q120 0 215.5 -51t156.5 -141q57 91 145 141.5t208 50.5q239 0 342.5 -147t103.5 -373q0 -19 -2 -36t-3 -22h-691q5 -75 37.5 -135.5t92 -96t141.5 -35.5q86 0 149.5 24t119.5 82l135 -115
q-84 -89 -181.5 -129.5t-220.5 -40.5q-127 0 -221 50.5t-152 137.5q-62 -93 -157.5 -144.5t-217.5 -51.5q-144 0 -256 69zM1540 583q-6 122 -70 191t-185 69q-113 0 -176 -72.5t-74 -187.5h505zM771.5 246.5q69.5 96.5 69.5 249.5t-68.5 249t-212.5 96q-97 0 -160.5 -46
t-93.5 -124t-30 -177q0 -152 69 -248t212 -96q145 0 214.5 96.5z" />
    <glyph glyph-name="Racute" unicode="&#x154;" horiz-adv-x="1242" 
d="M198 1412h429q129 0 235 -48.5t168 -140t62 -214.5q0 -91 -36.5 -166t-102 -126.5t-151.5 -74.5l388 -644h-235l-351 621h-203v-621h-203v1414zM651 794q110 5 175 61t65 152q0 69 -32.5 119.5t-92 77.5t-137.5 27h-226v-437h248zM509 1537l221 289h225l-291 -289h-155z
" />
    <glyph glyph-name="racute" unicode="&#x155;" horiz-adv-x="805" 
d="M158 999h190v-173q35 90 113 142t169 52q50 0 94.5 -16t76.5 -45l-85 -163q-49 37 -116 37q-73 0 -130.5 -42t-90.5 -125t-33 -203v-463h-188v999zM290 1124l221 289h225l-291 -289h-155z" />
    <glyph glyph-name="Rcommaaccent" unicode="&#x156;" horiz-adv-x="1242" 
d="M198 1412h429q129 0 235 -48.5t168 -140t62 -214.5q0 -91 -36.5 -166t-102 -126.5t-151.5 -74.5l388 -644h-235l-351 621h-203v-621h-203v1414zM651 794q110 5 175 61t65 152q0 69 -32.5 119.5t-92 77.5t-137.5 27h-226v-437h248zM455 -452l129 343h231l-237 -343h-123z
" />
    <glyph glyph-name="rcommaaccent" unicode="&#x157;" horiz-adv-x="805" 
d="M158 999h190v-173q35 90 113 142t169 52q50 0 94.5 -16t76.5 -45l-85 -163q-49 37 -116 37q-73 0 -130.5 -42t-90.5 -125t-33 -203v-463h-188v999zM21 -452l129 343h231l-237 -343h-123z" />
    <glyph glyph-name="Rcaron" unicode="&#x158;" horiz-adv-x="1242" 
d="M198 1412h429q129 0 235 -48.5t168 -140t62 -214.5q0 -91 -36.5 -166t-102 -126.5t-151.5 -74.5l388 -644h-235l-351 621h-203v-621h-203v1414zM651 794q110 5 175 61t65 152q0 69 -32.5 119.5t-92 77.5t-137.5 27h-226v-437h248zM615 1493l-322 332h174l148 -160
l150 160h174z" />
    <glyph glyph-name="rcaron" unicode="&#x159;" horiz-adv-x="805" 
d="M158 999h190v-173q35 90 113 142t169 52q50 0 94.5 -16t76.5 -45l-85 -163q-49 37 -116 37q-73 0 -130.5 -42t-90.5 -125t-33 -203v-463h-188v999zM396 1080l-322 332h174l148 -160l150 160h174z" />
    <glyph glyph-name="Sacute" unicode="&#x15a;" horiz-adv-x="1123" 
d="M345.5 29q-109.5 45 -184.5 134t-96 216l197 53q9 -89 53.5 -149t113.5 -89t151 -29q122 0 192 57.5t70 160.5q0 72 -40.5 122t-100.5 83t-163 76q-122 51 -197.5 94.5t-128.5 117.5t-53 185q0 113 55 197.5t149 130t206 45.5q131 0 237 -58t173 -175l-162 -103
q-40 76 -106.5 116.5t-146.5 40.5q-55 0 -101.5 -22.5t-74.5 -63.5t-28 -95q0 -61 37 -104.5t92.5 -73t153.5 -71.5q128 -54 207.5 -100t135.5 -126t56 -199q0 -125 -61 -219.5t-167 -145.5t-236 -51q-123 0 -232.5 45zM450 1537l221 289h225l-291 -289h-155z" />
    <glyph glyph-name="sacute" unicode="&#x15b;" horiz-adv-x="888" 
d="M268.5 15q-81.5 35 -137.5 95t-80 133l158 74q27 -78 83 -127.5t149 -49.5q83 0 131.5 40t48.5 103q0 46 -28 76t-70.5 47.5t-117.5 39.5q-96 28 -156 55.5t-102.5 82t-42.5 143.5q0 93 46.5 159.5t124.5 100t171 33.5q119 0 209.5 -55t142.5 -153l-147 -81
q-70 135 -212 135q-69 0 -111 -32t-42 -82q0 -38 26 -64t65 -41.5t110 -37.5q102 -31 166 -61t110.5 -90.5t46.5 -158.5q0 -104 -51.5 -176t-135 -107.5t-177.5 -35.5q-96 0 -177.5 35zM322 1124l221 289h225l-291 -289h-155z" />
    <glyph glyph-name="Scedilla" unicode="&#x15e;" horiz-adv-x="1123" 
d="M986.5 189.5q-55.5 -91.5 -152.5 -144t-218 -60.5l-63 -94q91 -7 139.5 -58.5t48.5 -129.5q0 -58 -28 -107.5t-78 -79t-114 -29.5q-62 0 -114 36t-74 91l116 54q6 -25 28 -43t50 -18q40 0 65 25t25 63q0 32 -21 59t-61 43t-96 16h-54l104 177q-106 15 -195.5 63.5
t-150 131t-78.5 194.5l197 53q9 -89 53.5 -149t113.5 -89t151 -29q122 0 192 57.5t70 160.5q0 72 -40.5 122t-100.5 83t-163 76q-122 51 -197.5 94.5t-128.5 117.5t-53 185q0 113 55 197.5t149 130t206 45.5q131 0 237 -58t173 -175l-162 -103q-40 76 -106.5 116.5
t-146.5 40.5q-55 0 -101.5 -22.5t-74.5 -63.5t-28 -95q0 -61 37 -104.5t92.5 -73t153.5 -71.5q128 -54 207.5 -100t135.5 -126t56 -199t-55.5 -210.5z" />
    <glyph glyph-name="scedilla" unicode="&#x15f;" horiz-adv-x="888" 
d="M733.5 91.5q-76.5 -79.5 -194.5 -102.5l-65 -98q91 -7 139.5 -58.5t48.5 -129.5q0 -58 -28 -107.5t-78 -79t-114 -29.5q-62 0 -114 36t-74 91l116 54q6 -25 28 -43t50 -18q40 0 65 25t25 63q0 32 -21 59t-61 43t-96 16h-54l99 169q-86 7 -159 43.5t-123 93.5t-72 124
l158 74q27 -78 83 -127.5t149 -49.5q83 0 131.5 40t48.5 103q0 46 -28 76t-70.5 47.5t-117.5 39.5q-96 28 -156 55.5t-102.5 82t-42.5 143.5q0 93 46.5 159.5t124.5 100t171 33.5q119 0 209.5 -55t142.5 -153l-147 -81q-70 135 -212 135q-69 0 -111 -32t-42 -82
q0 -38 26 -64t65 -41.5t110 -37.5q102 -31 166 -61t110.5 -90.5t46.5 -158.5q0 -128 -76.5 -207.5z" />
    <glyph glyph-name="Scaron" unicode="&#x160;" horiz-adv-x="1123" 
d="M345.5 29q-109.5 45 -184.5 134t-96 216l197 53q9 -89 53.5 -149t113.5 -89t151 -29q122 0 192 57.5t70 160.5q0 72 -40.5 122t-100.5 83t-163 76q-122 51 -197.5 94.5t-128.5 117.5t-53 185q0 113 55 197.5t149 130t206 45.5q131 0 237 -58t173 -175l-162 -103
q-40 76 -106.5 116.5t-146.5 40.5q-55 0 -101.5 -22.5t-74.5 -63.5t-28 -95q0 -61 37 -104.5t92.5 -73t153.5 -71.5q128 -54 207.5 -100t135.5 -126t56 -199q0 -125 -61 -219.5t-167 -145.5t-236 -51q-123 0 -232.5 45zM556 1493l-322 332h174l148 -160l150 160h174z" />
    <glyph glyph-name="scaron" unicode="&#x161;" horiz-adv-x="888" 
d="M268.5 15q-81.5 35 -137.5 95t-80 133l158 74q27 -78 83 -127.5t149 -49.5q83 0 131.5 40t48.5 103q0 46 -28 76t-70.5 47.5t-117.5 39.5q-96 28 -156 55.5t-102.5 82t-42.5 143.5q0 93 46.5 159.5t124.5 100t171 33.5q119 0 209.5 -55t142.5 -153l-147 -81
q-70 135 -212 135q-69 0 -111 -32t-42 -82q0 -38 26 -64t65 -41.5t110 -37.5q102 -31 166 -61t110.5 -90.5t46.5 -158.5q0 -104 -51.5 -176t-135 -107.5t-177.5 -35.5q-96 0 -177.5 35zM428 1080l-322 332h174l148 -160l150 160h174z" />
    <glyph glyph-name="uni0162" unicode="&#x162;" horiz-adv-x="1208" 
d="M502 0v1237h-461v176h1126v-176h-461v-1237h-204zM456 -477q-52 36 -74 91l116 54q6 -25 28 -43t50 -18q40 0 65 25t25 63q0 32 -21 59t-61 43t-96 16h-54l109 186h131l-72 -108q91 -7 139.5 -58.5t48.5 -129.5q0 -58 -28 -107.5t-78 -79t-114 -29.5q-62 0 -114 36z" />
    <glyph glyph-name="uni0163" unicode="&#x163;" horiz-adv-x="711" 
d="M603.5 -167.5q48.5 -51.5 48.5 -129.5q0 -58 -28 -107.5t-78 -79t-114 -29.5q-62 0 -114 36t-74 91l116 54q6 -25 28 -43t50 -18q40 0 65 25t25 63q0 32 -21 59t-61 43t-96 16h-54l102 174q-100 20 -151 93.5t-51 189.5v568h-161v161h163v236l190 156v-392h253v-161h-253
v-548q0 -74 33 -109t87 -35q29 0 60.5 9t58.5 22v-172q-38 -16 -102 -22l-61 -92q91 -7 139.5 -58.5z" />
    <glyph glyph-name="Tcaron" unicode="&#x164;" horiz-adv-x="1208" 
d="M502 0v1237h-461v176h1126v-176h-461v-1237h-204zM605 1493l-322 332h174l148 -160l150 160h174z" />
    <glyph glyph-name="tcaron" unicode="&#x165;" horiz-adv-x="715" 
d="M504 1123l127 411h224l-235 -411h-116zM261 57.5q-66 77.5 -66 212.5v559h-159v170h162v236l186 156v-392h258v-170h-258v-563q0 -116 101 -116q41 0 73 6t49 12.5t21 8.5v-172q-5 -2 -25 -8t-56.5 -11.5t-83.5 -5.5q-136 0 -202 77.5z" />
    <glyph glyph-name="Tbar" unicode="&#x166;" horiz-adv-x="1208" 
d="M1167 1237h-461v-461h217v-139h-217v-637h-204v637h-213v139h213v461h-461v176h1126v-176z" />
    <glyph glyph-name="tbar" unicode="&#x167;" horiz-adv-x="711" 
d="M388 430v-140q0 -74 33 -109t87 -35q29 0 60.5 9t58.5 22v-172q-24 -10 -67 -17.5t-89 -7.5q-136 0 -205.5 77t-69.5 213v160h-175v139h175v269h-161v161h163v236l190 156v-392h253v-161h-253v-269h267v-139h-267z" />
    <glyph glyph-name="Utilde" unicode="&#x168;" horiz-adv-x="1366" 
d="M391 51q-115 71 -169 195.5t-54 287.5v879h203v-842q0 -192 69.5 -294t241.5 -102t242.5 102t70.5 294v842h204v-869q0 -167 -54.5 -293.5t-170.5 -198.5t-292 -72t-291 71zM713.5 1565q-36.5 24 -77.5 68q-28 30 -46.5 44t-40.5 14q-34 0 -51 -37t-17 -100h-118
q0 124 50 195.5t139 71.5q39 0 69.5 -13.5t52 -32t49.5 -48.5q29 -30 46.5 -43.5t38.5 -13.5q33 0 50 38t17 107h124q0 -132 -51 -203t-142 -71q-56 0 -92.5 24z" />
    <glyph glyph-name="utilde" unicode="&#x169;" horiz-adv-x="1140" 
d="M216.5 104q-87.5 125 -87.5 340v555h196v-564q0 -132 42.5 -209t153.5 -77q72 0 133 37.5t97.5 115.5t36.5 192v505h195v-999h-195v145q-44 -72 -125 -119t-180 -47q-179 0 -266.5 125zM597.5 1152q-36.5 24 -77.5 68q-28 30 -46.5 44t-40.5 14q-34 0 -51 -37t-17 -100
h-118q0 124 50 195.5t139 71.5q39 0 69.5 -13.5t52 -32t49.5 -48.5q29 -30 46.5 -43.5t38.5 -13.5q33 0 50 38t17 107h124q0 -132 -51 -203t-142 -71q-56 0 -92.5 24z" />
    <glyph glyph-name="Umacron" unicode="&#x16a;" horiz-adv-x="1366" 
d="M391 51q-115 71 -169 195.5t-54 287.5v879h203v-842q0 -192 69.5 -294t241.5 -102t242.5 102t70.5 294v842h204v-869q0 -167 -54.5 -293.5t-170.5 -198.5t-292 -72t-291 71zM409 1579v134h549v-134h-549z" />
    <glyph glyph-name="umacron" unicode="&#x16b;" horiz-adv-x="1140" 
d="M216.5 104q-87.5 125 -87.5 340v555h196v-564q0 -132 42.5 -209t153.5 -77q72 0 133 37.5t97.5 115.5t36.5 192v505h195v-999h-195v145q-44 -72 -125 -119t-180 -47q-179 0 -266.5 125zM293 1166v134h549v-134h-549z" />
    <glyph glyph-name="Uring" unicode="&#x16e;" horiz-adv-x="1366" 
d="M391 51q-115 71 -169 195.5t-54 287.5v879h203v-842q0 -192 69.5 -294t241.5 -102t242.5 102t70.5 294v842h204v-869q0 -167 -54.5 -293.5t-170.5 -198.5t-292 -72t-291 71zM572 1516.5q-49 29.5 -77.5 79.5t-28.5 108q0 59 28.5 108t78 78t108.5 29q58 0 108 -28.5
t79.5 -78t29.5 -108.5t-29 -109t-79 -79t-109 -29q-60 0 -109 29.5zM753 1633q29 29 29 72q0 42 -28 69.5t-73 27.5q-44 0 -71 -27t-27 -70q0 -44 28 -72.5t70 -28.5q43 0 72 29z" />
    <glyph glyph-name="uring" unicode="&#x16f;" horiz-adv-x="1140" 
d="M216.5 104q-87.5 125 -87.5 340v555h196v-564q0 -132 42.5 -209t153.5 -77q72 0 133 37.5t97.5 115.5t36.5 192v505h195v-999h-195v145q-44 -72 -125 -119t-180 -47q-179 0 -266.5 125zM456 1103.5q-49 29.5 -77.5 79.5t-28.5 108q0 59 28.5 108t78 78t108.5 29
q58 0 108 -28.5t79.5 -78t29.5 -108.5t-29 -109t-79 -79t-109 -29q-60 0 -109 29.5zM637 1220q29 29 29 72q0 42 -28 69.5t-73 27.5q-44 0 -71 -27t-27 -70q0 -44 28 -72.5t70 -28.5q43 0 72 29z" />
    <glyph glyph-name="Uhungarumlaut" unicode="&#x170;" horiz-adv-x="1366" 
d="M391 51q-115 71 -169 195.5t-54 287.5v879h203v-842q0 -192 69.5 -294t241.5 -102t242.5 102t70.5 294v842h204v-869q0 -167 -54.5 -293.5t-170.5 -198.5t-292 -72t-291 71zM403 1516l221 310h203l-269 -310h-155zM742 1516l221 310h224l-291 -310h-154z" />
    <glyph glyph-name="uhungarumlaut" unicode="&#x171;" horiz-adv-x="1140" 
d="M216.5 104q-87.5 125 -87.5 340v555h196v-564q0 -132 42.5 -209t153.5 -77q72 0 133 37.5t97.5 115.5t36.5 192v505h195v-999h-195v145q-44 -72 -125 -119t-180 -47q-179 0 -266.5 125zM287 1103l221 310h203l-269 -310h-155zM626 1103l221 310h224l-291 -310h-154z" />
    <glyph glyph-name="Uogonek" unicode="&#x172;" horiz-adv-x="1366" 
d="M1199 1413v-869q0 -198 -76.5 -337.5t-232.5 -194.5q-65 -32 -116 -82.5t-51 -116.5q0 -50 22.5 -74t57.5 -24q70 0 113 61l107 -74q-37 -56 -88.5 -87t-123.5 -31q-61 0 -110 25.5t-77 72t-28 107.5q0 60 27 107.5t70 83.5h-11q-176 0 -291 71t-169 195.5t-54 287.5v879
h203v-842q0 -192 69.5 -294t241.5 -102t242.5 102t70.5 294v842h204z" />
    <glyph glyph-name="uogonek" unicode="&#x173;" horiz-adv-x="1140" 
d="M1065 -333q-37 -56 -88.5 -87t-123.5 -31q-61 0 -110 25.5t-77 72t-28 107.5q0 71 37 124.5t81.5 83.5t71.5 38h-40v145q-44 -72 -125 -119t-180 -47q-179 0 -266.5 125t-87.5 340v555h196v-564q0 -132 42.5 -209t153.5 -77q72 0 133 37.5t97.5 115.5t36.5 192v505h195
v-999q-28 -10 -76.5 -36t-95 -74.5t-46.5 -111.5q0 -50 22.5 -74t57.5 -24q70 0 113 61z" />
    <glyph glyph-name="Wcircumflex" unicode="&#x174;" horiz-adv-x="1987" 
d="M461 0l-410 1413h210l319 -1135l334 1053h160l334 -1053l318 1135h211l-410 -1413h-208l-324 1007l-327 -1007h-207zM671 1498l323 354l323 -354h-173l-150 167l-148 -167h-175z" />
    <glyph glyph-name="wcircumflex" unicode="&#x175;" horiz-adv-x="1441" 
d="M324 -2l-293 1001h206l189 -719l210 719h170l210 -717l189 717h206l-293 -999h-180l-216 738l-218 -740h-180zM399 1098l323 354l323 -354h-173l-150 167l-148 -167h-175z" />
    <glyph glyph-name="Ycircumflex" unicode="&#x176;" horiz-adv-x="1317" 
d="M556 0v552l-529 861h242l388 -661l390 661h243l-527 -861v-552h-207zM333 1511l323 354l323 -354h-173l-150 167l-148 -167h-175z" />
    <glyph glyph-name="ycircumflex" unicode="&#x177;" horiz-adv-x="1002" 
d="M226 -430l177 445l-387 984h213l274 -759l271 759h212l-552 -1429h-208zM175 1098l323 354l323 -354h-173l-150 167l-148 -167h-175z" />
    <glyph glyph-name="Ydieresis" unicode="&#x178;" horiz-adv-x="1317" 
d="M556 0v552l-529 861h242l388 -661l390 661h243l-527 -861v-552h-207zM390 1618v208h186v-208h-186zM735 1618v208h186v-208h-186z" />
    <glyph glyph-name="Zacute" unicode="&#x179;" horiz-adv-x="1273" 
d="M74 0v148l845 1083h-800v182h1067v-155l-841 -1074h841v-184h-1112zM526 1537l221 289h225l-291 -289h-155z" />
    <glyph glyph-name="zacute" unicode="&#x17a;" horiz-adv-x="964" 
d="M890 999v-147l-573 -688h573v-164h-830v136l590 702h-561v161h801zM367 1124l221 289h225l-291 -289h-155z" />
    <glyph glyph-name="Zdotaccent" unicode="&#x17b;" horiz-adv-x="1273" 
d="M74 0v148l845 1083h-800v182h1067v-155l-841 -1074h841v-184h-1112zM525 1618v208h212v-208h-212z" />
    <glyph glyph-name="zdotaccent" unicode="&#x17c;" horiz-adv-x="964" 
d="M890 999v-147l-573 -688h573v-164h-830v136l590 702h-561v161h801zM366 1205v208h212v-208h-212z" />
    <glyph glyph-name="Zcaron" unicode="&#x17d;" horiz-adv-x="1273" 
d="M74 0v148l845 1083h-800v182h1067v-155l-841 -1074h841v-184h-1112zM632 1493l-322 332h174l148 -160l150 160h174z" />
    <glyph glyph-name="zcaron" unicode="&#x17e;" horiz-adv-x="964" 
d="M890 999v-147l-573 -688h573v-164h-830v136l590 702h-561v161h801zM473 1080l-322 332h174l148 -160l150 160h174z" />
    <glyph glyph-name="florin" unicode="&#x192;" horiz-adv-x="1038" 
d="M90 -289q124 0 197.5 29t107 94.5t33.5 177.5v822h-178v165h178v145q0 87 38 156.5t103 109t142 39.5q116 0 221 -90l-109 -128q-31 27 -57 38.5t-55 11.5q-48 0 -81.5 -34.5t-33.5 -102.5v-145h305v-165h-305v-822q0 -151 -60 -256t-173 -159t-273 -54v168z" />
    <glyph glyph-name="uni01C3" unicode="&#x1c3;" horiz-adv-x="622" 
d="M238 402l-29 1032h204l-29 -1032h-146zM197 0v226h228v-226h-228z" />
    <glyph glyph-name="uni01C4" unicode="&#x1c4;" horiz-adv-x="2680" 
d="M198 1413h383q234 0 395.5 -83t244.5 -243t83 -391q0 -221 -84.5 -377t-247 -237.5t-393.5 -81.5h-381v1413zM555 186q254 0 400 127t146 394q0 265 -127 393t-397 128h-176v-1042h154zM1481 0v148l845 1083h-800v182h1067v-155l-841 -1074h841v-184h-1112zM2039 1493
l-322 332h174l148 -160l150 160h174z" />
    <glyph glyph-name="uni01C5" unicode="&#x1c5;" horiz-adv-x="2371" 
d="M198 1413h383q234 0 395.5 -83t244.5 -243t83 -391q0 -221 -84.5 -377t-247 -237.5t-393.5 -81.5h-381v1413zM555 186q254 0 400 127t146 394q0 265 -127 393t-397 128h-176v-1042h154zM2297 999v-147l-573 -688h573v-164h-830v136l590 702h-561v161h801zM1880 1080
l-322 332h174l148 -160l150 160h174z" />
    <glyph glyph-name="uni01C6" unicode="&#x1c6;" horiz-adv-x="2113" 
d="M989 1413v-1413h-184l-6 125q-51 -71 -128 -108t-175 -37q-129 0 -223 70t-143 188.5t-49 261.5t49 261.5t142.5 188.5t221.5 70q95 0 172 -36t128 -104v533h195zM694.5 196.5q59.5 46.5 87.5 125.5t28 178q0 97 -28 176t-87.5 126t-149.5 47q-89 0 -149 -47.5
t-89 -126.5t-29 -175q0 -97 29 -176.5t89 -126.5t149 -47q90 0 149.5 46.5zM2039 999v-147l-573 -688h573v-164h-830v136l590 702h-561v161h801zM1622 1080l-322 332h174l148 -160l150 160h174z" />
    <glyph glyph-name="uni01C7" unicode="&#x1c7;" horiz-adv-x="2177" 
d="M198 0v1413h203v-1224h605v-189h-808zM1321 38q-99 58 -155 157.5t-65 221.5l200 24q8 -119 70.5 -197.5t180.5 -78.5q100 0 154.5 40.5t75 112t20.5 177.5v736h-533v182h736v-907q0 -245 -109 -385.5t-344 -140.5q-132 0 -231 58z" />
    <glyph glyph-name="uni01C8" unicode="&#x1c8;" horiz-adv-x="1564" 
d="M198 0v1413h203v-1224h605v-189h-808zM1202 1209v204h212v-204h-212zM1050 -428.5q-46 9.5 -78 22.5l45 158q60 -20 103 -20q47 0 68.5 31.5t21.5 84.5v1151h196v-1130q0 -138 -68 -222.5t-205 -84.5q-37 0 -83 9.5z" />
    <glyph glyph-name="uni01C9" unicode="&#x1c9;" horiz-adv-x="1059" 
d="M196 34q-43 54 -43 166v1213h194v-1200q0 -18 15.5 -39.5t48.5 -21.5q45 0 83 8v-160q-34 -8 -76.5 -14t-80.5 -6q-98 0 -141 54zM697 1209v204h212v-204h-212zM545 -428.5q-46 9.5 -78 22.5l45 158q60 -20 103 -20q47 0 68.5 31.5t21.5 84.5v1151h196v-1130
q0 -138 -68 -222.5t-205 -84.5q-37 0 -83 9.5z" />
    <glyph glyph-name="uni01CA" unicode="&#x1ca;" horiz-adv-x="2563" 
d="M198 0v1413h240l601 -1125v1125h198v-1413h-243l-598 1127v-1127h-198zM1707 38q-99 58 -155 157.5t-65 221.5l200 24q8 -119 70.5 -197.5t180.5 -78.5q100 0 154.5 40.5t75 112t20.5 177.5v736h-533v182h736v-907q0 -245 -109 -385.5t-344 -140.5q-132 0 -231 58z" />
    <glyph glyph-name="uni01CB" unicode="&#x1cb;" horiz-adv-x="1950" 
d="M198 0v1413h240l601 -1125v1125h198v-1413h-243l-598 1127v-1127h-198zM1588 1209v204h212v-204h-212zM1436 -428.5q-46 9.5 -78 22.5l45 158q60 -20 103 -20q47 0 68.5 31.5t21.5 84.5v1151h196v-1130q0 -138 -68 -222.5t-205 -84.5q-37 0 -83 9.5z" />
    <glyph glyph-name="uni01CC" unicode="&#x1cc;" horiz-adv-x="1654" 
d="M158 999h192v-147q54 80 135 123t174 43q119 0 197 -56.5t114.5 -150.5t36.5 -207v-604h-192v582q0 112 -52 187.5t-158 75.5q-115 0 -185 -79.5t-70 -233.5v-532h-192v999zM1292 1209v204h212v-204h-212zM1140 -428.5q-46 9.5 -78 22.5l45 158q60 -20 103 -20
q47 0 68.5 31.5t21.5 84.5v1151h196v-1130q0 -138 -68 -222.5t-205 -84.5q-37 0 -83 9.5z" />
    <glyph glyph-name="uni01CD" unicode="&#x1cd;" horiz-adv-x="1323" 
d="M39 0l547 1413h154l544 -1413h-219l-108 307h-587l-109 -307h-222zM438 486h450l-224 628zM661 1493l-322 332h174l148 -160l150 160h174z" />
    <glyph glyph-name="uni01CE" unicode="&#x1ce;" 
d="M232.5 17q-77.5 37 -121.5 107.5t-44 167.5q0 150 109.5 220.5t310.5 70.5h243q0 125 -55 196.5t-168 71.5q-88 0 -152 -41.5t-105 -104.5l-145 108q72 100 169.5 153.5t227.5 53.5q129 0 221.5 -51.5t140.5 -144t48 -214.5v-610h-161l-10 169q-56 -99 -141.5 -144
t-190.5 -45q-99 0 -176.5 37zM585 187q67 43 105.5 111.5t39.5 141.5h-229q-117 0 -176 -39t-59 -115q0 -69 45.5 -105.5t122.5 -36.5q84 0 151 43zM502 1080l-322 332h174l148 -160l150 160h174z" />
    <glyph glyph-name="uni01CF" unicode="&#x1cf;" horiz-adv-x="599" 
d="M198 0v1413h203v-1413h-203zM298 1493l-322 332h174l148 -160l150 160h174z" />
    <glyph glyph-name="uni01D0" unicode="&#x1d0;" horiz-adv-x="508" 
d="M158 0v999h193v-999h-193zM253 1080l-322 332h174l148 -160l150 160h174z" />
    <glyph glyph-name="uni01D1" unicode="&#x1d1;" horiz-adv-x="1521" 
d="M397.5 78q-147.5 98 -220.5 263t-73 366t73 366t220.5 263t362.5 98t363 -98t221 -263t73 -366t-73 -366t-221 -263t-363 -98t-362.5 98zM1016 237q101 74 147.5 196.5t46.5 273.5q0 150 -46.5 272.5t-147.5 196.5t-256 74q-154 0 -254.5 -74t-147 -196.5t-46.5 -272.5
q0 -151 46.5 -273.5t147 -196.5t254.5 -74q155 0 256 74zM759 1493l-322 332h174l148 -160l150 160h174z" />
    <glyph glyph-name="uni01D2" unicode="&#x1d2;" horiz-adv-x="1123" 
d="M304.5 50.5q-111.5 70.5 -173.5 190t-62 261.5t61.5 260.5t173.5 188t256 69.5q143 0 255.5 -69.5t175 -188.5t62.5 -260q0 -142 -62.5 -261.5t-175 -190t-255.5 -70.5q-144 0 -255.5 70.5zM724.5 194q65.5 50 97 131t31.5 177t-31.5 176t-97 128.5t-163.5 48.5
t-163.5 -48.5t-97 -128.5t-31.5 -176t31.5 -177.5t97.5 -131t163 -49.5q98 0 163.5 50zM560 1080l-322 332h174l148 -160l150 160h174z" />
    <glyph glyph-name="uni01D3" unicode="&#x1d3;" horiz-adv-x="1366" 
d="M391 51q-115 71 -169 195.5t-54 287.5v879h203v-842q0 -192 69.5 -294t241.5 -102t242.5 102t70.5 294v842h204v-869q0 -167 -54.5 -293.5t-170.5 -198.5t-292 -72t-291 71zM682 1493l-322 332h174l148 -160l150 160h174z" />
    <glyph glyph-name="uni01D4" unicode="&#x1d4;" horiz-adv-x="1140" 
d="M216.5 104q-87.5 125 -87.5 340v555h196v-564q0 -132 42.5 -209t153.5 -77q72 0 133 37.5t97.5 115.5t36.5 192v505h195v-999h-195v145q-44 -72 -125 -119t-180 -47q-179 0 -266.5 125zM566 1080l-322 332h174l148 -160l150 160h174z" />
    <glyph glyph-name="uni01D5" unicode="&#x1d5;" horiz-adv-x="1366" 
d="M391 51q-115 71 -169 195.5t-54 287.5v879h203v-842q0 -192 69.5 -294t241.5 -102t242.5 102t70.5 294v842h204v-869q0 -167 -54.5 -293.5t-170.5 -198.5t-292 -72t-291 71zM416 1618v208h186v-208h-186zM761 1618v208h186v-208h-186zM409 1993v134h549v-134h-549z" />
    <glyph glyph-name="uni01D6" unicode="&#x1d6;" horiz-adv-x="1140" 
d="M216.5 104q-87.5 125 -87.5 340v555h196v-564q0 -132 42.5 -209t153.5 -77q72 0 133 37.5t97.5 115.5t36.5 192v505h195v-999h-195v145q-44 -72 -125 -119t-180 -47q-179 0 -266.5 125zM300 1205v208h186v-208h-186zM645 1205v208h186v-208h-186zM293 1580v134h549v-134
h-549z" />
    <glyph glyph-name="uni01D7" unicode="&#x1d7;" horiz-adv-x="1366" 
d="M391 51q-115 71 -169 195.5t-54 287.5v879h203v-842q0 -192 69.5 -294t241.5 -102t242.5 102t70.5 294v842h204v-869q0 -167 -54.5 -293.5t-170.5 -198.5t-292 -72t-291 71zM416 1618v208h186v-208h-186zM761 1618v208h186v-208h-186zM576 1951l221 289h225l-291 -289
h-155z" />
    <glyph glyph-name="uni01D8" unicode="&#x1d8;" horiz-adv-x="1140" 
d="M216.5 104q-87.5 125 -87.5 340v555h196v-564q0 -132 42.5 -209t153.5 -77q72 0 133 37.5t97.5 115.5t36.5 192v505h195v-999h-195v145q-44 -72 -125 -119t-180 -47q-179 0 -266.5 125zM300 1205v208h186v-208h-186zM645 1205v208h186v-208h-186zM460 1538l221 289h225
l-291 -289h-155z" />
    <glyph glyph-name="uni01D9" unicode="&#x1d9;" horiz-adv-x="1366" 
d="M391 51q-115 71 -169 195.5t-54 287.5v879h203v-842q0 -192 69.5 -294t241.5 -102t242.5 102t70.5 294v842h204v-869q0 -167 -54.5 -293.5t-170.5 -198.5t-292 -72t-291 71zM416 1618v208h186v-208h-186zM761 1618v208h186v-208h-186zM682 1907l-322 332h174l148 -160
l150 160h174z" />
    <glyph glyph-name="uni01DA" unicode="&#x1da;" horiz-adv-x="1140" 
d="M216.5 104q-87.5 125 -87.5 340v555h196v-564q0 -132 42.5 -209t153.5 -77q72 0 133 37.5t97.5 115.5t36.5 192v505h195v-999h-195v145q-44 -72 -125 -119t-180 -47q-179 0 -266.5 125zM300 1205v208h186v-208h-186zM645 1205v208h186v-208h-186zM566 1494l-322 332h174
l148 -160l150 160h174z" />
    <glyph glyph-name="uni01DB" unicode="&#x1db;" horiz-adv-x="1366" 
d="M391 51q-115 71 -169 195.5t-54 287.5v879h203v-842q0 -192 69.5 -294t241.5 -102t242.5 102t70.5 294v842h204v-869q0 -167 -54.5 -293.5t-170.5 -198.5t-292 -72t-291 71zM416 1618v208h186v-208h-186zM761 1618v208h186v-208h-186zM614 1940l-281 300h224l221 -300
h-164z" />
    <glyph glyph-name="uni01DC" unicode="&#x1dc;" horiz-adv-x="1140" 
d="M216.5 104q-87.5 125 -87.5 340v555h196v-564q0 -132 42.5 -209t153.5 -77q72 0 133 37.5t97.5 115.5t36.5 192v505h195v-999h-195v145q-44 -72 -125 -119t-180 -47q-179 0 -266.5 125zM300 1205v208h186v-208h-186zM645 1205v208h186v-208h-186zM498 1527l-281 300h224
l221 -300h-164z" />
    <glyph glyph-name="uni01DD" unicode="&#x1dd;" 
d="M172 135q-103 147 -103 376q0 20 3 35t3 18h691q-6 125 -76.5 198.5t-190.5 73.5q-89 0 -150.5 -21.5t-116.5 -78.5l-133 112q83 87 178.5 125.5t218.5 38.5q153 0 260 -68.5t161 -183.5t54 -254t-51 -257t-154.5 -189.5t-251.5 -71.5q-239 0 -342 147zM693 227
q63 73 73 189h-509q6 -123 70.5 -192.5t186.5 -69.5q116 0 179 73z" />
    <glyph glyph-name="uni01E3" unicode="&#x1e3;" horiz-adv-x="1679" 
d="M562 1173v129h546v-129h-546zM234.5 17.5q-76.5 37.5 -122 107t-45.5 159.5q0 155 102.5 227.5t277.5 72.5h293q0 132 -56.5 201.5t-183.5 69.5q-79 0 -145 -39.5t-106 -97.5l-141 98q74 101 171 150.5t229 49.5q117 0 201.5 -46.5t129.5 -131.5q114 174 327 174
q233 0 335 -147.5t102 -375.5q0 -30 -5 -53h-692q7 -125 77.5 -198.5t190.5 -73.5q88 0 150.5 22t116.5 79l133 -114q-83 -87 -178.5 -125t-219.5 -38q-139 0 -230 59.5t-139 164.5q-59 -108 -159.5 -170t-245.5 -62q-91 0 -167.5 37.5zM1416 584q-7 125 -72.5 193
t-185.5 68q-116 0 -179 -72.5t-72 -188.5h509zM587 183q67 41 108 109t45 144h-279q-90 0 -146.5 -41t-56.5 -111q0 -43 26 -75t68 -49.5t89 -17.5q79 0 146 41z" />
    <glyph glyph-name="uni01EB" unicode="&#x1eb;" horiz-adv-x="1123" 
d="M549.5 -87q-69.5 -55 -69.5 -135q0 -50 22.5 -74t57.5 -24q70 0 113 61l107 -74q-37 -56 -88.5 -87t-123.5 -31q-61 0 -110 25.5t-77 72t-28 107.5q0 81 46.5 139t105.5 90q-129 13 -228 86t-153.5 186.5t-54.5 246.5q0 142 61.5 260.5t173.5 188t256 69.5
q143 0 255.5 -69.5t175 -188.5t62.5 -260q0 -120 -45 -225t-128 -178.5t-193 -102.5q-68 -28 -137.5 -83zM300.5 324.5q31.5 -81.5 97.5 -131t163 -49.5q98 0 163.5 50t97 131t31.5 177t-31.5 176t-97 128.5t-163.5 48.5t-163.5 -48.5t-97 -128.5t-31.5 -176t31.5 -177.5z
" />
    <glyph glyph-name="uni01F1" unicode="&#x1f1;" horiz-adv-x="2680" 
d="M198 1413h383q234 0 395.5 -83t244.5 -243t83 -391q0 -221 -84.5 -377t-247 -237.5t-393.5 -81.5h-381v1413zM555 186q254 0 400 127t146 394q0 265 -127 393t-397 128h-176v-1042h154zM1481 0v148l845 1083h-800v182h1067v-155l-841 -1074h841v-184h-1112z" />
    <glyph glyph-name="uni01F2" unicode="&#x1f2;" horiz-adv-x="2371" 
d="M198 1413h383q234 0 395.5 -83t244.5 -243t83 -391q0 -221 -84.5 -377t-247 -237.5t-393.5 -81.5h-381v1413zM555 186q254 0 400 127t146 394q0 265 -127 393t-397 128h-176v-1042h154zM2297 999v-147l-573 -688h573v-164h-830v136l590 702h-561v161h801z" />
    <glyph glyph-name="uni01F3" unicode="&#x1f3;" horiz-adv-x="2113" 
d="M989 1413v-1413h-184l-6 125q-51 -71 -128 -108t-175 -37q-129 0 -223 70t-143 188.5t-49 261.5t49 261.5t142.5 188.5t221.5 70q95 0 172 -36t128 -104v533h195zM694.5 196.5q59.5 46.5 87.5 125.5t28 178q0 97 -28 176t-87.5 126t-149.5 47q-89 0 -149 -47.5
t-89 -126.5t-29 -175q0 -97 29 -176.5t89 -126.5t149 -47q90 0 149.5 46.5zM2039 999v-147l-573 -688h573v-164h-830v136l590 702h-561v161h801z" />
    <glyph glyph-name="Scommaaccent" unicode="&#x218;" horiz-adv-x="1123" 
d="M345.5 29q-109.5 45 -184.5 134t-96 216l197 53q9 -89 53.5 -149t113.5 -89t151 -29q122 0 192 57.5t70 160.5q0 72 -40.5 122t-100.5 83t-163 76q-122 51 -197.5 94.5t-128.5 117.5t-53 185q0 113 55 197.5t149 130t206 45.5q131 0 237 -58t173 -175l-162 -103
q-40 76 -106.5 116.5t-146.5 40.5q-55 0 -101.5 -22.5t-74.5 -63.5t-28 -95q0 -61 37 -104.5t92.5 -73t153.5 -71.5q128 -54 207.5 -100t135.5 -126t56 -199q0 -125 -61 -219.5t-167 -145.5t-236 -51q-123 0 -232.5 45zM324 -452l129 343h231l-237 -343h-123z" />
    <glyph glyph-name="scommaaccent" unicode="&#x219;" horiz-adv-x="888" 
d="M268.5 15q-81.5 35 -137.5 95t-80 133l158 74q27 -78 83 -127.5t149 -49.5q83 0 131.5 40t48.5 103q0 46 -28 76t-70.5 47.5t-117.5 39.5q-96 28 -156 55.5t-102.5 82t-42.5 143.5q0 93 46.5 159.5t124.5 100t171 33.5q119 0 209.5 -55t142.5 -153l-147 -81
q-70 135 -212 135q-69 0 -111 -32t-42 -82q0 -38 26 -64t65 -41.5t110 -37.5q102 -31 166 -61t110.5 -90.5t46.5 -158.5q0 -104 -51.5 -176t-135 -107.5t-177.5 -35.5q-96 0 -177.5 35zM245 -452l129 343h231l-237 -343h-123z" />
    <glyph glyph-name="uni021A" unicode="&#x21a;" horiz-adv-x="1208" 
d="M502 0v1237h-461v176h1126v-176h-461v-1237h-204zM373 -452l129 343h231l-237 -343h-123z" />
    <glyph glyph-name="uni021B" unicode="&#x21b;" horiz-adv-x="711" 
d="M265.5 57q-69.5 77 -69.5 213v568h-161v161h163v236l190 156v-392h253v-161h-253v-548q0 -74 33 -109t87 -35q29 0 60.5 9t58.5 22v-172q-24 -10 -67 -17.5t-89 -7.5q-136 0 -205.5 77zM235 -452l129 343h231l-237 -343h-123z" />
    <glyph glyph-name="uni0237" unicode="&#x237;" horiz-adv-x="516" 
d="M-3 -428q-45 10 -76 22l44 164q24 -6 55 -10.5t54 -4.5q50 0 68.5 30t18.5 85v1141h195v-1133q0 -137 -69.5 -220.5t-206.5 -83.5q-38 0 -83 10z" />
    <glyph glyph-name="uni0250" unicode="&#x250;" horiz-adv-x="1074" 
d="M345.5 30q-91.5 50 -139.5 141.5t-48 213.5v610h154l17 -161q65 97 146.5 139.5t195.5 42.5q91 0 168.5 -38t124 -108t46.5 -161q0 -156 -104 -226.5t-281 -70.5h-287q0 -127 55.5 -194.5t178.5 -67.5q78 0 144 40.5t104 100.5l145 -109q-74 -102 -170.5 -152t-230.5 -50
q-127 0 -218.5 50zM611 560q88 0 144 41t56 108q0 68 -51 103t-131 35q-79 0 -145.5 -40.5t-105.5 -107t-40 -139.5h273z" />
    <glyph glyph-name="uni0254" unicode="&#x254;" horiz-adv-x="984" 
d="M211 52.5q-107 72.5 -163 202.5l184 74q22 -80 82.5 -127t143.5 -47q89 0 147 49t84.5 127t26.5 167q0 90 -26 167.5t-84 126t-148 48.5q-83 0 -143.5 -47t-82.5 -127l-172 69q47 134 150.5 207.5t245.5 73.5q147 0 250.5 -71.5t155 -189.5t51.5 -257q0 -138 -51 -256.5
t-154 -190t-250 -71.5q-140 0 -247 72.5z" />
    <glyph glyph-name="uni0258" unicode="&#x258;" 
d="M277.5 26q-95.5 38 -178.5 125l133 114q55 -57 116.5 -79t150.5 -22q120 0 190.5 73.5t76.5 198.5h-691q-6 33 -6 53q0 229 103 376t342 147q148 0 251.5 -71.5t154.5 -189.5t51 -257t-54 -254t-161 -183.5t-260 -68.5q-123 0 -218.5 38zM766 584q-10 116 -73.5 188.5
t-178.5 72.5q-122 0 -186.5 -69t-70.5 -192h509z" />
    <glyph glyph-name="uni0259" unicode="&#x259;" 
d="M172 135q-103 147 -103 376q0 20 3 35t3 18h691q-6 125 -76.5 198.5t-190.5 73.5q-89 0 -150.5 -21.5t-116.5 -78.5l-133 112q83 87 178.5 125.5t218.5 38.5q153 0 260 -68.5t161 -183.5t54 -254t-51 -257t-154.5 -189.5t-251.5 -71.5q-239 0 -342 147zM693 227
q63 73 73 189h-509q6 -123 70.5 -192.5t186.5 -69.5q116 0 179 73z" />
    <glyph glyph-name="uni0261" unicode="&#x261;" horiz-adv-x="1135" 
d="M925 -232.5q-52 -98.5 -152 -151t-240 -52.5q-142 0 -246.5 53.5t-171.5 152.5l149 109q40 -68 109.5 -107t160.5 -39q120 0 184 69.5t64 197.5v131q-49 -66 -125 -98.5t-166 -32.5q-134 0 -229.5 68t-144 184t-48.5 257t49 257.5t143 185t224 68.5q91 0 169 -36
t128 -104v119h195v-999q0 -134 -52 -232.5zM682.5 220.5q59.5 44.5 87.5 119.5t28 170q0 94 -28 170t-87.5 121t-148.5 45t-149 -45t-89 -121t-29 -170t29 -169.5t89 -120t149 -44.5t148.5 44.5z" />
    <glyph glyph-name="circumflex" unicode="&#x2c6;" horiz-adv-x="705" 
d="M27 1098l323 354l323 -354h-173l-150 167l-148 -167h-175z" />
    <glyph glyph-name="caron" unicode="&#x2c7;" horiz-adv-x="708" 
d="M354 1080l-322 332h174l148 -160l150 160h174z" />
    <glyph glyph-name="uni02D0" unicode="&#x2d0;" horiz-adv-x="545" 
d="M283 583l-240 416l449 20zM53 -20l209 436l241 -416z" />
    <glyph glyph-name="uni02D1" unicode="&#x2d1;" horiz-adv-x="557" 
d="M289 240l-240 417l450 20z" />
    <glyph glyph-name="breve" unicode="&#x2d8;" horiz-adv-x="821" 
d="M178.5 1213q-80.5 70 -80.5 200h153q0 -66 45 -104.5t113 -38.5q69 0 113 38.5t44 104.5h153q0 -132 -81.5 -201t-228.5 -69q-150 0 -230.5 70z" />
    <glyph glyph-name="dotaccent" unicode="&#x2d9;" horiz-adv-x="519" 
d="M159 1205v208h212v-208h-212z" />
    <glyph glyph-name="ring" unicode="&#x2da;" horiz-adv-x="634" 
d="M205 1103.5q-49 29.5 -77.5 79.5t-28.5 108q0 59 28.5 108t78 78t108.5 29q58 0 108 -28.5t79.5 -78t29.5 -108.5t-29 -109t-79 -79t-109 -29q-60 0 -109 29.5zM386 1220q29 29 29 72q0 42 -28 69.5t-73 27.5q-44 0 -71 -27t-27 -70q0 -44 28 -72.5t70 -28.5q43 0 72 29z
" />
    <glyph glyph-name="ogonek" unicode="&#x2db;" horiz-adv-x="583" 
d="M202 -425.5q-49 25.5 -77 72t-28 107.5q0 71 37 124.5t81.5 83.5t71.5 38h155q-28 -10 -76.5 -36t-95 -74.5t-46.5 -111.5q0 -50 22.5 -74t57.5 -24q70 0 113 61l107 -74q-37 -56 -88.5 -87t-123.5 -31q-61 0 -110 25.5z" />
    <glyph glyph-name="tilde" unicode="&#x2dc;" horiz-adv-x="865" 
d="M501.5 1163q-36.5 24 -77.5 68q-28 30 -46.5 44t-40.5 14q-34 0 -51 -37t-17 -100h-118q0 124 50 195.5t139 71.5q39 0 69.5 -13.5t52 -32t49.5 -48.5q29 -30 46.5 -43.5t38.5 -13.5q33 0 50 38t17 107h124q0 -132 -51 -203t-142 -71q-56 0 -92.5 24z" />
    <glyph glyph-name="hungarumlaut" unicode="&#x2dd;" horiz-adv-x="873" 
d="M52 1103l221 310h203l-269 -310h-155zM391 1103l221 310h224l-291 -310h-154z" />
    <glyph glyph-name="uni02F5" unicode="&#x2f5;" horiz-adv-x="1174" 
d="M613 999l218 -304h-226l-274 304h282z" />
    <glyph glyph-name="uni02F6" unicode="&#x2f6;" horiz-adv-x="1174" 
d="M843 999l-274 -304h-226l219 304h281z" />
    <glyph glyph-name="gravecomb" unicode="&#x300;" horiz-adv-x="0" 
d="M-215 1113l-281 300h224l221 -300h-164z" />
    <glyph glyph-name="acutecomb" unicode="&#x301;" horiz-adv-x="0" 
d="M-484 1124l221 289h225l-291 -289h-155z" />
    <glyph glyph-name="uni0302" unicode="&#x302;" horiz-adv-x="0" 
d="M-676 1098l323 354l323 -354h-173l-150 167l-148 -167h-175z" />
    <glyph glyph-name="tildecomb" unicode="&#x303;" horiz-adv-x="0" 
d="M-400.5 1163q-36.5 24 -77.5 68q-28 30 -46.5 44t-40.5 14q-34 0 -51 -37t-17 -100h-118q0 124 50 195.5t139 71.5q39 0 69.5 -13.5t52 -32t49.5 -48.5q29 -30 46.5 -43.5t38.5 -13.5q33 0 50 38t17 107h124q0 -132 -51 -203t-142 -71q-56 0 -92.5 24z" />
    <glyph glyph-name="uni0304" unicode="&#x304;" horiz-adv-x="0" 
d="M-700 1166v134h549v-134h-549z" />
    <glyph glyph-name="uni0306" unicode="&#x306;" horiz-adv-x="0" 
d="M-640.5 1213q-80.5 70 -80.5 200h153q0 -66 45 -104.5t113 -38.5q69 0 113 38.5t44 104.5h153q0 -132 -81.5 -201t-228.5 -69q-150 0 -230.5 70z" />
    <glyph glyph-name="uni0307" unicode="&#x307;" horiz-adv-x="0" 
d="M-366 1205v208h212v-208h-212z" />
    <glyph glyph-name="uni0308" unicode="&#x308;" horiz-adv-x="0" 
d="M-684 1205v208h186v-208h-186zM-339 1205v208h186v-208h-186z" />
    <glyph glyph-name="uni030A" unicode="&#x30a;" horiz-adv-x="0" 
d="M-427 1103.5q-49 29.5 -77.5 79.5t-28.5 108q0 59 28.5 108t78 78t108.5 29q58 0 108 -28.5t79.5 -78t29.5 -108.5t-29 -109t-79 -79t-109 -29q-60 0 -109 29.5zM-246 1220q29 29 29 72q0 42 -28 69.5t-73 27.5q-44 0 -71 -27t-27 -70q0 -44 28 -72.5t70 -28.5
q43 0 72 29z" />
    <glyph glyph-name="uni030B" unicode="&#x30b;" horiz-adv-x="0" 
d="M-821 1103l221 310h203l-269 -310h-155zM-482 1103l221 310h224l-291 -310h-154z" />
    <glyph glyph-name="uni030C" unicode="&#x30c;" horiz-adv-x="0" 
d="M-354 1080l-322 332h174l148 -160l150 160h174z" />
    <glyph glyph-name="uni030F" unicode="&#x30f;" horiz-adv-x="0" 
d="M-575 1103l-281 310h234l221 -310h-174zM-227 1103l-280 310h234l221 -310h-175z" />
    <glyph glyph-name="uni0312" unicode="&#x312;" horiz-adv-x="0" 
d="M-94 1428l-129 -307h-231l237 307h123z" />
    <glyph glyph-name="uni031B" unicode="&#x31b;" horiz-adv-x="0" 
d="M-409 999l130 414h231l-238 -414h-123z" />
    <glyph glyph-name="uni0326" unicode="&#x326;" horiz-adv-x="0" 
d="M-408 -452l129 343h231l-237 -343h-123z" />
    <glyph glyph-name="uni0327" unicode="&#x327;" horiz-adv-x="0" 
d="M-423 -477q-52 36 -74 91l116 54q6 -25 28 -43t50 -18q40 0 65 25t25 63q0 32 -21 59t-61 43t-96 16h-54l109 186h131l-72 -108q91 -7 139.5 -58.5t48.5 -129.5q0 -58 -28 -107.5t-78 -79t-114 -29.5q-62 0 -114 36z" />
    <glyph glyph-name="uni0328" unicode="&#x328;" horiz-adv-x="0" 
d="M-381 -425.5q-49 25.5 -77 72t-28 107.5q0 71 37 124.5t81.5 83.5t71.5 38h155q-28 -10 -76.5 -36t-95 -74.5t-46.5 -111.5q0 -50 22.5 -74t57.5 -24q70 0 113 61l107 -74q-37 -56 -88.5 -87t-123.5 -31q-61 0 -110 25.5z" />
    <glyph glyph-name="pi" unicode="&#x3c0;" horiz-adv-x="996" 
d="M714.5 12q-49.5 32 -76.5 87t-27 124v600h-257v-823h-176v823h-82v176h773v-176h-82v-581q0 -58 16.5 -84.5t42.5 -26.5q24 0 48 16l52 -134q-52 -33 -116 -33q-66 0 -115.5 32z" />
    <glyph glyph-name="uni0400" unicode="&#x400;" horiz-adv-x="1242" 
d="M198 0v1413h927v-182h-724v-434h649v-180h-649v-428h724v-189h-927zM576 1526l-281 300h224l221 -300h-164z" />
    <glyph glyph-name="uni0401" unicode="&#x401;" horiz-adv-x="1242" 
d="M198 0v1413h927v-182h-724v-434h649v-180h-649v-428h724v-189h-927zM378 1618v208h186v-208h-186zM723 1618v208h186v-208h-186z" />
    <glyph glyph-name="uni0402" unicode="&#x402;" horiz-adv-x="1621" 
d="M943.5 16.5q-88.5 35.5 -144.5 91.5l111 139q35 -38 82.5 -57.5t103.5 -19.5q69 0 122 32.5t82.5 92.5t29.5 140q0 127 -28.5 207.5t-97 122t-187.5 41.5q-103 0 -183 -38t-128 -95v-673h-203v1237h-462v175h1126v-175h-461v-336q65 47 144.5 73.5t166.5 26.5
q264 0 390.5 -143.5t126.5 -412.5q0 -145 -52 -249.5t-146 -159.5t-218 -55q-86 0 -174.5 35.5z" />
    <glyph glyph-name="uni0403" unicode="&#x403;" horiz-adv-x="1067" 
d="M460 1537l219 289h213l-286 -289h-146zM198 0v1412h827v-181h-624v-1231h-203z" />
    <glyph glyph-name="uni0404" unicode="&#x404;" horiz-adv-x="1425" 
d="M399 77.5q-148 97.5 -221 262.5t-73 367q0 203 72.5 368t220 263t362.5 98q205 0 358.5 -100t236.5 -290l-188 -76q-41 142 -148.5 208t-260.5 66q-138 0 -234.5 -59t-148.5 -160t-64 -230h601v-171h-600q13 -133 65.5 -235t149 -160t235.5 -58q148 0 249 66t158 212
l188 -78q-81 -190 -235.5 -290.5t-359.5 -100.5q-215 0 -363 97.5z" />
    <glyph glyph-name="uni0405" unicode="&#x405;" horiz-adv-x="1123" 
d="M345.5 29q-109.5 45 -184.5 134t-96 216l197 53q9 -89 53.5 -149t113.5 -89t151 -29q122 0 192 57.5t70 160.5q0 72 -40.5 122t-100.5 83t-163 76q-122 51 -197.5 94.5t-128.5 117.5t-53 185q0 113 55 197.5t149 130t206 45.5q131 0 237 -58t173 -175l-162 -103
q-40 76 -106.5 116.5t-146.5 40.5q-55 0 -101.5 -22.5t-74.5 -63.5t-28 -95q0 -61 37 -104.5t92.5 -73t153.5 -71.5q128 -54 207.5 -100t135.5 -126t56 -199q0 -125 -61 -219.5t-167 -145.5t-236 -51q-123 0 -232.5 45z" />
    <glyph glyph-name="uni0406" unicode="&#x406;" horiz-adv-x="599" 
d="M198 0v1412h203v-1412h-203z" />
    <glyph glyph-name="uni0407" unicode="&#x407;" horiz-adv-x="598" 
d="M37 1583v180h179v-180h-179zM379 1583v180h179v-180h-179zM198 0v1412h203v-1412h-203z" />
    <glyph glyph-name="uni0408" unicode="&#x408;" horiz-adv-x="1128" 
d="M272 38q-99 58 -155 157.5t-65 221.5l200 25q8 -120 70.5 -198.5t181.5 -78.5q99 0 153.5 40.5t75 111.5t20.5 178v736h-533v181h736v-909q0 -244 -108.5 -383.5t-343.5 -139.5q-133 0 -232 58z" />
    <glyph glyph-name="uni0409" unicode="&#x409;" horiz-adv-x="1980" 
d="M32 31l66 165q33 -11 59.5 -17t52.5 -6q74 0 104 224t30 490v525h878v-613h217q141 0 247.5 -46t166 -135.5t59.5 -214.5t-59.5 -216t-166.5 -139t-247 -48h-418v1231h-474v-343q0 -243 -18 -431t-89.5 -332.5t-218.5 -144.5q-101 0 -189 51zM1439 186q134 0 204 56.5
t70 160.5t-69 157t-205 53h-217v-427h217z" />
    <glyph glyph-name="uni040A" unicode="&#x40a;" horiz-adv-x="2030" 
d="M198 1412h203v-615h669v615h204v-613h215q141 0 248 -46.5t166.5 -135.5t59.5 -214t-59.5 -216t-167 -139t-247.5 -48h-419v616h-669v-616h-203v1412zM1489 186q134 0 203.5 56.5t69.5 160.5t-69 157t-204 53h-215v-427h215z" />
    <glyph glyph-name="uni040B" unicode="&#x40b;" horiz-adv-x="1643" 
d="M503 1237h-462v175h1126v-175h-461v-336q128 100 311 100q263 0 390 -157t127 -432v-412h-204v401q0 131 -28.5 219.5t-97 137t-187.5 48.5q-103 0 -183 -38t-128 -95v-673h-203v1237z" />
    <glyph glyph-name="uni040C" unicode="&#x40c;" horiz-adv-x="1306" 
d="M519 1537l219 289h214l-287 -289h-146zM198 1412h203v-544h159l359 544h266l-416 -588q55 0 103.5 -34.5t82.5 -82t52 -90.5l252 -617h-248l-185 521q-12 35 -38 72.5t-65 64.5t-87 27h-235v-685h-203v1412z" />
    <glyph glyph-name="uni040D" unicode="&#x40d;" horiz-adv-x="1471" 
d="M861 1529h-159l-273 297h214zM1273 1412v-1412h-203v1066q0 27 2 85l-631 -1151h-243v1412h203v-1049q0 -50 -3 -103l631 1152h244z" />
    <glyph glyph-name="uni040E" unicode="&#x40e;" horiz-adv-x="1113" 
d="M323.5 1625.5q-81.5 70.5 -81.5 200.5h146q0 -68 46.5 -107.5t115.5 -39.5q70 0 116.5 40t46.5 107h146q0 -131 -82.5 -201t-226.5 -70q-145 0 -226.5 70.5zM242 0l195 457l-398 955h218l287 -736l310 736h219l-616 -1412h-215z" />
    <glyph glyph-name="uni040F" unicode="&#x40f;" horiz-adv-x="1471" 
d="M634 -307v307h-436v1412h203v-1230h669v1230h203v-1412h-436v-307h-203z" />
    <glyph glyph-name="uni0410" unicode="&#x410;" horiz-adv-x="1323" 
d="M39 0l546 1412h154l544 -1412h-218l-110 307h-584l-111 -307h-221zM438 486h450l-225 628z" />
    <glyph glyph-name="uni0411" unicode="&#x411;" horiz-adv-x="1258" 
d="M198 1412h782v-183h-579v-412h317q142 0 240.5 -50.5t149 -144.5t50.5 -224q0 -122 -60.5 -212t-164 -138t-230.5 -48h-505v1412zM707 191q71 0 127.5 27t89 78.5t32.5 121.5q0 65 -33.5 115t-91 77t-127.5 27h-303v-446h306z" />
    <glyph glyph-name="uni0412" unicode="&#x412;" horiz-adv-x="1257" 
d="M198 1413h437q119 0 221.5 -37t167 -118.5t64.5 -208.5q0 -103 -47.5 -179t-123.5 -119q107 -45 173.5 -140t66.5 -219q0 -130 -63 -218t-166.5 -131t-224.5 -43h-505v1413zM647 816q108 0 176 51.5t68 163.5q0 105 -69.5 152t-183.5 47h-238v-414h247zM707 191
q114 0 182 52t68 167q0 112 -70.5 170t-182.5 58h-304v-447h307z" />
    <glyph glyph-name="uni0413" unicode="&#x413;" horiz-adv-x="1067" 
d="M198 0v1412h827v-181h-624v-1231h-203z" />
    <glyph glyph-name="uni0414" unicode="&#x414;" horiz-adv-x="1469" 
d="M41 -278v452h136l475 1239h162l477 -1239h136v-452h-202v278h-981v-278h-203zM392 174h682l-341 935z" />
    <glyph glyph-name="uni0415" unicode="&#x415;" horiz-adv-x="1242" 
d="M198 0v1413h927v-182h-724v-434h649v-180h-649v-428h724v-189h-927z" />
    <glyph glyph-name="uni0416" unicode="&#x416;" horiz-adv-x="2019" 
d="M302 617q18 43 52 90.5t82.5 82t103.5 34.5l-416 588h265l360 -544h159v544h203v-544h159l359 544h266l-416 -588q55 0 103.5 -34.5t82.5 -82t53 -90.5l251 -617h-248l-184 521q-22 63 -71.5 113.5t-118.5 50.5h-236v-685h-203v685h-235q-70 0 -118 -49t-72 -115
l-185 -521h-248z" />
    <glyph glyph-name="uni0417" unicode="&#x417;" horiz-adv-x="1113" 
d="M244.5 36.5q-119.5 56.5 -178.5 164.5l164 109q33 -78 108.5 -116t174.5 -38q81 0 148.5 29.5t108 88t40.5 140.5q0 80 -39.5 136t-107 84t-150.5 28h-150l-2 176h158q65 0 117.5 24t82.5 70t30 108q0 66 -30.5 114t-83.5 73.5t-118 25.5q-57 0 -107.5 -21t-83.5 -61.5
t-37 -96.5h-199q4 111 62.5 192.5t154.5 124.5t208 43q114 0 211 -44.5t155 -129.5t58 -200q0 -100 -44.5 -177.5t-126.5 -119.5q109 -40 176 -132.5t67 -231.5q0 -137 -68 -231.5t-181 -141t-249 -46.5q-149 0 -268.5 56.5z" />
    <glyph glyph-name="uni0418" unicode="&#x418;" horiz-adv-x="1435" 
d="M1237 0h-198v1127l-598 -1127h-243v1413h198v-1125l601 1125h240v-1413z" />
    <glyph glyph-name="uni0419" unicode="&#x419;" horiz-adv-x="1471" 
d="M529.5 1625.5q-81.5 70.5 -81.5 200.5h146q0 -68 46.5 -107.5t115.5 -39.5q70 0 116.5 40t46.5 107h146q0 -131 -82.5 -201t-226.5 -70q-145 0 -226.5 70.5zM1273 1412v-1412h-203v1066q0 27 2 85l-631 -1151h-243v1412h203v-1049q0 -50 -3 -103l631 1152h244z" />
    <glyph glyph-name="uni041A" unicode="&#x41a;" horiz-adv-x="1306" 
d="M198 1412h203v-544h159l359 544h266l-416 -588q55 0 103.5 -34.5t82.5 -82t52 -90.5l252 -617h-248l-185 521q-12 35 -38 72.5t-65 64.5t-87 27h-235v-685h-203v1412z" />
    <glyph glyph-name="uni041B" unicode="&#x41b;" horiz-adv-x="1334" 
d="M39 0l546 1413h162l548 -1413h-219l-410 1109l-407 -1109h-220z" />
    <glyph glyph-name="uni041C" unicode="&#x41c;" horiz-adv-x="1779" 
d="M198 0v1413h298l392 -1074l395 1074h298v-1413h-198v1173l-390 -1050h-207l-390 1050v-1173h-198z" />
    <glyph glyph-name="uni041D" unicode="&#x41d;" horiz-adv-x="1472" 
d="M198 0v1413h203v-616h669v616h204v-1413h-204v617h-669v-617h-203z" />
    <glyph glyph-name="uni041E" unicode="&#x41e;" horiz-adv-x="1521" 
d="M397.5 78q-147.5 98 -220.5 263t-73 366t73 366t220.5 263t362.5 98t363 -98t221 -263t73 -366t-73 -366t-221 -263t-363 -98t-362.5 98zM1016 237q101 74 147.5 196.5t46.5 273.5q0 150 -46.5 272.5t-147.5 196.5t-256 74q-154 0 -254.5 -74t-147 -196.5t-46.5 -272.5
q0 -151 46.5 -273.5t147 -196.5t254.5 -74q155 0 256 74z" />
    <glyph glyph-name="uni041F" unicode="&#x41f;" horiz-adv-x="1471" 
d="M198 0v1412h1075v-1412h-203v1231h-669v-1231h-203z" />
    <glyph glyph-name="uni0420" unicode="&#x420;" horiz-adv-x="1157" 
d="M198 1412h418q141 0 248 -47.5t166.5 -138.5t59.5 -216q0 -126 -59.5 -215t-166.5 -135.5t-248 -46.5h-216v-613h-202v1412zM616 800q136 0 205 53t69 157q0 103 -70 160t-204 57h-216v-427h216z" />
    <glyph glyph-name="uni0421" unicode="&#x421;" horiz-adv-x="1425" 
d="M399 77.5q-148 97.5 -221 262.5t-73 367q0 203 72.5 368t220 263t362.5 98q205 0 358.5 -100t236.5 -290l-188 -76q-41 142 -148.5 208t-260.5 66t-254.5 -70.5t-149.5 -189.5t-48 -267q0 -157 48.5 -279.5t150.5 -194.5t257 -72q148 0 249 66t158 212l188 -78
q-81 -190 -235.5 -290.5t-359.5 -100.5q-215 0 -363 97.5z" />
    <glyph glyph-name="uni0422" unicode="&#x422;" horiz-adv-x="1208" 
d="M503 0v1237h-462v175h1126v-175h-462v-1237h-202z" />
    <glyph glyph-name="uni0423" unicode="&#x423;" horiz-adv-x="1113" 
d="M242 0l195 457l-398 955h218l287 -736l310 736h219l-616 -1412h-215z" />
    <glyph glyph-name="uni0424" unicode="&#x424;" horiz-adv-x="1733" 
d="M765 109q-217 0 -365 71.5t-222 205t-74 319.5q0 187 74.5 323t222.5 210t364 74v100h203v-100q217 0 365 -74t222 -210t74 -323t-74 -320t-222 -204.5t-365 -71.5v-109h-203v109zM765 1129q-224 0 -338.5 -111t-114.5 -313q0 -200 114 -306.5t339 -106.5v837z
M1306.5 398.5q114.5 106.5 114.5 306.5q0 202 -115 313t-338 111v-837q224 0 338.5 106.5z" />
    <glyph glyph-name="uni0425" unicode="&#x425;" horiz-adv-x="1299" 
d="M50 0l469 707l-467 706h242l355 -567l357 567h241l-466 -706l468 -707h-241l-361 558l-355 -558h-242z" />
    <glyph glyph-name="uni0426" unicode="&#x426;" horiz-adv-x="1502" 
d="M1218 -278v278h-1020v1412h203v-1230h669v1230h203v-1230h147v-460h-202z" />
    <glyph glyph-name="uni0427" unicode="&#x427;" horiz-adv-x="1338" 
d="M936 511q-127 -101 -312 -101q-262 0 -388.5 157.5t-126.5 432.5v412h203v-401q0 -199 69.5 -302t242.5 -103q104 0 184.5 38t127.5 95v673h204v-1412h-204v511z" />
    <glyph glyph-name="uni0428" unicode="&#x428;" horiz-adv-x="1772" 
d="M198 0v1412h203v-1230h382v1230h203v-1230h385v1230h203v-1412h-1376z" />
    <glyph glyph-name="uni0429" unicode="&#x429;" horiz-adv-x="1803" 
d="M1519 -278v278h-1321v1412h203v-1230h382v1230h203v-1230h385v1230h203v-1230h147v-460h-202z" />
    <glyph glyph-name="uni042A" unicode="&#x42a;" horiz-adv-x="1386" 
d="M427 1238h-386v174h587v-613h217q141 0 247.5 -46t166 -135.5t59.5 -214.5t-59.5 -216t-166.5 -139t-247 -48h-418v1238zM845 186q134 0 204 56.5t70 160.5t-69 157t-205 53h-217v-427h217z" />
    <glyph glyph-name="uni042B" unicode="&#x42b;" horiz-adv-x="1682" 
d="M198 1412h202v-613h216q141 0 248 -46t166.5 -135.5t59.5 -214.5t-59.5 -216t-166.5 -139t-248 -48h-418v1412zM1282 0v1412h202v-1412h-202zM616 186q134 0 204 56.5t70 160.5t-69 157t-205 53h-216v-427h216z" />
    <glyph glyph-name="uni042C" unicode="&#x42c;" horiz-adv-x="1157" 
d="M198 1412h202v-613h216q141 0 248 -46t166.5 -135.5t59.5 -214.5t-59.5 -216t-166.5 -139t-248 -48h-418v1412zM616 186q134 0 204 56.5t70 160.5t-69 157t-205 53h-216v-427h216z" />
    <glyph glyph-name="uni042D" unicode="&#x42d;" horiz-adv-x="1425" 
d="M303.5 80.5q-154.5 100.5 -235.5 290.5l189 78q56 -146 157 -212t249 -66q205 0 317.5 124t133.5 329h-600v171h600q-12 129 -64 230t-148 160t-235 59q-152 0 -259.5 -66t-148.5 -208l-189 76q83 190 236.5 290t358.5 100q216 0 363.5 -98t220 -263t72.5 -368
q0 -202 -73 -367t-221.5 -262.5t-363.5 -97.5q-205 0 -359.5 100.5z" />
    <glyph glyph-name="uni042E" unicode="&#x42e;" horiz-adv-x="1945" 
d="M842.5 63.5q-141.5 83.5 -219 227t-93.5 325.5h-129v-616h-203v1412h203v-615h129q16 181 93.5 325t219 228t340.5 84q216 0 364 -98t220.5 -262.5t72.5 -366.5t-72.5 -366.5t-220.5 -262.5t-364 -98q-199 0 -340.5 83.5zM1437.5 236.5q100.5 73.5 147 196.5t46.5 274
t-46.5 273.5t-147 196t-254.5 73.5t-254.5 -73.5t-147 -196t-46.5 -273.5t46.5 -274t147 -196.5t254.5 -73.5t254.5 73.5z" />
    <glyph glyph-name="uni042F" unicode="&#x42f;" horiz-adv-x="1242" 
d="M841 -2v621h-203l-351 -621h-235l388 644q-86 23 -151.5 74.5t-102 126.5t-36.5 166q0 123 62 214.5t168 140t235 48.5h429v-1414h-203zM839 1231h-226q-78 0 -137.5 -27t-92 -77.5t-32.5 -119.5q0 -96 65 -152t175 -61h248v437z" />
    <glyph glyph-name="uni0430" unicode="&#x430;" 
d="M232.5 17q-77.5 37 -121.5 107.5t-44 167.5q0 150 109.5 220.5t310.5 70.5h243q0 125 -55 196.5t-168 71.5q-88 0 -152 -41.5t-105 -104.5l-145 108q72 100 169.5 153.5t227.5 53.5q129 0 221.5 -51.5t140.5 -144t48 -214.5v-610h-161l-10 169q-56 -99 -141.5 -144
t-190.5 -45q-99 0 -176.5 37zM585 187q67 43 105.5 111.5t39.5 141.5h-229q-117 0 -176 -39t-59 -115q0 -69 45.5 -105.5t122.5 -36.5q84 0 151 43z" />
    <glyph glyph-name="uni0431" unicode="&#x431;" horiz-adv-x="1157" 
d="M887.5 897q98.5 -63 148.5 -171t50 -243q0 -138 -62.5 -253t-174 -182.5t-253.5 -67.5q-143 0 -252.5 64t-170 180.5t-60.5 269.5v257q0 200 64.5 314.5t154.5 173.5q104 69 232 110.5t310 84.5v-190q-139 -33 -258 -71.5t-169 -67.5q-56 -32 -89.5 -68.5t-52 -98.5
t-18.5 -161q56 81 151 132t211 51q140 0 238.5 -63zM750.5 187.5q62.5 43.5 93.5 118t31 167.5q0 143 -68 232t-211 89q-90 0 -153 -46.5t-94 -120t-31 -154.5q0 -146 68 -237.5t210 -91.5q92 0 154.5 43.5z" />
    <glyph glyph-name="uni0432" unicode="&#x432;" horiz-adv-x="1168" 
d="M255 94q-130 114 -130 351v529q0 239 129.5 349.5t344.5 110.5q120 0 214.5 -41.5t148.5 -124t54 -200.5q0 -50 -19.5 -104t-57.5 -100.5t-91 -74.5q107 -34 163.5 -134t56.5 -227q0 -142 -58.5 -243t-162.5 -153t-238 -52q-224 0 -354 114zM864 436q0 128 -68 193
t-183 65q-55 0 -98.5 -11t-85.5 -41v173q38 24 96.5 35t113.5 12q58 0 98 28t60 72t20 95q0 97 -55 146.5t-161 49.5q-89 0 -150 -27t-95 -94.5t-34 -186.5v-491q0 -160 71 -229t210 -69q261 0 261 280z" />
    <glyph glyph-name="uni0433" unicode="&#x433;" horiz-adv-x="886" 
d="M256.5 13q-83.5 33 -135 101t-51.5 168t46.5 162t111 93.5t166.5 63.5q71 23 109.5 39.5t64 42.5t25.5 64q0 53 -39.5 79t-107.5 26q-77 0 -126.5 -33t-81.5 -92l-143 80q51 91 140.5 149t211.5 58q88 0 164.5 -32.5t123 -97t46.5 -154.5q0 -95 -44 -153t-106 -87
t-160 -58q-74 -23 -114.5 -39.5t-67.5 -45t-27 -72.5q0 -63 48.5 -96.5t130.5 -33.5q87 0 147 50.5t85 122.5l157 -76q-23 -72 -79 -132t-137.5 -95t-176.5 -35q-97 0 -180.5 33z" />
    <glyph glyph-name="uni0434" unicode="&#x434;" horiz-adv-x="1135" 
d="M925 -232.5q-52 -98.5 -152 -151t-240 -52.5q-142 0 -246.5 53.5t-171.5 152.5l149 109q40 -68 109.5 -107t160.5 -39q120 0 184 69.5t64 197.5v131q-49 -66 -125 -98.5t-166 -32.5q-134 0 -229.5 68t-144 184t-48.5 257t49 257.5t143 185t224 68.5q91 0 169 -36
t128 -104v119h195v-999q0 -134 -52 -232.5zM682.5 220.5q59.5 44.5 87.5 119.5t28 170q0 94 -28 170t-87.5 121t-148.5 45t-149 -45t-89 -121t-29 -170t29 -169.5t89 -120t149 -44.5t148.5 44.5z" />
    <glyph glyph-name="uni0435" unicode="&#x435;" horiz-adv-x="1051" 
d="M288.5 53q-107.5 70 -161 186t-53.5 256q0 137 51.5 256t155.5 192t253 73q158 0 257 -72.5t142 -185t43 -237.5q0 -53 -6 -85h-691q7 -125 75.5 -202.5t196.5 -77.5q81 0 144.5 24.5t116.5 82.5l134 -113q-82 -86 -177.5 -126.5t-217.5 -40.5q-155 0 -262.5 70zM788 583
q-7 122 -70.5 197t-184.5 75q-116 0 -179.5 -76t-74.5 -196h509z" />
    <glyph glyph-name="uni0436" unicode="&#x436;" horiz-adv-x="1478" 
d="M199 444q24 61 67 110.5t94 49.5l-273 395h229l227 -364h99v777h194v-777h99l227 364h230l-273 -395q50 0 92 -49.5t68 -110.5l169 -444h-227l-121 356q-23 64 -57 96t-91 32h-116v-484h-194v484h-116q-56 0 -90.5 -32.5t-56.5 -95.5l-122 -356h-228z" />
    <glyph glyph-name="uni0437" unicode="&#x437;" horiz-adv-x="968" 
d="M176.5 -396q-105.5 54 -175.5 158l159 118q31 -73 98 -113t149 -40q87 0 150.5 35.5t97.5 100t34 151.5q0 122 -62 190t-166 68h-195v170h221q80 9 123.5 63t43.5 130q0 102 -59.5 152.5t-167.5 50.5q-159 0 -250 -172l-172 85q61 134 165 197.5t255 63.5
q120 0 215.5 -41.5t150.5 -124t55 -200.5q0 -82 -45 -161t-138 -118q118 -32 172.5 -130.5t54.5 -230.5q0 -142 -63 -245t-171 -157t-242 -54q-132 0 -237.5 54z" />
    <glyph glyph-name="uni0438" unicode="&#x438;" horiz-adv-x="1140" 
d="M216.5 104q-87.5 125 -87.5 340v555h196v-564q0 -132 42.5 -209t153.5 -77q72 0 133 37.5t97.5 115.5t36.5 192v505h195v-999h-195v145q-44 -72 -125 -119t-180 -47q-179 0 -266.5 125z" />
    <glyph glyph-name="uni0439" unicode="&#x439;" horiz-adv-x="1168" 
d="M354.5 1213q-81.5 70 -81.5 200h145q0 -67 47 -107t116 -40q70 0 116 40t46 107h146q0 -131 -82 -200.5t-226 -69.5q-145 0 -226.5 70zM312 36.5q-80 59.5 -117 157t-37 214.5v591h195v-586q0 -259 185 -259q74 0 138 40t102 105t38 137v563h195v-999h-195v144
q-44 -71 -125.5 -119t-176.5 -48q-122 0 -202 59.5z" />
    <glyph glyph-name="uni043A" unicode="&#x43a;" horiz-adv-x="998" 
d="M158 1412h194v-777h98l228 364h229l-273 -395q50 0 93 -49.5t68 -110.5l170 -444h-228l-122 356q-22 63 -56.5 95.5t-91.5 32.5h-115v-484h-194v1412z" />
    <glyph glyph-name="uni043B" unicode="&#x43b;" horiz-adv-x="971" 
d="M14 0l389 999h165l388 -999h-211l-260 748l-261 -748h-210z" />
    <glyph glyph-name="uni043C" unicode="&#x43c;" horiz-adv-x="1430" 
d="M158 0v999h253l305 -765l301 766h255v-1000h-183v751l-301 -751h-145l-302 749v-749h-183z" />
    <glyph glyph-name="uni043D" unicode="&#x43d;" horiz-adv-x="1168" 
d="M158 0v999h196v-373h461v373h196v-999h-196v478h-461v-478h-196z" />
    <glyph glyph-name="uni043E" unicode="&#x43e;" horiz-adv-x="1123" 
d="M304.5 50.5q-111.5 70.5 -173.5 190t-62 261.5t61.5 260.5t173.5 188t256 69.5q143 0 255.5 -69.5t175 -188.5t62.5 -260q0 -142 -62.5 -261.5t-175 -190t-255.5 -70.5q-144 0 -255.5 70.5zM724.5 194q65.5 50 97 131t31.5 177t-31.5 176t-97 128.5t-163.5 48.5
t-163.5 -48.5t-97 -128.5t-31.5 -176t31.5 -177.5t97.5 -131t163 -49.5q98 0 163.5 50z" />
    <glyph glyph-name="uni043F" unicode="&#x43f;" horiz-adv-x="1142" 
d="M158 999h195v-139q52 75 132.5 115.5t168.5 40.5q122 0 202 -56.5t117.5 -149.5t37.5 -205v-605h-196v581q0 113 -42.5 183t-144.5 70q-73 0 -136.5 -38.5t-101 -102.5t-37.5 -136v-557h-195v999z" />
    <glyph glyph-name="uni0440" unicode="&#x440;" horiz-adv-x="1137" 
d="M158 999h195v-120q52 70 128 105.5t172 35.5q128 0 222 -69.5t143 -188t49 -262.5t-49 -262.5t-143 -188t-222 -69.5q-97 0 -173.5 36t-126.5 104v-558h-195v1437zM751.5 201q59.5 46 88.5 123.5t29 174.5t-29 176t-88.5 125.5t-147.5 46.5t-147 -46.5t-87 -125
t-28 -176.5q0 -97 28 -175t87 -123.5t147 -45.5t147.5 46z" />
    <glyph glyph-name="uni0441" unicode="&#x441;" horiz-adv-x="988" 
d="M283 51.5q-103 71.5 -155 190t-52 256.5q0 137 51.5 256.5t154.5 192.5t249 73q142 0 248 -72t161 -207l-183 -75q-22 83 -82.5 133t-143.5 50q-89 0 -147 -51t-84.5 -130.5t-26.5 -169.5q0 -91 26 -169.5t84 -128.5t148 -50q82 0 143 49t83 130l172 -69
q-47 -132 -151 -206t-245 -74q-147 0 -250 71.5z" />
    <glyph glyph-name="uni0442" unicode="&#x442;" horiz-adv-x="1719" 
d="M158 999h195v-140q40 76 109.5 117.5t150.5 41.5q102 0 178 -46t120 -134q51 87 134 132.5t184 45.5q122 0 202.5 -56.5t118.5 -149.5t38 -205v-605h-197v581q0 114 -42.5 188.5t-145.5 74.5q-71 0 -124.5 -39t-81.5 -104.5t-28 -141.5v-559h-196v585q0 114 -42 186.5
t-145 72.5q-71 0 -124 -39t-81 -104.5t-28 -141.5v-559h-195v999z" />
    <glyph glyph-name="uni0443" unicode="&#x443;" horiz-adv-x="1002" 
d="M228 -430l174 446l-386 983h213l272 -759l272 759h213l-552 -1429h-206z" />
    <glyph glyph-name="uni0444" unicode="&#x444;" horiz-adv-x="1444" 
d="M625 -16q-36 -4 -59 -4q-144 0 -257 69t-176.5 187.5t-63.5 259.5t63.5 259t176.5 187.5t257 69.5q40 -2 59 -5v405h194v-405q30 5 59 5q144 0 257 -69.5t176.5 -187.5t63.5 -259t-63.5 -259.5t-176.5 -187.5t-257 -69q-23 0 -59 4v-414h-194v414zM625 153v685
q-45 5 -59 5q-98 0 -161.5 -47t-93 -125t-29.5 -175t29.5 -175t93 -125t161.5 -47q41 0 59 4zM1039.5 196q63.5 47 93 125t29.5 175q0 96 -29.5 174.5t-93 125.5t-161.5 47q-14 0 -59 -5v-685q18 -4 59 -4q98 0 161.5 47z" />
    <glyph glyph-name="uni0445" unicode="&#x445;" horiz-adv-x="973" 
d="M29 0l339 504l-339 495h236l221 -352l222 352h235l-338 -495l338 -504h-235l-222 359l-221 -359h-236z" />
    <glyph glyph-name="uni0446" unicode="&#x446;" horiz-adv-x="1171" 
d="M938 -23q-34 0 -66.5 21t-55 59.5t-27.5 86.5q-44 -71 -125.5 -119t-176.5 -48q-122 0 -202.5 59.5t-118 157t-37.5 214.5v591h197v-586q0 -259 185 -259q74 0 138 40t102 105t38 137v563h196v-772q0 -71 42 -109.5t106 -38.5l-37 -386h-158v284z" />
    <glyph glyph-name="uni0447" unicode="&#x447;" horiz-adv-x="1095" 
d="M741 409q-44 -70 -125.5 -118t-176.5 -48q-122 0 -202 59t-117.5 156.5t-37.5 214.5v326h196v-321q0 -259 185 -259q74 0 138 40t102 105t38 137v298h197v-999h-197v409z" />
    <glyph glyph-name="uni0448" unicode="&#x448;" horiz-adv-x="1745" 
d="M954.5 27.5q-76.5 45.5 -119.5 133.5q-52 -87 -134.5 -132t-184.5 -45q-122 0 -202.5 56.5t-118 149.5t-37.5 205v604h196v-580q0 -115 42.5 -189t145.5 -74q71 0 124.5 39t81.5 104t28 141v559h197v-584q0 -115 41.5 -187t143.5 -72q72 0 125.5 39t81.5 104t28 141v559
h195v-999h-195v140q-41 -75 -110.5 -116.5t-149.5 -41.5q-102 0 -178.5 45.5z" />
    <glyph glyph-name="uni0449" unicode="&#x449;" horiz-adv-x="1746" 
d="M1513 -23q-34 0 -66 22t-55 60.5t-28 86.5q-41 -76 -110.5 -120t-148.5 -44q-102 0 -178 45.5t-120 133.5q-52 -87 -134.5 -132t-183.5 -45q-122 0 -202.5 56.5t-118.5 149.5t-38 205v604h197v-580q0 -115 42.5 -189t145.5 -74q71 0 124.5 39t81.5 104t28 141v559h196
v-584q0 -115 41.5 -187t144.5 -72q72 0 125 39t81 104t28 141v559h196v-772q0 -71 42 -109.5t106 -38.5l-38 -386h-158v284z" />
    <glyph glyph-name="uni044A" unicode="&#x44a;" horiz-adv-x="1190" 
d="M435 30.5q-95 50.5 -146.5 147t-51.5 231.5v438h-224v152h408v-297q49 51 120.5 83.5t155.5 32.5q131 0 226 -50t145.5 -144.5t50.5 -224.5q0 -129 -57.5 -223.5t-161.5 -145t-241 -50.5q-129 0 -224 50.5zM797 181q54 32 81.5 88.5t27.5 129.5q0 67 -29 124t-84 91.5
t-129 34.5q-72 0 -127 -29t-85.5 -80.5t-30.5 -116.5v-41q0 -67 29.5 -120t85 -83t132.5 -30q75 0 129 32z" />
    <glyph glyph-name="uni044B" unicode="&#x44b;" horiz-adv-x="1449" 
d="M369 30.5q-96 50.5 -148.5 147t-52.5 231.5v590h184v-297q50 53 113.5 84.5t146.5 31.5q132 0 231 -50.5t153 -145t54 -223.5q0 -128 -58 -223t-161.5 -145.5t-236.5 -50.5q-129 0 -225 50.5zM1194 0v999h184v-999h-184zM724 181q55 32 84 89t29 129q0 67 -29.5 124
t-84.5 91.5t-129 34.5q-71 0 -125 -29.5t-84 -81t-33 -115.5v-41q3 -68 32.5 -120.5t83.5 -82.5t126 -30q75 0 130 32z" />
    <glyph glyph-name="uni044C" unicode="&#x44c;" horiz-adv-x="1116" 
d="M354 30.5q-96 50.5 -148.5 147t-52.5 231.5v590h185v-297q109 116 259 116q132 0 231 -50.5t153 -145t54 -223.5t-58 -223.5t-161.5 -145t-236.5 -50.5q-129 0 -225 50.5zM709 181q55 32 84 89t29 129q0 67 -29 124t-84.5 91.5t-129.5 34.5q-71 0 -124.5 -29.5t-83.5 -81
t-33 -115.5v-41q3 -68 32.5 -121t83 -82.5t125.5 -29.5q75 0 130 32z" />
    <glyph glyph-name="uni044D" unicode="&#x44d;" horiz-adv-x="983" 
d="M209 53.5q-104 73.5 -150 206.5l172 69q22 -79 83 -126.5t143 -47.5q111 0 173.5 74.5t78.5 188.5h-377v145h378q-13 118 -76 197.5t-177 79.5q-84 0 -144 -46.5t-82 -127.5l-183 75q55 129 162 202t247 73q147 0 250 -71.5t154 -190t51 -256.5q0 -139 -51.5 -257
t-155 -189.5t-250.5 -71.5q-142 0 -246 73.5z" />
    <glyph glyph-name="uni044E" unicode="&#x44e;" horiz-adv-x="1518" 
d="M699.5 46.5q-111.5 66.5 -176 180t-68.5 251.5h-101v-478h-196v1413h196v-787h115q26 111 93.5 198.5t167.5 137.5t221 50q144 0 257 -69.5t176 -187.5t63 -259q0 -142 -63 -260t-176 -187t-257 -69q-140 0 -251.5 66.5zM1112.5 196q63.5 47 93 125t29.5 175t-29.5 175
t-93 125t-161.5 47t-161.5 -47t-93 -125.5t-29.5 -174.5q0 -97 29.5 -175t93 -125t161.5 -47t161.5 47z" />
    <glyph glyph-name="uni044F" unicode="&#x44f;" horiz-adv-x="1026" 
d="M185 318q26 61 68 110t92 49q-70 16 -120.5 42.5t-82.5 78.5t-32 135q0 68 33.5 128t115 99t215.5 39h395v-999h-194v431h-119q-56 0 -91 -32.5t-56 -95.5l-117 -303h-227zM675 583v252h-226q-63 0 -97 -33.5t-34 -84.5q0 -61 38.5 -97.5t124.5 -36.5h194z" />
    <glyph glyph-name="uni0450" unicode="&#x450;" horiz-adv-x="1051" 
d="M288.5 53q-107.5 70 -161 186t-53.5 256q0 137 51.5 256t155.5 192t253 73q158 0 257 -72.5t142 -185t43 -237.5q0 -53 -6 -85h-691q7 -125 75.5 -202.5t196.5 -77.5q81 0 144.5 24.5t116.5 82.5l134 -113q-82 -86 -177.5 -126.5t-217.5 -40.5q-155 0 -262.5 70zM788 583
q-7 122 -70.5 197t-184.5 75q-116 0 -179.5 -76t-74.5 -196h509zM450 1113l-281 300h224l221 -300h-164z" />
    <glyph glyph-name="uni0451" unicode="&#x451;" horiz-adv-x="1051" 
d="M288.5 53q-107.5 70 -161 186t-53.5 256q0 137 51.5 256t155.5 192t253 73q158 0 257 -72.5t142 -185t43 -237.5q0 -53 -6 -85h-691q7 -125 75.5 -202.5t196.5 -77.5q81 0 144.5 24.5t116.5 82.5l134 -113q-82 -86 -177.5 -126.5t-217.5 -40.5q-155 0 -262.5 70zM788 583
q-7 122 -70.5 197t-184.5 75q-116 0 -179.5 -76t-74.5 -196h509zM252 1205v208h186v-208h-186zM597 1205v208h186v-208h-186z" />
    <glyph glyph-name="uni0452" unicode="&#x452;" horiz-adv-x="1143" 
d="M456 -418q-71 30 -140 87l100 145q47 -41 92.5 -62.5t93.5 -21.5q118 0 165.5 82t47.5 228v542q0 113 -41.5 181t-145.5 68q-73 0 -135 -37t-99.5 -105t-37.5 -157v-532h-196v1138h-167v139h167v136h196v-136h272v-139h-272v-275q50 75 127 115t163 40q126 0 208 -57.5
t119.5 -151.5t37.5 -208v-518q0 -267 -97.5 -399t-302.5 -132q-84 0 -155 30z" />
    <glyph glyph-name="uni0453" unicode="&#x453;" horiz-adv-x="778" 
d="M323 1124l218 289h213l-285 -289h-146zM153 0v999h613v-148h-417v-851h-196z" />
    <glyph glyph-name="uni0454" unicode="&#x454;" horiz-adv-x="982" 
d="M275.5 51.5q-103.5 71.5 -155 189.5t-51.5 257q0 138 51.5 256.5t154 190t250.5 71.5q140 0 247 -73t162 -202l-183 -75q-22 81 -82.5 127.5t-143.5 46.5q-114 0 -177 -79.5t-76 -197.5h378v-145h-377q16 -114 78 -188.5t174 -74.5q82 0 142.5 47.5t83.5 126.5l172 -69
q-46 -133 -150 -206.5t-246 -73.5q-148 0 -251.5 71.5z" />
    <glyph glyph-name="uni0455" unicode="&#x455;" horiz-adv-x="883" 
d="M267.5 15q-81.5 35 -137.5 95t-79 132l157 76q24 -72 84 -122.5t147 -50.5q81 0 131.5 38.5t50.5 105.5q0 44 -27.5 71.5t-68.5 42.5t-114 33q-99 25 -161 51.5t-106.5 82.5t-44.5 151q0 90 47 156.5t123.5 101.5t164.5 35q122 0 211.5 -58t140.5 -149l-144 -80
q-67 125 -207 125q-68 0 -110.5 -30.5t-42.5 -83.5q0 -36 25 -59t63.5 -37t105.5 -31q105 -28 171.5 -56.5t114.5 -90.5t48 -166q0 -100 -51.5 -172t-135.5 -109t-179 -37t-176.5 35z" />
    <glyph glyph-name="uni0456" unicode="&#x456;" horiz-adv-x="513" 
d="M150 1205v207h213v-207h-213zM158 0v999h193v-999h-193z" />
    <glyph glyph-name="uni0457" unicode="&#x457;" horiz-adv-x="499" 
d="M-13 1171v180h179v-180h-179zM329 1171v180h179v-180h-179zM152 0v999h193v-999h-193z" />
    <glyph glyph-name="uni0458" unicode="&#x458;" horiz-adv-x="516" 
d="M153 1197v219h213v-219h-213zM12.5 -431q-35.5 7 -60 14.5t-30.5 10.5l45 158q0 -1 38.5 -8t70.5 -7q48 0 66.5 29t18.5 83v1150h195v-1130q0 -138 -68.5 -222.5t-205.5 -84.5q-34 0 -69.5 7z" />
    <glyph glyph-name="uni0459" unicode="&#x459;" horiz-adv-x="1653" 
d="M39 28l56 131q48 -28 81 -28q48 0 75.5 125.5t27.5 359.5v383h705v-315h168q139 0 231 -31.5t140.5 -106.5t48.5 -203q0 -166 -109.5 -254.5t-309.5 -88.5h-365v851h-314v-234q0 -248 -33 -389t-89 -195t-134 -54q-79 0 -179 49zM1152 164q95 0 150 39.5t55 139.5
q0 98 -55 137.5t-150 39.5h-168v-356h168z" />
    <glyph glyph-name="uni045A" unicode="&#x45a;" horiz-adv-x="1681" 
d="M158 999h195v-373h463v373h195v-373h169q142 0 233 -26.5t139.5 -95t48.5 -190.5q0 -163 -107.5 -238.5t-312.5 -75.5h-365v478h-463v-478h-195v999zM1180 164q65 0 108.5 11t70 43.5t26.5 95.5q0 67 -26 99t-68 40.5t-111 8.5h-169v-298h169z" />
    <glyph glyph-name="uni045B" unicode="&#x45b;" horiz-adv-x="1145" 
d="M860 961.5q79 -56.5 116.5 -149t37.5 -203.5v-609h-197v582q0 258 -197 258q-81 0 -141 -42t-92.5 -114t-32.5 -161v-523h-194v1118h-164v139h164v156h194v-156h276v-139h-276v-261q53 77 136 119t172 42q119 0 198 -56.5z" />
    <glyph glyph-name="uni045C" unicode="&#x45c;" horiz-adv-x="994" 
d="M419 1124l219 289h214l-287 -289h-146zM158 999h194v-364h98l228 364h229l-273 -395q50 0 93 -49.5t68 -110.5l170 -444h-228l-122 356q-22 63 -56.5 95.5t-91.5 32.5h-115v-484h-194v999z" />
    <glyph glyph-name="uni045D" unicode="&#x45d;" horiz-adv-x="1168" 
d="M524 1116l-272 297h213l218 -297h-159zM312 36.5q-80 59.5 -117 157t-37 214.5v591h195v-586q0 -259 185 -259q74 0 138 40t102 105t38 137v563h195v-999h-195v144q-44 -71 -125.5 -119t-176.5 -48q-122 0 -202 59.5z" />
    <glyph glyph-name="uni045E" unicode="&#x45e;" horiz-adv-x="1002" 
d="M271 1213q-82 70 -82 200h146q0 -67 46.5 -107t116.5 -40t116 40t46 107h146q0 -131 -82 -200.5t-226 -69.5q-145 0 -227 70zM228 -430l174 446l-386 983h213l272 -759l272 759h213l-552 -1429h-206z" />
    <glyph glyph-name="uni045F" unicode="&#x45f;" horiz-adv-x="1168" 
d="M486 -307v307h-328v999h195v-850h463v850h195v-999h-330v-307h-195z" />
    <glyph glyph-name="uni0462" unicode="&#x462;" horiz-adv-x="1283" 
d="M324 1079h-272v181h272v152h202v-152h322v-181h-322v-280h216q141 0 248 -46.5t166.5 -135.5t59.5 -214t-59.5 -216t-167 -139t-247.5 -48h-418v1079zM742 186q134 0 203.5 56.5t69.5 160.5t-69 157t-204 53h-216v-427h216z" />
    <glyph glyph-name="uni0463" unicode="&#x463;" horiz-adv-x="1025" 
d="M160 1138h-192v139h192v135h194v-135h253v-139h-253v-454h169q139 0 231 -31.5t141 -106.5t49 -203q0 -166 -109.5 -254.5t-310.5 -88.5h-364v1138zM523 164q95 0 150.5 39.5t55.5 139.5q0 98 -55.5 137.5t-150.5 39.5h-169v-356h169z" />
    <glyph glyph-name="uni0464" unicode="&#x464;" horiz-adv-x="1872" 
d="M868 63.5q-142 83.5 -220.5 227.5t-93.5 325h-153v-616h-203v1412h203v-615h153q15 182 93 326t219.5 228.5t340.5 84.5q205 0 358.5 -100t235.5 -290l-189 -76q-40 142 -147.5 208t-259.5 66q-139 0 -235.5 -58.5t-148.5 -159t-64 -229.5h601v-181h-599
q20 -203 132 -324t318 -121q148 0 248.5 66t157.5 212l188 -78q-80 -190 -234.5 -290.5t-359.5 -100.5q-199 0 -341 83.5z" />
    <glyph glyph-name="uni0465" unicode="&#x465;" horiz-adv-x="1412" 
d="M720 42.5q-99 62.5 -153 168t-64 234.5h-150v-445h-195v999h195v-406h154q17 119 72 214.5t150.5 152t225.5 56.5q140 0 247.5 -73t162.5 -202l-184 -75q-22 82 -82.5 128t-143.5 46q-77 0 -132 -38.5t-85 -95.5t-36 -113h378v-145h-377q9 -132 73 -212.5t179 -80.5
q82 0 142.5 47.5t83.5 126.5l172 -69q-46 -133 -150 -206.5t-246 -73.5q-138 0 -237 62.5z" />
    <glyph glyph-name="uni0466" unicode="&#x466;" horiz-adv-x="1323" 
d="M39 0l546 1412h154l544 -1412h-218l-165 466h-137v-466h-201v466h-137l-165 -466h-221zM491 638h343l-171 476z" />
    <glyph glyph-name="uni0467" unicode="&#x467;" horiz-adv-x="992" 
d="M39 0l381 999h154l379 -999h-197l-84 269h-98v-269h-153v269h-96l-96 -269h-190zM371 413h256l-129 351z" />
    <glyph glyph-name="uni0468" unicode="&#x468;" horiz-adv-x="1760" 
d="M198 0v1412h203v-615h384l238 615h154l544 -1412h-219l-164 466h-137v-466h-202v466h-136l-166 -466h-220l237 616h-313v-616h-203zM929 638h343l-171 476z" />
    <glyph glyph-name="uni0469" unicode="&#x469;" horiz-adv-x="1387" 
d="M158 0v999h195v-454h288l173 454h155l379 -999h-198l-83 269h-98v-269h-154v269h-95l-96 -269h-191l151 397h-231v-397h-195zM766 413h256l-129 351z" />
    <glyph glyph-name="uni046A" unicode="&#x46a;" horiz-adv-x="1570" 
d="M266 585q21 57 61.5 105.5t95.5 78.5t118 30l-315 432v181h1097v-181l-316 -432q97 0 169.5 -62.5t108.5 -151.5l235 -585h-232l-185 489q-57 164 -170 164h-57v-653h-202v653h-57q-111 0 -170 -164l-185 -489h-215zM776 822l297 409h-598z" />
    <glyph glyph-name="uni046B" unicode="&#x46b;" horiz-adv-x="1268" 
d="M1229 0h-228l-122 356q-20 60 -56 85.5t-100 27.5v-469h-178v469q-66 -3 -100.5 -27.5t-55.5 -85.5l-122 -356h-228l169 444q66 160 189 160l-202 247v148h877v-148l-200 -247q122 0 188 -160zM633 611l197 240h-388z" />
    <glyph glyph-name="uni046C" unicode="&#x46c;" horiz-adv-x="1994" 
d="M198 1412h203v-618h578l-320 437v181h1096v-181l-315 -432q95 0 163.5 -61.5t105.5 -152.5l235 -585h-223l-185 489q-59 164 -170 164h-56v-653h-204v653h-55q-68 0 -107.5 -48.5t-64.5 -115.5l-184 -489h-206l204 543q16 41 30 71h-322v-614h-203v1412zM1208 822
l298 409h-598z" />
    <glyph glyph-name="uni046D" unicode="&#x46d;" horiz-adv-x="1644" 
d="M1605 0h-227l-122 356q-17 49 -37 74.5t-48 35.5t-73 9v-475h-177v475q-66 0 -101 -28.5t-55 -90.5l-122 -356h-228l144 375q13 41 34 76h-240v-451h-195v999h195v-399h421l-203 251v148h877v-148l-194 -239q50 0 85 -26t56 -61t41 -81zM1008 610l198 241h-389z" />
    <glyph glyph-name="uni0472" unicode="&#x472;" horiz-adv-x="1521" 
d="M396.5 78q-147.5 98 -220 262.5t-72.5 366.5t72.5 366.5t220 262.5t363.5 98t364 -98t220.5 -262.5t72.5 -366.5t-72.5 -366.5t-220.5 -262.5t-364 -98t-363.5 98zM1204 789q-12 132 -63 235.5t-146.5 164.5t-234.5 61q-140 0 -236 -61t-146.5 -164.5t-62.5 -235.5h889z
M999 227q97 64 147.5 172t59.5 244h-892q9 -136 59 -244t147 -172t240 -64q142 0 239 64z" />
    <glyph glyph-name="uni0473" unicode="&#x473;" horiz-adv-x="1133" 
d="M309 49q-113 69 -176.5 187.5t-63.5 259.5t63.5 259t176.5 187.5t257 69.5t257 -69.5t176.5 -187.5t63.5 -259t-63.5 -259.5t-176.5 -187.5t-257 -69t-257 69zM842 578q-17 119 -85.5 192t-190.5 73q-123 0 -192 -73t-87 -192h555zM761 227.5q68 78.5 82 204.5h-557
q14 -126 83 -204.5t197 -78.5q127 0 195 78.5z" />
    <glyph glyph-name="uni0474" unicode="&#x474;" horiz-adv-x="1319" 
d="M23 1413h219l381 -1108l260 697q54 144 115.5 231t133 128.5t162.5 51.5v-190q-83 -34 -131 -98.5t-90 -166.5l-369 -958h-162z" />
    <glyph glyph-name="uni0475" unicode="&#x475;" horiz-adv-x="982" 
d="M15 999h212l241 -747l131 368q71 198 164 282t204 97v-187q-37 -13 -61 -28t-53.5 -55t-59.5 -116l-243 -613h-165z" />
    <glyph glyph-name="uni0478" unicode="&#x478;" horiz-adv-x="2523" 
d="M397.5 78q-147.5 98 -220.5 263t-73 366t73 366t220.5 263t362.5 98t363 -98t221 -263t73 -366t-73 -366t-221 -263t-363 -98t-362.5 98zM1016 237q101 74 147.5 196.5t46.5 273.5q0 150 -46.5 272.5t-147.5 196.5t-256 74q-154 0 -254.5 -74t-147 -196.5t-46.5 -272.5
q0 -151 46.5 -273.5t147 -196.5t254.5 -74q155 0 256 74zM1747 -430l177 445l-387 984h213l274 -759l271 759h212l-552 -1429h-208z" />
    <glyph glyph-name="uni0479" unicode="&#x479;" horiz-adv-x="2125" 
d="M304.5 50.5q-111.5 70.5 -173.5 190t-62 261.5t61.5 260.5t173.5 188t256 69.5q143 0 255.5 -69.5t175 -188.5t62.5 -260q0 -142 -62.5 -261.5t-175 -190t-255.5 -70.5q-144 0 -255.5 70.5zM724.5 194q65.5 50 97 131t31.5 177t-31.5 176t-97 128.5t-163.5 48.5
t-163.5 -48.5t-97 -128.5t-31.5 -176t31.5 -177.5t97.5 -131t163 -49.5q98 0 163.5 50zM1349 -430l177 445l-387 984h213l274 -759l271 759h212l-552 -1429h-208z" />
    <glyph glyph-name="uni0483" unicode="&#x483;" horiz-adv-x="0" 
d="M-953 1561v305h642v131h186v-297h-648v-139h-180z" />
    <glyph glyph-name="uni0490" unicode="&#x490;" horiz-adv-x="1067" 
d="M198 0v1412h626v307h201v-488h-624v-1231h-203z" />
    <glyph glyph-name="uni0491" unicode="&#x491;" horiz-adv-x="780" 
d="M153 0v999h418v308h195v-456h-417v-851h-196z" />
    <glyph glyph-name="uni0492" unicode="&#x492;" horiz-adv-x="1211" 
d="M1168 1231h-625v-398h205v-169h-205v-664h-202v664h-333v169h333v579h827v-181z" />
    <glyph glyph-name="uni0493" unicode="&#x493;" horiz-adv-x="782" 
d="M158 0v999h612v-148h-417v-851h-195z" />
    <glyph glyph-name="uni0496" unicode="&#x496;" horiz-adv-x="2019" 
d="M2057 168v-406h-192v238h-144l-184 521q-22 63 -71.5 113.5t-118.5 50.5h-236v-685h-203v685h-235q-70 0 -118 -49t-72 -115l-185 -521h-248l252 617q18 43 52 90.5t82.5 82t103.5 34.5l-416 588h265l360 -544h159v544h203v-544h159l359 544h266l-416 -588
q55 0 103.5 -34.5t82.5 -82t53 -90.5l183 -449h156z" />
    <glyph glyph-name="uni0497" unicode="&#x497;" horiz-adv-x="1479" 
d="M1545 168v-406h-192v238h-132l-121 356q-23 64 -57 96t-91 32h-116v-484h-194v484h-115q-57 0 -91.5 -32.5t-56.5 -95.5l-122 -356h-228l170 444q24 61 67 110.5t94 49.5l-273 395h229l228 -364h98v364h194v-364h99l227 364h230l-273 -395q50 0 93 -49.5t68 -110.5
l105 -276h160z" />
    <glyph glyph-name="uni049A" unicode="&#x49a;" horiz-adv-x="1306" 
d="M1344 168v-406h-192v238h-141l-185 521q-12 35 -38 72.5t-65 64.5t-87 27h-235v-685h-203v1412h203v-544h159l359 544h266l-416 -588q55 0 103.5 -34.5t82.5 -82t52 -90.5l183 -449h154z" />
    <glyph glyph-name="uni049B" unicode="&#x49b;" horiz-adv-x="998" 
d="M1061 168v-406h-192v238h-132l-122 356q-22 63 -56.5 95.5t-91.5 32.5h-115v-484h-194v1412h194v-777h98l228 364h229l-273 -395q50 0 93 -49.5t68 -110.5l106 -276h160z" />
    <glyph glyph-name="uni04A2" unicode="&#x4a2;" horiz-adv-x="1472" 
d="M1274 168h156v-406h-192v238h-168v617h-669v-617h-203v1413h203v-616h669v616h204v-1245z" />
    <glyph glyph-name="uni04A3" unicode="&#x4a3;" horiz-adv-x="1168" 
d="M1011 168h182v-406h-192v238h-186v478h-461v-478h-196v999h196v-373h461v373h196v-831z" />
    <glyph glyph-name="uni04AE" unicode="&#x4ae;" horiz-adv-x="1317" 
d="M556 0v552l-529 861h242l388 -661l390 661h243l-527 -861v-552h-207z" />
    <glyph glyph-name="uni04AF" unicode="&#x4af;" horiz-adv-x="982" 
d="M395 0v436l-368 563h230l234 -377l235 377h229l-367 -563v-436h-193z" />
    <glyph glyph-name="uni04B0" unicode="&#x4b0;" horiz-adv-x="1319" 
d="M763 552v-88h144v-169h-144v-295h-207v295h-389v169h389v88l-529 861h242l388 -661l390 661h243z" />
    <glyph glyph-name="uni04B1" unicode="&#x4b1;" horiz-adv-x="1031" 
d="M588 436v-76h200v-169h-200v-191h-193v191h-347v169h347v76l-368 563h230l234 -377l235 377h229z" />
    <glyph glyph-name="uni04B2" unicode="&#x4b2;" horiz-adv-x="1299" 
d="M1138 168h174v-406h-192v238h-112l-361 558l-355 -558h-242l469 707l-467 706h242l355 -567l357 567h241l-466 -706z" />
    <glyph glyph-name="uni04B3" unicode="&#x4b3;" horiz-adv-x="973" 
d="M830 168h187v-406h-192v238h-117l-222 359l-221 -359h-236l339 504l-339 495h236l221 -352l222 352h235l-338 -495z" />
    <glyph glyph-name="uni04B6" unicode="&#x4b6;" horiz-adv-x="1338" 
d="M1306 168v-406h-192v238h-178v511q-127 -101 -312 -101q-262 0 -388.5 157.5t-126.5 432.5v412h203v-401q0 -199 69.5 -302t242.5 -103q104 0 184.5 38t127.5 95v673h204v-1244h166z" />
    <glyph glyph-name="uni04B7" unicode="&#x4b7;" horiz-adv-x="1095" 
d="M1105 168v-406h-192v238h-172v409q-44 -70 -125.5 -118t-176.5 -48q-122 0 -202 59t-117.5 156.5t-37.5 214.5v326h196v-321q0 -259 185 -259q74 0 138 40t102 105t38 137v298h197v-831h167z" />
    <glyph glyph-name="uni04BA" unicode="&#x4ba;" horiz-adv-x="1338" 
d="M402 902q127 101 312 101q262 0 388.5 -157.5t126.5 -432.5v-412h-203v401q0 199 -69.5 302t-242.5 103q-104 0 -184.5 -38t-127.5 -95v-673h-204v1412h204v-511z" />
    <glyph glyph-name="uni04BB" unicode="&#x4bb;" horiz-adv-x="1145" 
d="M160 1413h194v-556q53 77 136 119t172 42q119 0 198 -56.5t116.5 -149t37.5 -203.5v-609h-197v582q0 258 -197 258q-81 0 -141 -42t-92.5 -114t-32.5 -161v-523h-194v1413z" />
    <glyph glyph-name="uni04C0" unicode="&#x4c0;" horiz-adv-x="599" 
d="M198 0v1412h203v-1412h-203z" />
    <glyph glyph-name="uni04CF" unicode="&#x4cf;" horiz-adv-x="509" 
d="M158 0v1412h194v-1412h-194z" />
    <glyph glyph-name="uni04D8" unicode="&#x4d8;" horiz-adv-x="1521" 
d="M396.5 78q-147.5 98 -220 262.5t-72.5 366.5q0 42 3 82h1097q-12 132 -63 235.5t-146.5 164.5t-234.5 61q-127 0 -217.5 -50.5t-145.5 -140.5l-176 100q84 130 219 202.5t320 72.5q216 0 364 -98t220.5 -262.5t72.5 -366.5t-72.5 -366.5t-220.5 -262.5t-364 -98
t-363.5 98zM999 227q97 64 147.5 172t59.5 244h-892q9 -136 59 -244t147 -172t240 -64q142 0 239 64z" />
    <glyph glyph-name="uni04D9" unicode="&#x4d9;" horiz-adv-x="1051" 
d="M762.5 946q107.5 -70 161 -186t53.5 -256q0 -137 -51.5 -256t-155.5 -192t-253 -73q-158 0 -257 72.5t-142 185t-43 237.5q0 53 6 85h691q-7 125 -75.5 202.5t-196.5 77.5q-81 0 -144.5 -24.5t-116.5 -82.5l-134 113q82 86 177.5 126.5t217.5 40.5q155 0 262.5 -70z
M263 416q7 -122 70.5 -197t184.5 -75q116 0 179.5 76t74.5 196h-509z" />
    <glyph glyph-name="uni04E2" unicode="&#x4e2;" horiz-adv-x="1435" 
d="M1237 0h-198v1127l-598 -1127h-243v1413h198v-1125l601 1125h240v-1413zM444 1579v134h549v-134h-549z" />
    <glyph glyph-name="uni04E3" unicode="&#x4e3;" horiz-adv-x="1140" 
d="M216.5 104q-87.5 125 -87.5 340v555h196v-564q0 -132 42.5 -209t153.5 -77q72 0 133 37.5t97.5 115.5t36.5 192v505h195v-999h-195v145q-44 -72 -125 -119t-180 -47q-179 0 -266.5 125zM293 1166v134h549v-134h-549z" />
    <glyph glyph-name="uni04E8" unicode="&#x4e8;" horiz-adv-x="1521" 
d="M396.5 78q-147.5 98 -220 262.5t-72.5 366.5t72.5 366.5t220 262.5t363.5 98t364 -98t220.5 -262.5t72.5 -366.5t-72.5 -366.5t-220.5 -262.5t-364 -98t-363.5 98zM1204 789q-12 132 -63 235.5t-146.5 164.5t-234.5 61q-140 0 -236 -61t-146.5 -164.5t-62.5 -235.5h889z
M999 227q97 64 147.5 172t59.5 244h-892q9 -136 59 -244t147 -172t240 -64q142 0 239 64z" />
    <glyph glyph-name="uni04E9" unicode="&#x4e9;" horiz-adv-x="1133" 
d="M309 49q-113 69 -176.5 187.5t-63.5 259.5t63.5 259t176.5 187.5t257 69.5t257 -69.5t176.5 -187.5t63.5 -259t-63.5 -259.5t-176.5 -187.5t-257 -69t-257 69zM842 578q-17 119 -85.5 192t-190.5 73q-123 0 -192 -73t-87 -192h555zM761 227.5q68 78.5 82 204.5h-557
q14 -126 83 -204.5t197 -78.5q127 0 195 78.5z" />
    <glyph glyph-name="uni04EE" unicode="&#x4ee;" horiz-adv-x="1113" 
d="M242 0l195 457l-398 955h218l287 -736l310 736h219l-616 -1412h-215zM283 1580v134h549v-134h-549z" />
    <glyph glyph-name="uni04EF" unicode="&#x4ef;" horiz-adv-x="1002" 
d="M228 -430l174 446l-386 983h213l272 -759l272 759h213l-552 -1429h-206zM227 1166v134h549v-134h-549z" />
    <glyph glyph-name="Wgrave" unicode="&#x1e80;" horiz-adv-x="1987" 
d="M461 0l-410 1413h210l319 -1135l334 1053h160l334 -1053l318 1135h211l-410 -1413h-208l-324 1007l-327 -1007h-207zM926 1513l-281 300h224l221 -300h-164z" />
    <glyph glyph-name="wgrave" unicode="&#x1e81;" horiz-adv-x="1441" 
d="M324 -2l-293 1001h206l189 -719l210 719h170l210 -717l189 717h206l-293 -999h-180l-216 738l-218 -740h-180zM654 1113l-281 300h224l221 -300h-164z" />
    <glyph glyph-name="Wacute" unicode="&#x1e82;" horiz-adv-x="1987" 
d="M461 0l-410 1413h210l319 -1135l334 1053h160l334 -1053l318 1135h211l-410 -1413h-208l-324 1007l-327 -1007h-207zM888 1524l221 289h225l-291 -289h-155z" />
    <glyph glyph-name="wacute" unicode="&#x1e83;" horiz-adv-x="1441" 
d="M324 -2l-293 1001h206l189 -719l210 719h170l210 -717l189 717h206l-293 -999h-180l-216 738l-218 -740h-180zM616 1124l221 289h225l-291 -289h-155z" />
    <glyph glyph-name="Wdieresis" unicode="&#x1e84;" horiz-adv-x="1987" 
d="M461 0l-410 1413h210l319 -1135l334 1053h160l334 -1053l318 1135h211l-410 -1413h-208l-324 1007l-327 -1007h-207zM728 1605v208h186v-208h-186zM1073 1605v208h186v-208h-186z" />
    <glyph glyph-name="wdieresis" unicode="&#x1e85;" horiz-adv-x="1441" 
d="M324 -2l-293 1001h206l189 -719l210 719h170l210 -717l189 717h206l-293 -999h-180l-216 738l-218 -740h-180zM456 1205v208h186v-208h-186zM801 1205v208h186v-208h-186z" />
    <glyph glyph-name="uni1EA4" unicode="&#x1ea4;" horiz-adv-x="1323" 
d="M39 0l547 1413h154l544 -1413h-219l-108 307h-587l-109 -307h-222zM438 486h450l-224 628zM338 1511l323 354l323 -354h-173l-150 167l-148 -167h-175zM555 1950l221 289h225l-291 -289h-155z" />
    <glyph glyph-name="uni1EA5" unicode="&#x1ea5;" 
d="M232.5 17q-77.5 37 -121.5 107.5t-44 167.5q0 150 109.5 220.5t310.5 70.5h243q0 125 -55 196.5t-168 71.5q-88 0 -152 -41.5t-105 -104.5l-145 108q72 100 169.5 153.5t227.5 53.5q129 0 221.5 -51.5t140.5 -144t48 -214.5v-610h-161l-10 169q-56 -99 -141.5 -144
t-190.5 -45q-99 0 -176.5 37zM585 187q67 43 105.5 111.5t39.5 141.5h-229q-117 0 -176 -39t-59 -115q0 -69 45.5 -105.5t122.5 -36.5q84 0 151 43zM179 1098l323 354l323 -354h-173l-150 167l-148 -167h-175zM396 1537l221 289h225l-291 -289h-155z" />
    <glyph glyph-name="uni1EA6" unicode="&#x1ea6;" horiz-adv-x="1323" 
d="M39 0l547 1413h154l544 -1413h-219l-108 307h-587l-109 -307h-222zM438 486h450l-224 628zM338 1511l323 354l323 -354h-173l-150 167l-148 -167h-175zM593 1939l-281 300h224l221 -300h-164z" />
    <glyph glyph-name="uni1EA7" unicode="&#x1ea7;" 
d="M232.5 17q-77.5 37 -121.5 107.5t-44 167.5q0 150 109.5 220.5t310.5 70.5h243q0 125 -55 196.5t-168 71.5q-88 0 -152 -41.5t-105 -104.5l-145 108q72 100 169.5 153.5t227.5 53.5q129 0 221.5 -51.5t140.5 -144t48 -214.5v-610h-161l-10 169q-56 -99 -141.5 -144
t-190.5 -45q-99 0 -176.5 37zM585 187q67 43 105.5 111.5t39.5 141.5h-229q-117 0 -176 -39t-59 -115q0 -69 45.5 -105.5t122.5 -36.5q84 0 151 43zM179 1098l323 354l323 -354h-173l-150 167l-148 -167h-175zM434 1526l-281 300h224l221 -300h-164z" />
    <glyph glyph-name="uni1EAA" unicode="&#x1eaa;" horiz-adv-x="1323" 
d="M39 0l547 1413h154l544 -1413h-219l-108 307h-587l-109 -307h-222zM438 486h450l-224 628zM338 1511l323 354l323 -354h-173l-150 167l-148 -167h-175zM692.5 1978q-36.5 24 -77.5 68q-28 30 -46.5 44t-40.5 14q-34 0 -51 -37t-17 -100h-118q0 124 50 195.5t139 71.5
q39 0 69.5 -13.5t52 -32t49.5 -48.5q29 -30 46.5 -43.5t38.5 -13.5q33 0 50 38t17 107h124q0 -132 -51 -203t-142 -71q-56 0 -92.5 24z" />
    <glyph glyph-name="uni1EAB" unicode="&#x1eab;" 
d="M232.5 17q-77.5 37 -121.5 107.5t-44 167.5q0 150 109.5 220.5t310.5 70.5h243q0 125 -55 196.5t-168 71.5q-88 0 -152 -41.5t-105 -104.5l-145 108q72 100 169.5 153.5t227.5 53.5q129 0 221.5 -51.5t140.5 -144t48 -214.5v-610h-161l-10 169q-56 -99 -141.5 -144
t-190.5 -45q-99 0 -176.5 37zM585 187q67 43 105.5 111.5t39.5 141.5h-229q-117 0 -176 -39t-59 -115q0 -69 45.5 -105.5t122.5 -36.5q84 0 151 43zM179 1098l323 354l323 -354h-173l-150 167l-148 -167h-175zM533.5 1565q-36.5 24 -77.5 68q-28 30 -46.5 44t-40.5 14
q-34 0 -51 -37t-17 -100h-118q0 124 50 195.5t139 71.5q39 0 69.5 -13.5t52 -32t49.5 -48.5q29 -30 46.5 -43.5t38.5 -13.5q33 0 50 38t17 107h124q0 -132 -51 -203t-142 -71q-56 0 -92.5 24z" />
    <glyph glyph-name="uni1EAE" unicode="&#x1eae;" horiz-adv-x="1323" 
d="M39 0l547 1413h154l544 -1413h-219l-108 307h-587l-109 -307h-222zM438 486h450l-224 628zM431.5 1626q-80.5 70 -80.5 200h153q0 -66 45 -104.5t113 -38.5q69 0 113 38.5t44 104.5h153q0 -132 -81.5 -201t-228.5 -69q-150 0 -230.5 70zM555 1951l221 289h225l-291 -289
h-155z" />
    <glyph glyph-name="uni1EAF" unicode="&#x1eaf;" 
d="M232.5 17q-77.5 37 -121.5 107.5t-44 167.5q0 150 109.5 220.5t310.5 70.5h243q0 125 -55 196.5t-168 71.5q-88 0 -152 -41.5t-105 -104.5l-145 108q72 100 169.5 153.5t227.5 53.5q129 0 221.5 -51.5t140.5 -144t48 -214.5v-610h-161l-10 169q-56 -99 -141.5 -144
t-190.5 -45q-99 0 -176.5 37zM585 187q67 43 105.5 111.5t39.5 141.5h-229q-117 0 -176 -39t-59 -115q0 -69 45.5 -105.5t122.5 -36.5q84 0 151 43zM272.5 1213q-80.5 70 -80.5 200h153q0 -66 45 -104.5t113 -38.5q69 0 113 38.5t44 104.5h153q0 -132 -81.5 -201t-228.5 -69
q-150 0 -230.5 70zM396 1538l221 289h225l-291 -289h-155z" />
    <glyph glyph-name="uni1EB0" unicode="&#x1eb0;" horiz-adv-x="1323" 
d="M39 0l547 1413h154l544 -1413h-219l-108 307h-587l-109 -307h-222zM438 486h450l-224 628zM431.5 1626q-80.5 70 -80.5 200h153q0 -66 45 -104.5t113 -38.5q69 0 113 38.5t44 104.5h153q0 -132 -81.5 -201t-228.5 -69q-150 0 -230.5 70zM593 1940l-281 300h224l221 -300
h-164z" />
    <glyph glyph-name="uni1EB1" unicode="&#x1eb1;" 
d="M232.5 17q-77.5 37 -121.5 107.5t-44 167.5q0 150 109.5 220.5t310.5 70.5h243q0 125 -55 196.5t-168 71.5q-88 0 -152 -41.5t-105 -104.5l-145 108q72 100 169.5 153.5t227.5 53.5q129 0 221.5 -51.5t140.5 -144t48 -214.5v-610h-161l-10 169q-56 -99 -141.5 -144
t-190.5 -45q-99 0 -176.5 37zM585 187q67 43 105.5 111.5t39.5 141.5h-229q-117 0 -176 -39t-59 -115q0 -69 45.5 -105.5t122.5 -36.5q84 0 151 43zM272.5 1213q-80.5 70 -80.5 200h153q0 -66 45 -104.5t113 -38.5q69 0 113 38.5t44 104.5h153q0 -132 -81.5 -201t-228.5 -69
q-150 0 -230.5 70zM434 1527l-281 300h224l221 -300h-164z" />
    <glyph glyph-name="uni1EB4" unicode="&#x1eb4;" horiz-adv-x="1323" 
d="M39 0l547 1413h154l544 -1413h-219l-108 307h-587l-109 -307h-222zM438 486h450l-224 628zM431.5 1626q-80.5 70 -80.5 200h153q0 -66 45 -104.5t113 -38.5q69 0 113 38.5t44 104.5h153q0 -132 -81.5 -201t-228.5 -69q-150 0 -230.5 70zM692.5 1979q-36.5 24 -77.5 68
q-28 30 -46.5 44t-40.5 14q-34 0 -51 -37t-17 -100h-118q0 124 50 195.5t139 71.5q39 0 69.5 -13.5t52 -32t49.5 -48.5q29 -30 46.5 -43.5t38.5 -13.5q33 0 50 38t17 107h124q0 -132 -51 -203t-142 -71q-56 0 -92.5 24z" />
    <glyph glyph-name="uni1EB5" unicode="&#x1eb5;" 
d="M232.5 17q-77.5 37 -121.5 107.5t-44 167.5q0 150 109.5 220.5t310.5 70.5h243q0 125 -55 196.5t-168 71.5q-88 0 -152 -41.5t-105 -104.5l-145 108q72 100 169.5 153.5t227.5 53.5q129 0 221.5 -51.5t140.5 -144t48 -214.5v-610h-161l-10 169q-56 -99 -141.5 -144
t-190.5 -45q-99 0 -176.5 37zM585 187q67 43 105.5 111.5t39.5 141.5h-229q-117 0 -176 -39t-59 -115q0 -69 45.5 -105.5t122.5 -36.5q84 0 151 43zM272.5 1213q-80.5 70 -80.5 200h153q0 -66 45 -104.5t113 -38.5q69 0 113 38.5t44 104.5h153q0 -132 -81.5 -201t-228.5 -69
q-150 0 -230.5 70zM533.5 1566q-36.5 24 -77.5 68q-28 30 -46.5 44t-40.5 14q-34 0 -51 -37t-17 -100h-118q0 124 50 195.5t139 71.5q39 0 69.5 -13.5t52 -32t49.5 -48.5q29 -30 46.5 -43.5t38.5 -13.5q33 0 50 38t17 107h124q0 -132 -51 -203t-142 -71q-56 0 -92.5 24z" />
    <glyph glyph-name="uni1EBC" unicode="&#x1ebc;" horiz-adv-x="1242" 
d="M198 0v1413h927v-182h-724v-434h649v-180h-649v-428h724v-189h-927zM675.5 1565q-36.5 24 -77.5 68q-28 30 -46.5 44t-40.5 14q-34 0 -51 -37t-17 -100h-118q0 124 50 195.5t139 71.5q39 0 69.5 -13.5t52 -32t49.5 -48.5q29 -30 46.5 -43.5t38.5 -13.5q33 0 50 38t17 107
h124q0 -132 -51 -203t-142 -71q-56 0 -92.5 24z" />
    <glyph glyph-name="uni1EBD" unicode="&#x1ebd;" horiz-adv-x="1051" 
d="M288.5 53q-107.5 70 -161 186t-53.5 256q0 137 51.5 256t155.5 192t253 73q158 0 257 -72.5t142 -185t43 -237.5q0 -53 -6 -85h-691q7 -125 75.5 -202.5t196.5 -77.5q81 0 144.5 24.5t116.5 82.5l134 -113q-82 -86 -177.5 -126.5t-217.5 -40.5q-155 0 -262.5 70zM788 583
q-7 122 -70.5 197t-184.5 75q-116 0 -179.5 -76t-74.5 -196h509zM549.5 1152q-36.5 24 -77.5 68q-28 30 -46.5 44t-40.5 14q-34 0 -51 -37t-17 -100h-118q0 124 50 195.5t139 71.5q39 0 69.5 -13.5t52 -32t49.5 -48.5q29 -30 46.5 -43.5t38.5 -13.5q33 0 50 38t17 107h124
q0 -132 -51 -203t-142 -71q-56 0 -92.5 24z" />
    <glyph glyph-name="uni1EBE" unicode="&#x1ebe;" horiz-adv-x="1242" 
d="M198 0v1413h927v-182h-724v-434h649v-180h-649v-428h724v-189h-927zM321 1511l323 354l323 -354h-173l-150 167l-148 -167h-175zM538 1950l221 289h225l-291 -289h-155z" />
    <glyph glyph-name="uni1EBF" unicode="&#x1ebf;" horiz-adv-x="1051" 
d="M288.5 53q-107.5 70 -161 186t-53.5 256q0 137 51.5 256t155.5 192t253 73q158 0 257 -72.5t142 -185t43 -237.5q0 -53 -6 -85h-691q7 -125 75.5 -202.5t196.5 -77.5q81 0 144.5 24.5t116.5 82.5l134 -113q-82 -86 -177.5 -126.5t-217.5 -40.5q-155 0 -262.5 70zM788 583
q-7 122 -70.5 197t-184.5 75q-116 0 -179.5 -76t-74.5 -196h509zM195 1098l323 354l323 -354h-173l-150 167l-148 -167h-175zM412 1537l221 289h225l-291 -289h-155z" />
    <glyph glyph-name="uni1EC0" unicode="&#x1ec0;" horiz-adv-x="1242" 
d="M198 0v1413h927v-182h-724v-434h649v-180h-649v-428h724v-189h-927zM321 1511l323 354l323 -354h-173l-150 167l-148 -167h-175zM576 1939l-281 300h224l221 -300h-164z" />
    <glyph glyph-name="uni1EC1" unicode="&#x1ec1;" horiz-adv-x="1051" 
d="M288.5 53q-107.5 70 -161 186t-53.5 256q0 137 51.5 256t155.5 192t253 73q158 0 257 -72.5t142 -185t43 -237.5q0 -53 -6 -85h-691q7 -125 75.5 -202.5t196.5 -77.5q81 0 144.5 24.5t116.5 82.5l134 -113q-82 -86 -177.5 -126.5t-217.5 -40.5q-155 0 -262.5 70zM788 583
q-7 122 -70.5 197t-184.5 75q-116 0 -179.5 -76t-74.5 -196h509zM195 1098l323 354l323 -354h-173l-150 167l-148 -167h-175zM450 1526l-281 300h224l221 -300h-164z" />
    <glyph glyph-name="uni1EC4" unicode="&#x1ec4;" horiz-adv-x="1242" 
d="M198 0v1413h927v-182h-724v-434h649v-180h-649v-428h724v-189h-927zM321 1511l323 354l323 -354h-173l-150 167l-148 -167h-175zM675.5 1978q-36.5 24 -77.5 68q-28 30 -46.5 44t-40.5 14q-34 0 -51 -37t-17 -100h-118q0 124 50 195.5t139 71.5q39 0 69.5 -13.5t52 -32
t49.5 -48.5q29 -30 46.5 -43.5t38.5 -13.5q33 0 50 38t17 107h124q0 -132 -51 -203t-142 -71q-56 0 -92.5 24z" />
    <glyph glyph-name="uni1EC5" unicode="&#x1ec5;" horiz-adv-x="1051" 
d="M288.5 53q-107.5 70 -161 186t-53.5 256q0 137 51.5 256t155.5 192t253 73q158 0 257 -72.5t142 -185t43 -237.5q0 -53 -6 -85h-691q7 -125 75.5 -202.5t196.5 -77.5q81 0 144.5 24.5t116.5 82.5l134 -113q-82 -86 -177.5 -126.5t-217.5 -40.5q-155 0 -262.5 70zM788 583
q-7 122 -70.5 197t-184.5 75q-116 0 -179.5 -76t-74.5 -196h509zM195 1098l323 354l323 -354h-173l-150 167l-148 -167h-175zM549.5 1565q-36.5 24 -77.5 68q-28 30 -46.5 44t-40.5 14q-34 0 -51 -37t-17 -100h-118q0 124 50 195.5t139 71.5q39 0 69.5 -13.5t52 -32
t49.5 -48.5q29 -30 46.5 -43.5t38.5 -13.5q33 0 50 38t17 107h124q0 -132 -51 -203t-142 -71q-56 0 -92.5 24z" />
    <glyph glyph-name="uni1ED0" unicode="&#x1ed0;" horiz-adv-x="1521" 
d="M397.5 78q-147.5 98 -220.5 263t-73 366t73 366t220.5 263t362.5 98t363 -98t221 -263t73 -366t-73 -366t-221 -263t-363 -98t-362.5 98zM1016 237q101 74 147.5 196.5t46.5 273.5q0 150 -46.5 272.5t-147.5 196.5t-256 74q-154 0 -254.5 -74t-147 -196.5t-46.5 -272.5
q0 -151 46.5 -273.5t147 -196.5t254.5 -74q155 0 256 74zM436 1511l323 354l323 -354h-173l-150 167l-148 -167h-175zM653 1950l221 289h225l-291 -289h-155z" />
    <glyph glyph-name="uni1ED1" unicode="&#x1ed1;" horiz-adv-x="1123" 
d="M304.5 50.5q-111.5 70.5 -173.5 190t-62 261.5t61.5 260.5t173.5 188t256 69.5q143 0 255.5 -69.5t175 -188.5t62.5 -260q0 -142 -62.5 -261.5t-175 -190t-255.5 -70.5q-144 0 -255.5 70.5zM724.5 194q65.5 50 97 131t31.5 177t-31.5 176t-97 128.5t-163.5 48.5
t-163.5 -48.5t-97 -128.5t-31.5 -176t31.5 -177.5t97.5 -131t163 -49.5q98 0 163.5 50zM237 1098l323 354l323 -354h-173l-150 167l-148 -167h-175zM454 1537l221 289h225l-291 -289h-155z" />
    <glyph glyph-name="uni1ED2" unicode="&#x1ed2;" horiz-adv-x="1521" 
d="M397.5 78q-147.5 98 -220.5 263t-73 366t73 366t220.5 263t362.5 98t363 -98t221 -263t73 -366t-73 -366t-221 -263t-363 -98t-362.5 98zM1016 237q101 74 147.5 196.5t46.5 273.5q0 150 -46.5 272.5t-147.5 196.5t-256 74q-154 0 -254.5 -74t-147 -196.5t-46.5 -272.5
q0 -151 46.5 -273.5t147 -196.5t254.5 -74q155 0 256 74zM436 1511l323 354l323 -354h-173l-150 167l-148 -167h-175zM691 1939l-281 300h224l221 -300h-164z" />
    <glyph glyph-name="uni1ED3" unicode="&#x1ed3;" horiz-adv-x="1123" 
d="M304.5 50.5q-111.5 70.5 -173.5 190t-62 261.5t61.5 260.5t173.5 188t256 69.5q143 0 255.5 -69.5t175 -188.5t62.5 -260q0 -142 -62.5 -261.5t-175 -190t-255.5 -70.5q-144 0 -255.5 70.5zM724.5 194q65.5 50 97 131t31.5 177t-31.5 176t-97 128.5t-163.5 48.5
t-163.5 -48.5t-97 -128.5t-31.5 -176t31.5 -177.5t97.5 -131t163 -49.5q98 0 163.5 50zM237 1098l323 354l323 -354h-173l-150 167l-148 -167h-175zM492 1526l-281 300h224l221 -300h-164z" />
    <glyph glyph-name="uni1ED6" unicode="&#x1ed6;" horiz-adv-x="1521" 
d="M397.5 78q-147.5 98 -220.5 263t-73 366t73 366t220.5 263t362.5 98t363 -98t221 -263t73 -366t-73 -366t-221 -263t-363 -98t-362.5 98zM1016 237q101 74 147.5 196.5t46.5 273.5q0 150 -46.5 272.5t-147.5 196.5t-256 74q-154 0 -254.5 -74t-147 -196.5t-46.5 -272.5
q0 -151 46.5 -273.5t147 -196.5t254.5 -74q155 0 256 74zM436 1511l323 354l323 -354h-173l-150 167l-148 -167h-175zM790.5 1978q-36.5 24 -77.5 68q-28 30 -46.5 44t-40.5 14q-34 0 -51 -37t-17 -100h-118q0 124 50 195.5t139 71.5q39 0 69.5 -13.5t52 -32t49.5 -48.5
q29 -30 46.5 -43.5t38.5 -13.5q33 0 50 38t17 107h124q0 -132 -51 -203t-142 -71q-56 0 -92.5 24z" />
    <glyph glyph-name="uni1ED7" unicode="&#x1ed7;" horiz-adv-x="1123" 
d="M304.5 50.5q-111.5 70.5 -173.5 190t-62 261.5t61.5 260.5t173.5 188t256 69.5q143 0 255.5 -69.5t175 -188.5t62.5 -260q0 -142 -62.5 -261.5t-175 -190t-255.5 -70.5q-144 0 -255.5 70.5zM724.5 194q65.5 50 97 131t31.5 177t-31.5 176t-97 128.5t-163.5 48.5
t-163.5 -48.5t-97 -128.5t-31.5 -176t31.5 -177.5t97.5 -131t163 -49.5q98 0 163.5 50zM237 1098l323 354l323 -354h-173l-150 167l-148 -167h-175zM591.5 1565q-36.5 24 -77.5 68q-28 30 -46.5 44t-40.5 14q-34 0 -51 -37t-17 -100h-118q0 124 50 195.5t139 71.5
q39 0 69.5 -13.5t52 -32t49.5 -48.5q29 -30 46.5 -43.5t38.5 -13.5q33 0 50 38t17 107h124q0 -132 -51 -203t-142 -71q-56 0 -92.5 24z" />
    <glyph glyph-name="Ygrave" unicode="&#x1ef2;" horiz-adv-x="1317" 
d="M556 0v552l-529 861h242l388 -661l390 661h243l-527 -861v-552h-207zM588 1526l-281 300h224l221 -300h-164z" />
    <glyph glyph-name="ygrave" unicode="&#x1ef3;" horiz-adv-x="1002" 
d="M226 -430l177 445l-387 984h213l274 -759l271 759h212l-552 -1429h-208zM430 1113l-281 300h224l221 -300h-164z" />
    <glyph glyph-name="uni1EF8" unicode="&#x1ef8;" horiz-adv-x="1317" 
d="M556 0v552l-529 861h242l388 -661l390 661h243l-527 -861v-552h-207zM687.5 1565q-36.5 24 -77.5 68q-28 30 -46.5 44t-40.5 14q-34 0 -51 -37t-17 -100h-118q0 124 50 195.5t139 71.5q39 0 69.5 -13.5t52 -32t49.5 -48.5q29 -30 46.5 -43.5t38.5 -13.5q33 0 50 38
t17 107h124q0 -132 -51 -203t-142 -71q-56 0 -92.5 24z" />
    <glyph glyph-name="uni1EF9" unicode="&#x1ef9;" horiz-adv-x="1002" 
d="M226 -430l177 445l-387 984h213l274 -759l271 759h212l-552 -1429h-208zM529.5 1152q-36.5 24 -77.5 68q-28 30 -46.5 44t-40.5 14q-34 0 -51 -37t-17 -100h-118q0 124 50 195.5t139 71.5q39 0 69.5 -13.5t52 -32t49.5 -48.5q29 -30 46.5 -43.5t38.5 -13.5q33 0 50 38
t17 107h124q0 -132 -51 -203t-142 -71q-56 0 -92.5 24z" />
    <glyph glyph-name="endash" unicode="&#x2013;" horiz-adv-x="1034" 
d="M152 545v147h730v-147h-730z" />
    <glyph glyph-name="emdash" unicode="&#x2014;" horiz-adv-x="2048" 
d="M0 545v147h2048v-147h-2048z" />
    <glyph glyph-name="uni2015" unicode="&#x2015;" horiz-adv-x="1526" 
d="M152 545v147h1222v-147h-1222z" />
    <glyph glyph-name="quoteleft" unicode="&#x2018;" horiz-adv-x="566" 
d="M315 893l-235 520h233l128 -520h-126z" />
    <glyph glyph-name="quoteright" unicode="&#x2019;" horiz-adv-x="566" 
d="M124 893l129 520h233l-236 -520h-126z" />
    <glyph glyph-name="quotesinglbase" unicode="&#x201a;" horiz-adv-x="557" 
d="M125 -225l127 489h223l-232 -489h-118z" />
    <glyph glyph-name="quotedblleft" unicode="&#x201c;" horiz-adv-x="912" 
d="M315 893l-235 520h233l128 -520h-126zM662 893l-236 520h233l129 -520h-126z" />
    <glyph glyph-name="quotedblright" unicode="&#x201d;" horiz-adv-x="912" 
d="M124 893l129 520h233l-236 -520h-126zM471 893l129 520h232l-235 -520h-126z" />
    <glyph glyph-name="quotedblbase" unicode="&#x201e;" horiz-adv-x="888" 
d="M125 -225l127 489h223l-232 -489h-118zM456 -225l127 489h223l-233 -489h-117z" />
    <glyph glyph-name="dagger" unicode="&#x2020;" horiz-adv-x="793" 
d="M305 -205v1033h-222v183h222v402h183v-402h222v-183h-222v-1033h-183z" />
    <glyph glyph-name="daggerdbl" unicode="&#x2021;" horiz-adv-x="885" 
d="M351 -205v401h-222v185h222v447h-222v183h222v402h183v-402h222v-183h-222v-447h222v-185h-222v-401h-183z" />
    <glyph glyph-name="bullet" unicode="&#x2022;" horiz-adv-x="793" 
d="M277.5 276q-54.5 32 -86.5 86.5t-32 118.5t32 119t86.5 87t118.5 32t119 -32t87 -87t32 -119t-32 -118.5t-87 -86.5t-119 -32t-118.5 32z" />
    <glyph glyph-name="uni2023" unicode="&#x2023;" horiz-adv-x="853" 
d="M221 193v633l549 -316z" />
    <glyph glyph-name="twodotenleader" unicode="&#x2025;" horiz-adv-x="1069" 
d="M217 0v227h221v-227h-221zM631 0v227h220v-227h-220z" />
    <glyph glyph-name="ellipsis" unicode="&#x2026;" horiz-adv-x="1482" 
d="M217 0v227h221v-227h-221zM631 0v227h220v-227h-220zM1045 0v227h220v-227h-220z" />
    <glyph glyph-name="perthousand" unicode="&#x2030;" horiz-adv-x="2174" 
d="M215 838q-60 51 -85.5 125t-25.5 148t25 148.5t83.5 125.5t151.5 51q87 0 146.5 -48t88.5 -122.5t29 -156.5q0 -80 -28.5 -154t-86.5 -121t-143 -47q-95 0 -155 51zM303 -8l771 1437h169l-771 -1437h-169zM454 978q31 57 31 133q0 78 -31.5 133.5t-89.5 55.5
q-59 0 -90 -55.5t-31 -133.5t32 -134t92 -56q56 0 87 57zM1042.5 48q-59.5 51 -85 125.5t-25.5 148.5q0 75 25 149.5t83 125.5t151 51q87 0 146.5 -48t89 -123t29.5 -156t-28.5 -155t-87 -121.5t-143.5 -47.5q-95 0 -154.5 51zM1656.5 48q-59.5 51 -85 125.5t-25.5 148.5
q0 75 25 149.5t83 125.5t151 51q87 0 146.5 -48t89 -123t29.5 -156t-28.5 -155t-87 -121.5t-143.5 -47.5q-95 0 -154.5 51zM1282 188q31 58 31 135q0 78 -31.5 134t-90.5 56q-57 0 -88.5 -56.5t-31.5 -134.5q0 -79 31.5 -135.5t92.5 -56.5q56 0 87 58zM1895.5 188
q30.5 58 30.5 135q0 78 -31.5 134t-89.5 56t-89 -56t-31 -135t32 -135.5t92 -56.5q56 0 86.5 58z" />
    <glyph glyph-name="uni2031" unicode="&#x2031;" horiz-adv-x="2777" 
d="M215 838q-60 51 -85.5 125t-25.5 148t25 148.5t83.5 125.5t151.5 51q86 0 145.5 -48t88.5 -123t29 -156q0 -80 -28.5 -154t-86.5 -121t-142 -47q-95 0 -155 51zM303 -8l771 1436h168l-770 -1436h-169zM454 978q31 57 31 133q0 78 -31.5 134t-89.5 56q-59 0 -90.5 -56
t-31.5 -134t32 -134t93 -56q56 0 87 57zM1042.5 48q-59.5 51 -85 125.5t-25.5 148.5q0 75 25 149.5t83 125.5t151 51q86 0 145.5 -48t89 -123t29.5 -156t-28.5 -155t-87 -121.5t-142.5 -47.5q-95 0 -154.5 51zM1655.5 48q-59.5 51 -85 125.5t-25.5 148.5q0 75 25 149.5
t83 125.5t151 51q87 0 146.5 -48t88.5 -122.5t29 -156.5q0 -81 -28.5 -155t-87 -121.5t-142.5 -47.5q-95 0 -154.5 51zM2261.5 48q-59.5 51 -85 125.5t-25.5 148.5q0 75 25 149.5t83 125.5t151 51q87 0 146.5 -48t88.5 -122.5t29 -156.5q0 -81 -28.5 -155t-87 -121.5
t-142.5 -47.5q-95 0 -154.5 51zM1282 188q31 58 31 135q0 78 -31.5 134.5t-90.5 56.5q-58 0 -89.5 -57t-31.5 -135q0 -79 31.5 -135.5t93.5 -56.5q56 0 87 58zM1894.5 188q31.5 58 31.5 135q0 78 -31.5 134.5t-90.5 56.5t-90 -56.5t-31 -135.5t31.5 -135.5t92.5 -56.5
q56 0 87.5 58zM2500.5 188q31.5 58 31.5 135q0 78 -31.5 134.5t-90.5 56.5t-90 -56.5t-31 -135.5t31.5 -135.5t92.5 -56.5q56 0 87.5 58z" />
    <glyph glyph-name="guilsinglleft" unicode="&#x2039;" horiz-adv-x="595" 
d="M438 171l-396 340l396 340v-185l-187 -155l187 -155v-185z" />
    <glyph glyph-name="guilsinglright" unicode="&#x203a;" horiz-adv-x="597" 
d="M155 171v185l187 155l-187 155v185l397 -340z" />
    <glyph glyph-name="fraction" unicode="&#x2044;" horiz-adv-x="802" 
d="M-82 0l772 1413h194l-772 -1413h-194z" />
    <glyph glyph-name="Euro" unicode="&#x20ac;" horiz-adv-x="1272" 
d="M450 112q-128 132 -174 352h-154l66 152h67q-2 31 -2 91q0 58 4 102h-135l66 153h90q48 216 175 345t327 129q117 0 214 -50.5t168 -147.5l-130 -105q-84 125 -253 125q-125 0 -208.5 -80.5t-122.5 -215.5h528l-65 -153h-489q-4 -60 -4 -90q0 -38 4 -100h554l-65 -153
h-463q39 -143 122.5 -226t211.5 -83q80 0 141 30.5t105 97.5l121 -125q-69 -88 -162.5 -134t-204.5 -46q-204 0 -332 132z" />
    <glyph glyph-name="uni20B1" unicode="&#x20b1;" horiz-adv-x="1348" 
d="M1250 965h-87q-11 -112 -72.5 -191t-164 -119.5t-235.5 -40.5h-216v-614h-202v965h-130v100h130v348h418q130 0 232 -41.5t164 -120t75 -186.5h88v-100zM475 1065h483q-17 78 -84.5 120t-182.5 42h-216v-162zM960 965h-485v-165h216q242 0 269 165z" />
    <glyph glyph-name="uni20B3" unicode="&#x20b3;" horiz-adv-x="1323" 
d="M1166 307l118 -307h-219l-108 307h-587l-109 -307h-222l119 307h-101v133h152l82 210h-234v133h285l244 630h154l243 -630h282v-133h-231l81 -210h150v-133h-99zM662 1167l-134 -384h270zM482 650l-74 -210h511l-74 210h-363z" />
    <glyph glyph-name="uni20B4" unicode="&#x20b4;" horiz-adv-x="1251" 
d="M1124 379q-20 -127 -95.5 -216t-185 -134t-232.5 -45q-130 0 -236 51t-167 145.5t-61 221.5q0 119 55 198t133.5 123.5t204.5 96.5q13 6 28.5 12t33.5 14h-354v118h540q39 47 39 111q0 53 -27.5 94t-74 63.5t-101.5 22.5q-79 0 -145.5 -40.5t-106.5 -116.5l-162 103
q67 117 173 175t237 58q112 0 206 -45.5t149 -130t55 -197.5q0 -109 -50.5 -177.5t-122.5 -105.5t-191 -79q-17 -6 -37 -13t-43 -16h408v-117h-597q-47 -56 -47 -141q0 -120 68.5 -181t190.5 -61q82 0 150.5 29t113.5 88t54 145z" />
    <glyph glyph-name="uni20B8" unicode="&#x20b8;" horiz-adv-x="1401" 
d="M138 1236v176h1126v-176h-1126zM599 0v928h-461v175h1126v-175h-462v-928h-203z" />
    <glyph glyph-name="uni20BD" unicode="&#x20bd;" horiz-adv-x="1342" 
d="M328 313h-177v163h177v148h-177v176h177v613h418q140 0 247 -48t166.5 -139t59.5 -216t-59 -212t-165.5 -130.5t-248.5 -43.5h-217v-148h360v-163h-360v-313h-201v313zM746 800q136 0 205 53t69 157t-70 160.5t-204 56.5h-217v-427h217z" />
    <glyph glyph-name="uni2116" unicode="&#x2116;" horiz-adv-x="2343" 
d="M198 0v1413h240l601 -1125v1125h198v-1413h-243l-598 1127v-1127h-198zM1612 373q-94 59 -146 159.5t-52 220.5q0 118 52 218t146 158.5t214 58.5t215 -58.5t147.5 -158.5t52.5 -218q0 -119 -52.5 -219.5t-147.5 -160t-215 -59.5t-214 59zM1964.5 494q55.5 42 82 110.5
t26.5 148.5t-26.5 147t-82 108t-137.5 41t-137 -41t-81.5 -108t-26.5 -147q0 -81 26.5 -149.5t81.5 -110t137 -41.5t137.5 42zM1442 0v154h760v-154h-760z" />
    <glyph glyph-name="trademark" unicode="&#x2122;" horiz-adv-x="1347" 
d="M288 877v434h-145v102h405v-102h-146v-434h-114zM621 877v536h120l126 -335l127 335h116v-536h-114v329l-87 -248h-83l-90 252v-333h-115z" />
    <glyph glyph-name="uni2126" unicode="&#x2126;" horiz-adv-x="1676" 
d="M163 165h311q-92 62 -161.5 150.5t-107.5 192.5t-38 210q0 131 47.5 258t128.5 213q94 100 227 159t267 59q133 0 267 -59.5t228 -159.5q80 -85 127.5 -213t47.5 -259q0 -109 -35 -214t-100 -193t-152 -147h290v-162h-542v160q110 26 192 104.5t127 198.5t45 267
q0 96 -32 188t-86 151q-71 78 -173.5 124.5t-203.5 46.5t-202 -46.5t-173 -124.5q-54 -60 -86.5 -151t-32.5 -188q0 -141 44.5 -259t126.5 -198.5t192 -112.5v-160h-543v165z" />
    <glyph glyph-name="arrowleft" unicode="&#x2190;" horiz-adv-x="2206" 
d="M1025 106l-950 533l950 525l87 -154l-607 -298h1600v-154h-1588l595 -299z" />
    <glyph glyph-name="arrowright" unicode="&#x2192;" horiz-adv-x="2206" 
d="M1182 106l-88 153l595 299h-1587v154h1598l-606 298l88 154l949 -525z" />
    <glyph glyph-name="partialdiff" unicode="&#x2202;" horiz-adv-x="1295" 
d="M329 46q-99 57 -152 159t-53 234q0 163 73.5 295t198.5 207t272 75q79 0 151 -27.5t128 -81.5q-3 122 -41.5 205t-104.5 124t-152 41q-175 0 -246 -161l-159 45q52 128 161 198t259 70q244 0 361.5 -181.5t117.5 -497.5q0 -213 -66 -386t-197.5 -274t-318.5 -101
q-133 0 -232 57zM757.5 211.5q83.5 53.5 132.5 147.5t49 210q0 129 -66 205.5t-194 76.5q-113 0 -196.5 -60.5t-127 -155.5t-43.5 -196q0 -86 34 -150t93.5 -97.5t134.5 -33.5q100 0 183.5 53.5z" />
    <glyph glyph-name="uni2206" unicode="&#x2206;" horiz-adv-x="1297" 
d="M76 0l572 1458l573 -1458h-1145zM321 167h654l-327 860z" />
    <glyph glyph-name="product" unicode="&#x220f;" horiz-adv-x="1339" 
d="M252 0v1246h-82v167h999v-167h-82v-1246h-167v1246h-501v-1246h-167z" />
    <glyph glyph-name="summation" unicode="&#x2211;" horiz-adv-x="1269" 
d="M103 0v84l574 623l-574 622v84h1043v-167h-742l512 -539l-512 -540h742v-167h-1043z" />
    <glyph glyph-name="minus" unicode="&#x2212;" horiz-adv-x="1349" 
d="M232 555v147h886v-147h-886z" />
    <glyph glyph-name="radical" unicode="&#x221a;" horiz-adv-x="1199" 
d="M501 -206l-267 766h-154v167h273l158 -499l453 1193l157 -58z" />
    <glyph glyph-name="infinity" unicode="&#x221e;" horiz-adv-x="1890" 
d="M336.5 402q-85.5 48 -130.5 134t-45 199t45 199t130.5 134t203.5 48q109 0 215.5 -59t189.5 -167q82 108 189 167t217 59q117 0 202.5 -48t130.5 -134t45 -199t-45 -199t-130.5 -134t-202.5 -48q-110 0 -217 59.5t-189 167.5q-83 -109 -189.5 -168t-215.5 -59
q-118 0 -203.5 48zM724 572.5q79 59.5 133 162.5q-55 102 -134 162t-153 60q-105 0 -167.5 -59t-62.5 -163t62.5 -163t167.5 -59q75 0 154 59.5zM1487 572q62 59 62 163t-62 163t-167 59q-75 0 -154 -59.5t-133 -162.5q55 -102 134 -162t153 -60q105 0 167 59z" />
    <glyph glyph-name="integral" unicode="&#x222b;" horiz-adv-x="949" 
d="M70 -289q118 0 189 29.5t104 94.5t33 173v1140q0 86 37.5 155t102.5 107.5t142 38.5q55 0 109.5 -21t102.5 -61l-109 -129q-47 43 -103 43q-48 0 -81.5 -34.5t-33.5 -101.5v-1139q0 -150 -60 -253.5t-171 -156.5t-262 -53v168z" />
    <glyph glyph-name="approxequal" unicode="&#x2248;" horiz-adv-x="1168" 
d="M627.5 756q-46.5 22 -101.5 62q-41 29 -66 42t-54 13q-45 0 -61.5 -28.5t-15.5 -83.5h-133q0 116 54 180.5t154 64.5q56 0 99.5 -12.5t73 -30t65.5 -44.5q33 -25 55.5 -37t48.5 -12q49 0 67.5 31.5t18.5 99.5h140q0 -130 -59 -198.5t-173 -68.5q-66 0 -112.5 22z
M628.5 410q-46.5 22 -101.5 62q-39 29 -65 42.5t-56 13.5q-45 0 -61.5 -29t-15.5 -84h-133q0 116 54 180.5t154 64.5q56 0 99.5 -12.5t73 -29.5t65.5 -44q33 -25 55.5 -37t48.5 -12q49 0 67.5 31t18.5 98h140q0 -129 -59 -197.5t-172 -68.5q-66 0 -112.5 22z" />
    <glyph glyph-name="notequal" unicode="&#x2260;" horiz-adv-x="1171" 
d="M115 0l229 418h-155v162h241l99 184h-340v162h427l265 487h181l-265 -487h176v-162h-263l-99 -184h362v-162h-449l-228 -418h-181z" />
    <glyph glyph-name="lessequal" unicode="&#x2264;" horiz-adv-x="1319" 
d="M1084 135l-939 525l939 523l84 -146l-704 -377l704 -379zM94 -147v147h1087v-147h-1087z" />
    <glyph glyph-name="greaterequal" unicode="&#x2265;" horiz-adv-x="1317" 
d="M233 135l-84 146l704 379l-704 377l84 146l939 -523zM136 -147v147h1087v-147h-1087z" />
    <glyph glyph-name="lozenge" unicode="&#x25ca;" horiz-adv-x="1113" 
d="M466 0l-376 717l376 717h182l375 -717l-375 -717h-182zM557 186l266 531l-266 530l-267 -530z" />
    <glyph glyph-name="uniF8FF" unicode="&#xf8ff;" horiz-adv-x="1756" 
d="M489.5 43q-177.5 104 -281.5 281.5t-104 388.5t104 388.5t281.5 281.5t388.5 104t388.5 -104t281.5 -281.5t104 -388.5t-104 -388.5t-281.5 -281.5t-388.5 -104t-388.5 104zM1230.5 104.5q161.5 94.5 255.5 256t94 352.5t-94 352.5t-255.5 255.5t-352.5 94t-352.5 -94
t-256 -255.5t-94.5 -352.5t94.5 -352.5t256 -256t352.5 -94.5t352.5 94.5zM450 419.5q-10 9.5 -10 24.5v537q0 15 10 26t24 11q16 0 26.5 -11t10.5 -26v-537q0 -15 -10.5 -24.5t-26.5 -9.5q-14 0 -24 9.5zM852.5 419.5q-9.5 9.5 -9.5 24.5v537q0 15 10 26t25 11t25 -11
t10 -26v-537q0 -15 -10 -24.5t-25 -9.5q-16 0 -25.5 9.5zM1257 420l-271 268q-8 11 -8 25q0 16 8 24l272 269q8 12 21 12q14 0 25.5 -11.5t11.5 -25.5t-10 -25l-244 -243l244 -244q10 -10 10 -25q0 -13 -11.5 -23.5t-25.5 -10.5t-22 10zM584.5 687.5q-9.5 9.5 -9.5 25.5
q0 15 9.5 25t25.5 10h133q15 0 26 -10t11 -25t-11 -25t-26 -10h-133q-16 0 -25.5 9.5z" />
    <glyph glyph-name="c.001" horiz-adv-x="988" 
d="M283 51.5q-103 71.5 -155 190t-52 256.5q0 137 51.5 256.5t154.5 192.5t249 73q139 0 246 -75t163 -204l-183 -75q-22 83 -82.5 133t-143.5 50q-89 0 -147 -51t-84.5 -130.5t-26.5 -169.5q0 -91 26 -169.5t84 -128.5t148 -50q82 0 143 49t83 130l172 -69
q-47 -132 -151 -206t-245 -74q-147 0 -250 71.5z" />
    <glyph glyph-name="g.ss01" horiz-adv-x="1135" 
d="M925 -232.5q-52 -98.5 -152 -151t-240 -52.5q-142 0 -246.5 53.5t-171.5 152.5l149 109q40 -68 109.5 -107t160.5 -39q120 0 184 69.5t64 197.5v131q-49 -66 -125 -98.5t-166 -32.5q-134 0 -229.5 68t-144 184t-48.5 257t49 257.5t143 185t224 68.5q91 0 169 -36
t128 -104v119h195v-999q0 -134 -52 -232.5zM682.5 220.5q59.5 44.5 87.5 119.5t28 170q0 94 -28 170t-87.5 121t-148.5 45t-149 -45t-89 -121t-29 -170t29 -169.5t89 -120t149 -44.5t148.5 44.5z" />
    <glyph glyph-name="gbreve.ss01" horiz-adv-x="1135" 
d="M925 -232.5q-52 -98.5 -152 -151t-240 -52.5q-142 0 -246.5 53.5t-171.5 152.5l149 109q40 -68 109.5 -107t160.5 -39q120 0 184 69.5t64 197.5v131q-49 -66 -125 -98.5t-166 -32.5q-134 0 -229.5 68t-144 184t-48.5 257t49 257.5t143 185t224 68.5q91 0 169 -36
t128 -104v119h195v-999q0 -134 -52 -232.5zM682.5 220.5q59.5 44.5 87.5 119.5t28 170q0 94 -28 170t-87.5 121t-148.5 45t-149 -45t-89 -121t-29 -170t29 -169.5t89 -120t149 -44.5t148.5 44.5zM298.5 1213q-80.5 70 -80.5 200h153q0 -66 45 -104.5t113 -38.5
q69 0 113 38.5t44 104.5h153q0 -132 -81.5 -201t-228.5 -69q-150 0 -230.5 70z" />
    <glyph glyph-name="gcommaaccent.ss01" horiz-adv-x="1135" 
d="M762 1403l-129 -307h-231l237 307h123zM925 -232.5q-52 -98.5 -152 -151t-240 -52.5q-142 0 -246.5 53.5t-171.5 152.5l149 109q40 -68 109.5 -107t160.5 -39q120 0 184 69.5t64 197.5v131q-49 -66 -125 -98.5t-166 -32.5q-134 0 -229.5 68t-144 184t-48.5 257t49 257.5
t143 185t224 68.5q91 0 169 -36t128 -104v119h195v-999q0 -134 -52 -232.5zM682.5 220.5q59.5 44.5 87.5 119.5t28 170q0 94 -28 170t-87.5 121t-148.5 45t-149 -45t-89 -121t-29 -170t29 -169.5t89 -120t149 -44.5t148.5 44.5z" />
    <glyph glyph-name="gdotaccent.ss01" horiz-adv-x="1135" 
d="M925 -232.5q-52 -98.5 -152 -151t-240 -52.5q-142 0 -246.5 53.5t-171.5 152.5l149 109q40 -68 109.5 -107t160.5 -39q120 0 184 69.5t64 197.5v131q-49 -66 -125 -98.5t-166 -32.5q-134 0 -229.5 68t-144 184t-48.5 257t49 257.5t143 185t224 68.5q91 0 169 -36
t128 -104v119h195v-999q0 -134 -52 -232.5zM682.5 220.5q59.5 44.5 87.5 119.5t28 170q0 94 -28 170t-87.5 121t-148.5 45t-149 -45t-89 -121t-29 -170t29 -169.5t89 -120t149 -44.5t148.5 44.5zM421 1205v208h212v-208h-212z" />
    <glyph glyph-name="i.loclTRK" horiz-adv-x="508" 
d="M158 0v999h193v-999h-193zM146 1205v208h212v-208h-212z" />
    <glyph glyph-name="f_t" horiz-adv-x="1277" 
d="M830.5 57q-70.5 77 -70.5 213v568h-354v-838h-197v838h-182v159h183v154q0 90 40 154t106.5 96.5t146.5 32.5q89 0 172 -40l-56 -157q-54 28 -99 28q-51 0 -82.5 -32.5t-31.5 -97.5v-136h357v236l186 156v-392h258v-161h-258v-548q0 -73 35 -108.5t91 -35.5q29 0 60 9
t58 22v-172q-24 -10 -67 -17.5t-89 -7.5q-136 0 -206.5 77z" />
    <glyph glyph-name="uni0414.loclRUS" horiz-adv-x="1458" 
d="M42 172h157q82 169 118.5 339.5t36.5 394.5v506h877v-1240h141v-479h-202v307h-925v-306l-203 -1v479zM1028 172v1059h-472v-324q0 -231 -33 -399.5t-113 -335.5h618z" />
    <glyph glyph-name="uni0414.loclSRB" horiz-adv-x="1458" 
d="M42 174h157q83 170 119 339t36 393v506h877v-1238h141v-481h-202v307h-925v-306l-203 -1v481zM1028 174v1057h-472v-324q0 -230 -33 -398t-113 -335h618z" />
    <glyph glyph-name="uni041B.loclRUS" horiz-adv-x="1427" 
d="M127 -6q-48 14 -88 37l70 181q44 -30 81 -30q74 0 109 117.5t43.5 290.5t8.5 456v32v334h879v-1412h-202v1231h-474v-208q0 -337 -16 -543.5t-88 -353t-226 -146.5q-49 0 -97 14z" />
    <glyph glyph-name="uni041B.loclSRB" horiz-adv-x="1427" 
d="M127 -6q-48 14 -88 37l70 181q44 -30 81 -30q74 0 109 117.5t43.5 290.5t8.5 456v32v334h879v-1412h-202v1231h-474v-208q0 -337 -16 -543.5t-88 -353t-226 -146.5q-49 0 -97 14z" />
    <glyph glyph-name="uni042E.loclRUS" horiz-adv-x="1945" 
d="M842.5 63.5q-141.5 83.5 -219 227t-93.5 325.5h-129v-616h-203v1412h203v-615h129q16 181 93.5 325t219 228t340.5 84q216 0 364 -98t220.5 -262.5t72.5 -366.5t-72.5 -366.5t-220.5 -262.5t-364 -98q-199 0 -340.5 83.5zM1437.5 236.5q100.5 73.5 147 196.5t46.5 274
t-46.5 273.5t-147 196t-254.5 73.5t-254.5 -73.5t-147 -196t-46.5 -273.5t46.5 -274t147 -196.5t254.5 -73.5t254.5 73.5z" />
    <glyph glyph-name="uni0431.loclSRB" horiz-adv-x="1138" 
d="M301.5 50.5q-112.5 66.5 -174.5 180.5t-62 251q0 149 76.5 279t246.5 197q-70 39 -114 72.5t-70 76.5t-26 100q0 66 34.5 117.5t100 80.5t155.5 29q74 0 166.5 -21.5t190.5 -71.5l-59 -182q-59 47 -134.5 78.5t-144.5 31.5q-101 0 -101 -74q0 -51 53 -91t170 -81
q222 -68 335.5 -192t113.5 -327q0 -151 -64.5 -269.5t-178.5 -184.5t-257 -66q-144 0 -256.5 66.5zM728 205q64 56 90.5 135t26.5 154q0 112 -54 185.5t-125 110.5t-138 52q-125 -32 -187.5 -127t-62.5 -227q0 -96 32.5 -173t96.5 -121.5t153 -44.5q104 0 168 56z" />
    <glyph glyph-name="uni0432.loclRUS" horiz-adv-x="1068" 
d="M153 999h431q114 0 192 -23t122 -82t44 -163q0 -72 -39 -130.5t-120 -76.5q99 -13 151.5 -70t52.5 -159q0 -115 -44.5 -179.5t-132 -90t-227.5 -25.5h-430v999zM589 599q74 0 117 32.5t43 81.5q0 58 -36.5 85t-124.5 27h-245v-226h246zM585 177q77 0 120.5 12t63 40
t19.5 79q0 67 -52 94t-151 27h-242v-252h242z" />
    <glyph glyph-name="uni0432.loclSRB" horiz-adv-x="1068" 
d="M153 999h431q114 0 192 -23t122 -82t44 -163q0 -72 -39 -130.5t-120 -76.5q99 -13 151.5 -70t52.5 -159q0 -115 -44.5 -179.5t-132 -90t-227.5 -25.5h-430v999zM589 599q74 0 117 32.5t43 81.5q0 58 -36.5 85t-124.5 27h-245v-226h246zM585 177q77 0 120.5 12t63 40
t19.5 79q0 67 -52 94t-151 27h-242v-252h242z" />
    <glyph glyph-name="uni0433.loclRUS" horiz-adv-x="778" 
d="M153 0v999h613v-148h-417v-851h-196z" />
    <glyph glyph-name="uni0433.loclSRB" horiz-adv-x="778" 
d="M153 0v999h613v-148h-417v-851h-196z" />
    <glyph glyph-name="uni0434.loclRUS" horiz-adv-x="1163" 
d="M13 149h126q67 75 94 195.5t27 271.5v383h715v-850h120v-456h-196v307h-690v-307h-196v456zM779 149v702h-324v-234q0 -339 -112 -468h436z" />
    <glyph glyph-name="uni0434.loclSRB" horiz-adv-x="1163" 
d="M13 149h126q67 75 94 195.5t27 271.5v383h715v-850h120v-456h-196v307h-690v-307h-196v456zM779 149v702h-324v-234q0 -339 -112 -468h436z" />
    <glyph glyph-name="uni0436.loclRUS" horiz-adv-x="1479" 
d="M199 444q24 61 67 110.5t94 49.5l-273 395h229l228 -364h98v364h194v-364h99l227 364h230l-273 -395q50 0 93 -49.5t68 -110.5l169 -444h-228l-121 356q-23 64 -57 96t-91 32h-116v-484h-194v484h-115q-57 0 -91.5 -32.5t-56.5 -95.5l-122 -356h-228z" />
    <glyph glyph-name="uni0436.loclSRB" horiz-adv-x="1479" 
d="M199 444q24 61 67 110.5t94 49.5l-273 395h229l228 -364h98v364h194v-364h99l227 364h230l-273 -395q50 0 93 -49.5t68 -110.5l169 -444h-228l-121 356q-23 64 -57 96t-91 32h-116v-484h-194v484h-115q-57 0 -91.5 -32.5t-56.5 -95.5l-122 -356h-228z" />
    <glyph glyph-name="uni0437.loclRUS" horiz-adv-x="982" 
d="M214.5 34.5q-105.5 54.5 -175.5 157.5l159 119q32 -75 99 -117t148 -42q130 0 190.5 34t60.5 105q0 52 -21 80t-65 39t-122 11h-117v170h134q84 8 119.5 38t35.5 93q0 58 -46.5 86.5t-150.5 28.5q-71 0 -138 -36.5t-109 -108.5l-173 92q81 126 185 177t234 51
q391 0 391 -279q0 -84 -40.5 -139t-133.5 -78q101 -15 158.5 -75.5t57.5 -157.5q0 -157 -117 -230t-326 -73q-132 0 -237.5 54.5z" />
    <glyph glyph-name="uni0437.loclSRB" horiz-adv-x="982" 
d="M214.5 34.5q-105.5 54.5 -175.5 157.5l159 119q32 -75 99 -117t148 -42q130 0 190.5 34t60.5 105q0 52 -21 80t-65 39t-122 11h-117v170h134q84 8 119.5 38t35.5 93q0 58 -46.5 86.5t-150.5 28.5q-71 0 -138 -36.5t-109 -108.5l-173 92q81 126 185 177t234 51
q391 0 391 -279q0 -84 -40.5 -139t-133.5 -78q101 -15 158.5 -75.5t57.5 -157.5q0 -157 -117 -230t-326 -73q-132 0 -237.5 54.5z" />
    <glyph glyph-name="uni0438.loclRUS" horiz-adv-x="1168" 
d="M158 999h195v-605q0 -40 -10 -120h10l443 725h215v-999h-195v605q0 53 10 121h-10l-442 -726h-216v999z" />
    <glyph glyph-name="uni0438.loclSRB" horiz-adv-x="1168" 
d="M158 999h195v-605q0 -40 -10 -120h10l443 725h215v-999h-195v605q0 53 10 121h-10l-442 -726h-216v999z" />
    <glyph glyph-name="uni0439.loclRUS" horiz-adv-x="1168" 
d="M354.5 1213q-81.5 70 -81.5 200h145q0 -67 47 -107t116 -40q70 0 116 40t46 107h146q0 -131 -82 -200.5t-226 -69.5q-145 0 -226.5 70zM158 999h195v-605q0 -40 -10 -120h10l443 725h215v-999h-195v605q0 53 10 121h-10l-442 -726h-216v999z" />
    <glyph glyph-name="uni0439.loclSRB" horiz-adv-x="1168" 
d="M354.5 1213q-81.5 70 -81.5 200h145q0 -67 47 -107t116 -40q70 0 116 40t46 107h146q0 -131 -82 -200.5t-226 -69.5q-145 0 -226.5 70zM158 999h195v-605q0 -40 -10 -120h10l443 725h215v-999h-195v605q0 53 10 121h-10l-442 -726h-216v999z" />
    <glyph glyph-name="uni045D.loclRUS" horiz-adv-x="1168" 
d="M515 1127l-273 297h213l219 -297h-159zM158 999h195v-605q0 -40 -10 -120h10l443 725h215v-999h-195v605q0 53 10 121h-10l-442 -726h-216v999z" />
    <glyph glyph-name="uni045D.loclSRB" horiz-adv-x="1168" 
d="M515 1127l-273 297h213l219 -297h-159zM158 999h195v-605q0 -40 -10 -120h10l443 725h215v-999h-195v605q0 53 10 121h-10l-442 -726h-216v999z" />
    <glyph glyph-name="uni043A.loclRUS" horiz-adv-x="998" 
d="M158 999h194v-364h98l228 364h229l-273 -395q50 0 93 -49.5t68 -110.5l170 -444h-228l-122 356q-22 63 -56.5 95.5t-91.5 32.5h-115v-484h-194v999z" />
    <glyph glyph-name="uni043A.loclSRB" horiz-adv-x="998" 
d="M158 999h194v-364h98l228 364h229l-273 -395q50 0 93 -49.5t68 -110.5l170 -444h-228l-122 356q-22 63 -56.5 95.5t-91.5 32.5h-115v-484h-194v999z" />
    <glyph glyph-name="uni043B.loclRUS" horiz-adv-x="1102" 
d="M93 -6.5q-53 14.5 -93 34.5l56 131q5 -2 21 -9.5t30 -11.5t25 -4q40 0 63.5 47t34.5 151.5t11 283.5v383h704v-999h-196v851h-314v-304q0 -220 -29.5 -345t-81.5 -174t-129 -49q-49 0 -102 14.5z" />
    <glyph glyph-name="uni043B.loclSRB" horiz-adv-x="1102" 
d="M93 -6.5q-53 14.5 -93 34.5l56 131q5 -2 21 -9.5t30 -11.5t25 -4q40 0 63.5 47t34.5 151.5t11 283.5v383h704v-999h-196v851h-314v-304q0 -220 -29.5 -345t-81.5 -174t-129 -49q-49 0 -102 14.5z" />
    <glyph glyph-name="uni043F.loclRUS" horiz-adv-x="1168" 
d="M158 0v999h853v-999h-195v851h-463v-851h-195z" />
    <glyph glyph-name="uni043F.loclSRB" horiz-adv-x="1168" 
d="M158 0v999h853v-999h-195v851h-463v-851h-195z" />
    <glyph glyph-name="uni0442.loclRUS" horiz-adv-x="878" 
d="M341 0v851h-329v148h854v-148h-330v-851h-195z" />
    <glyph glyph-name="uni0442.loclSRB" horiz-adv-x="878" 
d="M341 0v851h-329v148h854v-148h-330v-851h-195z" />
    <glyph glyph-name="uni0446.loclRUS" horiz-adv-x="1212" 
d="M978 -307v307h-820v999h195v-850h463v850h195v-850h162v-456h-195z" />
    <glyph glyph-name="uni0446.loclSRB" horiz-adv-x="1212" 
d="M978 -307v307h-820v999h195v-850h463v850h195v-850h162v-456h-195z" />
    <glyph glyph-name="uni0448.loclRUS" horiz-adv-x="1614" 
d="M158 0v999h195v-850h357v850h194v-850h358v850h195v-999h-1299z" />
    <glyph glyph-name="uni0448.loclSRB" horiz-adv-x="1614" 
d="M158 0v999h195v-850h357v850h194v-850h358v850h195v-999h-1299z" />
    <glyph glyph-name="uni0449.loclRUS" horiz-adv-x="1658" 
d="M1424 -307v307h-1266v999h195v-850h357v850h194v-850h358v850h195v-850h161v-456h-194z" />
    <glyph glyph-name="uni0449.loclSRB" horiz-adv-x="1658" 
d="M1424 -307v307h-1266v999h195v-850h357v850h194v-850h358v850h195v-850h161v-456h-194z" />
    <glyph glyph-name="uni044C.loclRUS" horiz-adv-x="1023" 
d="M158 999h195v-315h169q138 0 230 -31.5t141 -106.5t49 -203q0 -166 -109.5 -254.5t-309.5 -88.5h-365v999zM522 164q95 0 150 40t55 139q0 98 -55 137.5t-150 39.5h-169v-356h169z" />
    <glyph glyph-name="uni044A.loclRUS" horiz-adv-x="1163" 
d="M298 851h-286v148h481v-315h168q139 0 231.5 -31.5t141.5 -106.5t49 -203q0 -166 -110 -254.5t-311 -88.5h-364v851zM661 164q95 0 150 39.5t55 139.5q0 98 -55 137.5t-150 39.5h-168v-356h168z" />
    <glyph glyph-name="uni044B.loclRUS" horiz-adv-x="1417" 
d="M158 999h195v-315h169q138 0 230 -31.5t141 -106.5t49 -203q0 -166 -109.5 -254.5t-309.5 -88.5h-365v999zM1075 0v999h184v-999h-184zM522 164q95 0 150 40t55 139q0 98 -55 137.5t-150 39.5h-169v-356h169z" />
    <glyph glyph-name="uni044E.loclRUS" horiz-adv-x="1517" 
d="M698.5 46.5q-111.5 66.5 -176 180t-68.5 251.5h-101v-478h-195v999h195v-373h116q26 111 93 198.5t167 137.5t221 50q144 0 257 -69.5t176 -187.5t63 -259q0 -142 -63 -260t-176 -187t-257 -69q-140 0 -251.5 66.5zM1111.5 196q63.5 47 93 125t29.5 175t-29.5 175
t-93 125t-161.5 47t-161.5 -47t-93 -125.5t-29.5 -174.5q0 -97 29.5 -175t93 -125t161.5 -47t161.5 47z" />
    <glyph glyph-name="strokecy" horiz-adv-x="1078" 
d="M169 295v169h740v-169h-740z" />
    </font>
</defs>
</svg>
