<?xml version="1.0" standalone="no"?>
<!DOCTYPE svg PUBLIC "-//W3C//DTD SVG 1.1//EN" "http://www.w3.org/Graphics/SVG/1.1/DTD/svg11.dtd" >
<svg xmlns="http://www.w3.org/2000/svg" xmlns:xlink="http://www.w3.org/1999/xlink" version="1.1">
<metadata>
Created by FontForge 20161003 at Mon Feb 20 18:09:15 2017
 By www-data
Copyright (c)2015, HK Grotesk Latin by Alfredo Marco Pradil (ammpradil@gmail.com) and HK Grotesk Cyrillic by Stefan Peev (http://www.contextbg.net/). HK Grotesk is a trademark of Alfredo Marco Pradil.
</metadata>
<defs>
<font id="HKGroteskLight" horiz-adv-x="1104" >
  <font-face 
    font-family="HKGroteskLight"
    font-weight="300"
    font-stretch="normal"
    units-per-em="2048"
    panose-1="0 0 4 0 0 0 0 0 0 0"
    ascent="1434"
    descent="-614"
    x-height="999"
    cap-height="1413"
    bbox="-922 -512 2587 2249"
    underline-thickness="82"
    underline-position="-182"
    unicode-range="U+0020-FB02"
  />
<missing-glyph horiz-adv-x="1167" 
d="M174 0v954h819v-954h-819zM276 102h615v750h-615v-750z" />
    <glyph glyph-name="fi" unicode="fi" horiz-adv-x="971" 
d="M180 897h-145v102h147q0 191 79.5 313t273.5 122q86 0 147.5 -30.5t124.5 -92.5l-70 -80q-55 58 -104.5 79t-102.5 21q-131 0 -183 -91.5t-52 -240.5h502v-999h-111v897h-391v-897h-115v897z" />
    <glyph glyph-name="fl" unicode="fl" horiz-adv-x="977" 
d="M729.5 11.5q-27.5 31.5 -35.5 78t-8 113.5v1059q-2 14 -24 29.5t-59 26.5t-81 11q-83 0 -132 -17.5t-72 -60t-23 -116.5v-136h227v-102h-227v-897h-115v897h-145v102h147v156q0 139 89 209t239 70q63 0 133 -25.5t156 -103.5v-1153q0 -20 1.5 -29.5t10.5 -16t29 -6.5
q15 0 35.5 4t37.5 9v-113q12 1 -4 -4.5t-43.5 -10.5t-52.5 -5q-56 0 -83.5 31.5z" />
    <glyph glyph-name="f_f_i" unicode="ffi" horiz-adv-x="1483" 
d="M1319 999v-999h-111v897h-395v-897h-115v897h-409v-897h-119v897h-135v102h137v136q0 87 41 155t112.5 106t159.5 38q78 0 149 -27.5t128 -83.5q42 47 113.5 79t150.5 32q67 0 141 -29.5t148 -87.5l-57 -85q-8 12 -39 36t-80.5 43.5t-108.5 19.5q-61 0 -110.5 -24
t-78 -69.5t-28.5 -107.5v-131h506zM707 1237q-6 13 -34 35.5t-74.5 40.5t-104.5 18q-95 0 -150 -53.5t-55 -147.5v-131h411v136q0 61 7 102zM1258.5 1230.5q-0.5 -0.5 -1.5 0.5l1 1q1 -1 0.5 -1.5z" />
    <glyph glyph-name="f_f_l" unicode="ffl" horiz-adv-x="1487" 
d="M1248 1q-27 21 -33.5 49t-6.5 65v1134q-17 34 -64 58t-100 24q-62 0 -108.5 -26.5t-72 -74.5t-25.5 -110v-121h161v-102h-161v-897h-115v897h-434v-897h-119v897h-135v102h137v123q0 87 41 158.5t114 112.5t165 41q102 0 169.5 -32.5t124.5 -80.5q46 53 105 83t151 30
q59 0 99.5 -10.5t81 -37t96.5 -79.5v-1151q0 -6 -0.5 -23.5t8.5 -25t31 -7.5q36 0 69 13v-113q-20 -8 -46.5 -14t-49.5 -6q-56 0 -83 21zM725 999q0 95 1.5 146t8.5 76q-34 44 -90 77t-133 33q-63 0 -114 -24.5t-80 -71t-29 -111.5v-125h436z" />
    <glyph glyph-name=".notdef" horiz-adv-x="1167" 
d="M174 0v954h819v-954h-819zM276 102h615v750h-615v-750z" />
    <glyph glyph-name=".null" horiz-adv-x="0" 
 />
    <glyph glyph-name="nonmarkingreturn" horiz-adv-x="682" 
 />
    <glyph glyph-name="space" unicode=" " horiz-adv-x="553" 
 />
    <glyph glyph-name="exclam" unicode="!" horiz-adv-x="629" 
d="M266 369l-28 1067h153l-29 -1067h-96zM225 0v176h178v-176h-178z" />
    <glyph glyph-name="quotedbl" unicode="&#x22;" horiz-adv-x="895" 
d="M244 1014v399h116v-399h-116zM532 1014v399h119v-399h-119z" />
    <glyph glyph-name="numbersign" unicode="#" horiz-adv-x="1364" 
d="M266 0l90 444h-241v99h262l69 350h-249v92h270l94 449h103l-95 -437h338l92 437h103l-92 -445h241v-96h-260l-71 -350h249v-92h-270l-92 -451h-102l92 436h-338l-90 -436h-103zM479 543h338l70 350h-336z" />
    <glyph glyph-name="dollar" unicode="$" horiz-adv-x="1110" 
d="M512 -12q-105 9 -194 55.5t-149 127.5t-77 191l129 39q10 -94 59.5 -158.5t125.5 -97t165 -32.5q133 0 214 67t81 197q0 86 -44 145.5t-108 97t-175 86.5q-116 51 -186 93t-118.5 110t-48.5 168q0 97 42.5 173.5t116.5 122.5t167 57v229h84v-227q237 -18 346 -220
l-102 -71q-45 85 -119.5 128.5t-161.5 43.5q-62 0 -116.5 -27t-87.5 -77t-33 -115q0 -80 41.5 -135t103.5 -90.5t167 -81.5q121 -53 193 -97t123 -117.5t51 -183.5q0 -117 -52.5 -207.5t-144.5 -141.5t-208 -54v-232h-84v234z" />
    <glyph glyph-name="percent" unicode="%" horiz-adv-x="1585" 
d="M244 860.5q-54 47.5 -77.5 118.5t-23.5 143q0 74 23.5 146t76 120t134.5 48q78 0 132 -45t80.5 -116.5t26.5 -152.5q0 -79 -26 -150t-78.5 -115t-128.5 -44q-85 0 -139 47.5zM358 8l744 1387h112l-743 -1387h-113zM461.5 929.5q31.5 34.5 46 87t14.5 107.5q0 56 -15 108
t-47.5 86t-82.5 34t-83 -34t-48 -86.5t-15 -109.5q0 -56 15 -107.5t49 -85.5t86 -34q49 0 80.5 34.5zM1071.5 53q-53.5 47 -77 117t-23.5 143t23 144t75.5 118.5t134.5 47.5q77 0 131.5 -44.5t81.5 -116t27 -151.5q0 -79 -26 -148.5t-79 -113t-129 -43.5q-85 0 -138.5 47z
M1289.5 122.5q32.5 34.5 47.5 86t15 104.5q0 56 -15 107.5t-48.5 85t-84.5 33.5q-50 0 -82.5 -33.5t-47.5 -85t-15 -107.5q0 -55 15 -106.5t48.5 -85t85.5 -33.5q49 0 81.5 34.5z" />
    <glyph glyph-name="ampersand" unicode="&#x26;" horiz-adv-x="1374" 
d="M1176 -49l-201 238q-79 -100 -191.5 -154.5t-255.5 -54.5q-110 0 -198 35t-139.5 106t-51.5 174q0 104 48.5 188t122.5 147t183 134q-86 105 -140 193.5t-54 170.5q0 92 44.5 160.5t120 105t165.5 36.5q84 0 153.5 -39t109.5 -108t40 -155q0 -81 -38.5 -149t-99.5 -121.5
t-151 -114.5l319 -376q61 131 82 323l107 -12q-22 -233 -115 -399l219 -259zM577 818q83 54 137.5 98.5t88 97.5t33.5 114q0 56 -29 100.5t-76.5 69.5t-99.5 25q-58 0 -110 -22.5t-85 -67.5t-33 -107q0 -111 174 -308zM905 271l-349 414q-100 -65 -164.5 -118t-106 -120
t-41.5 -148q0 -105 84 -155t204 -50q243 0 373 177z" />
    <glyph glyph-name="quotesingle" unicode="'" horiz-adv-x="604" 
d="M244 1042v400h116v-400h-116z" />
    <glyph glyph-name="parenleft" unicode="(" horiz-adv-x="557" 
d="M246.5 198.5q-54.5 126.5 -83 262.5t-28.5 244q0 114 25 241t78 251t133 222h106q-114 -153 -175.5 -340t-61.5 -377q0 -183 60 -372t175 -338h-102q-72 80 -126.5 206.5z" />
    <glyph glyph-name="parenright" unicode=")" horiz-adv-x="557" 
d="M255.5 334.5q61.5 193.5 61.5 370.5t-65 372t-172 342h104q119 -140 178.5 -332.5t59.5 -379.5q0 -112 -29 -249t-83 -263t-126 -203h-102q112 149 173.5 342.5z" />
    <glyph glyph-name="asterisk" unicode="*" horiz-adv-x="860" 
d="M303 854l-76 59l176 207l-253 43l28 99l236 -105l-31 256h92l-31 -256l236 105l31 -99l-256 -43l178 -207l-78 -59l-127 238z" />
    <glyph glyph-name="plus" unicode="+" horiz-adv-x="1268" 
d="M586 106v472h-457v96h457v469h96v-469h457v-96h-457v-472h-96z" />
    <glyph glyph-name="comma" unicode="," horiz-adv-x="618" 
d="M150 -332l145 596h172l-242 -596h-75z" />
    <glyph glyph-name="hyphen" unicode="-" horiz-adv-x="827" 
d="M166 596v96h496v-96h-496z" />
    <glyph glyph-name="period" unicode="." horiz-adv-x="666" 
d="M240 0v176h186v-176h-186z" />
    <glyph glyph-name="slash" unicode="/" horiz-adv-x="926" 
d="M23 -430l747 1946h133l-745 -1946h-135z" />
    <glyph glyph-name="zero" unicode="0" horiz-adv-x="1147" 
d="M288 89.5q-115 109.5 -167 275.5t-52 342q0 177 50.5 343.5t163 276t286.5 109.5q163 0 278.5 -103t174.5 -270.5t59 -360.5q0 -190 -57.5 -355t-170.5 -266t-270 -101q-180 0 -295 109.5zM786 195.5q81 95.5 116 235t35 278.5q0 143 -35.5 280t-118 229.5t-214.5 92.5
t-215 -92.5t-118.5 -230.5t-35.5 -281t36 -281.5t120.5 -232t220.5 -93.5q128 0 209 95.5z" />
    <glyph glyph-name="one" unicode="1" horiz-adv-x="1147" 
d="M587 1100h-379v108h213q85 0 132.5 51t47.5 130v24h121v-1413h-135v1100z" />
    <glyph glyph-name="two" unicode="2" horiz-adv-x="1147" 
d="M88 127q128 81 215.5 149t137.5 116.5t108 111.5q140 150 209 271.5t69 254.5q0 93 -33 156.5t-90.5 95t-132.5 31.5q-129 0 -207 -92.5t-88 -257.5l-133 14q0 148 52.5 250.5t147 153.5t222.5 51q126 0 217.5 -49.5t140 -139.5t48.5 -211q0 -105 -37.5 -202
t-110.5 -194.5t-190 -215.5q-120 -121 -195 -180.5t-156 -111.5q-5 -3 -11.5 -7t-14.5 -10h784v-111h-952v127z" />
    <glyph glyph-name="three" unicode="3" horiz-adv-x="1147" 
d="M314 26q-105 46 -166 137.5t-61 223.5l120 14q0 -95 47.5 -164.5t126.5 -106t170 -36.5q88 0 166.5 35t127 104.5t48.5 165.5q0 95 -44 161t-117.5 98t-161.5 32h-84v119h84q72 0 127.5 29t87 85t31.5 134q0 80 -37 139t-98.5 90t-133.5 31q-75 0 -137 -32t-99 -90.5
t-38 -135.5l-119 16q0 111 51.5 192.5t141 124t200.5 42.5q109 0 198 -43.5t141.5 -125.5t52.5 -192q0 -100 -45.5 -182.5t-131.5 -130.5q123 -38 186 -134.5t66 -228.5q0 -134 -60.5 -228t-165.5 -141.5t-237 -47.5t-237 46z" />
    <glyph glyph-name="four" unicode="4" horiz-adv-x="1147" 
d="M703 0v393h-651v76l660 944h123v-909h225v-111h-225v-393h-132zM204 504h499v706z" />
    <glyph glyph-name="five" unicode="5" horiz-adv-x="1147" 
d="M361 30q-93 50 -154 136.5t-85 195.5l117 44q27 -132 103.5 -224t224.5 -92q107 0 180.5 52.5t109.5 136.5t36 178q0 92 -35 171.5t-105 128t-170 48.5q-94 0 -172.5 -42.5t-126.5 -119.5l-112 66l120 704h676v-115h-575l-82 -503q57 64 133.5 90t155.5 26
q129 0 227.5 -62t151.5 -166t53 -226q0 -129 -59 -238.5t-164 -174t-238 -64.5q-117 0 -210 50z" />
    <glyph glyph-name="six" unicode="6" horiz-adv-x="1147" 
d="M350.5 42.5q-104.5 62.5 -165 169t-60.5 232.5q0 131 66 244l409 725h144l-314 -541q74 17 150 17q126 0 230 -57.5t164.5 -158.5t60.5 -227q0 -123 -59 -230.5t-163 -171.5t-233 -64q-125 0 -229.5 62.5zM744.5 145q75.5 47 119.5 126.5t44 172.5q0 94 -44 173.5
t-119.5 126.5t-164.5 47t-164.5 -47t-119.5 -126.5t-44 -173.5q0 -93 44 -172.5t119.5 -126.5t164.5 -47t164.5 47z" />
    <glyph glyph-name="seven" unicode="7" horiz-adv-x="1147" 
d="M276 0l601 1298h-768v115h919v-65l-604 -1348h-148z" />
    <glyph glyph-name="eight" unicode="8" horiz-adv-x="1147" 
d="M339 26q-105 46 -167 137.5t-62 221.5q0 132 67 229t193 148q-89 46 -138.5 128.5t-49.5 184.5q0 111 52.5 192t142 124t198.5 43q108 0 196.5 -43t140.5 -124t52 -192q0 -102 -48 -184t-136 -129q121 -48 188.5 -147t67.5 -230t-62 -222.5t-167 -137t-234 -45.5t-234 46
zM710 830.5q60 31.5 95.5 90t35.5 136.5q0 82 -36 142t-96 91t-132 31q-67 0 -127.5 -29.5t-98.5 -86.5t-38 -134q0 -81 33.5 -142.5t94 -95.5t138.5 -34q71 0 131 31.5zM735 123q75 35 121 105t46 169q0 96 -45 165.5t-120 106t-164 36.5q-91 0 -167 -36t-121.5 -106
t-45.5 -166q0 -99 47 -169t123.5 -105t163.5 -35t162 35z" />
    <glyph glyph-name="nine" unicode="9" horiz-adv-x="1147" 
d="M716 541q-70 -17 -149 -17q-126 0 -230 58t-164.5 159t-60.5 226q0 123 58.5 230.5t163 172t235.5 64.5q124 0 227.5 -62.5t164 -169.5t60.5 -233q0 -131 -63 -244l-412 -725h-139zM731.5 669.5q75.5 46.5 119 126t43.5 173.5q0 93 -44 172.5t-119 126.5t-164 47
q-90 0 -165 -47t-119 -126.5t-44 -172.5q0 -94 44 -173.5t119 -126t165 -46.5q89 0 164.5 46.5z" />
    <glyph glyph-name="colon" unicode=":" horiz-adv-x="670" 
d="M246 778v176h178v-176h-178zM246 0v176h178v-176h-178z" />
    <glyph glyph-name="semicolon" unicode=";" horiz-adv-x="649" 
d="M260 778v176h178v-176h-178zM132 -332l145 596h172l-242 -596h-75z" />
    <glyph glyph-name="less" unicode="&#x3c;" horiz-adv-x="1204" 
d="M993 174l-876 500l876 500l60 -103l-723 -397l723 -398z" />
    <glyph glyph-name="equal" unicode="=" horiz-adv-x="1262" 
d="M260 780v119h741v-119h-741zM260 444v119h741v-119h-741z" />
    <glyph glyph-name="greater" unicode="&#x3e;" horiz-adv-x="1204" 
d="M211 174l-59 102l722 398l-722 397l59 103l876 -500z" />
    <glyph glyph-name="question" unicode="?" horiz-adv-x="1026" 
d="M446 614q0 65 22.5 107.5t55 67t87.5 54.5q56 31 89.5 56t56.5 69.5t23 112.5q0 117 -77 177.5t-197 60.5q-70 0 -133 -28t-102 -82.5t-40 -129.5h-127q1 106 55.5 187t144.5 124.5t194 43.5q114 0 206.5 -41t146.5 -121.5t54 -192.5q0 -86 -28 -142.5t-68 -88
t-104 -67.5q-49 -28 -76 -47.5t-45.5 -49.5t-18.5 -72v-247h-119v249zM420 0v176h178v-176h-178z" />
    <glyph glyph-name="at" unicode="@" horiz-adv-x="2079" 
d="M593.5 -244.5q-198.5 103.5 -315 299t-116.5 459.5q0 258 112 467.5t314.5 330t464.5 120.5q254 0 451.5 -113t307 -311t109.5 -445q0 -160 -47.5 -299t-147 -225t-247.5 -86q-124 0 -195.5 61t-71.5 167q0 23 5 55q-57 -77 -143.5 -120.5t-180.5 -43.5q-100 0 -169 49.5
t-103.5 133t-34.5 185.5q0 136 56.5 273.5t160.5 228t239 90.5q70 0 127.5 -25t95.5 -71t48 -107l30 154h138q-12 -62 -51 -218q-48 -198 -71.5 -315.5t-23.5 -203.5q0 -83 30.5 -117.5t104.5 -34.5q118 0 189.5 71t101 177.5t29.5 222.5q0 212 -92.5 380.5t-260 264
t-384.5 95.5q-226 0 -399 -103.5t-267 -283t-94 -400.5q0 -228 99.5 -393t268 -250.5t373.5 -85.5q128 0 250 39l49 -125q-73 -26 -145 -38.5t-156 -12.5q-240 0 -438.5 103.5zM1103.5 280.5q80.5 71.5 121.5 178.5t41 209q0 107 -49 167t-150 60q-112 0 -192.5 -71
t-122 -177.5t-41.5 -208.5q0 -107 49.5 -168t150.5 -61q112 0 192.5 71.5z" />
    <glyph glyph-name="A" unicode="A" horiz-adv-x="1296" 
d="M76 0l522 1413h104l519 -1413h-144l-108 307h-639l-107 -307h-147zM375 434h549l-273 780z" />
    <glyph glyph-name="B" unicode="B" horiz-adv-x="1235" 
d="M219 1413h367q122 0 224 -35t165 -111.5t63 -195.5q0 -117 -49 -194.5t-139 -131.5q124 -56 191 -142t67 -234q0 -198 -128 -283.5t-318 -85.5h-443v1413zM580 778q90 0 160 29.5t110.5 90.5t40.5 151q0 138 -81.5 190.5t-221.5 52.5h-238v-514h230zM666 123
q309 0 309 250q0 282 -303 282h-322v-532h316z" />
    <glyph glyph-name="C" unicode="C" horiz-adv-x="1417" 
d="M410.5 76.5q-138.5 96.5 -207 262t-68.5 372.5q0 204 67.5 367.5t209.5 260.5t356 97q199 0 340 -90t211 -279l-123 -55q-42 159 -163 230t-273 71q-170 0 -280.5 -82t-161 -217.5t-50.5 -302.5q0 -169 51.5 -306.5t163 -220t281.5 -82.5q149 0 262.5 71.5t171.5 232.5
l123 -56q-79 -178 -224 -274t-345 -96q-203 0 -341.5 96.5z" />
    <glyph glyph-name="D" unicode="D" horiz-adv-x="1405" 
d="M219 1413h348q226 0 384.5 -82.5t240.5 -243t82 -391.5q0 -222 -83 -378t-242 -237t-384 -81h-346v1413zM541 123q171 0 306 64.5t213.5 196t78.5 323.5q0 282 -147 434.5t-429 152.5h-209v-1171h187z" />
    <glyph glyph-name="E" unicode="E" horiz-adv-x="1237" 
d="M219 0v1413h909v-113h-774v-538h662v-109h-662v-532h774v-121h-909z" />
    <glyph glyph-name="F" unicode="F" horiz-adv-x="1186" 
d="M219 0v1413h883v-113h-748v-538h660v-109h-660v-653h-135z" />
    <glyph glyph-name="G" unicode="G" horiz-adv-x="1503" 
d="M412 76.5q-140 96.5 -208.5 261t-68.5 369.5q0 203 69.5 368.5t209.5 263t342 97.5q196 0 339.5 -94.5t223.5 -274.5l-125 -55q-69 142 -180 217.5t-260 75.5q-165 0 -274 -79.5t-160.5 -212.5t-51.5 -296q0 -171 51.5 -308t161.5 -218.5t277 -81.5q127 0 231.5 57
t166 167.5t61.5 264.5h-324v104h448v-702h-114l4 272q-28 -77 -92.5 -143.5t-162.5 -107.5t-218 -41q-206 0 -346 96.5z" />
    <glyph glyph-name="H" unicode="H" horiz-adv-x="1446" 
d="M219 0v1413h135v-651h738v651h135v-1413h-135v653h-738v-653h-135z" />
    <glyph glyph-name="I" unicode="I" horiz-adv-x="573" 
d="M219 0v1413h135v-1413h-135z" />
    <glyph glyph-name="J" unicode="J" horiz-adv-x="1114" 
d="M283 33.5q-91 53.5 -142 145.5t-59 206l131 18q5 -80 36.5 -149.5t93.5 -113.5t153 -44q113 0 176 50.5t86.5 134t23.5 198.5v821h-532v113h668v-913q0 -250 -101 -385t-321 -135q-122 0 -213 53.5z" />
    <glyph glyph-name="K" unicode="K" horiz-adv-x="1442" 
d="M219 0v1413h135v-852l805 852h170l-526 -551l565 -862h-160l-493 768l-361 -373v-395h-135z" />
    <glyph glyph-name="L" unicode="L" horiz-adv-x="1030" 
d="M219 0v1413h135v-1292h604v-121h-739z" />
    <glyph glyph-name="M" unicode="M" horiz-adv-x="1753" 
d="M219 0v1413h238l415 -1167l424 1167h238v-1413h-135v1331l-445 -1208h-155l-443 1208v-1331h-137z" />
    <glyph glyph-name="N" unicode="N" horiz-adv-x="1409" 
d="M219 0v1413h223l613 -1309v1309h135v-1413h-227l-607 1311v-1311h-137z" />
    <glyph glyph-name="O" unicode="O" horiz-adv-x="1511" 
d="M412 77q-140 97 -209.5 262t-69.5 368q0 202 69.5 367t209.5 262.5t342 97.5q204 0 344.5 -97.5t210 -262t69.5 -367.5t-69.5 -368t-210 -262t-344.5 -97q-202 0 -342 97zM1035 188.5q112 82.5 165 218.5t53 300q0 163 -53 299t-165 218.5t-281 82.5q-166 0 -277 -82.5
t-164 -218.5t-53 -299q0 -164 53 -300t164 -218.5t277 -82.5q169 0 281 82.5z" />
    <glyph glyph-name="P" unicode="P" horiz-adv-x="1143" 
d="M219 1413h385q134 0 233.5 -46t153 -132.5t53.5 -204.5q0 -121 -53.5 -206.5t-152.5 -129t-234 -43.5h-250v-651h-135v1413zM604 768q147 0 227 66t80 196q0 126 -81 196t-226 70h-250v-528h250z" />
    <glyph glyph-name="Q" unicode="Q" horiz-adv-x="1538" 
d="M1143 106q-146 -126 -389 -126q-202 0 -342 97t-209.5 262t-69.5 368q0 202 69.5 367t209.5 262.5t342 97.5q204 0 344.5 -97t210 -261.5t69.5 -368.5q0 -153 -39.5 -287t-119.5 -232l192 -198l-78 -82zM919 123q71 23 132 70l-201 210l74 84l204 -211q58 83 86.5 195
t28.5 236q0 165 -50.5 302t-160 220.5t-278.5 83.5q-166 0 -275 -83.5t-160 -221t-51 -301.5q0 -165 51 -302.5t160 -221t275 -83.5q94 0 165 23z" />
    <glyph glyph-name="R" unicode="R" horiz-adv-x="1208" 
d="M219 1411h391q123 0 221.5 -47t154.5 -135t56 -205q0 -95 -37.5 -172t-107 -127t-162.5 -66l381 -661h-160l-354 641h-248v-641h-135v1413zM637 770q123 6 198.5 72t75.5 184q0 84 -38.5 144t-106 91t-154.5 31h-256v-522h281z" />
    <glyph glyph-name="S" unicode="S" 
d="M350 25.5q-101 41.5 -170 124.5t-88 202l123 39q10 -93 60.5 -158t126.5 -97t165 -32q137 0 218 67.5t81 203.5q0 87 -44 147.5t-109 99t-175 87.5q-116 52 -186 94t-118 111t-48 169q0 102 49.5 182t134 124.5t185.5 44.5q125 0 222 -53t161 -160l-96 -68
q-43 83 -119 124.5t-168 41.5q-63 0 -118 -27t-88.5 -77t-33.5 -117q0 -71 39.5 -122.5t98.5 -86.5t162 -83q122 -56 198 -103.5t129 -125.5t53 -192q0 -120 -55.5 -211t-152.5 -140.5t-220 -49.5q-116 0 -217 41.5z" />
    <glyph glyph-name="T" unicode="T" horiz-adv-x="1247" 
d="M555 0v1307h-485v106h1108v-106h-486v-1307h-137z" />
    <glyph glyph-name="U" unicode="U" horiz-adv-x="1346" 
d="M400.5 54q-107.5 74 -157.5 194t-50 262v903h135v-854q0 -206 79.5 -329.5t264.5 -123.5t266.5 124t81.5 329v854h135v-893q0 -146 -51 -268.5t-159.5 -197t-272.5 -74.5t-271.5 74z" />
    <glyph glyph-name="V" unicode="V" horiz-adv-x="1319" 
d="M600 0l-524 1413h137l449 -1253l448 1253h133l-520 -1413h-123z" />
    <glyph glyph-name="W" unicode="W" horiz-adv-x="1966" 
d="M477 0l-391 1413h137l344 -1263l361 1181h110l363 -1181l342 1263h137l-391 -1413h-156l-346 1112l-354 -1112h-156z" />
    <glyph glyph-name="X" unicode="X" horiz-adv-x="1239" 
d="M84 0l467 707l-465 706h160l375 -596l376 596h156l-461 -706l463 -707h-156l-381 586l-374 -586h-160z" />
    <glyph glyph-name="Y" unicode="Y" horiz-adv-x="1315" 
d="M594 0v553l-528 860h155l436 -719l439 719h153l-526 -860v-553h-129z" />
    <glyph glyph-name="Z" unicode="Z" horiz-adv-x="1274" 
d="M94 0v111l922 1189h-877v113h1030v-117l-917 -1173h917v-123h-1075z" />
    <glyph glyph-name="bracketleft" unicode="[" horiz-adv-x="631" 
d="M211 -76v1563h344v-74h-236v-1413h236v-76h-344z" />
    <glyph glyph-name="backslash" unicode="\" horiz-adv-x="926" 
d="M770 -430l-747 1946h135l745 -1946h-133z" />
    <glyph glyph-name="bracketright" unicode="]" horiz-adv-x="631" 
d="M76 -76v76h235v1413h-235v74h344v-1563h-344z" />
    <glyph glyph-name="asciicircum" unicode="^" horiz-adv-x="973" 
d="M139 848l346 563l351 -563h-138l-213 342l-209 -342h-137z" />
    <glyph glyph-name="underscore" unicode="_" horiz-adv-x="1233" 
d="M236 -96v96h761v-96h-761z" />
    <glyph glyph-name="grave" unicode="`" horiz-adv-x="537" 
d="M311 1126l-245 287h176l215 -287h-146z" />
    <glyph glyph-name="a" unicode="a" horiz-adv-x="1016" 
d="M233.5 15q-71.5 35 -111.5 100.5t-40 154.5q0 295 450 295h222q0 164 -60 255t-198 91q-175 0 -287 -153l-90 71q137 191 366 191q123 0 208.5 -50t129 -141.5t43.5 -214.5v-614h-108v205q-50 -112 -147 -168.5t-214 -56.5q-92 0 -163.5 35zM593 143.5q78 57.5 119.5 146
t41.5 177.5h-207q-171 0 -252.5 -45t-81.5 -154q0 -94 54.5 -138t142.5 -44q105 0 183 57.5z" />
    <glyph glyph-name="b" unicode="b" horiz-adv-x="1116" 
d="M299 145v-145h-123v1413h123v-559q111 166 317 166q124 0 213.5 -69t136 -187.5t46.5 -263.5q0 -146 -46.5 -264t-136 -187t-213.5 -69q-209 0 -317 165zM752 140q68 58 101.5 153.5t33.5 206.5q0 110 -33.5 205.5t-101.5 154t-168 58.5t-166 -58.5t-97.5 -153.5
t-31.5 -206q0 -112 31.5 -207t97.5 -153t166 -58t168 58z" />
    <glyph glyph-name="c" unicode="c" horiz-adv-x="967" 
d="M292.5 51q-95.5 71 -144 189t-48.5 258q0 139 48.5 258t143.5 191.5t228 72.5q129 0 227 -69t152 -189l-119 -53q-22 95 -94 152t-166 57q-102 0 -167.5 -62.5t-94.5 -158.5t-29 -199q0 -105 29 -199.5t94 -155.5t168 -61q96 0 167 56t93 149l107 -49q-44 -122 -139 -190
t-226 -68q-134 0 -229.5 71z" />
    <glyph glyph-name="d" unicode="d" horiz-adv-x="1118" 
d="M942 1413v-1413h-125v146q-55 -78 -130.5 -122t-188.5 -44q-121 0 -210.5 69t-136.5 187.5t-47 263.5t47 263.5t136.5 187.5t210.5 69q209 0 319 -166v559h125zM698 140q67 58 98 152.5t31 207.5q0 112 -31 206.5t-98 153t-168 58.5q-99 0 -166 -58.5t-99 -153.5
t-32 -206q0 -112 32 -207t99 -153t166 -58q101 0 168 58z" />
    <glyph glyph-name="e" unicode="e" horiz-adv-x="1030" 
d="M296.5 56q-98.5 68 -147.5 182.5t-49 255.5q0 139 48.5 257t143 189.5t228.5 71.5q150 0 242.5 -69.5t132 -178.5t39.5 -236q0 -35 -4 -71h-699q-3 -98 31.5 -180t104 -131.5t168.5 -49.5q96 0 164.5 23.5t125.5 83.5l86 -66q-81 -79 -168.5 -114t-205.5 -35
q-142 0 -240.5 68zM815 565q0 90 -28.5 167.5t-94.5 127t-172 49.5q-92 0 -156.5 -47t-97 -125t-35.5 -172h584z" />
    <glyph glyph-name="f" unicode="f" horiz-adv-x="676" 
d="M217 897h-182v102h182v177q0 85 34.5 143t92.5 86.5t131 28.5q84 0 160 -37l-25 -99q-71 33 -127 33q-66 0 -104.5 -40.5t-38.5 -119.5v-172h301v-102h-301v-897h-123v897z" />
    <glyph glyph-name="g" unicode="g" horiz-adv-x="1018" 
d="M731 81.5q81 -21.5 138 -78t57 -161.5q0 -96 -54 -163t-142.5 -100.5t-192.5 -33.5q-123 0 -219 45t-149.5 121.5t-53.5 169.5q0 23 2 37l154 158q-134 70 -134 207q0 44 15 83t53 73q-41 44 -62.5 101t-21.5 126q0 103 47.5 181.5t130.5 121.5t186 43q80 0 147.5 -27
t115.5 -75l151 139l74 -95l-165 -128q36 -75 36 -160q0 -104 -47 -180.5t-129 -117t-185 -40.5t-187 42q-22 -18 -34 -38t-12 -45q0 -75 70 -111.5t188 -52.5q142 -20 223 -41.5zM359 878q-53 -33 -82 -88.5t-29 -119.5q0 -71 29 -125t81.5 -83.5t122.5 -29.5t123.5 29.5
t83 83.5t29.5 125q0 66 -29.5 121t-83 87.5t-123.5 32.5q-69 0 -122 -33zM681 -318.5q61 19.5 98.5 58.5t37.5 96q0 58 -35.5 90t-89 46t-150.5 29l-67 11q-56 10 -104 24l-135 -157q-2 -53 35 -103t109.5 -82t170.5 -32q69 0 130 19.5z" />
    <glyph glyph-name="h" unicode="h" horiz-adv-x="1112" 
d="M176 1413h123v-590q48 85 140 139t194 54q112 0 185.5 -52.5t108 -142t34.5 -200.5v-621h-127v598q0 126 -49 212.5t-171 86.5q-88 0 -160 -48t-113.5 -128.5t-41.5 -173.5v-547h-123v1413z" />
    <glyph glyph-name="i" unicode="i" horiz-adv-x="477" 
d="M164 1229v184h149v-184h-149zM176 0v999h125v-999h-125z" />
    <glyph glyph-name="j" unicode="j" horiz-adv-x="481" 
d="M166 1237v176h149v-176h-149zM-13 -429q-42 9 -75 21l25 89q21 -7 57 -12t65 -5q63 0 90 42.5t27 103.5v1189h129v-1167q0 -126 -60.5 -198t-187.5 -72q-28 0 -70 9z" />
    <glyph glyph-name="k" unicode="k" horiz-adv-x="1030" 
d="M176 0v1413h127v-983l463 569h154l-314 -362l385 -637h-149l-310 547l-229 -254v-293h-127z" />
    <glyph glyph-name="l" unicode="l" horiz-adv-x="504" 
d="M222.5 5.5q-32.5 25.5 -41.5 64t-9 97.5v36v1210h127v-1272v-17.5t9.5 -19t31.5 -16.5q54 0 104 10v-98q-21 -8 -54.5 -14t-67.5 -6q-67 0 -99.5 25.5z" />
    <glyph glyph-name="m" unicode="m" horiz-adv-x="1688" 
d="M174 999h127v-168q18 50 58.5 93.5t97 69.5t121.5 26q113 0 195.5 -54.5t115.5 -162.5q45 105 122 161t183 56q118 0 194.5 -54.5t112 -147t35.5 -210.5v-608h-127v598q0 130 -51.5 225t-175.5 95q-82 0 -142 -53t-91 -137t-31 -173v-555h-127v602q0 131 -50 223.5
t-174 92.5q-83 0 -143.5 -59t-91.5 -152t-31 -193v-514h-127v999z" />
    <glyph glyph-name="n" unicode="n" horiz-adv-x="1108" 
d="M174 999h125v-188q50 95 133 150t197 55q111 0 184.5 -54t108 -146t34.5 -208v-608h-125v598q0 128 -54 221.5t-181 93.5q-83 0 -150.5 -46t-107 -136t-39.5 -219v-512h-125v999z" />
    <glyph glyph-name="o" unicode="o" horiz-adv-x="1116" 
d="M316 50.5q-105 70.5 -163.5 190t-58.5 261.5t58.5 260.5t163.5 188t239 69.5t240.5 -69.5t166.5 -188.5t60 -260q0 -142 -60 -261.5t-166.5 -190t-240.5 -70.5t-239 70.5zM745 141.5q77 59.5 114.5 155.5t37.5 205t-37.5 204t-113.5 153.5t-187 58.5q-110 0 -187 -58.5
t-115 -153.5t-38 -204q0 -110 38 -206t114.5 -155t185.5 -59q111 0 188 59.5z" />
    <glyph glyph-name="p" unicode="p" horiz-adv-x="1118" 
d="M176 999h125v-145q50 77 129.5 121.5t181.5 44.5q128 0 219 -68.5t137 -186.5t46 -265q0 -146 -46 -264t-136.5 -187t-219.5 -69q-100 0 -179.5 43t-131.5 122v-583h-125v1437zM755.5 140q67.5 58 100.5 153.5t33 206.5t-33 206t-100.5 153.5t-167.5 58.5
q-101 0 -168 -58.5t-99 -153.5t-32 -206q0 -112 32 -207t99 -153t168 -58q100 0 167.5 58z" />
    <glyph glyph-name="q" unicode="q" horiz-adv-x="1120" 
d="M817 145q-51 -75 -128 -120t-183 -45q-127 0 -218 68.5t-137.5 186.5t-46.5 265q0 146 46.5 264.5t137.5 187t218 68.5q101 0 181 -44t130 -122v145h127v-1437h-127v583zM698.5 140.5q66.5 58.5 97.5 153t31 206.5t-31 206.5t-97.5 153t-166.5 58.5t-167.5 -58
t-99.5 -153t-32 -207t32 -207t99.5 -153t167.5 -58t166.5 58.5z" />
    <glyph glyph-name="r" unicode="r" horiz-adv-x="791" 
d="M174 999h127v-180q40 92 122 146.5t179 54.5q87 0 156 -47l-51 -111q-44 39 -125 39q-137 0 -210 -101t-73 -282v-518h-125v999z" />
    <glyph glyph-name="s" unicode="s" horiz-adv-x="858" 
d="M282.5 12.5q-73.5 32.5 -124.5 87t-74 119.5l109 60q28 -90 94 -143.5t164 -53.5q89 0 146.5 44.5t57.5 131.5q0 67 -34.5 109t-84.5 65.5t-137 52.5q-93 31 -149 58t-94.5 77.5t-38.5 131.5q0 83 41 144t110 92.5t152 31.5q108 0 189.5 -52.5t125.5 -142.5l-90 -53
q-34 71 -92 108.5t-137 37.5q-85 0 -136 -42t-51 -110q0 -53 31 -87.5t77.5 -55t126.5 -45.5q101 -32 162.5 -61.5t105.5 -87t44 -150.5q0 -96 -46 -163.5t-122 -101.5t-164 -34t-161.5 32.5z" />
    <glyph glyph-name="t" unicode="t" horiz-adv-x="653" 
d="M259.5 53q-50.5 73 -50.5 209v635h-160v102h160v220l125 131v-351h254v-102h-254v-647q0 -82 36 -126t95 -44q41 0 90 22v-104q-16 -7 -49 -12.5t-74 -5.5q-122 0 -172.5 73z" />
    <glyph glyph-name="u" unicode="u" 
d="M232.5 96q-82.5 119 -82.5 310v593h124v-604q0 -129 49 -222t169 -93q84 0 156.5 48.5t115.5 127.5t43 164v579h123v-999h-123v182q-18 -46 -63 -93.5t-111.5 -79.5t-145.5 -32q-172 0 -254.5 119z" />
    <glyph glyph-name="v" unicode="v" horiz-adv-x="936" 
d="M412 0l-365 999h137l285 -835l287 835h133l-363 -999h-114z" />
    <glyph glyph-name="w" unicode="w" horiz-adv-x="1407" 
d="M332 0l-273 999h134l213 -845l239 845h119l240 -843l210 843h134l-273 -999h-127l-241 850l-248 -850h-127z" />
    <glyph glyph-name="x" unicode="x" horiz-adv-x="893" 
d="M55 0l336 504l-336 495h154l240 -381l241 381h148l-330 -495l330 -504h-148l-241 389l-240 -389h-154z" />
    <glyph glyph-name="y" unicode="y" horiz-adv-x="961" 
d="M260 -430l168 430l-383 999h139l303 -847l291 847h137l-526 -1429h-129z" />
    <glyph glyph-name="z" unicode="z" horiz-adv-x="911" 
d="M831 999v-110l-613 -780h613v-109h-761v100l622 797h-594v102h733z" />
    <glyph glyph-name="braceleft" unicode="{" horiz-adv-x="594" 
d="M319.5 -90.5q-34.5 20.5 -63.5 55.5q-33 42 -33 135v369q0 79 -131 125v104q65 16 98 55.5t33 100.5v428q0 101 46 152t155 51h53l25 1q9 0 14 -1v-72q-22 4 -55 4q-57 0 -88 -17t-31 -52v-506q0 -70 -44 -117.5t-144 -85.5q96 -32 142 -69t46 -97v-364q0 -154 141 -154
q18 0 33 6v-72q-5 -1 -14 -1l-27 1h-72q-49 0 -83.5 20.5z" />
    <glyph glyph-name="bar" unicode="|" horiz-adv-x="621" 
d="M264 -512v2046h92v-2046h-92z" />
    <glyph glyph-name="braceright" unicode="}" horiz-adv-x="594" 
d="M92 -112q-9 0 -14 1v72q18 -6 33 -6q141 0 141 154v364q0 60 48.5 98.5t139.5 67.5q-105 40 -146.5 86.5t-41.5 116.5v506q0 69 -119 69q-31 0 -55 -4v72q5 1 14 1l27 -1h51q109 0 155 -51t46 -152v-428q0 -61 33 -100.5t98 -55.5v-104q-131 -46 -131 -125v-369
q0 -47 -7.5 -83.5t-21.5 -53.5q-32 -37 -65 -55.5t-84 -18.5h-72z" />
    <glyph glyph-name="asciitilde" unicode="~" horiz-adv-x="1161" 
d="M643 405.5q-41 26.5 -91 76.5q-44 44 -75.5 65.5t-70.5 21.5q-57 0 -82 -47t-23 -116h-82q0 106 47 175.5t137 69.5q48 0 85.5 -15t63 -36t59.5 -56q39 -40 67.5 -59.5t66.5 -19.5q58 0 83.5 47.5t25.5 132.5h90q0 -126 -54 -196t-151 -70q-55 0 -96 26.5z" />
    <glyph glyph-name="uni00A0" unicode="&#xa0;" horiz-adv-x="563" 
 />
    <glyph glyph-name="exclamdown" unicode="&#xa1;" horiz-adv-x="627" 
d="M223 823v176h178v-176h-178zM236 -436l28 1067h96l29 -1067h-153z" />
    <glyph glyph-name="cent" unicode="&#xa2;" horiz-adv-x="1139" 
d="M557 -14q-122 12 -207.5 83.5t-128.5 184t-43 244.5t43 244t128.5 184.5t207.5 85.5v188h92v-188q112 -13 201.5 -79t134.5 -171l-131 -55q-14 53 -51 94.5t-88.5 64.5t-108.5 23q-101 0 -166 -57t-94 -146t-29 -188q0 -100 28.5 -189t93.5 -146t167 -57q56 0 108 22.5
t89 64.5t51 96l119 -51q-38 -111 -124 -178t-200 -76v-189h-92v191z" />
    <glyph glyph-name="sterling" unicode="&#xa3;" horiz-adv-x="1251" 
d="M170 96q0 -5 68 62t122 147.5t54 153.5q0 36 -6 77.5t-12.5 71t-8.5 37.5h-215v115h186q0 -3 -14 40t-25.5 98.5t-11.5 111.5q0 114 45.5 210t133 153t208.5 57q127 0 222 -78t141 -201l-109 -41q-33 93 -100 149t-154 56q-84 0 -145.5 -39t-94 -108t-32.5 -156
q0 -54 11.5 -110t25.5 -100.5t14 -41.5h471v-115h-440q2 -8 7 -36.5t10 -69.5t5 -78q0 -88 -40.5 -164.5t-91 -131.5t-50.5 -50h836v-115h-1010v96z" />
    <glyph glyph-name="currency" unicode="&#xa4;" horiz-adv-x="1382" 
d="M236 264l104 103q-45 57 -68.5 125.5t-23.5 140.5q0 71 23.5 138.5t68.5 123.5l-102 100l84 90l102 -106q58 46 127.5 69.5t141.5 23.5q71 0 138.5 -23t124.5 -68l103 102l84 -84l-101 -102q45 -57 68 -125.5t23 -140.5t-23 -140t-68 -126l101 -101l-82 -88l-105 105
q-57 -45 -126 -68.5t-141 -23.5q-71 0 -140 23.5t-127 68.5l-103 -105zM565 331q60 -25 124 -25q63 0 123.5 25t107.5 72q46 46 69.5 105t23.5 122t-24.5 122.5t-70.5 105.5q-47 46 -106 70t-122 24t-123 -24.5t-108 -71.5q-46 -46 -69.5 -105.5t-23.5 -123.5
q0 -62 23 -120.5t68 -103.5q48 -47 108 -72z" />
    <glyph glyph-name="yen" unicode="&#xa5;" horiz-adv-x="1303" 
d="M588 0v322h-299v100h299v119h-299v98h252l-475 774h147l440 -708l439 708h145l-475 -772h254v-100h-301v-119h301v-100h-301v-322h-127z" />
    <glyph glyph-name="brokenbar" unicode="&#xa6;" horiz-adv-x="612" 
d="M264 731v744h84v-744h-84zM264 -307v727h84v-727h-84z" />
    <glyph glyph-name="section" unicode="&#xa7;" horiz-adv-x="1128" 
d="M315 53q-105 71 -147 209l115 41q28 -111 101 -159t185 -48q103 0 174.5 39.5t71.5 138.5q0 54 -33.5 86t-83 48t-137.5 34q-111 24 -179 49t-116.5 81t-48.5 155q0 63 28.5 121t78.5 98q-48 31 -76.5 84t-28.5 113q0 89 47.5 155t125 101t165.5 35q130 0 224 -65.5
t143 -197.5l-123 -28q-49 176 -246 176q-55 0 -106 -19.5t-83 -60t-32 -100.5q0 -50 32 -80t80.5 -45t133.5 -33q111 -22 181.5 -47.5t120.5 -84t50 -161.5q0 -63 -25.5 -119.5t-75.5 -95.5q50 -35 75.5 -86.5t25.5 -114.5q0 -98 -50.5 -163.5t-132.5 -96t-180 -30.5
q-149 0 -254 71zM787.5 592q27.5 45 27.5 104q0 65 -45 104.5t-104 57.5t-144 34q-27 4 -63 13q-59 -23 -92 -69.5t-33 -106.5t45 -97.5t104 -56.5t144 -36q56 -12 73 -17q60 25 87.5 70z" />
    <glyph glyph-name="dieresis" unicode="&#xa8;" horiz-adv-x="831" 
d="M170 1229v184h160v-184h-160zM502 1229v184h160v-184h-160z" />
    <glyph glyph-name="copyright" unicode="&#xa9;" horiz-adv-x="1753" 
d="M503.5 51q-170.5 102 -270.5 276t-100 380q0 205 100 379t270.5 276t373.5 102q201 0 372 -102t271 -276t100 -379q0 -206 -100 -380t-271 -276t-372 -102q-203 0 -373.5 102zM1195.5 140.5q147.5 89.5 235 241t87.5 325.5t-87.5 325t-235 240.5t-318.5 89.5
t-319.5 -89.5t-236.5 -240.5t-88 -325t88 -325.5t236.5 -241t319.5 -89.5t318.5 89.5zM704.5 361q-77.5 52 -116.5 142t-39 202t39 201.5t116.5 141.5t188.5 52q97 0 176.5 -46.5t118.5 -129.5l-92 -39q-28 53 -82.5 83.5t-120.5 30.5q-82 0 -137.5 -40.5t-82 -107.5
t-26.5 -146t26 -145.5t81 -107t137 -40.5q64 0 120 30.5t83 85.5l94 -41q-39 -84 -118 -131t-177 -47q-111 0 -188.5 52z" />
    <glyph glyph-name="ordfeminine" unicode="&#xaa;" horiz-adv-x="823" 
d="M214.5 735q-51.5 26 -82 73.5t-30.5 109.5q0 105 69 155.5t187 50.5h217q0 104 -42.5 163t-135.5 59q-58 0 -106.5 -29.5t-75.5 -71.5l-84 53q52 70 116 103t154 33q131 0 202 -75.5t71 -205.5v-430h-88l-6 125q-47 -72 -107 -105.5t-145 -33.5q-62 0 -113.5 26z
M466.5 835.5q51.5 34.5 80.5 89t28 111.5h-206q-65 0 -108.5 -31.5t-43.5 -86.5q0 -34 20.5 -61t52.5 -41.5t64 -14.5q61 0 112.5 34.5z" />
    <glyph glyph-name="guillemotleft" unicode="&#xab;" horiz-adv-x="965" 
d="M430 193l-354 319l354 317v-149l-197 -168l197 -170v-149zM795 193l-357 319l357 317v-149l-199 -168l199 -170v-149z" />
    <glyph glyph-name="logicalnot" unicode="&#xac;" horiz-adv-x="1280" 
d="M901 291v393h-743v113h860v-506h-117z" />
    <glyph glyph-name="uni00AD" unicode="&#xad;" horiz-adv-x="971" 
d="M166 596v96h639v-96h-639z" />
    <glyph glyph-name="registered" unicode="&#xae;" horiz-adv-x="1753" 
d="M503.5 53q-170.5 102 -270.5 276t-100 380q0 205 100 379t270.5 276t373.5 102q201 0 372 -102t271 -276t100 -379q0 -206 -100 -380t-271 -276t-372 -102q-203 0 -373.5 102zM1200.5 135q149.5 90 237.5 243t88 331t-88 330.5t-237.5 242.5t-323.5 90q-175 0 -325 -90
t-238.5 -242.5t-88.5 -330.5t88.5 -331t238.5 -243t325 -90q174 0 323.5 90zM633 1096h297q256 0 256 -228q0 -96 -48.5 -149.5t-123.5 -65.5l203 -346h-125l-179 338h-174v-338h-106v789zM930 739q160 0 160 129q0 69 -39.5 100t-120.5 31h-201v-260h201z" />
    <glyph glyph-name="macron" unicode="&#xaf;" horiz-adv-x="868" 
d="M162 1192v121h536v-121h-536z" />
    <glyph glyph-name="degree" unicode="&#xb0;" horiz-adv-x="969" 
d="M339 887.5q-67 39.5 -106.5 106.5t-39.5 147t39.5 147t106.5 106.5t146 39.5t145.5 -39.5t106 -106.5t39.5 -147t-39.5 -147t-106 -106.5t-145.5 -39.5t-146 39.5zM592 953.5q49 29.5 78.5 79.5t29.5 108t-29.5 108t-78.5 79.5t-107 29.5t-108 -29.5t-79.5 -79.5
t-29.5 -108t29.5 -108t79.5 -79.5t108 -29.5t107 29.5z" />
    <glyph glyph-name="plusminus" unicode="&#xb1;" horiz-adv-x="1317" 
d="M610 106v472h-456v96h456v469h97v-469h456v-96h-456v-472h-97zM154 -96v96h1009v-96h-1009z" />
    <glyph glyph-name="acute" unicode="&#xb4;" horiz-adv-x="530" 
d="M74 1124l215 289h176l-268 -289h-123z" />
    <glyph glyph-name="uni00B5" unicode="&#xb5;" horiz-adv-x="1298" 
d="M264 999h139v-600q0 -128 48 -213.5t165 -85.5q82 0 153 45.5t113 120.5t42 158v575h139v-999h-139v186q-20 -49 -66.5 -97.5t-113.5 -80t-142 -31.5q-109 0 -196 56l-23 -299h-119v1265z" />
    <glyph glyph-name="paragraph" unicode="&#xb6;" horiz-adv-x="1350" 
d="M586 623q-119 0 -223 47.5t-167 137.5t-63 210t63 210t167 137.5t223 47.5h127v-1659h-127v869zM958 -246v1659h127v-1659h-127z" />
    <glyph glyph-name="periodcentered" unicode="&#xb7;" horiz-adv-x="649" 
d="M240 745.5q-35 34.5 -35 83.5q0 52 34 85.5t85 33.5q50 0 84 -34t34 -85q0 -49 -34.5 -83.5t-83.5 -34.5t-84 34.5z" />
    <glyph glyph-name="cedilla" unicode="&#xb8;" horiz-adv-x="580" 
d="M156 -464.5q-48 35.5 -68 87.5l90 49q5 -31 31 -54.5t63 -23.5q46 0 74.5 29.5t28.5 71.5q0 33 -20.5 62t-63.5 48t-107 19h-34l92 176h112l-65 -121q90 -1 137 -52t47 -124q0 -51 -24.5 -97.5t-72 -76t-110.5 -29.5q-62 0 -110 35.5z" />
    <glyph glyph-name="ordmasculine" unicode="&#xba;" horiz-adv-x="874" 
d="M264.5 759q-76.5 48 -119.5 131t-43 183q0 99 43 181.5t119.5 131t173.5 48.5q96 0 172.5 -48.5t119 -131t42.5 -181.5q0 -100 -42.5 -183t-119 -131t-172.5 -48q-97 0 -173.5 48zM597 885q52 74 52 188q0 113 -52 187.5t-159 74.5q-108 0 -160.5 -74.5t-52.5 -187.5
q0 -114 52.5 -188t160.5 -74q107 0 159 74z" />
    <glyph glyph-name="guillemotright" unicode="&#xbb;" horiz-adv-x="965" 
d="M168 193v149l197 170l-197 168v149l354 -317zM530 193v149l197 170l-197 168v149l357 -317z" />
    <glyph glyph-name="questiondown" unicode="&#xbf;" horiz-adv-x="1026" 
d="M428 823v176h178v-176h-178zM320 -393.5q-92 40.5 -145.5 120.5t-53.5 193q0 87 28 143.5t68.5 88.5t103.5 67q49 28 76 47.5t45.5 49.5t18.5 73v246h119v-248q0 -66 -22.5 -109t-55 -67.5t-87.5 -54.5q-56 -30 -89.5 -55.5t-56.5 -70t-23 -114.5q0 -116 77 -175.5
t197 -59.5q76 0 138 29.5t99 86.5t38 135h127q-1 -112 -53.5 -195t-142.5 -127t-200 -44q-114 0 -206 40.5z" />
    <glyph glyph-name="Agrave" unicode="&#xc0;" horiz-adv-x="1296" 
d="M76 0l522 1413h104l519 -1413h-144l-108 307h-639l-107 -307h-147zM375 434h549l-273 780zM575 1540l-245 287h176l215 -287h-146z" />
    <glyph glyph-name="Aacute" unicode="&#xc1;" horiz-adv-x="1296" 
d="M76 0l522 1413h104l519 -1413h-144l-108 307h-639l-107 -307h-147zM375 434h549l-273 780zM559 1538l215 289h176l-268 -289h-123z" />
    <glyph glyph-name="Acircumflex" unicode="&#xc2;" horiz-adv-x="1296" 
d="M76 0l522 1413h104l519 -1413h-144l-108 307h-639l-107 -307h-147zM375 434h549l-273 780zM317 1512l332 356l332 -356h-154l-178 196l-176 -196h-156z" />
    <glyph glyph-name="Atilde" unicode="&#xc3;" horiz-adv-x="1296" 
d="M76 0l522 1413h104l519 -1413h-144l-108 307h-639l-107 -307h-147zM375 434h549l-273 780zM686 1594.5q-34 23.5 -75 69.5q-30 34 -51 50.5t-46 16.5q-37 0 -53.5 -38.5t-16.5 -98.5h-90q0 108 41 174.5t117 66.5q39 0 69.5 -14.5t51.5 -34.5t48 -51q28 -33 47 -48.5
t42 -15.5q74 0 74 158h96q0 -125 -44.5 -191.5t-127.5 -66.5q-48 0 -82 23.5z" />
    <glyph glyph-name="Adieresis" unicode="&#xc4;" horiz-adv-x="1296" 
d="M76 0l522 1413h104l519 -1413h-144l-108 307h-639l-107 -307h-147zM375 434h549l-273 780zM401 1643v184h160v-184h-160zM733 1643v184h160v-184h-160z" />
    <glyph glyph-name="Aring" unicode="&#xc5;" horiz-adv-x="1296" 
d="M569 1339q-52 24 -84 73t-32 110q0 54 26 99t70.5 71t97.5 26t99 -25.5t73 -70.5t27 -100q0 -59 -32.5 -108t-84.5 -71l492 -1343h-144l-108 307h-639l-107 -307h-147zM718.5 1450q29.5 29 29.5 72q0 42 -28.5 70t-72.5 28t-71 -27t-27 -71t28 -72.5t70 -28.5t71.5 29z
M375 434h549l-273 780z" />
    <glyph glyph-name="AE" unicode="&#xc6;" horiz-adv-x="1804" 
d="M76 0l518 1413h1100v-108h-748v-541h660v-115h-660v-534h748v-115h-883v307h-483l-111 -307h-141zM369 434h442v871h-129z" />
    <glyph glyph-name="Ccedilla" unicode="&#xc7;" horiz-adv-x="1417" 
d="M1132.5 101q-119.5 -93 -283.5 -115l-58 -107q90 -1 137 -52t47 -124q0 -51 -24.5 -97.5t-72 -76t-110.5 -29.5q-62 0 -110 35.5t-68 87.5l90 49q5 -31 31 -54.5t63 -23.5q46 0 74.5 29.5t28.5 71.5q0 33 -20.5 62t-63.5 48t-107 19h-34l82 156q-197 5 -331.5 102.5
t-201 261t-66.5 367.5t67.5 367.5t209.5 260.5t356 97q199 0 340 -90t211 -279l-123 -55q-42 159 -163 230t-273 71q-170 0 -280.5 -82t-161 -217.5t-50.5 -302.5q0 -169 51.5 -306.5t163 -220t281.5 -82.5q149 0 262.5 71.5t171.5 232.5l123 -56q-69 -156 -188.5 -249z" />
    <glyph glyph-name="Egrave" unicode="&#xc8;" horiz-adv-x="1237" 
d="M219 0v1413h909v-113h-774v-538h662v-109h-662v-532h774v-121h-909zM604 1540l-245 287h176l215 -287h-146z" />
    <glyph glyph-name="Eacute" unicode="&#xc9;" horiz-adv-x="1237" 
d="M219 0v1413h909v-113h-774v-538h662v-109h-662v-532h774v-121h-909zM588 1538l215 289h176l-268 -289h-123z" />
    <glyph glyph-name="Ecircumflex" unicode="&#xca;" horiz-adv-x="1237" 
d="M219 0v1413h909v-113h-774v-538h662v-109h-662v-532h774v-121h-909zM346 1512l332 356l332 -356h-154l-178 196l-176 -196h-156z" />
    <glyph glyph-name="Edieresis" unicode="&#xcb;" horiz-adv-x="1237" 
d="M219 0v1413h909v-113h-774v-538h662v-109h-662v-532h774v-121h-909zM430 1643v184h160v-184h-160zM762 1643v184h160v-184h-160z" />
    <glyph glyph-name="Igrave" unicode="&#xcc;" horiz-adv-x="573" 
d="M219 0v1413h135v-1413h-135zM211 1540l-245 287h176l215 -287h-146z" />
    <glyph glyph-name="Iacute" unicode="&#xcd;" horiz-adv-x="573" 
d="M219 0v1413h135v-1413h-135zM195 1538l215 289h176l-268 -289h-123z" />
    <glyph glyph-name="Icircumflex" unicode="&#xce;" horiz-adv-x="573" 
d="M219 0v1413h135v-1413h-135zM-47 1512l332 356l332 -356h-154l-178 196l-176 -196h-156z" />
    <glyph glyph-name="Idieresis" unicode="&#xcf;" horiz-adv-x="573" 
d="M219 0v1413h135v-1413h-135zM37 1643v184h160v-184h-160zM369 1643v184h160v-184h-160z" />
    <glyph glyph-name="Eth" unicode="&#xd0;" horiz-adv-x="1421" 
d="M236 664h-113v98h113v651h356q224 0 380.5 -82.5t237 -242.5t80.5 -392q0 -222 -82 -378t-239 -237t-379 -81h-354v664zM565 129q170 0 300.5 62t205 191.5t74.5 324.5q0 282 -140.5 430.5t-416.5 148.5h-209v-524h381v-98h-381v-535h186z" />
    <glyph glyph-name="Ntilde" unicode="&#xd1;" horiz-adv-x="1409" 
d="M219 0v1413h223l613 -1309v1309h135v-1413h-227l-607 1311v-1311h-137zM739 1594.5q-34 23.5 -75 69.5q-30 34 -51 50.5t-46 16.5q-37 0 -53.5 -38.5t-16.5 -98.5h-90q0 108 41 174.5t117 66.5q39 0 69.5 -14.5t51.5 -34.5t48 -51q28 -33 47 -48.5t42 -15.5q74 0 74 158
h96q0 -125 -44.5 -191.5t-127.5 -66.5q-48 0 -82 23.5z" />
    <glyph glyph-name="Ograve" unicode="&#xd2;" horiz-adv-x="1511" 
d="M412 77q-140 97 -209.5 262t-69.5 368q0 202 69.5 367t209.5 262.5t342 97.5q204 0 344.5 -97.5t210 -262t69.5 -367.5t-69.5 -368t-210 -262t-344.5 -97q-202 0 -342 97zM1035 188.5q112 82.5 165 218.5t53 300q0 163 -53 299t-165 218.5t-281 82.5q-166 0 -277 -82.5
t-164 -218.5t-53 -299q0 -164 53 -300t164 -218.5t277 -82.5q169 0 281 82.5zM680 1540l-245 287h176l215 -287h-146z" />
    <glyph glyph-name="Oacute" unicode="&#xd3;" horiz-adv-x="1511" 
d="M412 77q-140 97 -209.5 262t-69.5 368q0 202 69.5 367t209.5 262.5t342 97.5q204 0 344.5 -97.5t210 -262t69.5 -367.5t-69.5 -368t-210 -262t-344.5 -97q-202 0 -342 97zM1035 188.5q112 82.5 165 218.5t53 300q0 163 -53 299t-165 218.5t-281 82.5q-166 0 -277 -82.5
t-164 -218.5t-53 -299q0 -164 53 -300t164 -218.5t277 -82.5q169 0 281 82.5zM664 1538l215 289h176l-268 -289h-123z" />
    <glyph glyph-name="Ocircumflex" unicode="&#xd4;" horiz-adv-x="1511" 
d="M412 77q-140 97 -209.5 262t-69.5 368q0 202 69.5 367t209.5 262.5t342 97.5q204 0 344.5 -97.5t210 -262t69.5 -367.5t-69.5 -368t-210 -262t-344.5 -97q-202 0 -342 97zM1035 188.5q112 82.5 165 218.5t53 300q0 163 -53 299t-165 218.5t-281 82.5q-166 0 -277 -82.5
t-164 -218.5t-53 -299q0 -164 53 -300t164 -218.5t277 -82.5q169 0 281 82.5zM422 1512l332 356l332 -356h-154l-178 196l-176 -196h-156z" />
    <glyph glyph-name="Otilde" unicode="&#xd5;" horiz-adv-x="1511" 
d="M412 77q-140 97 -209.5 262t-69.5 368q0 202 69.5 367t209.5 262.5t342 97.5q204 0 344.5 -97.5t210 -262t69.5 -367.5t-69.5 -368t-210 -262t-344.5 -97q-202 0 -342 97zM1035 188.5q112 82.5 165 218.5t53 300q0 163 -53 299t-165 218.5t-281 82.5q-166 0 -277 -82.5
t-164 -218.5t-53 -299q0 -164 53 -300t164 -218.5t277 -82.5q169 0 281 82.5zM791 1594.5q-34 23.5 -75 69.5q-30 34 -51 50.5t-46 16.5q-37 0 -53.5 -38.5t-16.5 -98.5h-90q0 108 41 174.5t117 66.5q39 0 69.5 -14.5t51.5 -34.5t48 -51q28 -33 47 -48.5t42 -15.5
q74 0 74 158h96q0 -125 -44.5 -191.5t-127.5 -66.5q-48 0 -82 23.5z" />
    <glyph glyph-name="Odieresis" unicode="&#xd6;" horiz-adv-x="1511" 
d="M412 77q-140 97 -209.5 262t-69.5 368q0 202 69.5 367t209.5 262.5t342 97.5q204 0 344.5 -97.5t210 -262t69.5 -367.5t-69.5 -368t-210 -262t-344.5 -97q-202 0 -342 97zM1035 188.5q112 82.5 165 218.5t53 300q0 163 -53 299t-165 218.5t-281 82.5q-166 0 -277 -82.5
t-164 -218.5t-53 -299q0 -164 53 -300t164 -218.5t277 -82.5q169 0 281 82.5zM506 1643v184h160v-184h-160zM838 1643v184h160v-184h-160z" />
    <glyph glyph-name="multiply" unicode="&#xd7;" horiz-adv-x="1108" 
d="M231 233l-69 68l323 324l-331 331l67 70l334 -334l322 324l69 -68l-323 -323l331 -332l-67 -70l-332 334z" />
    <glyph glyph-name="Oslash" unicode="&#xd8;" horiz-adv-x="1511" 
d="M1318.5 1050q59.5 -156 59.5 -343q0 -203 -69.5 -368t-210 -262t-344.5 -97q-174 0 -307 75l-31 -55h-114l63 113q-114 98 -173 253t-59 341q0 202 69.5 367t209.5 262.5t342 97.5q174 0 306 -74l30 53h115l-62 -110q116 -97 175.5 -253zM302 435.5q42 -125.5 127 -207.5
l569 1020q-104 59 -244 59q-166 0 -277 -82.5t-164 -218.5t-53 -299q0 -146 42 -271.5zM1035 188.5q112 82.5 165 218.5t53 300q0 147 -43 273t-130 208l-571 -1021q105 -61 245 -61q169 0 281 82.5z" />
    <glyph glyph-name="Ugrave" unicode="&#xd9;" horiz-adv-x="1346" 
d="M400.5 54q-107.5 74 -157.5 194t-50 262v903h135v-854q0 -206 79.5 -329.5t264.5 -123.5t266.5 124t81.5 329v854h135v-893q0 -146 -51 -268.5t-159.5 -197t-272.5 -74.5t-271.5 74zM604 1540l-245 287h176l215 -287h-146z" />
    <glyph glyph-name="Uacute" unicode="&#xda;" horiz-adv-x="1346" 
d="M400.5 54q-107.5 74 -157.5 194t-50 262v903h135v-854q0 -206 79.5 -329.5t264.5 -123.5t266.5 124t81.5 329v854h135v-893q0 -146 -51 -268.5t-159.5 -197t-272.5 -74.5t-271.5 74zM588 1538l215 289h176l-268 -289h-123z" />
    <glyph glyph-name="Ucircumflex" unicode="&#xdb;" horiz-adv-x="1346" 
d="M400.5 54q-107.5 74 -157.5 194t-50 262v903h135v-854q0 -206 79.5 -329.5t264.5 -123.5t266.5 124t81.5 329v854h135v-893q0 -146 -51 -268.5t-159.5 -197t-272.5 -74.5t-271.5 74zM346 1512l332 356l332 -356h-154l-178 196l-176 -196h-156z" />
    <glyph glyph-name="Udieresis" unicode="&#xdc;" horiz-adv-x="1346" 
d="M400.5 54q-107.5 74 -157.5 194t-50 262v903h135v-854q0 -206 79.5 -329.5t264.5 -123.5t266.5 124t81.5 329v854h135v-893q0 -146 -51 -268.5t-159.5 -197t-272.5 -74.5t-271.5 74zM430 1643v184h160v-184h-160zM762 1643v184h160v-184h-160z" />
    <glyph glyph-name="Yacute" unicode="&#xdd;" horiz-adv-x="1315" 
d="M594 0v553l-528 860h155l436 -719l439 719h153l-526 -860v-553h-129zM567 1538l215 289h176l-268 -289h-123z" />
    <glyph glyph-name="Thorn" unicode="&#xde;" horiz-adv-x="1149" 
d="M219 1413h141v-201h248q132 0 232 -47t155.5 -135.5t55.5 -210.5q0 -118 -55 -203.5t-155 -130.5t-233 -45h-248v-440h-141v1413zM608 571q144 0 222.5 62.5t78.5 183.5t-79 186.5t-222 65.5h-248v-498h248z" />
    <glyph glyph-name="germandbls" unicode="&#xdf;" horiz-adv-x="1176" 
d="M579 0.5q-67 18.5 -143 54.5l56 123q56 -32 114 -48.5t111 -16.5q47 0 94.5 23.5t78 63.5t30.5 87q0 52 -22 94t-54 73.5t-85 74.5q-54 44 -86.5 75.5t-54.5 74t-22 95.5q0 39 15.5 68.5t38 49.5t61.5 47t63 48t40.5 52t16.5 73q0 57 -31.5 103.5t-89 73t-132.5 26.5
q-277 0 -277 -436v-879h-125v881q0 294 107.5 423.5t291.5 129.5q94 0 184 -41.5t147 -117.5t57 -173q0 -48 -17.5 -83t-43 -57t-66.5 -51q-35 -24 -55.5 -41t-34 -41.5t-13.5 -56.5q0 -34 17 -63t43 -52.5t70 -57.5q60 -47 96.5 -83t63 -89t26.5 -122q0 -93 -44 -166.5
t-120 -115t-168 -41.5q-71 0 -138 18.5z" />
    <glyph glyph-name="agrave" unicode="&#xe0;" horiz-adv-x="1016" 
d="M233.5 15q-71.5 35 -111.5 100.5t-40 154.5q0 295 450 295h222q0 164 -60 255t-198 91q-175 0 -287 -153l-90 71q137 191 366 191q123 0 208.5 -50t129 -141.5t43.5 -214.5v-614h-108v205q-50 -112 -147 -168.5t-214 -56.5q-92 0 -163.5 35zM593 143.5q78 57.5 119.5 146
t41.5 177.5h-207q-171 0 -252.5 -45t-81.5 -154q0 -94 54.5 -138t142.5 -44q105 0 183 57.5zM428 1126l-245 287h176l215 -287h-146z" />
    <glyph glyph-name="aacute" unicode="&#xe1;" horiz-adv-x="1016" 
d="M233.5 15q-71.5 35 -111.5 100.5t-40 154.5q0 295 450 295h222q0 164 -60 255t-198 91q-175 0 -287 -153l-90 71q137 191 366 191q123 0 208.5 -50t129 -141.5t43.5 -214.5v-614h-108v205q-50 -112 -147 -168.5t-214 -56.5q-92 0 -163.5 35zM593 143.5q78 57.5 119.5 146
t41.5 177.5h-207q-171 0 -252.5 -45t-81.5 -154q0 -94 54.5 -138t142.5 -44q105 0 183 57.5zM412 1124l215 289h176l-268 -289h-123z" />
    <glyph glyph-name="acircumflex" unicode="&#xe2;" horiz-adv-x="1016" 
d="M233.5 15q-71.5 35 -111.5 100.5t-40 154.5q0 295 450 295h222q0 164 -60 255t-198 91q-175 0 -287 -153l-90 71q137 191 366 191q123 0 208.5 -50t129 -141.5t43.5 -214.5v-614h-108v205q-50 -112 -147 -168.5t-214 -56.5q-92 0 -163.5 35zM593 143.5q78 57.5 119.5 146
t41.5 177.5h-207q-171 0 -252.5 -45t-81.5 -154q0 -94 54.5 -138t142.5 -44q105 0 183 57.5zM170 1098l332 356l332 -356h-154l-178 196l-176 -196h-156z" />
    <glyph glyph-name="atilde" unicode="&#xe3;" horiz-adv-x="1016" 
d="M233.5 15q-71.5 35 -111.5 100.5t-40 154.5q0 295 450 295h222q0 164 -60 255t-198 91q-175 0 -287 -153l-90 71q137 191 366 191q123 0 208.5 -50t129 -141.5t43.5 -214.5v-614h-108v205q-50 -112 -147 -168.5t-214 -56.5q-92 0 -163.5 35zM593 143.5q78 57.5 119.5 146
t41.5 177.5h-207q-171 0 -252.5 -45t-81.5 -154q0 -94 54.5 -138t142.5 -44q105 0 183 57.5zM539 1180.5q-34 23.5 -75 69.5q-30 34 -51 50.5t-46 16.5q-37 0 -53.5 -38.5t-16.5 -98.5h-90q0 108 41 174.5t117 66.5q39 0 69.5 -14.5t51.5 -34.5t48 -51q28 -33 47 -48.5
t42 -15.5q74 0 74 158h96q0 -125 -44.5 -191.5t-127.5 -66.5q-48 0 -82 23.5z" />
    <glyph glyph-name="adieresis" unicode="&#xe4;" horiz-adv-x="1016" 
d="M233.5 15q-71.5 35 -111.5 100.5t-40 154.5q0 295 450 295h222q0 164 -60 255t-198 91q-175 0 -287 -153l-90 71q137 191 366 191q123 0 208.5 -50t129 -141.5t43.5 -214.5v-614h-108v205q-50 -112 -147 -168.5t-214 -56.5q-92 0 -163.5 35zM593 143.5q78 57.5 119.5 146
t41.5 177.5h-207q-171 0 -252.5 -45t-81.5 -154q0 -94 54.5 -138t142.5 -44q105 0 183 57.5zM254 1229v184h160v-184h-160zM586 1229v184h160v-184h-160z" />
    <glyph glyph-name="aring" unicode="&#xe5;" horiz-adv-x="1016" 
d="M233.5 15q-71.5 35 -111.5 100.5t-40 154.5q0 295 450 295h222q0 164 -60 255t-198 91q-175 0 -287 -153l-90 71q137 191 366 191q123 0 208.5 -50t129 -141.5t43.5 -214.5v-614h-108v205q-50 -112 -147 -168.5t-214 -56.5q-92 0 -163.5 35zM593 143.5q78 57.5 119.5 146
t41.5 177.5h-207q-171 0 -252.5 -45t-81.5 -154q0 -94 54.5 -138t142.5 -44q105 0 183 57.5zM400 1107.5q-45 26.5 -70.5 71.5t-25.5 99q0 53 26 98.5t71 72t99 26.5q53 0 98 -26t72 -71.5t27 -99.5t-26.5 -99t-71.5 -71.5t-99 -26.5q-55 0 -100 26.5zM571 1207q30 29 30 71
q0 41 -29 69.5t-72 28.5q-44 0 -71 -27t-27 -71t28 -72t70 -28q41 0 71 29z" />
    <glyph glyph-name="ae" unicode="&#xe6;" horiz-adv-x="1661" 
d="M238 16.5q-71 36.5 -112.5 102t-41.5 149.5q0 152 94.5 224.5t261.5 72.5h320q0 353 -266 353q-89 0 -159.5 -43.5t-111.5 -108.5l-100 63q75 95 164 141t215 46q125 0 206.5 -50.5t118.5 -146.5q91 193 328 193q225 0 321.5 -147t96.5 -380v-28h-699q-3 -98 31 -180
t103 -131.5t168 -49.5q96 0 164.5 23t132.5 84l79 -66q-79 -79 -168 -114t-206 -35q-160 0 -258.5 83.5t-135.5 227.5q-45 -154 -142.5 -236.5t-246.5 -82.5q-86 0 -157 36.5zM1456 565q3 98 -29.5 173t-100 117t-167.5 42q-91 0 -155.5 -44.5t-97.5 -120t-34 -167.5h584z
M598.5 139q75.5 49 119 129t43.5 168l-1 21h-305q-63 0 -116 -21.5t-84.5 -64t-31.5 -103.5q0 -47 33.5 -88t83 -65.5t94.5 -24.5q89 0 164.5 49z" />
    <glyph glyph-name="ccedilla" unicode="&#xe7;" horiz-adv-x="967" 
d="M687 138q71 56 93 149l107 -49q-39 -109 -119.5 -175.5t-191.5 -79.5l-56 -104q90 -1 137 -52t47 -124q0 -51 -24.5 -97.5t-72 -76t-110.5 -29.5q-62 0 -110 35.5t-68 87.5l90 49q5 -31 31 -54.5t63 -23.5q46 0 74.5 29.5t28.5 71.5q0 33 -20.5 62t-63.5 48t-107 19h-34
l83 160q-116 15 -198 88t-124 185t-42 241q0 139 48.5 258t143.5 191.5t228 72.5q129 0 227 -69t152 -189l-119 -53q-22 95 -94 152t-166 57q-102 0 -167.5 -62.5t-94.5 -158.5t-29 -199q0 -105 29 -199.5t94 -155.5t168 -61q96 0 167 56z" />
    <glyph glyph-name="egrave" unicode="&#xe8;" horiz-adv-x="1030" 
d="M296.5 56q-98.5 68 -147.5 182.5t-49 255.5q0 139 48.5 257t143 189.5t228.5 71.5q150 0 242.5 -69.5t132 -178.5t39.5 -236q0 -35 -4 -71h-699q-3 -98 31.5 -180t104 -131.5t168.5 -49.5q96 0 164.5 23.5t125.5 83.5l86 -66q-81 -79 -168.5 -114t-205.5 -35
q-142 0 -240.5 68zM815 565q0 90 -28.5 167.5t-94.5 127t-172 49.5q-92 0 -156.5 -47t-97 -125t-35.5 -172h584zM434 1126l-245 287h176l215 -287h-146z" />
    <glyph glyph-name="eacute" unicode="&#xe9;" horiz-adv-x="1030" 
d="M296.5 56q-98.5 68 -147.5 182.5t-49 255.5q0 139 48.5 257t143 189.5t228.5 71.5q150 0 242.5 -69.5t132 -178.5t39.5 -236q0 -35 -4 -71h-699q-3 -98 31.5 -180t104 -131.5t168.5 -49.5q96 0 164.5 23.5t125.5 83.5l86 -66q-81 -79 -168.5 -114t-205.5 -35
q-142 0 -240.5 68zM815 565q0 90 -28.5 167.5t-94.5 127t-172 49.5q-92 0 -156.5 -47t-97 -125t-35.5 -172h584zM418 1124l215 289h176l-268 -289h-123z" />
    <glyph glyph-name="ecircumflex" unicode="&#xea;" horiz-adv-x="1030" 
d="M296.5 56q-98.5 68 -147.5 182.5t-49 255.5q0 139 48.5 257t143 189.5t228.5 71.5q150 0 242.5 -69.5t132 -178.5t39.5 -236q0 -35 -4 -71h-699q-3 -98 31.5 -180t104 -131.5t168.5 -49.5q96 0 164.5 23.5t125.5 83.5l86 -66q-81 -79 -168.5 -114t-205.5 -35
q-142 0 -240.5 68zM815 565q0 90 -28.5 167.5t-94.5 127t-172 49.5q-92 0 -156.5 -47t-97 -125t-35.5 -172h584zM176 1098l332 356l332 -356h-154l-178 196l-176 -196h-156z" />
    <glyph glyph-name="edieresis" unicode="&#xeb;" horiz-adv-x="1030" 
d="M296.5 56q-98.5 68 -147.5 182.5t-49 255.5q0 139 48.5 257t143 189.5t228.5 71.5q150 0 242.5 -69.5t132 -178.5t39.5 -236q0 -35 -4 -71h-699q-3 -98 31.5 -180t104 -131.5t168.5 -49.5q96 0 164.5 23.5t125.5 83.5l86 -66q-81 -79 -168.5 -114t-205.5 -35
q-142 0 -240.5 68zM815 565q0 90 -28.5 167.5t-94.5 127t-172 49.5q-92 0 -156.5 -47t-97 -125t-35.5 -172h584zM260 1229v184h160v-184h-160zM592 1229v184h160v-184h-160z" />
    <glyph glyph-name="igrave" unicode="&#xec;" horiz-adv-x="498" 
d="M174 0v999h150v-999h-150zM174 1126l-245 287h176l215 -287h-146z" />
    <glyph glyph-name="iacute" unicode="&#xed;" horiz-adv-x="498" 
d="M174 0v999h150v-999h-150zM158 1124l215 289h176l-268 -289h-123z" />
    <glyph glyph-name="icircumflex" unicode="&#xee;" horiz-adv-x="498" 
d="M174 0v999h150v-999h-150zM-84 1098l332 356l332 -356h-154l-178 196l-176 -196h-156z" />
    <glyph glyph-name="idieresis" unicode="&#xef;" horiz-adv-x="498" 
d="M174 0v999h150v-999h-150zM0 1229v184h160v-184h-160zM332 1229v184h160v-184h-160z" />
    <glyph glyph-name="eth" unicode="&#xf0;" horiz-adv-x="1151" 
d="M934 1034q98 -209 98 -522q0 -139 -56.5 -260t-163 -194.5t-249.5 -73.5q-142 0 -248 73t-162.5 195t-56.5 264q0 141 55 256t157 181.5t237 66.5q89 0 165 -28.5t110 -67.5q-18 103 -88 191t-172 160l-93 -138l-88 57l92 138q-86 50 -174 87l68 97q94 -37 174 -81l61 91
l92 -56l-61 -90q205 -137 303 -346zM743.5 164q72.5 58 108 151t35.5 201q0 110 -36.5 203.5t-109 150t-176.5 56.5q-107 0 -180 -57.5t-108 -151t-35 -201.5t35 -201.5t108 -151t180 -57.5q106 0 178.5 58z" />
    <glyph glyph-name="ntilde" unicode="&#xf1;" horiz-adv-x="1108" 
d="M174 999h125v-188q50 95 133 150t197 55q111 0 184.5 -54t108 -146t34.5 -208v-608h-125v598q0 128 -54 221.5t-181 93.5q-83 0 -150.5 -46t-107 -136t-39.5 -219v-512h-125v999zM578 1180.5q-34 23.5 -75 69.5q-30 34 -51 50.5t-46 16.5q-37 0 -53.5 -38.5t-16.5 -98.5
h-90q0 108 41 174.5t117 66.5q39 0 69.5 -14.5t51.5 -34.5t48 -51q28 -33 47 -48.5t42 -15.5q74 0 74 158h96q0 -125 -44.5 -191.5t-127.5 -66.5q-48 0 -82 23.5z" />
    <glyph glyph-name="ograve" unicode="&#xf2;" horiz-adv-x="1116" 
d="M316 50.5q-105 70.5 -163.5 190t-58.5 261.5t58.5 260.5t163.5 188t239 69.5t240.5 -69.5t166.5 -188.5t60 -260q0 -142 -60 -261.5t-166.5 -190t-240.5 -70.5t-239 70.5zM745 141.5q77 59.5 114.5 155.5t37.5 205t-37.5 204t-113.5 153.5t-187 58.5q-110 0 -187 -58.5
t-115 -153.5t-38 -204q0 -110 38 -206t114.5 -155t185.5 -59q111 0 188 59.5zM483 1126l-245 287h176l215 -287h-146z" />
    <glyph glyph-name="oacute" unicode="&#xf3;" horiz-adv-x="1116" 
d="M316 50.5q-105 70.5 -163.5 190t-58.5 261.5t58.5 260.5t163.5 188t239 69.5t240.5 -69.5t166.5 -188.5t60 -260q0 -142 -60 -261.5t-166.5 -190t-240.5 -70.5t-239 70.5zM745 141.5q77 59.5 114.5 155.5t37.5 205t-37.5 204t-113.5 153.5t-187 58.5q-110 0 -187 -58.5
t-115 -153.5t-38 -204q0 -110 38 -206t114.5 -155t185.5 -59q111 0 188 59.5zM467 1124l215 289h176l-268 -289h-123z" />
    <glyph glyph-name="ocircumflex" unicode="&#xf4;" horiz-adv-x="1116" 
d="M316 50.5q-105 70.5 -163.5 190t-58.5 261.5t58.5 260.5t163.5 188t239 69.5t240.5 -69.5t166.5 -188.5t60 -260q0 -142 -60 -261.5t-166.5 -190t-240.5 -70.5t-239 70.5zM745 141.5q77 59.5 114.5 155.5t37.5 205t-37.5 204t-113.5 153.5t-187 58.5q-110 0 -187 -58.5
t-115 -153.5t-38 -204q0 -110 38 -206t114.5 -155t185.5 -59q111 0 188 59.5zM225 1098l332 356l332 -356h-154l-178 196l-176 -196h-156z" />
    <glyph glyph-name="otilde" unicode="&#xf5;" horiz-adv-x="1116" 
d="M316 50.5q-105 70.5 -163.5 190t-58.5 261.5t58.5 260.5t163.5 188t239 69.5t240.5 -69.5t166.5 -188.5t60 -260q0 -142 -60 -261.5t-166.5 -190t-240.5 -70.5t-239 70.5zM745 141.5q77 59.5 114.5 155.5t37.5 205t-37.5 204t-113.5 153.5t-187 58.5q-110 0 -187 -58.5
t-115 -153.5t-38 -204q0 -110 38 -206t114.5 -155t185.5 -59q111 0 188 59.5zM594 1180.5q-34 23.5 -75 69.5q-30 34 -51 50.5t-46 16.5q-37 0 -53.5 -38.5t-16.5 -98.5h-90q0 108 41 174.5t117 66.5q39 0 69.5 -14.5t51.5 -34.5t48 -51q28 -33 47 -48.5t42 -15.5
q74 0 74 158h96q0 -125 -44.5 -191.5t-127.5 -66.5q-48 0 -82 23.5z" />
    <glyph glyph-name="odieresis" unicode="&#xf6;" horiz-adv-x="1116" 
d="M316 50.5q-105 70.5 -163.5 190t-58.5 261.5t58.5 260.5t163.5 188t239 69.5t240.5 -69.5t166.5 -188.5t60 -260q0 -142 -60 -261.5t-166.5 -190t-240.5 -70.5t-239 70.5zM745 141.5q77 59.5 114.5 155.5t37.5 205t-37.5 204t-113.5 153.5t-187 58.5q-110 0 -187 -58.5
t-115 -153.5t-38 -204q0 -110 38 -206t114.5 -155t185.5 -59q111 0 188 59.5zM309 1229v184h160v-184h-160zM641 1229v184h160v-184h-160z" />
    <glyph glyph-name="divide" unicode="&#xf7;" horiz-adv-x="881" 
d="M346 920v176h178v-176h-178zM135 580v96h600v-96h-600zM346 141v176h178v-176h-178z" />
    <glyph glyph-name="oslash" unicode="&#xf8;" horiz-adv-x="1116" 
d="M972 740.5q50 -110.5 50 -238.5q0 -142 -60 -261.5t-166.5 -190t-240.5 -70.5q-118 0 -216 56l-20 -35h-81l42 76q-87 72 -136.5 183.5t-49.5 241.5q0 142 58.5 260.5t163.5 188t239 69.5q117 0 220 -57l19 35h82l-42 -75q88 -72 138 -182.5zM248.5 319
q29.5 -87 85.5 -145l391 700q-72 44 -166 44q-110 0 -187 -58.5t-115 -153.5t-38 -204q0 -96 29.5 -183zM745 141.5q77 59.5 114.5 155.5t37.5 205q0 97 -29.5 183t-86.5 144l-391 -701q73 -46 167 -46q111 0 188 59.5z" />
    <glyph glyph-name="ugrave" unicode="&#xf9;" 
d="M232.5 96q-82.5 119 -82.5 310v593h124v-604q0 -129 49 -222t169 -93q84 0 156.5 48.5t115.5 127.5t43 164v579h123v-999h-123v182q-18 -46 -63 -93.5t-111.5 -79.5t-145.5 -32q-172 0 -254.5 119zM481 1126l-245 287h176l215 -287h-146z" />
    <glyph glyph-name="uacute" unicode="&#xfa;" 
d="M232.5 96q-82.5 119 -82.5 310v593h124v-604q0 -129 49 -222t169 -93q84 0 156.5 48.5t115.5 127.5t43 164v579h123v-999h-123v182q-18 -46 -63 -93.5t-111.5 -79.5t-145.5 -32q-172 0 -254.5 119zM465 1124l215 289h176l-268 -289h-123z" />
    <glyph glyph-name="ucircumflex" unicode="&#xfb;" 
d="M232.5 96q-82.5 119 -82.5 310v593h124v-604q0 -129 49 -222t169 -93q84 0 156.5 48.5t115.5 127.5t43 164v579h123v-999h-123v182q-18 -46 -63 -93.5t-111.5 -79.5t-145.5 -32q-172 0 -254.5 119zM223 1098l332 356l332 -356h-154l-178 196l-176 -196h-156z" />
    <glyph glyph-name="udieresis" unicode="&#xfc;" 
d="M232.5 96q-82.5 119 -82.5 310v593h124v-604q0 -129 49 -222t169 -93q84 0 156.5 48.5t115.5 127.5t43 164v579h123v-999h-123v182q-18 -46 -63 -93.5t-111.5 -79.5t-145.5 -32q-172 0 -254.5 119zM307 1229v184h160v-184h-160zM639 1229v184h160v-184h-160z" />
    <glyph glyph-name="yacute" unicode="&#xfd;" horiz-adv-x="961" 
d="M260 -430l168 430l-383 999h139l303 -847l291 847h137l-526 -1429h-129zM385 1124l215 289h176l-268 -289h-123z" />
    <glyph glyph-name="thorn" unicode="&#xfe;" horiz-adv-x="1137" 
d="M178 1413h141v-567q49 82 132 128t192 46q122 0 210 -69t133.5 -187.5t45.5 -263.5q0 -146 -45.5 -264t-133.5 -187t-210 -69q-109 0 -191 45.5t-133 128.5v-592h-141v1851zM767.5 154q66.5 54 98 144.5t31.5 201.5q0 110 -31.5 200.5t-98 144.5t-165.5 54
q-98 0 -165.5 -54t-100.5 -145t-33 -200q0 -110 33 -201t100.5 -145t165.5 -54q99 0 165.5 54z" />
    <glyph glyph-name="ydieresis" unicode="&#xff;" horiz-adv-x="961" 
d="M260 -430l168 430l-383 999h139l303 -847l291 847h137l-526 -1429h-129zM227 1229v184h160v-184h-160zM559 1229v184h160v-184h-160z" />
    <glyph glyph-name="Amacron" unicode="&#x100;" horiz-adv-x="1296" 
d="M76 0l522 1413h104l519 -1413h-144l-108 307h-639l-107 -307h-147zM375 434h549l-273 780zM383 1606v121h536v-121h-536z" />
    <glyph glyph-name="amacron" unicode="&#x101;" horiz-adv-x="1016" 
d="M233.5 15q-71.5 35 -111.5 100.5t-40 154.5q0 295 450 295h222q0 164 -60 255t-198 91q-175 0 -287 -153l-90 71q137 191 366 191q123 0 208.5 -50t129 -141.5t43.5 -214.5v-614h-108v205q-50 -112 -147 -168.5t-214 -56.5q-92 0 -163.5 35zM593 143.5q78 57.5 119.5 146
t41.5 177.5h-207q-171 0 -252.5 -45t-81.5 -154q0 -94 54.5 -138t142.5 -44q105 0 183 57.5zM236 1192v121h536v-121h-536z" />
    <glyph glyph-name="Abreve" unicode="&#x102;" horiz-adv-x="1296" 
d="M76 0l522 1413h104l519 -1413h-144l-108 307h-639l-107 -307h-147zM375 434h549l-273 780zM493.5 1588.5q-69.5 31.5 -109.5 92.5t-40 146h127q0 -47 23.5 -84.5t64.5 -58.5t90 -21q48 0 88.5 20.5t64 58t23.5 85.5h127q0 -85 -39.5 -146t-108.5 -92.5t-155 -31.5
t-155.5 31.5z" />
    <glyph glyph-name="abreve" unicode="&#x103;" horiz-adv-x="1016" 
d="M233.5 15q-71.5 35 -111.5 100.5t-40 154.5q0 295 450 295h222q0 164 -60 255t-198 91q-175 0 -287 -153l-90 71q137 191 366 191q123 0 208.5 -50t129 -141.5t43.5 -214.5v-614h-108v205q-50 -112 -147 -168.5t-214 -56.5q-92 0 -163.5 35zM593 143.5q78 57.5 119.5 146
t41.5 177.5h-207q-171 0 -252.5 -45t-81.5 -154q0 -94 54.5 -138t142.5 -44q105 0 183 57.5zM346.5 1174.5q-69.5 31.5 -109.5 92.5t-40 146h127q0 -47 23.5 -84.5t64.5 -58.5t90 -21q48 0 88.5 20.5t64 58t23.5 85.5h127q0 -85 -39.5 -146t-108.5 -92.5t-155 -31.5
t-155.5 31.5z" />
    <glyph glyph-name="Aogonek" unicode="&#x104;" horiz-adv-x="1296" 
d="M76 0l522 1413h104l519 -1413h-144l-108 307h-639l-107 -307h-147zM375 434h549l-273 780zM987.5 -425.5q-45.5 25.5 -71.5 72t-26 107.5q0 99 70.5 159.5t154.5 86.5h106q-8 0 -68 -30.5t-111.5 -82t-51.5 -120.5q0 -51 26 -82t64 -31q42 0 72.5 16t54.5 49l86 -59
q-37 -54 -84.5 -82.5t-118.5 -28.5q-57 0 -102.5 25.5z" />
    <glyph glyph-name="aogonek" unicode="&#x105;" horiz-adv-x="1016" 
d="M938 -340q-37 -54 -84.5 -82.5t-118.5 -28.5q-57 0 -102.5 25.5t-71.5 72t-26 107.5q0 99 70.5 159.5t154.5 86.5h-2v205q-50 -112 -147 -168.5t-214 -56.5q-92 0 -163.5 35t-111.5 100.5t-40 154.5q0 295 450 295h222q0 164 -60 255t-198 91q-175 0 -287 -153l-90 71
q137 191 366 191q123 0 208.5 -50t129 -141.5t43.5 -214.5v-614q-8 0 -68 -30.5t-111.5 -82t-51.5 -120.5q0 -51 26 -82t64 -31q42 0 72.5 16t54.5 49zM593 143.5q78 57.5 119.5 146t41.5 177.5h-207q-171 0 -252.5 -45t-81.5 -154q0 -94 54.5 -138t142.5 -44
q105 0 183 57.5z" />
    <glyph glyph-name="Cacute" unicode="&#x106;" horiz-adv-x="1417" 
d="M410.5 76.5q-138.5 96.5 -207 262t-68.5 372.5q0 204 67.5 367.5t209.5 260.5t356 97q199 0 340 -90t211 -279l-123 -55q-42 159 -163 230t-273 71q-170 0 -280.5 -82t-161 -217.5t-50.5 -302.5q0 -169 51.5 -306.5t163 -220t281.5 -82.5q149 0 262.5 71.5t171.5 232.5
l123 -56q-79 -178 -224 -274t-345 -96q-203 0 -341.5 96.5zM629 1538l215 289h176l-268 -289h-123z" />
    <glyph glyph-name="cacute" unicode="&#x107;" horiz-adv-x="967" 
d="M292.5 51q-95.5 71 -144 189t-48.5 258q0 139 48.5 258t143.5 191.5t228 72.5q129 0 227 -69t152 -189l-119 -53q-22 95 -94 152t-166 57q-102 0 -167.5 -62.5t-94.5 -158.5t-29 -199q0 -105 29 -199.5t94 -155.5t168 -61q96 0 167 56t93 149l107 -49q-44 -122 -139 -190
t-226 -68q-134 0 -229.5 71zM432 1124l215 289h176l-268 -289h-123z" />
    <glyph glyph-name="Cdotaccent" unicode="&#x10a;" horiz-adv-x="1417" 
d="M410.5 76.5q-138.5 96.5 -207 262t-68.5 372.5q0 204 67.5 367.5t209.5 260.5t356 97q199 0 340 -90t211 -279l-123 -55q-42 159 -163 230t-273 71q-170 0 -280.5 -82t-161 -217.5t-50.5 -302.5q0 -169 51.5 -306.5t163 -220t281.5 -82.5q149 0 262.5 71.5t171.5 232.5
l123 -56q-79 -178 -224 -274t-345 -96q-203 0 -341.5 96.5zM641 1643v184h152v-184h-152z" />
    <glyph glyph-name="cdotaccent" unicode="&#x10b;" horiz-adv-x="967" 
d="M292.5 51q-95.5 71 -144 189t-48.5 258q0 139 48.5 258t143.5 191.5t228 72.5q129 0 227 -69t152 -189l-119 -53q-22 95 -94 152t-166 57q-102 0 -167.5 -62.5t-94.5 -158.5t-29 -199q0 -105 29 -199.5t94 -155.5t168 -61q96 0 167 56t93 149l107 -49q-44 -122 -139 -190
t-226 -68q-134 0 -229.5 71zM444 1229v184h152v-184h-152z" />
    <glyph glyph-name="Ccaron" unicode="&#x10c;" horiz-adv-x="1417" 
d="M410.5 76.5q-138.5 96.5 -207 262t-68.5 372.5q0 204 67.5 367.5t209.5 260.5t356 97q199 0 340 -90t211 -279l-123 -55q-42 159 -163 230t-273 71q-170 0 -280.5 -82t-161 -217.5t-50.5 -302.5q0 -169 51.5 -306.5t163 -220t281.5 -82.5q149 0 262.5 71.5t171.5 232.5
l123 -56q-79 -178 -224 -274t-345 -96q-203 0 -341.5 96.5zM719 1495l-332 332h156l176 -192l178 192h154z" />
    <glyph glyph-name="ccaron" unicode="&#x10d;" horiz-adv-x="967" 
d="M292.5 51q-95.5 71 -144 189t-48.5 258q0 139 48.5 258t143.5 191.5t228 72.5q129 0 227 -69t152 -189l-119 -53q-22 95 -94 152t-166 57q-102 0 -167.5 -62.5t-94.5 -158.5t-29 -199q0 -105 29 -199.5t94 -155.5t168 -61q96 0 167 56t93 149l107 -49q-44 -122 -139 -190
t-226 -68q-134 0 -229.5 71zM522 1081l-332 332h156l176 -192l178 192h154z" />
    <glyph glyph-name="Dcaron" unicode="&#x10e;" horiz-adv-x="1405" 
d="M219 1413h348q226 0 384.5 -82.5t240.5 -243t82 -391.5q0 -222 -83 -378t-242 -237t-384 -81h-346v1413zM541 123q171 0 306 64.5t213.5 196t78.5 323.5q0 282 -147 434.5t-429 152.5h-209v-1171h187zM721 1495l-332 332h156l176 -192l178 192h154z" />
    <glyph glyph-name="dcaron" unicode="&#x10f;" horiz-adv-x="1171" 
d="M288 48.5q-91 68.5 -137.5 186.5t-46.5 265q0 146 46.5 264.5t137.5 187t218 68.5q101 0 181 -44t130 -122v559h125v-1413h-125v145q-51 -75 -128 -120t-183 -45q-127 0 -218 68.5zM1053 1032l100 381h201l-203 -381h-98zM699 149.5q66 55.5 97 147.5t31 203t-31 202
t-97 146t-167 55t-168 -54.5t-99 -146t-32 -202.5t32 -203t99 -147.5t168 -55.5t167 55.5z" />
    <glyph glyph-name="Dcroat" unicode="&#x110;" horiz-adv-x="1421" 
d="M236 664h-113v98h113v651h356q224 0 380.5 -82.5t237 -242.5t80.5 -392q0 -222 -82 -378t-239 -237t-379 -81h-354v664zM565 129q170 0 300.5 62t205 191.5t74.5 324.5q0 282 -140.5 430.5t-416.5 148.5h-209v-524h381v-98h-381v-535h186z" />
    <glyph glyph-name="dcroat" unicode="&#x111;" horiz-adv-x="1118" 
d="M1145 1163h-203v-1163h-125v146q-55 -78 -130.5 -122t-188.5 -44q-121 0 -210.5 69t-136.5 187.5t-47 263.5t47 263.5t136.5 187.5t210.5 69q209 0 319 -166v309h-307v105h307v145h125v-145h203v-105zM698 140q67 58 98 152.5t31 207.5q0 112 -31 206.5t-98 153
t-168 58.5q-99 0 -166 -58.5t-99 -153.5t-32 -206q0 -112 32 -207t99 -153t166 -58q101 0 168 58z" />
    <glyph glyph-name="Emacron" unicode="&#x112;" horiz-adv-x="1237" 
d="M219 0v1413h909v-113h-774v-538h662v-109h-662v-532h774v-121h-909zM412 1606v121h536v-121h-536z" />
    <glyph glyph-name="emacron" unicode="&#x113;" horiz-adv-x="1030" 
d="M296.5 56q-98.5 68 -147.5 182.5t-49 255.5q0 139 48.5 257t143 189.5t228.5 71.5q150 0 242.5 -69.5t132 -178.5t39.5 -236q0 -35 -4 -71h-699q-3 -98 31.5 -180t104 -131.5t168.5 -49.5q96 0 164.5 23.5t125.5 83.5l86 -66q-81 -79 -168.5 -114t-205.5 -35
q-142 0 -240.5 68zM815 565q0 90 -28.5 167.5t-94.5 127t-172 49.5q-92 0 -156.5 -47t-97 -125t-35.5 -172h584zM242 1192v121h536v-121h-536z" />
    <glyph glyph-name="Edotaccent" unicode="&#x116;" horiz-adv-x="1237" 
d="M219 0v1413h909v-113h-774v-538h662v-109h-662v-532h774v-121h-909zM600 1643v184h152v-184h-152z" />
    <glyph glyph-name="edotaccent" unicode="&#x117;" horiz-adv-x="1030" 
d="M296.5 56q-98.5 68 -147.5 182.5t-49 255.5q0 139 48.5 257t143 189.5t228.5 71.5q150 0 242.5 -69.5t132 -178.5t39.5 -236q0 -35 -4 -71h-699q-3 -98 31.5 -180t104 -131.5t168.5 -49.5q96 0 164.5 23.5t125.5 83.5l86 -66q-81 -79 -168.5 -114t-205.5 -35
q-142 0 -240.5 68zM815 565q0 90 -28.5 167.5t-94.5 127t-172 49.5q-92 0 -156.5 -47t-97 -125t-35.5 -172h584zM430 1229v184h152v-184h-152z" />
    <glyph glyph-name="Eogonek" unicode="&#x118;" horiz-adv-x="1237" 
d="M219 0v1413h909v-113h-774v-538h662v-109h-662v-532h774v-121h-909zM894.5 -425.5q-45.5 25.5 -71.5 72t-26 107.5q0 99 70.5 159.5t154.5 86.5h106q-8 0 -68 -30.5t-111.5 -82t-51.5 -120.5q0 -51 26 -82t64 -31q42 0 72.5 16t54.5 49l86 -59q-37 -54 -84.5 -82.5
t-118.5 -28.5q-57 0 -102.5 25.5z" />
    <glyph glyph-name="eogonek" unicode="&#x119;" horiz-adv-x="1030" 
d="M231 457q-3 -98 31.5 -180t104 -131.5t168.5 -49.5q96 0 164.5 23.5t125.5 83.5l86 -66q-50 -50 -102 -81.5t-111 -47.5q-63 -36 -107 -84.5t-44 -111.5q0 -51 26 -82t64 -31q42 0 72.5 16t54.5 49l86 -59q-37 -54 -84.5 -82.5t-118.5 -28.5q-57 0 -102.5 25.5t-71.5 72
t-26 107.5q0 114 107 189h-17q-142 0 -240.5 68t-147.5 182.5t-49 255.5q0 139 48.5 257t143 189.5t228.5 71.5q150 0 242.5 -69.5t132 -178.5t39.5 -236q0 -35 -4 -71h-699zM363.5 862q-64.5 -47 -97 -125t-35.5 -172h584q0 90 -28.5 167.5t-94.5 127t-172 49.5
q-92 0 -156.5 -47z" />
    <glyph glyph-name="Ecaron" unicode="&#x11a;" horiz-adv-x="1237" 
d="M219 0v1413h909v-113h-774v-538h662v-109h-662v-532h774v-121h-909zM678 1495l-332 332h156l176 -192l178 192h154z" />
    <glyph glyph-name="ecaron" unicode="&#x11b;" horiz-adv-x="1030" 
d="M296.5 56q-98.5 68 -147.5 182.5t-49 255.5q0 139 48.5 257t143 189.5t228.5 71.5q150 0 242.5 -69.5t132 -178.5t39.5 -236q0 -35 -4 -71h-699q-3 -98 31.5 -180t104 -131.5t168.5 -49.5q96 0 164.5 23.5t125.5 83.5l86 -66q-81 -79 -168.5 -114t-205.5 -35
q-142 0 -240.5 68zM815 565q0 90 -28.5 167.5t-94.5 127t-172 49.5q-92 0 -156.5 -47t-97 -125t-35.5 -172h584zM508 1081l-332 332h156l176 -192l178 192h154z" />
    <glyph glyph-name="Gbreve" unicode="&#x11e;" horiz-adv-x="1503" 
d="M412 76.5q-140 96.5 -208.5 261t-68.5 369.5q0 203 69.5 368.5t209.5 263t342 97.5q196 0 339.5 -94.5t223.5 -274.5l-125 -55q-69 142 -180 217.5t-260 75.5q-165 0 -274 -79.5t-160.5 -212.5t-51.5 -296q0 -171 51.5 -308t161.5 -218.5t277 -81.5q127 0 231.5 57
t166 167.5t61.5 264.5h-324v104h448v-702h-114l4 272q-28 -77 -92.5 -143.5t-162.5 -107.5t-218 -41q-206 0 -346 96.5zM604.5 1588.5q-69.5 31.5 -109.5 92.5t-40 146h127q0 -47 23.5 -84.5t64.5 -58.5t90 -21q48 0 88.5 20.5t64 58t23.5 85.5h127q0 -85 -39.5 -146
t-108.5 -92.5t-155 -31.5t-155.5 31.5z" />
    <glyph glyph-name="gbreve" unicode="&#x11f;" horiz-adv-x="1018" 
d="M731 81.5q81 -21.5 138 -78t57 -161.5q0 -96 -54 -163t-142.5 -100.5t-192.5 -33.5q-123 0 -219 45t-149.5 121.5t-53.5 169.5q0 23 2 37l154 158q-134 70 -134 207q0 44 15 83t53 73q-41 44 -62.5 101t-21.5 126q0 103 47.5 181.5t130.5 121.5t186 43q80 0 147.5 -27
t115.5 -75l151 139l74 -95l-165 -128q36 -75 36 -160q0 -104 -47 -180.5t-129 -117t-185 -40.5t-187 42q-22 -18 -34 -38t-12 -45q0 -75 70 -111.5t188 -52.5q142 -20 223 -41.5zM359 878q-53 -33 -82 -88.5t-29 -119.5q0 -71 29 -125t81.5 -83.5t122.5 -29.5t123.5 29.5
t83 83.5t29.5 125q0 66 -29.5 121t-83 87.5t-123.5 32.5q-69 0 -122 -33zM681 -318.5q61 19.5 98.5 58.5t37.5 96q0 58 -35.5 90t-89 46t-150.5 29l-67 11q-56 10 -104 24l-135 -157q-2 -53 35 -103t109.5 -82t170.5 -32q69 0 130 19.5zM342.5 1174.5
q-69.5 31.5 -109.5 92.5t-40 146h127q0 -47 23.5 -84.5t64.5 -58.5t90 -21q48 0 88.5 20.5t64 58t23.5 85.5h127q0 -85 -39.5 -146t-108.5 -92.5t-155 -31.5t-155.5 31.5z" />
    <glyph glyph-name="Gdotaccent" unicode="&#x120;" horiz-adv-x="1503" 
d="M412 76.5q-140 96.5 -208.5 261t-68.5 369.5q0 203 69.5 368.5t209.5 263t342 97.5q196 0 339.5 -94.5t223.5 -274.5l-125 -55q-69 142 -180 217.5t-260 75.5q-165 0 -274 -79.5t-160.5 -212.5t-51.5 -296q0 -171 51.5 -308t161.5 -218.5t277 -81.5q127 0 231.5 57
t166 167.5t61.5 264.5h-324v104h448v-702h-114l4 272q-28 -77 -92.5 -143.5t-162.5 -107.5t-218 -41q-206 0 -346 96.5zM682 1643v184h152v-184h-152z" />
    <glyph glyph-name="gdotaccent" unicode="&#x121;" horiz-adv-x="1018" 
d="M731 81.5q81 -21.5 138 -78t57 -161.5q0 -96 -54 -163t-142.5 -100.5t-192.5 -33.5q-123 0 -219 45t-149.5 121.5t-53.5 169.5q0 23 2 37l154 158q-134 70 -134 207q0 44 15 83t53 73q-41 44 -62.5 101t-21.5 126q0 103 47.5 181.5t130.5 121.5t186 43q80 0 147.5 -27
t115.5 -75l151 139l74 -95l-165 -128q36 -75 36 -160q0 -104 -47 -180.5t-129 -117t-185 -40.5t-187 42q-22 -18 -34 -38t-12 -45q0 -75 70 -111.5t188 -52.5q142 -20 223 -41.5zM359 878q-53 -33 -82 -88.5t-29 -119.5q0 -71 29 -125t81.5 -83.5t122.5 -29.5t123.5 29.5
t83 83.5t29.5 125q0 66 -29.5 121t-83 87.5t-123.5 32.5q-69 0 -122 -33zM681 -318.5q61 19.5 98.5 58.5t37.5 96q0 58 -35.5 90t-89 46t-150.5 29l-67 11q-56 10 -104 24l-135 -157q-2 -53 35 -103t109.5 -82t170.5 -32q69 0 130 19.5zM420 1229v184h152v-184h-152z" />
    <glyph glyph-name="Gcommaaccent" unicode="&#x122;" horiz-adv-x="1503" 
d="M412 76.5q-140 96.5 -208.5 261t-68.5 369.5q0 203 69.5 368.5t209.5 263t342 97.5q196 0 339.5 -94.5t223.5 -274.5l-125 -55q-69 142 -180 217.5t-260 75.5q-165 0 -274 -79.5t-160.5 -212.5t-51.5 -296q0 -171 51.5 -308t161.5 -218.5t277 -81.5q127 0 231.5 57
t166 167.5t61.5 264.5h-324v104h448v-702h-114l4 272q-28 -77 -92.5 -143.5t-162.5 -107.5t-218 -41q-206 0 -346 96.5zM563 -442l120 329h201l-223 -329h-98z" />
    <glyph glyph-name="gcommaaccent" unicode="&#x123;" horiz-adv-x="1018" 
d="M714 1419l-120 -294h-201l223 294h98zM731 81.5q81 -21.5 138 -78t57 -161.5q0 -96 -54 -163t-142.5 -100.5t-192.5 -33.5q-123 0 -219 45t-149.5 121.5t-53.5 169.5q0 23 2 37l154 158q-134 70 -134 207q0 44 15 83t53 73q-41 44 -62.5 101t-21.5 126q0 103 47.5 181.5
t130.5 121.5t186 43q80 0 147.5 -27t115.5 -75l151 139l74 -95l-165 -128q36 -75 36 -160q0 -104 -47 -180.5t-129 -117t-185 -40.5t-187 42q-22 -18 -34 -38t-12 -45q0 -75 70 -111.5t188 -52.5q142 -20 223 -41.5zM359 878q-53 -33 -82 -88.5t-29 -119.5q0 -71 29 -125
t81.5 -83.5t122.5 -29.5t123.5 29.5t83 83.5t29.5 125q0 66 -29.5 121t-83 87.5t-123.5 32.5q-69 0 -122 -33zM681 -318.5q61 19.5 98.5 58.5t37.5 96q0 58 -35.5 90t-89 46t-150.5 29l-67 11q-56 10 -104 24l-135 -157q-2 -53 35 -103t109.5 -82t170.5 -32q69 0 130 19.5z
" />
    <glyph glyph-name="Hbar" unicode="&#x126;" horiz-adv-x="1446" 
d="M1342 1153v-76h-115v-1077h-135v653h-738v-653h-135v1077h-118v76h118v260h135v-260h738v260h135v-260h115zM1092 762v315h-738v-315h738z" />
    <glyph glyph-name="hbar" unicode="&#x127;" horiz-adv-x="1112" 
d="M818.5 963.5q73.5 -52.5 108 -142t34.5 -200.5v-621h-127v598q0 126 -49 212.5t-171 86.5q-88 0 -160 -48t-113.5 -128.5t-41.5 -173.5v-547h-123v1132h-190v105h190v176h123v-176h322v-105h-322v-309q48 85 140 139t194 54q112 0 185.5 -52.5z" />
    <glyph glyph-name="Itilde" unicode="&#x128;" horiz-adv-x="573" 
d="M219 0v1413h135v-1413h-135zM322 1594.5q-34 23.5 -75 69.5q-30 34 -51 50.5t-46 16.5q-37 0 -53.5 -38.5t-16.5 -98.5h-90q0 108 41 174.5t117 66.5q39 0 69.5 -14.5t51.5 -34.5t48 -51q28 -33 47 -48.5t42 -15.5q74 0 74 158h96q0 -125 -44.5 -191.5t-127.5 -66.5
q-48 0 -82 23.5z" />
    <glyph glyph-name="itilde" unicode="&#x129;" horiz-adv-x="498" 
d="M174 0v999h150v-999h-150zM285 1180.5q-34 23.5 -75 69.5q-30 34 -51 50.5t-46 16.5q-37 0 -53.5 -38.5t-16.5 -98.5h-90q0 108 41 174.5t117 66.5q39 0 69.5 -14.5t51.5 -34.5t48 -51q28 -33 47 -48.5t42 -15.5q74 0 74 158h96q0 -125 -44.5 -191.5t-127.5 -66.5
q-48 0 -82 23.5z" />
    <glyph glyph-name="Imacron" unicode="&#x12a;" horiz-adv-x="573" 
d="M219 0v1413h135v-1413h-135zM19 1606v121h536v-121h-536z" />
    <glyph glyph-name="imacron" unicode="&#x12b;" horiz-adv-x="498" 
d="M174 0v999h150v-999h-150zM-18 1192v121h536v-121h-536z" />
    <glyph glyph-name="Iogonek" unicode="&#x12e;" horiz-adv-x="573" 
d="M219 0v1413h135v-1413h-135zM120.5 -425.5q-45.5 25.5 -71.5 72t-26 107.5q0 99 70.5 159.5t154.5 86.5h106q-8 0 -68 -30.5t-111.5 -82t-51.5 -120.5q0 -51 26 -82t64 -31q42 0 72.5 16t54.5 49l86 -59q-37 -54 -84.5 -82.5t-118.5 -28.5q-57 0 -102.5 25.5z" />
    <glyph glyph-name="iogonek" unicode="&#x12f;" horiz-adv-x="498" 
d="M174 0v999h150v-999h-150zM170 1229v184h152v-184h-152zM90.5 -425.5q-45.5 25.5 -71.5 72t-26 107.5q0 99 70.5 159.5t154.5 86.5h106q-8 0 -68 -30.5t-111.5 -82t-51.5 -120.5q0 -51 26 -82t64 -31q42 0 72.5 16t54.5 49l86 -59q-37 -54 -84.5 -82.5t-118.5 -28.5
q-57 0 -102.5 25.5z" />
    <glyph glyph-name="Idotaccent" unicode="&#x130;" horiz-adv-x="573" 
d="M219 0v1413h135v-1413h-135zM207 1643v184h152v-184h-152z" />
    <glyph glyph-name="dotlessi" unicode="&#x131;" horiz-adv-x="498" 
d="M174 0v999h150v-999h-150z" />
    <glyph glyph-name="IJ" unicode="&#x132;" horiz-adv-x="1687" 
d="M219 0v1413h135v-1413h-135zM856 33.5q-91 53.5 -142 145.5t-59 206l131 18q5 -80 36.5 -149.5t93.5 -113.5t153 -44q113 0 176 50.5t86.5 134t23.5 198.5v821h-532v113h668v-913q0 -250 -101 -385t-321 -135q-122 0 -213 53.5z" />
    <glyph glyph-name="Kcommaaccent" unicode="&#x136;" horiz-adv-x="1442" 
d="M219 0v1413h135v-852l805 852h170l-526 -551l565 -862h-160l-493 768l-361 -373v-395h-135zM475 -442l120 329h201l-223 -329h-98z" />
    <glyph glyph-name="kcommaaccent" unicode="&#x137;" horiz-adv-x="1030" 
d="M176 0v1413h127v-983l463 569h154l-314 -362l385 -637h-149l-310 547l-229 -254v-293h-127zM373 -442l120 329h201l-223 -329h-98z" />
    <glyph glyph-name="kgreenlandic" unicode="&#x138;" horiz-adv-x="1026" 
d="M174 0v999h125v-550l463 550h153l-313 -362l385 -637h-151l-308 543l-229 -254v-289h-125z" />
    <glyph glyph-name="Lacute" unicode="&#x139;" horiz-adv-x="1030" 
d="M219 0v1413h135v-1292h604v-121h-739zM221 1538l215 289h176l-268 -289h-123z" />
    <glyph glyph-name="lacute" unicode="&#x13a;" horiz-adv-x="504" 
d="M222.5 5.5q-32.5 25.5 -41.5 64t-9 97.5v36v1210h127v-1272v-17.5t9.5 -19t31.5 -16.5q54 0 104 10v-98q-21 -8 -54.5 -14t-67.5 -6q-67 0 -99.5 25.5zM137 1538l215 289h176l-268 -289h-123z" />
    <glyph glyph-name="Lcommaaccent" unicode="&#x13b;" horiz-adv-x="1030" 
d="M219 0v1413h135v-1292h604v-121h-739zM312 -442l120 329h201l-223 -329h-98z" />
    <glyph glyph-name="lcommaaccent" unicode="&#x13c;" horiz-adv-x="504" 
d="M222.5 5.5q-32.5 25.5 -41.5 64t-9 97.5v36v1210h127v-1272v-17.5t9.5 -19t31.5 -16.5q54 0 104 10v-98q-21 -8 -54.5 -14t-67.5 -6q-67 0 -99.5 25.5zM131 -442l120 329h201l-223 -329h-98z" />
    <glyph glyph-name="Lcaron" unicode="&#x13d;" horiz-adv-x="1038" 
d="M219 0v1413h135v-1292h604v-121h-739zM584 1032l100 381h201l-203 -381h-98z" />
    <glyph glyph-name="lcaron" unicode="&#x13e;" horiz-adv-x="543" 
d="M222.5 5.5q-32.5 25.5 -41.5 64t-9 97.5v36v1210h127v-1272v-17.5t9.5 -19t31.5 -16.5q54 0 104 10v-98q-21 -8 -54.5 -14t-67.5 -6q-67 0 -99.5 25.5zM424 1032l100 381h201l-203 -381h-98z" />
    <glyph glyph-name="Lslash" unicode="&#x141;" horiz-adv-x="1051" 
d="M370 121h604v-121h-739v317l-104 -114v164l104 118v928h135v-774l398 453v-191l-398 -436v-344z" />
    <glyph glyph-name="lslash" unicode="&#x142;" horiz-adv-x="504" 
d="M299 123.5q0 -2.5 9.5 -19t31.5 -16.5q54 0 104 10v-98q-21 -8 -54.5 -14t-67.5 -6q-67 0 -99.5 25.5t-41.5 64t-9 97.5v36v305l-180 -203v127l180 203v778h127v-635l199 224v-127l-199 -224v-510v-17.5z" />
    <glyph glyph-name="Nacute" unicode="&#x143;" horiz-adv-x="1409" 
d="M219 0v1413h223l613 -1309v1309h135v-1413h-227l-607 1311v-1311h-137zM612 1538l215 289h176l-268 -289h-123z" />
    <glyph glyph-name="nacute" unicode="&#x144;" horiz-adv-x="1108" 
d="M174 999h125v-188q50 95 133 150t197 55q111 0 184.5 -54t108 -146t34.5 -208v-608h-125v598q0 128 -54 221.5t-181 93.5q-83 0 -150.5 -46t-107 -136t-39.5 -219v-512h-125v999zM451 1124l215 289h176l-268 -289h-123z" />
    <glyph glyph-name="Ncommaaccent" unicode="&#x145;" horiz-adv-x="1409" 
d="M219 0v1413h223l613 -1309v1309h135v-1413h-227l-607 1311v-1311h-137zM479 -442l120 329h201l-223 -329h-98z" />
    <glyph glyph-name="ncommaaccent" unicode="&#x146;" horiz-adv-x="1108" 
d="M174 999h125v-188q50 95 133 150t197 55q111 0 184.5 -54t108 -146t34.5 -208v-608h-125v598q0 128 -54 221.5t-181 93.5q-83 0 -150.5 -46t-107 -136t-39.5 -219v-512h-125v999zM318 -442l120 329h201l-223 -329h-98z" />
    <glyph glyph-name="Ncaron" unicode="&#x147;" horiz-adv-x="1409" 
d="M219 0v1413h223l613 -1309v1309h135v-1413h-227l-607 1311v-1311h-137zM702 1495l-332 332h156l176 -192l178 192h154z" />
    <glyph glyph-name="ncaron" unicode="&#x148;" horiz-adv-x="1108" 
d="M174 999h125v-188q50 95 133 150t197 55q111 0 184.5 -54t108 -146t34.5 -208v-608h-125v598q0 128 -54 221.5t-181 93.5q-83 0 -150.5 -46t-107 -136t-39.5 -219v-512h-125v999zM541 1081l-332 332h156l176 -192l178 192h154z" />
    <glyph glyph-name="Eng" unicode="&#x14a;" horiz-adv-x="1411" 
d="M850 -258q88 0 136 34t48 88q0 31 -14 60l-664 1362v-1286h-137v1413h215l621 -1286v1286h135v-1413v-32q0 -337 -270 -337h-70v111z" />
    <glyph glyph-name="eng" unicode="&#x14b;" horiz-adv-x="1110" 
d="M627 -258h51q69 0 102 32.5t41 71.5t8 82v670q0 126 -47 208.5t-168 82.5q-84 0 -155.5 -43t-113.5 -115.5t-42 -157.5v-573h-129v999h129v-165q45 80 132 131t186 51q175 0 256 -114.5t81 -293.5v-696q0 -115 -51 -198t-205 -83h-75v111z" />
    <glyph glyph-name="Omacron" unicode="&#x14c;" horiz-adv-x="1511" 
d="M412 77q-140 97 -209.5 262t-69.5 368q0 202 69.5 367t209.5 262.5t342 97.5q204 0 344.5 -97.5t210 -262t69.5 -367.5t-69.5 -368t-210 -262t-344.5 -97q-202 0 -342 97zM1035 188.5q112 82.5 165 218.5t53 300q0 163 -53 299t-165 218.5t-281 82.5q-166 0 -277 -82.5
t-164 -218.5t-53 -299q0 -164 53 -300t164 -218.5t277 -82.5q169 0 281 82.5zM488 1606v121h536v-121h-536z" />
    <glyph glyph-name="omacron" unicode="&#x14d;" horiz-adv-x="1116" 
d="M316 50.5q-105 70.5 -163.5 190t-58.5 261.5t58.5 260.5t163.5 188t239 69.5t240.5 -69.5t166.5 -188.5t60 -260q0 -142 -60 -261.5t-166.5 -190t-240.5 -70.5t-239 70.5zM745 141.5q77 59.5 114.5 155.5t37.5 205t-37.5 204t-113.5 153.5t-187 58.5q-110 0 -187 -58.5
t-115 -153.5t-38 -204q0 -110 38 -206t114.5 -155t185.5 -59q111 0 188 59.5zM291 1192v121h536v-121h-536z" />
    <glyph glyph-name="Ohungarumlaut" unicode="&#x150;" horiz-adv-x="1511" 
d="M412 77q-140 97 -209.5 262t-69.5 368q0 202 69.5 367t209.5 262.5t342 97.5q204 0 344.5 -97.5t210 -262t69.5 -367.5t-69.5 -368t-210 -262t-344.5 -97q-202 0 -342 97zM1035 188.5q112 82.5 165 218.5t53 300q0 163 -53 299t-165 218.5t-281 82.5q-166 0 -277 -82.5
t-164 -218.5t-53 -299q0 -164 53 -300t164 -218.5t277 -82.5q169 0 281 82.5zM502 1542l215 285h180l-272 -285h-123zM827 1542l215 285h177l-269 -285h-123z" />
    <glyph glyph-name="ohungarumlaut" unicode="&#x151;" horiz-adv-x="1116" 
d="M316 50.5q-105 70.5 -163.5 190t-58.5 261.5t58.5 260.5t163.5 188t239 69.5t240.5 -69.5t166.5 -188.5t60 -260q0 -142 -60 -261.5t-166.5 -190t-240.5 -70.5t-239 70.5zM745 141.5q77 59.5 114.5 155.5t37.5 205t-37.5 204t-113.5 153.5t-187 58.5q-110 0 -187 -58.5
t-115 -153.5t-38 -204q0 -110 38 -206t114.5 -155t185.5 -59q111 0 188 59.5zM305 1128l215 285h180l-272 -285h-123zM630 1128l215 285h177l-269 -285h-123z" />
    <glyph glyph-name="OE" unicode="&#x152;" horiz-adv-x="2241" 
d="M412 77q-140 97 -209.5 262t-69.5 368q0 202 69.5 367t209.5 262.5t342 97.5q191 0 309.5 -78.5t179.5 -225.5v283h889v-113h-754v-538h662v-109h-662v-532h754v-121h-889v283q-57 -143 -177.5 -223t-311.5 -80q-202 0 -342 97zM1032.5 183.5q109.5 83.5 160 221
t50.5 302.5t-50.5 302t-160 220.5t-278.5 83.5q-166 0 -275 -83.5t-160 -221t-51 -301.5q0 -165 51 -302.5t160 -221t275 -83.5q169 0 278.5 83.5z" />
    <glyph glyph-name="oe" unicode="&#x153;" horiz-adv-x="1774" 
d="M316 49q-105 69 -163.5 187t-58.5 260q0 141 59 259.5t164 187.5t238 69q128 0 224 -58t151 -163q45 101 133.5 161t216.5 60q220 0 314 -147t94 -382v-26h-699q-2 -100 31.5 -184t102.5 -134.5t169 -50.5q95 0 161 22t124 85l80 -62q-76 -81 -160.5 -113t-202.5 -32
q-252 0 -362 219q-53 -105 -149.5 -166t-227.5 -61q-134 0 -239 69zM1577 565q3 98 -29.5 174.5t-100 120t-167.5 43.5q-95 0 -160 -45t-98 -121.5t-35 -171.5h590zM741 154q72 54 104 143.5t32 198.5t-32.5 198.5t-105 144t-184.5 54.5q-109 0 -180 -54.5t-104 -144.5
t-33 -198t33.5 -197.5t105 -144t180.5 -54.5q112 0 184 54z" />
    <glyph glyph-name="Racute" unicode="&#x154;" horiz-adv-x="1208" 
d="M219 1411h391q123 0 221.5 -47t154.5 -135t56 -205q0 -95 -37.5 -172t-107 -127t-162.5 -66l381 -661h-160l-354 641h-248v-641h-135v1413zM637 770q123 6 198.5 72t75.5 184q0 84 -38.5 144t-106 91t-154.5 31h-256v-522h281zM518 1538l215 289h176l-268 -289h-123z" />
    <glyph glyph-name="racute" unicode="&#x155;" horiz-adv-x="791" 
d="M174 999h127v-180q40 92 122 146.5t179 54.5q87 0 156 -47l-51 -111q-44 39 -125 39q-137 0 -210 -101t-73 -282v-518h-125v999zM256 1124l215 289h176l-268 -289h-123z" />
    <glyph glyph-name="Rcommaaccent" unicode="&#x156;" horiz-adv-x="1208" 
d="M219 1411h391q123 0 221.5 -47t154.5 -135t56 -205q0 -95 -37.5 -172t-107 -127t-162.5 -66l381 -661h-160l-354 641h-248v-641h-135v1413zM637 770q123 6 198.5 72t75.5 184q0 84 -38.5 144t-106 91t-154.5 31h-256v-522h281zM465 -442l120 329h201l-223 -329h-98z" />
    <glyph glyph-name="rcommaaccent" unicode="&#x157;" horiz-adv-x="791" 
d="M174 999h127v-180q40 92 122 146.5t179 54.5q87 0 156 -47l-51 -111q-44 39 -125 39q-137 0 -210 -101t-73 -282v-518h-125v999zM15 -442l120 329h201l-223 -329h-98z" />
    <glyph glyph-name="Rcaron" unicode="&#x158;" horiz-adv-x="1208" 
d="M219 1411h391q123 0 221.5 -47t154.5 -135t56 -205q0 -95 -37.5 -172t-107 -127t-162.5 -66l381 -661h-160l-354 641h-248v-641h-135v1413zM637 770q123 6 198.5 72t75.5 184q0 84 -38.5 144t-106 91t-154.5 31h-256v-522h281zM608 1495l-332 332h156l176 -192l178 192
h154z" />
    <glyph glyph-name="rcaron" unicode="&#x159;" horiz-adv-x="791" 
d="M174 999h127v-180q40 92 122 146.5t179 54.5q87 0 156 -47l-51 -111q-44 39 -125 39q-137 0 -210 -101t-73 -282v-518h-125v999zM346 1081l-332 332h156l176 -192l178 192h154z" />
    <glyph glyph-name="Sacute" unicode="&#x15a;" 
d="M350 25.5q-101 41.5 -170 124.5t-88 202l123 39q10 -93 60.5 -158t126.5 -97t165 -32q137 0 218 67.5t81 203.5q0 87 -44 147.5t-109 99t-175 87.5q-116 52 -186 94t-118 111t-48 169q0 102 49.5 182t134 124.5t185.5 44.5q125 0 222 -53t161 -160l-96 -68
q-43 83 -119 124.5t-168 41.5q-63 0 -118 -27t-88.5 -77t-33.5 -117q0 -71 39.5 -122.5t98.5 -86.5t162 -83q122 -56 198 -103.5t129 -125.5t53 -192q0 -120 -55.5 -211t-152.5 -140.5t-220 -49.5q-116 0 -217 41.5zM457 1538l215 289h176l-268 -289h-123z" />
    <glyph glyph-name="sacute" unicode="&#x15b;" horiz-adv-x="858" 
d="M282.5 12.5q-73.5 32.5 -124.5 87t-74 119.5l109 60q28 -90 94 -143.5t164 -53.5q89 0 146.5 44.5t57.5 131.5q0 67 -34.5 109t-84.5 65.5t-137 52.5q-93 31 -149 58t-94.5 77.5t-38.5 131.5q0 83 41 144t110 92.5t152 31.5q108 0 189.5 -52.5t125.5 -142.5l-90 -53
q-34 71 -92 108.5t-137 37.5q-85 0 -136 -42t-51 -110q0 -53 31 -87.5t77.5 -55t126.5 -45.5q101 -32 162.5 -61.5t105.5 -87t44 -150.5q0 -96 -46 -163.5t-122 -101.5t-164 -34t-161.5 32.5zM338 1124l215 289h176l-268 -289h-123z" />
    <glyph glyph-name="Scedilla" unicode="&#x15e;" 
d="M944.5 183q-50.5 -88 -139.5 -139.5t-203 -58.5l-57 -106q90 -1 137 -52t47 -124q0 -51 -24.5 -97.5t-72 -76t-110.5 -29.5q-62 0 -110 35.5t-68 87.5l90 49q5 -31 31 -54.5t63 -23.5q46 0 74.5 29.5t28.5 71.5q0 33 -20.5 62t-63.5 48t-107 19h-34l86 165
q-100 12 -184.5 57t-141.5 123t-74 183l123 39q10 -93 60.5 -158t126.5 -97t165 -32q137 0 218 67.5t81 203.5q0 87 -44 147.5t-109 99t-175 87.5q-116 52 -186 94t-118 111t-48 169q0 102 49.5 182t134 124.5t185.5 44.5q125 0 222 -53t161 -160l-96 -68q-43 83 -119 124.5
t-168 41.5q-63 0 -118 -27t-88.5 -77t-33.5 -117q0 -71 39.5 -122.5t98.5 -86.5t162 -83q122 -56 198 -103.5t129 -125.5t53 -192t-50.5 -202z" />
    <glyph glyph-name="scedilla" unicode="&#x15f;" horiz-adv-x="858" 
d="M741 134q-35 -62 -94 -99t-133 -49l-57 -107q90 -1 137 -52t47 -124q0 -51 -24.5 -97.5t-72 -76t-110.5 -29.5q-62 0 -110 35.5t-68 87.5l90 49q5 -31 31 -54.5t63 -23.5q46 0 74.5 29.5t28.5 71.5q0 33 -20.5 62t-63.5 48t-107 19h-34l83 158q-77 8 -142 41.5
t-109.5 84.5t-65.5 111l109 60q28 -90 94 -143.5t164 -53.5q89 0 146.5 44.5t57.5 131.5q0 67 -34.5 109t-84.5 65.5t-137 52.5q-93 31 -149 58t-94.5 77.5t-38.5 131.5q0 83 41 144t110 92.5t152 31.5q108 0 189.5 -52.5t125.5 -142.5l-90 -53q-34 71 -92 108.5t-137 37.5
q-85 0 -136 -42t-51 -110q0 -53 31 -87.5t77.5 -55t126.5 -45.5q101 -32 162.5 -61.5t105.5 -87t44 -150.5q0 -83 -35 -145z" />
    <glyph glyph-name="Scaron" unicode="&#x160;" 
d="M350 25.5q-101 41.5 -170 124.5t-88 202l123 39q10 -93 60.5 -158t126.5 -97t165 -32q137 0 218 67.5t81 203.5q0 87 -44 147.5t-109 99t-175 87.5q-116 52 -186 94t-118 111t-48 169q0 102 49.5 182t134 124.5t185.5 44.5q125 0 222 -53t161 -160l-96 -68
q-43 83 -119 124.5t-168 41.5q-63 0 -118 -27t-88.5 -77t-33.5 -117q0 -71 39.5 -122.5t98.5 -86.5t162 -83q122 -56 198 -103.5t129 -125.5t53 -192q0 -120 -55.5 -211t-152.5 -140.5t-220 -49.5q-116 0 -217 41.5zM547 1495l-332 332h156l176 -192l178 192h154z" />
    <glyph glyph-name="scaron" unicode="&#x161;" horiz-adv-x="858" 
d="M282.5 12.5q-73.5 32.5 -124.5 87t-74 119.5l109 60q28 -90 94 -143.5t164 -53.5q89 0 146.5 44.5t57.5 131.5q0 67 -34.5 109t-84.5 65.5t-137 52.5q-93 31 -149 58t-94.5 77.5t-38.5 131.5q0 83 41 144t110 92.5t152 31.5q108 0 189.5 -52.5t125.5 -142.5l-90 -53
q-34 71 -92 108.5t-137 37.5q-85 0 -136 -42t-51 -110q0 -53 31 -87.5t77.5 -55t126.5 -45.5q101 -32 162.5 -61.5t105.5 -87t44 -150.5q0 -96 -46 -163.5t-122 -101.5t-164 -34t-161.5 32.5zM428 1081l-332 332h156l176 -192l178 192h154z" />
    <glyph glyph-name="uni0162" unicode="&#x162;" horiz-adv-x="1247" 
d="M555 0v1307h-485v106h1108v-106h-486v-1307h-137zM494 -464.5q-48 35.5 -68 87.5l90 49q5 -31 31 -54.5t63 -23.5q46 0 74.5 29.5t28.5 71.5q0 33 -20.5 62t-63.5 48t-107 19h-34l92 176h112l-65 -121q90 -1 137 -52t47 -124q0 -51 -24.5 -97.5t-72 -76t-110.5 -29.5
q-62 0 -110 35.5z" />
    <glyph glyph-name="uni0163" unicode="&#x163;" horiz-adv-x="653" 
d="M569 -173q47 -51 47 -124q0 -51 -24.5 -97.5t-72 -76t-110.5 -29.5q-62 0 -110 35.5t-68 87.5l90 49q5 -31 31 -54.5t63 -23.5q46 0 74.5 29.5t28.5 71.5q0 33 -20.5 62t-63.5 48t-107 19h-34l84 161q-91 16 -129.5 86.5t-38.5 190.5v635h-160v102h160v220l125 131v-351
h254v-102h-254v-647q0 -82 36 -126t95 -44q41 0 90 22v-104q-23 -9 -67 -15l-56 -104q90 -1 137 -52z" />
    <glyph glyph-name="Tcaron" unicode="&#x164;" horiz-adv-x="1247" 
d="M555 0v1307h-485v106h1108v-106h-486v-1307h-137zM629 1495l-332 332h156l176 -192l178 192h154z" />
    <glyph glyph-name="tcaron" unicode="&#x165;" horiz-adv-x="653" 
d="M465 1094l117 352h182l-217 -352h-82zM261.5 52q-56.5 72 -56.5 210v635h-156v102h156v220l129 131v-351h254v-102h-254v-647q0 -83 28 -122.5t84 -39.5q32 0 56 3t37 6.5t16 4.5v-104q-4 -1 -19.5 -5.5t-41 -8.5t-54.5 -4q-122 0 -178.5 72z" />
    <glyph glyph-name="Tbar" unicode="&#x166;" horiz-adv-x="1247" 
d="M1178 1307h-486v-549h255v-105h-255v-653h-137v653h-243v105h243v549h-485v106h1108v-106z" />
    <glyph glyph-name="tbar" unicode="&#x167;" horiz-adv-x="653" 
d="M334 446v-196q0 -82 36 -126t95 -44q41 0 90 22v-104q-16 -7 -49 -12.5t-74 -5.5q-122 0 -172.5 73t-50.5 209v184h-217v105h217v346h-160v102h160v220l125 131v-351h254v-102h-254v-346h293v-105h-293z" />
    <glyph glyph-name="Utilde" unicode="&#x168;" horiz-adv-x="1346" 
d="M400.5 54q-107.5 74 -157.5 194t-50 262v903h135v-854q0 -206 79.5 -329.5t264.5 -123.5t266.5 124t81.5 329v854h135v-893q0 -146 -51 -268.5t-159.5 -197t-272.5 -74.5t-271.5 74zM715 1594.5q-34 23.5 -75 69.5q-30 34 -51 50.5t-46 16.5q-37 0 -53.5 -38.5
t-16.5 -98.5h-90q0 108 41 174.5t117 66.5q39 0 69.5 -14.5t51.5 -34.5t48 -51q28 -33 47 -48.5t42 -15.5q74 0 74 158h96q0 -125 -44.5 -191.5t-127.5 -66.5q-48 0 -82 23.5z" />
    <glyph glyph-name="utilde" unicode="&#x169;" 
d="M232.5 96q-82.5 119 -82.5 310v593h124v-604q0 -129 49 -222t169 -93q84 0 156.5 48.5t115.5 127.5t43 164v579h123v-999h-123v182q-18 -46 -63 -93.5t-111.5 -79.5t-145.5 -32q-172 0 -254.5 119zM592 1180.5q-34 23.5 -75 69.5q-30 34 -51 50.5t-46 16.5
q-37 0 -53.5 -38.5t-16.5 -98.5h-90q0 108 41 174.5t117 66.5q39 0 69.5 -14.5t51.5 -34.5t48 -51q28 -33 47 -48.5t42 -15.5q74 0 74 158h96q0 -125 -44.5 -191.5t-127.5 -66.5q-48 0 -82 23.5z" />
    <glyph glyph-name="Umacron" unicode="&#x16a;" horiz-adv-x="1346" 
d="M400.5 54q-107.5 74 -157.5 194t-50 262v903h135v-854q0 -206 79.5 -329.5t264.5 -123.5t266.5 124t81.5 329v854h135v-893q0 -146 -51 -268.5t-159.5 -197t-272.5 -74.5t-271.5 74zM412 1606v121h536v-121h-536z" />
    <glyph glyph-name="umacron" unicode="&#x16b;" 
d="M232.5 96q-82.5 119 -82.5 310v593h124v-604q0 -129 49 -222t169 -93q84 0 156.5 48.5t115.5 127.5t43 164v579h123v-999h-123v182q-18 -46 -63 -93.5t-111.5 -79.5t-145.5 -32q-172 0 -254.5 119zM289 1192v121h536v-121h-536z" />
    <glyph glyph-name="Uring" unicode="&#x16e;" horiz-adv-x="1346" 
d="M400.5 54q-107.5 74 -157.5 194t-50 262v903h135v-854q0 -206 79.5 -329.5t264.5 -123.5t266.5 124t81.5 329v854h135v-893q0 -146 -51 -268.5t-159.5 -197t-272.5 -74.5t-271.5 74zM576 1521.5q-45 26.5 -70.5 71.5t-25.5 99q0 53 26 98.5t71 72t99 26.5q53 0 98 -26
t72 -71.5t27 -99.5t-26.5 -99t-71.5 -71.5t-99 -26.5q-55 0 -100 26.5zM747 1621q30 29 30 71q0 41 -29 69.5t-72 28.5q-44 0 -71 -27t-27 -71t28 -72t70 -28q41 0 71 29z" />
    <glyph glyph-name="uring" unicode="&#x16f;" 
d="M232.5 96q-82.5 119 -82.5 310v593h124v-604q0 -129 49 -222t169 -93q84 0 156.5 48.5t115.5 127.5t43 164v579h123v-999h-123v182q-18 -46 -63 -93.5t-111.5 -79.5t-145.5 -32q-172 0 -254.5 119zM453 1107.5q-45 26.5 -70.5 71.5t-25.5 99q0 53 26 98.5t71 72t99 26.5
q53 0 98 -26t72 -71.5t27 -99.5t-26.5 -99t-71.5 -71.5t-99 -26.5q-55 0 -100 26.5zM624 1207q30 29 30 71q0 41 -29 69.5t-72 28.5q-44 0 -71 -27t-27 -71t28 -72t70 -28q41 0 71 29z" />
    <glyph glyph-name="Uhungarumlaut" unicode="&#x170;" horiz-adv-x="1346" 
d="M400.5 54q-107.5 74 -157.5 194t-50 262v903h135v-854q0 -206 79.5 -329.5t264.5 -123.5t266.5 124t81.5 329v854h135v-893q0 -146 -51 -268.5t-159.5 -197t-272.5 -74.5t-271.5 74zM426 1542l215 285h180l-272 -285h-123zM751 1542l215 285h177l-269 -285h-123z" />
    <glyph glyph-name="uhungarumlaut" unicode="&#x171;" 
d="M232.5 96q-82.5 119 -82.5 310v593h124v-604q0 -129 49 -222t169 -93q84 0 156.5 48.5t115.5 127.5t43 164v579h123v-999h-123v182q-18 -46 -63 -93.5t-111.5 -79.5t-145.5 -32q-172 0 -254.5 119zM303 1128l215 285h180l-272 -285h-123zM628 1128l215 285h177l-269 -285
h-123z" />
    <glyph glyph-name="Uogonek" unicode="&#x172;" horiz-adv-x="1346" 
d="M1155 1413v-893q0 -177 -73 -314.5t-221 -193.5h3q-8 0 -68 -30.5t-111.5 -82t-51.5 -120.5q0 -51 26 -82t64 -31q42 0 72.5 16t54.5 49l86 -59q-37 -54 -84.5 -82.5t-118.5 -28.5q-57 0 -102.5 25.5t-71.5 72t-26 107.5q0 75 42 127.5t106 86.5h-9q-164 0 -271.5 74
t-157.5 194t-50 262v903h135v-854q0 -206 79.5 -329.5t264.5 -123.5t266.5 124t81.5 329v854h135z" />
    <glyph glyph-name="uogonek" unicode="&#x173;" 
d="M1002 -340q-37 -54 -84.5 -82.5t-118.5 -28.5q-57 0 -102.5 25.5t-71.5 72t-26 107.5q0 99 70.5 159.5t154.5 86.5h-17v182q-18 -46 -63 -93.5t-111.5 -79.5t-145.5 -32q-172 0 -254.5 119t-82.5 310v593h124v-604q0 -129 49 -222t169 -93q84 0 156.5 48.5t115.5 127.5
t43 164v579h123v-999q-8 0 -68 -30.5t-111.5 -82t-51.5 -120.5q0 -51 26 -82t64 -31q42 0 72.5 16t54.5 49z" />
    <glyph glyph-name="Wcircumflex" unicode="&#x174;" horiz-adv-x="1966" 
d="M477 0l-391 1413h137l344 -1263l361 1181h110l363 -1181l342 1263h137l-391 -1413h-156l-346 1112l-354 -1112h-156zM655 1481l332 356l332 -356h-154l-178 196l-176 -196h-156z" />
    <glyph glyph-name="wcircumflex" unicode="&#x175;" horiz-adv-x="1407" 
d="M332 0l-273 999h134l213 -845l239 845h119l240 -843l210 843h134l-273 -999h-127l-241 850l-248 -850h-127zM375 1098l332 356l332 -356h-154l-178 196l-176 -196h-156z" />
    <glyph glyph-name="Ycircumflex" unicode="&#x176;" horiz-adv-x="1315" 
d="M594 0v553l-528 860h155l436 -719l439 719h153l-526 -860v-553h-129zM325 1512l332 356l332 -356h-154l-178 196l-176 -196h-156z" />
    <glyph glyph-name="ycircumflex" unicode="&#x177;" horiz-adv-x="961" 
d="M260 -430l168 430l-383 999h139l303 -847l291 847h137l-526 -1429h-129zM143 1098l332 356l332 -356h-154l-178 196l-176 -196h-156z" />
    <glyph glyph-name="Ydieresis" unicode="&#x178;" horiz-adv-x="1315" 
d="M594 0v553l-528 860h155l436 -719l439 719h153l-526 -860v-553h-129zM409 1643v184h160v-184h-160zM741 1643v184h160v-184h-160z" />
    <glyph glyph-name="Zacute" unicode="&#x179;" horiz-adv-x="1274" 
d="M94 0v111l922 1189h-877v113h1030v-117l-917 -1173h917v-123h-1075zM549 1538l215 289h176l-268 -289h-123z" />
    <glyph glyph-name="zacute" unicode="&#x17a;" horiz-adv-x="911" 
d="M831 999v-110l-613 -780h613v-109h-761v100l622 797h-594v102h733zM359 1124l215 289h176l-268 -289h-123z" />
    <glyph glyph-name="Zdotaccent" unicode="&#x17b;" horiz-adv-x="1274" 
d="M94 0v111l922 1189h-877v113h1030v-117l-917 -1173h917v-123h-1075zM561 1643v184h152v-184h-152z" />
    <glyph glyph-name="zdotaccent" unicode="&#x17c;" horiz-adv-x="911" 
d="M831 999v-110l-613 -780h613v-109h-761v100l622 797h-594v102h733zM371 1229v184h152v-184h-152z" />
    <glyph glyph-name="Zcaron" unicode="&#x17d;" horiz-adv-x="1274" 
d="M94 0v111l922 1189h-877v113h1030v-117l-917 -1173h917v-123h-1075zM639 1495l-332 332h156l176 -192l178 192h154z" />
    <glyph glyph-name="zcaron" unicode="&#x17e;" horiz-adv-x="911" 
d="M831 999v-110l-613 -780h613v-109h-761v100l622 797h-594v102h733zM449 1081l-332 332h156l176 -192l178 192h154z" />
    <glyph glyph-name="florin" unicode="&#x192;" horiz-adv-x="1051" 
d="M127 -340q172 0 255 79.5t83 246.5v899h-178v114h178v170q0 81 35 145t94 100t129 36q48 0 97.5 -17.5t86.5 -50.5l-76 -90q-22 20 -53 30.5t-55 10.5q-59 0 -100 -43t-41 -121v-170h305v-114h-305v-899q0 -143 -57 -242.5t-159.5 -150t-238.5 -50.5v117z" />
    <glyph glyph-name="uni01C3" unicode="&#x1c3;" horiz-adv-x="659" 
d="M283 367l-29 1069h152l-29 -1069h-94zM242 0v174h176v-174h-176z" />
    <glyph glyph-name="uni01C4" unicode="&#x1c4;" horiz-adv-x="2679" 
d="M219 1413h348q226 0 384.5 -82.5t240.5 -243t82 -391.5q0 -222 -83 -378t-242 -237t-384 -81h-346v1413zM541 123q171 0 306 64.5t213.5 196t78.5 323.5q0 282 -147 434.5t-429 152.5h-209v-1171h187zM1499 0v111l922 1189h-877v113h1030v-117l-917 -1173h917v-123h-1075
zM2044 1495l-332 332h156l176 -192l178 192h154z" />
    <glyph glyph-name="uni01C5" unicode="&#x1c5;" horiz-adv-x="2316" 
d="M219 1413h348q226 0 384.5 -82.5t240.5 -243t82 -391.5q0 -222 -83 -378t-242 -237t-384 -81h-346v1413zM541 123q171 0 306 64.5t213.5 196t78.5 323.5q0 282 -147 434.5t-429 152.5h-209v-1171h187zM2236 999v-110l-613 -780h613v-109h-761v100l622 797h-594v102h733z
M1854 1081l-332 332h156l176 -192l178 192h154z" />
    <glyph glyph-name="uni01C6" unicode="&#x1c6;" horiz-adv-x="2029" 
d="M942 1413v-1413h-125v146q-55 -78 -130.5 -122t-188.5 -44q-121 0 -210.5 69t-136.5 187.5t-47 263.5t47 263.5t136.5 187.5t210.5 69q209 0 319 -166v559h125zM698 140q67 58 98 152.5t31 207.5q0 112 -31 206.5t-98 153t-168 58.5q-99 0 -166 -58.5t-99 -153.5
t-32 -206q0 -112 32 -207t99 -153t166 -58q101 0 168 58zM1949 999v-110l-613 -780h613v-109h-761v100l622 797h-594v102h733zM1567 1081l-332 332h156l176 -192l178 192h154z" />
    <glyph glyph-name="uni01C7" unicode="&#x1c7;" horiz-adv-x="2144" 
d="M219 0v1413h135v-1292h604v-121h-739zM1313 33.5q-91 53.5 -142 145.5t-59 206l131 18q5 -80 36.5 -149.5t93.5 -113.5t153 -44q113 0 176 50.5t86.5 134t23.5 198.5v821h-532v113h668v-913q0 -250 -101 -385t-321 -135q-122 0 -213 53.5z" />
    <glyph glyph-name="uni01C8" unicode="&#x1c8;" horiz-adv-x="1511" 
d="M219 0v1413h135v-1292h604v-121h-739zM1196 1237v176h149v-176h-149zM1017 -429q-42 9 -75 21l25 89q21 -7 57 -12t65 -5q63 0 90 42.5t27 103.5v1189h129v-1167q0 -126 -60.5 -198t-187.5 -72q-28 0 -70 9z" />
    <glyph glyph-name="uni01C9" unicode="&#x1c9;" horiz-adv-x="985" 
d="M222.5 5.5q-32.5 25.5 -41.5 64t-9 97.5v36v1210h127v-1272v-17.5t9.5 -19t31.5 -16.5q54 0 104 10v-98q-21 -8 -54.5 -14t-67.5 -6q-67 0 -99.5 25.5zM670 1237v176h149v-176h-149zM491 -429q-42 9 -75 21l25 89q21 -7 57 -12t65 -5q63 0 90 42.5t27 103.5v1189h129
v-1167q0 -126 -60.5 -198t-187.5 -72q-28 0 -70 9z" />
    <glyph glyph-name="uni01CA" unicode="&#x1ca;" horiz-adv-x="2523" 
d="M219 0v1413h223l613 -1309v1309h135v-1413h-227l-607 1311v-1311h-137zM1692 33.5q-91 53.5 -142 145.5t-59 206l131 18q5 -80 36.5 -149.5t93.5 -113.5t153 -44q113 0 176 50.5t86.5 134t23.5 198.5v821h-532v113h668v-913q0 -250 -101 -385t-321 -135q-122 0 -213 53.5
z" />
    <glyph glyph-name="uni01CB" unicode="&#x1cb;" horiz-adv-x="1890" 
d="M219 0v1413h223l613 -1309v1309h135v-1413h-227l-607 1311v-1311h-137zM1575 1237v176h149v-176h-149zM1396 -429q-42 9 -75 21l25 89q21 -7 57 -12t65 -5q63 0 90 42.5t27 103.5v1189h129v-1167q0 -126 -60.5 -198t-187.5 -72q-28 0 -70 9z" />
    <glyph glyph-name="uni01CC" unicode="&#x1cc;" horiz-adv-x="1589" 
d="M174 999h125v-188q50 95 133 150t197 55q111 0 184.5 -54t108 -146t34.5 -208v-608h-125v598q0 128 -54 221.5t-181 93.5q-83 0 -150.5 -46t-107 -136t-39.5 -219v-512h-125v999zM1274 1237v176h149v-176h-149zM1095 -429q-42 9 -75 21l25 89q21 -7 57 -12t65 -5
q63 0 90 42.5t27 103.5v1189h129v-1167q0 -126 -60.5 -198t-187.5 -72q-28 0 -70 9z" />
    <glyph glyph-name="uni01CD" unicode="&#x1cd;" horiz-adv-x="1296" 
d="M76 0l522 1413h104l519 -1413h-144l-108 307h-639l-107 -307h-147zM375 434h549l-273 780zM649 1495l-332 332h156l176 -192l178 192h154z" />
    <glyph glyph-name="uni01CE" unicode="&#x1ce;" horiz-adv-x="1016" 
d="M233.5 15q-71.5 35 -111.5 100.5t-40 154.5q0 295 450 295h222q0 164 -60 255t-198 91q-175 0 -287 -153l-90 71q137 191 366 191q123 0 208.5 -50t129 -141.5t43.5 -214.5v-614h-108v205q-50 -112 -147 -168.5t-214 -56.5q-92 0 -163.5 35zM593 143.5q78 57.5 119.5 146
t41.5 177.5h-207q-171 0 -252.5 -45t-81.5 -154q0 -94 54.5 -138t142.5 -44q105 0 183 57.5zM502 1081l-332 332h156l176 -192l178 192h154z" />
    <glyph glyph-name="uni01CF" unicode="&#x1cf;" horiz-adv-x="573" 
d="M219 0v1413h135v-1413h-135zM285 1495l-332 332h156l176 -192l178 192h154z" />
    <glyph glyph-name="uni01D0" unicode="&#x1d0;" horiz-adv-x="498" 
d="M174 0v999h150v-999h-150zM248 1081l-332 332h156l176 -192l178 192h154z" />
    <glyph glyph-name="uni01D1" unicode="&#x1d1;" horiz-adv-x="1511" 
d="M412 77q-140 97 -209.5 262t-69.5 368q0 202 69.5 367t209.5 262.5t342 97.5q204 0 344.5 -97.5t210 -262t69.5 -367.5t-69.5 -368t-210 -262t-344.5 -97q-202 0 -342 97zM1035 188.5q112 82.5 165 218.5t53 300q0 163 -53 299t-165 218.5t-281 82.5q-166 0 -277 -82.5
t-164 -218.5t-53 -299q0 -164 53 -300t164 -218.5t277 -82.5q169 0 281 82.5zM754 1495l-332 332h156l176 -192l178 192h154z" />
    <glyph glyph-name="uni01D2" unicode="&#x1d2;" horiz-adv-x="1116" 
d="M316 50.5q-105 70.5 -163.5 190t-58.5 261.5t58.5 260.5t163.5 188t239 69.5t240.5 -69.5t166.5 -188.5t60 -260q0 -142 -60 -261.5t-166.5 -190t-240.5 -70.5t-239 70.5zM745 141.5q77 59.5 114.5 155.5t37.5 205t-37.5 204t-113.5 153.5t-187 58.5q-110 0 -187 -58.5
t-115 -153.5t-38 -204q0 -110 38 -206t114.5 -155t185.5 -59q111 0 188 59.5zM557 1081l-332 332h156l176 -192l178 192h154z" />
    <glyph glyph-name="uni01D3" unicode="&#x1d3;" horiz-adv-x="1346" 
d="M400.5 54q-107.5 74 -157.5 194t-50 262v903h135v-854q0 -206 79.5 -329.5t264.5 -123.5t266.5 124t81.5 329v854h135v-893q0 -146 -51 -268.5t-159.5 -197t-272.5 -74.5t-271.5 74zM678 1495l-332 332h156l176 -192l178 192h154z" />
    <glyph glyph-name="uni01D4" unicode="&#x1d4;" 
d="M232.5 96q-82.5 119 -82.5 310v593h124v-604q0 -129 49 -222t169 -93q84 0 156.5 48.5t115.5 127.5t43 164v579h123v-999h-123v182q-18 -46 -63 -93.5t-111.5 -79.5t-145.5 -32q-172 0 -254.5 119zM555 1081l-332 332h156l176 -192l178 192h154z" />
    <glyph glyph-name="uni01D5" unicode="&#x1d5;" horiz-adv-x="1346" 
d="M400.5 54q-107.5 74 -157.5 194t-50 262v903h135v-854q0 -206 79.5 -329.5t264.5 -123.5t266.5 124t81.5 329v854h135v-893q0 -146 -51 -268.5t-159.5 -197t-272.5 -74.5t-271.5 74zM430 1643v184h160v-184h-160zM762 1643v184h160v-184h-160zM412 2020v121h536v-121
h-536z" />
    <glyph glyph-name="uni01D6" unicode="&#x1d6;" 
d="M232.5 96q-82.5 119 -82.5 310v593h124v-604q0 -129 49 -222t169 -93q84 0 156.5 48.5t115.5 127.5t43 164v579h123v-999h-123v182q-18 -46 -63 -93.5t-111.5 -79.5t-145.5 -32q-172 0 -254.5 119zM307 1229v184h160v-184h-160zM639 1229v184h160v-184h-160zM289 1606
v121h536v-121h-536z" />
    <glyph glyph-name="uni01D7" unicode="&#x1d7;" horiz-adv-x="1346" 
d="M400.5 54q-107.5 74 -157.5 194t-50 262v903h135v-854q0 -206 79.5 -329.5t264.5 -123.5t266.5 124t81.5 329v854h135v-893q0 -146 -51 -268.5t-159.5 -197t-272.5 -74.5t-271.5 74zM430 1643v184h160v-184h-160zM762 1643v184h160v-184h-160zM588 1952l215 289h176
l-268 -289h-123z" />
    <glyph glyph-name="uni01D8" unicode="&#x1d8;" 
d="M232.5 96q-82.5 119 -82.5 310v593h124v-604q0 -129 49 -222t169 -93q84 0 156.5 48.5t115.5 127.5t43 164v579h123v-999h-123v182q-18 -46 -63 -93.5t-111.5 -79.5t-145.5 -32q-172 0 -254.5 119zM307 1229v184h160v-184h-160zM639 1229v184h160v-184h-160zM465 1538
l215 289h176l-268 -289h-123z" />
    <glyph glyph-name="uni01D9" unicode="&#x1d9;" horiz-adv-x="1346" 
d="M400.5 54q-107.5 74 -157.5 194t-50 262v903h135v-854q0 -206 79.5 -329.5t264.5 -123.5t266.5 124t81.5 329v854h135v-893q0 -146 -51 -268.5t-159.5 -197t-272.5 -74.5t-271.5 74zM430 1643v184h160v-184h-160zM762 1643v184h160v-184h-160zM678 1909l-332 332h156
l176 -192l178 192h154z" />
    <glyph glyph-name="uni01DA" unicode="&#x1da;" 
d="M232.5 96q-82.5 119 -82.5 310v593h124v-604q0 -129 49 -222t169 -93q84 0 156.5 48.5t115.5 127.5t43 164v579h123v-999h-123v182q-18 -46 -63 -93.5t-111.5 -79.5t-145.5 -32q-172 0 -254.5 119zM307 1229v184h160v-184h-160zM639 1229v184h160v-184h-160zM555 1495
l-332 332h156l176 -192l178 192h154z" />
    <glyph glyph-name="uni01DB" unicode="&#x1db;" horiz-adv-x="1346" 
d="M400.5 54q-107.5 74 -157.5 194t-50 262v903h135v-854q0 -206 79.5 -329.5t264.5 -123.5t266.5 124t81.5 329v854h135v-893q0 -146 -51 -268.5t-159.5 -197t-272.5 -74.5t-271.5 74zM430 1643v184h160v-184h-160zM762 1643v184h160v-184h-160zM604 1954l-245 287h176
l215 -287h-146z" />
    <glyph glyph-name="uni01DC" unicode="&#x1dc;" 
d="M232.5 96q-82.5 119 -82.5 310v593h124v-604q0 -129 49 -222t169 -93q84 0 156.5 48.5t115.5 127.5t43 164v579h123v-999h-123v182q-18 -46 -63 -93.5t-111.5 -79.5t-145.5 -32q-172 0 -254.5 119zM307 1229v184h160v-184h-160zM639 1229v184h160v-184h-160zM481 1540
l-245 287h176l215 -287h-146z" />
    <glyph glyph-name="uni01DD" unicode="&#x1dd;" horiz-adv-x="1022" 
d="M188.5 135q-94.5 147 -94.5 385q0 4 1 9.5t1 13.5h699q1 109 -37 191t-107.5 126.5t-161.5 44.5q-93 0 -162 -24.5t-128 -85.5l-84 65q78 82 166 117t204 35q143 0 243 -68t150 -182.5t50 -255.5t-47.5 -259t-143 -188.5t-233.5 -70.5q-221 0 -315.5 147zM663.5 146.5
q65.5 44.5 98 119.5t33.5 166h-584q-1 -96 31.5 -170.5t98.5 -117t163 -42.5q94 0 159.5 44.5z" />
    <glyph glyph-name="uni01E3" unicode="&#x1e3;" horiz-adv-x="1667" 
d="M561 1208v111h526v-111h-526zM236 16.5q-71 36.5 -112.5 102.5t-41.5 153q0 150 94.5 222.5t259.5 72.5h324q0 163 -64 257t-207 94q-86 0 -157 -43.5t-115 -108.5l-98 61q70 95 162 142t217 47q127 0 208 -50.5t119 -146.5q94 193 326 193q227 0 322.5 -147t95.5 -386
q0 -14 2 -22h-701q-1 -109 37 -191.5t107.5 -127t161.5 -44.5t161 25t131 88l82 -68q-76 -81 -165 -116t-207 -35q-162 0 -259.5 82.5t-136.5 226.5q-47 -153 -144.5 -235t-246.5 -82q-84 0 -155 36.5zM1454 567q1 155 -77 242.5t-218 87.5q-93 0 -158 -44.5t-97.5 -119.5
t-33.5 -166h584zM596 139.5q76 49.5 120.5 134t43.5 183.5h-309q-63 0 -115.5 -21.5t-83.5 -64t-31 -101.5q0 -49 33 -90.5t82.5 -65.5t93.5 -24q90 0 166 49.5z" />
    <glyph glyph-name="uni01EB" unicode="&#x1eb;" horiz-adv-x="1116" 
d="M503 -99.5q-64 -55.5 -64 -133.5q0 -51 26 -82t64 -31q42 0 72.5 16t54.5 49l86 -59q-37 -54 -84.5 -82.5t-118.5 -28.5q-57 0 -102.5 25.5t-71.5 72t-26 107.5q0 83 51.5 139.5t124.5 88.5q-123 10 -219 82.5t-149 187.5t-53 250q0 142 58.5 260.5t163.5 188t239 69.5
t240.5 -69.5t166.5 -188.5t60 -260q0 -126 -48 -235.5t-134.5 -183t-198.5 -95.5q-74 -32 -138 -87.5zM257 296q38 -96 114.5 -155t185.5 -59q111 0 188 59.5t114.5 155.5t37.5 205t-37.5 204t-113.5 153.5t-187 58.5q-110 0 -187 -58.5t-115 -153.5t-38 -204
q0 -110 38 -206z" />
    <glyph glyph-name="uni01F1" unicode="&#x1f1;" horiz-adv-x="2679" 
d="M219 1413h348q226 0 384.5 -82.5t240.5 -243t82 -391.5q0 -222 -83 -378t-242 -237t-384 -81h-346v1413zM541 123q171 0 306 64.5t213.5 196t78.5 323.5q0 282 -147 434.5t-429 152.5h-209v-1171h187zM1499 0v111l922 1189h-877v113h1030v-117l-917 -1173h917v-123h-1075
z" />
    <glyph glyph-name="uni01F2" unicode="&#x1f2;" horiz-adv-x="2316" 
d="M219 1413h348q226 0 384.5 -82.5t240.5 -243t82 -391.5q0 -222 -83 -378t-242 -237t-384 -81h-346v1413zM541 123q171 0 306 64.5t213.5 196t78.5 323.5q0 282 -147 434.5t-429 152.5h-209v-1171h187zM2236 999v-110l-613 -780h613v-109h-761v100l622 797h-594v102h733z
" />
    <glyph glyph-name="uni01F3" unicode="&#x1f3;" horiz-adv-x="2029" 
d="M942 1413v-1413h-125v146q-55 -78 -130.5 -122t-188.5 -44q-121 0 -210.5 69t-136.5 187.5t-47 263.5t47 263.5t136.5 187.5t210.5 69q209 0 319 -166v559h125zM698 140q67 58 98 152.5t31 207.5q0 112 -31 206.5t-98 153t-168 58.5q-99 0 -166 -58.5t-99 -153.5
t-32 -206q0 -112 32 -207t99 -153t166 -58q101 0 168 58zM1949 999v-110l-613 -780h613v-109h-761v100l622 797h-594v102h733z" />
    <glyph glyph-name="Scommaaccent" unicode="&#x218;" 
d="M350 25.5q-101 41.5 -170 124.5t-88 202l123 39q10 -93 60.5 -158t126.5 -97t165 -32q137 0 218 67.5t81 203.5q0 87 -44 147.5t-109 99t-175 87.5q-116 52 -186 94t-118 111t-48 169q0 102 49.5 182t134 124.5t185.5 44.5q125 0 222 -53t161 -160l-96 -68
q-43 83 -119 124.5t-168 41.5q-63 0 -118 -27t-88.5 -77t-33.5 -117q0 -71 39.5 -122.5t98.5 -86.5t162 -83q122 -56 198 -103.5t129 -125.5t53 -192q0 -120 -55.5 -211t-152.5 -140.5t-220 -49.5q-116 0 -217 41.5zM324 -442l120 329h201l-223 -329h-98z" />
    <glyph glyph-name="scommaaccent" unicode="&#x219;" horiz-adv-x="858" 
d="M282.5 12.5q-73.5 32.5 -124.5 87t-74 119.5l109 60q28 -90 94 -143.5t164 -53.5q89 0 146.5 44.5t57.5 131.5q0 67 -34.5 109t-84.5 65.5t-137 52.5q-93 31 -149 58t-94.5 77.5t-38.5 131.5q0 83 41 144t110 92.5t152 31.5q108 0 189.5 -52.5t125.5 -142.5l-90 -53
q-34 71 -92 108.5t-137 37.5q-85 0 -136 -42t-51 -110q0 -53 31 -87.5t77.5 -55t126.5 -45.5q101 -32 162.5 -61.5t105.5 -87t44 -150.5q0 -96 -46 -163.5t-122 -101.5t-164 -34t-161.5 32.5zM236 -442l120 329h201l-223 -329h-98z" />
    <glyph glyph-name="uni021A" unicode="&#x21a;" horiz-adv-x="1247" 
d="M555 0v1307h-485v106h1108v-106h-486v-1307h-137zM406 -442l120 329h201l-223 -329h-98z" />
    <glyph glyph-name="uni021B" unicode="&#x21b;" horiz-adv-x="653" 
d="M259.5 53q-50.5 73 -50.5 209v635h-160v102h160v220l125 131v-351h254v-102h-254v-647q0 -82 36 -126t95 -44q41 0 90 22v-104q-16 -7 -49 -12.5t-74 -5.5q-122 0 -172.5 73zM211 -442l120 329h201l-223 -329h-98z" />
    <glyph glyph-name="uni0237" unicode="&#x237;" horiz-adv-x="496" 
d="M-6 -429q-43 9 -74 21l29 115q22 -6 55.5 -11t58.5 -5q113 0 113 141v1167h143v-1159q0 -129 -61.5 -203.5t-187.5 -74.5q-33 0 -76 9z" />
    <glyph glyph-name="uni0250" unicode="&#x250;" horiz-adv-x="1044" 
d="M344.5 28.5q-83.5 48.5 -127 138.5t-43.5 212v616h107l4 -186q69 106 156 156.5t212 50.5q84 0 154 -36.5t110.5 -102.5t40.5 -152q0 -149 -93.5 -223t-258.5 -74h-323q0 -165 62 -250.5t208 -85.5q88 0 160.5 41.5t117.5 104.5l91 -72q-69 -96 -159 -141t-218 -45
q-117 0 -200.5 48.5zM592 539q101 0 168 48t67 138q0 93 -59.5 133.5t-151.5 40.5q-94 0 -170.5 -52t-119.5 -135t-43 -173h309z" />
    <glyph glyph-name="uni0254" unicode="&#x254;" horiz-adv-x="963" 
d="M220 46q-98 66 -150 187l118 54q25 -92 96.5 -148.5t164.5 -56.5q102 0 167 61.5t94 156t29 198.5q0 105 -28.5 199t-93.5 155t-168 61q-95 0 -165.5 -56t-95.5 -148l-106 49q43 124 137.5 191t226.5 67q136 0 231.5 -70t143 -188t47.5 -260q0 -141 -47 -259t-142 -188.5
t-230 -70.5q-131 0 -229 66z" />
    <glyph glyph-name="uni0258" unicode="&#x258;" horiz-adv-x="1022" 
d="M281 23q-88 35 -166 116l84 68q59 -63 128 -88t162 -25q92 0 161.5 44.5t107.5 127t37 191.5h-699q0 6 -1 11t-1 11q0 239 94.5 386t315.5 147q138 0 233.5 -70.5t143 -188t47.5 -259.5q0 -141 -50 -256t-150 -182.5t-243 -67.5q-116 0 -204 35zM795 567q-1 91 -33.5 166
t-98 119.5t-159.5 44.5q-97 0 -163 -42.5t-98.5 -117t-31.5 -170.5h584z" />
    <glyph glyph-name="uni0259" unicode="&#x259;" horiz-adv-x="1022" 
d="M188.5 135q-94.5 147 -94.5 385q0 4 1 9.5t1 13.5h699q1 109 -37 191t-107.5 126.5t-161.5 44.5q-93 0 -162 -24.5t-128 -85.5l-84 65q78 82 166 117t204 35q143 0 243 -68t150 -182.5t50 -255.5t-47.5 -259t-143 -188.5t-233.5 -70.5q-221 0 -315.5 147zM663.5 146.5
q65.5 44.5 98 119.5t33.5 166h-584q-1 -96 31.5 -170.5t98.5 -117t163 -42.5q94 0 159.5 44.5z" />
    <glyph glyph-name="uni0261" unicode="&#x261;" horiz-adv-x="1108" 
d="M884.5 -229.5q-47.5 -97.5 -139.5 -150t-223 -52.5q-123 0 -222 48t-159 144l99 74q50 -81 121.5 -119.5t158.5 -38.5q93 0 157.5 41.5t97 114.5t32.5 168v145q-48 -72 -127.5 -108.5t-177.5 -36.5q-132 0 -224 66t-138 180.5t-46 261.5q0 148 46.5 263.5t136.5 182
t217 66.5q102 0 182 -44t131 -122v145h127l-2 -999q0 -132 -47.5 -229.5zM689 163.5q66 54.5 97 145t31 201.5t-31 201t-97 144t-167 54t-168 -53.5t-99 -144t-32 -201.5t32 -202t99 -145t168 -54t167 54.5z" />
    <glyph glyph-name="circumflex" unicode="&#x2c6;" horiz-adv-x="774" 
d="M51 1098l332 356l332 -356h-154l-178 196l-176 -196h-156z" />
    <glyph glyph-name="caron" unicode="&#x2c7;" horiz-adv-x="774" 
d="M387 1081l-332 332h156l176 -192l178 192h154z" />
    <glyph glyph-name="uni02D0" unicode="&#x2d0;" horiz-adv-x="524" 
d="M287 666l-226 333l377 48zM86 -47l152 381l225 -334z" />
    <glyph glyph-name="uni02D1" unicode="&#x2d1;" horiz-adv-x="551" 
d="M301 279l-225 333l377 47z" />
    <glyph glyph-name="breve" unicode="&#x2d8;" horiz-adv-x="836" 
d="M258.5 1174.5q-69.5 31.5 -109.5 92.5t-40 146h127q0 -47 23.5 -84.5t64.5 -58.5t90 -21q48 0 88.5 20.5t64 58t23.5 85.5h127q0 -85 -39.5 -146t-108.5 -92.5t-155 -31.5t-155.5 31.5z" />
    <glyph glyph-name="dotaccent" unicode="&#x2d9;" horiz-adv-x="492" 
d="M170 1229v184h152v-184h-152z" />
    <glyph glyph-name="ring" unicode="&#x2da;" horiz-adv-x="635" 
d="M213 1107.5q-45 26.5 -70.5 71.5t-25.5 99q0 53 26 98.5t71 72t99 26.5q53 0 98 -26t72 -71.5t27 -99.5t-26.5 -99t-71.5 -71.5t-99 -26.5q-55 0 -100 26.5zM384 1207q30 29 30 71q0 41 -29 69.5t-72 28.5q-44 0 -71 -27t-27 -71t28 -72t70 -28q41 0 71 29z" />
    <glyph glyph-name="ogonek" unicode="&#x2db;" horiz-adv-x="596" 
d="M210.5 -425.5q-45.5 25.5 -71.5 72t-26 107.5q0 99 70.5 159.5t154.5 86.5h106q-8 0 -68 -30.5t-111.5 -82t-51.5 -120.5q0 -51 26 -82t64 -31q42 0 72.5 16t54.5 49l86 -59q-37 -54 -84.5 -82.5t-118.5 -28.5q-57 0 -102.5 25.5z" />
    <glyph glyph-name="tilde" unicode="&#x2dc;" horiz-adv-x="856" 
d="M506 1178.5q-34 23.5 -75 69.5q-30 34 -51 50.5t-46 16.5q-37 0 -53.5 -38.5t-16.5 -98.5h-90q0 108 41 174.5t117 66.5q39 0 69.5 -14.5t51.5 -34.5t48 -51q28 -33 47 -48.5t42 -15.5q74 0 74 158h96q0 -125 -44.5 -191.5t-127.5 -66.5q-48 0 -82 23.5z" />
    <glyph glyph-name="hungarumlaut" unicode="&#x2dd;" horiz-adv-x="860" 
d="M76 1128l215 285h180l-272 -285h-123zM401 1128l215 285h177l-269 -285h-123z" />
    <glyph glyph-name="uni02F5" unicode="&#x2f5;" horiz-adv-x="1343" 
d="M389 729l-227 270h182l209 -270h-164zM1016 729l-228 270h183l209 -270h-164z" />
    <glyph glyph-name="uni02F6" unicode="&#x2f6;" horiz-adv-x="1343" 
d="M164 729l211 270h180l-227 -270h-164zM791 729l210 270h181l-228 -270h-163z" />
    <glyph glyph-name="gravecomb" unicode="&#x300;" horiz-adv-x="0" 
d="M-222 1126l-245 287h176l215 -287h-146z" />
    <glyph glyph-name="acutecomb" unicode="&#x301;" horiz-adv-x="0" 
d="M-456 1124l215 289h176l-268 -289h-123z" />
    <glyph glyph-name="uni0302" unicode="&#x302;" horiz-adv-x="0" 
d="M-719 1098l332 356l332 -356h-154l-178 196l-176 -196h-156z" />
    <glyph glyph-name="tildecomb" unicode="&#x303;" horiz-adv-x="0" 
d="M-389 1178.5q-34 23.5 -75 69.5q-30 34 -51 50.5t-46 16.5q-37 0 -53.5 -38.5t-16.5 -98.5h-90q0 108 41 174.5t117 66.5q39 0 69.5 -14.5t51.5 -34.5t48 -51q28 -33 47 -48.5t42 -15.5q74 0 74 158h96q0 -125 -44.5 -191.5t-127.5 -66.5q-48 0 -82 23.5z" />
    <glyph glyph-name="uni0304" unicode="&#x304;" horiz-adv-x="0" 
d="M-702 1192v121h536v-121h-536z" />
    <glyph glyph-name="uni0306" unicode="&#x306;" horiz-adv-x="0" 
d="M-573.5 1174.5q-69.5 31.5 -109.5 92.5t-40 146h127q0 -47 23.5 -84.5t64.5 -58.5t90 -21q48 0 88.5 20.5t64 58t23.5 85.5h127q0 -85 -39.5 -146t-108.5 -92.5t-155 -31.5t-155.5 31.5z" />
    <glyph glyph-name="uni0307" unicode="&#x307;" horiz-adv-x="0" 
d="M-322 1229v184h152v-184h-152z" />
    <glyph glyph-name="uni0308" unicode="&#x308;" horiz-adv-x="0" 
d="M-661 1229v184h160v-184h-160zM-329 1229v184h160v-184h-160z" />
    <glyph glyph-name="uni030A" unicode="&#x30a;" horiz-adv-x="0" 
d="M-418 1107.5q-45 26.5 -70.5 71.5t-25.5 99q0 53 26 98.5t71 72t99 26.5q53 0 98 -26t72 -71.5t27 -99.5t-26.5 -99t-71.5 -71.5t-99 -26.5q-55 0 -100 26.5zM-247 1207q30 29 30 71q0 41 -29 69.5t-72 28.5q-44 0 -71 -27t-27 -71t28 -72t70 -28q41 0 71 29z" />
    <glyph glyph-name="uni030B" unicode="&#x30b;" horiz-adv-x="0" 
d="M-784 1128l215 285h180l-272 -285h-123zM-459 1128l215 285h177l-269 -285h-123z" />
    <glyph glyph-name="uni030C" unicode="&#x30c;" horiz-adv-x="0" 
d="M-387 1081l-332 332h156l176 -192l178 192h154z" />
    <glyph glyph-name="uni030F" unicode="&#x30f;" horiz-adv-x="0" 
d="M-568 1128l-245 285h198l215 -285h-168zM-246 1128l-244 285h199l215 -285h-170z" />
    <glyph glyph-name="uni0312" unicode="&#x312;" horiz-adv-x="0" 
d="M-115 1419l-120 -294h-201l223 294h98z" />
    <glyph glyph-name="uni031B" unicode="&#x31b;" horiz-adv-x="0" 
d="M-395 999l120 414h201l-223 -414h-98z" />
    <glyph glyph-name="uni0326" unicode="&#x326;" horiz-adv-x="0" 
d="M-395 -442l120 329h201l-223 -329h-98z" />
    <glyph glyph-name="uni0327" unicode="&#x327;" horiz-adv-x="0" 
d="M-424 -464.5q-48 35.5 -68 87.5l90 49q5 -31 31 -54.5t63 -23.5q46 0 74.5 29.5t28.5 71.5q0 33 -20.5 62t-63.5 48t-107 19h-34l92 176h112l-65 -121q90 -1 137 -52t47 -124q0 -51 -24.5 -97.5t-72 -76t-110.5 -29.5q-62 0 -110 35.5z" />
    <glyph glyph-name="uni0328" unicode="&#x328;" horiz-adv-x="0" 
d="M-385.5 -425.5q-45.5 25.5 -71.5 72t-26 107.5q0 99 70.5 159.5t154.5 86.5h106q-8 0 -68 -30.5t-111.5 -82t-51.5 -120.5q0 -51 26 -82t64 -31q42 0 72.5 16t54.5 49l86 -59q-37 -54 -84.5 -82.5t-118.5 -28.5q-57 0 -102.5 25.5z" />
    <glyph glyph-name="pi" unicode="&#x3c0;" horiz-adv-x="985" 
d="M721.5 12q-45.5 32 -71 83.5t-25.5 107.5v659h-295v-862h-137v862h-82v137h733v-137h-82v-659q0 -51 21.5 -81t58.5 -30q28 0 57 19l33 -101q-52 -30 -107 -30q-58 0 -103.5 32z" />
    <glyph glyph-name="uni0400" unicode="&#x400;" horiz-adv-x="1237" 
d="M219 0v1413h909v-113h-774v-538h662v-109h-662v-532h774v-121h-909zM604 1540l-245 287h176l215 -287h-146z" />
    <glyph glyph-name="uni0401" unicode="&#x401;" horiz-adv-x="1237" 
d="M219 0v1413h909v-113h-774v-538h662v-109h-662v-532h774v-121h-909zM430 1643v184h160v-184h-160zM762 1643v184h160v-184h-160z" />
    <glyph glyph-name="uni0402" unicode="&#x402;" horiz-adv-x="1636" 
d="M964 15q-80 31 -135 96l99 88q38 -48 93.5 -71.5t133.5 -23.5q62 0 114.5 46t83.5 128.5t31 186.5q0 142 -32 230.5t-108 133.5t-208 45q-104 0 -197 -41.5t-147 -111.5v-721h-135v1309h-487v104h1108v-104h-486v-447q69 67 158 103t186 36q247 0 365.5 -134.5
t118.5 -401.5q0 -125 -47.5 -236t-132 -178t-189.5 -67q-107 0 -187 31z" />
    <glyph glyph-name="uni0403" unicode="&#x403;" horiz-adv-x="1069" 
d="M459 1538l211 289h149l-258 -289h-102zM219 0v1413h780v-110h-647v-1303h-133z" />
    <glyph glyph-name="uni0404" unicode="&#x404;" horiz-adv-x="1417" 
d="M413 76.5q-140 96.5 -209 261t-69 369.5q0 206 68.5 371t208.5 261.5t344 96.5q195 0 339 -93.5t224 -275.5l-123 -51q-43 153 -161.5 225t-280.5 72q-157 0 -263.5 -74.5t-160.5 -199.5t-62 -281h647v-88h-647q7 -162 61.5 -290t162 -203t266.5 -75q327 0 438 299
l125 -51q-77 -181 -222.5 -275.5t-340.5 -94.5q-205 0 -345 96.5z" />
    <glyph glyph-name="uni0405" unicode="&#x405;" 
d="M350 25.5q-101 41.5 -170 124.5t-88 202l123 39q10 -93 60.5 -158t126.5 -97t165 -32q137 0 218 67.5t81 203.5q0 87 -44 147.5t-109 99t-175 87.5q-116 52 -186 94t-118 111t-48 169q0 102 49.5 182t134 124.5t185.5 44.5q125 0 222 -53t161 -160l-96 -68
q-43 83 -119 124.5t-168 41.5q-63 0 -118 -27t-88.5 -77t-33.5 -117q0 -71 39.5 -122.5t98.5 -86.5t162 -83q122 -56 198 -103.5t129 -125.5t53 -192q0 -120 -55.5 -211t-152.5 -140.5t-220 -49.5q-116 0 -217 41.5z" />
    <glyph glyph-name="uni0406" unicode="&#x406;" horiz-adv-x="573" 
d="M219 0v1413h135v-1413h-135z" />
    <glyph glyph-name="uni0407" unicode="&#x407;" horiz-adv-x="571" 
d="M49 1606v159h144v-159h-144zM375 1606v159h143v-159h-143zM219 0v1413h133v-1413h-133z" />
    <glyph glyph-name="uni0408" unicode="&#x408;" horiz-adv-x="1114" 
d="M284.5 33.5q-91.5 53.5 -143 146t-59.5 205.5l131 21q5 -82 37.5 -152.5t94.5 -114t153 -43.5q112 0 174.5 50t86 134t23.5 201v822h-532v110h668v-919q0 -245 -99.5 -379.5t-320.5 -134.5q-122 0 -213.5 53.5z" />
    <glyph glyph-name="uni0409" unicode="&#x409;" horiz-adv-x="2040" 
d="M144 -10q-45 10 -76 28l61 136q32 -13 54.5 -19t47.5 -6q71 0 114 119t60 289t17 342v534h827v-649h252q134 0 232.5 -44t152 -129.5t53.5 -205.5t-53.5 -206.5t-152 -132.5t-232.5 -46h-385v1303h-561v-424q0 -221 -17.5 -407.5t-90.5 -339t-222 -152.5q-36 0 -81 10z
M1501 117q145 0 227 70.5t82 197.5t-81 194.5t-228 67.5h-252v-530h252z" />
    <glyph glyph-name="uni040A" unicode="&#x40a;" horiz-adv-x="2017" 
d="M219 1413h133v-651h740v651h135v-649h252q134 0 232.5 -44t152 -129.5t53.5 -205.5t-53.5 -206.5t-152 -132.5t-232.5 -46h-387v651h-740v-651h-133v1413zM1479 117q143 0 225 70.5t82 197.5t-81 194.5t-226 67.5h-252v-530h252z" />
    <glyph glyph-name="uni040B" unicode="&#x40b;" horiz-adv-x="1657" 
d="M557 1309h-487v104h1108v-104h-486v-447q120 139 344 139q166 0 274.5 -78t159 -216t50.5 -320v-387h-136v401q0 223 -79 348t-269 125q-104 0 -197 -41.5t-147 -111.5v-721h-135v1309z" />
    <glyph glyph-name="uni040C" unicode="&#x40c;" horiz-adv-x="1245" 
d="M479 1538l211 289h150l-258 -289h-103zM219 1413h133v-590h172l394 590h165l-407 -602q62 0 114.5 -26t87.5 -62.5t46 -65.5l237 -657h-157l-211 586q-8 24 -35.5 54.5t-68.5 52.5t-87 22h-250v-715h-133v1413z" />
    <glyph glyph-name="uni040D" unicode="&#x40d;" horiz-adv-x="1444" 
d="M715 1546l-226 281h150l209 -281h-133zM219 1413h133v-1091q0 -48 -12 -142l16 -2l695 1235h174v-1413h-133v1090q0 73 12 143l-17 2l-694 -1235h-174v1413z" />
    <glyph glyph-name="uni040E" unicode="&#x40e;" horiz-adv-x="1116" 
d="M416 1588q-68 32 -110 93.5t-42 145.5h111q0 -48 25.5 -88t69 -63t93.5 -23t93.5 22.5t69.5 62.5t26 89h110q0 -82 -40.5 -143.5t-109 -94.5t-149.5 -33q-79 0 -147 32zM272 0l199 457l-395 956h149l316 -817l346 817h153l-622 -1413h-146z" />
    <glyph glyph-name="uni040F" unicode="&#x40f;" horiz-adv-x="1444" 
d="M655 -307v307h-436v1413h133v-1300h740v1300h133v-1413h-437v-307h-133z" />
    <glyph glyph-name="uni0410" unicode="&#x410;" horiz-adv-x="1294" 
d="M76 0l520 1413h104l519 -1413h-144l-110 307h-633l-111 -307h-145zM373 434h551l-275 783z" />
    <glyph glyph-name="uni0411" unicode="&#x411;" horiz-adv-x="1237" 
d="M219 1413h727v-121h-594v-512h340q125 0 219 -43.5t146.5 -133t52.5 -220.5q0 -117 -55.5 -204t-157 -133t-235.5 -46h-443v1413zM666 123q78 0 149 34t114.5 95.5t43.5 138.5q0 84 -42 143.5t-111 89t-148 29.5h-320v-530h314z" />
    <glyph glyph-name="uni0412" unicode="&#x412;" horiz-adv-x="1235" 
d="M219 1413h367q122 0 224 -35t165 -111.5t63 -195.5q0 -117 -49 -194.5t-139 -131.5q124 -56 191 -142t67 -234q0 -198 -128 -283.5t-318 -85.5h-443v1413zM580 778q90 0 160 29.5t110.5 90.5t40.5 151q0 138 -81.5 190.5t-221.5 52.5h-238v-514h230zM666 123
q309 0 309 250q0 282 -303 282h-322v-532h316z" />
    <glyph glyph-name="uni0413" unicode="&#x413;" horiz-adv-x="1069" 
d="M219 0v1413h780v-110h-647v-1303h-133z" />
    <glyph glyph-name="uni0414" unicode="&#x414;" horiz-adv-x="1458" 
d="M70 -240v346h116l482 1307h123l481 -1307h117v-346h-134v240h-1052v-240h-133zM322 106h817l-408 1147z" />
    <glyph glyph-name="uni0415" unicode="&#x415;" horiz-adv-x="1237" 
d="M219 0v1413h909v-113h-774v-538h662v-109h-662v-532h774v-121h-909z" />
    <glyph glyph-name="uni0416" unicode="&#x416;" horiz-adv-x="1919" 
d="M322 657q10 29 44.5 65.5t87.5 62.5t115 26l-407 602h164l395 -590h172v590h133v-590h172l393 590h166l-407 -602q62 0 114.5 -26t87.5 -62.5t45 -65.5l238 -657h-158l-209 586q-18 52 -70 90.5t-122 38.5h-250v-715h-133v715h-250q-73 0 -121.5 -35t-68.5 -94l-211 -586
h-158z" />
    <glyph glyph-name="uni0417" unicode="&#x417;" horiz-adv-x="1112" 
d="M259.5 39q-114.5 59 -165.5 174l113 74q34 -95 121.5 -147t193.5 -52q87 0 163 35t122.5 105t46.5 169q0 95 -45.5 161.5t-121 99t-165.5 32.5h-176v121h182q73 0 133.5 28.5t96 84.5t35.5 133q0 82 -36 142t-97 91t-134 31q-67 0 -128.5 -29.5t-99 -86t-36.5 -132.5
h-129q-1 111 51 193t141.5 125t198.5 43q108 0 196.5 -43t140.5 -124t52 -192q0 -100 -47.5 -182.5t-136.5 -130.5q124 -52 190 -150.5t66 -226.5q0 -132 -61.5 -223.5t-166.5 -136.5t-235 -45q-148 0 -262.5 59z" />
    <glyph glyph-name="uni0418" unicode="&#x418;" horiz-adv-x="1409" 
d="M1190 0h-137v1311l-607 -1311h-227v1413h135v-1309l613 1309h223v-1413z" />
    <glyph glyph-name="uni0419" unicode="&#x419;" horiz-adv-x="1444" 
d="M606.5 1588q-68.5 32 -110 93t-41.5 146h110q0 -48 25.5 -88t69 -63t94.5 -23q50 0 93 22.5t69 62.5t26 89h113q0 -82 -41.5 -143.5t-110 -94.5t-149.5 -33q-79 0 -147.5 32zM219 1413h133v-1091q0 -48 -12 -142l16 -2l695 1235h174v-1413h-133v1090q0 73 12 143l-17 2
l-694 -1235h-174v1413z" />
    <glyph glyph-name="uni041A" unicode="&#x41a;" horiz-adv-x="1245" 
d="M219 1413h133v-590h172l394 590h165l-407 -602q62 0 114.5 -26t87.5 -62.5t46 -65.5l237 -657h-157l-211 586q-8 24 -35.5 54.5t-68.5 52.5t-87 22h-250v-715h-133v1413z" />
    <glyph glyph-name="uni041B" unicode="&#x41b;" horiz-adv-x="1321" 
d="M76 0l522 1413h123l524 -1413h-135l-448 1253l-447 -1253h-139z" />
    <glyph glyph-name="uni041C" unicode="&#x41c;" horiz-adv-x="1753" 
d="M219 0v1413h238l415 -1167l424 1167h238v-1413h-135v1331l-445 -1208h-155l-443 1208v-1331h-137z" />
    <glyph glyph-name="uni041D" unicode="&#x41d;" horiz-adv-x="1446" 
d="M219 0v1413h135v-651h738v651h135v-1413h-135v653h-738v-653h-135z" />
    <glyph glyph-name="uni041E" unicode="&#x41e;" horiz-adv-x="1511" 
d="M412 77q-140 97 -209.5 262t-69.5 368q0 202 69.5 367t209.5 262.5t342 97.5q204 0 344.5 -97.5t210 -262t69.5 -367.5t-69.5 -368t-210 -262t-344.5 -97q-202 0 -342 97zM1035 188.5q112 82.5 165 218.5t53 300q0 163 -53 299t-165 218.5t-281 82.5q-166 0 -277 -82.5
t-164 -218.5t-53 -299q0 -164 53 -300t164 -218.5t277 -82.5q169 0 281 82.5z" />
    <glyph glyph-name="uni041F" unicode="&#x41f;" horiz-adv-x="1444" 
d="M219 0v1413h1006v-1413h-133v1303h-740v-1303h-133z" />
    <glyph glyph-name="uni0420" unicode="&#x420;" horiz-adv-x="1143" 
d="M219 1413h385q135 0 234 -45.5t152.5 -131.5t53.5 -206q0 -121 -53.5 -207t-152.5 -130t-234 -44h-250v-649h-135v1413zM604 768q147 0 228 66.5t81 195.5q0 126 -82 197t-227 71h-250v-530h250z" />
    <glyph glyph-name="uni0421" unicode="&#x421;" horiz-adv-x="1417" 
d="M413 76.5q-140 96.5 -209 261t-69 369.5q0 206 68.5 371t208.5 261.5t344 96.5q195 0 339 -93.5t224 -275.5l-123 -51q-43 153 -161.5 225t-280.5 72q-165 0 -274 -81t-160.5 -216t-51.5 -299q0 -172 51.5 -310.5t161.5 -221.5t277 -83q327 0 438 299l125 -51
q-77 -181 -222.5 -275.5t-340.5 -94.5q-205 0 -345 96.5z" />
    <glyph glyph-name="uni0422" unicode="&#x422;" horiz-adv-x="1247" 
d="M557 0v1309h-487v104h1108v-104h-488v-1309h-133z" />
    <glyph glyph-name="uni0423" unicode="&#x423;" horiz-adv-x="1116" 
d="M272 0l199 457l-395 956h149l316 -817l346 817h153l-622 -1413h-146z" />
    <glyph glyph-name="uni0424" unicode="&#x424;" horiz-adv-x="1667" 
d="M766 119q-320 0 -476.5 144.5t-156.5 443.5q0 606 633 606v100h135v-100q633 0 633 -606q0 -300 -156 -444t-477 -144v-119h-135v119zM766 1188q-261 0 -383.5 -120t-122.5 -361q0 -160 53.5 -262t165 -151.5t287.5 -49.5v944zM1285 356q122 112 122 351
q0 241 -123.5 361t-382.5 120v-944q262 0 384 112z" />
    <glyph glyph-name="uni0425" unicode="&#x425;" horiz-adv-x="1239" 
d="M84 0l465 707l-463 706h160l372 -598l377 598h158l-461 -706l463 -707h-158l-381 588l-372 -588h-160z" />
    <glyph glyph-name="uni0426" unicode="&#x426;" horiz-adv-x="1466" 
d="M1235 -240v240h-1016v1413h133v-1300h740v1300h133v-1300h141v-353h-131z" />
    <glyph glyph-name="uni0427" unicode="&#x427;" horiz-adv-x="1319" 
d="M965 551q-120 -139 -347 -139q-165 0 -272.5 78t-158 216t-50.5 320v387h135v-401q0 -222 79 -347.5t267 -125.5q105 0 198.5 42t148.5 111v721h135v-1413h-135v551z" />
    <glyph glyph-name="uni0428" unicode="&#x428;" horiz-adv-x="1731" 
d="M219 0v1413h133v-1300h443v1300h135v-1300h448v1300h133v-1413h-1292z" />
    <glyph glyph-name="uni0429" unicode="&#x429;" horiz-adv-x="1753" 
d="M1522 -240v240h-1303v1413h133v-1300h443v1300h135v-1300h448v1300h133v-1300h142v-353h-131z" />
    <glyph glyph-name="uni042A" unicode="&#x42a;" horiz-adv-x="1360" 
d="M436 1311h-366v102h499v-649h252q135 0 233.5 -44t152 -129.5t53.5 -205.5t-53.5 -206.5t-152.5 -132.5t-233 -46h-385v1311zM821 117q145 0 227 70.5t82 197.5t-81 194.5t-228 67.5h-252v-530h252z" />
    <glyph glyph-name="uni042B" unicode="&#x42b;" horiz-adv-x="1597" 
d="M219 1413h135v-649h250q135 0 234 -44t152.5 -129.5t53.5 -205.5t-53.5 -206.5t-152.5 -132.5t-234 -46h-385v1413zM1245 0v1413h133v-1413h-133zM604 117q145 0 227 70.5t82 197.5t-81 194.5t-228 67.5h-250v-530h250z" />
    <glyph glyph-name="uni042C" unicode="&#x42c;" horiz-adv-x="1143" 
d="M219 1413h135v-649h250q135 0 234 -44t152.5 -129.5t53.5 -205.5t-53.5 -206.5t-152.5 -132.5t-234 -46h-385v1413zM604 117q145 0 227 70.5t82 197.5t-81 194.5t-228 67.5h-250v-530h250z" />
    <glyph glyph-name="uni042D" unicode="&#x42d;" horiz-adv-x="1417" 
d="M319 74q-145 94 -223 276l125 51q111 -299 438 -299q159 0 266.5 75t162.5 203t61 290h-647v88h645q-6 155 -60 280.5t-160 200t-263 74.5q-162 0 -280.5 -72t-162.5 -225l-123 51q80 182 224 275.5t340 93.5q204 0 343.5 -96.5t208 -261.5t68.5 -371q0 -205 -69 -369.5
t-209 -261t-345 -96.5q-195 0 -340 94z" />
    <glyph glyph-name="uni042E" unicode="&#x42e;" horiz-adv-x="1864" 
d="M772.5 68q-136.5 88 -208 239.5t-81.5 343.5h-131v-651h-133v1413h133v-651h131q10 191 81.5 343t208 240.5t331.5 88.5q206 0 346.5 -96.5t209.5 -261t69 -369.5q0 -204 -69 -369t-209.5 -261.5t-346.5 -96.5q-195 0 -331.5 88zM1381.5 188q111.5 82 164.5 218.5
t53 300.5t-53 300t-164.5 218t-277.5 82t-277 -82t-164 -218t-53 -300t53 -300.5t164 -218.5t277 -82t277.5 82z" />
    <glyph glyph-name="uni042F" unicode="&#x42f;" horiz-adv-x="1208" 
d="M854 -2v641h-248l-354 -641h-160l381 661q-93 16 -162.5 66t-107 127t-37.5 172q0 117 56 205t154.5 135t221.5 47h391v-1413h-135zM852 1292h-256q-87 0 -154.5 -31t-106 -91t-38.5 -144q0 -118 75.5 -184t198.5 -72h281v522z" />
    <glyph glyph-name="uni0430" unicode="&#x430;" horiz-adv-x="1016" 
d="M233.5 15q-71.5 35 -111.5 100.5t-40 154.5q0 295 450 295h222q0 164 -60 255t-198 91q-175 0 -287 -153l-90 71q137 191 366 191q123 0 208.5 -50t129 -141.5t43.5 -214.5v-614h-108v205q-50 -112 -147 -168.5t-214 -56.5q-92 0 -163.5 35zM593 143.5q78 57.5 119.5 146
t41.5 177.5h-207q-171 0 -252.5 -45t-81.5 -154q0 -94 54.5 -138t142.5 -44q105 0 183 57.5z" />
    <glyph glyph-name="uni0431" unicode="&#x431;" horiz-adv-x="1110" 
d="M818.5 892q95.5 -66 146.5 -178t51 -247q0 -134 -57.5 -245.5t-159.5 -176.5t-230 -65q-127 0 -225 65.5t-151.5 176.5t-53.5 243v377q0 161 62 259t157 148q177 93 428 185v-121q-77 -32 -100 -41q-114 -47 -174.5 -75t-108.5 -60q-80 -54 -113.5 -127.5t-33.5 -194.5
v-32q53 73 142.5 124t197.5 51q127 0 222.5 -66zM746 135q69 53 100 140t31 194q0 105 -31.5 192t-100.5 140t-176 53q-106 0 -174.5 -52.5t-99.5 -139t-31 -193.5q0 -106 31.5 -193.5t100 -140.5t173.5 -53q108 0 177 53z" />
    <glyph glyph-name="uni0432" unicode="&#x432;" horiz-adv-x="1135" 
d="M332.5 29.5q-94.5 49.5 -140 162t-45.5 302.5v489q0 207 96.5 329t313.5 122q185 0 291 -83.5t106 -256.5q0 -42 -23.5 -98.5t-72.5 -105t-119 -67.5q82 -3 143 -57.5t93.5 -139t32.5 -173.5q0 -144 -52.5 -251t-149 -164.5t-224.5 -57.5q-155 0 -249.5 49.5zM800.5 181
q67.5 93 67.5 268q0 106 -39 176.5t-101.5 103.5t-135.5 33q-64 0 -115.5 -11.5t-93.5 -48.5v109q49 29 122.5 40.5t139.5 14.5q57 2 95 39t55.5 90t17.5 101q0 115 -63.5 170t-192.5 55q-115 0 -177 -38t-84 -105t-22 -168v-518q0 -164 28.5 -250.5t90.5 -120t174 -33.5
q166 0 233.5 93z" />
    <glyph glyph-name="uni0433" unicode="&#x433;" horiz-adv-x="858" 
d="M246 8q-76 28 -121 86.5t-45 145.5q0 96 43.5 156.5t105 93t162.5 68.5q80 28 125.5 50t76 58t30.5 90q0 76 -46 106.5t-126 30.5t-133.5 -32.5t-86.5 -96.5l-102 59q46 86 127.5 138.5t194.5 52.5q80 0 148.5 -31t109.5 -89t41 -134q0 -95 -42.5 -154t-102.5 -90
t-158 -65q-82 -28 -129 -51t-79 -61.5t-32 -98.5q0 -87 55.5 -116.5t147.5 -29.5q55 0 107.5 24.5t92 67t56.5 95.5l106 -64q-21 -64 -71.5 -118.5t-124.5 -86.5t-160 -32q-94 0 -170 28z" />
    <glyph glyph-name="uni0434" unicode="&#x434;" horiz-adv-x="1108" 
d="M884.5 -229.5q-47.5 -97.5 -139.5 -150t-223 -52.5q-123 0 -222 48t-159 144l99 74q50 -81 121.5 -119.5t158.5 -38.5q93 0 157.5 41.5t97 114.5t32.5 168v145q-48 -72 -127.5 -108.5t-177.5 -36.5q-132 0 -224 66t-138 180.5t-46 261.5q0 148 46.5 263.5t136.5 182
t217 66.5q102 0 182 -44t131 -122v145h127l-2 -999q0 -132 -47.5 -229.5zM689 163.5q66 54.5 97 145t31 201.5t-31 201t-97 144t-167 54t-168 -53.5t-99 -144t-32 -201.5t32 -202t99 -145t168 -54t167 54.5z" />
    <glyph glyph-name="uni0435" unicode="&#x435;" horiz-adv-x="1030" 
d="M296.5 56q-98.5 68 -147.5 182.5t-49 255.5q0 139 48.5 257t143 189.5t228.5 71.5q150 0 242.5 -69.5t132 -178.5t39.5 -236q0 -35 -4 -71h-699q-3 -98 31.5 -180t104 -131.5t168.5 -49.5q96 0 164.5 23.5t125.5 83.5l86 -66q-81 -79 -168.5 -114t-205.5 -35
q-142 0 -240.5 68zM815 565q0 90 -28.5 167.5t-94.5 127t-172 49.5q-92 0 -156.5 -47t-97 -125t-35.5 -172h584z" />
    <glyph glyph-name="uni0436" unicode="&#x436;" horiz-adv-x="1407" 
d="M215 430q24 66 63.5 114t88.5 48l-246 407h158l217 -374h145v788h127v-788h143l219 374h158l-246 -407q49 0 87.5 -47.5t62.5 -114.5l160 -430h-144l-123 360q-27 82 -65.5 117t-104.5 35h-147v-512h-127v512h-149q-64 0 -102.5 -35.5t-65.5 -116.5l-123 -360h-146z" />
    <glyph glyph-name="uni0437" unicode="&#x437;" horiz-adv-x="901" 
d="M240.5 -440.5q-64.5 20.5 -110.5 54.5t-114 97l88 74q51 -69 117 -103t160 -34q152 0 223.5 103t71.5 276q0 107 -39 177.5t-102.5 103t-137.5 32.5h-207v111h261q48 12 87 48.5t61 84t22 90.5q0 131 -61 186t-193 55q-83 0 -147 -42t-99 -107l-88 51q48 89 134.5 142
t199.5 53q183 0 282 -83t99 -257q0 -43 -20 -98.5t-64.5 -104t-112.5 -68.5q80 -3 138.5 -57.5t89 -139t30.5 -173.5q0 -145 -50 -256.5t-143 -173.5t-219 -62q-92 0 -156.5 20.5z" />
    <glyph glyph-name="uni0438" unicode="&#x438;" 
d="M232.5 96q-82.5 119 -82.5 310v593h124v-604q0 -129 49 -222t169 -93q84 0 156.5 48.5t115.5 127.5t43 164v579h123v-999h-123v182q-18 -46 -63 -93.5t-111.5 -79.5t-145.5 -32q-172 0 -254.5 119z" />
    <glyph glyph-name="uni0439" unicode="&#x439;" horiz-adv-x="1128" 
d="M399.5 1174.5q-68.5 31.5 -110 92.5t-41.5 146h110q0 -48 25.5 -88t69 -63t94.5 -23q50 0 93 23t69 62.5t26 88.5h111q0 -82 -40.5 -143.5t-109 -94t-149.5 -32.5q-79 0 -147.5 31.5zM255.5 96q-81.5 119 -81.5 307v596h125v-602q0 -131 49 -224t170 -93q84 0 156 48.5
t114.5 128t42.5 165.5v577h123v-999h-123v180q-18 -43 -63 -90.5t-112 -80t-144 -32.5q-175 0 -256.5 119z" />
    <glyph glyph-name="uni043A" unicode="&#x43a;" horiz-adv-x="944" 
d="M174 1413h127v-788h143l220 374h157l-246 -407q49 0 87 -47t65 -115l160 -430h-146l-123 360q-27 82 -65.5 117t-103.5 35h-148v-512h-127v1413z" />
    <glyph glyph-name="uni043B" unicode="&#x43b;" horiz-adv-x="932" 
d="M45 0l363 999h116l363 -999h-137l-285 836l-285 -836h-135z" />
    <glyph glyph-name="uni043C" unicode="&#x43c;" horiz-adv-x="1374" 
d="M174 0v999h184l330 -841l328 839h184v-997h-129v840l-334 -840h-100l-334 838v-838h-129z" />
    <glyph glyph-name="uni043D" unicode="&#x43d;" horiz-adv-x="1128" 
d="M174 0v999h127v-399h528v399h125v-999h-125v498h-528v-498h-127z" />
    <glyph glyph-name="uni043E" unicode="&#x43e;" horiz-adv-x="1116" 
d="M316 50.5q-105 70.5 -163.5 190t-58.5 261.5t58.5 260.5t163.5 188t239 69.5t240.5 -69.5t166.5 -188.5t60 -260q0 -142 -60 -261.5t-166.5 -190t-240.5 -70.5t-239 70.5zM745 141.5q77 59.5 114.5 155.5t37.5 205t-37.5 204t-113.5 153.5t-187 58.5q-110 0 -187 -58.5
t-115 -153.5t-38 -204q0 -110 38 -206t114.5 -155t185.5 -59q111 0 188 59.5z" />
    <glyph glyph-name="uni043F" unicode="&#x43f;" horiz-adv-x="1108" 
d="M174 999h125v-170q45 82 131.5 134.5t185.5 52.5q119 0 195 -54t110.5 -144.5t34.5 -205.5v-612h-125v596q0 126 -51 212.5t-172 86.5q-83 0 -154 -44.5t-113 -119t-42 -160.5v-571h-125v999z" />
    <glyph glyph-name="uni0440" unicode="&#x440;" horiz-adv-x="1108" 
d="M174 999h125v-147q49 78 128 123t189 45q124 0 214 -68t137 -186t47 -266t-47 -266t-137 -186t-214 -68q-210 0 -317 167v-585h-125v1437zM752.5 144.5q67.5 56.5 100 149t32.5 204.5t-32.5 205.5t-100 149.5t-168.5 56t-167 -56t-97 -149t-31 -206q0 -112 31 -205
t97 -149t167 -56t168.5 56.5z" />
    <glyph glyph-name="uni0441" unicode="&#x441;" horiz-adv-x="967" 
d="M292.5 51q-95.5 71 -144 189t-48.5 258q0 139 48.5 258t143.5 191.5t228 72.5q129 0 227 -69t152 -189l-119 -53q-22 95 -94 152t-166 57q-102 0 -167.5 -62.5t-94.5 -158.5t-29 -199q0 -105 29 -199.5t94 -155.5t168 -61q96 0 167 56t93 149l107 -49q-44 -122 -139 -190
t-226 -68q-134 0 -229.5 71z" />
    <glyph glyph-name="uni0442" unicode="&#x442;" horiz-adv-x="1688" 
d="M174 999h127v-188q30 92 104.5 149.5t172.5 57.5q111 0 194 -55t119 -160q43 105 119.5 159t183.5 54q176 0 259 -113t83 -291v-612h-127v596q0 131 -51.5 225t-173.5 94q-82 0 -142 -48.5t-92 -127t-32 -166.5v-573h-127v600q0 132 -50.5 223.5t-173.5 91.5
q-82 0 -142.5 -48.5t-92 -127t-31.5 -166.5v-573h-127v999z" />
    <glyph glyph-name="uni0443" unicode="&#x443;" horiz-adv-x="961" 
d="M264 -430l162 432l-381 997h139l299 -847l293 847h139l-526 -1429h-125z" />
    <glyph glyph-name="uni0444" unicode="&#x444;" horiz-adv-x="1372" 
d="M623 -14q-31 -6 -68 -6q-133 0 -238 69t-164 187t-59 260q0 141 59 259.5t164 187.5t238 69q37 0 68 -6v407h127v-407q30 6 65 6q134 0 239.5 -69t164.5 -187t59 -260t-58.5 -260t-164.5 -187t-240 -69q-35 0 -65 6v-416h-127v416zM623 96v797q-32 6 -68 6
q-110 0 -181 -55t-103.5 -145.5t-32.5 -202.5t32.5 -203t103.5 -146t181 -55q47 0 68 4zM997.5 147q71.5 55 104.5 146t33 203t-33 202.5t-104.5 145.5t-182.5 55q-35 0 -65 -6v-797q20 -4 65 -4q111 0 182.5 55z" />
    <glyph glyph-name="uni0445" unicode="&#x445;" horiz-adv-x="895" 
d="M55 0l334 504l-334 495h154l240 -383l241 383h150l-330 -495l330 -504h-150l-241 389l-240 -389h-154z" />
    <glyph glyph-name="uni0446" unicode="&#x446;" horiz-adv-x="1135" 
d="M954 -23q-38 0 -71.5 26.5t-54 73t-19.5 103.5q-18 -43 -63.5 -90.5t-112.5 -80t-144 -32.5q-118 0 -194 57t-110.5 152.5t-34.5 216.5v596h126v-602q0 -131 49.5 -224t170.5 -93q84 0 156 48.5t114.5 128t42.5 165.5v577h127v-794q0 -74 41 -113t102 -39l-32 -360h-93
v284z" />
    <glyph glyph-name="uni0447" unicode="&#x447;" horiz-adv-x="1067" 
d="M766 446q-18 -43 -63.5 -90t-112.5 -79.5t-144 -32.5q-118 0 -194 56.5t-111 152.5t-35 217v329h127v-335q0 -132 49.5 -225t170.5 -93q84 0 156 48.5t114.5 128t42.5 165.5v311h127v-999h-127v446z" />
    <glyph glyph-name="uni0448" unicode="&#x448;" horiz-adv-x="1710" 
d="M938 36.5q-83 54.5 -119 160.5q-90 -213 -303 -213q-176 0 -259 113t-83 292v610h127v-596q0 -130 51 -224.5t172 -94.5q82 0 143.5 48.5t93.5 127t32 166.5v573h127v-600q0 -132 50 -223.5t171 -91.5q82 0 143 48.5t93 127t32 166.5v573h127v-999h-127v188
q-30 -90 -104.5 -148t-171.5 -58q-112 0 -195 54.5z" />
    <glyph glyph-name="uni0449" unicode="&#x449;" horiz-adv-x="1712" 
d="M1532 -23q-38 0 -72 28t-54.5 76.5t-19.5 104.5q-29 -90 -104 -147t-172 -57q-112 0 -194.5 55t-118.5 160q-91 -213 -303 -213q-176 0 -259 113t-83 292v610h127v-596q0 -130 51 -224.5t172 -94.5q82 0 143 48.5t93 127t32 166.5v573h127v-600q0 -132 50 -223.5
t171 -91.5q82 0 143 48.5t93 127t32 166.5v573h127v-794q0 -75 41.5 -113.5t102.5 -38.5l-33 -360h-92v284z" />
    <glyph glyph-name="uni044A" unicode="&#x44a;" horiz-adv-x="1145" 
d="M424.5 21q-89.5 41 -144.5 126t-55 211v533h-188v108h317v-348q21 38 67.5 73.5t110 58t132.5 22.5q107 0 194.5 -44t140 -137t52.5 -231q0 -139 -58.5 -232t-156.5 -137t-218 -44q-104 0 -193.5 41zM783 131q60 39 92 107.5t32 154.5t-34 154t-97 106.5t-145 38.5
q-78 0 -141 -33t-99.5 -92.5t-36.5 -134.5v-80q0 -74 35.5 -133t100.5 -93t151 -34q82 0 142 39z" />
    <glyph glyph-name="uni044B" unicode="&#x44b;" horiz-adv-x="1397" 
d="M399 21q-92 41 -149 126t-57 211v641h129v-348q33 63 103 108.5t169 45.5q109 0 205.5 -44.5t157.5 -137.5t61 -230q0 -138 -60 -231t-156 -137.5t-206 -44.5q-105 0 -197 41zM1176 0v999h127v-999h-127zM741.5 131q63.5 39 98 107.5t34.5 154.5t-34.5 154t-98 106.5
t-145.5 38.5q-75 0 -135 -33.5t-96 -92.5t-43 -134v-80q7 -75 43 -134t95.5 -92.5t135.5 -33.5q82 0 145.5 39z" />
    <glyph glyph-name="uni044C" unicode="&#x44c;" horiz-adv-x="1102" 
d="M379 21q-92 41 -149.5 126t-57.5 211v641h129v-348q34 64 103.5 109t168.5 45q109 0 205.5 -44.5t157.5 -137.5t61 -230q0 -138 -60 -231t-156 -137.5t-206 -44.5q-104 0 -196 41zM720.5 131q63.5 39 98.5 107.5t35 154.5t-35 154t-98 106.5t-146 38.5q-75 0 -135 -33.5
t-96 -92.5t-43 -134v-80q7 -75 43 -134t96 -92.5t135 -33.5q82 0 145.5 39z" />
    <glyph glyph-name="uni044D" unicode="&#x44d;" horiz-adv-x="961" 
d="M217.5 47q-94.5 67 -137.5 191l106 49q25 -92 95.5 -148.5t164.5 -56.5q92 0 155 50.5t95.5 131.5t40.5 176h-415v95h415q-5 98 -36.5 183.5t-95 140t-159.5 54.5q-93 0 -164 -55.5t-96 -148.5l-118 53q52 121 149.5 187.5t228.5 66.5q136 0 230.5 -70.5t142 -188.5
t47.5 -259q0 -142 -47.5 -259.5t-143 -188t-231.5 -70.5q-132 0 -226.5 67z" />
    <glyph glyph-name="uni044E" unicode="&#x44e;" horiz-adv-x="1405" 
d="M610.5 49q-105.5 69 -164 187.5t-57.5 261.5h-88v-498h-127v1413h127v-813h94q21 118 83.5 211.5t158.5 147t213 53.5q133 0 238 -69t164 -187.5t59 -259.5q0 -142 -59 -260t-164 -187t-238 -69q-134 0 -239.5 69zM1031.5 147q71.5 55 104.5 146t33 203t-33 202.5
t-104.5 145.5t-181.5 55q-111 0 -182.5 -55t-104.5 -145.5t-33 -202.5t33 -203t104.5 -146t182.5 -55q110 0 181.5 55z" />
    <glyph glyph-name="uni044F" unicode="&#x44f;" horiz-adv-x="961" 
d="M219 354q65 162 150 162q-119 20 -179.5 77t-60.5 173q0 62 30.5 114.5t98 85.5t172.5 33h356v-999h-127v471h-153q-64 0 -103 -35.5t-67 -116.5l-111 -319h-143zM659 586v317h-225q-77 0 -118.5 -38.5t-41.5 -104.5q0 -85 52.5 -129.5t175.5 -44.5h157z" />
    <glyph glyph-name="uni0450" unicode="&#x450;" horiz-adv-x="1030" 
d="M296.5 56q-98.5 68 -147.5 182.5t-49 255.5q0 139 48.5 257t143 189.5t228.5 71.5q150 0 242.5 -69.5t132 -178.5t39.5 -236q0 -35 -4 -71h-699q-3 -98 31.5 -180t104 -131.5t168.5 -49.5q96 0 164.5 23.5t125.5 83.5l86 -66q-81 -79 -168.5 -114t-205.5 -35
q-142 0 -240.5 68zM815 565q0 90 -28.5 167.5t-94.5 127t-172 49.5q-92 0 -156.5 -47t-97 -125t-35.5 -172h584zM434 1126l-245 287h176l215 -287h-146z" />
    <glyph glyph-name="uni0451" unicode="&#x451;" horiz-adv-x="1030" 
d="M296.5 56q-98.5 68 -147.5 182.5t-49 255.5q0 139 48.5 257t143 189.5t228.5 71.5q150 0 242.5 -69.5t132 -178.5t39.5 -236q0 -35 -4 -71h-699q-3 -98 31.5 -180t104 -131.5t168.5 -49.5q96 0 164.5 23.5t125.5 83.5l86 -66q-81 -79 -168.5 -114t-205.5 -35
q-142 0 -240.5 68zM815 565q0 90 -28.5 167.5t-94.5 127t-172 49.5q-92 0 -156.5 -47t-97 -125t-35.5 -172h584zM260 1229v184h160v-184h-160zM592 1229v184h160v-184h-160z" />
    <glyph glyph-name="uni0452" unicode="&#x452;" horiz-adv-x="1112" 
d="M426 -416q-80 45 -170 140l92 71q45 -51 78.5 -81.5t75 -49t94.5 -18.5q102 0 154 47t68 126.5t16 205.5v569q0 130 -50 216.5t-174 86.5q-86 0 -157.5 -48t-112.5 -128.5t-41 -173.5v-547h-123v1151h-192v104h192v158h123v-158h319v-104h-319v-328q30 55 82.5 98.5
t117 68t130.5 24.5q114 0 188 -53t109 -141.5t35 -198.5v-609q0 -220 -84.5 -346.5t-264.5 -126.5q-106 0 -186 45z" />
    <glyph glyph-name="uni0453" unicode="&#x453;" horiz-adv-x="756" 
d="M328 1124l209 289h149l-256 -289h-102zM172 0v999h549v-102h-424v-897h-125z" />
    <glyph glyph-name="uni0454" unicode="&#x454;" horiz-adv-x="961" 
d="M284.5 50.5q-95.5 70.5 -143 188t-47.5 259.5q0 141 47.5 259t142 188.5t230.5 70.5q131 0 228.5 -66.5t150.5 -187.5l-119 -53q-25 94 -95.5 149t-164.5 55q-96 0 -159.5 -54.5t-95 -140t-36.5 -183.5h416v-95h-416q8 -95 40.5 -176t95.5 -131.5t155 -50.5
q94 0 164.5 56.5t95.5 148.5l107 -49q-43 -124 -138 -191t-227 -67q-136 0 -231.5 70.5z" />
    <glyph glyph-name="uni0455" unicode="&#x455;" horiz-adv-x="858" 
d="M280 12q-74 32 -124.5 86.5t-71.5 118.5l106 64q16 -53 55.5 -95.5t92.5 -67t108 -24.5q87 0 148 41t61 137q0 60 -32 96t-80 53.5t-131 37.5q-100 24 -160.5 49t-103 79.5t-42.5 149.5q0 77 41.5 140.5t110.5 100t148 36.5q112 0 193.5 -52.5t127.5 -138.5l-102 -59
q-33 63 -86.5 96t-132.5 33q-80 0 -133.5 -41t-53.5 -119q0 -47 29 -75.5t72 -43t121 -32.5q106 -24 173 -50.5t114.5 -87.5t47.5 -168q0 -87 -45.5 -154.5t-122.5 -104.5t-168 -37q-86 0 -160 32z" />
    <glyph glyph-name="uni0456" unicode="&#x456;" horiz-adv-x="483" 
d="M164 1231v182h155v-182h-155zM176 0v999h127v-999h-127z" />
    <glyph glyph-name="uni0457" unicode="&#x457;" horiz-adv-x="475" 
d="M0 1192v160h143v-160h-143zM326 1192v160h143v-160h-143zM162 0v999h147v-999h-147z" />
    <glyph glyph-name="uni0458" unicode="&#x458;" horiz-adv-x="479" 
d="M158 1239v184h155v-184h-155zM-5.5 -431.5q-32.5 6.5 -55.5 14t-29 9.5l24 89q5 -1 23 -5t44.5 -8t51.5 -4q65 0 94 43.5t29 104.5v1187h127v-1165q0 -126 -61.5 -199t-184.5 -73q-30 0 -62.5 6.5z" />
    <glyph glyph-name="uni0459" unicode="&#x459;" horiz-adv-x="1602" 
d="M147.5 -12q-30.5 11 -71.5 30l43 99q5 -3 21.5 -12.5t34.5 -16t36 -6.5q117 0 117 539v378h596v-344h196q116 0 197.5 -26t130.5 -100.5t49 -211.5q0 -96 -50.5 -168t-137 -110.5t-189.5 -38.5h-321v897h-348v-279q0 -375 -76 -508t-172 -133q-25 0 -55.5 11zM1120 100
q234 0 234 217q0 134 -63 186t-171 52h-196v-455h196z" />
    <glyph glyph-name="uni045A" unicode="&#x45a;" horiz-adv-x="1634" 
d="M174 999h125v-399h532v399h123v-399h199q119 0 199 -21.5t129 -87.5t49 -192q0 -96 -50.5 -163.5t-136 -101.5t-190.5 -34h-322v498h-532v-498h-125v999zM1153 100q72 0 122.5 15t80.5 58.5t30 125.5q0 91 -30 134.5t-77 55t-126 11.5h-199v-400h199z" />
    <glyph glyph-name="uni045B" unicode="&#x45b;" horiz-adv-x="1112" 
d="M818.5 963.5q73.5 -52.5 108 -142t34.5 -200.5v-621h-127v598q0 126 -49 212.5t-171 86.5q-88 0 -160 -48t-113.5 -128.5t-41.5 -173.5v-547h-123v1132h-190v105h190v176h123v-176h322v-105h-322v-309q48 85 140 139t194 54q112 0 185.5 -52.5z" />
    <glyph glyph-name="uni045C" unicode="&#x45c;" horiz-adv-x="942" 
d="M424 1124l209 289h151l-258 -289h-102zM174 999h127v-374h143l220 374h157l-246 -407q49 0 87 -47t65 -115l160 -430h-146l-123 360q-27 82 -65.5 117t-103.5 35h-148v-512h-127v999z" />
    <glyph glyph-name="uni045D" unicode="&#x45d;" horiz-adv-x="1128" 
d="M502 1133l-226 280h150l209 -280h-133zM255.5 96q-81.5 119 -81.5 307v596h125v-602q0 -131 49 -224t170 -93q84 0 156 48.5t114.5 128t42.5 165.5v577h123v-999h-123v180q-18 -43 -63 -90.5t-112 -80t-144 -32.5q-175 0 -256.5 119z" />
    <glyph glyph-name="uni045E" unicode="&#x45e;" horiz-adv-x="961" 
d="M325.5 1174.5q-68.5 31.5 -110 92.5t-41.5 146h111q0 -48 25.5 -88t69 -63t93.5 -23t93.5 23t69.5 62.5t26 88.5h110q0 -82 -40.5 -143.5t-109 -94t-149.5 -32.5q-79 0 -147.5 31.5zM264 -430l162 432l-381 997h139l299 -847l293 847h139l-526 -1429h-125z" />
    <glyph glyph-name="uni045F" unicode="&#x45f;" horiz-adv-x="1128" 
d="M502 -307v307h-328v999h125v-895h532v895h123v-999h-329v-307h-123z" />
    <glyph glyph-name="uni0462" unicode="&#x462;" horiz-adv-x="1352" 
d="M426 1112h-350v111h350v190h135v-190h363v-111h-363v-348h252q134 0 232.5 -44t152 -129.5t53.5 -205.5t-53.5 -206.5t-152 -132.5t-232.5 -46h-387v1112zM813 117q145 0 226 70.5t81 197.5t-81 194.5t-226 67.5h-252v-530h252z" />
    <glyph glyph-name="uni0463" unicode="&#x463;" horiz-adv-x="979" 
d="M176 1151h-201v104h201v158h123v-158h213v-104h-213v-496h197q117 0 198.5 -26t130.5 -100.5t49 -211.5q0 -96 -50.5 -168t-137 -110.5t-190.5 -38.5h-320v1151zM496 100q108 0 171.5 49t63.5 168q0 134 -62.5 186t-172.5 52h-197v-455h197z" />
    <glyph glyph-name="uni0464" unicode="&#x464;" horiz-adv-x="1784" 
d="M791 67.5q-137 87.5 -209.5 239t-81.5 344.5h-148v-651h-133v1413h133v-651h148q9 192 81 344.5t209 241t332 88.5t339.5 -94t221.5 -275l-122 -51q-44 153 -161.5 225t-279.5 72q-157 0 -264 -73.5t-161 -198t-60 -279.5h645v-111h-645q6 -160 60.5 -283.5t162 -194.5
t266.5 -71q326 0 437 299l125 -51q-77 -181 -222 -275.5t-340 -94.5q-196 0 -333 87.5z" />
    <glyph glyph-name="uni0465" unicode="&#x465;" horiz-adv-x="1300" 
d="M622 50.5q-96 70.5 -143.5 189.5t-46.5 264h-133v-504h-125v999h125v-393h143q17 116 69 209t138.5 147t204.5 54q131 0 228.5 -66.5t150.5 -187.5l-119 -53q-26 94 -96 149t-164 55q-93 0 -159.5 -55.5t-99.5 -129t-32 -122.5h416v-94h-416q-1 -126 31.5 -223t98 -152
t161.5 -55q93 0 163 56.5t97 148.5l105 -49q-42 -124 -136.5 -191t-226.5 -67q-138 0 -234 70.5z" />
    <glyph glyph-name="uni0466" unicode="&#x466;" horiz-adv-x="1294" 
d="M76 0l520 1413h104l519 -1413h-144l-239 680h-123v-680h-131v680h-121l-240 -680h-145zM500 793h297l-148 424z" />
    <glyph glyph-name="uni0467" unicode="&#x467;" horiz-adv-x="1016" 
d="M76 0l381 999h104l379 -999h-147l-134 414h-88v-414h-127v414h-82l-159 -414h-127zM397 514h230l-117 326z" />
    <glyph glyph-name="uni0468" unicode="&#x468;" horiz-adv-x="1653" 
d="M219 0v1413h133v-651h363l239 651h105l518 -1413h-143l-240 680h-123v-680h-131v680h-121l-239 -680h-146l240 651h-322v-651h-133zM858 793h297l-147 424z" />
    <glyph glyph-name="uni0469" unicode="&#x469;" horiz-adv-x="1319" 
d="M174 0v999h125v-505h266l193 505h106l379 -999h-149l-131 414h-89v-414h-129v414h-79l-160 -414h-129l149 391h-227v-391h-125zM700 514h230l-117 326z" />
    <glyph glyph-name="uni046A" unicode="&#x46a;" horiz-adv-x="1554" 
d="M317 582q40 96 121 133t215 37l-401 551v110h1042v-110l-403 -551q139 0 220.5 -38t119.5 -132l239 -582h-159l-211 510q-13 35 -26.5 60.5t-43 47t-76.5 21.5h-114v-639h-133v639h-113q-65 0 -96 -38.5t-49 -90.5l-211 -510h-164zM772 801l371 502h-740z" />
    <glyph glyph-name="uni046B" unicode="&#x46b;" horiz-adv-x="1249" 
d="M1174 0h-146l-123 360q-19 55 -45 85.5t-66 43t-104 11.5v-500h-131v500q-67 1 -106.5 -11.5t-64.5 -42.5t-44 -86l-123 -360h-145l160 430q24 68 82 115t161 47l-250 305v102h791v-102l-248 -305q102 0 159.5 -47t82.5 -115zM624 593l240 304h-481z" />
    <glyph glyph-name="uni046C" unicode="&#x46c;" horiz-adv-x="1876" 
d="M219 1413h133v-659h643l-401 549v110h1042v-110l-403 -551q91 0 151 -15.5t101 -52.5t67 -102l240 -582h-139l-211 510q-2 5 -16.5 42t-48.5 62t-81 25h-112v-639h-135v639h-111q-46 0 -76 -21.5t-41.5 -42t-32.5 -65.5l-208 -510h-142l246 588q2 4 10.5 22.5t22.5 36.5
h-365v-647h-133v1413zM1114 801l371 502h-740z" />
    <glyph glyph-name="uni046D" unicode="&#x46d;" horiz-adv-x="1538" 
d="M1462 0h-143l-123 360q-24 68 -49.5 100.5t-63.5 43t-106 10.5v-514h-129v514q-70 0 -107 -11t-61 -43t-47 -100l-123 -360h-145l165 442q11 40 41 76h-272v-518h-125v999h125v-376h442l-223 274v102h791v-102l-234 -285q70 0 115.5 -28t69 -65.5t43.5 -88.5zM912 593
l241 304h-483z" />
    <glyph glyph-name="uni0472" unicode="&#x472;" horiz-adv-x="1511" 
d="M410 76.5q-140 96.5 -208.5 261.5t-68.5 369q0 205 68.5 369.5t208.5 261t344 96.5q206 0 346.5 -96.5t209 -261t68.5 -369.5t-68.5 -369.5t-209 -261t-346.5 -96.5q-204 0 -344 96.5zM1247 774q-10 150 -67 270t-164 191.5t-262 71.5t-262 -71.5t-163.5 -191.5
t-66.5 -270h985zM1026 183.5q110 77.5 164.5 207.5t58.5 289h-989q4 -159 58.5 -289t164 -207.5t271.5 -77.5t272 77.5z" />
    <glyph glyph-name="uni0473" unicode="&#x473;" horiz-adv-x="1112" 
d="M317 49q-105 69 -164 187t-59 260q0 141 59 259.5t164 187.5t238 69q134 0 239.5 -69t164.5 -187.5t59 -259.5q0 -142 -59 -260t-164.5 -187t-239.5 -69q-133 0 -238 69zM870 565q-13 149 -90.5 241.5t-224.5 92.5q-145 0 -223.5 -92.5t-93.5 -241.5h632zM789.5 198
q77.5 106 82.5 273h-636q3 -107 37 -192.5t104.5 -136t177.5 -50.5q157 0 234.5 106z" />
    <glyph glyph-name="uni0474" unicode="&#x474;" horiz-adv-x="1272" 
d="M37 1413h137l381 -1253l307 837q65 180 158.5 281t222.5 135v-131q-114 -55 -168 -127.5t-69.5 -113t-18.5 -46.5l-371 -995h-122z" />
    <glyph glyph-name="uni0475" unicode="&#x475;" horiz-adv-x="958" 
d="M47 999h137l240 -833l149 416q52 142 110.5 236.5t116.5 139t111 41.5v-135q-35 -10 -60.5 -27t-62 -73.5t-79.5 -169.5l-228 -594h-116z" />
    <glyph glyph-name="uni0478" unicode="&#x478;" horiz-adv-x="2472" 
d="M412 77q-140 97 -209.5 262t-69.5 368q0 202 69.5 367t209.5 262.5t342 97.5q204 0 344.5 -97.5t210 -262t69.5 -367.5t-69.5 -368t-210 -262t-344.5 -97q-202 0 -342 97zM1035 188.5q112 82.5 165 218.5t53 300q0 163 -53 299t-165 218.5t-281 82.5q-166 0 -277 -82.5
t-164 -218.5t-53 -299q0 -164 53 -300t164 -218.5t277 -82.5q169 0 281 82.5zM1771 -430l168 430l-383 999h139l303 -847l291 847h137l-526 -1429h-129z" />
    <glyph glyph-name="uni0479" unicode="&#x479;" horiz-adv-x="2077" 
d="M316 50.5q-105 70.5 -163.5 190t-58.5 261.5t58.5 260.5t163.5 188t239 69.5t240.5 -69.5t166.5 -188.5t60 -260q0 -142 -60 -261.5t-166.5 -190t-240.5 -70.5t-239 70.5zM745 141.5q77 59.5 114.5 155.5t37.5 205t-37.5 204t-113.5 153.5t-187 58.5q-110 0 -187 -58.5
t-115 -153.5t-38 -204q0 -110 38 -206t114.5 -155t185.5 -59q111 0 188 59.5zM1376 -430l168 430l-383 999h139l303 -847l291 847h137l-526 -1429h-129z" />
    <glyph glyph-name="uni0483" unicode="&#x483;" horiz-adv-x="0" 
d="M-922 1540v238h692v139h101v-217h-701v-160h-92z" />
    <glyph glyph-name="uni0490" unicode="&#x490;" horiz-adv-x="1069" 
d="M219 0v1413h649v307h131v-417h-647v-1303h-133z" />
    <glyph glyph-name="uni0491" unicode="&#x491;" horiz-adv-x="758" 
d="M172 0v999h426v308h123v-410h-424v-897h-125z" />
    <glyph glyph-name="uni0492" unicode="&#x492;" horiz-adv-x="1122" 
d="M1053 1303h-647v-488h291v-110h-291v-705h-134v705h-292v110h292v598h781v-110z" />
    <glyph glyph-name="uni0493" unicode="&#x493;" horiz-adv-x="758" 
d="M174 0v999h549v-102h-424v-897h-125z" />
    <glyph glyph-name="uni0496" unicode="&#x496;" horiz-adv-x="1919" 
d="M1900 168v-406h-127v238h-96l-209 586q-18 52 -70 90.5t-122 38.5h-250v-715h-133v715h-250q-73 0 -121.5 -35t-68.5 -94l-211 -586h-158l238 657q10 29 44.5 65.5t87.5 62.5t115 26l-407 602h164l395 -590h172v590h133v-590h172l393 590h166l-407 -602q62 0 114.5 -26
t87.5 -62.5t45 -65.5l177 -489h126z" />
    <glyph glyph-name="uni0497" unicode="&#x497;" horiz-adv-x="1409" 
d="M1417 168v-406h-127v238h-82l-123 360q-27 82 -65.5 117t-104.5 35h-147v-512h-127v512h-147q-65 0 -104 -35.5t-66 -116.5l-123 -360h-146l160 430q24 66 63.5 114t88.5 48l-246 407h158l219 -374h143v374h127v-374h143l219 374h158l-246 -407q49 0 88.5 -48t63.5 -114
l97 -262h126z" />
    <glyph glyph-name="uni049A" unicode="&#x49a;" horiz-adv-x="1245" 
d="M1226 168v-406h-127v238h-95l-211 586q-8 24 -35.5 54.5t-68.5 52.5t-87 22h-250v-715h-133v1413h133v-590h172l394 590h165l-407 -602q62 0 114.5 -26t87.5 -62.5t46 -65.5l176 -489h126z" />
    <glyph glyph-name="uni049B" unicode="&#x49b;" horiz-adv-x="944" 
d="M950 168v-406h-127v238h-82l-123 360q-27 82 -65.5 117t-103.5 35h-148v-512h-127v1413h127v-788h143l220 374h157l-246 -407q49 0 87 -47t65 -115l97 -262h126z" />
    <glyph glyph-name="uni04A2" unicode="&#x4a2;" horiz-adv-x="1446" 
d="M1227 168h124v-406h-127v238h-132v653h-738v-653h-135v1413h135v-651h738v651h135v-1245z" />
    <glyph glyph-name="uni04A3" unicode="&#x4a3;" horiz-adv-x="1128" 
d="M954 168h125v-406h-127v238h-123v498h-528v-498h-127v999h127v-399h528v399h125v-831z" />
    <glyph glyph-name="uni04AE" unicode="&#x4ae;" horiz-adv-x="1315" 
d="M594 0v553l-528 860h155l436 -719l439 719h153l-526 -860v-553h-129z" />
    <glyph glyph-name="uni04AF" unicode="&#x4af;" horiz-adv-x="942" 
d="M408 0v446l-342 553h155l250 -411l252 411h154l-340 -553v-446h-129z" />
    <glyph glyph-name="uni04B0" unicode="&#x4b0;" horiz-adv-x="1319" 
d="M723 553v-107h201v-110h-201v-336h-129v336h-387v110h387v107l-528 860h155l436 -719l439 719h153z" />
    <glyph glyph-name="uni04B1" unicode="&#x4b1;" horiz-adv-x="965" 
d="M537 446v-104h239v-110h-239v-232h-129v232h-349v110h349v104l-342 553h155l250 -411l252 411h154z" />
    <glyph glyph-name="uni04B2" unicode="&#x4b2;" horiz-adv-x="1239" 
d="M1045 168h118v-406h-127v238h-39l-381 588l-372 -588h-160l465 707l-463 706h160l372 -598l377 598h158l-461 -706z" />
    <glyph glyph-name="uni04B3" unicode="&#x4b3;" horiz-adv-x="895" 
d="M730 168h119v-406h-127v238h-32l-241 389l-240 -389h-154l334 504l-334 495h154l240 -383l241 383h150l-330 -495z" />
    <glyph glyph-name="uni04B6" unicode="&#x4b6;" horiz-adv-x="1319" 
d="M1220 168v-406h-127v238h-128v551q-120 -139 -347 -139q-165 0 -272.5 78t-158 216t-50.5 320v387h135v-401q0 -222 79 -347.5t267 -125.5q105 0 198.5 42t148.5 111v721h135v-1245h120z" />
    <glyph glyph-name="uni04B7" unicode="&#x4b7;" horiz-adv-x="1067" 
d="M1011 168v-406h-127v238h-118v446q-18 -43 -63.5 -90t-112.5 -79.5t-144 -32.5q-118 0 -194 56.5t-111 152.5t-35 217v329h127v-335q0 -132 49.5 -225t170.5 -93q84 0 156 48.5t114.5 128t42.5 165.5v311h127v-831h118z" />
    <glyph glyph-name="uni04BA" unicode="&#x4ba;" horiz-adv-x="1319" 
d="M354 862q120 139 347 139q165 0 272.5 -78t158 -216t50.5 -320v-387h-135v401q0 222 -79 347.5t-267 125.5q-105 0 -198.5 -42t-148.5 -111v-721h-135v1413h135v-551z" />
    <glyph glyph-name="uni04BB" unicode="&#x4bb;" horiz-adv-x="1112" 
d="M176 1413h123v-590q48 85 140 139t194 54q112 0 185.5 -52.5t108 -142t34.5 -200.5v-621h-127v598q0 126 -49 212.5t-171 86.5q-88 0 -160 -48t-113.5 -128.5t-41.5 -173.5v-547h-123v1413z" />
    <glyph glyph-name="uni04C0" unicode="&#x4c0;" horiz-adv-x="573" 
d="M219 0v1413h135v-1413h-135z" />
    <glyph glyph-name="uni04CF" unicode="&#x4cf;" horiz-adv-x="475" 
d="M174 0v1413h127v-1413h-127z" />
    <glyph glyph-name="uni04D8" unicode="&#x4d8;" horiz-adv-x="1511" 
d="M410 76.5q-140 96.5 -208.5 261.5t-68.5 369l1 34q1 11 1 33h1112q-10 150 -67 270t-164 191.5t-262 71.5q-136 0 -236.5 -56.5t-163.5 -156.5l-110 67q78 129 206 201t304 72q206 0 346.5 -96.5t209 -261t68.5 -369.5t-68.5 -369.5t-209 -261t-346.5 -96.5
q-204 0 -344 96.5zM1026 183.5q110 77.5 164.5 207.5t58.5 289h-989q4 -159 58.5 -289t164 -207.5t271.5 -77.5t272 77.5z" />
    <glyph glyph-name="uni04D9" unicode="&#x4d9;" horiz-adv-x="1030" 
d="M733.5 943q98.5 -68 147.5 -182.5t49 -255.5q0 -139 -48.5 -257t-143 -189.5t-228.5 -71.5q-150 0 -242.5 69.5t-132 178.5t-39.5 236q0 35 4 71h699q3 98 -31.5 180t-104 131.5t-168.5 49.5q-96 0 -164.5 -23.5t-125.5 -83.5l-86 66q81 79 168.5 114t205.5 35
q142 0 240.5 -68zM215 434q0 -90 28.5 -167.5t94.5 -127t172 -49.5q92 0 156.5 47t97 125t35.5 172h-584z" />
    <glyph glyph-name="uni04E2" unicode="&#x4e2;" horiz-adv-x="1409" 
d="M1190 0h-137v1311l-607 -1311h-227v1413h135v-1309l613 1309h223v-1413zM441 1606v121h536v-121h-536z" />
    <glyph glyph-name="uni04E3" unicode="&#x4e3;" 
d="M232.5 96q-82.5 119 -82.5 310v593h124v-604q0 -129 49 -222t169 -93q84 0 156.5 48.5t115.5 127.5t43 164v579h123v-999h-123v182q-18 -46 -63 -93.5t-111.5 -79.5t-145.5 -32q-172 0 -254.5 119zM289 1192v121h536v-121h-536z" />
    <glyph glyph-name="uni04E8" unicode="&#x4e8;" horiz-adv-x="1511" 
d="M410 76.5q-140 96.5 -208.5 261.5t-68.5 369q0 205 68.5 369.5t208.5 261t344 96.5q206 0 346.5 -96.5t209 -261t68.5 -369.5t-68.5 -369.5t-209 -261t-346.5 -96.5q-204 0 -344 96.5zM1247 774q-10 150 -67 270t-164 191.5t-262 71.5t-262 -71.5t-163.5 -191.5
t-66.5 -270h985zM1026 183.5q110 77.5 164.5 207.5t58.5 289h-989q4 -159 58.5 -289t164 -207.5t271.5 -77.5t272 77.5z" />
    <glyph glyph-name="uni04E9" unicode="&#x4e9;" horiz-adv-x="1112" 
d="M317 49q-105 69 -164 187t-59 260q0 141 59 259.5t164 187.5t238 69q134 0 239.5 -69t164.5 -187.5t59 -259.5q0 -142 -59 -260t-164.5 -187t-239.5 -69q-133 0 -238 69zM870 565q-13 149 -90.5 241.5t-224.5 92.5q-145 0 -223.5 -92.5t-93.5 -241.5h632zM789.5 198
q77.5 106 82.5 273h-636q3 -107 37 -192.5t104.5 -136t177.5 -50.5q157 0 234.5 106z" />
    <glyph glyph-name="uni04EE" unicode="&#x4ee;" horiz-adv-x="1116" 
d="M272 0l199 457l-395 956h149l316 -817l346 817h153l-622 -1413h-146zM293 1606v121h536v-121h-536z" />
    <glyph glyph-name="uni04EF" unicode="&#x4ef;" horiz-adv-x="961" 
d="M264 -430l162 432l-381 997h139l299 -847l293 847h139l-526 -1429h-125zM215 1192v121h536v-121h-536z" />
    <glyph glyph-name="Wgrave" unicode="&#x1e80;" horiz-adv-x="1966" 
d="M477 0l-391 1413h137l344 -1263l361 1181h110l363 -1181l342 1263h137l-391 -1413h-156l-346 1112l-354 -1112h-156zM913 1509l-245 287h176l215 -287h-146z" />
    <glyph glyph-name="wgrave" unicode="&#x1e81;" horiz-adv-x="1407" 
d="M332 0l-273 999h134l213 -845l239 845h119l240 -843l210 843h134l-273 -999h-127l-241 850l-248 -850h-127zM633 1126l-245 287h176l215 -287h-146z" />
    <glyph glyph-name="Wacute" unicode="&#x1e82;" horiz-adv-x="1966" 
d="M477 0l-391 1413h137l344 -1263l361 1181h110l363 -1181l342 1263h137l-391 -1413h-156l-346 1112l-354 -1112h-156zM897 1507l215 289h176l-268 -289h-123z" />
    <glyph glyph-name="wacute" unicode="&#x1e83;" horiz-adv-x="1407" 
d="M332 0l-273 999h134l213 -845l239 845h119l240 -843l210 843h134l-273 -999h-127l-241 850l-248 -850h-127zM617 1124l215 289h176l-268 -289h-123z" />
    <glyph glyph-name="Wdieresis" unicode="&#x1e84;" horiz-adv-x="1966" 
d="M477 0l-391 1413h137l344 -1263l361 1181h110l363 -1181l342 1263h137l-391 -1413h-156l-346 1112l-354 -1112h-156zM739 1612v184h160v-184h-160zM1071 1612v184h160v-184h-160z" />
    <glyph glyph-name="wdieresis" unicode="&#x1e85;" horiz-adv-x="1407" 
d="M332 0l-273 999h134l213 -845l239 845h119l240 -843l210 843h134l-273 -999h-127l-241 850l-248 -850h-127zM459 1229v184h160v-184h-160zM791 1229v184h160v-184h-160z" />
    <glyph glyph-name="uni1EA4" unicode="&#x1ea4;" horiz-adv-x="1296" 
d="M76 0l522 1413h104l519 -1413h-144l-108 307h-639l-107 -307h-147zM375 434h549l-273 780zM317 1512l332 356l332 -356h-154l-178 196l-176 -196h-156zM559 1952l215 289h176l-268 -289h-123z" />
    <glyph glyph-name="uni1EA5" unicode="&#x1ea5;" horiz-adv-x="1016" 
d="M233.5 15q-71.5 35 -111.5 100.5t-40 154.5q0 295 450 295h222q0 164 -60 255t-198 91q-175 0 -287 -153l-90 71q137 191 366 191q123 0 208.5 -50t129 -141.5t43.5 -214.5v-614h-108v205q-50 -112 -147 -168.5t-214 -56.5q-92 0 -163.5 35zM593 143.5q78 57.5 119.5 146
t41.5 177.5h-207q-171 0 -252.5 -45t-81.5 -154q0 -94 54.5 -138t142.5 -44q105 0 183 57.5zM170 1098l332 356l332 -356h-154l-178 196l-176 -196h-156zM412 1538l215 289h176l-268 -289h-123z" />
    <glyph glyph-name="uni1EA6" unicode="&#x1ea6;" horiz-adv-x="1296" 
d="M76 0l522 1413h104l519 -1413h-144l-108 307h-639l-107 -307h-147zM375 434h549l-273 780zM317 1512l332 356l332 -356h-154l-178 196l-176 -196h-156zM575 1954l-245 287h176l215 -287h-146z" />
    <glyph glyph-name="uni1EA7" unicode="&#x1ea7;" horiz-adv-x="1016" 
d="M233.5 15q-71.5 35 -111.5 100.5t-40 154.5q0 295 450 295h222q0 164 -60 255t-198 91q-175 0 -287 -153l-90 71q137 191 366 191q123 0 208.5 -50t129 -141.5t43.5 -214.5v-614h-108v205q-50 -112 -147 -168.5t-214 -56.5q-92 0 -163.5 35zM593 143.5q78 57.5 119.5 146
t41.5 177.5h-207q-171 0 -252.5 -45t-81.5 -154q0 -94 54.5 -138t142.5 -44q105 0 183 57.5zM170 1098l332 356l332 -356h-154l-178 196l-176 -196h-156zM428 1540l-245 287h176l215 -287h-146z" />
    <glyph glyph-name="uni1EAA" unicode="&#x1eaa;" horiz-adv-x="1296" 
d="M76 0l522 1413h104l519 -1413h-144l-108 307h-639l-107 -307h-147zM375 434h549l-273 780zM317 1512l332 356l332 -356h-154l-178 196l-176 -196h-156zM686 2008.5q-34 23.5 -75 69.5q-30 34 -51 50.5t-46 16.5q-37 0 -53.5 -38.5t-16.5 -98.5h-90q0 108 41 174.5
t117 66.5q39 0 69.5 -14.5t51.5 -34.5t48 -51q28 -33 47 -48.5t42 -15.5q74 0 74 158h96q0 -125 -44.5 -191.5t-127.5 -66.5q-48 0 -82 23.5z" />
    <glyph glyph-name="uni1EAB" unicode="&#x1eab;" horiz-adv-x="1016" 
d="M233.5 15q-71.5 35 -111.5 100.5t-40 154.5q0 295 450 295h222q0 164 -60 255t-198 91q-175 0 -287 -153l-90 71q137 191 366 191q123 0 208.5 -50t129 -141.5t43.5 -214.5v-614h-108v205q-50 -112 -147 -168.5t-214 -56.5q-92 0 -163.5 35zM593 143.5q78 57.5 119.5 146
t41.5 177.5h-207q-171 0 -252.5 -45t-81.5 -154q0 -94 54.5 -138t142.5 -44q105 0 183 57.5zM170 1098l332 356l332 -356h-154l-178 196l-176 -196h-156zM539 1594.5q-34 23.5 -75 69.5q-30 34 -51 50.5t-46 16.5q-37 0 -53.5 -38.5t-16.5 -98.5h-90q0 108 41 174.5
t117 66.5q39 0 69.5 -14.5t51.5 -34.5t48 -51q28 -33 47 -48.5t42 -15.5q74 0 74 158h96q0 -125 -44.5 -191.5t-127.5 -66.5q-48 0 -82 23.5z" />
    <glyph glyph-name="uni1EAE" unicode="&#x1eae;" horiz-adv-x="1296" 
d="M76 0l522 1413h104l519 -1413h-144l-108 307h-639l-107 -307h-147zM375 434h549l-273 780zM493.5 1588.5q-69.5 31.5 -109.5 92.5t-40 146h127q0 -47 23.5 -84.5t64.5 -58.5t90 -21q48 0 88.5 20.5t64 58t23.5 85.5h127q0 -85 -39.5 -146t-108.5 -92.5t-155 -31.5
t-155.5 31.5zM559 1952l215 289h176l-268 -289h-123z" />
    <glyph glyph-name="uni1EAF" unicode="&#x1eaf;" horiz-adv-x="1016" 
d="M233.5 15q-71.5 35 -111.5 100.5t-40 154.5q0 295 450 295h222q0 164 -60 255t-198 91q-175 0 -287 -153l-90 71q137 191 366 191q123 0 208.5 -50t129 -141.5t43.5 -214.5v-614h-108v205q-50 -112 -147 -168.5t-214 -56.5q-92 0 -163.5 35zM593 143.5q78 57.5 119.5 146
t41.5 177.5h-207q-171 0 -252.5 -45t-81.5 -154q0 -94 54.5 -138t142.5 -44q105 0 183 57.5zM346.5 1174.5q-69.5 31.5 -109.5 92.5t-40 146h127q0 -47 23.5 -84.5t64.5 -58.5t90 -21q48 0 88.5 20.5t64 58t23.5 85.5h127q0 -85 -39.5 -146t-108.5 -92.5t-155 -31.5
t-155.5 31.5zM412 1538l215 289h176l-268 -289h-123z" />
    <glyph glyph-name="uni1EB0" unicode="&#x1eb0;" horiz-adv-x="1296" 
d="M76 0l522 1413h104l519 -1413h-144l-108 307h-639l-107 -307h-147zM375 434h549l-273 780zM493.5 1588.5q-69.5 31.5 -109.5 92.5t-40 146h127q0 -47 23.5 -84.5t64.5 -58.5t90 -21q48 0 88.5 20.5t64 58t23.5 85.5h127q0 -85 -39.5 -146t-108.5 -92.5t-155 -31.5
t-155.5 31.5zM575 1954l-245 287h176l215 -287h-146z" />
    <glyph glyph-name="uni1EB1" unicode="&#x1eb1;" horiz-adv-x="1016" 
d="M233.5 15q-71.5 35 -111.5 100.5t-40 154.5q0 295 450 295h222q0 164 -60 255t-198 91q-175 0 -287 -153l-90 71q137 191 366 191q123 0 208.5 -50t129 -141.5t43.5 -214.5v-614h-108v205q-50 -112 -147 -168.5t-214 -56.5q-92 0 -163.5 35zM593 143.5q78 57.5 119.5 146
t41.5 177.5h-207q-171 0 -252.5 -45t-81.5 -154q0 -94 54.5 -138t142.5 -44q105 0 183 57.5zM346.5 1174.5q-69.5 31.5 -109.5 92.5t-40 146h127q0 -47 23.5 -84.5t64.5 -58.5t90 -21q48 0 88.5 20.5t64 58t23.5 85.5h127q0 -85 -39.5 -146t-108.5 -92.5t-155 -31.5
t-155.5 31.5zM428 1540l-245 287h176l215 -287h-146z" />
    <glyph glyph-name="uni1EB4" unicode="&#x1eb4;" horiz-adv-x="1296" 
d="M76 0l522 1413h104l519 -1413h-144l-108 307h-639l-107 -307h-147zM375 434h549l-273 780zM493.5 1588.5q-69.5 31.5 -109.5 92.5t-40 146h127q0 -47 23.5 -84.5t64.5 -58.5t90 -21q48 0 88.5 20.5t64 58t23.5 85.5h127q0 -85 -39.5 -146t-108.5 -92.5t-155 -31.5
t-155.5 31.5zM686 2008.5q-34 23.5 -75 69.5q-30 34 -51 50.5t-46 16.5q-37 0 -53.5 -38.5t-16.5 -98.5h-90q0 108 41 174.5t117 66.5q39 0 69.5 -14.5t51.5 -34.5t48 -51q28 -33 47 -48.5t42 -15.5q74 0 74 158h96q0 -125 -44.5 -191.5t-127.5 -66.5q-48 0 -82 23.5z" />
    <glyph glyph-name="uni1EB5" unicode="&#x1eb5;" horiz-adv-x="1016" 
d="M233.5 15q-71.5 35 -111.5 100.5t-40 154.5q0 295 450 295h222q0 164 -60 255t-198 91q-175 0 -287 -153l-90 71q137 191 366 191q123 0 208.5 -50t129 -141.5t43.5 -214.5v-614h-108v205q-50 -112 -147 -168.5t-214 -56.5q-92 0 -163.5 35zM593 143.5q78 57.5 119.5 146
t41.5 177.5h-207q-171 0 -252.5 -45t-81.5 -154q0 -94 54.5 -138t142.5 -44q105 0 183 57.5zM346.5 1174.5q-69.5 31.5 -109.5 92.5t-40 146h127q0 -47 23.5 -84.5t64.5 -58.5t90 -21q48 0 88.5 20.5t64 58t23.5 85.5h127q0 -85 -39.5 -146t-108.5 -92.5t-155 -31.5
t-155.5 31.5zM539 1594.5q-34 23.5 -75 69.5q-30 34 -51 50.5t-46 16.5q-37 0 -53.5 -38.5t-16.5 -98.5h-90q0 108 41 174.5t117 66.5q39 0 69.5 -14.5t51.5 -34.5t48 -51q28 -33 47 -48.5t42 -15.5q74 0 74 158h96q0 -125 -44.5 -191.5t-127.5 -66.5q-48 0 -82 23.5z" />
    <glyph glyph-name="uni1EBC" unicode="&#x1ebc;" horiz-adv-x="1237" 
d="M219 0v1413h909v-113h-774v-538h662v-109h-662v-532h774v-121h-909zM715 1594.5q-34 23.5 -75 69.5q-30 34 -51 50.5t-46 16.5q-37 0 -53.5 -38.5t-16.5 -98.5h-90q0 108 41 174.5t117 66.5q39 0 69.5 -14.5t51.5 -34.5t48 -51q28 -33 47 -48.5t42 -15.5q74 0 74 158h96
q0 -125 -44.5 -191.5t-127.5 -66.5q-48 0 -82 23.5z" />
    <glyph glyph-name="uni1EBD" unicode="&#x1ebd;" horiz-adv-x="1030" 
d="M296.5 56q-98.5 68 -147.5 182.5t-49 255.5q0 139 48.5 257t143 189.5t228.5 71.5q150 0 242.5 -69.5t132 -178.5t39.5 -236q0 -35 -4 -71h-699q-3 -98 31.5 -180t104 -131.5t168.5 -49.5q96 0 164.5 23.5t125.5 83.5l86 -66q-81 -79 -168.5 -114t-205.5 -35
q-142 0 -240.5 68zM815 565q0 90 -28.5 167.5t-94.5 127t-172 49.5q-92 0 -156.5 -47t-97 -125t-35.5 -172h584zM545 1180.5q-34 23.5 -75 69.5q-30 34 -51 50.5t-46 16.5q-37 0 -53.5 -38.5t-16.5 -98.5h-90q0 108 41 174.5t117 66.5q39 0 69.5 -14.5t51.5 -34.5t48 -51
q28 -33 47 -48.5t42 -15.5q74 0 74 158h96q0 -125 -44.5 -191.5t-127.5 -66.5q-48 0 -82 23.5z" />
    <glyph glyph-name="uni1EBE" unicode="&#x1ebe;" horiz-adv-x="1237" 
d="M219 0v1413h909v-113h-774v-538h662v-109h-662v-532h774v-121h-909zM346 1512l332 356l332 -356h-154l-178 196l-176 -196h-156zM588 1952l215 289h176l-268 -289h-123z" />
    <glyph glyph-name="uni1EBF" unicode="&#x1ebf;" horiz-adv-x="1030" 
d="M296.5 56q-98.5 68 -147.5 182.5t-49 255.5q0 139 48.5 257t143 189.5t228.5 71.5q150 0 242.5 -69.5t132 -178.5t39.5 -236q0 -35 -4 -71h-699q-3 -98 31.5 -180t104 -131.5t168.5 -49.5q96 0 164.5 23.5t125.5 83.5l86 -66q-81 -79 -168.5 -114t-205.5 -35
q-142 0 -240.5 68zM815 565q0 90 -28.5 167.5t-94.5 127t-172 49.5q-92 0 -156.5 -47t-97 -125t-35.5 -172h584zM176 1098l332 356l332 -356h-154l-178 196l-176 -196h-156zM418 1538l215 289h176l-268 -289h-123z" />
    <glyph glyph-name="uni1EC0" unicode="&#x1ec0;" horiz-adv-x="1237" 
d="M219 0v1413h909v-113h-774v-538h662v-109h-662v-532h774v-121h-909zM346 1512l332 356l332 -356h-154l-178 196l-176 -196h-156zM604 1954l-245 287h176l215 -287h-146z" />
    <glyph glyph-name="uni1EC1" unicode="&#x1ec1;" horiz-adv-x="1030" 
d="M296.5 56q-98.5 68 -147.5 182.5t-49 255.5q0 139 48.5 257t143 189.5t228.5 71.5q150 0 242.5 -69.5t132 -178.5t39.5 -236q0 -35 -4 -71h-699q-3 -98 31.5 -180t104 -131.5t168.5 -49.5q96 0 164.5 23.5t125.5 83.5l86 -66q-81 -79 -168.5 -114t-205.5 -35
q-142 0 -240.5 68zM815 565q0 90 -28.5 167.5t-94.5 127t-172 49.5q-92 0 -156.5 -47t-97 -125t-35.5 -172h584zM176 1098l332 356l332 -356h-154l-178 196l-176 -196h-156zM434 1540l-245 287h176l215 -287h-146z" />
    <glyph glyph-name="uni1EC4" unicode="&#x1ec4;" horiz-adv-x="1237" 
d="M219 0v1413h909v-113h-774v-538h662v-109h-662v-532h774v-121h-909zM346 1512l332 356l332 -356h-154l-178 196l-176 -196h-156zM715 2008.5q-34 23.5 -75 69.5q-30 34 -51 50.5t-46 16.5q-37 0 -53.5 -38.5t-16.5 -98.5h-90q0 108 41 174.5t117 66.5q39 0 69.5 -14.5
t51.5 -34.5t48 -51q28 -33 47 -48.5t42 -15.5q74 0 74 158h96q0 -125 -44.5 -191.5t-127.5 -66.5q-48 0 -82 23.5z" />
    <glyph glyph-name="uni1EC5" unicode="&#x1ec5;" horiz-adv-x="1030" 
d="M296.5 56q-98.5 68 -147.5 182.5t-49 255.5q0 139 48.5 257t143 189.5t228.5 71.5q150 0 242.5 -69.5t132 -178.5t39.5 -236q0 -35 -4 -71h-699q-3 -98 31.5 -180t104 -131.5t168.5 -49.5q96 0 164.5 23.5t125.5 83.5l86 -66q-81 -79 -168.5 -114t-205.5 -35
q-142 0 -240.5 68zM815 565q0 90 -28.5 167.5t-94.5 127t-172 49.5q-92 0 -156.5 -47t-97 -125t-35.5 -172h584zM176 1098l332 356l332 -356h-154l-178 196l-176 -196h-156zM545 1594.5q-34 23.5 -75 69.5q-30 34 -51 50.5t-46 16.5q-37 0 -53.5 -38.5t-16.5 -98.5h-90
q0 108 41 174.5t117 66.5q39 0 69.5 -14.5t51.5 -34.5t48 -51q28 -33 47 -48.5t42 -15.5q74 0 74 158h96q0 -125 -44.5 -191.5t-127.5 -66.5q-48 0 -82 23.5z" />
    <glyph glyph-name="uni1ED0" unicode="&#x1ed0;" horiz-adv-x="1511" 
d="M412 77q-140 97 -209.5 262t-69.5 368q0 202 69.5 367t209.5 262.5t342 97.5q204 0 344.5 -97.5t210 -262t69.5 -367.5t-69.5 -368t-210 -262t-344.5 -97q-202 0 -342 97zM1035 188.5q112 82.5 165 218.5t53 300q0 163 -53 299t-165 218.5t-281 82.5q-166 0 -277 -82.5
t-164 -218.5t-53 -299q0 -164 53 -300t164 -218.5t277 -82.5q169 0 281 82.5zM422 1512l332 356l332 -356h-154l-178 196l-176 -196h-156zM664 1952l215 289h176l-268 -289h-123z" />
    <glyph glyph-name="uni1ED1" unicode="&#x1ed1;" horiz-adv-x="1116" 
d="M316 50.5q-105 70.5 -163.5 190t-58.5 261.5t58.5 260.5t163.5 188t239 69.5t240.5 -69.5t166.5 -188.5t60 -260q0 -142 -60 -261.5t-166.5 -190t-240.5 -70.5t-239 70.5zM745 141.5q77 59.5 114.5 155.5t37.5 205t-37.5 204t-113.5 153.5t-187 58.5q-110 0 -187 -58.5
t-115 -153.5t-38 -204q0 -110 38 -206t114.5 -155t185.5 -59q111 0 188 59.5zM225 1098l332 356l332 -356h-154l-178 196l-176 -196h-156zM467 1538l215 289h176l-268 -289h-123z" />
    <glyph glyph-name="uni1ED2" unicode="&#x1ed2;" horiz-adv-x="1511" 
d="M412 77q-140 97 -209.5 262t-69.5 368q0 202 69.5 367t209.5 262.5t342 97.5q204 0 344.5 -97.5t210 -262t69.5 -367.5t-69.5 -368t-210 -262t-344.5 -97q-202 0 -342 97zM1035 188.5q112 82.5 165 218.5t53 300q0 163 -53 299t-165 218.5t-281 82.5q-166 0 -277 -82.5
t-164 -218.5t-53 -299q0 -164 53 -300t164 -218.5t277 -82.5q169 0 281 82.5zM422 1512l332 356l332 -356h-154l-178 196l-176 -196h-156zM680 1954l-245 287h176l215 -287h-146z" />
    <glyph glyph-name="uni1ED3" unicode="&#x1ed3;" horiz-adv-x="1116" 
d="M316 50.5q-105 70.5 -163.5 190t-58.5 261.5t58.5 260.5t163.5 188t239 69.5t240.5 -69.5t166.5 -188.5t60 -260q0 -142 -60 -261.5t-166.5 -190t-240.5 -70.5t-239 70.5zM745 141.5q77 59.5 114.5 155.5t37.5 205t-37.5 204t-113.5 153.5t-187 58.5q-110 0 -187 -58.5
t-115 -153.5t-38 -204q0 -110 38 -206t114.5 -155t185.5 -59q111 0 188 59.5zM225 1098l332 356l332 -356h-154l-178 196l-176 -196h-156zM483 1540l-245 287h176l215 -287h-146z" />
    <glyph glyph-name="uni1ED6" unicode="&#x1ed6;" horiz-adv-x="1511" 
d="M412 77q-140 97 -209.5 262t-69.5 368q0 202 69.5 367t209.5 262.5t342 97.5q204 0 344.5 -97.5t210 -262t69.5 -367.5t-69.5 -368t-210 -262t-344.5 -97q-202 0 -342 97zM1035 188.5q112 82.5 165 218.5t53 300q0 163 -53 299t-165 218.5t-281 82.5q-166 0 -277 -82.5
t-164 -218.5t-53 -299q0 -164 53 -300t164 -218.5t277 -82.5q169 0 281 82.5zM422 1512l332 356l332 -356h-154l-178 196l-176 -196h-156zM791 2008.5q-34 23.5 -75 69.5q-30 34 -51 50.5t-46 16.5q-37 0 -53.5 -38.5t-16.5 -98.5h-90q0 108 41 174.5t117 66.5
q39 0 69.5 -14.5t51.5 -34.5t48 -51q28 -33 47 -48.5t42 -15.5q74 0 74 158h96q0 -125 -44.5 -191.5t-127.5 -66.5q-48 0 -82 23.5z" />
    <glyph glyph-name="uni1ED7" unicode="&#x1ed7;" horiz-adv-x="1116" 
d="M316 50.5q-105 70.5 -163.5 190t-58.5 261.5t58.5 260.5t163.5 188t239 69.5t240.5 -69.5t166.5 -188.5t60 -260q0 -142 -60 -261.5t-166.5 -190t-240.5 -70.5t-239 70.5zM745 141.5q77 59.5 114.5 155.5t37.5 205t-37.5 204t-113.5 153.5t-187 58.5q-110 0 -187 -58.5
t-115 -153.5t-38 -204q0 -110 38 -206t114.5 -155t185.5 -59q111 0 188 59.5zM225 1098l332 356l332 -356h-154l-178 196l-176 -196h-156zM594 1594.5q-34 23.5 -75 69.5q-30 34 -51 50.5t-46 16.5q-37 0 -53.5 -38.5t-16.5 -98.5h-90q0 108 41 174.5t117 66.5
q39 0 69.5 -14.5t51.5 -34.5t48 -51q28 -33 47 -48.5t42 -15.5q74 0 74 158h96q0 -125 -44.5 -191.5t-127.5 -66.5q-48 0 -82 23.5z" />
    <glyph glyph-name="Ygrave" unicode="&#x1ef2;" horiz-adv-x="1315" 
d="M594 0v553l-528 860h155l436 -719l439 719h153l-526 -860v-553h-129zM583 1540l-245 287h176l215 -287h-146z" />
    <glyph glyph-name="ygrave" unicode="&#x1ef3;" horiz-adv-x="961" 
d="M260 -430l168 430l-383 999h139l303 -847l291 847h137l-526 -1429h-129zM401 1126l-245 287h176l215 -287h-146z" />
    <glyph glyph-name="uni1EF8" unicode="&#x1ef8;" horiz-adv-x="1315" 
d="M594 0v553l-528 860h155l436 -719l439 719h153l-526 -860v-553h-129zM694 1594.5q-34 23.5 -75 69.5q-30 34 -51 50.5t-46 16.5q-37 0 -53.5 -38.5t-16.5 -98.5h-90q0 108 41 174.5t117 66.5q39 0 69.5 -14.5t51.5 -34.5t48 -51q28 -33 47 -48.5t42 -15.5q74 0 74 158h96
q0 -125 -44.5 -191.5t-127.5 -66.5q-48 0 -82 23.5z" />
    <glyph glyph-name="uni1EF9" unicode="&#x1ef9;" horiz-adv-x="961" 
d="M260 -430l168 430l-383 999h139l303 -847l291 847h137l-526 -1429h-129zM512 1180.5q-34 23.5 -75 69.5q-30 34 -51 50.5t-46 16.5q-37 0 -53.5 -38.5t-16.5 -98.5h-90q0 108 41 174.5t117 66.5q39 0 69.5 -14.5t51.5 -34.5t48 -51q28 -33 47 -48.5t42 -15.5q74 0 74 158
h96q0 -125 -44.5 -191.5t-127.5 -66.5q-48 0 -82 23.5z" />
    <glyph glyph-name="endash" unicode="&#x2013;" horiz-adv-x="1012" 
d="M166 596v96h680v-96h-680z" />
    <glyph glyph-name="emdash" unicode="&#x2014;" horiz-adv-x="2048" 
d="M0 596v96h2048v-96h-2048z" />
    <glyph glyph-name="uni2015" unicode="&#x2015;" horiz-adv-x="1503" 
d="M166 596v96h1171v-96h-1171z" />
    <glyph glyph-name="quoteleft" unicode="&#x2018;" horiz-adv-x="555" 
d="M326 944l-213 469h176l114 -469h-77z" />
    <glyph glyph-name="quoteright" unicode="&#x2019;" horiz-adv-x="555" 
d="M152 944l116 469h174l-215 -469h-75z" />
    <glyph glyph-name="quotesinglbase" unicode="&#x201a;" horiz-adv-x="563" 
d="M150 -225l118 489h183l-215 -489h-86z" />
    <glyph glyph-name="quotedblleft" unicode="&#x201c;" horiz-adv-x="844" 
d="M326 944l-213 469h176l114 -469h-77zM616 944l-215 469h174l117 -469h-76z" />
    <glyph glyph-name="quotedblright" unicode="&#x201d;" horiz-adv-x="844" 
d="M152 944l116 469h174l-215 -469h-75zM440 944l119 469h172l-213 -469h-78z" />
    <glyph glyph-name="quotedblbase" unicode="&#x201e;" horiz-adv-x="870" 
d="M150 -225l118 489h183l-215 -489h-86zM457 -225l118 489h183l-215 -489h-86z" />
    <glyph glyph-name="dagger" unicode="&#x2020;" horiz-adv-x="813" 
d="M340 -205v1059h-221v131h221v428h133v-428h221v-131h-221v-1059h-133z" />
    <glyph glyph-name="daggerdbl" unicode="&#x2021;" horiz-adv-x="874" 
d="M371 -205v426h-221v135h221v498h-221v131h221v428h133v-428h221v-131h-221v-498h221v-135h-221v-426h-133z" />
    <glyph glyph-name="bullet" unicode="&#x2022;" horiz-adv-x="840" 
d="M301 276q-55 32 -87 86.5t-32 118.5t32 119t87 87t119 32t118.5 -32t86.5 -87t32 -119t-32 -118.5t-86.5 -86.5t-118.5 -32t-119 32z" />
    <glyph glyph-name="uni2023" unicode="&#x2023;" horiz-adv-x="768" 
d="M244 260v436l391 -217z" />
    <glyph glyph-name="twodotenleader" unicode="&#x2025;" horiz-adv-x="1079" 
d="M240 0v176h186v-176h-186zM653 0v176h187v-176h-187z" />
    <glyph glyph-name="ellipsis" unicode="&#x2026;" horiz-adv-x="1493" 
d="M240 0v176h186v-176h-186zM653 0v176h187v-176h-187zM1067 0v176h186v-176h-186z" />
    <glyph glyph-name="perthousand" unicode="&#x2030;" horiz-adv-x="2167" 
d="M244 860.5q-54 47.5 -77.5 118.5t-23.5 143q0 74 23.5 146t76 120t134.5 48q78 0 132 -45t80.5 -116.5t26.5 -152.5q0 -79 -26 -150t-78.5 -115t-128.5 -44q-85 0 -139 47.5zM358 8l744 1387h112l-743 -1387h-113zM461.5 929.5q31.5 34.5 46 87t14.5 107.5q0 56 -15 108
t-47.5 86t-82.5 34t-83 -34t-48 -86.5t-15 -109.5q0 -56 15 -107.5t49 -85.5t86 -34q49 0 80.5 34.5zM1071.5 53q-53.5 47 -77 117t-23.5 143t23 144t75.5 118.5t134.5 47.5q77 0 131.5 -44.5t81.5 -116t27 -151.5q0 -79 -26 -148.5t-79 -113t-129 -43.5q-85 0 -138.5 47z
M1651 53q-54 47 -77.5 117t-23.5 143t23.5 144t76 118.5t134.5 47.5q78 0 132.5 -44.5t81.5 -116t27 -151.5q0 -79 -26.5 -148.5t-79.5 -113t-129 -43.5q-85 0 -139 47zM1289.5 122.5q32.5 34.5 47.5 86t15 104.5q0 56 -15 107.5t-48.5 85t-84.5 33.5q-50 0 -82.5 -33.5
t-47.5 -85t-15 -107.5q0 -55 15 -106.5t48.5 -85t85.5 -33.5q49 0 81.5 34.5zM1869 122.5q31 34.5 45.5 86t14.5 104.5q0 56 -15 107.5t-47.5 85t-82.5 33.5q-49 0 -81.5 -33.5t-47.5 -85t-15 -107.5q0 -55 15 -106.5t49 -85t86 -33.5q48 0 79 34.5z" />
    <glyph glyph-name="uni2031" unicode="&#x2031;" horiz-adv-x="2728" 
d="M244 860.5q-54 47.5 -77.5 119t-23.5 144.5q0 74 23 145t75.5 119t135.5 48q76 0 129.5 -45t80.5 -117t27 -152q0 -79 -26 -149.5t-78.5 -115t-126.5 -44.5q-85 0 -139 47.5zM358 8l744 1385h110l-741 -1385h-113zM461.5 929.5q31.5 34.5 46 87t14.5 107.5
q0 57 -15 109.5t-47.5 86.5t-82.5 34q-51 0 -84.5 -34.5t-48.5 -87t-15 -108.5t15.5 -108.5t49.5 -86.5t87 -34q49 0 80.5 34.5zM1071.5 53q-53.5 47 -77 117t-23.5 143t23 144t75.5 118.5t134.5 47.5q76 0 130 -45t81 -116.5t27 -150.5t-26.5 -148.5t-79 -113t-126.5 -43.5
q-85 0 -138.5 47zM1649 53q-54 47 -77.5 117t-23.5 143t23.5 144t76 118.5t134.5 47.5q78 0 131.5 -44.5t79.5 -116t26 -151.5q0 -79 -25.5 -148.5t-78 -113t-127.5 -43.5q-85 0 -139 47zM2216.5 53q-53.5 47 -77 117t-23.5 143t23 144t75.5 118.5t134.5 47.5
q78 0 131.5 -44.5t80 -116t26.5 -151.5q0 -79 -26 -148.5t-78.5 -113t-127.5 -43.5q-85 0 -138.5 47zM1289.5 120.5q32.5 34.5 47.5 86.5t15 106q0 56 -15 108t-48.5 86t-84.5 34t-84 -34t-48 -86t-15 -108q0 -55 15.5 -107t49 -86t86.5 -34q49 0 81.5 34.5zM1867 120.5
q32 34.5 47 86.5t15 106q0 56 -15 108t-48 86t-84 34t-84.5 -34t-48.5 -86t-15 -108q0 -55 15.5 -107t49.5 -86t87 -34q49 0 81 34.5zM2434.5 120.5q32.5 34.5 47.5 86.5t15 106q0 56 -15 108t-48.5 86t-84.5 34t-84 -34t-48 -86t-15 -108q0 -55 15.5 -107t49 -86t86.5 -34
q49 0 81.5 34.5z" />
    <glyph glyph-name="guilsinglleft" unicode="&#x2039;" horiz-adv-x="600" 
d="M430 193l-354 319l354 317v-149l-197 -168l197 -170v-149z" />
    <glyph glyph-name="guilsinglright" unicode="&#x203a;" horiz-adv-x="600" 
d="M168 193v149l197 170l-197 168v149l354 -317z" />
    <glyph glyph-name="fraction" unicode="&#x2044;" horiz-adv-x="723" 
d="M-82 0l748 1413h139l-746 -1413h-141z" />
    <glyph glyph-name="Euro" unicode="&#x20ac;" horiz-adv-x="1280" 
d="M539 43q-101 63 -164.5 175.5t-89.5 260.5h-127l49 115h61q-2 37 -2 113q0 32 1 63t5 61h-114l49 109h80q27 146 90.5 257.5t163 175t231.5 63.5q111 0 203 -47.5t160 -141.5l-95 -80q-48 80 -116 114t-156 34q-138 0 -230 -104.5t-128 -270.5h524l-49 -115h-494
q-4 -68 -4 -112q0 -45 4 -123h543l-49 -117h-475q37 -165 128.5 -269t235.5 -104q85 0 151 35t111 115l86 -98q-64 -84 -153.5 -128t-194.5 -44q-134 0 -235 63z" />
    <glyph glyph-name="uni20B1" unicode="&#x20b1;" horiz-adv-x="1343" 
d="M1204 991h-79q-13 -164 -129 -252t-310 -88h-250v-651h-135v991h-145v88h145v334h385q125 0 219.5 -40t150.5 -115t67 -179h81v-88zM436 1079h554q-16 104 -95 160.5t-209 56.5h-250v-217zM900.5 824q78.5 56 90.5 167h-555v-223h250q136 0 214.5 56z" />
    <glyph glyph-name="uni20B3" unicode="&#x20b3;" horiz-adv-x="1296" 
d="M1108 307l113 -307h-144l-108 307h-639l-107 -307h-147l113 307h-99v103h137l81 219h-218v102h256l252 682h104l251 -682h251v-102h-214l80 -219h134v-103h-96zM649 1255l-184 -524h365zM429 629l-76 -219h588l-75 219h-437z" />
    <glyph glyph-name="uni20B4" unicode="&#x20b4;" horiz-adv-x="1241" 
d="M1085 352q-18 -119 -87 -202t-170.5 -124.5t-217.5 -41.5q-122 0 -219.5 49.5t-153 140.5t-55.5 211q0 111 50.5 185t122.5 117.5t192 95.5q84 38 96 44h-393v88h531q39 37 60 81.5t21 101.5q0 67 -33.5 117t-88.5 77t-117 27q-92 0 -168 -41.5t-119 -124.5l-96 68
q64 107 161 160t222 53q101 0 185 -44.5t133.5 -124.5t49.5 -182q0 -100 -48 -169t-118 -111t-186 -94q-72 -31 -127 -60h432v-88h-557q-76 -78 -76 -186q0 -136 81 -203.5t218 -67.5q89 0 165.5 32t127 97t60.5 158z" />
    <glyph glyph-name="uni20B8" unicode="&#x20b8;" horiz-adv-x="1436" 
d="M164 1305v106h1108v-106h-1108zM651 0v1028h-487v105h1108v-105h-488v-1028h-133z" />
    <glyph glyph-name="uni20BD" unicode="&#x20bd;" horiz-adv-x="1327" 
d="M342 381h-174v119h174v149h-174v119h174v645h385q133 0 232 -46t152.5 -132t53.5 -205q0 -121 -53.5 -207t-152 -130t-232.5 -44h-252v-149h395v-119h-395v-381h-133v381zM727 768q147 0 228 66.5t81 195.5q0 126 -82 196t-227 70h-252v-528h252z" />
    <glyph glyph-name="uni2116" unicode="&#x2116;" horiz-adv-x="2300" 
d="M219 0v1413h223l613 -1309v1309h135v-1413h-227l-607 1311v-1311h-137zM1557 350.5q-91 60.5 -141.5 163.5t-50.5 226t50.5 225.5t141.5 162.5t206 60q116 0 208 -60t143.5 -163t51.5 -225t-51.5 -225.5t-143.5 -164t-208 -60.5q-115 0 -206 60.5zM1927 429.5
q66 51.5 98.5 134.5t32.5 176q0 95 -32 177t-98 132.5t-161 50.5t-161.5 -50.5t-99.5 -133t-33 -176.5q0 -95 33 -177.5t98.5 -133.5t160.5 -51q96 0 162 51.5zM1430 0v113h667v-113h-667z" />
    <glyph glyph-name="trademark" unicode="&#x2122;" horiz-adv-x="1268" 
d="M301 877v485h-145v51h354v-51h-145v-485h-64zM567 877v536h78l143 -362l144 362h74v-536h-64v415l-123 -334h-63l-125 336v-417h-64z" />
    <glyph glyph-name="uni2126" unicode="&#x2126;" horiz-adv-x="1679" 
d="M190 115h363q-108 56 -189 148.5t-125 209t-44 242.5q0 133 46 260.5t124 212.5q89 101 216.5 160t258.5 59q129 0 257 -59.5t220 -159.5q76 -84 122 -212t46 -259q0 -128 -42 -245t-118.5 -208.5t-179.5 -144.5h342v-119h-492v121q110 39 192.5 129.5t127.5 220.5
t45 283q0 94 -34.5 189.5t-90.5 160.5q-73 85 -181 135.5t-214 50.5q-108 0 -214.5 -50.5t-179.5 -135.5q-57 -67 -92 -161t-35 -189q0 -138 44.5 -262.5t126.5 -220t192 -150.5v-121h-492v115z" />
    <glyph glyph-name="arrowleft" unicode="&#x2190;" horiz-adv-x="2177" 
d="M987 154l-868 485l868 481l53 -96l-649 -346h1655v-86h-1640l634 -346z" />
    <glyph glyph-name="arrowright" unicode="&#x2192;" horiz-adv-x="2177" 
d="M1190 154l-53 92l635 346h-1641v86h1653l-647 346l53 96l868 -481z" />
    <glyph glyph-name="partialdiff" unicode="&#x2202;" horiz-adv-x="1313" 
d="M350 44.5q-91 54.5 -141.5 153t-50.5 226.5q0 168 71.5 306.5t199.5 219t290 80.5q85 0 157 -35t117 -100q-12 204 -97 310t-228 106q-88 0 -151.5 -38t-104.5 -126l-133 31q48 119 150.5 184t244.5 65q232 0 342 -177.5t110 -518.5q0 -194 -59.5 -362.5t-186.5 -273.5
t-319 -105q-120 0 -211 54.5zM784.5 174.5q91.5 68.5 140 181.5t48.5 244q0 142 -69.5 226.5t-201.5 84.5q-120 0 -212.5 -72t-142.5 -185.5t-50 -233.5q0 -90 33 -161.5t95 -112t146 -40.5q122 0 213.5 68.5z" />
    <glyph glyph-name="uni2206" unicode="&#x2206;" horiz-adv-x="1309" 
d="M119 0l536 1413l535 -1413h-1071zM291 117h727l-363 956z" />
    <glyph glyph-name="product" unicode="&#x220f;" horiz-adv-x="1333" 
d="M274 0v1296h-81v117h948v-117h-82v-1296h-117v1296h-551v-1296h-117z" />
    <glyph glyph-name="summation" unicode="&#x2211;" horiz-adv-x="1270" 
d="M133 0v53l584 654l-584 653v53h993v-117h-774l535 -587l-535 -592h774v-117h-993z" />
    <glyph glyph-name="minus" unicode="&#x2212;" horiz-adv-x="1108" 
d="M254 580v96h600v-96h-600z" />
    <glyph glyph-name="radical" unicode="&#x221a;" horiz-adv-x="1219" 
d="M514 -158l-250 744h-147v116h229l174 -550l469 1261l111 -41z" />
    <glyph glyph-name="infinity" unicode="&#x221e;" horiz-adv-x="1903" 
d="M356.5 401.5q-79.5 47.5 -121.5 133.5t-42 200t42 200t121.5 133.5t190.5 47.5q113 0 218 -64t187 -178q82 115 186.5 178.5t219.5 63.5q110 0 189.5 -47.5t121 -133.5t41.5 -200t-42 -200t-121 -133.5t-189 -47.5q-115 0 -219.5 63.5t-186.5 178.5q-82 -114 -187 -178
t-218 -64q-111 0 -190.5 47.5zM751.5 537.5q84.5 74.5 139.5 197.5q-35 78 -86 140t-110 97.5t-117 35.5q-76 0 -134 -33t-90 -94.5t-32 -145.5t32 -145.5t90 -94t134 -32.5q89 0 173.5 74.5zM1459.5 495.5q57.5 32.5 89.5 94t32 145.5t-32 145.5t-89.5 94.5t-132.5 33
q-91 0 -176 -75t-139 -198q55 -120 140.5 -196t174.5 -76q75 0 132.5 32.5z" />
    <glyph glyph-name="integral" unicode="&#x222b;" horiz-adv-x="1016" 
d="M109 -340q184 0 268 78t84 254v1171q0 83 34 148.5t92.5 102t129.5 36.5q49 0 99.5 -19.5t96.5 -56.5l-77 -92q-54 51 -119 51q-37 0 -69 -19t-51 -56.5t-19 -90.5v-1173q0 -147 -56.5 -248t-162 -152t-250.5 -51v117z" />
    <glyph glyph-name="approxequal" unicode="&#x2248;" horiz-adv-x="1171" 
d="M671 747q-32 14 -56 33.5t-58 53.5q-44 44 -76 66t-73 22q-56 0 -80.5 -46.5t-22.5 -115.5h-82q0 106 46.5 175t136.5 69q48 0 86 -15t64 -36.5t60 -56.5q38 -40 66.5 -59.5t65.5 -19.5q58 0 85 48.5t27 133.5h88q0 -126 -55 -196t-152 -70q-38 0 -70 14zM649 415
q-40 26 -90 76q-45 45 -77.5 67t-73.5 22q-56 0 -80.5 -47t-22.5 -117h-82q0 106 46.5 176t136.5 70q48 0 86 -15t64 -36.5t60 -56.5q38 -40 66.5 -59.5t65.5 -19.5q58 0 85 48t27 132h88q0 -125 -54 -195.5t-151 -70.5q-54 0 -94 26z" />
    <glyph glyph-name="notequal" unicode="&#x2260;" horiz-adv-x="1182" 
d="M150 0l229 434h-168v129h235l117 217h-352v129h422l266 504h141l-266 -504h189v-129h-256l-117 -217h373v-129h-443l-227 -434h-143z" />
    <glyph glyph-name="lessequal" unicode="&#x2264;" horiz-adv-x="1321" 
d="M1079 111l-876 491l876 488l60 -103l-723 -385l723 -389zM125 -96v96h1036v-96h-1036z" />
    <glyph glyph-name="greaterequal" unicode="&#x2265;" horiz-adv-x="1321" 
d="M242 111l-60 102l723 389l-723 385l60 103l876 -488zM160 -96v96h1036v-96h-1036z" />
    <glyph glyph-name="lozenge" unicode="&#x25ca;" horiz-adv-x="1135" 
d="M492 0l-363 717l363 717h151l363 -717l-363 -717h-151zM567 131l295 586l-295 586l-295 -586z" />
    <glyph glyph-name="uniF8FF" unicode="&#xf8ff;" horiz-adv-x="1815" 
d="M518.5 43q-177.5 104 -281.5 281.5t-104 388.5t104 388.5t281.5 281.5t388.5 104t388.5 -104t281.5 -281.5t104 -388.5t-104 -388.5t-281.5 -281.5t-388.5 -104t-388.5 104zM1259.5 104.5q161.5 94.5 256 256t94.5 352.5t-94.5 352.5t-256 255.5t-352.5 94t-352.5 -94
t-255.5 -255.5t-94 -352.5t94 -352.5t255.5 -256t352.5 -94.5t352.5 94.5zM479 419.5q-10 9.5 -10 24.5v537q0 15 10.5 26t24.5 11q15 0 26 -11t11 -26v-537q0 -15 -11 -24.5t-26 -9.5t-25 9.5zM882 419.5q-10 9.5 -10 24.5v537q0 15 10 26t25 11t25 -11t10 -26v-537
q0 -15 -9.5 -24.5t-25.5 -9.5q-15 0 -25 9.5zM1286 420l-270 268q-8 11 -8 25q0 16 8 24l272 269q6 12 21 12q14 0 25.5 -11.5t11.5 -25.5q0 -13 -11 -25l-243 -243l243 -244q11 -11 11 -25q0 -13 -11.5 -23.5t-25.5 -10.5q-15 0 -23 10zM613.5 687.5q-9.5 9.5 -9.5 25.5
q0 15 9.5 25t25.5 10h133q16 0 26.5 -10t10.5 -25q0 -16 -10.5 -25.5t-26.5 -9.5h-133q-16 0 -25.5 9.5z" />
    <glyph glyph-name="c.001" horiz-adv-x="967" 
d="M292.5 51q-95.5 71 -144 189t-48.5 258q0 139 48.5 258t143.5 191.5t228 72.5q129 0 227 -69t152 -189l-119 -53q-22 95 -94 152t-166 57q-102 0 -167.5 -62.5t-94.5 -158.5t-29 -199q0 -105 29 -199.5t94 -155.5t168 -61q96 0 167 56t93 149l107 -49q-44 -122 -139 -190
t-226 -68q-134 0 -229.5 71z" />
    <glyph glyph-name="g.ss01" horiz-adv-x="1108" 
d="M884.5 -229.5q-47.5 -97.5 -139.5 -150t-223 -52.5q-123 0 -222 48t-159 144l99 74q50 -81 121.5 -119.5t158.5 -38.5q93 0 157.5 41.5t97 114.5t32.5 168v145q-48 -72 -127.5 -108.5t-177.5 -36.5q-132 0 -224 66t-138 180.5t-46 261.5q0 148 46.5 263.5t136.5 182
t217 66.5q102 0 182 -44t131 -122v145h127l-2 -999q0 -132 -47.5 -229.5zM689 163.5q66 54.5 97 145t31 201.5t-31 201t-97 144t-167 54t-168 -53.5t-99 -144t-32 -201.5t32 -202t99 -145t168 -54t167 54.5z" />
    <glyph glyph-name="gbreve.ss01" horiz-adv-x="1108" 
d="M884.5 -229.5q-47.5 -97.5 -139.5 -150t-223 -52.5q-123 0 -222 48t-159 144l99 74q50 -81 121.5 -119.5t158.5 -38.5q93 0 157.5 41.5t97 114.5t32.5 168v145q-48 -72 -127.5 -108.5t-177.5 -36.5q-132 0 -224 66t-138 180.5t-46 261.5q0 148 46.5 263.5t136.5 182
t217 66.5q102 0 182 -44t131 -122v145h127l-2 -999q0 -132 -47.5 -229.5zM689 163.5q66 54.5 97 145t31 201.5t-31 201t-97 144t-167 54t-168 -53.5t-99 -144t-32 -201.5t32 -202t99 -145t168 -54t167 54.5zM374.5 1174.5q-69.5 31.5 -109.5 92.5t-40 146h127
q0 -47 23.5 -84.5t64.5 -58.5t90 -21q48 0 88.5 20.5t64 58t23.5 85.5h127q0 -85 -39.5 -146t-108.5 -92.5t-155 -31.5t-155.5 31.5z" />
    <glyph glyph-name="gcommaaccent.ss01" horiz-adv-x="1108" 
d="M753 1394l-120 -294h-201l223 294h98zM884.5 -229.5q-47.5 -97.5 -139.5 -150t-223 -52.5q-123 0 -222 48t-159 144l99 74q50 -81 121.5 -119.5t158.5 -38.5q93 0 157.5 41.5t97 114.5t32.5 168v145q-48 -72 -127.5 -108.5t-177.5 -36.5q-132 0 -224 66t-138 180.5
t-46 261.5q0 148 46.5 263.5t136.5 182t217 66.5q102 0 182 -44t131 -122v145h127l-2 -999q0 -132 -47.5 -229.5zM689 163.5q66 54.5 97 145t31 201.5t-31 201t-97 144t-167 54t-168 -53.5t-99 -144t-32 -201.5t32 -202t99 -145t168 -54t167 54.5z" />
    <glyph glyph-name="gdotaccent.ss01" horiz-adv-x="1108" 
d="M884.5 -229.5q-47.5 -97.5 -139.5 -150t-223 -52.5q-123 0 -222 48t-159 144l99 74q50 -81 121.5 -119.5t158.5 -38.5q93 0 157.5 41.5t97 114.5t32.5 168v145q-48 -72 -127.5 -108.5t-177.5 -36.5q-132 0 -224 66t-138 180.5t-46 261.5q0 148 46.5 263.5t136.5 182
t217 66.5q102 0 182 -44t131 -122v145h127l-2 -999q0 -132 -47.5 -229.5zM689 163.5q66 54.5 97 145t31 201.5t-31 201t-97 144t-167 54t-168 -53.5t-99 -144t-32 -201.5t32 -202t99 -145t168 -54t167 54.5zM452 1229v184h152v-184h-152z" />
    <glyph glyph-name="i.loclTRK" horiz-adv-x="498" 
d="M174 0v999h150v-999h-150zM170 1229v184h152v-184h-152z" />
    <glyph glyph-name="f_t" horiz-adv-x="1182" 
d="M785.5 53.5q-52.5 73.5 -52.5 208.5v635h-393v-897h-123v897h-182v100h182v179q0 85 34.5 143t92.5 86.5t131 28.5q84 0 160 -37l-25 -99q-71 33 -127 33q-66 0 -104.5 -40.5t-38.5 -119.5v-172h393v220l129 131v-351h254v-102h-254v-647q0 -82 36 -126t95 -44
q43 0 90 22v-104q-16 -7 -48.5 -12.5t-73.5 -5.5q-123 0 -175.5 73.5z" />
    <glyph glyph-name="uni0414.loclRUS" horiz-adv-x="1442" 
d="M72 102h123q68 131 107.5 240t60 248t20.5 334v489h823v-1311h111v-409h-131v307h-981v-307h-133v409zM1073 102v1201h-557v-379q0 -195 -21 -334t-60.5 -248t-108.5 -240h747z" />
    <glyph glyph-name="uni0414.loclSRB" horiz-adv-x="1442" 
d="M72 106h123q69 132 108 239.5t59.5 245.5t20.5 333v489h823v-1307h111v-413h-131v307h-981v-307h-133v413zM1073 106v1197h-557v-379q0 -195 -20.5 -333t-60.5 -245.5t-109 -239.5h747z" />
    <glyph glyph-name="uni041B.loclRUS" horiz-adv-x="1475" 
d="M153.5 -10q-44.5 10 -77.5 28l59 132q47 -33 92 -33q93 0 137.5 150.5t55 354.5t10.5 502v289h825v-1413h-131v1303h-561v-168q0 -358 -16.5 -590t-88 -398.5t-222.5 -166.5q-38 0 -82.5 10z" />
    <glyph glyph-name="uni041B.loclSRB" horiz-adv-x="1475" 
d="M153.5 -10q-44.5 10 -77.5 28l59 132q47 -33 92 -33q93 0 137.5 150.5t55 354.5t10.5 502v289h825v-1413h-131v1303h-561v-168q0 -358 -16.5 -590t-88 -398.5t-222.5 -166.5q-38 0 -82.5 10z" />
    <glyph glyph-name="uni042E.loclRUS" horiz-adv-x="1864" 
d="M772.5 68q-136.5 88 -208 239.5t-81.5 343.5h-131v-651h-133v1413h133v-651h131q10 191 81.5 343t208 240.5t331.5 88.5q206 0 346.5 -96.5t209.5 -261t69 -369.5q0 -204 -69 -369t-209.5 -261.5t-346.5 -96.5q-195 0 -331.5 88zM1381.5 188q111.5 82 164.5 218.5
t53 300.5t-53 300t-164.5 218t-277.5 82t-277 -82t-164 -218t-53 -300t53 -300.5t164 -218.5t277 -82t277.5 82z" />
    <glyph glyph-name="uni0431.loclSRB" horiz-adv-x="1124" 
d="M307.5 52.5q-104.5 68.5 -160 183t-55.5 247.5q0 99 32 194t101.5 170t175.5 111l-42 31q-69 50 -101.5 77.5t-50 60.5t-17.5 79q0 67 34.5 118.5t100.5 80.5t156 29q74 0 166.5 -21.5t190.5 -71.5l-35 -118q-80 48 -155 77t-161 29q-73 0 -108 -24.5t-35 -75.5
q0 -43 25.5 -76.5t80 -64.5t150.5 -70q196 -62 306 -180.5t110 -331.5q0 -153 -58.5 -271.5t-164.5 -184.5t-242 -66q-139 0 -243.5 68.5zM737 154q72 62 103.5 155t31.5 189q0 138 -59.5 225.5t-144 127t-168.5 46.5q-132 -47 -198 -145.5t-66 -259.5q0 -128 40 -218
t111 -136t164 -46q114 0 186 62z" />
    <glyph glyph-name="uni0432.loclRUS" horiz-adv-x="1047" 
d="M172 999h418q142 0 215.5 -54.5t73.5 -182.5q0 -89 -46.5 -153t-148.5 -77q128 -9 193 -69.5t65 -155.5q0 -124 -34 -190t-108.5 -91.5t-209.5 -25.5h-418v999zM541 582q51 0 100 21t80 57.5t31 80.5q0 88 -49.5 125t-161.5 37h-258v-321h258zM541 109q110 0 168 17
t82 58.5t24 118.5q0 96 -73.5 132t-200.5 36h-258v-362h258z" />
    <glyph glyph-name="uni0432.loclSRB" horiz-adv-x="1047" 
d="M172 999h418q142 0 215.5 -54.5t73.5 -182.5q0 -89 -46.5 -153t-148.5 -77q128 -9 193 -69.5t65 -155.5q0 -124 -34 -190t-108.5 -91.5t-209.5 -25.5h-418v999zM541 582q51 0 100 21t80 57.5t31 80.5q0 88 -49.5 125t-161.5 37h-258v-321h258zM541 109q110 0 168 17
t82 58.5t24 118.5q0 96 -73.5 132t-200.5 36h-258v-362h258z" />
    <glyph glyph-name="uni0433.loclRUS" horiz-adv-x="756" 
d="M172 0v999h549v-102h-424v-897h-125z" />
    <glyph glyph-name="uni0433.loclSRB" horiz-adv-x="756" 
d="M172 0v999h549v-102h-424v-897h-125z" />
    <glyph glyph-name="uni0434.loclRUS" horiz-adv-x="1055" 
d="M37 104h94q67 83 103 213t36 304v378h594v-895h82v-411h-125v307h-659v-307h-125v411zM739 104v793h-344v-279q0 -188 -33.5 -315t-87.5 -199h465z" />
    <glyph glyph-name="uni0434.loclSRB" horiz-adv-x="1055" 
d="M37 104h94q67 83 103 213t36 304v378h594v-895h82v-411h-125v307h-659v-307h-125v411zM739 104v793h-344v-279q0 -188 -33.5 -315t-87.5 -199h465z" />
    <glyph glyph-name="uni0436.loclRUS" horiz-adv-x="1409" 
d="M215 430q24 66 63.5 114t88.5 48l-246 407h158l219 -374h143v374h127v-374h143l219 374h158l-246 -407q49 0 88.5 -48t63.5 -114l160 -430h-146l-123 360q-27 82 -65.5 117t-104.5 35h-147v-512h-127v512h-147q-65 0 -104 -35.5t-66 -116.5l-123 -360h-146z" />
    <glyph glyph-name="uni0436.loclSRB" horiz-adv-x="1409" 
d="M215 430q24 66 63.5 114t88.5 48l-246 407h158l219 -374h143v374h127v-374h143l219 374h158l-246 -407q49 0 88.5 -48t63.5 -114l160 -430h-146l-123 360q-27 82 -65.5 117t-104.5 35h-147v-512h-127v512h-147q-65 0 -104 -35.5t-66 -116.5l-123 -360h-146z" />
    <glyph glyph-name="uni0437.loclRUS" horiz-adv-x="922" 
d="M277.5 1q-64.5 21 -110.5 55t-114 98l88 73q53 -72 119 -110.5t158 -38.5q149 0 213.5 53t64.5 143q0 95 -70.5 131.5t-189.5 36.5h-133v109h164q82 22 127 65.5t45 122.5q0 81 -46 127.5t-165 46.5q-89 0 -162.5 -44t-105.5 -109l-90 51q28 57 81.5 102.5t125 72
t151.5 26.5q338 0 338 -275q0 -89 -38 -154.5t-136 -80.5q70 -5 122.5 -38t80.5 -82.5t28 -102.5q0 -141 -100 -220t-289 -79q-92 0 -156.5 21z" />
    <glyph glyph-name="uni0437.loclSRB" horiz-adv-x="922" 
d="M277.5 1q-64.5 21 -110.5 55t-114 98l88 73q53 -72 119 -110.5t158 -38.5q149 0 213.5 53t64.5 143q0 95 -70.5 131.5t-189.5 36.5h-133v109h164q82 22 127 65.5t45 122.5q0 81 -46 127.5t-165 46.5q-89 0 -162.5 -44t-105.5 -109l-90 51q28 57 81.5 102.5t125 72
t151.5 26.5q338 0 338 -275q0 -89 -38 -154.5t-136 -80.5q70 -5 122.5 -38t80.5 -82.5t28 -102.5q0 -141 -100 -220t-289 -79q-92 0 -156.5 21z" />
    <glyph glyph-name="uni0438.loclRUS" horiz-adv-x="1128" 
d="M174 999h125v-708q0 -35 -7 -84l-3 -31h10l512 823h143v-999h-123v709q0 43 11 114h-11l-512 -823h-145v999z" />
    <glyph glyph-name="uni0438.loclSRB" horiz-adv-x="1128" 
d="M174 999h125v-708q0 -35 -7 -84l-3 -31h10l512 823h143v-999h-123v709q0 43 11 114h-11l-512 -823h-145v999z" />
    <glyph glyph-name="uni0439.loclRUS" horiz-adv-x="1128" 
d="M399.5 1174.5q-68.5 31.5 -110 92.5t-41.5 146h110q0 -48 25.5 -88t69 -63t94.5 -23q50 0 93 23t69 62.5t26 88.5h111q0 -82 -40.5 -143.5t-109 -94t-149.5 -32.5q-79 0 -147.5 31.5zM174 999h125v-708q0 -35 -7 -84l-3 -31h10l512 823h143v-999h-123v709q0 43 11 114
h-11l-512 -823h-145v999z" />
    <glyph glyph-name="uni0439.loclSRB" horiz-adv-x="1128" 
d="M399.5 1174.5q-68.5 31.5 -110 92.5t-41.5 146h110q0 -48 25.5 -88t69 -63t94.5 -23q50 0 93 23t69 62.5t26 88.5h111q0 -82 -40.5 -143.5t-109 -94t-149.5 -32.5q-79 0 -147.5 31.5zM174 999h125v-708q0 -35 -7 -84l-3 -31h10l512 823h143v-999h-123v709q0 43 11 114
h-11l-512 -823h-145v999z" />
    <glyph glyph-name="uni045D.loclRUS" horiz-adv-x="1128" 
d="M518 1130l-225 281h149l209 -281h-133zM174 999h125v-708q0 -35 -7 -84l-3 -31h10l512 823h143v-999h-123v709q0 43 11 114h-11l-512 -823h-145v999z" />
    <glyph glyph-name="uni045D.loclSRB" horiz-adv-x="1128" 
d="M518 1130l-225 281h149l209 -281h-133zM174 999h125v-708q0 -35 -7 -84l-3 -31h10l512 823h143v-999h-123v709q0 43 11 114h-11l-512 -823h-145v999z" />
    <glyph glyph-name="uni043A.loclRUS" horiz-adv-x="944" 
d="M174 999h127v-374h143l220 374h157l-246 -407q49 0 87 -47t65 -115l160 -430h-146l-123 360q-27 82 -65.5 117t-103.5 35h-148v-512h-127v999z" />
    <glyph glyph-name="uni043A.loclSRB" horiz-adv-x="944" 
d="M174 999h127v-374h143l220 374h157l-246 -407q49 0 87 -47t65 -115l160 -430h-146l-123 360q-27 82 -65.5 117t-103.5 35h-148v-512h-127v999z" />
    <glyph glyph-name="uni043B.loclRUS" horiz-adv-x="1051" 
d="M105.5 -10q-48.5 13 -76.5 28l43 99q6 -3 22 -12.5t33 -16t31 -6.5q46 0 84.5 102.5t38.5 436.5v378h596v-999h-125v897h-349v-279q0 -271 -32 -413t-77.5 -185t-100.5 -43q-39 0 -87.5 13z" />
    <glyph glyph-name="uni043B.loclSRB" horiz-adv-x="1051" 
d="M105.5 -10q-48.5 13 -76.5 28l43 99q6 -3 22 -12.5t33 -16t31 -6.5q46 0 84.5 102.5t38.5 436.5v378h596v-999h-125v897h-349v-279q0 -271 -32 -413t-77.5 -185t-100.5 -43q-39 0 -87.5 13z" />
    <glyph glyph-name="uni043F.loclRUS" horiz-adv-x="1128" 
d="M174 0v999h780v-999h-123v897h-532v-897h-125z" />
    <glyph glyph-name="uni043F.loclSRB" horiz-adv-x="1128" 
d="M174 0v999h780v-999h-123v897h-532v-897h-125z" />
    <glyph glyph-name="uni0442.loclRUS" horiz-adv-x="850" 
d="M362 0v897h-327v102h780v-102h-330v-897h-123z" />
    <glyph glyph-name="uni0442.loclSRB" horiz-adv-x="850" 
d="M362 0v897h-327v102h780v-102h-330v-897h-123z" />
    <glyph glyph-name="uni0446.loclRUS" horiz-adv-x="1157" 
d="M963 -307v307h-789v999h125v-895h532v895h123v-895h131v-411h-122z" />
    <glyph glyph-name="uni0446.loclSRB" horiz-adv-x="1157" 
d="M963 -307v307h-789v999h125v-895h532v895h123v-895h131v-411h-122z" />
    <glyph glyph-name="uni0448.loclRUS" horiz-adv-x="1509" 
d="M174 0v999h125v-895h395v895h123v-895h395v895h123v-999h-1161z" />
    <glyph glyph-name="uni0448.loclSRB" horiz-adv-x="1509" 
d="M174 0v999h125v-895h395v895h123v-895h395v895h123v-999h-1161z" />
    <glyph glyph-name="uni0449.loclRUS" horiz-adv-x="1538" 
d="M1343 -307v307h-1169v999h125v-895h395v895h123v-895h395v895h123v-895h131v-411h-123z" />
    <glyph glyph-name="uni0449.loclSRB" horiz-adv-x="1538" 
d="M1343 -307v307h-1169v999h125v-895h395v895h123v-895h395v895h123v-895h131v-411h-123z" />
    <glyph glyph-name="uni044C.loclRUS" horiz-adv-x="977" 
d="M174 999h125v-344h197q116 0 197 -26t130 -100.5t49 -211.5q0 -96 -50.5 -168t-136.5 -110.5t-189 -38.5h-322v999zM496 100q233 0 233 217q0 134 -62.5 186t-170.5 52h-197v-455h197z" />
    <glyph glyph-name="uni044A.loclRUS" horiz-adv-x="1092" 
d="M289 897h-254v102h377v-344h196q117 0 199 -26t131 -100.5t49 -211.5q0 -96 -51 -168t-137.5 -110.5t-190.5 -38.5h-319v897zM608 100q234 0 234 217q0 134 -63 186t-171 52h-196v-455h196z" />
    <glyph glyph-name="uni044B.loclRUS" horiz-adv-x="1356" 
d="M174 999h125v-344h197q116 0 197 -26t130 -100.5t49 -211.5q0 -96 -50.5 -168t-136.5 -110.5t-189 -38.5h-322v999zM1053 0v999h129v-999h-129zM496 100q233 0 233 217q0 134 -62.5 186t-170.5 52h-197v-455h197z" />
    <glyph glyph-name="uni044E.loclRUS" horiz-adv-x="1403" 
d="M608.5 49q-105.5 69 -164 187.5t-57.5 261.5h-88v-498h-125v999h125v-399h94q21 118 83 211.5t158 147t214 53.5q133 0 238 -69t164 -187.5t59 -259.5q0 -142 -59 -260t-164 -187t-238 -69q-134 0 -239.5 69zM1029.5 147q71.5 55 104.5 146t33 203t-33 202.5
t-104.5 145.5t-181.5 55q-111 0 -182.5 -55t-104.5 -145.5t-33 -202.5t33 -203t104.5 -146t182.5 -55q110 0 181.5 55z" />
    <glyph glyph-name="strokecy" horiz-adv-x="1135" 
d="M209 336v110h717v-110h-717z" />
    </font>
</defs>
</svg>
