<?xml version="1.0" standalone="no"?>
<!DOCTYPE svg PUBLIC "-//W3C//DTD SVG 1.1//EN" "http://www.w3.org/Graphics/SVG/1.1/DTD/svg11.dtd" >
<svg xmlns="http://www.w3.org/2000/svg" xmlns:xlink="http://www.w3.org/1999/xlink" version="1.1">
<metadata>
Created by FontForge 20161003 at Mon Feb 20 18:09:32 2017
 By www-data
Copyright (c)2015, HK Grotesk Latin by Alfredo Marco Pradil (ammpradil@gmail.com) and HK Grotesk Cyrillic by Stefan Peev (http://www.contextbg.net/). HK Grotesk is a trademark of Alfredo Marco Pradil.
</metadata>
<defs>
<font id="HKGroteskLightItalic" horiz-adv-x="1124" >
  <font-face 
    font-family="HKGroteskLightItalic"
    font-weight="300"
    font-style="italic"
    font-stretch="normal"
    units-per-em="2048"
    panose-1="0 0 4 0 0 0 0 0 0 0"
    ascent="1434"
    descent="-614"
    x-height="999"
    cap-height="1413"
    bbox="-682 -512 2799 2249"
    underline-thickness="82"
    underline-position="-182"
    slope="-13"
    unicode-range="U+0020-FB02"
  />
<missing-glyph horiz-adv-x="1257" 
d="M104 0l220 954h819l-219 -954h-820zM229 102h615l174 750h-615z" />
    <glyph glyph-name="fi" unicode="fi" horiz-adv-x="965" 
d="M276 897h-145l23 102l149 7q43 186 146 307t272 121q73 0 147 -25t117 -96l-70 -78q-42 57 -84.5 76.5t-93.5 19.5q-135 0 -212 -94.5t-111 -243.5l501 6l-229 -999h-111l207 897h-391l-207 -897h-114z" />
    <glyph glyph-name="fl" unicode="fl" horiz-adv-x="969" 
d="M631 9.5q-25 29.5 -25 82.5q0 46 17 117l245 1059q0 12 -13 26t-47 24.5t-93 10.5q-117 0 -182.5 -48t-88.5 -153l-30 -129h227l-23 -102h-227l-207 -897h-114l206 897h-145l23 102h147l39 162q33 138 131 205.5t242 67.5q71 0 137 -27t133 -107l-262 -1155
q-3 -13 -3 -23q0 -30 30 -30q29 0 75 23l-26 -115q-34 -20 -82 -20q-59 0 -84 29.5z" />
    <glyph glyph-name="f_f_i" unicode="ffi" horiz-adv-x="1487" 
d="M932 999h506l-230 -999h-110l207 897h-396l-207 -897h-114l207 897h-410l-207 -897h-119l207 897h-135l23 102h137l33 142q20 87 75 153.5t132.5 103t162.5 36.5q80 0 145.5 -28.5t108.5 -82.5q56 49 133.5 80t153.5 31q69 0 138 -30.5t132 -90.5l-79 -85q-4 13 -27 37.5
t-64.5 45t-97.5 20.5q-64 0 -121.5 -25.5t-98.5 -72.5t-56 -109zM863 1184.5q9 35.5 22 64.5q-3 10 -25.5 30t-63.5 36t-96 16q-98 0 -169.5 -56t-94.5 -151l-28 -125h411l33 142q2 8 11 43.5zM1425 1227l1 1q2 -4 -1 -1z" />
    <glyph glyph-name="f_f_l" unicode="ffl" horiz-adv-x="1495" 
d="M1146 3.5q-24 23.5 -24 66.5q0 32 17 102l250 1083q-10 33 -49 54.5t-89 21.5q-65 0 -121 -28t-94.5 -77.5t-52.5 -111.5l-27 -115h162l-22 -102h-162l-207 -897h-115l207 897h-434l-207 -897h-119l207 897h-135l23 102h137l31 129q20 87 75.5 157t134.5 109.5t168 39.5
q74 0 127.5 -18.5t84 -41t61.5 -53.5q59 54 124 83.5t154 29.5q61 0 100.5 -11t74 -38.5t79.5 -81.5l-262 -1153q-4 -20 -4 -25q0 -31 31 -31q28 0 67 21l-16 -117q-20 -8 -47.5 -13t-46.5 -5q-57 0 -81 23.5zM846 1006l5 23q19 83 32 129.5t26 72.5q-21 38 -69.5 69
t-120.5 31q-66 0 -125 -26t-101 -74t-57 -113l-28 -119z" />
    <glyph glyph-name=".notdef" horiz-adv-x="1257" 
d="M104 0l220 954h819l-219 -954h-820zM229 102h615l174 750h-615z" />
    <glyph glyph-name=".null" horiz-adv-x="0" 
 />
    <glyph glyph-name="nonmarkingreturn" horiz-adv-x="682" 
 />
    <glyph glyph-name="space" unicode=" " horiz-adv-x="553" 
 />
    <glyph glyph-name="exclam" unicode="!" horiz-adv-x="637" 
d="M240 369l219 1067h153l-276 -1067h-96zM115 0l41 176h178l-41 -176h-178z" />
    <glyph glyph-name="quotedbl" unicode="&#x22;" horiz-adv-x="903" 
d="M367 1014l92 399h116l-92 -399h-116zM655 1014l93 399h118l-92 -399h-119z" />
    <glyph glyph-name="numbersign" unicode="#" horiz-adv-x="1374" 
d="M154 0l192 444h-240l23 99h260l152 350h-250l22 92h269l198 449h105l-195 -437h336l193 437h104l-195 -445h240l-22 -96h-259l-153 -350h250l-23 -92h-268l-197 -451h-104l192 436h-335l-191 -436h-104zM494 543h335l152 350h-334z" />
    <glyph glyph-name="dollar" unicode="$" horiz-adv-x="1114" 
d="M403 -12q-96 9 -173 52.5t-121 118.5t-44 176q0 22 1 34l135 26q-3 -24 -3 -46q0 -116 77.5 -176t199.5 -60q138 0 239 70.5t132 205.5q7 29 7 59q0 64 -34.5 111t-85.5 79t-136 74q-92 45 -147.5 81t-94 90.5t-38.5 130.5q0 36 9 76q22 94 80.5 167t141 117.5
t177.5 55.5l59 229h84l-59 -227q111 -9 188.5 -65t110.5 -161l-113 -59q-24 84 -86.5 125t-146.5 41q-65 0 -129 -29t-110.5 -81.5t-61.5 -121.5q-7 -28 -7 -55q0 -59 32.5 -102t80 -73t131.5 -71q95 -47 152 -83.5t97 -94t40 -139.5q0 -42 -10 -86q-26 -115 -97.5 -202.5
t-173.5 -136.5t-219 -52l-59 -232h-84z" />
    <glyph glyph-name="percent" unicode="%" horiz-adv-x="1597" 
d="M329 874.5q-45 61.5 -45 155.5q0 51 13 105q16 71 53.5 140t98 115t139.5 46q94 0 141 -62.5t47 -160.5q0 -50 -12 -103q-19 -77 -59 -144.5t-99.5 -110t-132.5 -42.5q-99 0 -144 61.5zM250 8l1063 1387h117l-1063 -1387h-117zM562 931.5q43 36.5 71.5 92t42.5 113.5
q10 47 10 86q0 57 -23 93t-73 36q-52 0 -96 -36t-73 -91.5t-42 -114.5q-11 -44 -11 -87q0 -57 23.5 -92.5t75.5 -35.5t95 36.5zM969 67.5q-45 61.5 -45 156.5q0 45 12 102q16 70 53.5 138t98 113.5t139.5 45.5q94 0 141 -62.5t47 -159.5q0 -51 -12 -102q-17 -76 -57 -143
t-99.5 -108.5t-132.5 -41.5q-100 0 -145 61.5zM1203.5 124.5q43.5 36.5 72.5 91t41 110.5q10 47 10 86q0 56 -23 91.5t-73 35.5q-53 0 -96.5 -35t-72.5 -89.5t-42 -113.5q-11 -42 -11 -84q0 -57 23.5 -93t75.5 -36t95.5 36.5z" />
    <glyph glyph-name="ampersand" unicode="&#x26;" horiz-adv-x="1366" 
d="M990 275l159 -255l-92 -69l-146 236q-101 -100 -223.5 -153.5t-263.5 -53.5q-151 0 -243 64t-92 185q0 36 9 78q24 103 92 186t156 145t215 134q-51 86 -83.5 162t-32.5 151q0 29 6 56q21 89 79 154.5t138.5 100t167.5 34.5q74 0 131 -30t88 -84t31 -123q0 -36 -9 -77
q-18 -80 -71 -146.5t-126 -119.5t-177 -113l229 -368q93 131 162 327l102 -24q-76 -233 -206 -397zM545 1077q0 -97 101 -257q99 57 165.5 102.5t113.5 100t62 118.5q5 23 5 40q0 63 -44.5 102.5t-111.5 39.5q-60 0 -120 -24.5t-105.5 -72t-61.5 -112.5q-4 -16 -4 -37z
M856 276l-250 405q-118 -67 -195 -120.5t-135 -122t-77 -151.5q-5 -19 -5 -43q0 -78 68 -114t170 -36q248 0 424 182z" />
    <glyph glyph-name="quotesingle" unicode="'" horiz-adv-x="612" 
d="M373 1042l92 400h117l-93 -400h-116z" />
    <glyph glyph-name="parenleft" unicode="(" horiz-adv-x="565" 
d="M186.5 195q-25.5 122 -25.5 258q0 142 27 264q42 177 144.5 370.5t251.5 335.5l112 -8q-150 -154 -256.5 -343t-152.5 -382q-29 -128 -29 -263q0 -120 24.5 -232.5t75.5 -206.5l-94 8q-52 77 -77.5 199z" />
    <glyph glyph-name="parenright" unicode=")" horiz-adv-x="567" 
d="M223.5 341q107.5 195 149.5 376q28 116 28 250q0 123 -25 241.5t-73 214.5l94 -8q56 -89 82.5 -201.5t26.5 -236.5q0 -142 -33 -283q-25 -109 -84.5 -244.5t-141.5 -260t-171 -201.5l-107 8q147 150 254.5 345z" />
    <glyph glyph-name="asterisk" unicode="*" horiz-adv-x="872" 
d="M395 854l-67 59l223 207l-244 43l51 99l213 -105l29 256h92l-90 -256l258 105l8 -99l-266 -43l131 -207l-86 -59l-72 238z" />
    <glyph glyph-name="plus" unicode="+" horiz-adv-x="1280" 
d="M592 106v472h-457v96h457v469h96v-469h457v-96h-457v-472h-96z" />
    <glyph glyph-name="comma" unicode="," horiz-adv-x="629" 
d="M29 -225l215 489h174l-312 -489h-77z" />
    <glyph glyph-name="hyphen" unicode="-" horiz-adv-x="831" 
d="M201 643l22 96h496l-23 -96h-495z" />
    <glyph glyph-name="period" unicode="." horiz-adv-x="674" 
d="M129 0l41 176h186l-41 -176h-186z" />
    <glyph glyph-name="slash" unicode="/" horiz-adv-x="938" 
d="M-188 -430l1198 1946h135l-1194 -1946h-139z" />
    <glyph glyph-name="zero" unicode="0" horiz-adv-x="1167" 
d="M260 44.5q-86 64.5 -124 171.5t-38 241q0 132 31 262q40 174 126.5 338t221 271.5t305.5 107.5q128 0 214 -63.5t127 -173.5t41 -251q0 -122 -31 -258q-42 -187 -135.5 -349t-227 -261.5t-287.5 -99.5q-137 0 -223 64.5zM720 197.5q106 97.5 175.5 240t101.5 283.5
q30 128 30 245q0 153 -59 249t-192 96q-135 0 -242 -94.5t-177 -235.5t-103 -287q-30 -127 -30 -243q0 -155 60.5 -253t198.5 -98q131 0 237 97.5z" />
    <glyph glyph-name="one" unicode="1" horiz-adv-x="1167" 
d="M729 1094h-338l27 114h166q56 0 104.5 25.5t81 68t43.5 93.5l4 18h121l-326 -1413h-135z" />
    <glyph glyph-name="two" unicode="2" horiz-adv-x="1167" 
d="M14 131q212 117 329.5 203t217.5 178q178 149 277.5 271t130.5 259q11 44 11 88q0 91 -52 137t-142 46q-88 0 -164.5 -43t-133.5 -123.5t-89 -190.5l-129 27q53 222 189 335.5t327 113.5q161 0 248.5 -79t87.5 -217q0 -52 -14 -116q-35 -150 -146 -289t-325 -319
q-146 -116 -234.5 -175t-180.5 -111l-36 -20l781 5l-25 -111h-952z" />
    <glyph glyph-name="three" unicode="3" horiz-adv-x="1167" 
d="M258 15q-89 35 -139 105t-50 169q0 51 13 104l121 2q-9 -39 -9 -73q0 -73 36 -124.5t98 -77.5t139 -26q91 0 180.5 37t156.5 109t89 172q9 39 9 73q0 101 -73 153t-190 52h-90l29 119h77q73 0 137 30.5t110 89.5t65 140q8 37 8 64q0 86 -58.5 135t-148.5 49
q-78 0 -151 -33.5t-125.5 -93.5t-71.5 -137l-111 28q25 111 93 190.5t164.5 121t205.5 41.5q95 0 169 -33.5t116 -96.5t42 -149q0 -44 -12 -94q-22 -97 -83.5 -176.5t-161.5 -128.5q88 -29 132.5 -99t44.5 -168q0 -47 -11 -104q-30 -131 -110 -222t-193 -137t-242 -46
q-116 0 -205 35z" />
    <glyph glyph-name="four" unicode="4" horiz-adv-x="1167" 
d="M616 0l91 393h-652l17 76l876 944h125l-211 -909h225l-24 -111h-225l-90 -393h-132zM236 504h495l166 706z" />
    <glyph glyph-name="five" unicode="5" horiz-adv-x="1167" 
d="M264.5 31.5q-83.5 51.5 -125.5 139.5t-41 198l121 30q-4 -131 49 -220t197 -89q110 0 199 54.5t146.5 141t80.5 183.5q11 52 11 97q0 106 -58 172.5t-174 66.5q-97 0 -187.5 -45t-156.5 -123l-101 72l283 704h676l-27 -115h-575l-201 -499q126 112 307 112
q111 0 190 -45.5t119.5 -124t40.5 -178.5q0 -55 -14 -119q-29 -125 -111 -231.5t-199 -169.5t-247 -63q-119 0 -202.5 51.5z" />
    <glyph glyph-name="six" unicode="6" horiz-adv-x="1167" 
d="M284 27.5q-84 47.5 -130 131t-46 188.5q0 55 13 110q30 130 117 237l577 719h148l-445 -539q67 15 146 15q111 0 195.5 -44t131.5 -123.5t47 -182.5q0 -49 -12 -105q-28 -120 -109.5 -224.5t-197.5 -167t-242 -62.5q-109 0 -193 47.5zM663 147q89 49 153.5 131.5
t86.5 178.5q10 40 10 81q0 72 -31 129.5t-87.5 90.5t-130.5 33q-92 0 -180.5 -48.5t-153.5 -131t-88 -179.5q-9 -40 -9 -78q0 -72 31 -130.5t87.5 -92t129.5 -33.5q93 0 182 49z" />
    <glyph glyph-name="seven" unicode="7" horiz-adv-x="1167" 
d="M172 0l899 1298h-766l27 115h919l-14 -65l-913 -1348h-152z" />
    <glyph glyph-name="eight" unicode="8" horiz-adv-x="1167" 
d="M273.5 15.5q-88.5 35.5 -139 106t-50.5 171.5q0 49 12 104q31 129 118.5 223t227.5 146q-59 34 -91.5 95.5t-32.5 138.5q0 44 10 87q25 108 94 186.5t166 119.5t203 41q94 0 167.5 -33t115 -96t41.5 -149q0 -48 -11 -93q-22 -99 -87 -178t-167 -127q86 -38 133 -111
t47 -171q0 -49 -12 -103q-30 -129 -110.5 -217.5t-193 -132t-239.5 -43.5q-113 0 -201.5 35.5zM791.5 832.5q70.5 33.5 121.5 94.5t70 142q9 38 9 69q0 87 -57 135t-147 48q-69 0 -139.5 -31.5t-123.5 -91t-72 -139.5q-9 -39 -9 -73q0 -87 54.5 -137t148.5 -50
q74 0 144.5 33.5zM653.5 125q86.5 37 151.5 110t88 175q9 41 9 74q0 70 -34 120t-92.5 75.5t-132.5 25.5q-94 0 -181.5 -38t-151.5 -110.5t-87 -171.5q-9 -40 -9 -75q0 -72 35.5 -122t95.5 -75t132 -25q90 0 176.5 37z" />
    <glyph glyph-name="nine" unicode="9" horiz-adv-x="1167" 
d="M745 539q-64 -15 -147 -15q-110 0 -194.5 44.5t-131.5 123.5t-47 181q0 53 13 106q27 121 108.5 225.5t198 167t243.5 62.5q108 0 191.5 -47.5t129 -131t45.5 -187.5q0 -56 -13 -112q-28 -126 -113 -237l-579 -719h-144zM779.5 671.5q89.5 48.5 154 130.5t86.5 179
q10 45 10 80q0 72 -31 130t-88 91t-131 33q-91 0 -180.5 -49t-154.5 -131.5t-87 -178.5q-9 -40 -9 -78q0 -73 31 -131t87.5 -91t130.5 -33q92 0 181.5 48.5z" />
    <glyph glyph-name="colon" unicode=":" horiz-adv-x="678" 
d="M313 778l41 176h178l-40 -176h-179zM135 0l41 176h178l-41 -176h-178z" />
    <glyph glyph-name="semicolon" unicode=";" horiz-adv-x="657" 
d="M354 778l41 176h178l-41 -176h-178zM41 -225l215 489h174l-311 -489h-78z" />
    <glyph glyph-name="less" unicode="&#x3c;" horiz-adv-x="1219" 
d="M1001 174l-876 500l876 500l60 -103l-723 -397l723 -398z" />
    <glyph glyph-name="equal" unicode="=" horiz-adv-x="1270" 
d="M264 780v119h742v-119h-742zM264 444v119h742v-119h-742z" />
    <glyph glyph-name="greater" unicode="&#x3e;" horiz-adv-x="1217" 
d="M217 174l-59 102l723 398l-723 397l59 103l877 -500z" />
    <glyph glyph-name="question" unicode="?" horiz-adv-x="1038" 
d="M481 621q15 64 46.5 106.5t69.5 67t99 54.5q64 32 104 57.5t74 71.5t50 116q8 35 8 60q0 83 -60 124t-159 41q-74 0 -146 -29.5t-125 -85.5t-71 -131l-125 12q26 106 96.5 185.5t167.5 121.5t199 42q100 0 178 -32t122 -94t44 -150q0 -47 -11 -91q-20 -85 -60.5 -140
t-87.5 -86t-119 -66q-54 -27 -86.5 -46.5t-57.5 -49.5t-35 -73l-55 -241h-119zM311 0l41 176h178l-41 -176h-178z" />
    <glyph glyph-name="at" unicode="@" horiz-adv-x="2071" 
d="M475 -271.5q-160 76.5 -250.5 222t-90.5 346.5q0 110 28 229q59 255 217 462t385.5 325.5t486.5 118.5q216 0 375 -82.5t243.5 -231.5t84.5 -343q0 -107 -27 -224q-37 -157 -114 -293t-193.5 -220.5t-261.5 -84.5q-109 0 -170 47t-61 129q0 49 24 109q-72 -80 -166 -123
t-186 -43q-122 0 -183.5 71t-61.5 189q0 58 15 121q31 133 117 268t208 223t255 88q71 0 125 -26.5t82 -74t24 -108.5l68 160l137 -6q-30 -71 -103 -225q-87 -180 -140.5 -305t-73.5 -214q-9 -37 -9 -63q0 -41 24 -58.5t77 -17.5q121 0 211.5 73t146.5 182.5t84 228.5
q22 95 22 187q0 161 -69 283t-200 189.5t-312 67.5q-229 0 -428.5 -105.5t-337 -287.5t-188.5 -406q-24 -105 -24 -194q0 -166 75 -284t208 -178.5t304 -60.5q71 0 134.5 10.5t129.5 30.5l33 -129q-151 -49 -307 -49q-207 0 -367 76.5zM1040.5 282.5q99.5 73.5 167.5 183
t92 214.5q11 46 11 80q0 65 -36.5 100t-111.5 35q-114 0 -214.5 -73t-168.5 -182t-92 -214q-11 -46 -11 -80q0 -66 36.5 -101.5t113.5 -35.5q114 0 213.5 73.5z" />
    <glyph glyph-name="A" unicode="A" horiz-adv-x="1296" 
d="M-41 0l848 1413h104l193 -1413h-141l-37 307h-639l-178 -307h-150zM360 434h549l-90 780z" />
    <glyph glyph-name="B" unicode="B" horiz-adv-x="1243" 
d="M434 1413h361q106 0 193.5 -28t140 -88.5t52.5 -152.5q0 -42 -10 -85q-26 -114 -91.5 -189.5t-170.5 -130.5q87 -42 135.5 -106.5t48.5 -165.5q0 -47 -14 -111q-45 -193 -189 -274.5t-335 -81.5h-446zM643 778q90 0 169 31.5t135 95t77 156.5q9 41 9 72q0 91 -66.5 125
t-186.5 34h-243l-119 -514h225zM578 123q136 0 239 59.5t135 202.5q11 45 11 89q0 102 -67 141.5t-179 39.5h-326l-123 -532h310z" />
    <glyph glyph-name="C" unicode="C" horiz-adv-x="1430" 
d="M378.5 43.5q-110.5 63.5 -163 175t-52.5 259.5q0 115 30 241q47 202 150.5 364t262 257.5t361.5 95.5q135 0 240.5 -41.5t170 -125.5t76.5 -208l-127 -39q-27 291 -369 291q-167 0 -298 -83t-215.5 -221t-122.5 -304q-27 -119 -27 -215q0 -178 89 -283t278 -105
q160 0 292.5 75.5t227.5 234.5l112 -68q-118 -177 -283.5 -270.5t-355.5 -93.5q-166 0 -276.5 63.5z" />
    <glyph glyph-name="D" unicode="D" horiz-adv-x="1413" 
d="M434 1413h342q279 0 426.5 -127.5t147.5 -369.5q0 -104 -29 -232q-51 -219 -168.5 -372t-293.5 -232.5t-400 -79.5h-350zM453 123q171 0 323 66.5t262.5 200.5t155.5 329q23 103 23 186q0 190 -116 289.5t-345 99.5h-213l-271 -1171h181z" />
    <glyph glyph-name="E" unicode="E" horiz-adv-x="1245" 
d="M109 0l325 1413h909l-26 -113h-774l-123 -538h661l-26 -109h-662l-123 -532h774l-26 -121h-909z" />
    <glyph glyph-name="F" unicode="F" horiz-adv-x="1194" 
d="M109 0l325 1413h883l-27 -113h-747l-123 -538h659l-26 -109h-660l-149 -653h-135z" />
    <glyph glyph-name="G" unicode="G" horiz-adv-x="1503" 
d="M372 43.5q-110 63.5 -163 176t-53 260.5q0 108 30 239q46 201 151.5 363.5t265 258t358.5 95.5t323 -97t164 -278l-131 -43q-36 141 -128 214t-239 73q-168 0 -298 -81.5t-214 -217t-123 -301.5q-26 -113 -26 -211q0 -177 89 -281t277 -104q130 0 251 58.5t210 170.5
t125 266l-326 -6l25 104h449l-162 -702h-115l68 266q-46 -76 -125 -141.5t-183.5 -105t-222.5 -39.5q-167 0 -277 63.5z" />
    <glyph glyph-name="H" unicode="H" horiz-adv-x="1454" 
d="M109 0l325 1413h135l-149 -651h737l150 651h135l-326 -1413h-135l149 653h-737l-149 -653h-135z" />
    <glyph glyph-name="I" unicode="I" horiz-adv-x="582" 
d="M109 0l325 1413h135l-325 -1413h-135z" />
    <glyph glyph-name="J" unicode="J" 
d="M207.5 23q-75.5 43 -113 117.5t-37.5 170.5q0 40 6 80l132 6q-7 -45 -7 -76q0 -100 50.5 -162.5t158.5 -62.5q169 0 257.5 105.5t129.5 283.5l189 815h-533l27 113h668l-213 -919q-56 -249 -184.5 -381.5t-344.5 -132.5q-110 0 -185.5 43z" />
    <glyph glyph-name="K" unicode="K" horiz-adv-x="1452" 
d="M109 0l325 1413h135l-198 -852l1001 852h174l-655 -551l364 -862h-147l-313 780l-459 -385l-92 -395h-135z" />
    <glyph glyph-name="L" unicode="L" horiz-adv-x="1038" 
d="M109 0l325 1413h135l-299 -1292h604l-26 -121h-739z" />
    <glyph glyph-name="M" unicode="M" horiz-adv-x="1761" 
d="M109 0l325 1413h236l145 -1167l694 1167h240l-326 -1413h-135l309 1331l-725 -1208h-155l-162 1208l-309 -1331h-137z" />
    <glyph glyph-name="N" unicode="N" horiz-adv-x="1417" 
d="M109 0l325 1413h213l324 -1288l299 1288h135l-326 -1413h-217l-317 1290l-299 -1290h-137z" />
    <glyph glyph-name="O" unicode="O" horiz-adv-x="1524" 
d="M376.5 44.5q-109.5 64.5 -162 178.5t-52.5 263q0 114 28 233q46 199 151.5 361.5t265 258t358.5 95.5q166 0 276.5 -64.5t163.5 -178.5t53 -264q0 -114 -28 -233q-47 -200 -152.5 -361.5t-265.5 -257t-361 -95.5q-165 0 -274.5 64.5zM964 190q134 84 221 223t126 306
q23 103 23 195q0 178 -91.5 285.5t-286.5 107.5q-168 0 -300.5 -84t-219 -223.5t-125.5 -305.5q-24 -107 -24 -196q0 -177 90.5 -284.5t279.5 -107.5q173 0 307 84z" />
    <glyph glyph-name="P" unicode="P" horiz-adv-x="1153" 
d="M434 1413h379q114 0 196.5 -35t126.5 -100.5t44 -156.5q0 -51 -13 -103q-41 -178 -176.5 -272.5t-341.5 -94.5h-256l-149 -651h-135zM666 768q147 0 245.5 70t128.5 204q8 33 8 69q0 90 -63.5 137.5t-185.5 47.5h-256l-123 -528h246z" />
    <glyph glyph-name="Q" unicode="Q" horiz-adv-x="1550" 
d="M1061 102q-167 -122 -410 -122q-165 0 -274.5 64.5t-162 178.5t-52.5 263q0 114 28 233q46 199 151.5 361.5t265 258t358.5 95.5q166 0 276.5 -64.5t163.5 -178t53 -263.5q0 -115 -28 -234q-37 -151 -106 -283t-171 -227l147 -194l-94 -82zM831 124.5q79 24.5 154 72.5
l-151 206l90 84l157 -206q78 83 134 197t85 241q25 111 25 206q0 176 -88.5 282t-278.5 106q-169 0 -300 -85.5t-215.5 -225.5t-123.5 -308q-25 -111 -25 -206q0 -176 88 -282t275 -106q95 0 174 24.5z" />
    <glyph glyph-name="R" unicode="R" horiz-adv-x="1217" 
d="M434 1411h385q106 0 186.5 -36.5t125.5 -105t45 -161.5q0 -49 -11 -96q-32 -140 -135.5 -235t-249.5 -120l221 -659h-145l-205 641h-260l-149 -641h-136zM698 770q81 4 151.5 36t121 91t69.5 141q8 37 8 65q0 91 -65 140t-178 49h-262l-121 -522h276z" />
    <glyph glyph-name="S" unicode="S" horiz-adv-x="1112" 
d="M270 27.5q-95 43.5 -151 128t-56 202.5l130 27q0 -133 73.5 -207t216.5 -74q109 0 191.5 41t127 110.5t44.5 152.5q0 71 -33.5 121t-83 82t-134.5 75q-91 46 -146 82.5t-93.5 97t-38.5 148.5q0 112 61.5 208.5t166 154t227.5 57.5q122 0 209.5 -57.5t124.5 -162.5
l-105 -55q-22 77 -86 118.5t-147 41.5q-81 0 -154.5 -37.5t-119 -102.5t-45.5 -143q0 -65 32 -111.5t79.5 -77t128.5 -69.5q94 -46 151 -84.5t97 -102t40 -157.5q0 -122 -66 -225t-180 -164t-252 -61q-114 0 -209 43.5z" />
    <glyph glyph-name="T" unicode="T" horiz-adv-x="1264" 
d="M449 0l301 1307h-486l25 106h1108l-25 -106h-485l-301 -1307h-137z" />
    <glyph glyph-name="U" unicode="U" horiz-adv-x="1350" 
d="M345 29.5q-86 49.5 -125.5 134t-39.5 192.5q0 81 19 160l207 897h135l-199 -860q-25 -105 -25 -189q0 -258 254 -258q190 0 304 126.5t161 332.5l197 848h135l-207 -899q-34 -147 -111.5 -267.5t-200.5 -193.5t-284 -73q-134 0 -220 49.5z" />
    <glyph glyph-name="V" unicode="V" horiz-adv-x="1331" 
d="M492 0l-197 1413h133l158 -1253l739 1253h137l-848 -1413h-122z" />
    <glyph glyph-name="W" unicode="W" horiz-adv-x="1978" 
d="M369 0l-64 1413h133l51 -1263l635 1181h111l88 -1181l635 1263h141l-719 -1413h-155l-86 1112l-615 -1112h-155z" />
    <glyph glyph-name="X" unicode="X" horiz-adv-x="1251" 
d="M-27 0l631 707l-299 706h156l235 -596l516 596h160l-627 -706l299 -707h-151l-244 586l-512 -586h-164z" />
    <glyph glyph-name="Y" unicode="Y" horiz-adv-x="1327" 
d="M485 0l129 553l-329 860h151l269 -719l606 719h157l-725 -860l-129 -553h-129z" />
    <glyph glyph-name="Z" unicode="Z" horiz-adv-x="1286" 
d="M-14 0l22 111l1186 1189h-864l26 113h1030l-24 -117l-1180 -1173h908l-29 -123h-1075z" />
    <glyph glyph-name="bracketleft" unicode="[" horiz-adv-x="641" 
d="M82 -76l360 1563h344l-16 -74h-235l-326 -1413h235l-18 -76h-344z" />
    <glyph glyph-name="backslash" unicode="\" horiz-adv-x="938" 
d="M563 -430l-299 1946h133l295 -1946h-129z" />
    <glyph glyph-name="bracketright" unicode="]" horiz-adv-x="641" 
d="M-51 -76l18 76h236l325 1413h-235l16 74h344l-360 -1563h-344z" />
    <glyph glyph-name="asciicircum" unicode="^" horiz-adv-x="985" 
d="M223 848l475 563l222 -563h-134l-131 342l-290 -342h-142z" />
    <glyph glyph-name="underscore" unicode="_" horiz-adv-x="1241" 
d="M102 -96l23 96h762l-23 -96h-762z" />
    <glyph glyph-name="grave" unicode="`" horiz-adv-x="541" 
d="M463 1126l-180 287h172l149 -287h-141z" />
    <glyph glyph-name="a" unicode="a" 
d="M1061 999l-230 -999h-124l29 135q-69 -74 -152.5 -114.5t-190.5 -40.5q-98 0 -166.5 45t-102.5 125.5t-34 185.5q0 85 21 176q33 143 105 258.5t174 182.5t220 67q214 0 289 -170l37 149h125zM852 661q0 111 -51.5 176.5t-161.5 65.5q-103 0 -185.5 -57t-137 -151
t-80.5 -208q-19 -76 -19 -148q0 -112 52 -178.5t161 -66.5q105 0 187 57t136.5 151.5t80.5 209.5q18 78 18 149z" />
    <glyph glyph-name="b" unicode="b" horiz-adv-x="1122" 
d="M223 152l-37 -152h-123l326 1413h123l-131 -555q150 164 346 164q101 0 169.5 -45.5t102.5 -126t34 -186.5q0 -84 -21 -177q-34 -143 -105 -258t-173.5 -182t-223.5 -67q-214 0 -287 172zM666.5 146.5q84.5 58.5 142 155t82.5 210.5q17 76 17 143q0 116 -53 187t-163 71
q-103 0 -185 -59t-137 -156t-81 -211q-20 -82 -20 -153q0 -112 51 -179t159 -67q103 0 187.5 58.5z" />
    <glyph glyph-name="c" unicode="c" horiz-adv-x="975" 
d="M233.5 27.5q-74.5 47.5 -110.5 130t-36 189.5q0 81 19 163q32 136 105 251.5t181.5 185t240.5 69.5t216.5 -70t111.5 -190l-125 -41q-1 93 -57.5 145.5t-147.5 52.5q-105 0 -187.5 -63.5t-136.5 -161t-78 -203.5q-18 -82 -18 -153q0 -112 48 -181t157 -69q99 0 187 58.5
t132 152.5l96 -62q-72 -121 -179 -186t-234 -65q-110 0 -184.5 47.5z" />
    <glyph glyph-name="d" unicode="d" 
d="M1157 1413l-326 -1413h-124l29 135q-69 -74 -152.5 -114.5t-190.5 -40.5q-98 0 -166.5 45t-102.5 125.5t-34 185.5q0 85 21 176q33 143 105 258.5t174 182.5t220 67q214 0 289 -170l133 563h125zM852 661q0 111 -51.5 176.5t-161.5 65.5q-103 0 -185.5 -57t-137 -151
t-80.5 -208q-19 -76 -19 -148q0 -112 52 -178.5t161 -66.5q105 0 187 57t136.5 151.5t80.5 209.5q18 78 18 149z" />
    <glyph glyph-name="e" unicode="e" horiz-adv-x="1030" 
d="M170.5 84.5q-87.5 96.5 -87.5 259.5q0 79 19 162q31 136 104 251.5t181.5 185t239.5 69.5q172 0 249.5 -90.5t77.5 -245.5q0 -89 -26 -203q0 2 -2.5 -6.5t-5.5 -15.5h-699q-17 -65 -17 -122q0 -105 57 -169t169 -64q99 0 175.5 25t146.5 86l79 -74q-98 -78 -191.5 -111.5
t-209.5 -33.5q-172 0 -259.5 96.5zM831 559q18 69 18 126q0 101 -56.5 156.5t-169.5 55.5q-95 0 -172.5 -46t-129.5 -122.5t-75 -169.5h585z" />
    <glyph glyph-name="f" unicode="f" horiz-adv-x="686" 
d="M313 897h-182l23 100h182l47 205q27 112 110 172t191 60q85 0 158 -39l-43 -90q-56 26 -115 26q-68 0 -117 -36.5t-65 -108.5l-43 -187h301l-23 -102h-301l-207 -897h-123z" />
    <glyph glyph-name="g" unicode="g" horiz-adv-x="1126" 
d="M654.5 -319.5q-128.5 -112.5 -322.5 -112.5q-125 0 -215 51t-129 148l108 61q58 -152 238 -152q94 0 171 43t128.5 118t73.5 169l34 135q-67 -74 -152 -117.5t-188 -43.5q-153 0 -232.5 96.5t-79.5 257.5q0 79 22 178q33 144 104.5 259.5t175 182t227.5 66.5
q105 0 176 -46.5t105 -125.5l37 151h127l-234 -1005q-46 -201 -174.5 -313.5zM616 146.5q82 58.5 137 155t81 210.5q19 82 19 152q0 112 -50.5 178.5t-159.5 66.5q-104 0 -187.5 -58t-138.5 -153.5t-81 -210.5q-20 -80 -20 -151q0 -112 52.5 -180t161.5 -68q104 0 186 58.5z
" />
    <glyph glyph-name="h" unicode="h" horiz-adv-x="1118" 
d="M389 1413h123l-137 -584q66 85 167 136t201 51q134 0 198 -74t64 -196q0 -65 -16 -132l-141 -614h-127l139 604q16 75 16 126q0 167 -157 167q-90 0 -176 -49.5t-148.5 -131.5t-83.5 -175l-125 -541h-123z" />
    <glyph glyph-name="i" unicode="i" horiz-adv-x="481" 
d="M334 1229l43 184h151l-43 -184h-151zM61 0l230 999h129l-230 -999h-129z" />
    <glyph glyph-name="j" unicode="j" horiz-adv-x="485" 
d="M334 1239l43 180h153l-43 -180h-153zM-217 -428.5q-40 9.5 -74 22.5l35 84q20 -6 53.5 -10t59.5 -4q67 0 108 45.5t55 106.5l273 1183h129l-270 -1173q-61 -264 -297 -264q-32 0 -72 9.5z" />
    <glyph glyph-name="k" unicode="k" horiz-adv-x="1036" 
d="M63 0l326 1413h127l-229 -983l594 569h157l-399 -362l238 -637h-146l-182 547l-289 -254l-70 -293h-127z" />
    <glyph glyph-name="l" unicode="l" horiz-adv-x="512" 
d="M117 8q-29 28 -29 78q0 25 5 51t16 72l278 1204h127l-293 -1266q-3 -15 -3 -25q0 -40 42 -40q22 0 53 8t37 10l-12 -102q-22 -8 -56 -13t-65 -5q-71 0 -100 28z" />
    <glyph glyph-name="m" unicode="m" horiz-adv-x="1692" 
d="M291 999h127l-43 -182q46 90 132 145.5t181 55.5q117 0 189.5 -55t78.5 -160q71 107 157.5 160t191.5 53q140 0 207.5 -74.5t67.5 -201.5q0 -64 -17 -138l-140 -602h-127l140 604q16 75 16 129q0 182 -162 182q-84 0 -158 -49.5t-125 -129t-71 -167.5l-131 -569h-127
l139 608q18 79 18 134q0 173 -159 173q-85 0 -159.5 -49.5t-126 -129t-71.5 -167.5l-131 -569h-127z" />
    <glyph glyph-name="n" unicode="n" horiz-adv-x="1114" 
d="M291 999h125l-39 -161q64 80 159.5 129t192.5 49q139 0 205 -73.5t66 -198.5q0 -65 -17 -142l-139 -602h-125l139 604q16 73 16 122q0 169 -163 169q-85 0 -169 -46t-145 -121.5t-80 -160.5l-131 -567h-125z" />
    <glyph glyph-name="o" unicode="o" 
d="M254.5 29.5q-83.5 49.5 -127.5 137.5t-44 200q0 65 17 141q32 139 115.5 254t202 182.5t250.5 67.5q114 0 198 -50.5t128.5 -139t44.5 -200.5q0 -65 -17 -139q-32 -138 -116.5 -253.5t-203.5 -182.5t-249 -67q-115 0 -198.5 49.5zM657.5 149q87.5 57 143.5 151.5
t82 207.5q18 80 18 142q0 114 -56.5 181.5t-180.5 67.5q-112 0 -199 -57t-143 -151.5t-82 -207.5q-18 -80 -18 -141q0 -114 56.5 -182t178.5 -68q113 0 200.5 57z" />
    <glyph glyph-name="p" unicode="p" 
d="M293 999h125l-35 -139q143 160 346 160q101 0 169.5 -45t102.5 -125t34 -186q0 -84 -21 -177q-34 -143 -105 -258t-173.5 -182t-223.5 -67q-214 0 -287 172l-139 -590h-125zM670 146.5q85 58.5 141 155t82 210.5q18 82 18 145q0 114 -53.5 183t-165.5 69
q-101 0 -183.5 -58.5t-138.5 -154.5t-81 -209q-19 -81 -19 -149q0 -113 51.5 -181.5t157.5 -68.5t191 58.5z" />
    <glyph glyph-name="q" unicode="q" 
d="M739 141q-72 -77 -155 -119t-193 -42q-98 0 -166.5 45t-102.5 125.5t-34 185.5q0 85 21 176q33 143 105 258.5t174.5 182.5t221.5 67q212 0 287 -170l37 149h127l-332 -1437h-127zM613.5 146.5q82.5 58.5 137 154.5t80.5 211q19 84 19 153q0 111 -51 177.5t-160 66.5
q-103 0 -186 -58t-138.5 -154t-81.5 -210q-19 -82 -19 -150q0 -113 52 -181t160 -68q105 0 187.5 58.5z" />
    <glyph glyph-name="r" unicode="r" horiz-adv-x="799" 
d="M291 999h131l-41 -176q59 93 147.5 142t176.5 49q45 0 89.5 -12.5t69.5 -32.5l-55 -113q-59 37 -125 37q-90 0 -169 -61.5t-135.5 -159t-80.5 -203.5l-109 -469h-129z" />
    <glyph glyph-name="s" unicode="s" horiz-adv-x="868" 
d="M197 15q-73 35 -117.5 91t-52.5 119l118 47q4 -52 36.5 -92.5t83.5 -62t110 -21.5q69 0 123.5 29t85 76.5t30.5 101.5q0 51 -26.5 83t-65 48.5t-107.5 37.5q-82 24 -132.5 48t-85.5 72.5t-35 130.5q0 93 45 158.5t120.5 99t166.5 33.5q83 0 147.5 -28t105 -72.5
t58.5 -94.5l-107 -47q-20 61 -74 96t-137 35q-92 0 -151.5 -44.5t-59.5 -133.5q0 -49 26.5 -80t66.5 -48t108 -37q84 -24 136.5 -48.5t89 -74t36.5 -132.5q0 -82 -50.5 -157t-138 -121.5t-190.5 -46.5q-90 0 -163 35z" />
    <glyph glyph-name="t" unicode="t" horiz-adv-x="653" 
d="M137 155q0 45 15 113l145 629h-156l23 102h155l50 220l159 131l-79 -351h253l-22 -102h-254l-152 -653q-8 -32 -8 -64q0 -50 24 -75t66 -25q43 0 103 24l-15 -108q-16 -6 -49 -11t-71 -5q-187 0 -187 175z" />
    <glyph glyph-name="u" unicode="u" horiz-adv-x="1110" 
d="M179.5 53q-65.5 76 -65.5 205q0 69 19 154l135 587h125l-139 -610q-18 -79 -18 -135q0 -79 35 -126.5t116 -47.5q86 0 173 50t151 130.5t84 165.5l131 573h123l-230 -999h-123l43 176q-29 -46 -83 -92t-125.5 -76.5t-147.5 -30.5q-138 0 -203.5 76z" />
    <glyph glyph-name="v" unicode="v" horiz-adv-x="946" 
d="M301 0l-133 999h135l90 -835l481 835h136l-594 -999h-115z" />
    <glyph glyph-name="w" unicode="w" horiz-adv-x="1417" 
d="M221 0l-41 999h131l17 -845l436 845h119l43 -843l407 843h135l-503 -999h-127l-43 850l-447 -850h-127z" />
    <glyph glyph-name="x" unicode="x" horiz-adv-x="901" 
d="M-57 0l452 504l-219 495h150l149 -381l332 381h151l-446 -495l213 -504h-143l-150 389l-332 -389h-157z" />
    <glyph glyph-name="y" unicode="y" horiz-adv-x="973" 
d="M49 -430l270 430l-151 999h137l105 -847l489 847h139l-856 -1429h-133z" />
    <glyph glyph-name="z" unicode="z" horiz-adv-x="920" 
d="M950 999l-22 -110l-791 -780h608l-24 -109h-762l21 100l804 797h-589l22 102h733z" />
    <glyph glyph-name="braceleft" unicode="{" horiz-adv-x="600" 
d="M145 -25q-17 20 -17 61q0 30 9 70l84 369q3 12 3 22q0 35 -27.5 58t-71.5 41l12 104q69 16 114.5 58t59.5 102l99 428q22 100 76 148.5t163 48.5h53l26 1q8 0 13 -1l-4 -70q-16 3 -29 2.5t-20 -0.5q-61 0 -100.5 -20t-46.5 -56l-117 -505q-17 -72 -69.5 -116.5
t-166.5 -84.5q76 -26 115 -58.5t39 -79.5q0 -10 -4 -30l-84 -365q-8 -35 -8 -58q0 -46 26 -67.5t78 -21.5q21 0 41 8l-6 -74q-5 -1 -14 -1l-27 1h-72q-91 0 -127 86z" />
    <glyph glyph-name="bar" unicode="|" horiz-adv-x="629" 
d="M35 -512l473 2046h92l-473 -2046h-92z" />
    <glyph glyph-name="braceright" unicode="}" horiz-adv-x="600" 
d="M-41 -112q-9 0 -14 1l4 70q12 -4 26 -4q74 0 123.5 40.5t67.5 119.5l84 364q13 60 68 96.5t157 67.5q-77 33 -112 71t-35 89q0 21 6 45l117 506q2 6 2 17q0 25 -23.5 35.5t-71.5 10.5q-18 0 -31.5 -0.5t-29.5 -3.5l4 72q5 1 15 1l26 -1h51q169 0 169 -137q0 -33 -9 -72
l-100 -428q-6 -24 -6 -45q0 -82 96 -107l-13 -104q-59 -20 -107.5 -52.5t-57.5 -76.5l-86 -369q-25 -104 -56 -141q-41 -32 -77 -48t-87 -16h-71z" />
    <glyph glyph-name="asciitilde" unicode="~" horiz-adv-x="1169" 
d="M672 393q-32 14 -56.5 34.5t-59.5 54.5q-44 44 -75.5 65.5t-70.5 21.5q-57 0 -82 -47t-23 -116h-82q0 105 47.5 175t137.5 70q48 0 85 -15t63 -36.5t59 -55.5q41 -41 69 -60t66 -19q108 0 108 180h90q0 -126 -54 -196t-151 -70q-39 0 -71 14z" />
    <glyph glyph-name="uni00A0" unicode="&#xa0;" horiz-adv-x="563" 
 />
    <glyph glyph-name="exclamdown" unicode="&#xa1;" horiz-adv-x="635" 
d="M301 823l41 176h178l-41 -176h-178zM23 -436l276 1067h96l-219 -1067h-153z" />
    <glyph glyph-name="cent" unicode="&#xa2;" horiz-adv-x="1151" 
d="M451 -14q-140 14 -212.5 112t-72.5 249q0 77 20 163q30 129 97 238t167.5 180t225.5 84l49 188h92l-49 -188q108 -13 183.5 -82t97.5 -174l-138 -43q-3 80 -58.5 128t-139.5 48q-103 0 -184 -59t-133 -150.5t-77 -194.5q-16 -72 -16 -138q0 -108 48.5 -174.5t158.5 -66.5
q59 0 118.5 24t108 67.5t74.5 97.5l109 -64q-64 -110 -163 -174t-216 -73l-47 -189h-95z" />
    <glyph glyph-name="sterling" unicode="&#xa3;" horiz-adv-x="1255" 
d="M76 90q127 92 200.5 168.5t110.5 169.5t37 221h-219l26 109h193q-11 63 -11 120q0 145 58 272t164 203.5t242 76.5q89 0 159.5 -38.5t113.5 -103.5t54 -143l-112 -29q-11 90 -72 144.5t-148 54.5q-106 0 -185.5 -62t-122 -166t-42.5 -226q0 -49 8 -103h474l-27 -109h-445
q0 -123 -26 -217t-86 -172.5t-162 -148.5l834 4l-27 -115h-1010z" />
    <glyph glyph-name="currency" unicode="&#xa4;" horiz-adv-x="1120" 
d="M51 264l133 107q-43 80 -43 174t41 187.5t119 166.5l-78 96l101 90l77 -102q66 44 138.5 66.5t142.5 22.5q74 0 138.5 -24t111.5 -71l129 106l67 -84l-127 -106q42 -76 42 -172q0 -94 -41.5 -189t-118.5 -172l78 -96l-101 -88l-80 100q-65 -43 -136 -65t-141 -22
q-75 0 -140 24.5t-113 71.5l-131 -109zM383 329.5q52 -22.5 113 -22.5q67 0 136.5 26.5t129.5 78.5q78 59 121.5 141.5t43.5 164.5q0 84 -46 148q-37 43 -88.5 65t-110.5 22q-66 0 -134.5 -27t-129.5 -78q-78 -60 -121.5 -144t-43.5 -168q0 -79 42 -141q36 -43 88 -65.5z
" />
    <glyph glyph-name="yen" unicode="&#xa5;" horiz-adv-x="1315" 
d="M479 0l74 322h-299l22 100h299l29 119h-299l23 98h254l-297 774h143l274 -708l605 708h149l-653 -772h252l-23 -100h-301l-29 -119h302l-23 -100h-301l-74 -322h-127z" />
    <glyph glyph-name="brokenbar" unicode="&#xa6;" horiz-adv-x="621" 
d="M322 731l172 744h84l-172 -744h-84zM82 -307l168 727h84l-168 -727h-84z" />
    <glyph glyph-name="section" unicode="&#xa7;" horiz-adv-x="1137" 
d="M220.5 55.5q-91.5 73.5 -101.5 212.5l121 29q1 -110 61 -155.5t168 -45.5q107 0 192 43t109 148q4 22 4 30q0 40 -28.5 65t-70.5 38t-117 30q-94 20 -151.5 40.5t-98.5 63t-41 115.5q0 31 9 70q15 60 55.5 116.5t100.5 98.5q-29 22 -46.5 60t-17.5 84q0 30 7 57
q20 86 80.5 149.5t143 96.5t167.5 33q133 0 214 -68.5t99 -200.5l-123 -16q-4 91 -55 130.5t-141 39.5q-59 0 -117 -21t-101.5 -64.5t-58.5 -107.5q-3 -15 -3 -27q0 -38 27 -61t68.5 -35.5t112.5 -27.5q96 -21 155 -41.5t101 -64.5t42 -120q0 -32 -9 -73q-15 -61 -52 -116
t-98 -95q30 -24 46 -60t16 -81q0 -29 -8 -64q-22 -96 -85.5 -158t-149.5 -91t-181 -29q-153 0 -244.5 73.5zM811.5 597.5q42.5 48.5 56.5 111.5q4 15 4 31q0 50 -37.5 80.5t-88 45t-121.5 27.5q-41 7 -58 12q-68 -25 -116 -74.5t-64 -113.5q-3 -15 -3 -27q0 -47 37.5 -77.5
t86.5 -45t123 -30.5q47 -9 67 -15q71 27 113.5 75.5z" />
    <glyph glyph-name="dieresis" unicode="&#xa8;" horiz-adv-x="834" 
d="M328 1229l43 184h160l-43 -184h-160zM660 1229l43 184h159l-43 -184h-159z" />
    <glyph glyph-name="copyright" unicode="&#xa9;" horiz-adv-x="1806" 
d="M577.5 51q-170.5 102 -270.5 276t-100 380q0 205 100 379t270.5 276t372.5 102t372.5 -102t271 -276t100.5 -379q0 -206 -100.5 -380t-271 -276t-372.5 -102t-372.5 102zM1268.5 140.5q147.5 89.5 235 241t87.5 325.5t-87.5 325t-235 240.5t-318.5 89.5t-319 -89.5
t-236 -240.5t-88 -325t88 -325.5t236 -241t319 -89.5t318.5 89.5zM778.5 361q-77.5 52 -116.5 141.5t-39 202.5q0 112 39 201.5t116.5 141.5t188.5 52q96 0 175.5 -46.5t119.5 -129.5l-93 -39q-27 53 -81.5 83.5t-120.5 30.5q-82 0 -137.5 -40.5t-82 -107.5t-26.5 -146
t26 -145.5t81 -107t137 -40.5q64 0 119.5 30.5t82.5 85.5l95 -41q-40 -85 -118.5 -131.5t-176.5 -46.5q-111 0 -188.5 52z" />
    <glyph glyph-name="ordfeminine" unicode="&#xaa;" horiz-adv-x="1024" 
d="M349 755.5q-54 46.5 -54 122.5q0 25 6 52q24 101 101.5 147.5t195.5 46.5l223 6q12 51 12 91q0 125 -128 125q-62 0 -119 -32t-94 -75l-78 64q67 68 136.5 99.5t156.5 31.5q110 0 168.5 -54.5t58.5 -149.5q0 -42 -10 -83l-99 -424h-88l25 119q-62 -72 -127 -102.5
t-148 -30.5q-84 0 -138 46.5zM638 837q62 36 106 92t57 113l-203 -6q-66 0 -119.5 -36t-66.5 -95q-3 -12 -3 -22q0 -37 31.5 -59.5t71.5 -22.5q64 0 126 36z" />
    <glyph glyph-name="guillemotleft" unicode="&#xab;" horiz-adv-x="977" 
d="M369 193l-283 319l426 317l-31 -149l-237 -168l155 -170zM733 193l-284 319l428 317l-31 -149l-240 -168l158 -170z" />
    <glyph glyph-name="logicalnot" unicode="&#xac;" horiz-adv-x="1290" 
d="M907 291v393h-743v113h860v-506h-117z" />
    <glyph glyph-name="uni00AD" unicode="&#xad;" horiz-adv-x="975" 
d="M190 596l23 96h639l-23 -96h-639z" />
    <glyph glyph-name="registered" unicode="&#xae;" horiz-adv-x="1806" 
d="M579.5 53q-170.5 102 -270.5 276t-100 380q0 205 100 379t270.5 276t372.5 102t372.5 -102t271 -276t100.5 -379q0 -206 -100.5 -380t-271 -276t-372.5 -102t-372.5 102zM1276 135q149 90 237.5 243t88.5 331t-88.5 330.5t-238 242.5t-323.5 90t-324 -90t-238.5 -242.5
t-88.5 -330.5t88.5 -331t238.5 -243t324 -90q175 0 324 90zM709 1096h297q256 0 256 -228q0 -96 -48.5 -149.5t-123.5 -65.5l202 -346h-125l-178 338h-174v-338h-106v789zM1006 739q159 0 159 129q0 69 -39 100t-120 31h-201v-260h201z" />
    <glyph glyph-name="macron" unicode="&#xaf;" horiz-adv-x="879" 
d="M447 1192l28 121h537l-29 -121h-536z" />
    <glyph glyph-name="degree" unicode="&#xb0;" horiz-adv-x="1008" 
d="M357 887.5q-67 39.5 -106.5 106.5t-39.5 147t39.5 147t106.5 106.5t147 39.5q79 0 145.5 -39.5t106 -106.5t39.5 -147t-39.5 -147t-106 -106.5t-145.5 -39.5q-80 0 -147 39.5zM611 953.5q49 29.5 78.5 79.5t29.5 108t-29.5 108t-78.5 79.5t-107 29.5q-59 0 -108.5 -29.5
t-79 -79t-29.5 -108.5t29.5 -108.5t79 -79t108.5 -29.5q58 0 107 29.5z" />
    <glyph glyph-name="plusminus" unicode="&#xb1;" horiz-adv-x="1325" 
d="M614 106v472h-456v96h456v469h97v-469h456v-96h-456v-472h-97zM158 -96v96h1009v-96h-1009z" />
    <glyph glyph-name="acute" unicode="&#xb4;" horiz-adv-x="537" 
d="M213 1124l283 289h180l-336 -289h-127z" />
    <glyph glyph-name="uni00B5" unicode="&#xb5;" horiz-adv-x="1307" 
d="M383 999h139l-139 -606q-17 -75 -17 -129q0 -164 152 -164q84 0 167.5 47t145 123.5t80.5 159.5l131 569h140l-230 -999h-139l43 180q-30 -48 -86 -95t-128 -77.5t-144 -30.5q-113 0 -191 60l-96 -303h-119z" />
    <glyph glyph-name="paragraph" unicode="&#xb6;" horiz-adv-x="1382" 
d="M627 623q-104 0 -189.5 38t-136 109.5t-50.5 168.5q0 41 11 91q26 118 108 204.5t195 132.5t232 46h133l-383 -1659h-127zM793 -246l383 1659h127l-383 -1659h-127z" />
    <glyph glyph-name="periodcentered" unicode="&#xb7;" horiz-adv-x="659" 
d="M316 739q-29 28 -29 71q0 17 4 32q10 47 47 76.5t84 29.5t75.5 -27.5t28.5 -72.5q0 -9 -4 -31q-11 -45 -49 -75.5t-84 -30.5q-44 0 -73 28z" />
    <glyph glyph-name="cedilla" unicode="&#xb8;" horiz-adv-x="565" 
d="M-59 -462q-43 38 -52 91l99 37q-3 -30 15 -51t52 -21q49 0 88.5 33.5t51.5 79.5q2 14 2 20q0 41 -38 69t-118 28h-41l127 176h117l-103 -121q76 -1 114.5 -40.5t38.5 -100.5q0 -27 -5 -47q-12 -48 -45.5 -92t-84 -71.5t-110.5 -27.5q-65 0 -108 38z" />
    <glyph glyph-name="ordmasculine" unicode="&#xba;" horiz-adv-x="977" 
d="M404 747q-61 36 -93.5 99.5t-32.5 143.5q0 50 11 95q22 96 82 176t144.5 126.5t178.5 46.5q83 0 144 -35.5t93 -98.5t32 -143q0 -51 -11 -96q-22 -97 -81.5 -177t-143.5 -126.5t-178 -46.5q-84 0 -145 36zM735.5 889q73.5 78 100.5 196q11 49 11 90q0 73 -36.5 116.5
t-116.5 43.5q-76 0 -135.5 -37.5t-97.5 -99.5t-55 -137q-12 -55 -12 -91q0 -73 38 -116t119 -43q111 0 184.5 78z" />
    <glyph glyph-name="guillemotright" unicode="&#xbb;" horiz-adv-x="977" 
d="M102 193l31 149l238 170l-156 168l31 149l282 -317zM465 193l31 149l237 170l-155 168l30 149l285 -317z" />
    <glyph glyph-name="questiondown" unicode="&#xbf;" horiz-adv-x="1038" 
d="M508 823l41 176h178l-41 -176h-178zM149.5 -402.5q-77.5 31.5 -121 93.5t-43.5 150q0 41 11 91q20 85 60.5 140.5t87 86t118.5 66.5q55 27 87 47t57.5 50t35.5 73l56 240h118l-57 -254q-15 -66 -47 -108.5t-69.5 -67t-100.5 -55.5q-64 -31 -103.5 -57t-73.5 -72t-50 -117
q-8 -35 -8 -60q0 -81 60 -122t159 -41q78 0 150 31t124 89.5t72 137.5l123 -13q-26 -111 -95.5 -192.5t-166.5 -124.5t-205 -43q-101 0 -178.5 31.5z" />
    <glyph glyph-name="Agrave" unicode="&#xc0;" horiz-adv-x="1296" 
d="M-41 0l848 1413h104l193 -1413h-141l-37 307h-639l-178 -307h-150zM360 434h549l-90 780zM819 1540l-180 287h172l149 -287h-141z" />
    <glyph glyph-name="Aacute" unicode="&#xc1;" horiz-adv-x="1296" 
d="M-41 0l848 1413h104l193 -1413h-141l-37 307h-639l-178 -307h-150zM360 434h549l-90 780zM796 1538l283 289h180l-336 -289h-127z" />
    <glyph glyph-name="Acircumflex" unicode="&#xc2;" horiz-adv-x="1296" 
d="M-41 0l848 1413h104l193 -1413h-141l-37 307h-639l-178 -307h-150zM360 434h549l-90 780zM549 1512l413 356l250 -356h-149l-129 196l-226 -196h-159z" />
    <glyph glyph-name="Atilde" unicode="&#xc3;" horiz-adv-x="1296" 
d="M-41 0l848 1413h104l193 -1413h-141l-37 307h-639l-178 -307h-150zM360 434h549l-90 780zM965 1584.5q-26 13.5 -42.5 32.5t-36.5 50q-21 33 -37 48.5t-40 15.5q-40 0 -69.5 -40.5t-43.5 -96.5h-88q26 112 77.5 176.5t123.5 64.5q41 0 69.5 -14.5t45.5 -35t36 -52.5
t33.5 -47t36.5 -15q42 0 73 43.5t50 114.5h92q-58 -258 -219 -258q-35 0 -61 13.5z" />
    <glyph glyph-name="Adieresis" unicode="&#xc4;" horiz-adv-x="1296" 
d="M-41 0l848 1413h104l193 -1413h-141l-37 307h-639l-178 -307h-150zM360 434h549l-90 780zM666 1643l43 184h160l-43 -184h-160zM998 1643l43 184h159l-43 -184h-159z" />
    <glyph glyph-name="Aring" unicode="&#xc5;" horiz-adv-x="1309" 
d="M1110 0h-129l-37 307h-651l-178 -307h-150l809 1341q-37 19 -59.5 57t-22.5 87q0 24 6 49q13 54 47.5 96t81.5 65t97 23q46 0 84 -20t60.5 -57t22.5 -84q0 -22 -6 -48q-14 -56 -54 -101t-97 -67zM808 1441.5q21 -20.5 56 -20.5q32 0 61.5 17t48 46t18.5 63q0 32 -21 52.5
t-58 20.5q-35 0 -64 -17.5t-45.5 -46.5t-16.5 -60q0 -34 21 -54.5zM367 434h561l-92 800z" />
    <glyph glyph-name="AE" unicode="&#xc6;" horiz-adv-x="1817" 
d="M-35 0l844 1413h1102l-25 -108h-747l-125 -541h659l-26 -115h-660l-123 -534h748l-27 -115h-883l70 307h-481l-182 -307h-144zM360 434h443l201 871h-127z" />
    <glyph glyph-name="Ccedilla" unicode="&#xc7;" horiz-adv-x="1430" 
d="M660 1230q-131 -83 -215.5 -221t-122.5 -304q-27 -119 -27 -215q0 -178 89 -283t278 -105q160 0 292.5 75.5t227.5 234.5l112 -68q-106 -158 -249 -249.5t-308 -109.5l-90 -106q76 -1 114.5 -40.5t38.5 -100.5q0 -27 -5 -47q-12 -48 -45.5 -92t-84 -71.5t-110.5 -27.5
q-65 0 -108 38t-52 91l99 37q-3 -30 15 -51t52 -21q49 0 88.5 33.5t51.5 79.5q2 14 2 20q0 41 -38 69t-118 28h-41l113 157q-154 7 -256 71.5t-151 174t-49 251.5q0 115 30 241q47 202 150.5 364t262 257.5t361.5 95.5q135 0 240.5 -41.5t170 -125.5t76.5 -208l-127 -39
q-27 291 -369 291q-167 0 -298 -83z" />
    <glyph glyph-name="Egrave" unicode="&#xc8;" horiz-adv-x="1245" 
d="M109 0l325 1413h909l-26 -113h-774l-123 -538h661l-26 -109h-662l-123 -532h774l-26 -121h-909zM852 1540l-180 287h172l149 -287h-141z" />
    <glyph glyph-name="Eacute" unicode="&#xc9;" horiz-adv-x="1245" 
d="M109 0l325 1413h909l-26 -113h-774l-123 -538h661l-26 -109h-662l-123 -532h774l-26 -121h-909zM829 1538l283 289h180l-336 -289h-127z" />
    <glyph glyph-name="Ecircumflex" unicode="&#xca;" horiz-adv-x="1245" 
d="M109 0l325 1413h909l-26 -113h-774l-123 -538h661l-26 -109h-662l-123 -532h774l-26 -121h-909zM582 1512l413 356l250 -356h-149l-129 196l-226 -196h-159z" />
    <glyph glyph-name="Edieresis" unicode="&#xcb;" horiz-adv-x="1245" 
d="M109 0l325 1413h909l-26 -113h-774l-123 -538h661l-26 -109h-662l-123 -532h774l-26 -121h-909zM699 1643l43 184h160l-43 -184h-160zM1031 1643l43 184h159l-43 -184h-159z" />
    <glyph glyph-name="Igrave" unicode="&#xcc;" horiz-adv-x="582" 
d="M109 0l325 1413h135l-325 -1413h-135zM459 1540l-180 287h172l149 -287h-141z" />
    <glyph glyph-name="Iacute" unicode="&#xcd;" horiz-adv-x="582" 
d="M109 0l325 1413h135l-325 -1413h-135zM436 1538l283 289h180l-336 -289h-127z" />
    <glyph glyph-name="Icircumflex" unicode="&#xce;" horiz-adv-x="582" 
d="M109 0l325 1413h135l-325 -1413h-135zM189 1512l413 356l250 -356h-149l-129 196l-226 -196h-159z" />
    <glyph glyph-name="Idieresis" unicode="&#xcf;" horiz-adv-x="582" 
d="M109 0l325 1413h135l-325 -1413h-135zM306 1643l43 184h160l-43 -184h-160zM638 1643l43 184h159l-43 -184h-159z" />
    <glyph glyph-name="Eth" unicode="&#xd0;" horiz-adv-x="1430" 
d="M276 664h-112l24 98h113l150 651h350q276 0 421 -126.5t145 -366.5q0 -107 -30 -236q-51 -219 -167 -372t-290 -232.5t-397 -79.5h-358zM477 129q170 0 317 64t254 196.5t152 329.5q24 105 24 192q0 185 -111.5 280t-334.5 95h-213l-121 -524h381l-24 -98h-381l-123 -535
h180z" />
    <glyph glyph-name="Ntilde" unicode="&#xd1;" horiz-adv-x="1417" 
d="M109 0l325 1413h213l324 -1288l299 1288h135l-326 -1413h-217l-317 1290l-299 -1290h-137zM1023 1584.5q-26 13.5 -42.5 32.5t-36.5 50q-21 33 -37 48.5t-40 15.5q-40 0 -69.5 -40.5t-43.5 -96.5h-88q26 112 77.5 176.5t123.5 64.5q41 0 69.5 -14.5t45.5 -35t36 -52.5
t33.5 -47t36.5 -15q42 0 73 43.5t50 114.5h92q-58 -258 -219 -258q-35 0 -61 13.5z" />
    <glyph glyph-name="Ograve" unicode="&#xd2;" horiz-adv-x="1524" 
d="M376.5 44.5q-109.5 64.5 -162 178.5t-52.5 263q0 114 28 233q46 199 151.5 361.5t265 258t358.5 95.5q166 0 276.5 -64.5t163.5 -178.5t53 -264q0 -114 -28 -233q-47 -200 -152.5 -361.5t-265.5 -257t-361 -95.5q-165 0 -274.5 64.5zM964 190q134 84 221 223t126 306
q23 103 23 195q0 178 -91.5 285.5t-286.5 107.5q-168 0 -300.5 -84t-219 -223.5t-125.5 -305.5q-24 -107 -24 -196q0 -177 90.5 -284.5t279.5 -107.5q173 0 307 84zM930 1540l-180 287h172l149 -287h-141z" />
    <glyph glyph-name="Oacute" unicode="&#xd3;" horiz-adv-x="1524" 
d="M376.5 44.5q-109.5 64.5 -162 178.5t-52.5 263q0 114 28 233q46 199 151.5 361.5t265 258t358.5 95.5q166 0 276.5 -64.5t163.5 -178.5t53 -264q0 -114 -28 -233q-47 -200 -152.5 -361.5t-265.5 -257t-361 -95.5q-165 0 -274.5 64.5zM964 190q134 84 221 223t126 306
q23 103 23 195q0 178 -91.5 285.5t-286.5 107.5q-168 0 -300.5 -84t-219 -223.5t-125.5 -305.5q-24 -107 -24 -196q0 -177 90.5 -284.5t279.5 -107.5q173 0 307 84zM907 1538l283 289h180l-336 -289h-127z" />
    <glyph glyph-name="Ocircumflex" unicode="&#xd4;" horiz-adv-x="1524" 
d="M376.5 44.5q-109.5 64.5 -162 178.5t-52.5 263q0 114 28 233q46 199 151.5 361.5t265 258t358.5 95.5q166 0 276.5 -64.5t163.5 -178.5t53 -264q0 -114 -28 -233q-47 -200 -152.5 -361.5t-265.5 -257t-361 -95.5q-165 0 -274.5 64.5zM964 190q134 84 221 223t126 306
q23 103 23 195q0 178 -91.5 285.5t-286.5 107.5q-168 0 -300.5 -84t-219 -223.5t-125.5 -305.5q-24 -107 -24 -196q0 -177 90.5 -284.5t279.5 -107.5q173 0 307 84zM660 1512l413 356l250 -356h-149l-129 196l-226 -196h-159z" />
    <glyph glyph-name="Otilde" unicode="&#xd5;" horiz-adv-x="1524" 
d="M376.5 44.5q-109.5 64.5 -162 178.5t-52.5 263q0 114 28 233q46 199 151.5 361.5t265 258t358.5 95.5q166 0 276.5 -64.5t163.5 -178.5t53 -264q0 -114 -28 -233q-47 -200 -152.5 -361.5t-265.5 -257t-361 -95.5q-165 0 -274.5 64.5zM964 190q134 84 221 223t126 306
q23 103 23 195q0 178 -91.5 285.5t-286.5 107.5q-168 0 -300.5 -84t-219 -223.5t-125.5 -305.5q-24 -107 -24 -196q0 -177 90.5 -284.5t279.5 -107.5q173 0 307 84zM1076 1584.5q-26 13.5 -42.5 32.5t-36.5 50q-21 33 -37 48.5t-40 15.5q-40 0 -69.5 -40.5t-43.5 -96.5h-88
q26 112 77.5 176.5t123.5 64.5q41 0 69.5 -14.5t45.5 -35t36 -52.5t33.5 -47t36.5 -15q42 0 73 43.5t50 114.5h92q-58 -258 -219 -258q-35 0 -61 13.5z" />
    <glyph glyph-name="Odieresis" unicode="&#xd6;" horiz-adv-x="1524" 
d="M376.5 44.5q-109.5 64.5 -162 178.5t-52.5 263q0 114 28 233q46 199 151.5 361.5t265 258t358.5 95.5q166 0 276.5 -64.5t163.5 -178.5t53 -264q0 -114 -28 -233q-47 -200 -152.5 -361.5t-265.5 -257t-361 -95.5q-165 0 -274.5 64.5zM964 190q134 84 221 223t126 306
q23 103 23 195q0 178 -91.5 285.5t-286.5 107.5q-168 0 -300.5 -84t-219 -223.5t-125.5 -305.5q-24 -107 -24 -196q0 -177 90.5 -284.5t279.5 -107.5q173 0 307 84zM777 1643l43 184h160l-43 -184h-160zM1109 1643l43 184h159l-43 -184h-159z" />
    <glyph glyph-name="multiply" unicode="&#xd7;" horiz-adv-x="1118" 
d="M238 233l-70 68l324 324l-332 331l67 70l334 -334l322 324l69 -68l-323 -323l332 -332l-68 -70l-332 334z" />
    <glyph glyph-name="Oslash" unicode="&#xd8;" horiz-adv-x="1524" 
d="M1427 1135.5q31 -94.5 31 -209.5q0 -106 -28 -232q-47 -200 -152.5 -361.5t-265.5 -257t-361 -95.5q-179 0 -296 78l-45 -58h-119l93 118q-61 67 -91.5 160.5t-30.5 206.5q0 115 28 234q46 199 151.5 361.5t265 258t358.5 95.5q178 0 296 -77l44 56h119l-91 -116
q63 -67 94 -161.5zM288 497q0 -173 80 -272l811 1028q-91 54 -223 54q-168 0 -300.5 -84t-219 -223.5t-125.5 -305.5q-23 -104 -23 -197zM1334 913q0 177 -85 279l-811 -1030q86 -56 219 -56q173 0 307 84t221 223t126 306q23 103 23 194z" />
    <glyph glyph-name="Ugrave" unicode="&#xd9;" horiz-adv-x="1350" 
d="M345 29.5q-86 49.5 -125.5 134t-39.5 192.5q0 81 19 160l207 897h135l-199 -860q-25 -105 -25 -189q0 -258 254 -258q190 0 304 126.5t161 332.5l197 848h135l-207 -899q-34 -147 -111.5 -267.5t-200.5 -193.5t-284 -73q-134 0 -220 49.5zM850 1540l-180 287h172
l149 -287h-141z" />
    <glyph glyph-name="Uacute" unicode="&#xda;" horiz-adv-x="1350" 
d="M345 29.5q-86 49.5 -125.5 134t-39.5 192.5q0 81 19 160l207 897h135l-199 -860q-25 -105 -25 -189q0 -258 254 -258q190 0 304 126.5t161 332.5l197 848h135l-207 -899q-34 -147 -111.5 -267.5t-200.5 -193.5t-284 -73q-134 0 -220 49.5zM827 1538l283 289h180
l-336 -289h-127z" />
    <glyph glyph-name="Ucircumflex" unicode="&#xdb;" horiz-adv-x="1350" 
d="M345 29.5q-86 49.5 -125.5 134t-39.5 192.5q0 81 19 160l207 897h135l-199 -860q-25 -105 -25 -189q0 -258 254 -258q190 0 304 126.5t161 332.5l197 848h135l-207 -899q-34 -147 -111.5 -267.5t-200.5 -193.5t-284 -73q-134 0 -220 49.5zM580 1512l413 356l250 -356
h-149l-129 196l-226 -196h-159z" />
    <glyph glyph-name="Udieresis" unicode="&#xdc;" horiz-adv-x="1350" 
d="M345 29.5q-86 49.5 -125.5 134t-39.5 192.5q0 81 19 160l207 897h135l-199 -860q-25 -105 -25 -189q0 -258 254 -258q190 0 304 126.5t161 332.5l197 848h135l-207 -899q-34 -147 -111.5 -267.5t-200.5 -193.5t-284 -73q-134 0 -220 49.5zM697 1643l43 184h160l-43 -184
h-160zM1029 1643l43 184h159l-43 -184h-159z" />
    <glyph glyph-name="Yacute" unicode="&#xdd;" horiz-adv-x="1327" 
d="M485 0l129 553l-329 860h151l269 -719l606 719h157l-725 -860l-129 -553h-129zM810 1538l283 289h180l-336 -289h-127z" />
    <glyph glyph-name="Thorn" unicode="&#xde;" horiz-adv-x="1159" 
d="M434 1413h141l-47 -201h244q113 0 195.5 -35.5t127 -103.5t44.5 -162q0 -44 -13 -104q-27 -115 -99.5 -198t-181 -126t-241.5 -43h-254l-100 -440h-141zM623 571q144 0 240.5 66.5t125.5 191.5q8 31 8 65q0 85 -63.5 130t-183.5 45h-254l-115 -498h242z" />
    <glyph glyph-name="germandbls" unicode="&#xdf;" horiz-adv-x="1182" 
d="M474.5 1q-62.5 19 -134.5 56l74 119q47 -31 101 -47t103 -16q51 0 106.5 25t97 68t52.5 93q6 26 6 47q0 53 -27.5 94t-81.5 94q-38 39 -60 65.5t-37.5 60.5t-15.5 75q0 24 6 51q8 37 30 65t48 47t71 46q47 28 76.5 49.5t53.5 54t34 76.5q5 19 5 42q0 67 -54 108t-150 41
q-132 0 -233.5 -104t-155.5 -339l-201 -872h-125l205 887q68 295 201 421t313 126q85 0 160 -34t120.5 -97t45.5 -144q0 -37 -8 -69q-11 -47 -35.5 -80t-53.5 -54.5t-77 -50.5q-61 -37 -94.5 -67t-44.5 -78q-3 -13 -3 -25q0 -37 22.5 -67.5t68.5 -73.5q41 -38 67 -68
t44 -71.5t18 -92.5q0 -36 -8 -69q-21 -90 -80 -161t-141.5 -110.5t-172.5 -39.5q-73 0 -135.5 19z" />
    <glyph glyph-name="agrave" unicode="&#xe0;" 
d="M1061 999l-230 -999h-124l29 135q-69 -74 -152.5 -114.5t-190.5 -40.5q-98 0 -166.5 45t-102.5 125.5t-34 185.5q0 85 21 176q33 143 105 258.5t174 182.5t220 67q214 0 289 -170l37 149h125zM852 661q0 111 -51.5 176.5t-161.5 65.5q-103 0 -185.5 -57t-137 -151
t-80.5 -208q-19 -76 -19 -148q0 -112 52 -178.5t161 -66.5q105 0 187 57t136.5 151.5t80.5 209.5q18 78 18 149zM649 1126l-180 287h172l149 -287h-141z" />
    <glyph glyph-name="aacute" unicode="&#xe1;" 
d="M1061 999l-230 -999h-124l29 135q-69 -74 -152.5 -114.5t-190.5 -40.5q-98 0 -166.5 45t-102.5 125.5t-34 185.5q0 85 21 176q33 143 105 258.5t174 182.5t220 67q214 0 289 -170l37 149h125zM852 661q0 111 -51.5 176.5t-161.5 65.5q-103 0 -185.5 -57t-137 -151
t-80.5 -208q-19 -76 -19 -148q0 -112 52 -178.5t161 -66.5q105 0 187 57t136.5 151.5t80.5 209.5q18 78 18 149zM626 1124l283 289h180l-336 -289h-127z" />
    <glyph glyph-name="acircumflex" unicode="&#xe2;" 
d="M1061 999l-230 -999h-124l29 135q-69 -74 -152.5 -114.5t-190.5 -40.5q-98 0 -166.5 45t-102.5 125.5t-34 185.5q0 85 21 176q33 143 105 258.5t174 182.5t220 67q214 0 289 -170l37 149h125zM852 661q0 111 -51.5 176.5t-161.5 65.5q-103 0 -185.5 -57t-137 -151
t-80.5 -208q-19 -76 -19 -148q0 -112 52 -178.5t161 -66.5q105 0 187 57t136.5 151.5t80.5 209.5q18 78 18 149zM379 1098l413 356l250 -356h-149l-129 196l-226 -196h-159z" />
    <glyph glyph-name="atilde" unicode="&#xe3;" 
d="M1061 999l-230 -999h-124l29 135q-69 -74 -152.5 -114.5t-190.5 -40.5q-98 0 -166.5 45t-102.5 125.5t-34 185.5q0 85 21 176q33 143 105 258.5t174 182.5t220 67q214 0 289 -170l37 149h125zM852 661q0 111 -51.5 176.5t-161.5 65.5q-103 0 -185.5 -57t-137 -151
t-80.5 -208q-19 -76 -19 -148q0 -112 52 -178.5t161 -66.5q105 0 187 57t136.5 151.5t80.5 209.5q18 78 18 149zM795 1170.5q-26 13.5 -42.5 32.5t-36.5 50q-21 33 -37 48.5t-40 15.5q-40 0 -69.5 -40.5t-43.5 -96.5h-88q26 112 77.5 176.5t123.5 64.5q41 0 69.5 -14.5
t45.5 -35t36 -52.5t33.5 -47t36.5 -15q42 0 73 43.5t50 114.5h92q-58 -258 -219 -258q-35 0 -61 13.5z" />
    <glyph glyph-name="adieresis" unicode="&#xe4;" 
d="M1061 999l-230 -999h-124l29 135q-69 -74 -152.5 -114.5t-190.5 -40.5q-98 0 -166.5 45t-102.5 125.5t-34 185.5q0 85 21 176q33 143 105 258.5t174 182.5t220 67q214 0 289 -170l37 149h125zM852 661q0 111 -51.5 176.5t-161.5 65.5q-103 0 -185.5 -57t-137 -151
t-80.5 -208q-19 -76 -19 -148q0 -112 52 -178.5t161 -66.5q105 0 187 57t136.5 151.5t80.5 209.5q18 78 18 149zM496 1229l43 184h160l-43 -184h-160zM828 1229l43 184h159l-43 -184h-159z" />
    <glyph glyph-name="aring" unicode="&#xe5;" 
d="M1061 999l-230 -999h-124l29 135q-69 -74 -152.5 -114.5t-190.5 -40.5q-98 0 -166.5 45t-102.5 125.5t-34 185.5q0 85 21 176q33 143 105 258.5t174 182.5t220 67q214 0 289 -170l37 149h125zM852 661q0 111 -51.5 176.5t-161.5 65.5q-103 0 -185.5 -57t-137 -151
t-80.5 -208q-19 -76 -19 -148q0 -112 52 -178.5t161 -66.5q105 0 187 57t136.5 151.5t80.5 209.5q18 78 18 149zM598.5 1126.5q-45.5 45.5 -45.5 115.5q0 24 6 48q12 51 46.5 93.5t82 67t99.5 24.5q47 0 85 -21t59 -57.5t21 -81.5q0 -23 -6 -49q-11 -51 -45.5 -93t-83 -67
t-98.5 -25q-75 0 -120.5 45.5zM810.5 1210.5q38.5 32.5 45.5 79.5l1 12q0 33 -21.5 53.5t-57.5 20.5q-49 0 -83.5 -30.5t-41.5 -79.5q-1 -5 -1 -16q0 -33 21 -52.5t54 -19.5q45 0 83.5 32.5z" />
    <glyph glyph-name="ae" unicode="&#xe6;" horiz-adv-x="1675" 
d="M154.5 8.5q-59.5 28.5 -92.5 81.5t-33 122q0 37 8 69q34 147 142 215.5t276 68.5h325q20 88 20 154q0 96 -46 147.5t-148 51.5q-93 0 -175.5 -46t-137.5 -112l-92 74q98 94 194 138t219 44q127 0 200 -52t87 -145q66 96 155.5 144.5t209.5 48.5q174 0 252.5 -90
t78.5 -245q0 -89 -26 -204q0 2 -2 -5t-4 -11h-697q-17 -68 -17 -126q0 -107 56.5 -171t167.5 -64q100 0 175.5 25t152.5 86l74 -74q-96 -78 -191.5 -111.5t-210.5 -33.5q-162 0 -244 85.5t-86 225.5q-166 -319 -454 -319q-77 0 -136.5 28.5zM1477 565q17 68 17 121
q0 100 -57 155.5t-171 55.5q-93 0 -170.5 -45.5t-130 -121.5t-74.5 -165h586zM519.5 144q92.5 54 157 139.5t79.5 173.5h-301q-100 -2 -179 -52.5t-104 -148.5q-3 -13 -3 -26q0 -38 25 -70t63 -51t75 -19q95 0 187.5 54z" />
    <glyph glyph-name="ccedilla" unicode="&#xe7;" horiz-adv-x="975" 
d="M443.5 849.5q-82.5 -63.5 -136.5 -161t-78 -203.5q-18 -82 -18 -153q0 -112 48 -181t157 -69q99 0 187 58.5t132 152.5l96 -62q-65 -110 -159.5 -174t-208.5 -75l-88 -103q76 -1 114.5 -40.5t38.5 -100.5q0 -27 -5 -47q-12 -48 -45.5 -92t-84 -71.5t-110.5 -27.5
q-65 0 -108 38t-52 91l99 37q-3 -30 15 -51t52 -21q49 0 88.5 33.5t51.5 79.5q2 14 2 20q0 41 -38 69t-118 28h-41l116 161q-130 21 -196.5 119t-66.5 243q0 81 19 163q32 136 105 251.5t181.5 185t240.5 69.5t216.5 -70t111.5 -190l-125 -41q-1 93 -57.5 145.5t-147.5 52.5
q-105 0 -187.5 -63.5z" />
    <glyph glyph-name="egrave" unicode="&#xe8;" horiz-adv-x="1030" 
d="M170.5 84.5q-87.5 96.5 -87.5 259.5q0 79 19 162q31 136 104 251.5t181.5 185t239.5 69.5q172 0 249.5 -90.5t77.5 -245.5q0 -89 -26 -203q0 2 -2.5 -6.5t-5.5 -15.5h-699q-17 -65 -17 -122q0 -105 57 -169t169 -64q99 0 175.5 25t146.5 86l79 -74q-98 -78 -191.5 -111.5
t-209.5 -33.5q-172 0 -259.5 96.5zM831 559q18 69 18 126q0 101 -56.5 156.5t-169.5 55.5q-95 0 -172.5 -46t-129.5 -122.5t-75 -169.5h585zM582 1126l-180 287h172l149 -287h-141z" />
    <glyph glyph-name="eacute" unicode="&#xe9;" horiz-adv-x="1030" 
d="M170.5 84.5q-87.5 96.5 -87.5 259.5q0 79 19 162q31 136 104 251.5t181.5 185t239.5 69.5q172 0 249.5 -90.5t77.5 -245.5q0 -89 -26 -203q0 2 -2.5 -6.5t-5.5 -15.5h-699q-17 -65 -17 -122q0 -105 57 -169t169 -64q99 0 175.5 25t146.5 86l79 -74q-98 -78 -191.5 -111.5
t-209.5 -33.5q-172 0 -259.5 96.5zM831 559q18 69 18 126q0 101 -56.5 156.5t-169.5 55.5q-95 0 -172.5 -46t-129.5 -122.5t-75 -169.5h585zM559 1124l283 289h180l-336 -289h-127z" />
    <glyph glyph-name="ecircumflex" unicode="&#xea;" horiz-adv-x="1030" 
d="M170.5 84.5q-87.5 96.5 -87.5 259.5q0 79 19 162q31 136 104 251.5t181.5 185t239.5 69.5q172 0 249.5 -90.5t77.5 -245.5q0 -89 -26 -203q0 2 -2.5 -6.5t-5.5 -15.5h-699q-17 -65 -17 -122q0 -105 57 -169t169 -64q99 0 175.5 25t146.5 86l79 -74q-98 -78 -191.5 -111.5
t-209.5 -33.5q-172 0 -259.5 96.5zM831 559q18 69 18 126q0 101 -56.5 156.5t-169.5 55.5q-95 0 -172.5 -46t-129.5 -122.5t-75 -169.5h585zM312 1098l413 356l250 -356h-149l-129 196l-226 -196h-159z" />
    <glyph glyph-name="edieresis" unicode="&#xeb;" horiz-adv-x="1030" 
d="M170.5 84.5q-87.5 96.5 -87.5 259.5q0 79 19 162q31 136 104 251.5t181.5 185t239.5 69.5q172 0 249.5 -90.5t77.5 -245.5q0 -89 -26 -203q0 2 -2.5 -6.5t-5.5 -15.5h-699q-17 -65 -17 -122q0 -105 57 -169t169 -64q99 0 175.5 25t146.5 86l79 -74q-98 -78 -191.5 -111.5
t-209.5 -33.5q-172 0 -259.5 96.5zM831 559q18 69 18 126q0 101 -56.5 156.5t-169.5 55.5q-95 0 -172.5 -46t-129.5 -122.5t-75 -169.5h585zM429 1229l43 184h160l-43 -184h-160zM761 1229l43 184h159l-43 -184h-159z" />
    <glyph glyph-name="igrave" unicode="&#xec;" horiz-adv-x="502" 
d="M72 0l229 999h129l-229 -999h-129zM326 1126l-180 287h172l149 -287h-141z" />
    <glyph glyph-name="iacute" unicode="&#xed;" horiz-adv-x="502" 
d="M72 0l229 999h129l-229 -999h-129zM303 1124l283 289h180l-336 -289h-127z" />
    <glyph glyph-name="icircumflex" unicode="&#xee;" horiz-adv-x="502" 
d="M72 0l229 999h129l-229 -999h-129zM56 1098l413 356l250 -356h-149l-129 196l-226 -196h-159z" />
    <glyph glyph-name="idieresis" unicode="&#xef;" horiz-adv-x="502" 
d="M72 0l229 999h129l-229 -999h-129zM173 1229l43 184h160l-43 -184h-160zM505 1229l43 184h159l-43 -184h-159z" />
    <glyph glyph-name="eth" unicode="&#xf0;" horiz-adv-x="1159" 
d="M1018.5 1145q60.5 -132 60.5 -309q0 -151 -43 -336q-31 -136 -113 -254.5t-202.5 -190t-261.5 -71.5q-119 0 -202.5 52t-125.5 141.5t-42 202.5q0 76 17 148q32 138 111.5 250t193.5 177t246 65q65 0 120.5 -15.5t93 -40t52.5 -51.5q2 24 2 35q0 181 -176 329l-126 -140
l-80 57l127 143q-74 48 -154 84l82 92q86 -37 156 -81l84 94l84 -56l-86 -96q122 -97 182.5 -229zM914 662q0 119 -58.5 191.5t-177.5 72.5q-109 0 -198.5 -59.5t-148.5 -156t-85 -206.5q-15 -66 -15 -131q0 -119 57.5 -193t178.5 -74q109 0 198 59.5t147.5 155.5t84.5 207
q17 71 17 134z" />
    <glyph glyph-name="ntilde" unicode="&#xf1;" horiz-adv-x="1114" 
d="M291 999h125l-39 -161q64 80 159.5 129t192.5 49q139 0 205 -73.5t66 -198.5q0 -65 -17 -142l-139 -602h-125l139 604q16 73 16 122q0 169 -163 169q-85 0 -169 -46t-145 -121.5t-80 -160.5l-131 -567h-125zM762 1170.5q-26 13.5 -42.5 32.5t-36.5 50q-21 33 -37 48.5
t-40 15.5q-40 0 -69.5 -40.5t-43.5 -96.5h-88q26 112 77.5 176.5t123.5 64.5q41 0 69.5 -14.5t45.5 -35t36 -52.5t33.5 -47t36.5 -15q42 0 73 43.5t50 114.5h92q-58 -258 -219 -258q-35 0 -61 13.5z" />
    <glyph glyph-name="ograve" unicode="&#xf2;" 
d="M254.5 29.5q-83.5 49.5 -127.5 137.5t-44 200q0 65 17 141q32 139 115.5 254t202 182.5t250.5 67.5q114 0 198 -50.5t128.5 -139t44.5 -200.5q0 -65 -17 -139q-32 -138 -116.5 -253.5t-203.5 -182.5t-249 -67q-115 0 -198.5 49.5zM657.5 149q87.5 57 143.5 151.5
t82 207.5q18 80 18 142q0 114 -56.5 181.5t-180.5 67.5q-112 0 -199 -57t-143 -151.5t-82 -207.5q-18 -80 -18 -141q0 -114 56.5 -182t178.5 -68q113 0 200.5 57zM635 1126l-180 287h172l149 -287h-141z" />
    <glyph glyph-name="oacute" unicode="&#xf3;" 
d="M254.5 29.5q-83.5 49.5 -127.5 137.5t-44 200q0 65 17 141q32 139 115.5 254t202 182.5t250.5 67.5q114 0 198 -50.5t128.5 -139t44.5 -200.5q0 -65 -17 -139q-32 -138 -116.5 -253.5t-203.5 -182.5t-249 -67q-115 0 -198.5 49.5zM657.5 149q87.5 57 143.5 151.5
t82 207.5q18 80 18 142q0 114 -56.5 181.5t-180.5 67.5q-112 0 -199 -57t-143 -151.5t-82 -207.5q-18 -80 -18 -141q0 -114 56.5 -182t178.5 -68q113 0 200.5 57zM612 1124l283 289h180l-336 -289h-127z" />
    <glyph glyph-name="ocircumflex" unicode="&#xf4;" 
d="M254.5 29.5q-83.5 49.5 -127.5 137.5t-44 200q0 65 17 141q32 139 115.5 254t202 182.5t250.5 67.5q114 0 198 -50.5t128.5 -139t44.5 -200.5q0 -65 -17 -139q-32 -138 -116.5 -253.5t-203.5 -182.5t-249 -67q-115 0 -198.5 49.5zM657.5 149q87.5 57 143.5 151.5
t82 207.5q18 80 18 142q0 114 -56.5 181.5t-180.5 67.5q-112 0 -199 -57t-143 -151.5t-82 -207.5q-18 -80 -18 -141q0 -114 56.5 -182t178.5 -68q113 0 200.5 57zM365 1098l413 356l250 -356h-149l-129 196l-226 -196h-159z" />
    <glyph glyph-name="otilde" unicode="&#xf5;" 
d="M254.5 29.5q-83.5 49.5 -127.5 137.5t-44 200q0 65 17 141q32 139 115.5 254t202 182.5t250.5 67.5q114 0 198 -50.5t128.5 -139t44.5 -200.5q0 -65 -17 -139q-32 -138 -116.5 -253.5t-203.5 -182.5t-249 -67q-115 0 -198.5 49.5zM657.5 149q87.5 57 143.5 151.5
t82 207.5q18 80 18 142q0 114 -56.5 181.5t-180.5 67.5q-112 0 -199 -57t-143 -151.5t-82 -207.5q-18 -80 -18 -141q0 -114 56.5 -182t178.5 -68q113 0 200.5 57zM781 1170.5q-26 13.5 -42.5 32.5t-36.5 50q-21 33 -37 48.5t-40 15.5q-40 0 -69.5 -40.5t-43.5 -96.5h-88
q26 112 77.5 176.5t123.5 64.5q41 0 69.5 -14.5t45.5 -35t36 -52.5t33.5 -47t36.5 -15q42 0 73 43.5t50 114.5h92q-58 -258 -219 -258q-35 0 -61 13.5z" />
    <glyph glyph-name="odieresis" unicode="&#xf6;" 
d="M254.5 29.5q-83.5 49.5 -127.5 137.5t-44 200q0 65 17 141q32 139 115.5 254t202 182.5t250.5 67.5q114 0 198 -50.5t128.5 -139t44.5 -200.5q0 -65 -17 -139q-32 -138 -116.5 -253.5t-203.5 -182.5t-249 -67q-115 0 -198.5 49.5zM657.5 149q87.5 57 143.5 151.5
t82 207.5q18 80 18 142q0 114 -56.5 181.5t-180.5 67.5q-112 0 -199 -57t-143 -151.5t-82 -207.5q-18 -80 -18 -141q0 -114 56.5 -182t178.5 -68q113 0 200.5 57zM482 1229l43 184h160l-43 -184h-160zM814 1229l43 184h159l-43 -184h-159z" />
    <glyph glyph-name="divide" unicode="&#xf7;" horiz-adv-x="893" 
d="M352 920v176h178v-176h-178zM141 580v96h600v-96h-600zM352 141v176h178v-176h-178z" />
    <glyph glyph-name="oslash" unicode="&#xf8;" 
d="M1010.5 785.5q28.5 -74.5 28.5 -163.5q0 -65 -17 -139q-32 -138 -116.5 -253.5t-203.5 -182.5t-249 -67q-124 0 -213 59l-30 -38h-84l63 80q-52 52 -79 125t-27 160q0 66 17 142q32 139 115.5 254t202 182.5t250.5 67.5q121 0 210 -58l34 44h84l-67 -85
q53 -53 81.5 -127.5zM222 341q0 -101 43 -164l541 687q-56 35 -142 35q-112 0 -199 -57t-143 -151.5t-82 -207.5q-18 -80 -18 -142zM901 650q0 106 -46 169l-543 -688q56 -39 145 -39q113 0 200.5 57t143.5 151.5t82 207.5q18 80 18 142z" />
    <glyph glyph-name="ugrave" unicode="&#xf9;" horiz-adv-x="1110" 
d="M179.5 53q-65.5 76 -65.5 205q0 69 19 154l135 587h125l-139 -610q-18 -79 -18 -135q0 -79 35 -126.5t116 -47.5q86 0 173 50t151 130.5t84 165.5l131 573h123l-230 -999h-123l43 176q-29 -46 -83 -92t-125.5 -76.5t-147.5 -30.5q-138 0 -203.5 76zM633 1126l-180 287
h172l149 -287h-141z" />
    <glyph glyph-name="uacute" unicode="&#xfa;" horiz-adv-x="1110" 
d="M179.5 53q-65.5 76 -65.5 205q0 69 19 154l135 587h125l-139 -610q-18 -79 -18 -135q0 -79 35 -126.5t116 -47.5q86 0 173 50t151 130.5t84 165.5l131 573h123l-230 -999h-123l43 176q-29 -46 -83 -92t-125.5 -76.5t-147.5 -30.5q-138 0 -203.5 76zM610 1124l283 289h180
l-336 -289h-127z" />
    <glyph glyph-name="ucircumflex" unicode="&#xfb;" horiz-adv-x="1110" 
d="M179.5 53q-65.5 76 -65.5 205q0 69 19 154l135 587h125l-139 -610q-18 -79 -18 -135q0 -79 35 -126.5t116 -47.5q86 0 173 50t151 130.5t84 165.5l131 573h123l-230 -999h-123l43 176q-29 -46 -83 -92t-125.5 -76.5t-147.5 -30.5q-138 0 -203.5 76zM363 1098l413 356
l250 -356h-149l-129 196l-226 -196h-159z" />
    <glyph glyph-name="udieresis" unicode="&#xfc;" horiz-adv-x="1110" 
d="M179.5 53q-65.5 76 -65.5 205q0 69 19 154l135 587h125l-139 -610q-18 -79 -18 -135q0 -79 35 -126.5t116 -47.5q86 0 173 50t151 130.5t84 165.5l131 573h123l-230 -999h-123l43 176q-29 -46 -83 -92t-125.5 -76.5t-147.5 -30.5q-138 0 -203.5 76zM480 1229l43 184h160
l-43 -184h-160zM812 1229l43 184h159l-43 -184h-159z" />
    <glyph glyph-name="yacute" unicode="&#xfd;" horiz-adv-x="973" 
d="M49 -430l270 430l-151 999h137l105 -847l489 847h139l-856 -1429h-133zM532 1124l283 289h180l-336 -289h-127z" />
    <glyph glyph-name="thorn" unicode="&#xfe;" horiz-adv-x="1143" 
d="M399 1413h123l-135 -575q67 87 161.5 134.5t205.5 47.5q143 0 217.5 -95t74.5 -253q0 -89 -22 -183q-33 -143 -103.5 -258.5t-169.5 -183t-214 -67.5q-119 0 -194 52t-103 142l-146 -612h-123zM686 140.5q84 58.5 140 155.5t83 214q19 86 19 155q0 116 -52.5 184.5
t-164.5 68.5q-104 0 -189 -59t-143 -156.5t-84 -213.5q-19 -84 -19 -152q0 -117 54.5 -186t167.5 -69q104 0 188 58.5z" />
    <glyph glyph-name="ydieresis" unicode="&#xff;" horiz-adv-x="973" 
d="M49 -430l270 430l-151 999h137l105 -847l489 847h139l-856 -1429h-133zM402 1229l43 184h160l-43 -184h-160zM734 1229l43 184h159l-43 -184h-159z" />
    <glyph glyph-name="Amacron" unicode="&#x100;" horiz-adv-x="1296" 
d="M-41 0l848 1413h104l193 -1413h-141l-37 307h-639l-178 -307h-150zM360 434h549l-90 780zM639 1606l28 121h537l-29 -121h-536z" />
    <glyph glyph-name="amacron" unicode="&#x101;" 
d="M1061 999l-230 -999h-124l29 135q-69 -74 -152.5 -114.5t-190.5 -40.5q-98 0 -166.5 45t-102.5 125.5t-34 185.5q0 85 21 176q33 143 105 258.5t174 182.5t220 67q214 0 289 -170l37 149h125zM852 661q0 111 -51.5 176.5t-161.5 65.5q-103 0 -185.5 -57t-137 -151
t-80.5 -208q-19 -76 -19 -148q0 -112 52 -178.5t161 -66.5q105 0 187 57t136.5 151.5t80.5 209.5q18 78 18 149zM469 1192l28 121h537l-29 -121h-536z" />
    <glyph glyph-name="Abreve" unicode="&#x102;" horiz-adv-x="1296" 
d="M-41 0l848 1413h104l193 -1413h-141l-37 307h-639l-178 -307h-150zM360 434h549l-90 780zM770 1581.5q-59 24.5 -92 71t-33 109.5q0 34 8 65h123q-5 -23 -5 -41q0 -57 38 -90t98 -33q50 0 98.5 22t83 59.5t45.5 82.5h123q-19 -87 -70.5 -148t-125 -91.5t-156.5 -30.5
q-76 0 -135 24.5z" />
    <glyph glyph-name="abreve" unicode="&#x103;" 
d="M1061 999l-230 -999h-124l29 135q-69 -74 -152.5 -114.5t-190.5 -40.5q-98 0 -166.5 45t-102.5 125.5t-34 185.5q0 85 21 176q33 143 105 258.5t174 182.5t220 67q214 0 289 -170l37 149h125zM852 661q0 111 -51.5 176.5t-161.5 65.5q-103 0 -185.5 -57t-137 -151
t-80.5 -208q-19 -76 -19 -148q0 -112 52 -178.5t161 -66.5q105 0 187 57t136.5 151.5t80.5 209.5q18 78 18 149zM600 1167.5q-59 24.5 -92 71t-33 109.5q0 34 8 65h123q-5 -23 -5 -41q0 -57 38 -90t98 -33q50 0 98.5 22t83 59.5t45.5 82.5h123q-19 -87 -70.5 -148
t-125 -91.5t-156.5 -30.5q-76 0 -135 24.5z" />
    <glyph glyph-name="Aogonek" unicode="&#x104;" horiz-adv-x="1296" 
d="M1100 0q-1 0 -59 -22.5t-133 -87t-91 -136.5q-4 -16 -4 -32q0 -32 16 -50t43 -18q87 0 150 70l78 -68q-48 -53 -99.5 -80t-119.5 -27q-76 0 -122 43.5t-46 118.5q0 26 6 56q23 93 101 150t166 83h-23l-37 307h-639l-178 -307h-150l848 1413h104l193 -1413h-4zM360 434
h549l-90 780z" />
    <glyph glyph-name="aogonek" unicode="&#x105;" horiz-adv-x="1026" 
d="M831 0h-79q-1 0 -59 -22.5t-133 -87t-91 -136.5q-4 -16 -4 -32q0 -32 16 -50t43 -18q87 0 150 70l78 -68q-48 -53 -99.5 -80t-119.5 -27q-76 0 -122 43.5t-46 118.5q0 26 6 56q23 95 104 152t170 83l62 -1l29 134q-69 -74 -152.5 -114.5t-190.5 -40.5q-98 0 -166.5 45
t-102.5 125.5t-34 185.5q0 85 21 176q33 143 105 258.5t174 182.5t220 67q214 0 289 -170l37 149h125zM617 151q82 57 136.5 151.5t80.5 209.5q18 78 18 149q0 111 -51.5 176.5t-161.5 65.5q-103 0 -185.5 -57t-137 -151t-80.5 -208q-19 -76 -19 -148q0 -112 52 -178.5
t161 -66.5q105 0 187 57z" />
    <glyph glyph-name="Cacute" unicode="&#x106;" horiz-adv-x="1430" 
d="M378.5 43.5q-110.5 63.5 -163 175t-52.5 259.5q0 115 30 241q47 202 150.5 364t262 257.5t361.5 95.5q135 0 240.5 -41.5t170 -125.5t76.5 -208l-127 -39q-27 291 -369 291q-167 0 -298 -83t-215.5 -221t-122.5 -304q-27 -119 -27 -215q0 -178 89 -283t278 -105
q160 0 292.5 75.5t227.5 234.5l112 -68q-118 -177 -283.5 -270.5t-355.5 -93.5q-166 0 -276.5 63.5zM872 1538l283 289h180l-336 -289h-127z" />
    <glyph glyph-name="cacute" unicode="&#x107;" horiz-adv-x="975" 
d="M233.5 27.5q-74.5 47.5 -110.5 130t-36 189.5q0 81 19 163q32 136 105 251.5t181.5 185t240.5 69.5t216.5 -70t111.5 -190l-125 -41q-1 93 -57.5 145.5t-147.5 52.5q-105 0 -187.5 -63.5t-136.5 -161t-78 -203.5q-18 -82 -18 -153q0 -112 48 -181t157 -69q99 0 187 58.5
t132 152.5l96 -62q-72 -121 -179 -186t-234 -65q-110 0 -184.5 47.5zM577 1124l283 289h180l-336 -289h-127z" />
    <glyph glyph-name="Cdotaccent" unicode="&#x10a;" horiz-adv-x="1430" 
d="M378.5 43.5q-110.5 63.5 -163 175t-52.5 259.5q0 115 30 241q47 202 150.5 364t262 257.5t361.5 95.5q135 0 240.5 -41.5t170 -125.5t76.5 -208l-127 -39q-27 291 -369 291q-167 0 -298 -83t-215.5 -221t-122.5 -304q-27 -119 -27 -215q0 -178 89 -283t278 -105
q160 0 292.5 75.5t227.5 234.5l112 -68q-118 -177 -283.5 -270.5t-355.5 -93.5q-166 0 -276.5 63.5zM911 1643l43 184h152l-43 -184h-152z" />
    <glyph glyph-name="cdotaccent" unicode="&#x10b;" horiz-adv-x="975" 
d="M233.5 27.5q-74.5 47.5 -110.5 130t-36 189.5q0 81 19 163q32 136 105 251.5t181.5 185t240.5 69.5t216.5 -70t111.5 -190l-125 -41q-1 93 -57.5 145.5t-147.5 52.5q-105 0 -187.5 -63.5t-136.5 -161t-78 -203.5q-18 -82 -18 -153q0 -112 48 -181t157 -69q99 0 187 58.5
t132 152.5l96 -62q-72 -121 -179 -186t-234 -65q-110 0 -184.5 47.5zM616 1229l43 184h152l-43 -184h-152z" />
    <glyph glyph-name="Ccaron" unicode="&#x10c;" horiz-adv-x="1430" 
d="M378.5 43.5q-110.5 63.5 -163 175t-52.5 259.5q0 115 30 241q47 202 150.5 364t262 257.5t361.5 95.5q135 0 240.5 -41.5t170 -125.5t76.5 -208l-127 -39q-27 291 -369 291q-167 0 -298 -83t-215.5 -221t-122.5 -304q-27 -119 -27 -215q0 -178 89 -283t278 -105
q160 0 292.5 75.5t227.5 234.5l112 -68q-118 -177 -283.5 -270.5t-355.5 -93.5q-166 0 -276.5 63.5zM958 1495l-256 332h152l129 -192l225 192h158z" />
    <glyph glyph-name="ccaron" unicode="&#x10d;" horiz-adv-x="975" 
d="M233.5 27.5q-74.5 47.5 -110.5 130t-36 189.5q0 81 19 163q32 136 105 251.5t181.5 185t240.5 69.5t216.5 -70t111.5 -190l-125 -41q-1 93 -57.5 145.5t-147.5 52.5q-105 0 -187.5 -63.5t-136.5 -161t-78 -203.5q-18 -82 -18 -153q0 -112 48 -181t157 -69q99 0 187 58.5
t132 152.5l96 -62q-72 -121 -179 -186t-234 -65q-110 0 -184.5 47.5zM663 1081l-256 332h152l129 -192l225 192h158z" />
    <glyph glyph-name="Dcaron" unicode="&#x10e;" horiz-adv-x="1413" 
d="M434 1413h342q279 0 426.5 -127.5t147.5 -369.5q0 -104 -29 -232q-51 -219 -168.5 -372t-293.5 -232.5t-400 -79.5h-350zM453 123q171 0 323 66.5t262.5 200.5t155.5 329q23 103 23 186q0 190 -116 289.5t-345 99.5h-213l-271 -1171h181zM958 1495l-256 332h152l129 -192
l225 192h158z" />
    <glyph glyph-name="dcaron" unicode="&#x10f;" horiz-adv-x="1231" 
d="M226.5 25q-68.5 45 -102.5 125.5t-34 185.5q0 85 21 176q33 143 105 258.5t174 182.5t220 67q214 0 289 -170l133 563h125l-326 -1413h-124l34 141q-72 -77 -155 -119t-193 -42q-98 0 -166.5 45zM1178 1032l188 381h205l-291 -381h-102zM617 151q82 57 136.5 151.5
t80.5 209.5q18 78 18 149q0 111 -51.5 176.5t-161.5 65.5q-103 0 -185.5 -57t-137 -151t-80.5 -208q-19 -76 -19 -148q0 -112 52 -178.5t161 -66.5q105 0 187 57z" />
    <glyph glyph-name="Dcroat" unicode="&#x110;" horiz-adv-x="1430" 
d="M276 664h-112l24 98h113l150 651h350q276 0 421 -126.5t145 -366.5q0 -107 -30 -236q-51 -219 -167 -372t-290 -232.5t-397 -79.5h-358zM477 129q170 0 317 64t254 196.5t152 329.5q24 105 24 192q0 185 -111.5 280t-334.5 95h-213l-121 -524h381l-24 -98h-381l-123 -535
h180z" />
    <glyph glyph-name="dcroat" unicode="&#x111;" 
d="M1302 1163h-203l-268 -1163h-124l29 135q-69 -74 -152.5 -114.5t-190.5 -40.5q-98 0 -166.5 45t-102.5 125.5t-34 185.5q0 85 21 176q33 143 105 258.5t174 182.5t220 67q214 0 289 -170l74 313h-306l25 105h306l34 145h125l-33 -145h203zM852 661q0 111 -51.5 176.5
t-161.5 65.5q-103 0 -185.5 -57t-137 -151t-80.5 -208q-19 -76 -19 -148q0 -112 52 -178.5t161 -66.5q105 0 187 57t136.5 151.5t80.5 209.5q18 78 18 149z" />
    <glyph glyph-name="Emacron" unicode="&#x112;" horiz-adv-x="1245" 
d="M109 0l325 1413h909l-26 -113h-774l-123 -538h661l-26 -109h-662l-123 -532h774l-26 -121h-909zM672 1606l28 121h537l-29 -121h-536z" />
    <glyph glyph-name="emacron" unicode="&#x113;" horiz-adv-x="1030" 
d="M170.5 84.5q-87.5 96.5 -87.5 259.5q0 79 19 162q31 136 104 251.5t181.5 185t239.5 69.5q172 0 249.5 -90.5t77.5 -245.5q0 -89 -26 -203q0 2 -2.5 -6.5t-5.5 -15.5h-699q-17 -65 -17 -122q0 -105 57 -169t169 -64q99 0 175.5 25t146.5 86l79 -74q-98 -78 -191.5 -111.5
t-209.5 -33.5q-172 0 -259.5 96.5zM831 559q18 69 18 126q0 101 -56.5 156.5t-169.5 55.5q-95 0 -172.5 -46t-129.5 -122.5t-75 -169.5h585zM402 1192l28 121h537l-29 -121h-536z" />
    <glyph glyph-name="Edotaccent" unicode="&#x116;" horiz-adv-x="1245" 
d="M109 0l325 1413h909l-26 -113h-774l-123 -538h661l-26 -109h-662l-123 -532h774l-26 -121h-909zM868 1643l43 184h152l-43 -184h-152z" />
    <glyph glyph-name="edotaccent" unicode="&#x117;" horiz-adv-x="1030" 
d="M170.5 84.5q-87.5 96.5 -87.5 259.5q0 79 19 162q31 136 104 251.5t181.5 185t239.5 69.5q172 0 249.5 -90.5t77.5 -245.5q0 -89 -26 -203q0 2 -2.5 -6.5t-5.5 -15.5h-699q-17 -65 -17 -122q0 -105 57 -169t169 -64q99 0 175.5 25t146.5 86l79 -74q-98 -78 -191.5 -111.5
t-209.5 -33.5q-172 0 -259.5 96.5zM831 559q18 69 18 126q0 101 -56.5 156.5t-169.5 55.5q-95 0 -172.5 -46t-129.5 -122.5t-75 -169.5h585zM598 1229l43 184h152l-43 -184h-152z" />
    <glyph glyph-name="Eogonek" unicode="&#x118;" horiz-adv-x="1245" 
d="M543 1300l-123 -538h661l-26 -109h-662l-123 -532h774l-26 -121h-6q-1 0 -59 -22.5t-133 -87t-91 -136.5q-4 -16 -4 -32q0 -32 16 -50t43 -18q87 0 150 70l78 -68q-48 -53 -99.5 -80t-119.5 -27q-76 0 -122 43.5t-46 118.5q0 26 6 56q23 93 101 150t166 83h-789l325 1413
h909l-26 -113h-774z" />
    <glyph glyph-name="eogonek" unicode="&#x119;" horiz-adv-x="1030" 
d="M876.5 921.5q77.5 -90.5 77.5 -245.5q0 -89 -26 -203q0 2 -2.5 -6.5t-5.5 -15.5h-699q-17 -65 -17 -122q0 -105 57 -169t169 -64q99 0 175.5 25t146.5 86l79 -74q-65 -52 -126.5 -83.5t-128.5 -46.5q-69 -37 -122.5 -88.5t-68.5 -115.5q-4 -16 -4 -32q0 -32 16 -50
t43 -18q87 0 150 70l78 -68q-48 -53 -99.5 -80t-119.5 -27q-76 0 -122 43.5t-46 118.5q0 26 6 56q26 107 139 176q-170 1 -256.5 97.5t-86.5 258.5q0 79 19 162q31 136 104 251.5t181.5 185t239.5 69.5q172 0 249.5 -90.5zM849 685q0 101 -56.5 156.5t-169.5 55.5
q-95 0 -172.5 -46t-129.5 -122.5t-75 -169.5h585q18 69 18 126z" />
    <glyph glyph-name="Ecaron" unicode="&#x11a;" horiz-adv-x="1245" 
d="M109 0l325 1413h909l-26 -113h-774l-123 -538h661l-26 -109h-662l-123 -532h774l-26 -121h-909zM915 1495l-256 332h152l129 -192l225 192h158z" />
    <glyph glyph-name="ecaron" unicode="&#x11b;" horiz-adv-x="1030" 
d="M170.5 84.5q-87.5 96.5 -87.5 259.5q0 79 19 162q31 136 104 251.5t181.5 185t239.5 69.5q172 0 249.5 -90.5t77.5 -245.5q0 -89 -26 -203q0 2 -2.5 -6.5t-5.5 -15.5h-699q-17 -65 -17 -122q0 -105 57 -169t169 -64q99 0 175.5 25t146.5 86l79 -74q-98 -78 -191.5 -111.5
t-209.5 -33.5q-172 0 -259.5 96.5zM831 559q18 69 18 126q0 101 -56.5 156.5t-169.5 55.5q-95 0 -172.5 -46t-129.5 -122.5t-75 -169.5h585zM645 1081l-256 332h152l129 -192l225 192h158z" />
    <glyph glyph-name="Gbreve" unicode="&#x11e;" horiz-adv-x="1503" 
d="M372 43.5q-110 63.5 -163 176t-53 260.5q0 108 30 239q46 201 151.5 363.5t265 258t358.5 95.5t323 -97t164 -278l-131 -43q-36 141 -128 214t-239 73q-168 0 -298 -81.5t-214 -217t-123 -301.5q-26 -113 -26 -211q0 -177 89 -281t277 -104q130 0 251 58.5t210 170.5
t125 266l-326 -6l25 104h449l-162 -702h-115l68 266q-46 -76 -125 -141.5t-183.5 -105t-222.5 -39.5q-167 0 -277 63.5zM881 1581.5q-59 24.5 -92 71t-33 109.5q0 34 8 65h123q-5 -23 -5 -41q0 -57 38 -90t98 -33q50 0 98.5 22t83 59.5t45.5 82.5h123q-19 -87 -70.5 -148
t-125 -91.5t-156.5 -30.5q-76 0 -135 24.5z" />
    <glyph glyph-name="gbreve" unicode="&#x11f;" horiz-adv-x="1126" 
d="M654.5 -319.5q-128.5 -112.5 -322.5 -112.5q-125 0 -215 51t-129 148l108 61q58 -152 238 -152q94 0 171 43t128.5 118t73.5 169l34 135q-67 -74 -152 -117.5t-188 -43.5q-153 0 -232.5 96.5t-79.5 257.5q0 79 22 178q33 144 104.5 259.5t175 182t227.5 66.5
q105 0 176 -46.5t105 -125.5l37 151h127l-234 -1005q-46 -201 -174.5 -313.5zM616 146.5q82 58.5 137 155t81 210.5q19 82 19 152q0 112 -50.5 178.5t-159.5 66.5q-104 0 -187.5 -58t-138.5 -153.5t-81 -210.5q-20 -80 -20 -151q0 -112 52.5 -180t161.5 -68q104 0 186 58.5z
M569 1167.5q-59 24.5 -92 71t-33 109.5q0 34 8 65h123q-5 -23 -5 -41q0 -57 38 -90t98 -33q50 0 98.5 22t83 59.5t45.5 82.5h123q-19 -87 -70.5 -148t-125 -91.5t-156.5 -30.5q-76 0 -135 24.5z" />
    <glyph glyph-name="Gdotaccent" unicode="&#x120;" horiz-adv-x="1503" 
d="M372 43.5q-110 63.5 -163 176t-53 260.5q0 108 30 239q46 201 151.5 363.5t265 258t358.5 95.5t323 -97t164 -278l-131 -43q-36 141 -128 214t-239 73q-168 0 -298 -81.5t-214 -217t-123 -301.5q-26 -113 -26 -211q0 -177 89 -281t277 -104q130 0 251 58.5t210 170.5
t125 266l-326 -6l25 104h449l-162 -702h-115l68 266q-46 -76 -125 -141.5t-183.5 -105t-222.5 -39.5q-167 0 -277 63.5zM946 1643l43 184h152l-43 -184h-152z" />
    <glyph glyph-name="gdotaccent" unicode="&#x121;" horiz-adv-x="1126" 
d="M654.5 -319.5q-128.5 -112.5 -322.5 -112.5q-125 0 -215 51t-129 148l108 61q58 -152 238 -152q94 0 171 43t128.5 118t73.5 169l34 135q-67 -74 -152 -117.5t-188 -43.5q-153 0 -232.5 96.5t-79.5 257.5q0 79 22 178q33 144 104.5 259.5t175 182t227.5 66.5
q105 0 176 -46.5t105 -125.5l37 151h127l-234 -1005q-46 -201 -174.5 -313.5zM616 146.5q82 58.5 137 155t81 210.5q19 82 19 152q0 112 -50.5 178.5t-159.5 66.5q-104 0 -187.5 -58t-138.5 -153.5t-81 -210.5q-20 -80 -20 -151q0 -112 52.5 -180t161.5 -68q104 0 186 58.5z
M634 1229l43 184h152l-43 -184h-152z" />
    <glyph glyph-name="Gcommaaccent" unicode="&#x122;" horiz-adv-x="1503" 
d="M372 43.5q-110 63.5 -163 176t-53 260.5q0 108 30 239q46 201 151.5 363.5t265 258t358.5 95.5t323 -97t164 -278l-131 -43q-36 141 -128 214t-239 73q-168 0 -298 -81.5t-214 -217t-123 -301.5q-26 -113 -26 -211q0 -177 89 -281t277 -104q130 0 251 58.5t210 170.5
t125 266l-326 -6l25 104h449l-162 -702h-115l68 266q-46 -76 -125 -141.5t-183.5 -105t-222.5 -39.5q-167 0 -277 63.5zM345 -442l196 329h205l-299 -329h-102z" />
    <glyph glyph-name="gcommaaccent" unicode="&#x123;" horiz-adv-x="989" 
d="M927 1419l-196 -294h-205l299 294h102zM654.5 -319.5q-128.5 -112.5 -322.5 -112.5q-125 0 -215 51t-129 148l108 61q58 -152 238 -152q94 0 171 43t128.5 118t73.5 169l34 135q-67 -74 -152 -117.5t-188 -43.5q-153 0 -232.5 96.5t-79.5 257.5q0 79 22 178
q33 144 104.5 259.5t175 182t227.5 66.5q105 0 176 -46.5t105 -125.5l37 151h127l-234 -1005q-46 -201 -174.5 -313.5zM616 146.5q82 58.5 137 155t81 210.5q19 82 19 152q0 112 -50.5 178.5t-159.5 66.5q-104 0 -187.5 -58t-138.5 -153.5t-81 -210.5q-20 -80 -20 -151
q0 -112 52.5 -180t161.5 -68q104 0 186 58.5z" />
    <glyph glyph-name="Hbar" unicode="&#x126;" horiz-adv-x="1454" 
d="M1495 1153l-17 -76h-114l-248 -1077h-135l149 653h-737l-149 -653h-135l248 1077h-120l17 76h120l60 260h135l-60 -260h738l60 260h135l-60 -260h113zM1157 762l73 315h-738l-72 -315h737z" />
    <glyph glyph-name="hbar" unicode="&#x127;" horiz-adv-x="1118" 
d="M941 942q64 -74 64 -196q0 -65 -16 -132l-141 -614h-127l139 604q16 75 16 126q0 167 -157 167q-90 0 -176 -49.5t-148.5 -131.5t-83.5 -175l-125 -541h-123l261 1132h-191l25 105h190l41 176h123l-41 -176h322l-25 -105h-322l-71 -303q66 85 167 136t201 51
q134 0 198 -74z" />
    <glyph glyph-name="Itilde" unicode="&#x128;" horiz-adv-x="582" 
d="M109 0l325 1413h135l-325 -1413h-135zM605 1584.5q-26 13.5 -42.5 32.5t-36.5 50q-21 33 -37 48.5t-40 15.5q-40 0 -69.5 -40.5t-43.5 -96.5h-88q26 112 77.5 176.5t123.5 64.5q41 0 69.5 -14.5t45.5 -35t36 -52.5t33.5 -47t36.5 -15q42 0 73 43.5t50 114.5h92
q-58 -258 -219 -258q-35 0 -61 13.5z" />
    <glyph glyph-name="itilde" unicode="&#x129;" horiz-adv-x="502" 
d="M72 0l229 999h129l-229 -999h-129zM472 1170.5q-26 13.5 -42.5 32.5t-36.5 50q-21 33 -37 48.5t-40 15.5q-40 0 -69.5 -40.5t-43.5 -96.5h-88q26 112 77.5 176.5t123.5 64.5q41 0 69.5 -14.5t45.5 -35t36 -52.5t33.5 -47t36.5 -15q42 0 73 43.5t50 114.5h92
q-58 -258 -219 -258q-35 0 -61 13.5z" />
    <glyph glyph-name="Imacron" unicode="&#x12a;" horiz-adv-x="582" 
d="M109 0l325 1413h135l-325 -1413h-135zM279 1606l28 121h537l-29 -121h-536z" />
    <glyph glyph-name="imacron" unicode="&#x12b;" horiz-adv-x="502" 
d="M72 0l229 999h129l-229 -999h-129zM146 1192l28 121h537l-29 -121h-536z" />
    <glyph glyph-name="Iogonek" unicode="&#x12e;" horiz-adv-x="582" 
d="M244 0h-6q-1 0 -59 -22.5t-133 -87t-91 -136.5q-4 -16 -4 -32q0 -32 16 -50t43 -18q87 0 150 70l78 -68q-48 -53 -99.5 -80t-119.5 -27q-76 0 -122 43.5t-46 118.5q0 26 6 56q23 93 101 150t166 83h-15l325 1413h135z" />
    <glyph glyph-name="iogonek" unicode="&#x12f;" horiz-adv-x="502" 
d="M385 1413h152l-43 -184h-152zM301 999h129l-229 -999h-6q-1 0 -59 -22.5t-133 -87t-91 -136.5q-4 -16 -4 -32q0 -32 16 -50t43 -18q87 0 150 70l78 -68q-48 -53 -99.5 -80t-119.5 -27q-76 0 -122 43.5t-46 118.5q0 26 6 56q23 93 101 150t166 83h-9z" />
    <glyph glyph-name="Idotaccent" unicode="&#x130;" horiz-adv-x="582" 
d="M109 0l325 1413h135l-325 -1413h-135zM475 1643l43 184h152l-43 -184h-152z" />
    <glyph glyph-name="dotlessi" unicode="&#x131;" horiz-adv-x="502" 
d="M72 0l229 999h129l-229 -999h-129z" />
    <glyph glyph-name="IJ" unicode="&#x132;" horiz-adv-x="1706" 
d="M109 0l325 1413h135l-325 -1413h-135zM789.5 23q-75.5 43 -113 117.5t-37.5 170.5q0 40 6 80l132 6q-7 -45 -7 -76q0 -100 50.5 -162.5t158.5 -62.5q169 0 257.5 105.5t129.5 283.5l189 815h-533l27 113h668l-213 -919q-56 -249 -184.5 -381.5t-344.5 -132.5
q-110 0 -185.5 43z" />
    <glyph glyph-name="Kcommaaccent" unicode="&#x136;" horiz-adv-x="1452" 
d="M109 0l325 1413h135l-198 -852l1001 852h174l-655 -551l364 -862h-147l-313 780l-459 -385l-92 -395h-135zM261 -442l196 329h205l-299 -329h-102z" />
    <glyph glyph-name="kcommaaccent" unicode="&#x137;" horiz-adv-x="1036" 
d="M63 0l326 1413h127l-229 -983l594 569h157l-399 -362l238 -637h-146l-182 547l-289 -254l-70 -293h-127zM156 -442l196 329h205l-299 -329h-102z" />
    <glyph glyph-name="kgreenlandic" unicode="&#x138;" horiz-adv-x="1032" 
d="M61 0l230 999h125l-129 -550l590 550h157l-399 -362l237 -637h-147l-180 543l-291 -254l-68 -289h-125z" />
    <glyph glyph-name="Lacute" unicode="&#x139;" horiz-adv-x="1038" 
d="M109 0l325 1413h135l-299 -1292h604l-26 -121h-739zM462 1538l283 289h180l-336 -289h-127z" />
    <glyph glyph-name="lacute" unicode="&#x13a;" horiz-adv-x="512" 
d="M117 8q-29 28 -29 78q0 25 5 51t16 72l278 1204h127l-293 -1266q-3 -15 -3 -25q0 -40 42 -40q22 0 53 8t37 10l-12 -102q-22 -8 -56 -13t-65 -5q-71 0 -100 28zM378 1538l283 289h180l-336 -289h-127z" />
    <glyph glyph-name="Lcommaaccent" unicode="&#x13b;" horiz-adv-x="1038" 
d="M109 0l325 1413h135l-299 -1292h604l-26 -121h-739zM97 -442l196 329h205l-299 -329h-102z" />
    <glyph glyph-name="lcommaaccent" unicode="&#x13c;" horiz-adv-x="512" 
d="M117 8q-29 28 -29 78q0 25 5 51t16 72l278 1204h127l-293 -1266q-3 -15 -3 -25q0 -40 42 -40q22 0 53 8t37 10l-12 -102q-22 -8 -56 -13t-65 -5q-71 0 -100 28zM-83 -442l196 329h205l-299 -329h-102z" />
    <glyph glyph-name="Lcaron" unicode="&#x13d;" horiz-adv-x="1030" 
d="M104 0l326 1413h135l-299 -1292h604l-26 -121h-740zM705 1032l188 381h205l-291 -381h-102z" />
    <glyph glyph-name="lcaron" unicode="&#x13e;" horiz-adv-x="598" 
d="M113 8q-29 28 -29 78q0 22 4 46.5t9 47t7 29.5l279 1204h127l-293 -1266q2 8 0 3.5t-4.5 -14t-2.5 -19.5q0 -29 23 -29q53 0 113 12l-12 -102q-22 -8 -56 -13t-65 -5q-71 0 -100 28zM545 1032l188 381h205l-291 -381h-102z" />
    <glyph glyph-name="Lslash" unicode="&#x141;" horiz-adv-x="1057" 
d="M295 121h604l-26 -121h-739l112 487l-226 -145l37 137l221 147l181 787h135l-158 -681l424 282l-43 -162l-414 -265z" />
    <glyph glyph-name="lslash" unicode="&#x142;" horiz-adv-x="512" 
d="M221 147q-3 -15 -3 -25q0 -40 42 -40q22 0 53 8t37 10l-12 -102q-22 -8 -56 -13t-65 -5q-71 0 -100 28t-29 78q0 25 5 51t16 72l63 271l-188 -193l55 178l169 174l179 774h127l-139 -602l199 205l-55 -179l-181 -187z" />
    <glyph glyph-name="Nacute" unicode="&#x143;" horiz-adv-x="1417" 
d="M109 0l325 1413h213l324 -1288l299 1288h135l-326 -1413h-217l-317 1290l-299 -1290h-137zM854 1538l283 289h180l-336 -289h-127z" />
    <glyph glyph-name="nacute" unicode="&#x144;" horiz-adv-x="1114" 
d="M291 999h125l-39 -161q64 80 159.5 129t192.5 49q139 0 205 -73.5t66 -198.5q0 -65 -17 -142l-139 -602h-125l139 604q16 73 16 122q0 169 -163 169q-85 0 -169 -46t-145 -121.5t-80 -160.5l-131 -567h-125zM593 1124l283 289h180l-336 -289h-127z" />
    <glyph glyph-name="Ncommaaccent" unicode="&#x145;" horiz-adv-x="1417" 
d="M109 0l325 1413h213l324 -1288l299 1288h135l-326 -1413h-217l-317 1290l-299 -1290h-137zM265 -442l196 329h205l-299 -329h-102z" />
    <glyph glyph-name="ncommaaccent" unicode="&#x146;" horiz-adv-x="1114" 
d="M291 999h125l-39 -161q64 80 159.5 129t192.5 49q139 0 205 -73.5t66 -198.5q0 -65 -17 -142l-139 -602h-125l139 604q16 73 16 122q0 169 -163 169q-85 0 -169 -46t-145 -121.5t-80 -160.5l-131 -567h-125zM101 -442l196 329h205l-299 -329h-102z" />
    <glyph glyph-name="Ncaron" unicode="&#x147;" horiz-adv-x="1417" 
d="M109 0l325 1413h213l324 -1288l299 1288h135l-326 -1413h-217l-317 1290l-299 -1290h-137zM940 1495l-256 332h152l129 -192l225 192h158z" />
    <glyph glyph-name="ncaron" unicode="&#x148;" horiz-adv-x="1114" 
d="M291 999h125l-39 -161q64 80 159.5 129t192.5 49q139 0 205 -73.5t66 -198.5q0 -65 -17 -142l-139 -602h-125l139 604q16 73 16 122q0 169 -163 169q-85 0 -169 -46t-145 -121.5t-80 -160.5l-131 -567h-125zM679 1081l-256 332h152l129 -192l225 192h158z" />
    <glyph glyph-name="Eng" unicode="&#x14a;" horiz-adv-x="1411" 
d="M670 -258q67 0 118.5 22t79.5 59t28 80q0 13 -3 27l-352 1356l-299 -1286h-138l326 1413h213l324 -1286l299 1286h135l-328 -1419q-19 -88 -44 -157.5t-99.5 -137.5t-204.5 -68h-76z" />
    <glyph glyph-name="eng" unicode="&#x14b;" horiz-adv-x="1116" 
d="M455 -258h45q98 0 142.5 62t57.5 130l156 670q16 75 16 124q0 161 -155 161q-86 0 -170.5 -44.5t-145 -118.5t-79.5 -159l-132 -567h-129l230 999h129l-39 -159q64 79 159 127.5t191 48.5q140 0 205.5 -74.5t65.5 -199.5q0 -66 -17 -140l-162 -696q-16 -71 -45.5 -130
t-95 -102t-172.5 -43h-82z" />
    <glyph glyph-name="Omacron" unicode="&#x14c;" horiz-adv-x="1524" 
d="M376.5 44.5q-109.5 64.5 -162 178.5t-52.5 263q0 114 28 233q46 199 151.5 361.5t265 258t358.5 95.5q166 0 276.5 -64.5t163.5 -178.5t53 -264q0 -114 -28 -233q-47 -200 -152.5 -361.5t-265.5 -257t-361 -95.5q-165 0 -274.5 64.5zM964 190q134 84 221 223t126 306
q23 103 23 195q0 178 -91.5 285.5t-286.5 107.5q-168 0 -300.5 -84t-219 -223.5t-125.5 -305.5q-24 -107 -24 -196q0 -177 90.5 -284.5t279.5 -107.5q173 0 307 84zM750 1606l28 121h537l-29 -121h-536z" />
    <glyph glyph-name="omacron" unicode="&#x14d;" 
d="M254.5 29.5q-83.5 49.5 -127.5 137.5t-44 200q0 65 17 141q32 139 115.5 254t202 182.5t250.5 67.5q114 0 198 -50.5t128.5 -139t44.5 -200.5q0 -65 -17 -139q-32 -138 -116.5 -253.5t-203.5 -182.5t-249 -67q-115 0 -198.5 49.5zM657.5 149q87.5 57 143.5 151.5
t82 207.5q18 80 18 142q0 114 -56.5 181.5t-180.5 67.5q-112 0 -199 -57t-143 -151.5t-82 -207.5q-18 -80 -18 -141q0 -114 56.5 -182t178.5 -68q113 0 200.5 57zM455 1192l28 121h537l-29 -121h-536z" />
    <glyph glyph-name="Ohungarumlaut" unicode="&#x150;" horiz-adv-x="1524" 
d="M376.5 44.5q-109.5 64.5 -162 178.5t-52.5 263q0 114 28 233q46 199 151.5 361.5t265 258t358.5 95.5q166 0 276.5 -64.5t163.5 -178.5t53 -264q0 -114 -28 -233q-47 -200 -152.5 -361.5t-265.5 -257t-361 -95.5q-165 0 -274.5 64.5zM964 190q134 84 221 223t126 306
q23 103 23 195q0 178 -91.5 285.5t-286.5 107.5q-168 0 -300.5 -84t-219 -223.5t-125.5 -305.5q-24 -107 -24 -196q0 -177 90.5 -284.5t279.5 -107.5q173 0 307 84zM748 1542l281 285h184l-338 -285h-127zM1074 1542l280 285h181l-334 -285h-127z" />
    <glyph glyph-name="ohungarumlaut" unicode="&#x151;" 
d="M254.5 29.5q-83.5 49.5 -127.5 137.5t-44 200q0 65 17 141q32 139 115.5 254t202 182.5t250.5 67.5q114 0 198 -50.5t128.5 -139t44.5 -200.5q0 -65 -17 -139q-32 -138 -116.5 -253.5t-203.5 -182.5t-249 -67q-115 0 -198.5 49.5zM657.5 149q87.5 57 143.5 151.5
t82 207.5q18 80 18 142q0 114 -56.5 181.5t-180.5 67.5q-112 0 -199 -57t-143 -151.5t-82 -207.5q-18 -80 -18 -141q0 -114 56.5 -182t178.5 -68q113 0 200.5 57zM453 1128l281 285h184l-338 -285h-127zM779 1128l280 285h181l-334 -285h-127z" />
    <glyph glyph-name="OE" unicode="&#x152;" horiz-adv-x="2251" 
d="M378.5 44.5q-110.5 64.5 -163.5 178t-53 262.5q0 115 28 234q46 199 151 361t265.5 258t364.5 96q184 0 288.5 -80t131.5 -230l69 289h889l-27 -113h-753l-123 -538h661l-26 -109h-662l-123 -532h754l-27 -121h-888l65 276q-88 -141 -224 -218.5t-319 -77.5
q-168 0 -278.5 64.5zM960 185q132 85 217 225.5t123 308.5q25 111 25 206q0 176 -88 282t-276 106q-171 0 -303 -86t-216.5 -226t-122.5 -307q-25 -111 -25 -206q0 -176 88 -282t277 -106q169 0 301 85z" />
    <glyph glyph-name="oe" unicode="&#x153;" horiz-adv-x="1778" 
d="M253.5 29.5q-83.5 49.5 -127 137t-43.5 199.5q0 66 17 142q32 139 115.5 254t202 182.5t248.5 67.5q131 0 215 -59.5t114 -161.5q72 104 172 162.5t224 58.5q169 0 247.5 -95.5t78.5 -243.5q0 -92 -29 -190q0 1 -3 -9t-6 -23h-696q-17 -68 -17 -127q0 -107 55.5 -171.5
t168.5 -64.5q97 0 170.5 24t144.5 87l74 -70q-93 -81 -182.5 -111t-204.5 -30q-138 0 -214.5 59t-105.5 160q-78 -108 -185.5 -167.5t-235.5 -59.5q-114 0 -197.5 49.5zM1597 559q18 69 18 127q0 103 -56.5 160t-169.5 57q-97 0 -176 -47t-131.5 -125t-75.5 -172h591z
M658 155.5q87 55.5 143 147.5t82 205q17 73 17 137q0 113 -57 180.5t-181 67.5q-111 0 -198 -56t-143.5 -149t-82.5 -205q-16 -74 -16 -134q0 -113 57 -181t180 -68q112 0 199 55.5z" />
    <glyph glyph-name="Racute" unicode="&#x154;" horiz-adv-x="1217" 
d="M434 1411h385q106 0 186.5 -36.5t125.5 -105t45 -161.5q0 -49 -11 -96q-32 -140 -135.5 -235t-249.5 -120l221 -659h-145l-205 641h-260l-149 -641h-136zM698 770q81 4 151.5 36t121 91t69.5 141q8 37 8 65q0 91 -65 140t-178 49h-262l-121 -522h276zM759 1538l283 289
h180l-336 -289h-127z" />
    <glyph glyph-name="racute" unicode="&#x155;" horiz-adv-x="799" 
d="M291 999h131l-41 -176q59 93 147.5 142t176.5 49q45 0 89.5 -12.5t69.5 -32.5l-55 -113q-59 37 -125 37q-90 0 -169 -61.5t-135.5 -159t-80.5 -203.5l-109 -469h-129zM451 1124l283 289h180l-336 -289h-127z" />
    <glyph glyph-name="Rcommaaccent" unicode="&#x156;" horiz-adv-x="1217" 
d="M434 1411h385q106 0 186.5 -36.5t125.5 -105t45 -161.5q0 -49 -11 -96q-32 -140 -135.5 -235t-249.5 -120l221 -659h-145l-205 641h-260l-149 -641h-136zM698 770q81 4 151.5 36t121 91t69.5 141q8 37 8 65q0 91 -65 140t-178 49h-262l-121 -522h276zM251 -442l196 329
h205l-299 -329h-102z" />
    <glyph glyph-name="rcommaaccent" unicode="&#x157;" horiz-adv-x="799" 
d="M291 999h131l-41 -176q59 93 147.5 142t176.5 49q45 0 89.5 -12.5t69.5 -32.5l-55 -113q-59 37 -125 37q-90 0 -169 -61.5t-135.5 -159t-80.5 -203.5l-109 -469h-129zM-202 -442l196 329h205l-299 -329h-102z" />
    <glyph glyph-name="Rcaron" unicode="&#x158;" horiz-adv-x="1217" 
d="M434 1411h385q106 0 186.5 -36.5t125.5 -105t45 -161.5q0 -49 -11 -96q-32 -140 -135.5 -235t-249.5 -120l221 -659h-145l-205 641h-260l-149 -641h-136zM698 770q81 4 151.5 36t121 91t69.5 141q8 37 8 65q0 91 -65 140t-178 49h-262l-121 -522h276zM845 1495l-256 332
h152l129 -192l225 192h158z" />
    <glyph glyph-name="rcaron" unicode="&#x159;" horiz-adv-x="799" 
d="M291 999h131l-41 -176q59 93 147.5 142t176.5 49q45 0 89.5 -12.5t69.5 -32.5l-55 -113q-59 37 -125 37q-90 0 -169 -61.5t-135.5 -159t-80.5 -203.5l-109 -469h-129zM537 1081l-256 332h152l129 -192l225 192h158z" />
    <glyph glyph-name="Sacute" unicode="&#x15a;" horiz-adv-x="1112" 
d="M270 27.5q-95 43.5 -151 128t-56 202.5l130 27q0 -133 73.5 -207t216.5 -74q109 0 191.5 41t127 110.5t44.5 152.5q0 71 -33.5 121t-83 82t-134.5 75q-91 46 -146 82.5t-93.5 97t-38.5 148.5q0 112 61.5 208.5t166 154t227.5 57.5q122 0 209.5 -57.5t124.5 -162.5
l-105 -55q-22 77 -86 118.5t-147 41.5q-81 0 -154.5 -37.5t-119 -102.5t-45.5 -143q0 -65 32 -111.5t79.5 -77t128.5 -69.5q94 -46 151 -84.5t97 -102t40 -157.5q0 -122 -66 -225t-180 -164t-252 -61q-114 0 -209 43.5zM698 1538l283 289h180l-336 -289h-127z" />
    <glyph glyph-name="sacute" unicode="&#x15b;" horiz-adv-x="868" 
d="M197 15q-73 35 -117.5 91t-52.5 119l118 47q4 -52 36.5 -92.5t83.5 -62t110 -21.5q69 0 123.5 29t85 76.5t30.5 101.5q0 51 -26.5 83t-65 48.5t-107.5 37.5q-82 24 -132.5 48t-85.5 72.5t-35 130.5q0 93 45 158.5t120.5 99t166.5 33.5q83 0 147.5 -28t105 -72.5
t58.5 -94.5l-107 -47q-20 61 -74 96t-137 35q-92 0 -151.5 -44.5t-59.5 -133.5q0 -49 26.5 -80t66.5 -48t108 -37q84 -24 136.5 -48.5t89 -74t36.5 -132.5q0 -82 -50.5 -157t-138 -121.5t-190.5 -46.5q-90 0 -163 35zM485 1124l283 289h180l-336 -289h-127z" />
    <glyph glyph-name="Scedilla" unicode="&#x15e;" horiz-adv-x="1112" 
d="M613.5 1281.5q-73.5 -37.5 -119 -102.5t-45.5 -143q0 -65 32 -111.5t79.5 -77t128.5 -69.5q94 -46 151 -84.5t97 -102t40 -157.5q0 -120 -64.5 -222.5t-176.5 -164t-248 -63.5l-89 -105q76 -1 114.5 -40.5t38.5 -100.5q0 -27 -5 -47q-12 -48 -45.5 -92t-84 -71.5
t-110.5 -27.5q-65 0 -108 38t-52 91l99 37q-3 -30 15 -51t52 -21q49 0 88.5 33.5t51.5 79.5q2 14 2 20q0 41 -38 69t-118 28h-41l122 169q-91 17 -163 64t-113 123.5t-41 177.5l130 27q0 -133 73.5 -207t216.5 -74q109 0 191.5 41t127 110.5t44.5 152.5q0 71 -33.5 121
t-83 82t-134.5 75q-91 46 -146 82.5t-93.5 97t-38.5 148.5q0 112 61.5 208.5t166 154t227.5 57.5q122 0 209.5 -57.5t124.5 -162.5l-105 -55q-22 77 -86 118.5t-147 41.5q-81 0 -154.5 -37.5z" />
    <glyph glyph-name="scedilla" unicode="&#x15f;" horiz-adv-x="868" 
d="M302.5 645q26.5 -31 66.5 -48t108 -37q84 -24 136.5 -48.5t89 -74t36.5 -132.5q0 -76 -44.5 -147t-122 -119t-171.5 -57l-88 -103q76 -1 114.5 -40.5t38.5 -100.5q0 -27 -5 -47q-12 -48 -45.5 -92t-84 -71.5t-110.5 -27.5q-65 0 -108 38t-52 91l99 37q-3 -30 15 -51
t52 -21q49 0 88.5 33.5t51.5 79.5q2 14 2 20q0 41 -38 69t-118 28h-41l117 162q-72 13 -129 49t-91.5 86t-41.5 104l118 47q4 -52 36.5 -92.5t83.5 -62t110 -21.5q69 0 123.5 29t85 76.5t30.5 101.5q0 51 -26.5 83t-65 48.5t-107.5 37.5q-82 24 -132.5 48t-85.5 72.5
t-35 130.5q0 93 45 158.5t120.5 99t166.5 33.5q83 0 147.5 -28t105 -72.5t58.5 -94.5l-107 -47q-20 61 -74 96t-137 35q-92 0 -151.5 -44.5t-59.5 -133.5q0 -49 26.5 -80z" />
    <glyph glyph-name="Scaron" unicode="&#x160;" horiz-adv-x="1112" 
d="M270 27.5q-95 43.5 -151 128t-56 202.5l130 27q0 -133 73.5 -207t216.5 -74q109 0 191.5 41t127 110.5t44.5 152.5q0 71 -33.5 121t-83 82t-134.5 75q-91 46 -146 82.5t-93.5 97t-38.5 148.5q0 112 61.5 208.5t166 154t227.5 57.5q122 0 209.5 -57.5t124.5 -162.5
l-105 -55q-22 77 -86 118.5t-147 41.5q-81 0 -154.5 -37.5t-119 -102.5t-45.5 -143q0 -65 32 -111.5t79.5 -77t128.5 -69.5q94 -46 151 -84.5t97 -102t40 -157.5q0 -122 -66 -225t-180 -164t-252 -61q-114 0 -209 43.5zM784 1495l-256 332h152l129 -192l225 192h158z" />
    <glyph glyph-name="scaron" unicode="&#x161;" horiz-adv-x="868" 
d="M197 15q-73 35 -117.5 91t-52.5 119l118 47q4 -52 36.5 -92.5t83.5 -62t110 -21.5q69 0 123.5 29t85 76.5t30.5 101.5q0 51 -26.5 83t-65 48.5t-107.5 37.5q-82 24 -132.5 48t-85.5 72.5t-35 130.5q0 93 45 158.5t120.5 99t166.5 33.5q83 0 147.5 -28t105 -72.5
t58.5 -94.5l-107 -47q-20 61 -74 96t-137 35q-92 0 -151.5 -44.5t-59.5 -133.5q0 -49 26.5 -80t66.5 -48t108 -37q84 -24 136.5 -48.5t89 -74t36.5 -132.5q0 -82 -50.5 -157t-138 -121.5t-190.5 -46.5q-90 0 -163 35zM571 1081l-256 332h152l129 -192l225 192h158z" />
    <glyph glyph-name="uni0162" unicode="&#x162;" horiz-adv-x="1264" 
d="M449 0l301 1307h-486l25 106h1108l-25 -106h-485l-301 -1307h-137zM285 -462q-43 38 -52 91l99 37q-3 -30 15 -51t52 -21q49 0 88.5 33.5t51.5 79.5q2 14 2 20q0 41 -38 69t-118 28h-41l127 176h117l-103 -121q76 -1 114.5 -40.5t38.5 -100.5q0 -27 -5 -47
q-12 -48 -45.5 -92t-84 -71.5t-110.5 -27.5q-65 0 -108 38z" />
    <glyph glyph-name="uni0163" unicode="&#x163;" horiz-adv-x="653" 
d="M274 244q-8 -32 -8 -64q0 -50 24 -75t66 -25q43 0 103 24l-15 -108q-22 -9 -74 -14l-88 -103q76 -1 114.5 -40.5t38.5 -100.5q0 -27 -5 -47q-12 -48 -45.5 -92t-84 -71.5t-110.5 -27.5q-65 0 -108 38t-52 91l99 37q-3 -30 15 -51t52 -21q49 0 88.5 33.5t51.5 79.5
q2 14 2 20q0 41 -38 69t-118 28h-41l117 163q-121 27 -121 168q0 52 15 113l145 629h-156l23 102h155l50 220l159 131l-79 -351h253l-22 -102h-254z" />
    <glyph glyph-name="Tcaron" unicode="&#x164;" horiz-adv-x="1264" 
d="M449 0l301 1307h-486l25 106h1108l-25 -106h-485l-301 -1307h-137zM870 1495l-256 332h152l129 -192l225 192h158z" />
    <glyph glyph-name="tcaron" unicode="&#x165;" horiz-adv-x="653" 
d="M600 1094l199 352h186l-299 -352h-86zM185.5 26.5q-47.5 46.5 -47.5 133.5q0 46 14 108l145 629h-156l23 102h155l50 220l159 131l-79 -351h253l-22 -102h-254l-152 -653q-10 -43 -10 -75q0 -43 19 -62t57 -19q35 0 61.5 3.5t40.5 7.5t17 5l-19 -100q-4 -2 -19 -7.5
t-39 -11t-50 -5.5q-99 0 -146.5 46.5z" />
    <glyph glyph-name="Tbar" unicode="&#x166;" horiz-adv-x="1264" 
d="M1372 1307h-485l-126 -549h253l-25 -105h-253l-150 -653h-137l150 653h-245l25 105h245l126 549h-486l25 106h1108z" />
    <glyph glyph-name="tbar" unicode="&#x167;" horiz-adv-x="653" 
d="M426 897l-81 -346h294l-25 -105h-293l-47 -202q-8 -32 -8 -64q0 -50 24 -75t66 -25q43 0 103 24l-15 -108q-16 -6 -49 -11t-71 -5q-187 0 -187 175q0 45 15 113l41 178h-214l25 105h213l80 346h-156l23 102h155l50 220l159 131l-79 -351h253l-22 -102h-254z" />
    <glyph glyph-name="Utilde" unicode="&#x168;" horiz-adv-x="1350" 
d="M345 29.5q-86 49.5 -125.5 134t-39.5 192.5q0 81 19 160l207 897h135l-199 -860q-25 -105 -25 -189q0 -258 254 -258q190 0 304 126.5t161 332.5l197 848h135l-207 -899q-34 -147 -111.5 -267.5t-200.5 -193.5t-284 -73q-134 0 -220 49.5zM996 1584.5
q-26 13.5 -42.5 32.5t-36.5 50q-21 33 -37 48.5t-40 15.5q-40 0 -69.5 -40.5t-43.5 -96.5h-88q26 112 77.5 176.5t123.5 64.5q41 0 69.5 -14.5t45.5 -35t36 -52.5t33.5 -47t36.5 -15q42 0 73 43.5t50 114.5h92q-58 -258 -219 -258q-35 0 -61 13.5z" />
    <glyph glyph-name="utilde" unicode="&#x169;" horiz-adv-x="1110" 
d="M179.5 53q-65.5 76 -65.5 205q0 69 19 154l135 587h125l-139 -610q-18 -79 -18 -135q0 -79 35 -126.5t116 -47.5q86 0 173 50t151 130.5t84 165.5l131 573h123l-230 -999h-123l43 176q-29 -46 -83 -92t-125.5 -76.5t-147.5 -30.5q-138 0 -203.5 76zM779 1170.5
q-26 13.5 -42.5 32.5t-36.5 50q-21 33 -37 48.5t-40 15.5q-40 0 -69.5 -40.5t-43.5 -96.5h-88q26 112 77.5 176.5t123.5 64.5q41 0 69.5 -14.5t45.5 -35t36 -52.5t33.5 -47t36.5 -15q42 0 73 43.5t50 114.5h92q-58 -258 -219 -258q-35 0 -61 13.5z" />
    <glyph glyph-name="Umacron" unicode="&#x16a;" horiz-adv-x="1350" 
d="M345 29.5q-86 49.5 -125.5 134t-39.5 192.5q0 81 19 160l207 897h135l-199 -860q-25 -105 -25 -189q0 -258 254 -258q190 0 304 126.5t161 332.5l197 848h135l-207 -899q-34 -147 -111.5 -267.5t-200.5 -193.5t-284 -73q-134 0 -220 49.5zM670 1606l28 121h537l-29 -121
h-536z" />
    <glyph glyph-name="umacron" unicode="&#x16b;" horiz-adv-x="1110" 
d="M179.5 53q-65.5 76 -65.5 205q0 69 19 154l135 587h125l-139 -610q-18 -79 -18 -135q0 -79 35 -126.5t116 -47.5q86 0 173 50t151 130.5t84 165.5l131 573h123l-230 -999h-123l43 176q-29 -46 -83 -92t-125.5 -76.5t-147.5 -30.5q-138 0 -203.5 76zM453 1192l28 121h537
l-29 -121h-536z" />
    <glyph glyph-name="Uring" unicode="&#x16e;" horiz-adv-x="1350" 
d="M345 29.5q-86 49.5 -125.5 134t-39.5 192.5q0 81 19 160l207 897h135l-199 -860q-25 -105 -25 -189q0 -258 254 -258q190 0 304 126.5t161 332.5l197 848h135l-207 -899q-34 -147 -111.5 -267.5t-200.5 -193.5t-284 -73q-134 0 -220 49.5zM799.5 1540.5
q-45.5 45.5 -45.5 115.5q0 24 6 48q12 51 46.5 93.5t82 67t99.5 24.5q47 0 85 -21t59 -57.5t21 -81.5q0 -23 -6 -49q-11 -51 -45.5 -93t-83 -67t-98.5 -25q-75 0 -120.5 45.5zM1011.5 1624.5q38.5 32.5 45.5 79.5l1 12q0 33 -21.5 53.5t-57.5 20.5q-49 0 -83.5 -30.5
t-41.5 -79.5q-1 -5 -1 -16q0 -33 21 -52.5t54 -19.5q45 0 83.5 32.5z" />
    <glyph glyph-name="uring" unicode="&#x16f;" horiz-adv-x="1110" 
d="M179.5 53q-65.5 76 -65.5 205q0 69 19 154l135 587h125l-139 -610q-18 -79 -18 -135q0 -79 35 -126.5t116 -47.5q86 0 173 50t151 130.5t84 165.5l131 573h123l-230 -999h-123l43 176q-29 -46 -83 -92t-125.5 -76.5t-147.5 -30.5q-138 0 -203.5 76zM582.5 1126.5
q-45.5 45.5 -45.5 115.5q0 24 6 48q12 51 46.5 93.5t82 67t99.5 24.5q47 0 85 -21t59 -57.5t21 -81.5q0 -23 -6 -49q-11 -51 -45.5 -93t-83 -67t-98.5 -25q-75 0 -120.5 45.5zM794.5 1210.5q38.5 32.5 45.5 79.5l1 12q0 33 -21.5 53.5t-57.5 20.5q-49 0 -83.5 -30.5
t-41.5 -79.5q-1 -5 -1 -16q0 -33 21 -52.5t54 -19.5q45 0 83.5 32.5z" />
    <glyph glyph-name="Uhungarumlaut" unicode="&#x170;" horiz-adv-x="1350" 
d="M345 29.5q-86 49.5 -125.5 134t-39.5 192.5q0 81 19 160l207 897h135l-199 -860q-25 -105 -25 -189q0 -258 254 -258q190 0 304 126.5t161 332.5l197 848h135l-207 -899q-34 -147 -111.5 -267.5t-200.5 -193.5t-284 -73q-134 0 -220 49.5zM668 1542l281 285h184
l-338 -285h-127zM994 1542l280 285h181l-334 -285h-127z" />
    <glyph glyph-name="uhungarumlaut" unicode="&#x171;" horiz-adv-x="1110" 
d="M179.5 53q-65.5 76 -65.5 205q0 69 19 154l135 587h125l-139 -610q-18 -79 -18 -135q0 -79 35 -126.5t116 -47.5q86 0 173 50t151 130.5t84 165.5l131 573h123l-230 -999h-123l43 176q-29 -46 -83 -92t-125.5 -76.5t-147.5 -30.5q-138 0 -203.5 76zM451 1128l281 285h184
l-338 -285h-127zM777 1128l280 285h181l-334 -285h-127z" />
    <glyph glyph-name="Uogonek" unicode="&#x172;" horiz-adv-x="1350" 
d="M1368 1413l-207 -899q-44 -189 -158 -330t-289 -186q-81 -35 -156 -93t-93 -139q-4 -16 -4 -32q0 -32 16 -50t43 -18q87 0 150 70l78 -68q-48 -53 -99.5 -80t-119.5 -27q-76 0 -122 43.5t-46 118.5q0 26 6 56q17 70 67.5 119.5t117.5 81.5q-191 4 -281.5 108t-90.5 268
q0 75 19 160l207 897h135l-199 -860q-25 -105 -25 -189q0 -258 254 -258q190 0 304 126.5t161 332.5l197 848h135z" />
    <glyph glyph-name="uogonek" unicode="&#x173;" horiz-adv-x="1110" 
d="M819 0h-6q-1 0 -59 -22.5t-133 -87t-91 -136.5q-4 -16 -4 -32q0 -32 16 -50t43 -18q87 0 150 70l78 -68q-48 -53 -99.5 -80t-119.5 -27q-76 0 -122 43.5t-46 118.5q0 26 6 56q23 93 101 150t166 83h-3l43 176q-29 -46 -83 -92t-125.5 -76.5t-147.5 -30.5
q-138 0 -203.5 76t-65.5 205q0 69 19 154l135 587h125l-139 -610q-18 -79 -18 -135q0 -79 35 -126.5t116 -47.5q86 0 173 50t151 130.5t84 165.5l131 573h123z" />
    <glyph glyph-name="Wcircumflex" unicode="&#x174;" horiz-adv-x="1978" 
d="M369 0l-64 1413h133l51 -1263l635 1181h111l88 -1181l635 1263h141l-719 -1413h-155l-86 1112l-615 -1112h-155zM887 1481l413 356l250 -356h-149l-129 196l-226 -196h-159z" />
    <glyph glyph-name="wcircumflex" unicode="&#x175;" horiz-adv-x="1417" 
d="M221 0l-41 999h131l17 -845l436 845h119l43 -843l407 843h135l-503 -999h-127l-43 850l-447 -850h-127zM514 1098l413 356l250 -356h-149l-129 196l-226 -196h-159z" />
    <glyph glyph-name="Ycircumflex" unicode="&#x176;" horiz-adv-x="1327" 
d="M485 0l129 553l-329 860h151l269 -719l606 719h157l-725 -860l-129 -553h-129zM563 1512l413 356l250 -356h-149l-129 196l-226 -196h-159z" />
    <glyph glyph-name="ycircumflex" unicode="&#x177;" horiz-adv-x="973" 
d="M49 -430l270 430l-151 999h137l105 -847l489 847h139l-856 -1429h-133zM285 1098l413 356l250 -356h-149l-129 196l-226 -196h-159z" />
    <glyph glyph-name="Ydieresis" unicode="&#x178;" horiz-adv-x="1327" 
d="M485 0l129 553l-329 860h151l269 -719l606 719h157l-725 -860l-129 -553h-129zM680 1643l43 184h160l-43 -184h-160zM1012 1643l43 184h159l-43 -184h-159z" />
    <glyph glyph-name="Zacute" unicode="&#x179;" horiz-adv-x="1286" 
d="M-14 0l22 111l1186 1189h-864l26 113h1030l-24 -117l-1180 -1173h908l-29 -123h-1075zM792 1538l283 289h180l-336 -289h-127z" />
    <glyph glyph-name="zacute" unicode="&#x17a;" horiz-adv-x="920" 
d="M950 999l-22 -110l-791 -780h608l-24 -109h-762l21 100l804 797h-589l22 102h733zM503 1124l283 289h180l-336 -289h-127z" />
    <glyph glyph-name="Zdotaccent" unicode="&#x17b;" horiz-adv-x="1286" 
d="M-14 0l22 111l1186 1189h-864l26 113h1030l-24 -117l-1180 -1173h908l-29 -123h-1075zM831 1643l43 184h152l-43 -184h-152z" />
    <glyph glyph-name="zdotaccent" unicode="&#x17c;" horiz-adv-x="920" 
d="M950 999l-22 -110l-791 -780h608l-24 -109h-762l21 100l804 797h-589l22 102h733zM542 1229l43 184h152l-43 -184h-152z" />
    <glyph glyph-name="Zcaron" unicode="&#x17d;" horiz-adv-x="1286" 
d="M-14 0l22 111l1186 1189h-864l26 113h1030l-24 -117l-1180 -1173h908l-29 -123h-1075zM878 1495l-256 332h152l129 -192l225 192h158z" />
    <glyph glyph-name="zcaron" unicode="&#x17e;" horiz-adv-x="920" 
d="M950 999l-22 -110l-791 -780h608l-24 -109h-762l21 100l804 797h-589l22 102h733zM589 1081l-256 332h152l129 -192l225 192h158z" />
    <glyph glyph-name="florin" unicode="&#x192;" horiz-adv-x="1061" 
d="M-66 -340q173 0 277.5 82.5t142.5 249.5l205 893h-178l27 114h178l41 177q19 81 66.5 143t112 96.5t132.5 34.5q50 0 97 -19t79 -53l-88 -82q-18 19 -45 28t-49 9q-40 0 -79.5 -20t-69.5 -59t-42 -91l-39 -164h306l-27 -114h-305l-209 -905q-33 -143 -111 -241t-190 -147
t-248 -49z" />
    <glyph glyph-name="uni01C3" unicode="&#x1c3;" horiz-adv-x="684" 
d="M264 367l219 1069h152l-277 -1069h-94zM139 0l39 174h176l-39 -174h-176z" />
    <glyph glyph-name="uni01C4" unicode="&#x1c4;" horiz-adv-x="2699" 
d="M434 1413h342q279 0 426.5 -127.5t147.5 -369.5q0 -104 -29 -232q-51 -219 -168.5 -372t-293.5 -232.5t-400 -79.5h-350zM453 123q171 0 323 66.5t262.5 200.5t155.5 329q23 103 23 186q0 190 -116 289.5t-345 99.5h-213l-271 -1171h181zM1399 0l22 111l1186 1189h-864
l26 113h1030l-24 -117l-1180 -1173h908l-29 -123h-1075zM2291 1495l-256 332h152l129 -192l225 192h158z" />
    <glyph glyph-name="uni01C5" unicode="&#x1c5;" horiz-adv-x="2333" 
d="M434 1413h342q279 0 426.5 -127.5t147.5 -369.5q0 -104 -29 -232q-51 -219 -168.5 -372t-293.5 -232.5t-400 -79.5h-350zM453 123q171 0 323 66.5t262.5 200.5t155.5 329q23 103 23 186q0 190 -116 289.5t-345 99.5h-213l-271 -1171h181zM2363 999l-22 -110l-791 -780
h608l-24 -109h-762l21 100l804 797h-589l22 102h733zM2002 1081l-256 332h152l129 -192l225 192h158z" />
    <glyph glyph-name="uni01C6" unicode="&#x1c6;" horiz-adv-x="2044" 
d="M1157 1413l-326 -1413h-124l29 135q-69 -74 -152.5 -114.5t-190.5 -40.5q-98 0 -166.5 45t-102.5 125.5t-34 185.5q0 85 21 176q33 143 105 258.5t174 182.5t220 67q214 0 289 -170l133 563h125zM852 661q0 111 -51.5 176.5t-161.5 65.5q-103 0 -185.5 -57t-137 -151
t-80.5 -208q-19 -76 -19 -148q0 -112 52 -178.5t161 -66.5q105 0 187 57t136.5 151.5t80.5 209.5q18 78 18 149zM2074 999l-22 -110l-791 -780h608l-24 -109h-762l21 100l804 797h-589l22 102h733zM1713 1081l-256 332h152l129 -192l225 192h158z" />
    <glyph glyph-name="uni01C7" unicode="&#x1c7;" horiz-adv-x="2162" 
d="M109 0l325 1413h135l-299 -1292h604l-26 -121h-739zM1245.5 23q-75.5 43 -113 117.5t-37.5 170.5q0 40 6 80l132 6q-7 -45 -7 -76q0 -100 50.5 -162.5t158.5 -62.5q169 0 257.5 105.5t129.5 283.5l189 815h-533l27 113h668l-213 -919q-56 -249 -184.5 -381.5
t-344.5 -132.5q-110 0 -185.5 43z" />
    <glyph glyph-name="uni01C8" unicode="&#x1c8;" horiz-adv-x="1523" 
d="M109 0l325 1413h135l-299 -1292h604l-26 -121h-739zM1372 1239l43 180h153l-43 -180h-153zM821 -428.5q-40 9.5 -74 22.5l35 84q20 -6 53.5 -10t59.5 -4q67 0 108 45.5t55 106.5l273 1183h129l-270 -1173q-61 -264 -297 -264q-32 0 -72 9.5z" />
    <glyph glyph-name="uni01C9" unicode="&#x1c9;" horiz-adv-x="997" 
d="M117 8q-29 28 -29 78q0 25 5 51t16 72l278 1204h127l-293 -1266q-3 -15 -3 -25q0 -40 42 -40q22 0 53 8t37 10l-12 -102q-22 -8 -56 -13t-65 -5q-71 0 -100 28zM846 1239l43 180h153l-43 -180h-153zM295 -428.5q-40 9.5 -74 22.5l35 84q20 -6 53.5 -10t59.5 -4
q67 0 108 45.5t55 106.5l273 1183h129l-270 -1173q-61 -264 -297 -264q-32 0 -72 9.5z" />
    <glyph glyph-name="uni01CA" unicode="&#x1ca;" horiz-adv-x="2541" 
d="M109 0l325 1413h213l324 -1288l299 1288h135l-326 -1413h-217l-317 1290l-299 -1290h-137zM1624.5 23q-75.5 43 -113 117.5t-37.5 170.5q0 40 6 80l132 6q-7 -45 -7 -76q0 -100 50.5 -162.5t158.5 -62.5q169 0 257.5 105.5t129.5 283.5l189 815h-533l27 113h668
l-213 -919q-56 -249 -184.5 -381.5t-344.5 -132.5q-110 0 -185.5 43z" />
    <glyph glyph-name="uni01CB" unicode="&#x1cb;" horiz-adv-x="1902" 
d="M109 0l325 1413h213l324 -1288l299 1288h135l-326 -1413h-217l-317 1290l-299 -1290h-137zM1751 1239l43 180h153l-43 -180h-153zM1200 -428.5q-40 9.5 -74 22.5l35 84q20 -6 53.5 -10t59.5 -4q67 0 108 45.5t55 106.5l273 1183h129l-270 -1173q-61 -264 -297 -264
q-32 0 -72 9.5z" />
    <glyph glyph-name="uni01CC" unicode="&#x1cc;" horiz-adv-x="1599" 
d="M291 999h125l-39 -161q64 80 159.5 129t192.5 49q139 0 205 -73.5t66 -198.5q0 -65 -17 -142l-139 -602h-125l139 604q16 73 16 122q0 169 -163 169q-85 0 -169 -46t-145 -121.5t-80 -160.5l-131 -567h-125zM1448 1239l43 180h153l-43 -180h-153zM897 -428.5
q-40 9.5 -74 22.5l35 84q20 -6 53.5 -10t59.5 -4q67 0 108 45.5t55 106.5l273 1183h129l-270 -1173q-61 -264 -297 -264q-32 0 -72 9.5z" />
    <glyph glyph-name="uni01CD" unicode="&#x1cd;" horiz-adv-x="1296" 
d="M-41 0l848 1413h104l193 -1413h-141l-37 307h-639l-178 -307h-150zM360 434h549l-90 780zM882 1495l-256 332h152l129 -192l225 192h158z" />
    <glyph glyph-name="uni01CE" unicode="&#x1ce;" 
d="M1061 999l-230 -999h-124l29 135q-69 -74 -152.5 -114.5t-190.5 -40.5q-98 0 -166.5 45t-102.5 125.5t-34 185.5q0 85 21 176q33 143 105 258.5t174 182.5t220 67q214 0 289 -170l37 149h125zM852 661q0 111 -51.5 176.5t-161.5 65.5q-103 0 -185.5 -57t-137 -151
t-80.5 -208q-19 -76 -19 -148q0 -112 52 -178.5t161 -66.5q105 0 187 57t136.5 151.5t80.5 209.5q18 78 18 149zM712 1081l-256 332h152l129 -192l225 192h158z" />
    <glyph glyph-name="uni01CF" unicode="&#x1cf;" horiz-adv-x="582" 
d="M109 0l325 1413h135l-325 -1413h-135zM522 1495l-256 332h152l129 -192l225 192h158z" />
    <glyph glyph-name="uni01D0" unicode="&#x1d0;" horiz-adv-x="502" 
d="M72 0l229 999h129l-229 -999h-129zM389 1081l-256 332h152l129 -192l225 192h158z" />
    <glyph glyph-name="uni01D1" unicode="&#x1d1;" horiz-adv-x="1524" 
d="M376.5 44.5q-109.5 64.5 -162 178.5t-52.5 263q0 114 28 233q46 199 151.5 361.5t265 258t358.5 95.5q166 0 276.5 -64.5t163.5 -178.5t53 -264q0 -114 -28 -233q-47 -200 -152.5 -361.5t-265.5 -257t-361 -95.5q-165 0 -274.5 64.5zM964 190q134 84 221 223t126 306
q23 103 23 195q0 178 -91.5 285.5t-286.5 107.5q-168 0 -300.5 -84t-219 -223.5t-125.5 -305.5q-24 -107 -24 -196q0 -177 90.5 -284.5t279.5 -107.5q173 0 307 84zM993 1495l-256 332h152l129 -192l225 192h158z" />
    <glyph glyph-name="uni01D2" unicode="&#x1d2;" 
d="M254.5 29.5q-83.5 49.5 -127.5 137.5t-44 200q0 65 17 141q32 139 115.5 254t202 182.5t250.5 67.5q114 0 198 -50.5t128.5 -139t44.5 -200.5q0 -65 -17 -139q-32 -138 -116.5 -253.5t-203.5 -182.5t-249 -67q-115 0 -198.5 49.5zM657.5 149q87.5 57 143.5 151.5
t82 207.5q18 80 18 142q0 114 -56.5 181.5t-180.5 67.5q-112 0 -199 -57t-143 -151.5t-82 -207.5q-18 -80 -18 -141q0 -114 56.5 -182t178.5 -68q113 0 200.5 57zM698 1081l-256 332h152l129 -192l225 192h158z" />
    <glyph glyph-name="uni01D3" unicode="&#x1d3;" horiz-adv-x="1350" 
d="M345 29.5q-86 49.5 -125.5 134t-39.5 192.5q0 81 19 160l207 897h135l-199 -860q-25 -105 -25 -189q0 -258 254 -258q190 0 304 126.5t161 332.5l197 848h135l-207 -899q-34 -147 -111.5 -267.5t-200.5 -193.5t-284 -73q-134 0 -220 49.5zM913 1495l-256 332h152
l129 -192l225 192h158z" />
    <glyph glyph-name="uni01D4" unicode="&#x1d4;" horiz-adv-x="1110" 
d="M179.5 53q-65.5 76 -65.5 205q0 69 19 154l135 587h125l-139 -610q-18 -79 -18 -135q0 -79 35 -126.5t116 -47.5q86 0 173 50t151 130.5t84 165.5l131 573h123l-230 -999h-123l43 176q-29 -46 -83 -92t-125.5 -76.5t-147.5 -30.5q-138 0 -203.5 76zM696 1081l-256 332
h152l129 -192l225 192h158z" />
    <glyph glyph-name="uni01D5" unicode="&#x1d5;" horiz-adv-x="1350" 
d="M345 29.5q-86 49.5 -125.5 134t-39.5 192.5q0 81 19 160l207 897h135l-199 -860q-25 -105 -25 -189q0 -258 254 -258q190 0 304 126.5t161 332.5l197 848h135l-207 -899q-34 -147 -111.5 -267.5t-200.5 -193.5t-284 -73q-134 0 -220 49.5zM697 1643l43 184h160l-43 -184
h-160zM1029 1643l43 184h159l-43 -184h-159zM767 2020l28 121h537l-29 -121h-536z" />
    <glyph glyph-name="uni01D6" unicode="&#x1d6;" horiz-adv-x="1110" 
d="M179.5 53q-65.5 76 -65.5 205q0 69 19 154l135 587h125l-139 -610q-18 -79 -18 -135q0 -79 35 -126.5t116 -47.5q86 0 173 50t151 130.5t84 165.5l131 573h123l-230 -999h-123l43 176q-29 -46 -83 -92t-125.5 -76.5t-147.5 -30.5q-138 0 -203.5 76zM480 1229l43 184h160
l-43 -184h-160zM812 1229l43 184h159l-43 -184h-159zM550 1606l28 121h537l-29 -121h-536z" />
    <glyph glyph-name="uni01D7" unicode="&#x1d7;" horiz-adv-x="1350" 
d="M345 29.5q-86 49.5 -125.5 134t-39.5 192.5q0 81 19 160l207 897h135l-199 -860q-25 -105 -25 -189q0 -258 254 -258q190 0 304 126.5t161 332.5l197 848h135l-207 -899q-34 -147 -111.5 -267.5t-200.5 -193.5t-284 -73q-134 0 -220 49.5zM697 1643l43 184h160l-43 -184
h-160zM1029 1643l43 184h159l-43 -184h-159zM924 1952l283 289h180l-336 -289h-127z" />
    <glyph glyph-name="uni01D8" unicode="&#x1d8;" horiz-adv-x="1110" 
d="M179.5 53q-65.5 76 -65.5 205q0 69 19 154l135 587h125l-139 -610q-18 -79 -18 -135q0 -79 35 -126.5t116 -47.5q86 0 173 50t151 130.5t84 165.5l131 573h123l-230 -999h-123l43 176q-29 -46 -83 -92t-125.5 -76.5t-147.5 -30.5q-138 0 -203.5 76zM480 1229l43 184h160
l-43 -184h-160zM812 1229l43 184h159l-43 -184h-159zM707 1538l283 289h180l-336 -289h-127z" />
    <glyph glyph-name="uni01D9" unicode="&#x1d9;" horiz-adv-x="1350" 
d="M345 29.5q-86 49.5 -125.5 134t-39.5 192.5q0 81 19 160l207 897h135l-199 -860q-25 -105 -25 -189q0 -258 254 -258q190 0 304 126.5t161 332.5l197 848h135l-207 -899q-34 -147 -111.5 -267.5t-200.5 -193.5t-284 -73q-134 0 -220 49.5zM697 1643l43 184h160l-43 -184
h-160zM1029 1643l43 184h159l-43 -184h-159zM1010 1909l-256 332h152l129 -192l225 192h158z" />
    <glyph glyph-name="uni01DA" unicode="&#x1da;" horiz-adv-x="1110" 
d="M179.5 53q-65.5 76 -65.5 205q0 69 19 154l135 587h125l-139 -610q-18 -79 -18 -135q0 -79 35 -126.5t116 -47.5q86 0 173 50t151 130.5t84 165.5l131 573h123l-230 -999h-123l43 176q-29 -46 -83 -92t-125.5 -76.5t-147.5 -30.5q-138 0 -203.5 76zM480 1229l43 184h160
l-43 -184h-160zM812 1229l43 184h159l-43 -184h-159zM793 1495l-256 332h152l129 -192l225 192h158z" />
    <glyph glyph-name="uni01DB" unicode="&#x1db;" horiz-adv-x="1350" 
d="M345 29.5q-86 49.5 -125.5 134t-39.5 192.5q0 81 19 160l207 897h135l-199 -860q-25 -105 -25 -189q0 -258 254 -258q190 0 304 126.5t161 332.5l197 848h135l-207 -899q-34 -147 -111.5 -267.5t-200.5 -193.5t-284 -73q-134 0 -220 49.5zM697 1643l43 184h160l-43 -184
h-160zM1029 1643l43 184h159l-43 -184h-159zM947 1954l-180 287h172l149 -287h-141z" />
    <glyph glyph-name="uni01DC" unicode="&#x1dc;" horiz-adv-x="1110" 
d="M179.5 53q-65.5 76 -65.5 205q0 69 19 154l135 587h125l-139 -610q-18 -79 -18 -135q0 -79 35 -126.5t116 -47.5q86 0 173 50t151 130.5t84 165.5l131 573h123l-230 -999h-123l43 176q-29 -46 -83 -92t-125.5 -76.5t-147.5 -30.5q-138 0 -203.5 76zM480 1229l43 184h160
l-43 -184h-160zM812 1229l43 184h159l-43 -184h-159zM730 1540l-180 287h172l149 -287h-141z" />
    <glyph glyph-name="uni01DD" unicode="&#x1dd;" horiz-adv-x="1030" 
d="M154.5 76.5q-76.5 88.5 -76.5 241.5q0 90 28 214l7 17h698q15 63 15 118q0 113 -60 175.5t-168 62.5q-96 0 -173.5 -26t-150.5 -88l-75 73q97 81 190.5 114.5t206.5 33.5q118 0 197 -46t117.5 -127t38.5 -186q0 -79 -19 -159q-32 -138 -104.5 -253t-181 -184t-243.5 -69
q-170 0 -246.5 88.5zM580 148q78 46 130 122.5t74 167.5l-585 -12q-15 -60 -15 -113q0 -99 55.5 -155t166.5 -56q96 0 174 46z" />
    <glyph glyph-name="uni01E3" unicode="&#x1e3;" horiz-adv-x="1694" 
d="M752 1208l24 111h527l-25 -111h-526zM175 8.5q-59 28.5 -92 81t-33 122.5q0 34 9 73q33 145 140.5 213.5t273.5 68.5l330 6q19 84 19 145q0 200 -197 200q-90 0 -173.5 -46t-142.5 -112l-90 71q92 95 191.5 140t222.5 45q128 0 200.5 -52t88.5 -145q66 95 154 144t208 49
q175 0 253 -88.5t78 -242.5q0 -97 -28 -214q0 -1 -1 -6t-1 -10h-700q-15 -64 -15 -118q0 -113 60 -176t168 -63q96 0 172.5 26.5t152.5 90.5l74 -76q-95 -80 -190 -113.5t-209 -33.5q-165 0 -246 84.5t-86 224.5q-172 -317 -457 -317q-75 0 -134 28.5zM1497 573
q15 63 15 114q0 101 -57.5 155.5t-166.5 54.5q-95 0 -173 -46t-130 -122.5t-74 -167.5zM533.5 141q90.5 51 156.5 137t88 185l-305 -6q-63 0 -122 -23.5t-102 -68.5t-56 -107q-3 -15 -3 -28q0 -40 24.5 -72t61.5 -50t74 -18q93 0 183.5 51z" />
    <glyph glyph-name="uni01EB" unicode="&#x1eb;" 
d="M866 961.5q84 -50.5 128.5 -139t44.5 -200.5q0 -65 -17 -139q-29 -128 -103.5 -236t-180 -178t-224.5 -85q-81 -36 -153.5 -93.5t-90.5 -136.5q-4 -16 -4 -32q0 -32 16 -50t43 -18q87 0 150 70l78 -68q-48 -53 -99.5 -80t-119.5 -27q-76 0 -122 43.5t-46 118.5q0 26 6 56
q20 79 81.5 132.5t139.5 84.5q-97 12 -167 64t-106.5 134.5t-36.5 184.5q0 65 17 141q32 139 115.5 254t202 182.5t250.5 67.5q114 0 198 -50.5zM901 650q0 114 -56.5 181.5t-180.5 67.5q-112 0 -199 -57t-143 -151.5t-82 -207.5q-18 -80 -18 -141q0 -114 56.5 -182
t178.5 -68q113 0 200.5 57t143.5 151.5t82 207.5q18 80 18 142z" />
    <glyph glyph-name="uni01F1" unicode="&#x1f1;" horiz-adv-x="2699" 
d="M434 1413h342q279 0 426.5 -127.5t147.5 -369.5q0 -104 -29 -232q-51 -219 -168.5 -372t-293.5 -232.5t-400 -79.5h-350zM453 123q171 0 323 66.5t262.5 200.5t155.5 329q23 103 23 186q0 190 -116 289.5t-345 99.5h-213l-271 -1171h181zM1399 0l22 111l1186 1189h-864
l26 113h1030l-24 -117l-1180 -1173h908l-29 -123h-1075z" />
    <glyph glyph-name="uni01F2" unicode="&#x1f2;" horiz-adv-x="2333" 
d="M434 1413h342q279 0 426.5 -127.5t147.5 -369.5q0 -104 -29 -232q-51 -219 -168.5 -372t-293.5 -232.5t-400 -79.5h-350zM453 123q171 0 323 66.5t262.5 200.5t155.5 329q23 103 23 186q0 190 -116 289.5t-345 99.5h-213l-271 -1171h181zM2363 999l-22 -110l-791 -780
h608l-24 -109h-762l21 100l804 797h-589l22 102h733z" />
    <glyph glyph-name="uni01F3" unicode="&#x1f3;" horiz-adv-x="2044" 
d="M1157 1413l-326 -1413h-124l29 135q-69 -74 -152.5 -114.5t-190.5 -40.5q-98 0 -166.5 45t-102.5 125.5t-34 185.5q0 85 21 176q33 143 105 258.5t174 182.5t220 67q214 0 289 -170l133 563h125zM852 661q0 111 -51.5 176.5t-161.5 65.5q-103 0 -185.5 -57t-137 -151
t-80.5 -208q-19 -76 -19 -148q0 -112 52 -178.5t161 -66.5q105 0 187 57t136.5 151.5t80.5 209.5q18 78 18 149zM2074 999l-22 -110l-791 -780h608l-24 -109h-762l21 100l804 797h-589l22 102h733z" />
    <glyph glyph-name="Scommaaccent" unicode="&#x218;" horiz-adv-x="1112" 
d="M270 27.5q-95 43.5 -151 128t-56 202.5l130 27q0 -133 73.5 -207t216.5 -74q109 0 191.5 41t127 110.5t44.5 152.5q0 71 -33.5 121t-83 82t-134.5 75q-91 46 -146 82.5t-93.5 97t-38.5 148.5q0 112 61.5 208.5t166 154t227.5 57.5q122 0 209.5 -57.5t124.5 -162.5
l-105 -55q-22 77 -86 118.5t-147 41.5q-81 0 -154.5 -37.5t-119 -102.5t-45.5 -143q0 -65 32 -111.5t79.5 -77t128.5 -69.5q94 -46 151 -84.5t97 -102t40 -157.5q0 -122 -66 -225t-180 -164t-252 -61q-114 0 -209 43.5zM109 -442l196 329h205l-299 -329h-102z" />
    <glyph glyph-name="scommaaccent" unicode="&#x219;" horiz-adv-x="868" 
d="M197 15q-73 35 -117.5 91t-52.5 119l118 47q4 -52 36.5 -92.5t83.5 -62t110 -21.5q69 0 123.5 29t85 76.5t30.5 101.5q0 51 -26.5 83t-65 48.5t-107.5 37.5q-82 24 -132.5 48t-85.5 72.5t-35 130.5q0 93 45 158.5t120.5 99t166.5 33.5q83 0 147.5 -28t105 -72.5
t58.5 -94.5l-107 -47q-20 61 -74 96t-137 35q-92 0 -151.5 -44.5t-59.5 -133.5q0 -49 26.5 -80t66.5 -48t108 -37q84 -24 136.5 -48.5t89 -74t36.5 -132.5q0 -82 -50.5 -157t-138 -121.5t-190.5 -46.5q-90 0 -163 35zM23 -442l196 329h205l-299 -329h-102z" />
    <glyph glyph-name="uni021A" unicode="&#x21a;" horiz-adv-x="1264" 
d="M449 0l301 1307h-486l25 106h1108l-25 -106h-485l-301 -1307h-137zM195 -442l196 329h205l-299 -329h-102z" />
    <glyph glyph-name="uni021B" unicode="&#x21b;" horiz-adv-x="653" 
d="M137 155q0 45 15 113l145 629h-156l23 102h155l50 220l159 131l-79 -351h253l-22 -102h-254l-152 -653q-8 -32 -8 -64q0 -50 24 -75t66 -25q43 0 103 24l-15 -108q-16 -6 -49 -11t-71 -5q-187 0 -187 175zM-8 -442l196 329h205l-299 -329h-102z" />
    <glyph glyph-name="uni0237" unicode="&#x237;" horiz-adv-x="500" 
d="M-210.5 -428.5q-41.5 9.5 -72.5 22.5l45 111q20 -6 51.5 -10t53.5 -4q67 0 106 43t52 104l268 1161h143l-268 -1165q-31 -129 -105.5 -200.5t-195.5 -71.5q-36 0 -77.5 9.5z" />
    <glyph glyph-name="uni0250" unicode="&#x250;" horiz-adv-x="1057" 
d="M223 54.5q-78 74.5 -78 207.5q0 57 15 123l141 610h107l-41 -180q92 105 188 153t219 48q74 0 132 -28t90.5 -80.5t32.5 -121.5q0 -34 -9 -73q-33 -145 -140 -215t-272 -70l-332 -6q-19 -85 -19 -144q0 -92 48 -139t156 -47q90 0 175 43.5t144 106.5l78 -80
q-89 -95 -187 -138.5t-222 -43.5q-148 0 -226 74.5zM608 539q65 0 125 22.5t103.5 67.5t58.5 108q6 26 6 45q0 117 -170 117q-97 0 -188 -53.5t-155 -138.5t-85 -175z" />
    <glyph glyph-name="uni0254" unicode="&#x254;" horiz-adv-x="967" 
d="M121.5 49q-84.5 69 -111.5 191l127 41q3 -92 58 -145.5t145 -53.5q105 0 187.5 63.5t135.5 161t78 203.5q19 81 19 155q0 110 -48.5 179t-156.5 69q-98 0 -185 -58.5t-132 -152.5l-97 62q72 124 178 188t236 64q110 0 184 -46.5t110 -128t36 -186.5q0 -81 -21 -170
q-32 -137 -104 -252t-179.5 -184t-240.5 -69q-134 0 -218.5 69z" />
    <glyph glyph-name="uni0258" unicode="&#x258;" horiz-adv-x="1030" 
d="M182 24.5q-82 36.5 -143 118.5l92 60q44 -62 106 -85.5t152 -23.5q95 0 177.5 46t141 130t83.5 193h-699q1 5 1.5 12.5t2.5 16.5q54 234 178 377t340 143q112 0 187 -46.5t111 -128t36 -187.5q0 -80 -20 -169q-32 -138 -106 -249.5t-186.5 -177.5t-252.5 -66
q-119 0 -201 36.5zM815 573q12 54 12 104q0 101 -53.5 160.5t-163.5 59.5q-98 0 -177 -44t-131 -120t-73 -172z" />
    <glyph glyph-name="uni0259" unicode="&#x259;" horiz-adv-x="1030" 
d="M154.5 76.5q-76.5 88.5 -76.5 241.5q0 90 28 214l7 17h698q15 63 15 118q0 113 -60 175.5t-168 62.5q-96 0 -173.5 -26t-150.5 -88l-75 73q97 81 190.5 114.5t206.5 33.5q118 0 197 -46t117.5 -127t38.5 -186q0 -79 -19 -159q-32 -138 -104.5 -253t-181 -184t-243.5 -69
q-170 0 -246.5 88.5zM580 148q78 46 130 122.5t74 167.5l-585 -12q-15 -60 -15 -113q0 -99 55.5 -155t166.5 -56q96 0 174 46z" />
    <glyph glyph-name="uni0261" unicode="&#x261;" horiz-adv-x="1126" 
d="M654.5 -319.5q-128.5 -112.5 -322.5 -112.5q-125 0 -215 51t-129 148l108 61q58 -152 238 -152q94 0 171 43t128.5 118t73.5 169l34 135q-67 -74 -152 -117.5t-188 -43.5q-153 0 -232.5 96.5t-79.5 257.5q0 79 22 178q33 144 104.5 259.5t175 182t227.5 66.5
q105 0 176 -46.5t105 -125.5l37 151h127l-234 -1005q-46 -201 -174.5 -313.5zM616 146.5q82 58.5 137 155t81 210.5q19 82 19 152q0 112 -50.5 178.5t-159.5 66.5q-104 0 -187.5 -58t-138.5 -153.5t-81 -210.5q-20 -80 -20 -151q0 -112 52.5 -180t161.5 -68q104 0 186 58.5z
" />
    <glyph glyph-name="circumflex" unicode="&#x2c6;" horiz-adv-x="784" 
d="M256 1098l413 356l250 -356h-149l-129 196l-226 -196h-159z" />
    <glyph glyph-name="caron" unicode="&#x2c7;" horiz-adv-x="786" 
d="M524 1081l-256 332h152l129 -192l225 192h158z" />
    <glyph glyph-name="uni02D0" unicode="&#x2d0;" horiz-adv-x="459" 
d="M254 666l-225 333l377 48zM53 -47l152 381l225 -334z" />
    <glyph glyph-name="uni02D1" unicode="&#x2d1;" horiz-adv-x="508" 
d="M279 279l-226 333l377 47z" />
    <glyph glyph-name="breve" unicode="&#x2d8;" horiz-adv-x="842" 
d="M443 1167.5q-59 24.5 -92 71t-33 109.5q0 34 8 65h123q-5 -23 -5 -41q0 -57 38 -90t98 -33q50 0 98.5 22t83 59.5t45.5 82.5h123q-19 -87 -70.5 -148t-125 -91.5t-156.5 -30.5q-76 0 -135 24.5z" />
    <glyph glyph-name="dotaccent" unicode="&#x2d9;" horiz-adv-x="528" 
d="M352 1229l43 184h152l-43 -184h-152z" />
    <glyph glyph-name="ring" unicode="&#x2da;" horiz-adv-x="641" 
d="M342.5 1126.5q-45.5 45.5 -45.5 115.5q0 24 6 48q12 51 46.5 93.5t82 67t99.5 24.5q47 0 85 -21t59 -57.5t21 -81.5q0 -23 -6 -49q-11 -51 -45.5 -93t-83 -67t-98.5 -25q-75 0 -120.5 45.5zM554.5 1210.5q38.5 32.5 45.5 79.5l1 12q0 33 -21.5 53.5t-57.5 20.5
q-49 0 -83.5 -30.5t-41.5 -79.5q-1 -5 -1 -16q0 -33 21 -52.5t54 -19.5q45 0 83.5 32.5z" />
    <glyph glyph-name="ogonek" unicode="&#x2db;" horiz-adv-x="602" 
d="M44 -407.5q-46 43.5 -46 118.5q0 26 6 56q23 95 104 152t170 83l107 -2q-1 0 -59 -22.5t-133 -87t-91 -136.5q-4 -16 -4 -32q0 -32 16 -50t43 -18q87 0 150 70l78 -68q-48 -53 -99.5 -80t-119.5 -27q-76 0 -122 43.5z" />
    <glyph glyph-name="tilde" unicode="&#x2dc;" horiz-adv-x="1010" 
d="M740 1168.5q-26 13.5 -42.5 32.5t-36.5 50q-21 33 -37 48.5t-40 15.5q-40 0 -69.5 -40.5t-43.5 -96.5h-88q26 112 77.5 176.5t123.5 64.5q41 0 69.5 -14.5t45.5 -35t36 -52.5t33.5 -47t36.5 -15q42 0 73 43.5t50 114.5h92q-58 -258 -219 -258q-35 0 -61 13.5z" />
    <glyph glyph-name="hungarumlaut" unicode="&#x2dd;" horiz-adv-x="862" 
d="M219 1128l281 285h184l-338 -285h-127zM545 1128l280 285h181l-334 -285h-127z" />
    <glyph glyph-name="uni02F5" unicode="&#x2f5;" horiz-adv-x="1282" 
d="M594 729l-227 270h182l209 -270h-164zM983 729l-227 270h182l209 -270h-164z" />
    <glyph glyph-name="uni02F6" unicode="&#x2f6;" horiz-adv-x="1280" 
d="M133 729l211 270h180l-227 -270h-164zM514 729l211 270h180l-227 -270h-164z" />
    <glyph glyph-name="gravecomb" unicode="&#x300;" horiz-adv-x="0" 
d="M-76 1126l-180 287h172l149 -287h-141z" />
    <glyph glyph-name="acutecomb" unicode="&#x301;" horiz-adv-x="0" 
d="M-318 1124l283 289h180l-336 -289h-127z" />
    <glyph glyph-name="uni0302" unicode="&#x302;" horiz-adv-x="0" 
d="M-587 1098l413 356l250 -356h-149l-129 196l-226 -196h-159z" />
    <glyph glyph-name="tildecomb" unicode="&#x303;" horiz-adv-x="0" 
d="M-167 1168.5q-26 13.5 -42.5 32.5t-36.5 50q-21 33 -37 48.5t-40 15.5q-40 0 -69.5 -40.5t-43.5 -96.5h-88q26 112 77.5 176.5t123.5 64.5q41 0 69.5 -14.5t45.5 -35t36 -52.5t33.5 -47t36.5 -15q42 0 73 43.5t50 114.5h92q-58 -258 -219 -258q-35 0 -61 13.5z" />
    <glyph glyph-name="uni0304" unicode="&#x304;" horiz-adv-x="0" 
d="M-547 1192l28 121h537l-29 -121h-536z" />
    <glyph glyph-name="uni0306" unicode="&#x306;" horiz-adv-x="0" 
d="M-395 1167.5q-59 24.5 -92 71t-33 109.5q0 34 8 65h123q-5 -23 -5 -41q0 -57 38 -90t98 -33q50 0 98.5 22t83 59.5t45.5 82.5h123q-19 -87 -70.5 -148t-125 -91.5t-156.5 -30.5q-76 0 -135 24.5z" />
    <glyph glyph-name="uni0307" unicode="&#x307;" horiz-adv-x="0" 
d="M-172 1229l43 184h152l-43 -184h-152z" />
    <glyph glyph-name="uni0308" unicode="&#x308;" horiz-adv-x="0" 
d="M-493 1229l43 184h160l-43 -184h-160zM-161 1229l43 184h159l-43 -184h-159z" />
    <glyph glyph-name="uni030A" unicode="&#x30a;" horiz-adv-x="0" 
d="M-296.5 1126.5q-45.5 45.5 -45.5 115.5q0 24 6 48q12 51 46.5 93.5t82 67t99.5 24.5q47 0 85 -21t59 -57.5t21 -81.5q0 -23 -6 -49q-11 -51 -45.5 -93t-83 -67t-98.5 -25q-75 0 -120.5 45.5zM-84.5 1210.5q38.5 32.5 45.5 79.5l1 12q0 33 -21.5 53.5t-57.5 20.5
q-49 0 -83.5 -30.5t-41.5 -79.5q-1 -5 -1 -16q0 -33 21 -52.5t54 -19.5q45 0 83.5 32.5z" />
    <glyph glyph-name="uni030B" unicode="&#x30b;" horiz-adv-x="0" 
d="M-641 1128l281 285h184l-338 -285h-127zM-315 1128l280 285h181l-334 -285h-127z" />
    <glyph glyph-name="uni030C" unicode="&#x30c;" horiz-adv-x="0" 
d="M-254 1081l-256 332h152l129 -192l225 192h158z" />
    <glyph glyph-name="uni030F" unicode="&#x30f;" horiz-adv-x="0" 
d="M-422 1128l-180 285h194l150 -285h-164zM-101 1128l-178 285h195l149 -285h-166z" />
    <glyph glyph-name="uni0312" unicode="&#x312;" horiz-adv-x="0" 
d="M129 1419l-196 -294h-205l299 294h102z" />
    <glyph glyph-name="uni031B" unicode="&#x31b;" horiz-adv-x="0" 
d="M-285 999l215 414h205l-319 -414h-101z" />
    <glyph glyph-name="uni0326" unicode="&#x326;" horiz-adv-x="0" 
d="M-618 -442l196 329h205l-299 -329h-102z" />
    <glyph glyph-name="uni0327" unicode="&#x327;" horiz-adv-x="0" 
d="M-624 -462q-43 38 -52 91l99 37q-3 -30 15 -51t52 -21q49 0 88.5 33.5t51.5 79.5q2 14 2 20q0 41 -38 69t-118 28h-41l127 176h117l-103 -121q76 -1 114.5 -40.5t38.5 -100.5q0 -27 -5 -47q-12 -48 -45.5 -92t-84 -71.5t-110.5 -27.5q-65 0 -108 38z" />
    <glyph glyph-name="uni0328" unicode="&#x328;" horiz-adv-x="0" 
d="M-615 -407.5q-46 43.5 -46 118.5q0 26 6 56q23 95 104 152t170 83l107 -2q-1 0 -59 -22.5t-133 -87t-91 -136.5q-4 -16 -4 -32q0 -32 16 -50t43 -18q87 0 150 70l78 -68q-48 -53 -99.5 -80t-119.5 -27q-76 0 -122 43.5z" />
    <glyph glyph-name="pi" unicode="&#x3c0;" horiz-adv-x="991" 
d="M629.5 4.5q-37.5 24.5 -56.5 65.5t-19 89q0 29 5 50l152 653h-295l-199 -862h-137l199 862h-82l30 137h734l-31 -137h-82l-154 -665q-6 -25 -6 -46q0 -59 51 -59q29 0 66 23l20 -109q-51 -26 -106 -26q-52 0 -89.5 24.5z" />
    <glyph glyph-name="uni0400" unicode="&#x400;" horiz-adv-x="1245" 
d="M109 0l325 1413h909l-26 -113h-774l-123 -538h661l-26 -109h-662l-123 -532h774l-26 -121h-909zM852 1540l-180 287h172l149 -287h-141z" />
    <glyph glyph-name="uni0401" unicode="&#x401;" horiz-adv-x="1245" 
d="M109 0l325 1413h909l-26 -113h-774l-123 -538h661l-26 -109h-662l-123 -532h774l-26 -121h-909zM699 1643l43 184h160l-43 -184h-160zM1031 1643l43 184h159l-43 -184h-159z" />
    <glyph glyph-name="uni0402" unicode="&#x402;" horiz-adv-x="1636" 
d="M743 115l111 80q27 -48 75.5 -69.5t123.5 -21.5q65 0 131 48t118 133t76 192q25 108 25 180q0 111 -62.5 164t-205.5 53q-108 0 -213.5 -43.5t-176.5 -113.5l-167 -717h-136l301 1309h-487l25 104h1108l-25 -104h-485l-107 -443q85 67 180 101t189 34q200 0 297 -87
t97 -259q0 -87 -26 -202q-29 -122 -99.5 -230t-167.5 -173.5t-200 -65.5q-216 0 -299 131z" />
    <glyph glyph-name="uni0403" unicode="&#x403;" horiz-adv-x="1081" 
d="M700 1538l279 289h154l-326 -289h-107zM109 0l325 1413h780l-24 -110h-647l-301 -1303h-133z" />
    <glyph glyph-name="uni0404" unicode="&#x404;" horiz-adv-x="1421" 
d="M373 43.5q-110 63.5 -163 176.5t-53 262q0 110 29 237q46 203 150.5 365t263.5 257t361 95q198 0 323.5 -96t163.5 -279l-129 -39q-8 152 -108 221.5t-259 69.5q-160 0 -286 -76t-210.5 -202.5t-127.5 -282.5l647 6l-21 -88l-649 -6q-17 -93 -17 -173q0 -180 89.5 -284.5
t277.5 -104.5q159 0 290.5 74.5t225.5 231.5l117 -64q-120 -181 -283.5 -272.5t-355.5 -91.5q-166 0 -276 63.5z" />
    <glyph glyph-name="uni0405" unicode="&#x405;" horiz-adv-x="1112" 
d="M270 27.5q-95 43.5 -151 128t-56 202.5l130 27q0 -133 73.5 -207t216.5 -74q109 0 191.5 41t127 110.5t44.5 152.5q0 71 -33.5 121t-83 82t-134.5 75q-91 46 -146 82.5t-93.5 97t-38.5 148.5q0 112 61.5 208.5t166 154t227.5 57.5q122 0 209.5 -57.5t124.5 -162.5
l-105 -55q-22 77 -86 118.5t-147 41.5q-81 0 -154.5 -37.5t-119 -102.5t-45.5 -143q0 -65 32 -111.5t79.5 -77t128.5 -69.5q94 -46 151 -84.5t97 -102t40 -157.5q0 -122 -66 -225t-180 -164t-252 -61q-114 0 -209 43.5z" />
    <glyph glyph-name="uni0406" unicode="&#x406;" horiz-adv-x="573" 
d="M104 0l326 1413h135l-325 -1413h-136z" />
    <glyph glyph-name="uni0407" unicode="&#x407;" horiz-adv-x="571" 
d="M305 1606l37 159h143l-36 -159h-144zM631 1606l37 159h143l-37 -159h-143zM104 0l326 1413h133l-325 -1413h-134z" />
    <glyph glyph-name="uni0408" unicode="&#x408;" horiz-adv-x="1116" 
d="M203 23.5q-76 43.5 -114 118.5t-38 171q0 38 6 78l133 8q-7 -45 -7 -77q0 -100 51 -163t159 -63q167 0 256 105t131 286l189 816h-533l25 110h667l-213 -926q-56 -244 -182.5 -375.5t-343.5 -131.5q-110 0 -186 43.5z" />
    <glyph glyph-name="uni0409" unicode="&#x409;" horiz-adv-x="2034" 
d="M29 -9.5q-44 10.5 -72 29.5l82 132q29 -12 49 -17.5t43 -5.5q73 0 146 120.5t132 294t97 341.5l123 528h827l-149 -649h245q174 0 270.5 -75t96.5 -213q0 -47 -12 -103q-28 -117 -99.5 -201t-179.5 -128t-242 -44h-389l301 1303h-561l-100 -431q-53 -227 -110.5 -408.5
t-162.5 -332.5t-251 -151q-40 0 -84 10.5zM1403 117q96 0 175 33.5t132 96.5t72 150q9 38 9 70q0 89 -65.5 134.5t-189.5 45.5h-256l-123 -530h246z" />
    <glyph glyph-name="uni040A" unicode="&#x40a;" horiz-adv-x="2015" 
d="M430 1413h133l-149 -651h739l150 651h135l-150 -649h246q173 0 270 -74.5t97 -212.5q0 -51 -13 -104q-27 -117 -99 -201t-179.5 -128t-241.5 -44h-391l149 651h-739l-149 -651h-134zM1384 117q95 0 173.5 33.5t131.5 96.5t72 150q9 38 9 70q0 89 -65 134.5t-187 45.5
h-256l-123 -530h245z" />
    <glyph glyph-name="uni040B" unicode="&#x40b;" horiz-adv-x="1657" 
d="M743 1309h-487l25 104h1108l-25 -104h-485l-105 -443q147 135 367 135q195 0 287.5 -104.5t92.5 -288.5q0 -101 -28 -227l-88 -381h-135l94 408q27 119 27 206q0 125 -60 192.5t-196 67.5q-108 0 -213.5 -43.5t-176.5 -113.5l-167 -717h-136z" />
    <glyph glyph-name="uni040C" unicode="&#x40c;" horiz-adv-x="1247" 
d="M721 1538l278 289h154l-326 -289h-106zM434 1413h133l-137 -590h170l530 590h170l-555 -602q62 0 109.5 -27.5t74.5 -65.5t29 -67l91 -651h-156l-74 592q-2 24 -21.5 53t-54.5 49.5t-81 20.5h-256l-164 -715h-133z" />
    <glyph glyph-name="uni040D" unicode="&#x40d;" horiz-adv-x="1452" 
d="M963 1546l-160 281h145l144 -281h-129zM434 1413h133l-254 -1098q-10 -51 -43 -141l15 4l979 1235h176l-326 -1413h-133l252 1096q17 70 45 143l-14 -4l-979 -1235h-176z" />
    <glyph glyph-name="uni040E" unicode="&#x40e;" horiz-adv-x="1128" 
d="M696.5 1581q-58.5 25 -92.5 73t-34 112q0 26 8 61h108q-4 -19 -4 -40q0 -61 39.5 -97.5t103.5 -36.5q52 0 103 24t88.5 64t48.5 86h109q-19 -85 -72 -146.5t-125.5 -93t-151.5 -31.5q-70 0 -128.5 25zM162 0l305 457l-172 956h145l125 -817l537 817h158l-949 -1413h-149z
" />
    <glyph glyph-name="uni040F" unicode="&#x40f;" horiz-adv-x="1444" 
d="M469 -307l72 307h-437l326 1413h133l-301 -1300h739l302 1300h133l-326 -1413h-436l-72 -307h-133z" />
    <glyph glyph-name="uni0410" unicode="&#x410;" horiz-adv-x="1294" 
d="M-41 0l846 1413h104l193 -1413h-141l-39 307h-633l-183 -307h-147zM358 434h551l-92 783z" />
    <glyph glyph-name="uni0411" unicode="&#x411;" horiz-adv-x="1245" 
d="M434 1413h727l-28 -121h-594l-117 -512h334q158 0 250.5 -73t92.5 -214q0 -58 -16 -122q-26 -115 -99.5 -198.5t-184 -128t-244.5 -44.5h-446zM578 123q78 0 158 36t139.5 100t78.5 144q7 31 7 60q0 93 -69 141.5t-175 48.5h-326l-121 -530h308z" />
    <glyph glyph-name="uni0412" unicode="&#x412;" horiz-adv-x="1243" 
d="M434 1413h361q106 0 193.5 -28t140 -88.5t52.5 -152.5q0 -42 -10 -85q-26 -114 -91.5 -189.5t-170.5 -130.5q87 -42 135.5 -106.5t48.5 -165.5q0 -47 -14 -111q-45 -193 -189 -274.5t-335 -81.5h-446zM643 778q90 0 169 31.5t135 95t77 156.5q9 41 9 72q0 91 -66.5 125
t-186.5 34h-243l-119 -514h225zM578 123q136 0 239 59.5t135 202.5q11 45 11 89q0 102 -67 141.5t-179 39.5h-326l-123 -532h310z" />
    <glyph glyph-name="uni0413" unicode="&#x413;" horiz-adv-x="1081" 
d="M109 0l325 1413h780l-24 -110h-647l-301 -1303h-133z" />
    <glyph glyph-name="uni0414" unicode="&#x414;" horiz-adv-x="1460" 
d="M-98 -240l80 353h116l781 1300h122l183 -1300h116l-79 -353h-134l56 240h-1053l-55 -240h-133zM236 113h817l-142 1140z" />
    <glyph glyph-name="uni0415" unicode="&#x415;" horiz-adv-x="1245" 
d="M109 0l325 1413h909l-26 -113h-774l-123 -538h661l-26 -109h-662l-123 -532h774l-26 -121h-909z" />
    <glyph glyph-name="uni0416" unicode="&#x416;" horiz-adv-x="1929" 
d="M365 664q16 29 57 63.5t99.5 59t121.5 24.5l-262 602h160l258 -590h174l137 590h133l-137 -590h170l530 590h170l-555 -602q61 0 109 -27.5t75 -65.5t29 -67l90 -651h-155l-72 592q-7 52 -48 87.5t-112 35.5h-256l-163 -715h-134l164 715h-243q-73 0 -132.5 -38
t-91.5 -97l-348 -580h-160z" />
    <glyph glyph-name="uni0417" unicode="&#x417;" horiz-adv-x="1106" 
d="M155 41.5q-103 61.5 -128 177.5l123 62q13 -94 86 -143.5t176 -49.5q90 0 177 37t152 110t88 175q9 39 9 71q0 103 -75.5 156t-195.5 53h-182l29 121h176q73 0 141.5 30.5t119 89t69.5 138.5q8 32 8 68q0 87 -57 135.5t-148 48.5q-70 0 -141 -31t-123.5 -88.5
t-69.5 -134.5l-127 12q25 111 94 191.5t166 122t203 41.5q95 0 168.5 -33t115 -95.5t41.5 -148.5q0 -44 -12 -94q-22 -97 -86 -177t-168 -130q87 -40 133.5 -112.5t46.5 -168.5q0 -49 -12 -102q-30 -130 -111 -218t-193 -131.5t-238 -43.5q-152 0 -255 61.5z" />
    <glyph glyph-name="uni0418" unicode="&#x418;" horiz-adv-x="1417" 
d="M109 0l325 1413h135l-297 -1288l918 1288h215l-326 -1413h-137l299 1290l-913 -1290h-219z" />
    <glyph glyph-name="uni0419" unicode="&#x419;" horiz-adv-x="1452" 
d="M884.5 1581q-58.5 25 -92.5 72.5t-34 112.5q0 26 8 61h108q-4 -19 -4 -40q0 -61 39.5 -97.5t104.5 -36.5q51 0 102.5 24t88.5 64t48 86h111q-19 -85 -72 -146.5t-126.5 -93t-151.5 -31.5q-71 0 -129.5 25zM434 1413h133l-254 -1098q-10 -51 -43 -141l15 4l979 1235h176
l-326 -1413h-133l252 1096q17 70 45 143l-14 -4l-979 -1235h-176z" />
    <glyph glyph-name="uni041A" unicode="&#x41a;" horiz-adv-x="1247" 
d="M434 1413h133l-137 -590h170l530 590h170l-555 -602q62 0 109.5 -27.5t74.5 -65.5t29 -67l91 -651h-156l-74 592q-2 24 -21.5 53t-54.5 49.5t-81 20.5h-256l-164 -715h-133z" />
    <glyph glyph-name="uni041B" unicode="&#x41b;" horiz-adv-x="1321" 
d="M-41 0l848 1413h123l198 -1413h-133l-155 1253l-740 -1253h-141z" />
    <glyph glyph-name="uni041C" unicode="&#x41c;" horiz-adv-x="1761" 
d="M109 0l325 1413h236l145 -1167l694 1167h240l-326 -1413h-135l309 1331l-725 -1208h-155l-162 1208l-309 -1331h-137z" />
    <glyph glyph-name="uni041D" unicode="&#x41d;" horiz-adv-x="1454" 
d="M109 0l325 1413h135l-149 -651h737l150 651h135l-326 -1413h-135l149 653h-737l-149 -653h-135z" />
    <glyph glyph-name="uni041E" unicode="&#x41e;" horiz-adv-x="1524" 
d="M376.5 44.5q-109.5 64.5 -162 178.5t-52.5 263q0 114 28 233q46 199 151.5 361.5t265 258t358.5 95.5q166 0 276.5 -64.5t163.5 -178.5t53 -264q0 -114 -28 -233q-47 -200 -152.5 -361.5t-265.5 -257t-361 -95.5q-165 0 -274.5 64.5zM964 190q134 84 221 223t126 306
q23 103 23 195q0 178 -91.5 285.5t-286.5 107.5q-168 0 -300.5 -84t-219 -223.5t-125.5 -305.5q-24 -107 -24 -196q0 -177 90.5 -284.5t279.5 -107.5q173 0 307 84z" />
    <glyph glyph-name="uni041F" unicode="&#x41f;" horiz-adv-x="1444" 
d="M104 0l326 1413h1006l-326 -1413h-133l301 1303h-739l-301 -1303h-134z" />
    <glyph glyph-name="uni0420" unicode="&#x420;" horiz-adv-x="1145" 
d="M430 1413h379q173 0 270 -76.5t97 -214.5q0 -51 -13 -104q-41 -178 -177 -273.5t-341 -95.5h-256l-149 -649h-136zM662 768q147 0 246.5 70.5t129.5 203.5q8 32 8 68q0 90 -64.5 139t-186.5 49h-256l-123 -530h246z" />
    <glyph glyph-name="uni0421" unicode="&#x421;" horiz-adv-x="1421" 
d="M373 43.5q-110 63.5 -163 176.5t-53 262q0 110 29 237q46 203 150.5 365t263.5 257t361 95q198 0 323.5 -96t163.5 -279l-129 -39q-8 152 -108 221.5t-259 69.5q-167 0 -298 -83t-215.5 -220.5t-123.5 -304.5q-26 -115 -26 -214q0 -179 88.5 -284t277.5 -105
q159 0 290.5 74.5t225.5 231.5l117 -64q-120 -181 -283.5 -272.5t-355.5 -91.5q-166 0 -276 63.5z" />
    <glyph glyph-name="uni0422" unicode="&#x422;" horiz-adv-x="1247" 
d="M442 0l301 1309h-487l25 104h1108l-25 -104h-487l-302 -1309h-133z" />
    <glyph glyph-name="uni0423" unicode="&#x423;" horiz-adv-x="1128" 
d="M162 0l305 457l-172 956h145l125 -817l537 817h158l-949 -1413h-149z" />
    <glyph glyph-name="uni0424" unicode="&#x424;" horiz-adv-x="1679" 
d="M690 119q-263 0 -394 99.5t-131 302.5q0 91 25 198q69 297 258 445.5t506 148.5l29 100h135l-28 -100q261 0 391 -104.5t130 -310.5q0 -89 -26 -204q-67 -294 -253 -434.5t-507 -140.5l-32 -119h-136zM936 1188q-261 0 -415 -124t-210 -370q-20 -89 -20 -156
q0 -152 100.5 -223t315.5 -71zM1256 360q152 116 208 359q20 83 20 159q0 156 -101 233t-312 77l-229 -944q262 0 414 116z" />
    <glyph glyph-name="uni0425" unicode="&#x425;" horiz-adv-x="1251" 
d="M-27 0l629 707l-297 706h156l231 -598l518 598h162l-627 -706l299 -707h-153l-244 588l-510 -588h-164z" />
    <glyph glyph-name="uni0426" unicode="&#x426;" horiz-adv-x="1468" 
d="M1069 -240l55 240h-1015l325 1413h133l-301 -1300h740l301 1300h133l-301 -1300h141l-80 -353h-131z" />
    <glyph glyph-name="uni0427" unicode="&#x427;" horiz-adv-x="1323" 
d="M979 547q-147 -135 -369 -135q-194 0 -286.5 104t-92.5 288q0 104 29 228l88 381h135l-94 -407q-27 -121 -27 -207q0 -125 60 -192.5t194 -67.5q108 0 213 43.5t179 113.5l168 717h135l-326 -1413h-135z" />
    <glyph glyph-name="uni0428" unicode="&#x428;" horiz-adv-x="1739" 
d="M109 0l325 1413h133l-301 -1300h443l301 1300h135l-301 -1300h448l301 1300h133l-325 -1413h-1292z" />
    <glyph glyph-name="uni0429" unicode="&#x429;" horiz-adv-x="1751" 
d="M1352 -240l55 240h-1303l326 1413h133l-301 -1300h443l301 1300h135l-301 -1300h448l301 1300h133l-301 -1300h142l-80 -353h-131z" />
    <glyph glyph-name="uni042A" unicode="&#x42a;" horiz-adv-x="1358" 
d="M623 1311h-367l25 102h499l-149 -649h246q173 0 269.5 -75t96.5 -213q0 -47 -12 -103q-27 -117 -99 -201t-179.5 -128t-241.5 -44h-389zM727 117q96 0 175 33.5t132 96.5t72 150q9 38 9 70q0 89 -65.5 134.5t-189.5 45.5h-256l-123 -530h246z" />
    <glyph glyph-name="uni042B" unicode="&#x42b;" horiz-adv-x="1597" 
d="M430 1413h135l-149 -649h243q174 0 271.5 -75t97.5 -213q0 -47 -12 -103q-27 -117 -99 -201t-180 -128t-243 -44h-390zM1130 0l326 1413h133l-325 -1413h-134zM510 117q96 0 175 33.5t132 96.5t72 150q9 38 9 70q0 89 -65.5 134.5t-189.5 45.5h-254l-123 -530h244z" />
    <glyph glyph-name="uni042C" unicode="&#x42c;" horiz-adv-x="1143" 
d="M430 1413h135l-149 -649h243q174 0 271.5 -75t97.5 -213q0 -47 -12 -103q-27 -117 -99 -201t-180 -128t-243 -44h-390zM510 117q96 0 175 33.5t132 96.5t72 150q9 38 9 70q0 89 -65.5 134.5t-189.5 45.5h-254l-123 -530h244z" />
    <glyph glyph-name="uni042D" unicode="&#x42d;" horiz-adv-x="1419" 
d="M229 77q-126 97 -161 279l129 39q22 -155 114.5 -224t247.5 -69q161 0 289 76.5t214 206t130 291.5l-649 -6l20 88l647 6q16 83 16 164q0 176 -88 280.5t-274 104.5q-165 0 -303 -74.5t-217 -228.5l-115 63q121 181 284 272t355 91q165 0 275 -63.5t162.5 -176.5
t52.5 -262q0 -112 -29 -240q-46 -202 -151 -363.5t-264 -256t-361 -94.5q-198 0 -324 97z" />
    <glyph glyph-name="uni042E" unicode="&#x42e;" horiz-adv-x="1862" 
d="M719 44q-110 64 -162.5 177t-52.5 261q0 88 16 175l-133 -6l-149 -651h-134l326 1413h133l-149 -651l131 6q54 191 159 341.5t259 237.5t346 87q167 0 277.5 -64t163.5 -177t53 -262q0 -110 -29 -237q-47 -201 -151.5 -362.5t-264.5 -256.5t-363 -95q-166 0 -276 64z
M1304.5 190q133.5 84 220.5 223t126 306q23 103 23 195q0 178 -91 285.5t-283 107.5q-168 0 -301 -84t-219 -223t-125 -306q-24 -102 -24 -198q0 -177 90 -283.5t280 -106.5q170 0 303.5 84z" />
    <glyph glyph-name="uni042F" unicode="&#x42f;" horiz-adv-x="1208" 
d="M733 -2l146 641h-250l-500 -641h-156l525 659q-106 43 -160 123t-54 186q0 54 13 107q42 175 177 256.5t333 81.5h385l-324 -1413h-135zM1028 1292h-262q-132 0 -227 -66t-125 -188q-8 -33 -8 -69q0 -91 62 -142.5t165 -56.5h276z" />
    <glyph glyph-name="uni0430" unicode="&#x430;" 
d="M1061 999l-230 -999h-124l29 135q-69 -74 -152.5 -114.5t-190.5 -40.5q-98 0 -166.5 45t-102.5 125.5t-34 185.5q0 85 21 176q33 143 105 258.5t174 182.5t220 67q214 0 289 -170l37 149h125zM852 661q0 111 -51.5 176.5t-161.5 65.5q-103 0 -185.5 -57t-137 -151
t-80.5 -208q-19 -76 -19 -148q0 -112 52 -178.5t161 -66.5q105 0 187 57t136.5 151.5t80.5 209.5q18 78 18 149z" />
    <glyph glyph-name="uni0431" unicode="&#x431;" horiz-adv-x="1169" 
d="M927 912q75 -46 113 -127t38 -185q0 -74 -17 -145q-31 -132 -111.5 -240.5t-194.5 -171.5t-239 -63q-108 0 -185.5 47t-118 128.5t-40.5 184.5q0 59 16 131l86 377q38 161 118.5 256.5t185.5 150.5q219 96 475 181l-19 -125l-91 -35q-129 -48 -201.5 -79.5t-129.5 -66.5
q-95 -52 -148 -126.5t-81 -194.5l-4 -17q68 70 165 118t201 48q107 0 182 -46zM944 613q0 110 -54.5 175.5t-172.5 65.5q-109 0 -192.5 -54t-137 -144t-78.5 -199q-17 -73 -17 -136q0 -109 54 -174t170 -65q111 0 195.5 54.5t138 145t78.5 199.5q16 72 16 132z" />
    <glyph glyph-name="uni0432" unicode="&#x432;" horiz-adv-x="1135" 
d="M199.5 49.5q-86.5 69.5 -86.5 227.5q0 94 30 223l113 489q103 445 502 445q160 0 249.5 -63t89.5 -191q0 -45 -12 -99q-9 -39 -44.5 -93t-95 -101t-136.5 -66q63 -1 106.5 -38t65 -97.5t21.5 -132.5q0 -60 -13 -113q-32 -140 -107 -244t-181.5 -160t-231.5 -56
q-183 0 -269.5 69.5zM721 185q94 97 135 276q12 53 12 95q0 104 -59 155t-150 51q-64 0 -121 -13t-108 -51l16 117q55 29 125 38.5t144 12.5q60 2 109.5 41t81.5 94.5t44 106.5q8 33 8 68q0 75 -50.5 110t-153.5 35q-118 0 -191.5 -39.5t-113 -108.5t-62.5 -169l-121 -519
q-32 -137 -32 -216q0 -71 24 -110.5t72 -55t127 -15.5q170 0 264 97z" />
    <glyph glyph-name="uni0433" unicode="&#x433;" horiz-adv-x="860" 
d="M96.5 33q-81.5 53 -81.5 155q0 27 8 64q22 94 78.5 153.5t125 91.5t175.5 67q88 29 139 51.5t90.5 59.5t52.5 93q5 19 5 40q0 48 -36 66.5t-100 18.5q-158 0 -258 -135l-92 71q66 85 155.5 135t200.5 50q72 0 130 -25.5t91.5 -73t33.5 -110.5q0 -29 -7 -57
q-21 -93 -76 -150.5t-121.5 -88t-171.5 -64.5q-90 -29 -143.5 -52.5t-95.5 -63.5t-56 -102q-5 -25 -5 -39q0 -58 45 -76t122 -18q58 0 118.5 26t110.5 70t78 97l95 -76q-35 -64 -97 -116.5t-140.5 -83.5t-162.5 -31q-129 0 -210.5 53z" />
    <glyph glyph-name="uni0434" unicode="&#x434;" horiz-adv-x="1126" 
d="M654.5 -319.5q-128.5 -112.5 -322.5 -112.5q-125 0 -215 51t-129 148l108 61q58 -152 238 -152q94 0 171 43t128.5 118t73.5 169l34 135q-67 -74 -152 -117.5t-188 -43.5q-153 0 -232.5 96.5t-79.5 257.5q0 79 22 178q33 144 104.5 259.5t175 182t227.5 66.5
q105 0 176 -46.5t105 -125.5l37 151h127l-234 -1005q-46 -201 -174.5 -313.5zM616 146.5q82 58.5 137 155t81 210.5q19 82 19 152q0 112 -50.5 178.5t-159.5 66.5q-104 0 -187.5 -58t-138.5 -153.5t-81 -210.5q-20 -80 -20 -151q0 -112 52.5 -180t161.5 -68q104 0 186 58.5z
" />
    <glyph glyph-name="uni0435" unicode="&#x435;" horiz-adv-x="1030" 
d="M170.5 84.5q-87.5 96.5 -87.5 259.5q0 79 19 162q31 136 104 251.5t181.5 185t239.5 69.5q172 0 249.5 -90.5t77.5 -245.5q0 -89 -26 -203q0 2 -2.5 -6.5t-5.5 -15.5h-699q-17 -65 -17 -122q0 -105 57 -169t169 -64q99 0 175.5 25t146.5 86l79 -74q-98 -78 -191.5 -111.5
t-209.5 -33.5q-172 0 -259.5 96.5zM831 559q18 69 18 126q0 101 -56.5 156.5t-169.5 55.5q-95 0 -172.5 -46t-129.5 -122.5t-75 -169.5h585z" />
    <glyph glyph-name="uni0436" unicode="&#x436;" horiz-adv-x="1411" 
d="M203 436q38 65 86.5 110.5t99.5 45.5l-147 407h153l131 -374h148l182 788h127l-182 -788h141l305 374h162l-346 -407q49 0 77 -50.5t36 -117.5l63 -424h-141l-37 367q-9 80 -38.5 112.5t-94.5 32.5h-154l-117 -512h-127l117 512h-143q-64 0 -113 -38.5t-94 -119.5
l-207 -354h-147z" />
    <glyph glyph-name="uni0437" unicode="&#x437;" horiz-adv-x="899" 
d="M30.5 -439.5q-60.5 21.5 -99 55.5t-93.5 99l96 66q35 -69 91.5 -101t148.5 -32q155 0 254.5 107t140.5 284q13 53 13 99q0 103 -60.5 152.5t-154.5 49.5h-213l24 111l256 2q52 13 101 50.5t83.5 87t45.5 95.5q11 52 11 86q0 78 -48.5 110.5t-153.5 32.5
q-85 0 -161.5 -44.5t-127.5 -110.5l-80 63q69 88 164.5 138.5t204.5 50.5q156 0 240.5 -60t84.5 -184q0 -47 -14 -109q-10 -41 -41 -93.5t-86 -99.5t-129 -67q89 -2 136.5 -77t47.5 -186q0 -57 -14 -118q-32 -142 -105.5 -250.5t-178.5 -168.5t-228 -60q-95 0 -155.5 21.5z
" />
    <glyph glyph-name="uni0438" unicode="&#x438;" horiz-adv-x="1110" 
d="M179.5 53q-65.5 76 -65.5 205q0 69 19 154l135 587h125l-139 -610q-18 -79 -18 -135q0 -79 35 -126.5t116 -47.5q86 0 173 50t151 130.5t84 165.5l131 573h123l-230 -999h-123l43 176q-29 -46 -83 -92t-125.5 -76.5t-147.5 -30.5q-138 0 -203.5 76z" />
    <glyph glyph-name="uni0439" unicode="&#x439;" horiz-adv-x="1153" 
d="M591 1168q-58 25 -92 72t-34 111q0 27 8 62h107q-5 -23 -5 -40q0 -61 40.5 -97.5t103.5 -36.5q52 0 103.5 24t89 64t49.5 86h106q-19 -85 -71.5 -146t-125.5 -92.5t-151 -31.5q-70 0 -128 25zM212 52.5q-65 75.5 -65 203.5q0 70 19 154l135 589h125l-139 -608
q-18 -81 -18 -137q0 -174 153 -174q86 0 172.5 50t149.5 131t83 167l131 571h123l-229 -999h-123l41 174q-27 -43 -81.5 -88.5t-126.5 -77t-146 -31.5q-139 0 -204 75.5z" />
    <glyph glyph-name="uni043A" unicode="&#x43a;" horiz-adv-x="954" 
d="M397 1413h127l-182 -788h141l305 374h162l-346 -407q49 0 77.5 -50.5t37.5 -117.5l63 -424h-143l-37 367q-9 80 -38.5 112.5t-94.5 32.5h-154l-116 -512h-127z" />
    <glyph glyph-name="uni043B" unicode="&#x43b;" horiz-adv-x="932" 
d="M-70 0l594 999h117l131 -999h-135l-90 836l-479 -836h-138z" />
    <glyph glyph-name="uni043C" unicode="&#x43c;" horiz-adv-x="1399" 
d="M72 0l229 999h182l135 -841l523 839h186l-229 -997h-129l194 840l-526 -840h-100l-142 838l-194 -838h-129z" />
    <glyph glyph-name="uni043D" unicode="&#x43d;" horiz-adv-x="1153" 
d="M72 0l229 999h127l-92 -399h528l92 399h125l-229 -999h-125l115 498h-529l-114 -498h-127z" />
    <glyph glyph-name="uni043E" unicode="&#x43e;" 
d="M254.5 29.5q-83.5 49.5 -127.5 137.5t-44 200q0 65 17 141q32 139 115.5 254t202 182.5t250.5 67.5q114 0 198 -50.5t128.5 -139t44.5 -200.5q0 -65 -17 -139q-32 -138 -116.5 -253.5t-203.5 -182.5t-249 -67q-115 0 -198.5 49.5zM657.5 149q87.5 57 143.5 151.5
t82 207.5q18 80 18 142q0 114 -56.5 181.5t-180.5 67.5q-112 0 -199 -57t-143 -151.5t-82 -207.5q-18 -80 -18 -141q0 -114 56.5 -182t178.5 -68q113 0 200.5 57z" />
    <glyph glyph-name="uni043F" unicode="&#x43f;" 
d="M301 999h125l-41 -163q64 81 159.5 130.5t192.5 49.5q140 0 206 -74t66 -199q0 -69 -16 -137l-139 -606h-125l139 602q15 68 15 120q0 173 -160 173q-86 0 -170 -46t-145.5 -122t-81.5 -162l-129 -565h-125z" />
    <glyph glyph-name="uni0440" unicode="&#x440;" 
d="M301 999h125l-35 -141q142 162 346 162q101 0 170 -44.5t103.5 -125t34.5 -186.5q0 -84 -21 -177q-34 -145 -106.5 -260t-174.5 -181t-223 -66q-215 0 -287 174l-139 -592h-125zM676.5 146q83.5 58 139.5 153.5t83 210.5q19 82 19 149q0 114 -53 182t-163 68
q-104 0 -186.5 -58t-137 -154t-81.5 -212q-19 -82 -19 -150q0 -112 51.5 -179.5t159.5 -67.5q104 0 187.5 58z" />
    <glyph glyph-name="uni0441" unicode="&#x441;" horiz-adv-x="975" 
d="M233.5 27.5q-74.5 47.5 -110.5 130t-36 189.5q0 81 19 163q32 136 105 251.5t181.5 185t240.5 69.5t216.5 -70t111.5 -190l-125 -41q-1 93 -57.5 145.5t-147.5 52.5q-105 0 -187.5 -63.5t-136.5 -161t-78 -203.5q-18 -82 -18 -153q0 -112 48 -181t157 -69q99 0 187 58.5
t132 152.5l96 -62q-72 -121 -179 -186t-234 -65q-110 0 -184.5 47.5z" />
    <glyph glyph-name="uni0442" unicode="&#x442;" horiz-adv-x="1704" 
d="M301 999h127l-43 -182q50 91 134.5 146t178.5 55q115 0 187.5 -56.5t83.5 -158.5q135 213 346 213q142 0 208 -74.5t66 -199.5q0 -68 -16 -136l-139 -606h-127l139 602q17 73 17 132q0 82 -37 131.5t-123 49.5q-84 0 -158.5 -50t-126.5 -130t-72 -168l-131 -567h-127
l139 606q17 77 17 134q0 175 -158 175q-84 0 -158.5 -50t-126 -130t-71.5 -168l-131 -567h-127z" />
    <glyph glyph-name="uni0443" unicode="&#x443;" horiz-adv-x="973" 
d="M53 -430l264 432l-149 997h137l101 -847l491 847h141l-856 -1429h-129z" />
    <glyph glyph-name="uni0444" unicode="&#x444;" horiz-adv-x="1372" 
d="M510 -16q-23 -4 -64 -4q-113 0 -196 49.5t-127 137.5t-44 200q0 65 17 141q32 139 115.5 254t202 182.5t248.5 67.5q35 0 71 -8l101 409h127l-101 -405q23 4 62 4q114 0 197.5 -50t127.5 -138t44 -200q0 -65 -17 -141q-32 -139 -115.5 -254t-202 -182t-249.5 -67
q-34 0 -70 8l-102 -418h-127zM524 98l195 797q-19 4 -62 4q-112 0 -198.5 -56.5t-142 -150.5t-83.5 -209q-18 -80 -18 -143q0 -114 56.5 -181t179.5 -67q43 0 73 6zM910 149q87 57 143.5 150.5t83.5 208.5q18 80 18 142q0 114 -57 181.5t-180 67.5q-32 0 -72 -8l-195 -797
q10 -2 29 -2h31q112 0 199 57z" />
    <glyph glyph-name="uni0445" unicode="&#x445;" horiz-adv-x="901" 
d="M-59 0l450 504l-217 495h150l149 -383l332 383h153l-446 -495l213 -504h-145l-150 389l-332 -389h-157z" />
    <glyph glyph-name="uni0446" unicode="&#x446;" horiz-adv-x="1130" 
d="M838 -23q-47 0 -79 40.5t-32 102.5q0 32 8 60q-28 -45 -82.5 -92.5t-126.5 -79t-147 -31.5q-140 0 -205.5 76t-65.5 205q0 68 19 152l135 589h127l-139 -608q-18 -81 -18 -137q0 -174 153 -174q86 0 172.5 50t150 131t83.5 167l131 571h127l-185 -800q-6 -25 -6 -47
q0 -50 30.5 -74.5t80.5 -24.5l-111 -360h-92z" />
    <glyph glyph-name="uni0447" unicode="&#x447;" horiz-adv-x="1077" 
d="M752 440q-27 -43 -82 -88.5t-126.5 -76.5t-146.5 -31q-140 0 -205.5 76t-65.5 204q0 68 19 152l74 323h127l-78 -342q-18 -81 -18 -137q0 -174 153 -174q87 0 173.5 50t149.5 131t83 167l70 305h127l-230 -999h-127z" />
    <glyph glyph-name="uni0448" unicode="&#x448;" horiz-adv-x="1735" 
d="M848.5 38.5q-72.5 56.5 -82.5 158.5q-70 -109 -155.5 -161t-190.5 -52q-142 0 -208 74.5t-66 199.5q0 67 16 137l139 604h127l-139 -602q-17 -73 -17 -132q0 -82 36.5 -131.5t121.5 -49.5q84 0 159 50t127.5 130t71.5 168l132 567h127l-140 -606q-17 -76 -17 -134
q0 -175 157 -175q84 0 159 50t127 130t72 168l131 567h127l-229 -999h-127l43 182q-51 -89 -136 -144.5t-178 -55.5q-115 0 -187.5 56.5z" />
    <glyph glyph-name="uni0449" unicode="&#x449;" horiz-adv-x="1708" 
d="M1415 -23q-30 0 -55.5 20t-40 54t-14.5 75q0 28 8 60q-50 -93 -134.5 -148.5t-179.5 -55.5q-115 0 -187.5 56.5t-82.5 158.5q-70 -109 -155.5 -161t-190.5 -52q-142 0 -208 74.5t-66 199.5q0 67 16 137l139 604h127l-139 -602q-17 -73 -17 -132q0 -82 36.5 -131.5
t121.5 -49.5q84 0 159 50t127.5 130t72.5 168l131 567h127l-140 -606q-17 -75 -17 -133q0 -176 157 -176q84 0 159 50t127 130t72 168l131 567h127l-184 -800q-6 -27 -6 -48q0 -50 30 -74t80 -24l-110 -360h-93z" />
    <glyph glyph-name="uni044A" unicode="&#x44a;" horiz-adv-x="1149" 
d="M344.5 11q-74.5 31 -118.5 94.5t-44 155.5q0 51 13 104l120 526h-188l25 108h317l-82 -342q30 38 83.5 72t120 55t132.5 21q91 0 162.5 -32t113 -98t41.5 -165q0 -61 -16 -129q-32 -136 -109.5 -226t-182.5 -132.5t-222 -42.5q-91 0 -165.5 31zM693 132.5
q72 40.5 121.5 112t70.5 161.5q10 41 10 81q0 93 -55 149t-154 56q-80 0 -153.5 -34.5t-125.5 -95t-69 -136.5l-19 -80q-8 -35 -8 -64q0 -87 59.5 -138.5t166.5 -51.5q84 0 156 40.5z" />
    <glyph glyph-name="uni044B" unicode="&#x44b;" horiz-adv-x="1403" 
d="M321 11.5q-77 31.5 -123 96t-46 158.5q0 45 12 99l145 634h129l-82 -342q49 63 126.5 105.5t172.5 42.5t175 -34t128.5 -104t48.5 -173q0 -49 -14 -113q-31 -135 -110.5 -225.5t-183 -133t-210.5 -42.5q-91 0 -168 31.5zM1063 0l229 999h127l-229 -999h-127zM653 133
q75 41 128 112.5t73 160.5q10 40 10 80q0 94 -56 150t-155 56q-78 0 -148 -35t-121.5 -95.5t-76.5 -135.5l-20 -80q-3 -24 -3 -47q0 -95 55.5 -151t154.5 -56q84 0 159 41z" />
    <glyph glyph-name="uni044C" unicode="&#x44c;" horiz-adv-x="1110" 
d="M302 11.5q-77 31.5 -123 96t-46 158.5q0 47 12 99l146 634h129l-82 -342q48 63 126 105.5t173 42.5t174.5 -34t128 -104.5t48.5 -173.5q0 -54 -13 -112q-31 -135 -110.5 -225.5t-183 -133t-210.5 -42.5q-92 0 -169 31.5zM634.5 133q75.5 41 128.5 112.5t73 160.5
q10 47 10 79q0 94 -55.5 150.5t-155.5 56.5q-78 0 -148 -35t-121.5 -95.5t-76.5 -135.5l-21 -80q-3 -24 -3 -45q0 -96 55.5 -152.5t154.5 -56.5q84 0 159.5 41z" />
    <glyph glyph-name="uni044D" unicode="&#x44d;" horiz-adv-x="965" 
d="M118.5 49.5q-81.5 69.5 -95.5 194.5l112 37q3 -91 58 -145t145 -54q95 0 172.5 52t131 134.5t83.5 177.5l-418 -6l23 95l418 6q10 65 10 116q0 115 -48 185.5t-157 70.5q-98 0 -184.5 -58.5t-132.5 -152.5l-109 66q80 120 189.5 184t238.5 64q110 0 183.5 -46.5
t109 -127.5t35.5 -186q0 -82 -21 -171q-31 -138 -104 -253t-181 -183.5t-241 -68.5q-136 0 -217.5 69.5z" />
    <glyph glyph-name="uni044E" unicode="&#x44e;" horiz-adv-x="1421" 
d="M556 29.5q-84 49.5 -128 137t-44 198.5q0 65 17 139l-88 -6l-114 -498h-127l325 1413h127l-188 -813l96 6q47 117 129 209.5t187.5 144.5t220.5 52q113 0 196 -50t127 -138t44 -200q0 -65 -17 -141q-32 -138 -115.5 -253.5t-201.5 -182.5t-248 -67q-114 0 -198 49.5z
M957 149q87 57 143.5 151t83.5 208q18 80 18 142q0 114 -57 181.5t-180 67.5q-113 0 -200 -57t-143 -151t-83 -208q-18 -80 -18 -142q0 -114 57 -181.5t180 -67.5q112 0 199 57z" />
    <glyph glyph-name="uni044F" unicode="&#x44f;" horiz-adv-x="975" 
d="M186 360q98 156 189 156q-91 17 -140.5 60.5t-49.5 124.5q0 37 10 77q14 59 55 109t114.5 81t178.5 31h360l-229 -999h-127l108 471h-149q-64 0 -113 -38.5t-94 -119.5l-186 -313h-146zM682 586l72 317h-219q-78 0 -132 -42.5t-69 -112.5q-6 -27 -6 -50q0 -56 43.5 -84
t146.5 -28h164z" />
    <glyph glyph-name="uni0450" unicode="&#x450;" horiz-adv-x="1030" 
d="M170.5 84.5q-87.5 96.5 -87.5 259.5q0 79 19 162q31 136 104 251.5t181.5 185t239.5 69.5q172 0 249.5 -90.5t77.5 -245.5q0 -89 -26 -203q0 2 -2.5 -6.5t-5.5 -15.5h-699q-17 -65 -17 -122q0 -105 57 -169t169 -64q99 0 175.5 25t146.5 86l79 -74q-98 -78 -191.5 -111.5
t-209.5 -33.5q-172 0 -259.5 96.5zM831 559q18 69 18 126q0 101 -56.5 156.5t-169.5 55.5q-95 0 -172.5 -46t-129.5 -122.5t-75 -169.5h585zM582 1126l-180 287h172l149 -287h-141z" />
    <glyph glyph-name="uni0451" unicode="&#x451;" horiz-adv-x="1030" 
d="M170.5 84.5q-87.5 96.5 -87.5 259.5q0 79 19 162q31 136 104 251.5t181.5 185t239.5 69.5q172 0 249.5 -90.5t77.5 -245.5q0 -89 -26 -203q0 2 -2.5 -6.5t-5.5 -15.5h-699q-17 -65 -17 -122q0 -105 57 -169t169 -64q99 0 175.5 25t146.5 86l79 -74q-98 -78 -191.5 -111.5
t-209.5 -33.5q-172 0 -259.5 96.5zM831 559q18 69 18 126q0 101 -56.5 156.5t-169.5 55.5q-95 0 -172.5 -46t-129.5 -122.5t-75 -169.5h585zM429 1229l43 184h160l-43 -184h-160zM761 1229l43 184h159l-43 -184h-159z" />
    <glyph glyph-name="uni0452" unicode="&#x452;" horiz-adv-x="1108" 
d="M267.5 -438.5q-56.5 22.5 -99.5 62.5t-90 104l100 63q32 -50 59 -79.5t63 -47.5t85 -18q105 0 171 48.5t102.5 130.5t64.5 206l131 569q18 72 18 129q0 168 -161 168q-88 0 -173.5 -49.5t-147.5 -131.5t-83 -175l-125 -541h-123l265 1151h-193l25 104h192l37 158h123
l-37 -158h320l-25 -104h-320l-75 -322q64 83 165.5 134t198.5 51q136 0 201 -73.5t65 -195.5q0 -59 -16 -131l-141 -608q-51 -220 -160 -343.5t-285 -123.5q-75 0 -131.5 22.5z" />
    <glyph glyph-name="uni0453" unicode="&#x453;" horiz-adv-x="760" 
d="M473 1124l277 289h153l-323 -289h-107zM61 0l230 999h549l-23 -102h-424l-207 -897h-125z" />
    <glyph glyph-name="uni0454" unicode="&#x454;" horiz-adv-x="969" 
d="M226.5 27q-74.5 47 -110 129t-35.5 188q0 83 19 166q32 139 104 254t180.5 183.5t242.5 68.5q133 0 218 -69.5t109 -190.5l-125 -41q-3 93 -58.5 145.5t-145.5 52.5q-98 0 -177 -56t-132 -143t-83 -186l418 7l-22 -95l-418 -6q-7 -45 -7 -95q0 -115 48.5 -186t157.5 -71
q98 0 185 59t132 152l98 -62q-71 -123 -177.5 -187t-235.5 -64q-111 0 -185.5 47z" />
    <glyph glyph-name="uni0455" unicode="&#x455;" horiz-adv-x="860" 
d="M180.5 13.5q-68.5 33.5 -108 89t-45.5 120.5l116 51q4 -52 33 -93t74 -64t98 -23q91 0 166 45t98 146q5 23 5 37q0 44 -26.5 71t-67 41.5t-108.5 31.5q-82 21 -132.5 41t-86 61.5t-35.5 109.5q0 32 9 72q17 74 70.5 134.5t128 95t151.5 34.5q115 0 185.5 -55t99.5 -142
l-109 -47q-18 62 -62 92.5t-120 30.5q-83 0 -151 -45t-87 -127q-3 -15 -3 -27q0 -35 24.5 -57t61.5 -34.5t101 -27.5q88 -20 143 -41.5t94.5 -66.5t39.5 -121q0 -38 -10 -82q-19 -84 -78 -148.5t-141.5 -100t-169.5 -35.5q-89 0 -157.5 33.5z" />
    <glyph glyph-name="uni0456" unicode="&#x456;" horiz-adv-x="485" 
d="M334 1231l43 182h155l-43 -182h-155zM63 0l230 999h127l-230 -999h-127z" />
    <glyph glyph-name="uni0457" unicode="&#x457;" horiz-adv-x="479" 
d="M164 1192l37 160h143l-37 -160h-143zM489 1192l37 160h144l-37 -160h-144zM51 0l230 999h147l-229 -999h-148z" />
    <glyph glyph-name="uni0458" unicode="&#x458;" horiz-adv-x="477" 
d="M328 1239l43 184h155l-43 -184h-155zM-213 -431.5q-33 6.5 -54.5 14t-27.5 9.5l41 82q9 -2 39.5 -6t62.5 -4q69 0 112.5 46t57.5 108l273 1181h127l-271 -1171q-28 -126 -101.5 -196t-192.5 -70q-33 0 -66 6.5z" />
    <glyph glyph-name="uni0459" unicode="&#x459;" horiz-adv-x="1599" 
d="M31.5 -11.5q-28.5 11.5 -68.5 31.5l55 95q4 -2 18 -11.5t29.5 -15.5t30.5 -6q29 0 63 31t84.5 151.5t106.5 362.5l86 372h596l-78 -344h191q149 0 232.5 -49t83.5 -180q0 -52 -15 -121q-22 -93 -87.5 -162.5t-158.5 -106t-196 -36.5h-326l207 897h-348l-66 -285
q-86 -374 -189 -504.5t-194 -130.5q-28 0 -56.5 11.5zM1016 100q107 0 185.5 53.5t107.5 176.5q11 50 11 83q0 80 -49 111t-138 31h-203l-105 -455h191z" />
    <glyph glyph-name="uni045A" unicode="&#x45a;" horiz-adv-x="1651" 
d="M301 999h125l-92 -399h532l92 399h123l-92 -399h195q99 0 168.5 -16t111.5 -62t42 -130q0 -47 -13 -105q-22 -93 -86 -158t-155.5 -97t-196.5 -32h-326l115 498h-533l-114 -498h-125zM1067 100q112 0 186.5 44.5t102.5 166.5q10 43 10 76q0 53 -25 77.5t-63.5 30
t-106.5 5.5h-204l-93 -400h193z" />
    <glyph glyph-name="uni045B" unicode="&#x45b;" horiz-adv-x="1118" 
d="M941 942q64 -74 64 -196q0 -65 -16 -132l-141 -614h-127l139 604q16 75 16 126q0 167 -157 167q-90 0 -176 -49.5t-148.5 -131.5t-83.5 -175l-125 -541h-123l261 1132h-191l25 105h190l41 176h123l-41 -176h322l-25 -105h-322l-71 -303q66 85 167 136t201 51
q134 0 198 -74z" />
    <glyph glyph-name="uni045C" unicode="&#x45c;" horiz-adv-x="954" 
d="M578 1124l276 289h156l-326 -289h-106zM301 999h127l-86 -374h141l305 374h162l-346 -407q49 0 77.5 -50.5t37.5 -117.5l63 -424h-143l-37 367q-9 80 -38.5 112.5t-94.5 32.5h-154l-116 -512h-127z" />
    <glyph glyph-name="uni045D" unicode="&#x45d;" horiz-adv-x="1153" 
d="M662 1133l-160 280h145l144 -280h-129zM212 52.5q-65 75.5 -65 203.5q0 70 19 154l135 589h125l-139 -608q-18 -81 -18 -137q0 -174 153 -174q86 0 172.5 50t149.5 131t83 167l131 571h123l-229 -999h-123l41 174q-27 -43 -81.5 -88.5t-126.5 -77t-146 -31.5
q-139 0 -204 75.5z" />
    <glyph glyph-name="uni045E" unicode="&#x45e;" horiz-adv-x="973" 
d="M511 1168q-58 25 -92 72t-34 111q0 27 8 62h107q-5 -23 -5 -40q0 -61 40.5 -97.5t103.5 -36.5q52 0 103.5 24t89 64t49.5 86h106q-19 -85 -71.5 -146t-125 -92.5t-151.5 -31.5q-70 0 -128 25zM53 -430l264 432l-149 997h137l101 -847l491 847h141l-856 -1429h-129z" />
    <glyph glyph-name="uni045F" unicode="&#x45f;" horiz-adv-x="1153" 
d="M328 -307l71 307h-327l229 999h125l-207 -895h533l206 895h123l-229 -999h-330l-71 -307h-123z" />
    <glyph glyph-name="uni0462" unicode="&#x462;" horiz-adv-x="1350" 
d="M567 1112h-350l25 111h350l45 190h135l-45 -190h363l-25 -111h-363l-79 -348h245q174 0 270.5 -75t96.5 -213q0 -47 -12 -103q-28 -117 -99.5 -201t-179.5 -128t-242 -44h-391zM719 117q96 0 174.5 33.5t131 96.5t71.5 150q9 38 9 69q0 89 -65.5 135t-187.5 46h-256
l-123 -530h246z" />
    <glyph glyph-name="uni0463" unicode="&#x463;" horiz-adv-x="981" 
d="M324 1151h-201l24 104h201l37 158h123l-37 -158h213l-25 -104h-213l-112 -496h190q150 0 234.5 -48.5t84.5 -179.5q0 -55 -16 -122q-22 -93 -87.5 -162.5t-159 -106t-197.5 -36.5h-324zM395 100q108 0 187 53.5t108 176.5q11 50 11 83q0 80 -49.5 111t-139.5 31h-203
l-104 -455h190z" />
    <glyph glyph-name="uni0464" unicode="&#x464;" horiz-adv-x="1786" 
d="M738 43.5q-111 63.5 -164.5 176t-53.5 261.5q0 82 17 176l-150 -6l-149 -651h-134l326 1413h133l-149 -651l147 6q54 192 159.5 343t259.5 238t347 87q198 0 323 -96t162 -279l-129 -39q-8 152 -107 221.5t-257 69.5q-160 0 -287 -75t-211.5 -201t-126.5 -281l647 6
l-26 -111l-647 -6q-18 -97 -18 -168q0 -175 91 -275t281 -100q159 0 289.5 74.5t224.5 231.5l117 -64q-118 -180 -281.5 -272t-355.5 -92q-167 0 -278 63.5z" />
    <glyph glyph-name="uni0465" unicode="&#x465;" horiz-adv-x="1317" 
d="M573 26.5q-75 46.5 -111 127.5t-36 187q0 80 20 169l-135 -6l-114 -504h-125l229 999h125l-90 -393l143 6q69 181 196.5 292.5t299.5 111.5q133 0 218 -69.5t110 -190.5l-125 -41q-5 93 -60 145.5t-145 52.5q-96 0 -178 -56.5t-134 -132t-63 -124.5l418 6l-23 -94
l-415 -6q-24 -99 -24 -180q0 -115 51 -179.5t153 -64.5q96 0 183 59t134 152l96 -62q-70 -123 -176 -187t-235 -64q-112 0 -187 46.5z" />
    <glyph glyph-name="uni0466" unicode="&#x466;" horiz-adv-x="1294" 
d="M-39 0l846 1413h104l193 -1413h-141l-82 680h-125l-156 -680h-131l156 680h-119l-397 -680h-148zM571 793h297l-49 424z" />
    <glyph glyph-name="uni0467" unicode="&#x467;" horiz-adv-x="1016" 
d="M-41 0l610 999h105l149 -999h-145l-37 414h-90l-94 -414h-127l94 414h-80l-254 -414h-131zM401 514h230l-39 326z" />
    <glyph glyph-name="uni0468" unicode="&#x468;" horiz-adv-x="1651" 
d="M104 0l326 1413h133l-149 -651h360l389 651h105l192 -1413h-141l-82 680h-125l-156 -680h-131l156 680h-119l-397 -680h-148l390 651h-320l-149 -651h-134zM928 793h297l-49 424z" />
    <glyph glyph-name="uni0469" unicode="&#x469;" horiz-adv-x="1331" 
d="M72 0l229 999h125l-117 -505h264l310 505h106l150 -999h-148l-35 414h-90l-94 -414h-129l94 414h-78l-253 -414h-134l240 391h-225l-90 -391h-125zM717 514h229l-39 326z" />
    <glyph glyph-name="uni046A" unicode="&#x46a;" horiz-adv-x="1561" 
d="M338 588q42 65 96 101t120 49.5t157 13.5l-269 551l23 110h1042l-24 -110l-537 -551q137 0 211 -40.5t90 -136.5l109 -575h-156l-92 516q-5 36 -12.5 59.5t-31.5 43.5t-71 20h-119l-147 -639h-133l147 639h-108q-106 0 -178 -135l-328 -504h-168zM840 801l487 502h-739z
" />
    <glyph glyph-name="uni046B" unicode="&#x46b;" horiz-adv-x="1249" 
d="M1114 897l-326 -305q102 0 150 -50t55 -118l64 -424h-144l-36 367q-7 55 -25.5 83.5t-54.5 39.5t-101 10l-121 -500h-131l121 500q-66 1 -110 -13t-77 -45.5t-65 -87.5l-207 -354h-147l260 436q39 67 106.5 111.5t172.5 44.5l-174 305l20 102h791zM643 593l311 304h-481z
" />
    <glyph glyph-name="uni046C" unicode="&#x46c;" horiz-adv-x="1880" 
d="M430 1413h133l-151 -659h645l-275 549l23 110h1042l-24 -110l-537 -551q90 0 147.5 -17t90 -55.5t43.5 -104.5l108 -575h-135l-92 516q-1 6 -7 41.5t-33.5 58.5t-74.5 23h-116l-148 -639h-135l147 639h-106q-47 0 -82.5 -23t-55.5 -48.5t-44 -63.5l-326 -504h-145
l380 594q-2 -2 13 16q21 28 35 41l-363 -4l-149 -647h-134zM1180 801l487 502h-739z" />
    <glyph glyph-name="uni046D" unicode="&#x46d;" horiz-adv-x="1550" 
d="M1415 897l-307 -285q70 0 109.5 -29t54.5 -69t22 -90l64 -424h-141l-37 367q-8 67 -26.5 98t-52.5 40t-104 9l-123 -514h-129l123 514q-68 0 -109.5 -12.5t-74 -46t-70.5 -101.5l-206 -354h-148l270 449q18 39 56 73l-271 -4l-118 -518h-125l229 999h125l-86 -376h444
l-159 274l20 102h791zM944 593l311 304h-483z" />
    <glyph glyph-name="uni0472" unicode="&#x472;" horiz-adv-x="1524" 
d="M376 43.5q-110 63.5 -162.5 176t-52.5 261.5q0 111 29 238q47 202 151.5 363.5t263.5 256.5t360 95q167 0 277.5 -64t163.5 -177t53 -262q0 -110 -29 -237q-47 -201 -151.5 -362.5t-264.5 -256.5t-363 -95q-165 0 -275 63.5zM1319 780q11 72 11 133q0 180 -91 287
t-283 107q-156 0 -282 -72.5t-212.5 -194.5t-131.5 -272zM953 185q131 79 218 210.5t127 290.5l-991 -12q-20 -95 -20 -178q0 -178 90.5 -284t279.5 -106q165 0 296 79z" />
    <glyph glyph-name="uni0473" unicode="&#x473;" horiz-adv-x="1120" 
d="M254 30q-83 50 -127 138t-44 200q0 64 17 140q32 139 115.5 254t202 182.5t248.5 67.5q114 0 197.5 -50t127.5 -138t44 -200q0 -65 -17 -141q-32 -139 -115.5 -254t-202 -182t-249.5 -67q-114 0 -197 50zM891 571q6 44 6 83q0 113 -56.5 179t-178.5 66q-148 0 -252 -96
t-154 -244zM648.5 144q84.5 52 139.5 139t82 194l-639 -12q-14 -67 -14 -124q0 -115 57.5 -182t180.5 -67q109 0 193.5 52z" />
    <glyph glyph-name="uni0474" unicode="&#x474;" horiz-adv-x="1274" 
d="M248 1413h133l90 -1253l504 844q106 179 220.5 278t250.5 133l-21 -135q-127 -55 -198.5 -130t-96 -115t-28.5 -46l-600 -989h-125z" />
    <glyph glyph-name="uni0475" unicode="&#x475;" horiz-adv-x="971" 
d="M168 999h135l45 -833l248 422q124 211 236 313t192 98l-20 -137q-36 -10 -67 -28.5t-81.5 -76t-118.5 -169.5l-364 -588h-119z" />
    <glyph glyph-name="uni0478" unicode="&#x478;" horiz-adv-x="2497" 
d="M376.5 44.5q-109.5 64.5 -162 178.5t-52.5 263q0 114 28 233q46 199 151.5 361.5t265 258t358.5 95.5q166 0 276.5 -64.5t163.5 -178.5t53 -264q0 -114 -28 -233q-47 -200 -152.5 -361.5t-265.5 -257t-361 -95.5q-165 0 -274.5 64.5zM964 190q134 84 221 223t126 306
q23 103 23 195q0 178 -91.5 285.5t-286.5 107.5q-168 0 -300.5 -84t-219 -223.5t-125.5 -305.5q-24 -107 -24 -196q0 -177 90.5 -284.5t279.5 -107.5q173 0 307 84zM1573 -430l270 430l-151 999h137l105 -847l489 847h139l-856 -1429h-133z" />
    <glyph glyph-name="uni0479" unicode="&#x479;" horiz-adv-x="2097" 
d="M254.5 29.5q-83.5 49.5 -127.5 137.5t-44 200q0 65 17 141q32 139 115.5 254t202 182.5t250.5 67.5q114 0 198 -50.5t128.5 -139t44.5 -200.5q0 -65 -17 -139q-32 -138 -116.5 -253.5t-203.5 -182.5t-249 -67q-115 0 -198.5 49.5zM657.5 149q87.5 57 143.5 151.5
t82 207.5q18 80 18 142q0 114 -56.5 181.5t-180.5 67.5q-112 0 -199 -57t-143 -151.5t-82 -207.5q-18 -80 -18 -141q0 -114 56.5 -182t178.5 -68q113 0 200.5 57zM1173 -430l270 430l-151 999h137l105 -847l489 847h139l-856 -1429h-133z" />
    <glyph glyph-name="uni0483" unicode="&#x483;" horiz-adv-x="0" 
d="M-682 1540l55 238h692l33 139h100l-51 -217h-700l-37 -160h-92z" />
    <glyph glyph-name="uni0490" unicode="&#x490;" horiz-adv-x="1081" 
d="M109 0l325 1413h649l72 307h131l-96 -417h-647l-301 -1303h-133z" />
    <glyph glyph-name="uni0491" unicode="&#x491;" horiz-adv-x="762" 
d="M61 0l230 999h426l71 308h123l-94 -410h-424l-207 -897h-125z" />
    <glyph glyph-name="uni0492" unicode="&#x492;" horiz-adv-x="1167" 
d="M1284 1303h-647l-113 -488h343l-25 -110h-343l-163 -705h-133l162 705h-240l25 110h240l138 598h781z" />
    <glyph glyph-name="uni0493" unicode="&#x493;" horiz-adv-x="758" 
d="M59 0l230 999h549l-23 -102h-424l-207 -897h-125z" />
    <glyph glyph-name="uni0496" unicode="&#x496;" horiz-adv-x="1929" 
d="M1704 168h127l-94 -406h-127l55 238h-96l-72 592q-7 52 -48 87.5t-112 35.5h-256l-163 -715h-134l164 715h-243q-73 0 -132.5 -38t-91.5 -97l-348 -580h-160l392 664q16 29 57 63.5t99.5 59t121.5 24.5l-262 602h160l258 -590h174l137 590h133l-137 -590h170l530 590h170
l-555 -602q61 0 109 -27.5t75 -65.5t29 -67l68 -492z" />
    <glyph glyph-name="uni0497" unicode="&#x497;" horiz-adv-x="1413" 
d="M1218 168h127l-94 -406h-127l55 238h-81l-37 367q-9 80 -38.5 112.5t-94.5 32.5h-154l-117 -512h-127l117 512h-141q-65 0 -114.5 -38t-94.5 -120l-207 -354h-147l260 436q38 65 86.5 110.5t99.5 45.5l-147 407h153l133 -374h146l86 374h127l-86 -374h141l305 374h162
l-346 -407q49 0 78 -51t37 -117l39 -261z" />
    <glyph glyph-name="uni049A" unicode="&#x49a;" horiz-adv-x="1247" 
d="M1028 168h127l-94 -406h-127l55 238h-96l-74 592q-2 24 -21.5 53t-54.5 49.5t-81 20.5h-256l-164 -715h-133l325 1413h133l-137 -590h170l530 590h170l-555 -602q62 0 109.5 -27.5t74.5 -65.5t29 -67l68 -490z" />
    <glyph glyph-name="uni049B" unicode="&#x49b;" horiz-adv-x="954" 
d="M759 168h127l-94 -406h-127l55 238h-81l-37 367q-9 80 -38.5 112.5t-94.5 32.5h-154l-116 -512h-127l325 1413h127l-182 -788h141l305 374h162l-346 -407q49 0 77.5 -50.5t37.5 -117.5l39 -261z" />
    <glyph glyph-name="uni04A2" unicode="&#x4a2;" horiz-adv-x="1454" 
d="M1442 1413l-287 -1245h125l-94 -406h-127l55 238h-133l149 653h-737l-149 -653h-135l325 1413h135l-149 -651h737l150 651h135z" />
    <glyph glyph-name="uni04A3" unicode="&#x4a3;" horiz-adv-x="1153" 
d="M1081 999l-190 -831h124l-94 -406h-127l55 238h-122l115 498h-529l-114 -498h-127l229 999h127l-92 -399h528l92 399h125z" />
    <glyph glyph-name="uni04AE" unicode="&#x4ae;" horiz-adv-x="1327" 
d="M485 0l129 553l-329 860h151l269 -719l606 719h157l-725 -860l-129 -553h-129z" />
    <glyph glyph-name="uni04AF" unicode="&#x4af;" horiz-adv-x="954" 
d="M299 0l104 446l-215 553h152l154 -411l348 411h157l-467 -553l-104 -446h-129z" />
    <glyph glyph-name="uni04B0" unicode="&#x4b0;" horiz-adv-x="1315" 
d="M735 553l-25 -107h315l-50 -110h-291l-78 -336h-129l78 336h-297l50 110h273l25 107l-329 860h151l269 -719l606 719h157z" />
    <glyph glyph-name="uni04B1" unicode="&#x4b1;" horiz-adv-x="930" 
d="M516 446l-24 -104h297l-25 -110h-298l-54 -232h-129l54 232h-290l25 110h291l24 104l-215 553h152l154 -411l348 411h157z" />
    <glyph glyph-name="uni04B2" unicode="&#x4b2;" horiz-adv-x="1251" 
d="M745 707l228 -539h120l-94 -406h-127l55 238h-36l-244 588l-510 -588h-164l629 707l-297 706h156l231 -598l518 598h162z" />
    <glyph glyph-name="uni04B3" unicode="&#x4b3;" horiz-adv-x="901" 
d="M512 504l142 -336h122l-94 -406h-127l55 238h-30l-150 389l-332 -389h-157l450 504l-217 495h150l149 -383l332 383h153z" />
    <glyph glyph-name="uni04B6" unicode="&#x4b6;" horiz-adv-x="1323" 
d="M1024 168h120l-94 -406h-127l55 238h-128l129 547q-147 -135 -369 -135q-194 0 -286.5 104t-92.5 288q0 104 29 228l88 381h135l-94 -407q-27 -121 -27 -207q0 -125 60 -192.5t194 -67.5q108 0 213 43.5t179 113.5l168 717h135z" />
    <glyph glyph-name="uni04B7" unicode="&#x4b7;" horiz-adv-x="1077" 
d="M815 168h118l-94 -406h-127l55 238h-118l103 440q-27 -43 -82 -88.5t-126.5 -76.5t-146.5 -31q-140 0 -205.5 76t-65.5 204q0 68 19 152l74 323h127l-78 -342q-18 -81 -18 -137q0 -174 153 -174q87 0 173.5 50t149.5 131t83 167l70 305h127z" />
    <glyph glyph-name="uni04BA" unicode="&#x4ba;" horiz-adv-x="1323" 
d="M440 866q147 135 369 135q194 0 286.5 -104t92.5 -288q0 -104 -29 -228l-88 -381h-135l94 407q27 121 27 207q0 125 -60 192.5t-194 67.5q-108 0 -213 -43.5t-179 -113.5l-168 -717h-135l326 1413h135z" />
    <glyph glyph-name="uni04BB" unicode="&#x4bb;" horiz-adv-x="1118" 
d="M389 1413h123l-137 -584q66 85 167 136t201 51q134 0 198 -74t64 -196q0 -65 -16 -132l-141 -614h-127l139 604q16 75 16 126q0 167 -157 167q-90 0 -176 -49.5t-148.5 -131.5t-83.5 -175l-125 -541h-123z" />
    <glyph glyph-name="uni04C0" unicode="&#x4c0;" horiz-adv-x="573" 
d="M104 0l326 1413h135l-325 -1413h-136z" />
    <glyph glyph-name="uni04CF" unicode="&#x4cf;" horiz-adv-x="500" 
d="M72 0l325 1413h127l-325 -1413h-127z" />
    <glyph glyph-name="uni04D8" unicode="&#x4d8;" horiz-adv-x="1524" 
d="M376 43.5q-110 63.5 -162.5 176t-52.5 261.5q0 111 29 238l6 21q7 28 11 40h1112q11 72 11 133q0 180 -91 287t-283 107q-138 0 -254 -59.5t-202 -160.5l-99 80q106 128 248.5 197.5t315.5 69.5q167 0 277.5 -64t163.5 -177t53 -262q0 -110 -29 -237
q-47 -201 -151.5 -362.5t-264.5 -256.5t-363 -95q-165 0 -275 63.5zM953 185q131 79 218 210.5t127 290.5l-991 -12q-20 -95 -20 -178q0 -178 90.5 -284t279.5 -106q165 0 296 79z" />
    <glyph glyph-name="uni04D9" unicode="&#x4d9;" horiz-adv-x="1067" 
d="M752 943q101 -68 152 -186.5t51 -266.5q0 -136 -46.5 -250.5t-138.5 -183.5t-223 -69q-225 0 -325.5 151.5t-100.5 387.5q1 -2 1.5 6t1.5 16h699q4 98 -28.5 178.5t-99.5 128.5t-163 48q-99 0 -169.5 -25t-126.5 -86l-96 74q80 78 165.5 111.5t201.5 33.5q144 0 245 -68z
M238 440q-4 -158 68.5 -248t217.5 -90q95 0 162 46t101 122.5t36 169.5h-585z" />
    <glyph glyph-name="uni04E2" unicode="&#x4e2;" horiz-adv-x="1417" 
d="M109 0l325 1413h135l-297 -1288l918 1288h215l-326 -1413h-137l299 1290l-913 -1290h-219zM701 1606l28 121h537l-29 -121h-536z" />
    <glyph glyph-name="uni04E3" unicode="&#x4e3;" horiz-adv-x="1110" 
d="M179.5 53q-65.5 76 -65.5 205q0 69 19 154l135 587h125l-139 -610q-18 -79 -18 -135q0 -79 35 -126.5t116 -47.5q86 0 173 50t151 130.5t84 165.5l131 573h123l-230 -999h-123l43 176q-29 -46 -83 -92t-125.5 -76.5t-147.5 -30.5q-138 0 -203.5 76zM453 1192l28 121h537
l-29 -121h-536z" />
    <glyph glyph-name="uni04E8" unicode="&#x4e8;" horiz-adv-x="1524" 
d="M376 43.5q-110 63.5 -162.5 176t-52.5 261.5q0 111 29 238q47 202 151.5 363.5t263.5 256.5t360 95q167 0 277.5 -64t163.5 -177t53 -262q0 -110 -29 -237q-47 -201 -151.5 -362.5t-264.5 -256.5t-363 -95q-165 0 -275 63.5zM1319 780q11 72 11 133q0 180 -91 287
t-283 107q-156 0 -282 -72.5t-212.5 -194.5t-131.5 -272zM953 185q131 79 218 210.5t127 290.5l-991 -12q-20 -95 -20 -178q0 -178 90.5 -284t279.5 -106q165 0 296 79z" />
    <glyph glyph-name="uni04E9" unicode="&#x4e9;" horiz-adv-x="1120" 
d="M254 30q-83 50 -127 138t-44 200q0 64 17 140q32 139 115.5 254t202 182.5t248.5 67.5q114 0 197.5 -50t127.5 -138t44 -200q0 -65 -17 -141q-32 -139 -115.5 -254t-202 -182t-249.5 -67q-114 0 -197 50zM891 571q6 44 6 83q0 113 -56.5 179t-178.5 66q-148 0 -252 -96
t-154 -244zM648.5 144q84.5 52 139.5 139t82 194l-639 -12q-14 -67 -14 -124q0 -115 57.5 -182t180.5 -67q109 0 193.5 52z" />
    <glyph glyph-name="uni04EE" unicode="&#x4ee;" horiz-adv-x="1128" 
d="M162 0l305 457l-172 956h145l125 -817l537 817h158l-949 -1413h-149zM555 1606l28 121h537l-29 -121h-536z" />
    <glyph glyph-name="uni04EF" unicode="&#x4ef;" horiz-adv-x="973" 
d="M53 -430l264 432l-149 997h137l101 -847l491 847h141l-856 -1429h-129zM381 1192l28 121h537l-29 -121h-536z" />
    <glyph glyph-name="Wgrave" unicode="&#x1e80;" horiz-adv-x="1978" 
d="M369 0l-64 1413h133l51 -1263l635 1181h111l88 -1181l635 1263h141l-719 -1413h-155l-86 1112l-615 -1112h-155zM1157 1509l-180 287h172l149 -287h-141z" />
    <glyph glyph-name="wgrave" unicode="&#x1e81;" horiz-adv-x="1417" 
d="M221 0l-41 999h131l17 -845l436 845h119l43 -843l407 843h135l-503 -999h-127l-43 850l-447 -850h-127zM784 1126l-180 287h172l149 -287h-141z" />
    <glyph glyph-name="Wacute" unicode="&#x1e82;" horiz-adv-x="1978" 
d="M369 0l-64 1413h133l51 -1263l635 1181h111l88 -1181l635 1263h141l-719 -1413h-155l-86 1112l-615 -1112h-155zM1134 1507l283 289h180l-336 -289h-127z" />
    <glyph glyph-name="wacute" unicode="&#x1e83;" horiz-adv-x="1417" 
d="M221 0l-41 999h131l17 -845l436 845h119l43 -843l407 843h135l-503 -999h-127l-43 850l-447 -850h-127zM761 1124l283 289h180l-336 -289h-127z" />
    <glyph glyph-name="Wdieresis" unicode="&#x1e84;" horiz-adv-x="1978" 
d="M369 0l-64 1413h133l51 -1263l635 1181h111l88 -1181l635 1263h141l-719 -1413h-155l-86 1112l-615 -1112h-155zM1004 1612l43 184h160l-43 -184h-160zM1336 1612l43 184h159l-43 -184h-159z" />
    <glyph glyph-name="wdieresis" unicode="&#x1e85;" horiz-adv-x="1417" 
d="M221 0l-41 999h131l17 -845l436 845h119l43 -843l407 843h135l-503 -999h-127l-43 850l-447 -850h-127zM631 1229l43 184h160l-43 -184h-160zM963 1229l43 184h159l-43 -184h-159z" />
    <glyph glyph-name="uni1EA4" unicode="&#x1ea4;" horiz-adv-x="1296" 
d="M-41 0l848 1413h104l193 -1413h-141l-37 307h-639l-178 -307h-150zM360 434h549l-90 780zM549 1512l413 356l250 -356h-149l-129 196l-226 -196h-159zM892 1952l283 289h180l-336 -289h-127z" />
    <glyph glyph-name="uni1EA5" unicode="&#x1ea5;" 
d="M1061 999l-230 -999h-124l29 135q-69 -74 -152.5 -114.5t-190.5 -40.5q-98 0 -166.5 45t-102.5 125.5t-34 185.5q0 85 21 176q33 143 105 258.5t174 182.5t220 67q214 0 289 -170l37 149h125zM852 661q0 111 -51.5 176.5t-161.5 65.5q-103 0 -185.5 -57t-137 -151
t-80.5 -208q-19 -76 -19 -148q0 -112 52 -178.5t161 -66.5q105 0 187 57t136.5 151.5t80.5 209.5q18 78 18 149zM379 1098l413 356l250 -356h-149l-129 196l-226 -196h-159zM722 1538l283 289h180l-336 -289h-127z" />
    <glyph glyph-name="uni1EA6" unicode="&#x1ea6;" horiz-adv-x="1296" 
d="M-41 0l848 1413h104l193 -1413h-141l-37 307h-639l-178 -307h-150zM360 434h549l-90 780zM549 1512l413 356l250 -356h-149l-129 196l-226 -196h-159zM915 1954l-180 287h172l149 -287h-141z" />
    <glyph glyph-name="uni1EA7" unicode="&#x1ea7;" 
d="M1061 999l-230 -999h-124l29 135q-69 -74 -152.5 -114.5t-190.5 -40.5q-98 0 -166.5 45t-102.5 125.5t-34 185.5q0 85 21 176q33 143 105 258.5t174 182.5t220 67q214 0 289 -170l37 149h125zM852 661q0 111 -51.5 176.5t-161.5 65.5q-103 0 -185.5 -57t-137 -151
t-80.5 -208q-19 -76 -19 -148q0 -112 52 -178.5t161 -66.5q105 0 187 57t136.5 151.5t80.5 209.5q18 78 18 149zM379 1098l413 356l250 -356h-149l-129 196l-226 -196h-159zM745 1540l-180 287h172l149 -287h-141z" />
    <glyph glyph-name="uni1EAA" unicode="&#x1eaa;" horiz-adv-x="1296" 
d="M-41 0l848 1413h104l193 -1413h-141l-37 307h-639l-178 -307h-150zM360 434h549l-90 780zM549 1512l413 356l250 -356h-149l-129 196l-226 -196h-159zM1061 1998.5q-26 13.5 -42.5 32.5t-36.5 50q-21 33 -37 48.5t-40 15.5q-40 0 -69.5 -40.5t-43.5 -96.5h-88
q26 112 77.5 176.5t123.5 64.5q41 0 69.5 -14.5t45.5 -35t36 -52.5t33.5 -47t36.5 -15q42 0 73 43.5t50 114.5h92q-58 -258 -219 -258q-35 0 -61 13.5z" />
    <glyph glyph-name="uni1EAB" unicode="&#x1eab;" 
d="M1061 999l-230 -999h-124l29 135q-69 -74 -152.5 -114.5t-190.5 -40.5q-98 0 -166.5 45t-102.5 125.5t-34 185.5q0 85 21 176q33 143 105 258.5t174 182.5t220 67q214 0 289 -170l37 149h125zM852 661q0 111 -51.5 176.5t-161.5 65.5q-103 0 -185.5 -57t-137 -151
t-80.5 -208q-19 -76 -19 -148q0 -112 52 -178.5t161 -66.5q105 0 187 57t136.5 151.5t80.5 209.5q18 78 18 149zM379 1098l413 356l250 -356h-149l-129 196l-226 -196h-159zM891 1584.5q-26 13.5 -42.5 32.5t-36.5 50q-21 33 -37 48.5t-40 15.5q-40 0 -69.5 -40.5
t-43.5 -96.5h-88q26 112 77.5 176.5t123.5 64.5q41 0 69.5 -14.5t45.5 -35t36 -52.5t33.5 -47t36.5 -15q42 0 73 43.5t50 114.5h92q-58 -258 -219 -258q-35 0 -61 13.5z" />
    <glyph glyph-name="uni1EAE" unicode="&#x1eae;" horiz-adv-x="1296" 
d="M-41 0l848 1413h104l193 -1413h-141l-37 307h-639l-178 -307h-150zM360 434h549l-90 780zM770 1581.5q-59 24.5 -92 71t-33 109.5q0 34 8 65h123q-5 -23 -5 -41q0 -57 38 -90t98 -33q50 0 98.5 22t83 59.5t45.5 82.5h123q-19 -87 -70.5 -148t-125 -91.5t-156.5 -30.5
q-76 0 -135 24.5zM892 1952l283 289h180l-336 -289h-127z" />
    <glyph glyph-name="uni1EAF" unicode="&#x1eaf;" 
d="M1061 999l-230 -999h-124l29 135q-69 -74 -152.5 -114.5t-190.5 -40.5q-98 0 -166.5 45t-102.5 125.5t-34 185.5q0 85 21 176q33 143 105 258.5t174 182.5t220 67q214 0 289 -170l37 149h125zM852 661q0 111 -51.5 176.5t-161.5 65.5q-103 0 -185.5 -57t-137 -151
t-80.5 -208q-19 -76 -19 -148q0 -112 52 -178.5t161 -66.5q105 0 187 57t136.5 151.5t80.5 209.5q18 78 18 149zM600 1167.5q-59 24.5 -92 71t-33 109.5q0 34 8 65h123q-5 -23 -5 -41q0 -57 38 -90t98 -33q50 0 98.5 22t83 59.5t45.5 82.5h123q-19 -87 -70.5 -148
t-125 -91.5t-156.5 -30.5q-76 0 -135 24.5zM722 1538l283 289h180l-336 -289h-127z" />
    <glyph glyph-name="uni1EB0" unicode="&#x1eb0;" horiz-adv-x="1296" 
d="M-41 0l848 1413h104l193 -1413h-141l-37 307h-639l-178 -307h-150zM360 434h549l-90 780zM770 1581.5q-59 24.5 -92 71t-33 109.5q0 34 8 65h123q-5 -23 -5 -41q0 -57 38 -90t98 -33q50 0 98.5 22t83 59.5t45.5 82.5h123q-19 -87 -70.5 -148t-125 -91.5t-156.5 -30.5
q-76 0 -135 24.5zM915 1954l-180 287h172l149 -287h-141z" />
    <glyph glyph-name="uni1EB1" unicode="&#x1eb1;" 
d="M1061 999l-230 -999h-124l29 135q-69 -74 -152.5 -114.5t-190.5 -40.5q-98 0 -166.5 45t-102.5 125.5t-34 185.5q0 85 21 176q33 143 105 258.5t174 182.5t220 67q214 0 289 -170l37 149h125zM852 661q0 111 -51.5 176.5t-161.5 65.5q-103 0 -185.5 -57t-137 -151
t-80.5 -208q-19 -76 -19 -148q0 -112 52 -178.5t161 -66.5q105 0 187 57t136.5 151.5t80.5 209.5q18 78 18 149zM600 1167.5q-59 24.5 -92 71t-33 109.5q0 34 8 65h123q-5 -23 -5 -41q0 -57 38 -90t98 -33q50 0 98.5 22t83 59.5t45.5 82.5h123q-19 -87 -70.5 -148
t-125 -91.5t-156.5 -30.5q-76 0 -135 24.5zM745 1540l-180 287h172l149 -287h-141z" />
    <glyph glyph-name="uni1EB4" unicode="&#x1eb4;" horiz-adv-x="1296" 
d="M-41 0l848 1413h104l193 -1413h-141l-37 307h-639l-178 -307h-150zM360 434h549l-90 780zM770 1581.5q-59 24.5 -92 71t-33 109.5q0 34 8 65h123q-5 -23 -5 -41q0 -57 38 -90t98 -33q50 0 98.5 22t83 59.5t45.5 82.5h123q-19 -87 -70.5 -148t-125 -91.5t-156.5 -30.5
q-76 0 -135 24.5zM1061 1998.5q-26 13.5 -42.5 32.5t-36.5 50q-21 33 -37 48.5t-40 15.5q-40 0 -69.5 -40.5t-43.5 -96.5h-88q26 112 77.5 176.5t123.5 64.5q41 0 69.5 -14.5t45.5 -35t36 -52.5t33.5 -47t36.5 -15q42 0 73 43.5t50 114.5h92q-58 -258 -219 -258
q-35 0 -61 13.5z" />
    <glyph glyph-name="uni1EB5" unicode="&#x1eb5;" 
d="M1061 999l-230 -999h-124l29 135q-69 -74 -152.5 -114.5t-190.5 -40.5q-98 0 -166.5 45t-102.5 125.5t-34 185.5q0 85 21 176q33 143 105 258.5t174 182.5t220 67q214 0 289 -170l37 149h125zM852 661q0 111 -51.5 176.5t-161.5 65.5q-103 0 -185.5 -57t-137 -151
t-80.5 -208q-19 -76 -19 -148q0 -112 52 -178.5t161 -66.5q105 0 187 57t136.5 151.5t80.5 209.5q18 78 18 149zM600 1167.5q-59 24.5 -92 71t-33 109.5q0 34 8 65h123q-5 -23 -5 -41q0 -57 38 -90t98 -33q50 0 98.5 22t83 59.5t45.5 82.5h123q-19 -87 -70.5 -148
t-125 -91.5t-156.5 -30.5q-76 0 -135 24.5zM891 1584.5q-26 13.5 -42.5 32.5t-36.5 50q-21 33 -37 48.5t-40 15.5q-40 0 -69.5 -40.5t-43.5 -96.5h-88q26 112 77.5 176.5t123.5 64.5q41 0 69.5 -14.5t45.5 -35t36 -52.5t33.5 -47t36.5 -15q42 0 73 43.5t50 114.5h92
q-58 -258 -219 -258q-35 0 -61 13.5z" />
    <glyph glyph-name="uni1EBC" unicode="&#x1ebc;" horiz-adv-x="1245" 
d="M109 0l325 1413h909l-26 -113h-774l-123 -538h661l-26 -109h-662l-123 -532h774l-26 -121h-909zM998 1584.5q-26 13.5 -42.5 32.5t-36.5 50q-21 33 -37 48.5t-40 15.5q-40 0 -69.5 -40.5t-43.5 -96.5h-88q26 112 77.5 176.5t123.5 64.5q41 0 69.5 -14.5t45.5 -35
t36 -52.5t33.5 -47t36.5 -15q42 0 73 43.5t50 114.5h92q-58 -258 -219 -258q-35 0 -61 13.5z" />
    <glyph glyph-name="uni1EBD" unicode="&#x1ebd;" horiz-adv-x="1030" 
d="M170.5 84.5q-87.5 96.5 -87.5 259.5q0 79 19 162q31 136 104 251.5t181.5 185t239.5 69.5q172 0 249.5 -90.5t77.5 -245.5q0 -89 -26 -203q0 2 -2.5 -6.5t-5.5 -15.5h-699q-17 -65 -17 -122q0 -105 57 -169t169 -64q99 0 175.5 25t146.5 86l79 -74q-98 -78 -191.5 -111.5
t-209.5 -33.5q-172 0 -259.5 96.5zM831 559q18 69 18 126q0 101 -56.5 156.5t-169.5 55.5q-95 0 -172.5 -46t-129.5 -122.5t-75 -169.5h585zM728 1170.5q-26 13.5 -42.5 32.5t-36.5 50q-21 33 -37 48.5t-40 15.5q-40 0 -69.5 -40.5t-43.5 -96.5h-88q26 112 77.5 176.5
t123.5 64.5q41 0 69.5 -14.5t45.5 -35t36 -52.5t33.5 -47t36.5 -15q42 0 73 43.5t50 114.5h92q-58 -258 -219 -258q-35 0 -61 13.5z" />
    <glyph glyph-name="uni1EBE" unicode="&#x1ebe;" horiz-adv-x="1245" 
d="M109 0l325 1413h909l-26 -113h-774l-123 -538h661l-26 -109h-662l-123 -532h774l-26 -121h-909zM582 1512l413 356l250 -356h-149l-129 196l-226 -196h-159zM925 1952l283 289h180l-336 -289h-127z" />
    <glyph glyph-name="uni1EBF" unicode="&#x1ebf;" horiz-adv-x="1030" 
d="M170.5 84.5q-87.5 96.5 -87.5 259.5q0 79 19 162q31 136 104 251.5t181.5 185t239.5 69.5q172 0 249.5 -90.5t77.5 -245.5q0 -89 -26 -203q0 2 -2.5 -6.5t-5.5 -15.5h-699q-17 -65 -17 -122q0 -105 57 -169t169 -64q99 0 175.5 25t146.5 86l79 -74q-98 -78 -191.5 -111.5
t-209.5 -33.5q-172 0 -259.5 96.5zM831 559q18 69 18 126q0 101 -56.5 156.5t-169.5 55.5q-95 0 -172.5 -46t-129.5 -122.5t-75 -169.5h585zM312 1098l413 356l250 -356h-149l-129 196l-226 -196h-159zM655 1538l283 289h180l-336 -289h-127z" />
    <glyph glyph-name="uni1EC0" unicode="&#x1ec0;" horiz-adv-x="1245" 
d="M109 0l325 1413h909l-26 -113h-774l-123 -538h661l-26 -109h-662l-123 -532h774l-26 -121h-909zM582 1512l413 356l250 -356h-149l-129 196l-226 -196h-159zM948 1954l-180 287h172l149 -287h-141z" />
    <glyph glyph-name="uni1EC1" unicode="&#x1ec1;" horiz-adv-x="1030" 
d="M170.5 84.5q-87.5 96.5 -87.5 259.5q0 79 19 162q31 136 104 251.5t181.5 185t239.5 69.5q172 0 249.5 -90.5t77.5 -245.5q0 -89 -26 -203q0 2 -2.5 -6.5t-5.5 -15.5h-699q-17 -65 -17 -122q0 -105 57 -169t169 -64q99 0 175.5 25t146.5 86l79 -74q-98 -78 -191.5 -111.5
t-209.5 -33.5q-172 0 -259.5 96.5zM831 559q18 69 18 126q0 101 -56.5 156.5t-169.5 55.5q-95 0 -172.5 -46t-129.5 -122.5t-75 -169.5h585zM312 1098l413 356l250 -356h-149l-129 196l-226 -196h-159zM678 1540l-180 287h172l149 -287h-141z" />
    <glyph glyph-name="uni1EC4" unicode="&#x1ec4;" horiz-adv-x="1245" 
d="M109 0l325 1413h909l-26 -113h-774l-123 -538h661l-26 -109h-662l-123 -532h774l-26 -121h-909zM582 1512l413 356l250 -356h-149l-129 196l-226 -196h-159zM1094 1998.5q-26 13.5 -42.5 32.5t-36.5 50q-21 33 -37 48.5t-40 15.5q-40 0 -69.5 -40.5t-43.5 -96.5h-88
q26 112 77.5 176.5t123.5 64.5q41 0 69.5 -14.5t45.5 -35t36 -52.5t33.5 -47t36.5 -15q42 0 73 43.5t50 114.5h92q-58 -258 -219 -258q-35 0 -61 13.5z" />
    <glyph glyph-name="uni1EC5" unicode="&#x1ec5;" horiz-adv-x="1030" 
d="M170.5 84.5q-87.5 96.5 -87.5 259.5q0 79 19 162q31 136 104 251.5t181.5 185t239.5 69.5q172 0 249.5 -90.5t77.5 -245.5q0 -89 -26 -203q0 2 -2.5 -6.5t-5.5 -15.5h-699q-17 -65 -17 -122q0 -105 57 -169t169 -64q99 0 175.5 25t146.5 86l79 -74q-98 -78 -191.5 -111.5
t-209.5 -33.5q-172 0 -259.5 96.5zM831 559q18 69 18 126q0 101 -56.5 156.5t-169.5 55.5q-95 0 -172.5 -46t-129.5 -122.5t-75 -169.5h585zM312 1098l413 356l250 -356h-149l-129 196l-226 -196h-159zM824 1584.5q-26 13.5 -42.5 32.5t-36.5 50q-21 33 -37 48.5t-40 15.5
q-40 0 -69.5 -40.5t-43.5 -96.5h-88q26 112 77.5 176.5t123.5 64.5q41 0 69.5 -14.5t45.5 -35t36 -52.5t33.5 -47t36.5 -15q42 0 73 43.5t50 114.5h92q-58 -258 -219 -258q-35 0 -61 13.5z" />
    <glyph glyph-name="uni1ED0" unicode="&#x1ed0;" horiz-adv-x="1524" 
d="M376.5 44.5q-109.5 64.5 -162 178.5t-52.5 263q0 114 28 233q46 199 151.5 361.5t265 258t358.5 95.5q166 0 276.5 -64.5t163.5 -178.5t53 -264q0 -114 -28 -233q-47 -200 -152.5 -361.5t-265.5 -257t-361 -95.5q-165 0 -274.5 64.5zM964 190q134 84 221 223t126 306
q23 103 23 195q0 178 -91.5 285.5t-286.5 107.5q-168 0 -300.5 -84t-219 -223.5t-125.5 -305.5q-24 -107 -24 -196q0 -177 90.5 -284.5t279.5 -107.5q173 0 307 84zM660 1512l413 356l250 -356h-149l-129 196l-226 -196h-159zM1003 1952l283 289h180l-336 -289h-127z" />
    <glyph glyph-name="uni1ED1" unicode="&#x1ed1;" 
d="M254.5 29.5q-83.5 49.5 -127.5 137.5t-44 200q0 65 17 141q32 139 115.5 254t202 182.5t250.5 67.5q114 0 198 -50.5t128.5 -139t44.5 -200.5q0 -65 -17 -139q-32 -138 -116.5 -253.5t-203.5 -182.5t-249 -67q-115 0 -198.5 49.5zM657.5 149q87.5 57 143.5 151.5
t82 207.5q18 80 18 142q0 114 -56.5 181.5t-180.5 67.5q-112 0 -199 -57t-143 -151.5t-82 -207.5q-18 -80 -18 -141q0 -114 56.5 -182t178.5 -68q113 0 200.5 57zM365 1098l413 356l250 -356h-149l-129 196l-226 -196h-159zM708 1538l283 289h180l-336 -289h-127z" />
    <glyph glyph-name="uni1ED2" unicode="&#x1ed2;" horiz-adv-x="1524" 
d="M376.5 44.5q-109.5 64.5 -162 178.5t-52.5 263q0 114 28 233q46 199 151.5 361.5t265 258t358.5 95.5q166 0 276.5 -64.5t163.5 -178.5t53 -264q0 -114 -28 -233q-47 -200 -152.5 -361.5t-265.5 -257t-361 -95.5q-165 0 -274.5 64.5zM964 190q134 84 221 223t126 306
q23 103 23 195q0 178 -91.5 285.5t-286.5 107.5q-168 0 -300.5 -84t-219 -223.5t-125.5 -305.5q-24 -107 -24 -196q0 -177 90.5 -284.5t279.5 -107.5q173 0 307 84zM660 1512l413 356l250 -356h-149l-129 196l-226 -196h-159zM1026 1954l-180 287h172l149 -287h-141z" />
    <glyph glyph-name="uni1ED3" unicode="&#x1ed3;" 
d="M254.5 29.5q-83.5 49.5 -127.5 137.5t-44 200q0 65 17 141q32 139 115.5 254t202 182.5t250.5 67.5q114 0 198 -50.5t128.5 -139t44.5 -200.5q0 -65 -17 -139q-32 -138 -116.5 -253.5t-203.5 -182.5t-249 -67q-115 0 -198.5 49.5zM657.5 149q87.5 57 143.5 151.5
t82 207.5q18 80 18 142q0 114 -56.5 181.5t-180.5 67.5q-112 0 -199 -57t-143 -151.5t-82 -207.5q-18 -80 -18 -141q0 -114 56.5 -182t178.5 -68q113 0 200.5 57zM365 1098l413 356l250 -356h-149l-129 196l-226 -196h-159zM731 1540l-180 287h172l149 -287h-141z" />
    <glyph glyph-name="uni1ED6" unicode="&#x1ed6;" horiz-adv-x="1524" 
d="M376.5 44.5q-109.5 64.5 -162 178.5t-52.5 263q0 114 28 233q46 199 151.5 361.5t265 258t358.5 95.5q166 0 276.5 -64.5t163.5 -178.5t53 -264q0 -114 -28 -233q-47 -200 -152.5 -361.5t-265.5 -257t-361 -95.5q-165 0 -274.5 64.5zM964 190q134 84 221 223t126 306
q23 103 23 195q0 178 -91.5 285.5t-286.5 107.5q-168 0 -300.5 -84t-219 -223.5t-125.5 -305.5q-24 -107 -24 -196q0 -177 90.5 -284.5t279.5 -107.5q173 0 307 84zM660 1512l413 356l250 -356h-149l-129 196l-226 -196h-159zM1172 1998.5q-26 13.5 -42.5 32.5t-36.5 50
q-21 33 -37 48.5t-40 15.5q-40 0 -69.5 -40.5t-43.5 -96.5h-88q26 112 77.5 176.5t123.5 64.5q41 0 69.5 -14.5t45.5 -35t36 -52.5t33.5 -47t36.5 -15q42 0 73 43.5t50 114.5h92q-58 -258 -219 -258q-35 0 -61 13.5z" />
    <glyph glyph-name="uni1ED7" unicode="&#x1ed7;" 
d="M254.5 29.5q-83.5 49.5 -127.5 137.5t-44 200q0 65 17 141q32 139 115.5 254t202 182.5t250.5 67.5q114 0 198 -50.5t128.5 -139t44.5 -200.5q0 -65 -17 -139q-32 -138 -116.5 -253.5t-203.5 -182.5t-249 -67q-115 0 -198.5 49.5zM657.5 149q87.5 57 143.5 151.5
t82 207.5q18 80 18 142q0 114 -56.5 181.5t-180.5 67.5q-112 0 -199 -57t-143 -151.5t-82 -207.5q-18 -80 -18 -141q0 -114 56.5 -182t178.5 -68q113 0 200.5 57zM365 1098l413 356l250 -356h-149l-129 196l-226 -196h-159zM877 1584.5q-26 13.5 -42.5 32.5t-36.5 50
q-21 33 -37 48.5t-40 15.5q-40 0 -69.5 -40.5t-43.5 -96.5h-88q26 112 77.5 176.5t123.5 64.5q41 0 69.5 -14.5t45.5 -35t36 -52.5t33.5 -47t36.5 -15q42 0 73 43.5t50 114.5h92q-58 -258 -219 -258q-35 0 -61 13.5z" />
    <glyph glyph-name="Ygrave" unicode="&#x1ef2;" horiz-adv-x="1327" 
d="M485 0l129 553l-329 860h151l269 -719l606 719h157l-725 -860l-129 -553h-129zM833 1540l-180 287h172l149 -287h-141z" />
    <glyph glyph-name="ygrave" unicode="&#x1ef3;" horiz-adv-x="973" 
d="M49 -430l270 430l-151 999h137l105 -847l489 847h139l-856 -1429h-133zM555 1126l-180 287h172l149 -287h-141z" />
    <glyph glyph-name="uni1EF8" unicode="&#x1ef8;" horiz-adv-x="1327" 
d="M485 0l129 553l-329 860h151l269 -719l606 719h157l-725 -860l-129 -553h-129zM979 1584.5q-26 13.5 -42.5 32.5t-36.5 50q-21 33 -37 48.5t-40 15.5q-40 0 -69.5 -40.5t-43.5 -96.5h-88q26 112 77.5 176.5t123.5 64.5q41 0 69.5 -14.5t45.5 -35t36 -52.5t33.5 -47
t36.5 -15q42 0 73 43.5t50 114.5h92q-58 -258 -219 -258q-35 0 -61 13.5z" />
    <glyph glyph-name="uni1EF9" unicode="&#x1ef9;" horiz-adv-x="973" 
d="M49 -430l270 430l-151 999h137l105 -847l489 847h139l-856 -1429h-133zM701 1170.5q-26 13.5 -42.5 32.5t-36.5 50q-21 33 -37 48.5t-40 15.5q-40 0 -69.5 -40.5t-43.5 -96.5h-88q26 112 77.5 176.5t123.5 64.5q41 0 69.5 -14.5t45.5 -35t36 -52.5t33.5 -47t36.5 -15
q42 0 73 43.5t50 114.5h92q-58 -258 -219 -258q-35 0 -61 13.5z" />
    <glyph glyph-name="endash" unicode="&#x2013;" horiz-adv-x="1016" 
d="M190 596l23 96h680l-23 -96h-680z" />
    <glyph glyph-name="emdash" unicode="&#x2014;" horiz-adv-x="1671" 
d="M190 596l23 96h1335l-22 -96h-1336z" />
    <glyph glyph-name="uni2015" unicode="&#x2015;" horiz-adv-x="1507" 
d="M190 596l23 96h1171l-22 -96h-1172z" />
    <glyph glyph-name="quoteleft" unicode="&#x2018;" horiz-adv-x="563" 
d="M434 944l-104 469h172l6 -469h-74z" />
    <glyph glyph-name="quoteright" unicode="&#x2019;" horiz-adv-x="561" 
d="M254 944l225 469h178l-323 -469h-80z" />
    <glyph glyph-name="quotesinglbase" unicode="&#x201a;" horiz-adv-x="571" 
d="M-14 -225l231 489h184l-327 -489h-88z" />
    <glyph glyph-name="quotedblleft" unicode="&#x201c;" horiz-adv-x="850" 
d="M434 944l-104 469h172l6 -469h-74zM725 944l-107 469h170l9 -469h-72z" />
    <glyph glyph-name="quotedblright" unicode="&#x201d;" horiz-adv-x="850" 
d="M254 944l225 469h178l-323 -469h-80zM543 944l227 469h176l-321 -469h-82z" />
    <glyph glyph-name="quotedblbase" unicode="&#x201e;" horiz-adv-x="877" 
d="M-14 -225l231 489h184l-327 -489h-88zM293 -225l231 489h185l-328 -489h-88z" />
    <glyph glyph-name="dagger" unicode="&#x2020;" horiz-adv-x="825" 
d="M184 -205l244 1059h-221l31 131h221l98 428h133l-98 -428h221l-31 -131h-221l-244 -1059h-133z" />
    <glyph glyph-name="daggerdbl" unicode="&#x2021;" horiz-adv-x="887" 
d="M215 -205l98 426h-221l31 135h221l115 498h-221l30 131h221l99 428h133l-98 -428h221l-31 -131h-221l-115 -498h221l-30 -135h-222l-98 -426h-133z" />
    <glyph glyph-name="bullet" unicode="&#x2022;" horiz-adv-x="848" 
d="M273.5 269.5q-45.5 25.5 -70.5 70t-25 100.5q0 26 6 54q14 61 56.5 112.5t102 82t120.5 30.5q58 0 103 -25.5t70 -70t25 -99.5q0 -26 -6 -55q-15 -62 -57 -113.5t-101 -81.5t-120 -30q-58 0 -103.5 25.5z" />
    <glyph glyph-name="uni2023" unicode="&#x2023;" horiz-adv-x="774" 
d="M195 260l98 436l342 -217z" />
    <glyph glyph-name="twodotenleader" unicode="&#x2025;" horiz-adv-x="1087" 
d="M129 0l41 176h186l-41 -176h-186zM543 0l41 176h186l-41 -176h-186z" />
    <glyph glyph-name="ellipsis" unicode="&#x2026;" horiz-adv-x="1501" 
d="M129 0l41 176h186l-41 -176h-186zM543 0l41 176h186l-41 -176h-186zM956 0l41 176h187l-41 -176h-187z" />
    <glyph glyph-name="perthousand" unicode="&#x2030;" horiz-adv-x="2179" 
d="M329 874.5q-45 61.5 -45 155.5q0 51 13 105q16 71 53.5 140t98 115t139.5 46q94 0 141 -62.5t47 -160.5q0 -50 -12 -103q-19 -77 -59 -144.5t-99.5 -110t-132.5 -42.5q-99 0 -144 61.5zM250 8l1063 1387h117l-1063 -1387h-117zM562 931.5q43 36.5 71.5 92t42.5 113.5
q10 47 10 86q0 57 -23 93t-73 36q-52 0 -96 -36t-73 -91.5t-42 -114.5q-11 -44 -11 -87q0 -57 23.5 -92.5t75.5 -35.5t95 36.5zM969 67.5q-45 61.5 -45 156.5q0 45 12 102q16 70 53.5 138t98 113.5t139.5 45.5q94 0 141 -62.5t47 -159.5q0 -51 -12 -102q-17 -76 -57 -143
t-99.5 -108.5t-132.5 -41.5q-100 0 -145 61.5zM1549 67.5q-45 61.5 -45 155.5q0 46 12 103q16 70 53 138t97.5 113.5t139.5 45.5q95 0 143 -63t48 -161q0 -49 -12 -100q-17 -76 -57.5 -143t-100.5 -108.5t-133 -41.5q-100 0 -145 61.5zM1203.5 124.5q43.5 36.5 72.5 91
t41 110.5q10 47 10 86q0 56 -23 91.5t-73 35.5q-53 0 -96.5 -35t-72.5 -89.5t-42 -113.5q-11 -42 -11 -84q0 -57 23.5 -93t75.5 -36t95.5 36.5zM1783 124.5q42 36.5 70.5 91t40.5 110.5q11 44 11 87q0 56 -22.5 91t-72.5 35q-52 0 -95 -35t-71.5 -90t-41.5 -113
q-11 -44 -11 -85q0 -57 23.5 -92.5t75.5 -35.5q51 0 93 36.5z" />
    <glyph glyph-name="uni2031" unicode="&#x2031;" horiz-adv-x="2740" 
d="M329 875q-45 62 -45 156q0 51 13 106q16 71 53 139t97.5 114t140.5 46q93 0 139.5 -63t46.5 -161q0 -51 -12 -102q-18 -76 -58.5 -144t-100 -110.5t-130.5 -42.5q-99 0 -144 62zM250 8l1063 1385h114l-1060 -1385h-117zM562 931.5q43 36.5 71.5 92t42.5 113.5
q10 48 10 88q0 57 -22 93t-72 36q-54 0 -98.5 -36t-74 -91.5t-42.5 -114.5q-11 -44 -11 -87q0 -58 24 -94t77 -36q52 0 95 36.5zM969 67.5q-45 61.5 -45 156.5q0 45 12 102q16 70 53.5 138t98 113.5t139.5 45.5q93 0 139.5 -63t46.5 -160q0 -50 -12 -101q-17 -76 -57 -143
t-99.5 -108.5t-130.5 -41.5q-100 0 -145 61.5zM1546.5 68q-44.5 62 -44.5 157q0 51 11 101q16 70 53.5 138t98 113.5t139.5 45.5q94 0 140.5 -62t46.5 -158q0 -47 -13 -104q-17 -76 -56.5 -143t-98.5 -108.5t-131 -41.5q-101 0 -145.5 62zM2114 67.5q-45 61.5 -45 156.5
q0 45 12 102q16 70 53 138t98 113.5t140 45.5q94 0 140.5 -62t46.5 -158q0 -47 -13 -104q-17 -76 -57 -143t-99 -108.5t-131 -41.5q-100 0 -145 61.5zM1203.5 122.5q43.5 36.5 72.5 91.5t41 112q10 47 10 86q0 57 -23 93t-73 36q-54 0 -98 -35.5t-73 -90.5t-42 -114
q-11 -42 -11 -85q0 -58 24 -94t77 -36q52 0 95.5 36.5zM1781 122.5q43 36.5 72 92t41 111.5q11 44 11 87q0 57 -23 92.5t-74 35.5q-54 0 -97.5 -35.5t-72.5 -90.5t-43 -114q-10 -45 -10 -84q0 -58 24 -94.5t77 -36.5q52 0 95 36.5zM2348 122.5q43 36.5 72.5 91.5t41.5 112
q10 47 10 86q0 57 -23 93t-73 36q-54 0 -98 -35.5t-73 -90.5t-42 -114q-11 -42 -11 -85q0 -58 24 -94t77 -36q52 0 95 36.5z" />
    <glyph glyph-name="guilsinglleft" unicode="&#x2039;" horiz-adv-x="612" 
d="M369 193l-283 319l426 317l-31 -149l-237 -168l155 -170z" />
    <glyph glyph-name="guilsinglright" unicode="&#x203a;" horiz-adv-x="612" 
d="M102 193l31 149l238 170l-156 168l31 149l282 -317z" />
    <glyph glyph-name="fraction" unicode="&#x2044;" horiz-adv-x="723" 
d="M-82 0l748 1413h139l-746 -1413h-141z" />
    <glyph glyph-name="Euro" unicode="&#x20ac;" horiz-adv-x="1292" 
d="M457 37.5q-86 57.5 -128 159t-42 234.5q0 18 2 54l-131 -6l75 115l64 6q16 74 27 119q14 69 32 119l-118 -7l75 109l82 6q94 223 245 356.5t343 133.5q114 0 197 -49t131 -144l-107 -69q-29 79 -87 110t-144 31q-95 0 -181.5 -50.5t-156 -137t-117.5 -193.5l526 6
l-75 -115l-498 -6q-23 -80 -31 -119q-7 -26 -17 -78q-4 -23 -7 -38l547 6l-76 -117l-479 -6q-2 -165 63.5 -266t206.5 -101q86 0 163.5 38t139.5 118l70 -109q-84 -83 -181 -125t-198 -42q-129 0 -215 57.5z" />
    <glyph glyph-name="uni20B1" unicode="&#x20b1;" horiz-adv-x="1143" 
d="M1247 991h-87q-47 -166 -180 -253t-331 -87h-256l-149 -651h-135l228 991h-138l20 88h138l77 334h379q114 0 196.5 -35t126.5 -100.5t44 -156.5q0 -28 -2 -42h90zM492 1079h554q2 22 2 33q0 89 -64 136.5t-185 47.5h-256zM891.5 825q93.5 57 133.5 166h-553l-52 -223h246
q132 0 225.5 57z" />
    <glyph glyph-name="uni20B3" unicode="&#x20b3;" horiz-adv-x="1296" 
d="M1235 629h-217l30 -219h136l-25 -103h-97l42 -307h-141l-37 307h-639l-178 -307h-150l184 307h-98l25 103h135l131 219h-215l22 102h255l409 682h104l93 -682h253zM827 1255l-306 -524h365zM922 410l-25 219h-436l-128 -219h589z" />
    <glyph glyph-name="uni20B4" unicode="&#x20b4;" horiz-adv-x="1104" 
d="M959 905.5q-63 -67.5 -141.5 -109t-205.5 -93.5q-17 -7 -57 -23.5t-70 -30.5h416l-20 -88h-547q-51 -39 -84 -87.5t-47 -111.5q-10 -40 -10 -77q0 -92 63 -136.5t174 -44.5q91 0 178 33.5t154 99.5t98 160l113 -51q-46 -119 -132.5 -200.5t-194.5 -121.5t-222 -40
q-106 0 -187 38t-125 108.5t-44 165.5q0 47 12 101q25 109 92 181.5t149.5 116t213.5 95.5q60 24 90 37h-377l20 88h522q109 79 136 195q6 26 6 48q0 50 -25 86.5t-67.5 55.5t-94.5 19q-95 0 -183.5 -44t-149.5 -128l-86 80q171 207 424 207q88 0 157.5 -34t108.5 -96.5
t39 -144.5q0 -39 -11 -88q-22 -98 -85 -165.5z" />
    <glyph glyph-name="uni20B8" unicode="&#x20b8;" horiz-adv-x="1448" 
d="M356 1305l25 106h1108l-25 -106h-1108zM543 0l237 1028h-487l22 105h1108l-22 -105h-488l-237 -1028h-133z" />
    <glyph glyph-name="uni20BD" unicode="&#x20bd;" horiz-adv-x="1327" 
d="M315 381h-174l27 119h174l35 149h-174l26 119h174l150 645h379q113 0 195.5 -34.5t126 -100.5t43.5 -157q0 -44 -13 -103q-41 -178 -177 -273.5t-339 -95.5h-258l-35 -149h395l-26 -119h-395l-89 -381h-133zM784 768q147 0 247 70.5t130 203.5q8 32 8 68q0 90 -64.5 138
t-186.5 48h-259l-122 -528h247z" />
    <glyph glyph-name="uni2116" unicode="&#x2116;" horiz-adv-x="2351" 
d="M109 0l325 1413h213l324 -1288l299 1288h135l-326 -1413h-217l-317 1290l-299 -1290h-137zM1504 333q-72 43 -110 118.5t-38 172.5q0 63 14 122q28 120 100 219.5t174.5 157.5t216.5 58q98 0 170.5 -43.5t111 -119.5t38.5 -173q0 -58 -15 -121q-27 -119 -100 -218.5
t-176 -157.5t-215 -58q-99 0 -171 43zM1851.5 435.5q75.5 49.5 124 131t70.5 179.5q16 69 16 123q0 98 -49 156t-156 58q-96 0 -171 -49.5t-123.5 -130.5t-71.5 -179q-15 -63 -15 -122q0 -98 48.5 -157t154.5 -59q97 0 172.5 49.5zM1430 0v113h667v-113h-667z" />
    <glyph glyph-name="trademark" unicode="&#x2122;" horiz-adv-x="1276" 
d="M391 877l113 485h-146l13 51h354l-12 -51h-146l-112 -485h-64zM657 877l125 536h76l57 -362l230 362h76l-125 -536h-64l98 415l-198 -334h-64l-49 336l-98 -417h-64z" />
    <glyph glyph-name="uni2126" unicode="&#x2126;" horiz-adv-x="1688" 
d="M106 115l367 2q-113 67 -176.5 186t-63.5 265q0 80 19 159q29 128 102 254.5t168 216.5q115 96 254.5 152.5t265.5 56.5q134 0 248 -62t180 -165q41 -56 63.5 -135.5t22.5 -170.5q0 -81 -20 -169q-28 -125 -95.5 -240t-164.5 -205.5t-211 -142.5l338 2l-27 -119h-491
l22 123q119 39 224 131t181.5 224t112.5 288q14 57 14 125q0 61 -13 119t-37 104q-59 80 -154 128t-197 48q-111 0 -231.5 -53.5t-210.5 -142.5q-76 -62 -135 -157t-82 -196q-21 -91 -21 -176q0 -148 61 -265t175 -181l-23 -119h-491z" />
    <glyph glyph-name="arrowleft" unicode="&#x2190;" horiz-adv-x="2191" 
d="M993 154l-868 485l868 481l54 -96l-650 -346h1655v-86h-1640l635 -346z" />
    <glyph glyph-name="arrowright" unicode="&#x2192;" horiz-adv-x="2191" 
d="M1198 154l-53 92l635 346h-1641v86h1653l-647 346l53 96l868 -481z" />
    <glyph glyph-name="partialdiff" unicode="&#x2202;" horiz-adv-x="1313" 
d="M279.5 29.5q-73.5 39.5 -112.5 111.5t-39 169q0 59 15 126q38 165 139 301t244.5 214.5t302.5 78.5q88 0 153.5 -35.5t98.5 -97.5q16 81 16 150q0 132 -59.5 198t-171.5 66q-91 0 -166.5 -40.5t-136.5 -129.5l-129 43q76 118 190 180.5t253 62.5q343 0 343 -390
q0 -131 -42 -318q-45 -192 -141.5 -357.5t-244.5 -268.5t-337 -103q-102 0 -175.5 39.5zM704 176q110 70 187 186t108 250q13 60 13 102q0 93 -51 145t-152 52q-123 0 -235 -73.5t-190.5 -190t-107.5 -239.5q-11 -45 -11 -93q0 -96 52.5 -152.5t151.5 -56.5q125 0 235 70z
" />
    <glyph glyph-name="uni2206" unicode="&#x2206;" horiz-adv-x="1325" 
d="M10 0l860 1413l211 -1413h-1071zM213 117h727l-141 956z" />
    <glyph glyph-name="product" unicode="&#x220f;" horiz-adv-x="1346" 
d="M166 0l299 1296h-82l27 117h948l-27 -117h-82l-299 -1296h-116l299 1296h-551l-299 -1296h-117z" />
    <glyph glyph-name="summation" unicode="&#x2211;" horiz-adv-x="1284" 
d="M25 0l10 53l735 654l-430 653l10 53h993l-26 -117h-776l401 -587l-670 -592h772l-26 -117h-993z" />
    <glyph glyph-name="minus" unicode="&#x2212;" horiz-adv-x="1116" 
d="M258 580v96h600v-96h-600z" />
    <glyph glyph-name="radical" unicode="&#x221a;" horiz-adv-x="1233" 
d="M375 -158l-82 744h-148l27 116h227l45 -550l762 1261l105 -41z" />
    <glyph glyph-name="infinity" unicode="&#x221e;" horiz-adv-x="1915" 
d="M362.5 401.5q-79.5 47.5 -121.5 133.5t-42 200t42 200t121.5 133.5t190.5 47.5q114 0 218 -63.5t187 -178.5q82 115 186.5 178.5t219.5 63.5q110 0 189.5 -47.5t121 -133.5t41.5 -200t-42 -200t-121 -133.5t-189 -47.5q-115 0 -219.5 63.5t-186.5 178.5
q-83 -115 -187 -178.5t-218 -63.5q-111 0 -190.5 47.5zM758 537.5q84 74.5 139 197.5q-35 78 -86 140t-110 97.5t-117 35.5q-76 0 -134 -33t-90 -94.5t-32 -145.5t32 -145.5t90 -94t134 -32.5q90 0 174 74.5zM1465.5 495.5q57.5 32.5 89.5 94t32 145.5t-32 145.5t-89.5 94.5
t-132.5 33q-91 0 -175.5 -74.5t-139.5 -198.5q56 -120 141.5 -196t173.5 -76q75 0 132.5 32.5z" />
    <glyph glyph-name="integral" unicode="&#x222b;" horiz-adv-x="1030" 
d="M-84 -340q184 0 289 81t145 257l271 1171q20 83 67.5 147t111.5 99t132 35q51 0 99 -21t87 -59l-90 -84q-39 47 -102 47q-39 0 -78 -20.5t-69 -59.5t-42 -92l-272 -1173q-50 -220 -197.5 -332.5t-367.5 -112.5z" />
    <glyph glyph-name="approxequal" unicode="&#x2248;" horiz-adv-x="1178" 
d="M675 747q-32 14 -56 33.5t-58 53.5q-44 44 -76 66t-73 22q-56 0 -80.5 -46.5t-22.5 -115.5h-82q0 106 46.5 175t136.5 69q48 0 86 -15t64 -36.5t60 -56.5q38 -40 66.5 -59.5t65.5 -19.5q59 0 85.5 48.5t26.5 133.5h88q0 -126 -55 -196t-152 -70q-38 0 -70 14zM653 415
q-40 26 -90 76q-45 45 -77.5 67t-73.5 22q-56 0 -80.5 -47t-22.5 -117h-82q0 106 46.5 176t136.5 70q48 0 86 -15t64 -36.5t60 -56.5q38 -40 66.5 -59.5t65.5 -19.5q112 0 112 180h88q0 -125 -54 -195.5t-150 -70.5q-55 0 -95 26z" />
    <glyph glyph-name="notequal" unicode="&#x2260;" horiz-adv-x="1194" 
d="M156 0l229 434h-168v129h236l116 217h-352v129h422l266 504h142l-267 -504h189v-129h-256l-117 -217h373v-129h-443l-227 -434h-143z" />
    <glyph glyph-name="lessequal" unicode="&#x2264;" horiz-adv-x="1335" 
d="M1087 111l-876 491l876 488l60 -103l-723 -385l723 -389zM133 -96v96h1036v-96h-1036z" />
    <glyph glyph-name="greaterequal" unicode="&#x2265;" horiz-adv-x="1335" 
d="M248 111l-60 102l723 389l-723 385l60 103l876 -488zM166 -96v96h1036v-96h-1036z" />
    <glyph glyph-name="lozenge" unicode="&#x25ca;" horiz-adv-x="1147" 
d="M385 0l-201 717l527 717h151l199 -717l-524 -717h-152zM483 131l435 586l-156 586l-434 -586z" />
    <glyph glyph-name="uniF8FF" unicode="&#xf8ff;" horiz-adv-x="1868" 
d="M594.5 43q-177.5 104 -281.5 281.5t-104 388.5t104 388.5t281.5 281.5t388.5 104t388.5 -104t281.5 -281.5t104 -388.5t-104 -388.5t-281.5 -281.5t-388.5 -104t-388.5 104zM1335.5 104.5q161.5 94.5 256 256t94.5 352.5t-94.5 352.5t-256 255.5t-352.5 94t-352.5 -94
t-255.5 -255.5t-94 -352.5t94 -352.5t255.5 -256t352.5 -94.5t352.5 94.5zM555 419.5q-10 9.5 -10 24.5v537q0 15 10.5 26t24.5 11q15 0 25.5 -11t10.5 -26v-537q0 -15 -10.5 -24.5t-25.5 -9.5t-25 9.5zM958 419.5q-10 9.5 -10 24.5v537q0 15 10 26t25 11t25 -11t10 -26
v-537q0 -15 -9.5 -24.5t-25.5 -9.5q-15 0 -25 9.5zM1362 420l-270 268q-9 10 -9 25q0 16 9 24l272 269q6 12 20 12t25.5 -11.5t11.5 -25.5t-10 -25l-244 -243l244 -244q10 -10 10 -25q0 -13 -11.5 -23.5t-25.5 -10.5t-22 10zM689.5 687.5q-9.5 9.5 -9.5 25.5q0 15 9.5 25
t25.5 10h133q15 0 26 -10t11 -25t-11 -25t-26 -10h-133q-16 0 -25.5 9.5z" />
    <glyph glyph-name="i.loclTRK" horiz-adv-x="502" 
d="M72 0l229 999h129l-229 -999h-129zM342 1229l43 184h152l-43 -184h-152z" />
    <glyph glyph-name="f_t" horiz-adv-x="1217" 
d="M837 244q-8 -32 -8 -64q0 -50 24 -75t66 -25q43 0 103 24l-15 -108q-16 -6 -49 -11t-71 -5q-187 0 -187 175q0 45 15 113l145 629h-424l-207 -897h-123l207 897h-182l23 100h182l47 205q27 112 110 172t191 60q85 0 158 -39l-43 -90q-56 26 -115 26q-68 0 -117 -36.5
t-65 -108.5l-43 -187h423l50 220l159 131l-79 -351h253l-22 -102h-254z" />
    <glyph glyph-name="uni0414.loclRUS" horiz-adv-x="1442" 
d="M-18 113l122 6q101 133 164.5 238.5t115.5 241.5t97 331l113 483h823l-301 -1300h111l-97 -420h-131l72 307h-981l-72 -307h-133zM983 113l277 1190h-558l-90 -385q-45 -196 -96.5 -332t-114.5 -242t-163 -238z" />
    </font>
</defs>
</svg>
