<?xml version="1.0" standalone="no"?>
<!DOCTYPE svg PUBLIC "-//W3C//DTD SVG 1.1//EN" "http://www.w3.org/Graphics/SVG/1.1/DTD/svg11.dtd" >
<svg xmlns="http://www.w3.org/2000/svg" xmlns:xlink="http://www.w3.org/1999/xlink" version="1.1">
<metadata>
Created by FontForge 20161003 at Mon Feb 20 18:10:03 2017
 By www-data
Copyright (c)2015, HK Grotesk Latin by Alfredo Marco Pradil (ammpradil@gmail.com) and HK Grotesk Cyrillic by Stefan Peev (http://www.contextbg.net/). HK Grotesk is a trademark of Alfredo Marco Pradil.
</metadata>
<defs>
<font id="HKGroteskRegular" horiz-adv-x="1119" >
  <font-face 
    font-family="HKGroteskRegular"
    font-weight="400"
    font-stretch="normal"
    units-per-em="2048"
    panose-1="0 0 5 0 0 0 0 0 0 0"
    ascent="1434"
    descent="-614"
    x-height="999"
    cap-height="1413"
    bbox="-932 -512 2617 2244"
    underline-thickness="82"
    underline-position="-182"
    unicode-range="U+0020-FB02"
  />
<missing-glyph horiz-adv-x="1156" 
d="M168 0v954h820v-954h-820zM271 102h614v750h-614v-750z" />
    <glyph glyph-name="fi" unicode="fi" horiz-adv-x="998" 
d="M179 877h-147v122h149q0 192 84.5 313.5t282.5 121.5q96 0 159.5 -31.5t125.5 -91.5l-81 -101q-52 54 -101 75.5t-106 21.5q-125 0 -175.5 -84t-50.5 -224h512v-999h-135v877h-377v-877h-140v877z" />
    <glyph glyph-name="fl" unicode="fl" horiz-adv-x="1009" 
d="M727 39.5q-31 59.5 -31 162.5v1041q-13 24 -58.5 44t-105.5 20q-112 0 -162.5 -41.5t-50.5 -140.5v-126h215v-122h-215v-877h-140v877h-147v122h149v143q0 95 43.5 160.5t121 98.5t180.5 33q70 0 145.5 -28.5t161.5 -106.5v-1116q0 -36 8.5 -49.5t39.5 -13.5q25 0 69 11
v-131q5 0 -14 -5.5t-46 -10t-53 -4.5q-79 0 -110 59.5z" />
    <glyph glyph-name="f_f_i" unicode="ffi" horiz-adv-x="1542" 
d="M1383 999v-999h-135v877h-388v-877h-141v877h-402v-877h-144v877h-141v122h142v123q0 92 44.5 163t121.5 110t170 39q79 0 152.5 -27t131.5 -82q47 48 122 78.5t154 30.5q71 0 149 -29.5t155 -88.5l-71 -106q-3 8 -34 32.5t-81 45.5t-113 21q-96 0 -155.5 -51t-59.5 -140
v-119h523zM727 1220q-11 16 -38 37.5t-71 38t-99 16.5q-95 0 -148.5 -51.5t-53.5 -142.5v-119h404v123q0 53 6 98z" />
    <glyph glyph-name="f_f_l" unicode="ffl" horiz-adv-x="1552" 
d="M1276.5 21.5q-29.5 41.5 -29.5 109.5v1102q-18 31 -63.5 52.5t-100.5 21.5q-93 0 -149 -53.5t-56 -145.5v-109h169v-122h-169v-877h-141v877h-420v-877h-145v877h-140v122h142v117q0 93 44.5 165.5t121.5 112.5t172 40q99 0 170.5 -32t131.5 -82q97 114 270 114
q66 0 113.5 -13t90 -41t95.5 -80v-1122q0 -23 2 -34t11.5 -17.5t31.5 -6.5q33 0 68 11v-131q-25 -8 -55.5 -14t-55.5 -6q-79 0 -108.5 41.5zM739 999q0 86 1.5 132.5t7.5 73.5q-32 40 -86 71t-131 31q-96 0 -155 -51.5t-59 -141.5v-115h422z" />
    <glyph glyph-name=".notdef" horiz-adv-x="1156" 
d="M168 0v954h820v-954h-820zM271 102h614v750h-614v-750z" />
    <glyph glyph-name=".null" horiz-adv-x="0" 
 />
    <glyph glyph-name="nonmarkingreturn" horiz-adv-x="682" 
 />
    <glyph glyph-name="space" unicode=" " horiz-adv-x="541" 
 />
    <glyph glyph-name="exclam" unicode="!" horiz-adv-x="630" 
d="M258 381l-29 1054h172l-29 -1054h-114zM217 0v194h196v-194h-196z" />
    <glyph glyph-name="quotedbl" unicode="&#x22;" horiz-adv-x="908" 
d="M236 984v429h134v-429h-134zM536 984v429h136v-429h-136z" />
    <glyph glyph-name="numbersign" unicode="#" horiz-adv-x="1368" 
d="M257 0l90 438h-240v113h264l66 333h-248v110h272l94 440h121l-95 -437h321l92 437h120l-92 -439h240v-111h-263l-68 -333h249v-109h-272l-92 -442h-120l92 436h-321l-90 -436h-120zM491 551h320l67 333h-319z" />
    <glyph glyph-name="dollar" unicode="$" horiz-adv-x="1114" 
d="M503 -12q-105 11 -194 58.5t-149 129t-77 191.5l152 42q10 -90 57.5 -152.5t121 -93.5t160.5 -31q130 0 206.5 63t76.5 187q0 79 -42.5 134.5t-105 91.5t-169.5 83q-119 52 -191 95t-122 113.5t-50 173.5q0 97 42.5 173.5t116.5 123.5t167 59v230h107v-227
q235 -21 344 -222l-123 -82q-42 81 -113.5 123t-155.5 42q-60 0 -112 -25.5t-83.5 -72t-31.5 -107.5q0 -73 40 -124.5t100 -85t163 -78.5q123 -54 197.5 -98.5t127 -120t52.5 -188.5q0 -117 -52.5 -208t-144.5 -143t-208 -57v-231h-107v234z" />
    <glyph glyph-name="percent" unicode="%" horiz-adv-x="1576" 
d="M233.5 852.5q-55.5 48.5 -79.5 120.5t-24 145q0 75 24 147.5t78 121.5t140 49q81 0 137.5 -46t84 -118.5t27.5 -153.5q0 -80 -27 -152t-82 -117t-134 -45q-89 0 -144.5 48.5zM339 2l753 1405h132l-753 -1405h-132zM451 936q30 32 44 81.5t14 102.5t-14.5 102t-45.5 80.5
t-77 31.5q-68 0 -102 -65t-34 -151q0 -85 35 -149.5t105 -64.5q45 0 75 32zM1061.5 51.5q-55.5 48.5 -80 120t-24.5 144.5q0 74 24 146t78.5 121t140.5 49q80 0 136 -45.5t84 -118t28 -153.5q0 -80 -27 -151.5t-81.5 -116t-133.5 -44.5q-89 0 -144.5 48.5zM1279 135
q30 32 44.5 81.5t14.5 100.5q0 85 -34.5 149t-103.5 64q-68 0 -102.5 -64t-34.5 -150q0 -85 35 -149t106 -64q45 0 75 32z" />
    <glyph glyph-name="ampersand" unicode="&#x26;" horiz-adv-x="1376" 
d="M1171 -54l-196 231q-82 -95 -194 -146.5t-250 -51.5q-114 0 -205.5 36.5t-145 109.5t-53.5 177t47.5 186.5t121 144.5t180.5 131q-82 98 -135.5 185.5t-53.5 172.5q0 94 47 164t125 107t170 37q88 0 160.5 -40t115 -110.5t42.5 -156.5q0 -82 -37.5 -149.5t-97.5 -121
t-147 -112.5l295 -346q56 124 73 297l132 -14q-18 -223 -113 -390l218 -255zM580 830q78 49 130 91.5t83.5 92.5t31.5 108q0 52 -26.5 94t-71.5 66t-96 24q-55 0 -103.5 -21.5t-79 -63.5t-30.5 -101q0 -106 162 -290zM890 277l-334 392q-96 -62 -157.5 -112.5t-101 -113.5
t-39.5 -139q0 -98 79.5 -145t195.5 -47q229 0 357 165z" />
    <glyph glyph-name="quotesingle" unicode="'" horiz-adv-x="605" 
d="M236 1013v429h134v-429h-134z" />
    <glyph glyph-name="parenleft" unicode="(" horiz-adv-x="560" 
d="M240 176.5q-54 128.5 -83 270t-29 258.5q0 199 60 398t177 339h129q-119 -156 -181.5 -347t-62.5 -393q0 -200 61 -389t181 -345h-125q-73 80 -127 208.5z" />
    <glyph glyph-name="parenright" unicode=")" horiz-adv-x="560" 
d="M248 316.5q62 192.5 62 387.5q0 192 -65 389t-179 349h128q118 -138 178 -333t60 -402q0 -120 -29 -262.5t-83.5 -270.5t-126.5 -206h-125q118 156 180 348.5z" />
    <glyph glyph-name="asterisk" unicode="*" horiz-adv-x="868" 
d="M310 850l-92 68l173 197l-249 41l35 112l231 -100l-31 245h113l-30 -245l230 100l36 -112l-250 -41l174 -197l-94 -68l-123 232z" />
    <glyph glyph-name="plus" unicode="+" horiz-adv-x="1265" 
d="M575 106v463h-456v113h456v461h114v-461h457v-113h-457v-463h-114z" />
    <glyph glyph-name="comma" unicode="," horiz-adv-x="621" 
d="M143 -326l144 590h193l-244 -590h-93z" />
    <glyph glyph-name="hyphen" unicode="-" horiz-adv-x="835" 
d="M161 578v114h513v-114h-513z" />
    <glyph glyph-name="period" unicode="." horiz-adv-x="662" 
d="M232 0v194h198v-194h-198z" />
    <glyph glyph-name="slash" unicode="/" horiz-adv-x="927" 
d="M11 -430l754 1946h152l-753 -1946h-153z" />
    <glyph glyph-name="zero" unicode="0" horiz-adv-x="1155" 
d="M285 90q-118 110 -170.5 276t-52.5 341q0 176 51 342.5t166 276.5t294 110q167 0 285.5 -103t178.5 -271t60 -359q0 -189 -58.5 -354.5t-173.5 -267t-277 -101.5q-185 0 -303 110zM783 215q78 91 112.5 225t34.5 269q0 139 -35 270.5t-115 219.5t-207 88
q-126 0 -206 -88.5t-115 -220.5t-35 -271t35.5 -272t117.5 -222t212 -89q123 0 201 91z" />
    <glyph glyph-name="one" unicode="1" horiz-adv-x="1155" 
d="M581 1086h-377v125h216q82 0 128.5 49t46.5 126v27h144v-1413h-158v1086z" />
    <glyph glyph-name="two" unicode="2" horiz-adv-x="1155" 
d="M80 142q155 99 268 191.5t205 188.5q134 143 201 259.5t67 242.5q0 128 -67 197.5t-178 69.5q-128 0 -202.5 -91.5t-82.5 -249.5l-156 15q0 146 53.5 251t152 160.5t230.5 55.5q127 0 220.5 -50.5t144 -141.5t50.5 -211q0 -154 -83 -296t-252 -310q-109 -110 -182 -167.5
t-150 -107.5l-21 -14h758v-134h-976v142z" />
    <glyph glyph-name="three" unicode="3" horiz-adv-x="1155" 
d="M313 27q-108 47 -171 141.5t-63 230.5l145 14q0 -92 45.5 -158.5t121.5 -101.5t166 -35q86 0 161 33t121.5 98.5t46.5 157.5q0 89 -41 150.5t-111 92.5t-156 31h-100v137h100q105 0 167.5 61.5t62.5 169.5q0 76 -34.5 131t-93 84t-127.5 29q-73 0 -132.5 -30.5t-94.5 -86
t-36 -129.5l-143 16q0 114 53.5 198t145.5 128.5t206 44.5q111 0 203 -44t146 -127t54 -195q0 -97 -42.5 -177.5t-122.5 -129.5q118 -41 178 -136t63 -223q0 -135 -63 -230.5t-170.5 -143.5t-241.5 -48q-135 0 -243 47z" />
    <glyph glyph-name="four" unicode="4" horiz-adv-x="1155" 
d="M696 0v381h-652v90l666 942h141v-897h225v-135h-225v-381h-155zM231 516h465v657z" />
    <glyph glyph-name="five" unicode="5" horiz-adv-x="1155" 
d="M360 31.5q-96 51.5 -159.5 140.5t-87.5 200l141 47q26 -128 100.5 -216.5t216.5 -88.5q100 0 171 50t106.5 129.5t35.5 168.5q0 88 -34.5 163.5t-102 121.5t-163.5 46q-89 0 -165 -41.5t-122 -114.5l-136 64l124 712h698v-138h-577l-76 -456q56 57 128 80.5t147 23.5
q129 0 229.5 -62.5t156.5 -168.5t56 -230q0 -129 -61.5 -240t-169.5 -176.5t-242 -65.5q-118 0 -214 51.5z" />
    <glyph glyph-name="six" unicode="6" horiz-adv-x="1155" 
d="M348 43q-107 63 -169.5 170.5t-62.5 235.5q0 134 68 245l412 719h173l-311 -525q65 13 125 13q129 0 236 -58t169 -161t62 -230q0 -125 -60.5 -233.5t-167 -173.5t-239.5 -65q-128 0 -235 63zM741.5 166.5q72.5 44.5 115 120t42.5 163.5q0 89 -42.5 164.5t-115 119.5
t-158.5 44t-158.5 -44t-115 -119.5t-42.5 -164.5q0 -88 42.5 -163.5t115 -120t158.5 -44.5t158.5 44.5z" />
    <glyph glyph-name="seven" unicode="7" horiz-adv-x="1155" 
d="M262 0l600 1275h-757v138h940v-78l-609 -1335h-174z" />
    <glyph glyph-name="eight" unicode="8" horiz-adv-x="1155" 
d="M339 26.5q-108 46.5 -172 138.5t-64 224q0 129 64.5 225t184.5 148q-85 48 -131.5 129t-46.5 179q0 112 54.5 194.5t147 126t203.5 43.5q110 0 201.5 -43.5t146 -126.5t54.5 -194q0 -98 -45.5 -178.5t-128.5 -129.5q117 -50 181 -147t64 -225q0 -133 -63.5 -225.5
t-171.5 -138.5t-239 -46t-239 46.5zM709.5 840.5q57.5 29.5 91 84.5t33.5 128q0 77 -34 133.5t-91.5 85.5t-126.5 29q-65 0 -123 -27.5t-94 -81t-36 -126.5q0 -76 32 -134t89.5 -89.5t132.5 -31.5q69 0 126.5 29.5zM734.5 143q72.5 33 116.5 99t44 159q0 91 -43 157
t-115.5 100t-159.5 34q-88 0 -161.5 -34t-116.5 -100t-43 -156q0 -94 44.5 -160t118 -99t158.5 -33t157.5 33z" />
    <glyph glyph-name="nine" unicode="9" horiz-adv-x="1155" 
d="M698 526q-61 -14 -126 -14q-128 0 -235 58.5t-169.5 161t-62.5 229.5q0 125 60.5 234t167.5 174t241 65q127 0 233.5 -63.5t169 -171t62.5 -235.5q0 -132 -66 -245l-414 -719h-170zM730.5 679q72.5 44 115 119.5t42.5 164.5q0 88 -42.5 163.5t-115 120t-158.5 44.5
t-158.5 -44.5t-115 -120t-42.5 -163.5q0 -89 42.5 -164.5t115 -119.5t158.5 -44t158.5 44z" />
    <glyph glyph-name="colon" unicode=":" horiz-adv-x="671" 
d="M238 761v193h195v-193h-195zM238 0v194h195v-194h-195z" />
    <glyph glyph-name="semicolon" unicode=";" horiz-adv-x="652" 
d="M249 761v193h196v-193h-196zM126 -326l144 590h193l-244 -590h-93z" />
    <glyph glyph-name="less" unicode="&#x3c;" horiz-adv-x="1211" 
d="M1001 170l-899 504l899 504l68 -118l-717 -386l717 -387z" />
    <glyph glyph-name="equal" unicode="=" horiz-adv-x="1263" 
d="M252 775v136h759v-136h-759zM252 433v136h759v-136h-759z" />
    <glyph glyph-name="greater" unicode="&#x3e;" horiz-adv-x="1211" 
d="M210 170l-68 117l717 387l-717 386l68 118l898 -504z" />
    <glyph glyph-name="question" unicode="?" horiz-adv-x="1020" 
d="M435 605q0 69 23 113t56.5 69.5t89.5 56.5t88 55.5t54 66.5t22 107q0 113 -73.5 170.5t-191.5 57.5q-73 0 -133 -28t-96 -82t-37 -129h-144q0 112 54 196.5t145.5 130t201.5 45.5q116 0 210.5 -42t150.5 -124.5t56 -197.5q0 -90 -29.5 -148.5t-70 -91t-106.5 -69.5
q-47 -26 -73 -45t-43.5 -46.5t-17.5 -66.5v-227h-136v229zM408 0v194h196v-194h-196z" />
    <glyph glyph-name="at" unicode="@" horiz-adv-x="2066" 
d="M584 -244q-200 104 -317 300t-117 459q0 257 112.5 466.5t316 330t466.5 120.5q257 0 456.5 -114.5t309.5 -313.5t110 -444q0 -160 -48.5 -300t-149 -226.5t-249.5 -86.5q-125 0 -196.5 62.5t-71.5 170.5q0 26 2 40q-58 -73 -142.5 -113.5t-175.5 -40.5
q-101 0 -171.5 50.5t-105.5 136t-35 188.5q0 137 57 276t162.5 230t242.5 91q102 0 175 -51.5t93 -137.5l29 140h149q-14 -72 -52 -226q-47 -192 -71 -312t-24 -207q0 -79 28.5 -111.5t98.5 -32.5q113 0 183 69.5t99.5 174t29.5 218.5q0 207 -91 373.5t-257.5 262
t-383.5 95.5q-224 0 -395.5 -102t-265 -278.5t-93.5 -393.5q0 -224 98.5 -386.5t266.5 -247t371 -84.5q126 0 248 39l53 -137q-74 -26 -146.5 -38.5t-156.5 -12.5q-242 0 -442 104zM1096.5 285.5q79.5 70.5 120 176t40.5 206.5q0 105 -47 163t-145 58q-110 0 -189.5 -70
t-120.5 -175t-41 -206q0 -105 48 -164t146 -59q109 0 188.5 70.5z" />
    <glyph glyph-name="A" unicode="A" horiz-adv-x="1306" 
d="M63 0l531 1413h122l527 -1413h-170l-108 307h-621l-108 -307h-173zM397 452h514l-255 728z" />
    <glyph glyph-name="B" unicode="B" horiz-adv-x="1243" 
d="M212 1413h391q121 0 223.5 -35.5t166 -114t63.5 -200.5q0 -209 -183 -315q119 -53 185.5 -142.5t66.5 -228.5q0 -134 -63 -218t-164.5 -121.5t-221.5 -37.5h-464v1413zM603 791q128 0 208 62.5t80 188.5q0 127 -77.5 178t-208.5 51h-238v-480h236zM680 147q129 0 209 54
t80 185q0 141 -80 202t-206 61h-316v-502h313z" />
    <glyph glyph-name="C" unicode="C" horiz-adv-x="1420" 
d="M406 77q-142 97 -211.5 262t-69.5 371q0 203 69 367t213 261.5t360 97.5q202 0 347 -92.5t218 -283.5l-146 -63q-42 153 -158.5 222.5t-267.5 69.5q-165 0 -272.5 -78t-157 -208t-49.5 -291q0 -164 50.5 -296t159 -211t273.5 -79q317 0 424 295l146 -63
q-80 -183 -228.5 -280.5t-351.5 -97.5q-206 0 -348 97z" />
    <glyph glyph-name="D" unicode="D" horiz-adv-x="1406" 
d="M212 1413h360q229 0 388.5 -82.5t242 -243t82.5 -391.5q0 -221 -83.5 -377.5t-244 -237.5t-387.5 -81h-358v1413zM546 145q169 0 300 61t205.5 187t74.5 314q0 276 -140 420t-418 144h-197v-1126h175z" />
    <glyph glyph-name="E" unicode="E" horiz-adv-x="1239" 
d="M212 0v1413h915v-137h-756v-502h657v-133h-657v-496h756v-145h-915z" />
    <glyph glyph-name="F" unicode="F" horiz-adv-x="1196" 
d="M212 0v1413h906v-137h-747v-502h659v-133h-659v-641h-159z" />
    <glyph glyph-name="G" unicode="G" horiz-adv-x="1509" 
d="M407 77q-143 97 -212.5 261.5t-69.5 368.5q0 203 70.5 368t212.5 263t349 98q199 0 346 -96.5t228 -279.5l-145 -63q-64 141 -173.5 215.5t-257.5 74.5q-160 0 -266.5 -77.5t-157 -206t-50.5 -286.5q0 -166 50.5 -298.5t157.5 -211.5t270 -79q122 0 223 54.5t161 159
t62 248.5h-323v125h473v-715h-132l-2 258q-30 -75 -94 -138.5t-158.5 -101.5t-209.5 -38q-209 0 -352 97z" />
    <glyph glyph-name="H" unicode="H" horiz-adv-x="1455" 
d="M212 0v1413h159v-639h713v639h159v-1413h-159v641h-713v-641h-159z" />
    <glyph glyph-name="I" unicode="I" horiz-adv-x="582" 
d="M212 0v1413h159v-1413h-159z" />
    <glyph glyph-name="J" unicode="J" 
d="M278.5 35q-93.5 55 -146 149.5t-60.5 211.5l155 21q5 -79 35.5 -146.5t89.5 -109t146 -41.5q109 0 169.5 47t82.5 126.5t22 191.5v791h-532v137h691v-911q0 -248 -104 -385t-329 -137q-126 0 -219.5 55z" />
    <glyph glyph-name="K" unicode="K" horiz-adv-x="1452" 
d="M212 0v1413h159v-829l781 829h204l-534 -557l567 -856h-191l-482 747l-345 -357v-390h-159z" />
    <glyph glyph-name="L" unicode="L" horiz-adv-x="1037" 
d="M212 0v1413h159v-1268h604v-145h-763z" />
    <glyph glyph-name="M" unicode="M" horiz-adv-x="1762" 
d="M212 0v1413h258l408 -1135l414 1135h258v-1413h-157v1276l-425 -1153h-174l-424 1153v-1276h-158z" />
    <glyph glyph-name="N" unicode="N" horiz-adv-x="1418" 
d="M212 0v1413h229l608 -1245v1245h157v-1413h-232l-604 1247v-1247h-158z" />
    <glyph glyph-name="O" unicode="O" horiz-adv-x="1515" 
d="M406.5 77.5q-142.5 97.5 -213 262.5t-70.5 367t70.5 367t213 262.5t349.5 97.5q208 0 351 -97.5t214 -262.5t71 -367t-71 -367t-214 -262.5t-351 -97.5q-207 0 -349.5 97.5zM1028.5 205.5q108.5 79.5 159 211t50.5 290.5t-50.5 290t-159 210.5t-272.5 79.5
q-162 0 -269.5 -79.5t-158 -210.5t-50.5 -290t50.5 -290.5t158 -211t269.5 -79.5q164 0 272.5 79.5z" />
    <glyph glyph-name="P" unicode="P" horiz-adv-x="1148" 
d="M212 1413h396q136 0 238.5 -47t158 -135t55.5 -208q0 -123 -55.5 -209.5t-157 -131t-239.5 -44.5h-238v-638h-158v1413zM608 779q143 0 219.5 61.5t76.5 182.5q0 118 -77.5 183.5t-218.5 65.5h-238v-493h238z" />
    <glyph glyph-name="Q" unicode="Q" horiz-adv-x="1545" 
d="M1143 102q-148 -122 -387 -122q-207 0 -349.5 97.5t-213 262.5t-70.5 367t70.5 367t213 262.5t349.5 97.5q208 0 351 -97.5t214 -262.5t71 -368q0 -149 -39 -281.5t-117 -228.5l195 -197l-95 -96zM909 144.5q67 20.5 124 61.5l-199 204l92 97l201 -203q54 79 80 183
t26 220q0 160 -49.5 291.5t-156.5 211t-271 79.5q-162 0 -268.5 -80t-156 -211.5t-49.5 -290.5q0 -160 49.5 -291.5t156 -211.5t268.5 -80q86 0 153 20.5z" />
    <glyph glyph-name="R" unicode="R" horiz-adv-x="1220" 
d="M212 1411h404q125 0 226 -47.5t159.5 -136.5t58.5 -208q0 -94 -37.5 -170t-105.5 -126.5t-158 -69.5l383 -655h-186l-353 634h-232v-634h-159v1413zM642 778q118 6 190 68.5t72 172.5q0 79 -36.5 136t-101 86.5t-148.5 29.5h-245v-493h269z" />
    <glyph glyph-name="S" unicode="S" horiz-adv-x="1110" 
d="M349 27q-104 43 -175.5 128t-90.5 207l148 44q10 -92 58 -155.5t122 -94.5t161 -31q131 0 208.5 64.5t77.5 188.5q0 82 -43 138.5t-106 93t-171 83.5q-119 52 -190.5 94.5t-121 113.5t-49.5 175q0 106 51.5 187.5t139 126t192.5 44.5q127 0 227 -55t165 -165l-119 -80
q-41 81 -114 122t-161 41q-60 0 -112 -25.5t-83.5 -72.5t-31.5 -109q0 -67 39 -116t97 -82.5t158 -78.5q125 -56 202 -103t131 -125.5t54 -194.5q0 -121 -57.5 -213.5t-158 -142.5t-225.5 -50q-118 0 -222 43z" />
    <glyph glyph-name="T" unicode="T" horiz-adv-x="1234" 
d="M537 0v1282h-477v131h1114v-131h-477v-1282h-160z" />
    <glyph glyph-name="U" unicode="U" horiz-adv-x="1352" 
d="M397 53q-110 73 -161.5 194.5t-51.5 270.5v895h159v-850q0 -201 76 -317t256 -116q336 0 336 433v850h159v-885q0 -154 -52.5 -277.5t-163.5 -197t-279 -73.5t-278 73z" />
    <glyph glyph-name="V" unicode="V" horiz-adv-x="1324" 
d="M596 0l-533 1413h166l435 -1203l435 1203h162l-529 -1413h-136z" />
    <glyph glyph-name="W" unicode="W" horiz-adv-x="1973" 
d="M471 0l-397 1413h162l336 -1219l351 1137h128l352 -1137l334 1219h163l-398 -1413h-174l-338 1076l-345 -1076h-174z" />
    <glyph glyph-name="X" unicode="X" horiz-adv-x="1260" 
d="M72 0l468 707l-466 706h189l368 -586l370 586h185l-463 -706l465 -707h-185l-374 576l-368 -576h-189z" />
    <glyph glyph-name="Y" unicode="Y" horiz-adv-x="1316" 
d="M581 0v553l-529 860h186l419 -699l422 699h185l-527 -860v-553h-156z" />
    <glyph glyph-name="Z" unicode="Z" horiz-adv-x="1273" 
d="M87 0v124l895 1152h-850v137h1043v-130l-891 -1139h891v-144h-1088z" />
    <glyph glyph-name="bracketleft" unicode="[" horiz-adv-x="633" 
d="M204 -93v1597h362v-91h-236v-1413h236v-93h-362z" />
    <glyph glyph-name="backslash" unicode="\" horiz-adv-x="927" 
d="M765 -430l-754 1946h153l753 -1946h-152z" />
    <glyph glyph-name="bracketright" unicode="]" horiz-adv-x="633" 
d="M67 -93v93h236v1413h-236v91h362v-1597h-362z" />
    <glyph glyph-name="asciicircum" unicode="^" horiz-adv-x="974" 
d="M124 839l362 589l366 -589h-158l-208 334l-204 -334h-158z" />
    <glyph glyph-name="underscore" unicode="_" horiz-adv-x="1236" 
d="M228 -114v114h780v-114h-780z" />
    <glyph glyph-name="grave" unicode="`" horiz-adv-x="536" 
d="M314 1122l-258 291h192l218 -291h-152z" />
    <glyph glyph-name="a" unicode="a" horiz-adv-x="1025" 
d="M233.5 15.5q-73.5 35.5 -115 103t-41.5 159.5q0 148 112 220.5t328 72.5h228q0 319 -245 319q-97 0 -165 -43.5t-112 -107.5l-109 85q142 196 377 196q125 0 213 -50.5t133 -142.5t45 -214v-613h-127l-3 193q-52 -108 -145 -160.5t-206 -52.5q-94 0 -167.5 35.5z
M590 158.5q75 52.5 115 134.5t40 165h-214q-152 0 -226 -43t-74 -141q0 -85 51.5 -126.5t135.5 -41.5q97 0 172 52.5z" />
    <glyph glyph-name="b" unicode="b" horiz-adv-x="1128" 
d="M447.5 21q-77.5 41 -128.5 115v-136h-149v1413h149v-550q110 157 310 157q126 0 217.5 -69.5t138.5 -187.5t47 -263t-47 -263t-138 -187.5t-217 -69.5q-105 0 -182.5 41zM753 160.5q66 54.5 98 144t32 195.5q0 105 -32 195t-98 144.5t-162 54.5q-95 0 -159.5 -54.5
t-95 -144t-30.5 -195.5q0 -107 30.5 -196.5t94.5 -143.5t160 -54t162 54.5z" />
    <glyph glyph-name="c" unicode="c" horiz-adv-x="974" 
d="M289.5 51q-98.5 71 -148 189.5t-49.5 257.5q0 138 49.5 257.5t147 192t235.5 72.5q134 0 235 -70.5t154 -195.5l-141 -60q-22 91 -90 145.5t-158 54.5q-97 0 -160 -58.5t-91 -149t-28 -188.5q0 -100 27.5 -189t90.5 -146t161 -57q91 0 158 53t90 142l130 -56
q-45 -125 -143 -195t-233 -70q-138 0 -236.5 71z" />
    <glyph glyph-name="d" unicode="d" horiz-adv-x="1129" 
d="M958 1413v-1413h-145l-3 139q-53 -76 -129 -117.5t-184 -41.5q-124 0 -215 69.5t-138.5 188t-47.5 262.5q0 145 47.5 263.5t138 187.5t214.5 69q205 0 313 -157v550h149zM696.5 160q64.5 54 94.5 143t30 197q0 107 -30 196t-94.5 143.5t-161.5 54.5q-96 0 -160 -54.5
t-95 -144t-31 -195.5q0 -107 31 -196.5t95 -143.5t160 -54q97 0 161.5 54z" />
    <glyph glyph-name="e" unicode="e" horiz-adv-x="1038" 
d="M293.5 54.5q-101.5 68.5 -152 184t-50.5 255.5q0 138 49.5 256.5t147.5 190.5t237 72q153 0 247.5 -70.5t135.5 -180.5t41 -236q0 -32 -5 -77h-696q-1 -91 32.5 -166.5t99.5 -120.5t160 -45q91 0 158 23.5t123 83.5l102 -82q-81 -82 -171.5 -119t-210.5 -37
q-146 0 -247.5 68.5zM806 571q-3 136 -71 227.5t-210 91.5q-88 0 -149 -43t-92.5 -115t-35.5 -161h558z" />
    <glyph glyph-name="f" unicode="f" horiz-adv-x="678" 
d="M214 877h-182v122h183v168q0 87 36 147t97 90t137 30q86 0 164 -38l-36 -119q-65 31 -117 31q-60 0 -96.5 -37.5t-36.5 -111.5v-160h287v-122h-287v-877h-149v877z" />
    <glyph glyph-name="g" unicode="g" horiz-adv-x="1024" 
d="M743.5 88.5q82.5 -22.5 139 -80t56.5 -162.5q0 -99 -54.5 -167.5t-145.5 -102.5t-200 -34q-127 0 -225 45t-152 122.5t-54 172.5q0 17 3 38l144 145q-127 70 -127 205q0 102 73 165q-84 94 -84 228q0 104 49 183.5t134.5 123t190.5 43.5q77 0 143 -24.5t115 -68.5
l150 136l85 -106l-161 -127q37 -74 37 -162q0 -105 -48.5 -183t-132.5 -119.5t-188 -41.5q-102 0 -188 42q-43 -33 -43 -77q0 -70 69.5 -102.5t197.5 -50.5q134 -18 216.5 -40.5zM373 863.5q-50 -31.5 -77 -83.5t-27 -114q0 -67 27 -118t76.5 -79t116.5 -28t117 28t77 79
t27 118q0 63 -27 115.5t-77.5 83t-116.5 30.5t-116 -31.5zM677.5 -308q58.5 18 93.5 54.5t35 88.5q0 53 -33 82t-83.5 42.5t-143.5 27.5q-46 7 -63 10q-83 15 -119 26l-118 -144q1 -53 37.5 -100t105.5 -76t162 -29q68 0 126.5 18z" />
    <glyph glyph-name="h" unicode="h" horiz-adv-x="1124" 
d="M170 1413h148v-578q50 82 139 132t186 50q114 0 189.5 -54t111 -144.5t35.5 -202.5v-616h-151v592q0 122 -47.5 203.5t-164.5 81.5q-85 0 -153.5 -45.5t-106.5 -123t-38 -169.5v-539h-148v1413z" />
    <glyph glyph-name="i" unicode="i" horiz-adv-x="488" 
d="M159 1221v192h170v-192h-170zM170 0v999h148v-999h-148z" />
    <glyph glyph-name="j" unicode="j" horiz-adv-x="493" 
d="M161 1227v186h172v-186h-172zM-8.5 -429q-43.5 9 -75.5 22l32 112q22 -7 55.5 -12t59.5 -5q58 0 83 38.5t25 96.5v1176h152v-1154q0 -130 -63 -206.5t-193 -76.5q-32 0 -75.5 9z" />
    <glyph glyph-name="k" unicode="k" horiz-adv-x="1048" 
d="M170 0v1413h151v-952l445 538h187l-326 -367l391 -632h-177l-306 530l-214 -237v-293h-151z" />
    <glyph glyph-name="l" unicode="l" horiz-adv-x="518" 
d="M462 120v-120q-27 -8 -63 -14t-72 -6q-71 0 -106.5 29t-45.5 75t-10 118v1211h151v-1246q0 -14 10.5 -35.5t38.5 -21.5q42 0 97 10z" />
    <glyph glyph-name="m" unicode="m" horiz-adv-x="1699" 
d="M168 999h151v-155q32 75 106.5 125.5t165.5 50.5q109 0 189 -52.5t116 -156.5q48 101 127 155t184 54q118 0 196 -55.5t114.5 -148.5t36.5 -209v-607h-151v592q0 125 -48.5 213t-165.5 88q-78 0 -135.5 -49t-87.5 -127t-30 -163v-554h-152v596q0 125 -47 211t-163 86
q-79 0 -137 -53.5t-88 -139t-30 -179.5v-521h-151v999z" />
    <glyph glyph-name="n" unicode="n" 
d="M168 999h149v-174q51 90 133.5 141t188.5 51q114 0 189 -55t110.5 -147.5t35.5 -207.5v-607h-148v592q0 122 -53.5 210t-173.5 88q-80 0 -144 -42t-101 -125.5t-37 -203.5v-519h-149v999z" />
    <glyph glyph-name="o" unicode="o" 
d="M312.5 50.5q-107.5 70.5 -167 190t-59.5 261.5t59.5 260.5t166.5 188t245 69.5q137 0 245.5 -69.5t169.5 -188.5t61 -260q0 -142 -61 -261.5t-169.5 -190t-245.5 -70.5t-244.5 70.5zM738 160.5q73 56.5 108.5 147t35.5 194.5q0 105 -35.5 194.5t-108 144.5t-178.5 55
t-179 -55t-109 -145t-36 -194q0 -105 36 -196t108.5 -146.5t177.5 -55.5q107 0 180 56.5z" />
    <glyph glyph-name="p" unicode="p" horiz-adv-x="1129" 
d="M170 999h150v-136q50 74 128.5 115.5t176.5 41.5q130 0 222 -69t139 -187t47 -264q0 -145 -47 -263t-138.5 -187.5t-221.5 -69.5q-97 0 -176 40.5t-130 115.5v-574h-150v1437zM755 160.5q65 54.5 96.5 144t31.5 195.5t-31.5 195.5t-96.5 144t-161 54.5
q-97 0 -161.5 -54.5t-95.5 -144t-31 -195.5q0 -107 31 -196.5t95.5 -143.5t161.5 -54q96 0 161 54.5z" />
    <glyph glyph-name="q" unicode="q" horiz-adv-x="1130" 
d="M809 136q-51 -72 -127.5 -114t-177.5 -42q-129 0 -221 69t-139.5 187t-47.5 264q0 145 47.5 263.5t139.5 187.5t220 69q98 0 177 -41t129 -116v136h151v-1437h-151v574zM697 160.5q64 54.5 94 143.5t30 196q0 106 -30 195.5t-94 144t-160 54.5t-161 -54.5t-96 -144
t-31 -195.5q0 -107 31 -196.5t95.5 -143.5t161.5 -54q96 0 160 54.5z" />
    <glyph glyph-name="r" unicode="r" horiz-adv-x="795" 
d="M168 999h149v-177q39 91 119.5 144.5t175.5 53.5q49 0 90 -14t71 -38l-63 -129q-45 38 -122 38q-85 0 -146.5 -44.5t-94 -129.5t-32.5 -204v-499h-147v999z" />
    <glyph glyph-name="s" unicode="s" horiz-adv-x="868" 
d="M277.5 13.5q-76.5 33.5 -129 89.5t-76.5 124l126 65q28 -85 91 -137.5t158 -52.5q88 0 142 43t54 122q0 59 -32.5 97t-80 59t-130.5 48q-94 30 -151 57.5t-97 79.5t-40 135q0 87 43 149.5t115 95t159 32.5q112 0 196.5 -53.5t131.5 -145.5l-110 -63q-33 67 -89 104
t-134 37q-80 0 -127.5 -38t-47.5 -100q0 -48 29 -79t73 -50t121 -43q100 -31 163.5 -61t108 -89t44.5 -154q0 -98 -48 -167t-126.5 -103.5t-168.5 -34.5q-91 0 -167.5 33.5z" />
    <glyph glyph-name="t" unicode="t" horiz-adv-x="673" 
d="M204 265v612h-160v122h161v225l148 140v-365h253v-122h-253v-613q0 -79 35 -120t92 -41q48 0 100 25v-128q-19 -8 -55.5 -14t-78.5 -6q-242 0 -242 285z" />
    <glyph glyph-name="u" unicode="u" horiz-adv-x="1117" 
d="M227 98.5q-84 120.5 -84 320.5v580h149v-590q0 -130 47 -217.5t163 -87.5q79 0 147.5 45t109.5 123t41 174v553h148v-999h-148v169q-21 -46 -66 -90t-109.5 -72.5t-138.5 -28.5q-175 0 -259 120.5z" />
    <glyph glyph-name="v" unicode="v" horiz-adv-x="949" 
d="M409 0l-373 999h163l276 -805l278 805h160l-372 -999h-132z" />
    <glyph glyph-name="w" unicode="w" horiz-adv-x="1419" 
d="M329 -1l-279 1000h158l204 -802l230 802h137l229 -800l203 800h159l-280 -999h-145l-233 811l-238 -812h-145z" />
    <glyph glyph-name="x" unicode="x" horiz-adv-x="920" 
d="M46 0l337 504l-337 495h183l233 -370l234 370h178l-333 -495l333 -504h-178l-234 378l-233 -378h-183z" />
    <glyph glyph-name="y" unicode="y" horiz-adv-x="975" 
d="M248 -430l171 435l-384 994h165l293 -817l284 817h163l-535 -1429h-157z" />
    <glyph glyph-name="z" unicode="z" horiz-adv-x="930" 
d="M852 999v-123l-600 -748h600v-128h-786v113l611 764h-582v122h757z" />
    <glyph glyph-name="braceleft" unicode="{" horiz-adv-x="599" 
d="M315 -98q-37 22 -66 60q-34 46 -34 144v367q0 75 -131 121v115q131 34 131 153v428q0 105 48.5 159.5t161.5 54.5h53h24q16 0 24 -1v-90q-30 6 -65 6q-109 0 -109 -63v-506q0 -72 -43 -119.5t-136 -85.5q89 -31 134 -70t45 -98v-364q0 -149 133 -149q17 0 41 7v-90
q-17 -1 -50 -1h-72q-52 0 -89 22z" />
    <glyph glyph-name="bar" unicode="|" horiz-adv-x="621" 
d="M256 -512v2046h109v-2046h-109z" />
    <glyph glyph-name="braceright" unicode="}" horiz-adv-x="599" 
d="M73 -119v90q26 -7 41 -7q133 0 133 149v364q0 58 47 98t132 70q-98 39 -138.5 85.5t-40.5 119.5v506q0 63 -109 63q-33 0 -65 -6v90q13 1 28 1h21h52q112 0 160.5 -54t48.5 -160v-428q0 -118 131 -153v-115q-131 -47 -131 -121v-367q0 -107 -30 -146q-31 -39 -67 -59.5
t-90 -20.5h-71q-35 0 -52 1z" />
    <glyph glyph-name="asciitilde" unicode="~" horiz-adv-x="1160" 
d="M636.5 404.5q-43.5 25.5 -94.5 72.5q-44 39 -73 57t-64 18q-53 0 -75 -40.5t-21 -105.5h-99q0 109 49.5 177t143.5 68q51 0 90 -14t65.5 -34t61.5 -52q38 -35 64.5 -51.5t60.5 -16.5q55 0 77.5 41.5t22.5 120.5h107q0 -127 -55.5 -196.5t-157.5 -69.5q-59 0 -102.5 25.5z
" />
    <glyph glyph-name="uni00A0" unicode="&#xa0;" horiz-adv-x="563" 
 />
    <glyph glyph-name="exclamdown" unicode="&#xa1;" horiz-adv-x="628" 
d="M215 806v193h196v-193h-196zM228 -436l28 1055h114l29 -1055h-171z" />
    <glyph glyph-name="cent" unicode="&#xa2;" horiz-adv-x="1134" 
d="M544 -16q-122 14 -207.5 87t-128.5 184.5t-43 242.5q0 130 43 241.5t128.5 185t207.5 88.5v187h110v-187q115 -14 203 -81.5t135 -177.5l-148 -61q-22 84 -88.5 133.5t-153.5 49.5q-98 0 -160.5 -54.5t-91 -140.5t-28.5 -183q0 -98 28 -183.5t90.5 -140t161.5 -54.5
q87 0 153.5 49.5t88.5 132.5l136 -57q-41 -114 -126 -182.5t-200 -79.5v-188h-110v189z" />
    <glyph glyph-name="sterling" unicode="&#xa3;" horiz-adv-x="1241" 
d="M163 118q0 -5 68 56.5t122.5 138t54.5 149.5q0 34 -6 73t-12 66.5t-8 35.5h-216v133h183q0 -4 -13.5 38t-24 96.5t-10.5 110.5q0 114 46.5 209.5t136 152t213.5 56.5q131 0 228 -80t143 -205l-125 -47q-33 91 -97.5 145t-148.5 54q-81 0 -140.5 -36t-91 -100t-31.5 -148
q0 -54 11 -108.5t24.5 -97.5t13.5 -40h473v-133h-439q2 -7 7 -33.5t9.5 -65t4.5 -74.5q0 -89 -38 -162.5t-85.5 -124t-47.5 -44.5h812v-133h-1016v118z" />
    <glyph glyph-name="currency" unicode="&#xa4;" horiz-adv-x="1375" 
d="M223 264l105 103q-44 57 -66.5 126t-22.5 140t22.5 138.5t66.5 123.5l-103 100l93 99l103 -106q59 45 128 68t141 23q71 0 138 -22.5t124 -66.5l104 102l93 -93l-102 -102q44 -57 66.5 -125t22.5 -141q0 -72 -22.5 -140.5t-66.5 -125.5l102 -101l-91 -97l-106 105
q-57 -44 -125.5 -67t-140.5 -23t-140.5 23t-126.5 67l-103 -105zM564 337q59 -24 121 -24t120.5 24t105.5 71q45 45 68.5 103t23.5 120q0 61 -23.5 119t-69.5 104t-103.5 69t-119.5 23t-121 -24t-106 -70q-44 -45 -67.5 -103.5t-23.5 -120.5t22.5 -119t66.5 -101
q47 -47 106 -71z" />
    <glyph glyph-name="yen" unicode="&#xa5;" horiz-adv-x="1307" 
d="M582 0v296h-299v117h299v119h-299v116h244l-475 765h168l435 -701l433 701h167l-475 -764h246v-117h-301v-119h301v-117h-301v-296h-143z" />
    <glyph glyph-name="brokenbar" unicode="&#xa6;" horiz-adv-x="618" 
d="M256 731v744h107v-744h-107zM256 -307v727h107v-727h-107z" />
    <glyph glyph-name="section" unicode="&#xa7;" horiz-adv-x="1125" 
d="M307 53.5q-109 71.5 -148 211.5l138 47q26 -107 96 -153t178 -46q100 0 167.5 37t67.5 128q0 52 -33 82.5t-82 46.5t-135 34q-112 24 -181 49t-118 81.5t-49 155.5q0 63 27 119.5t75 97.5q-47 33 -73.5 84.5t-26.5 110.5q0 91 49 158t128.5 102t170.5 35
q130 0 225.5 -63.5t143.5 -184.5l-137 -46q-24 84 -84.5 124t-150.5 40q-56 0 -104.5 -19.5t-78.5 -57.5t-30 -92q0 -47 31.5 -75.5t79 -43.5t130.5 -32q114 -24 185 -49.5t121.5 -84.5t50.5 -162q0 -62 -24 -117.5t-72 -95.5q48 -35 72 -86t24 -113q0 -100 -52.5 -166
t-136.5 -97t-183 -31q-152 0 -261 71.5zM779.5 596.5q26.5 41.5 26.5 96.5q0 61 -42 98.5t-99 55.5t-142 35q-57 12 -65 14q-55 -22 -85.5 -66.5t-30.5 -99.5q0 -56 42.5 -92t100 -54t141.5 -36q46 -9 71 -16q56 23 82.5 64.5z" />
    <glyph glyph-name="dieresis" unicode="&#xa8;" horiz-adv-x="834" 
d="M164 1221v192h169v-192h-169zM501 1221v192h168v-192h-168z" />
    <glyph glyph-name="copyright" unicode="&#xa9;" horiz-adv-x="1750" 
d="M497.5 51q-172.5 102 -273.5 276t-101 380q0 205 101 379t274 276t377 102t377 -102t274 -276t101 -379q0 -206 -101 -380t-274 -276t-377 -102q-205 0 -377.5 102zM1189.5 156.5q145.5 87.5 232 234t86.5 316.5q0 169 -86.5 316t-232 234t-314.5 87q-168 0 -314 -87.5
t-233 -234t-87 -315.5t87 -316t233 -234.5t314 -87.5q169 0 314.5 87.5zM698.5 354q-79.5 54 -119.5 145.5t-40 205.5t40 205.5t119.5 145t193.5 53.5q103 0 183.5 -49.5t122.5 -140.5l-108 -46q-29 57 -80.5 87t-117.5 30q-79 0 -132.5 -39t-79 -103.5t-25.5 -142.5
t25 -142t78 -103t132 -39q65 0 117.5 30.5t80.5 87.5l110 -47q-42 -93 -122 -142.5t-184 -49.5q-114 0 -193.5 54z" />
    <glyph glyph-name="ordfeminine" unicode="&#xaa;" horiz-adv-x="850" 
d="M225.5 735q-52.5 26 -83.5 74t-31 111q0 107 70.5 158t190.5 51h212q-2 207 -174 207q-57 0 -105 -29t-76 -72l-91 58q54 73 119.5 107t157.5 34q131 0 203.5 -76t72.5 -206v-429h-97l-5 117q-47 -68 -106 -99.5t-142 -31.5q-63 0 -115.5 26zM476 842q50 32 78.5 83.5
t29.5 106.5h-202q-64 0 -105.5 -30t-41.5 -82q0 -32 19.5 -57t50.5 -39t62 -14q59 0 109 32z" />
    <glyph glyph-name="guillemotleft" unicode="&#xab;" horiz-adv-x="963" 
d="M433 185l-369 327l369 325v-162l-193 -163l193 -165v-162zM797 185l-371 327l371 325v-162l-195 -163l195 -165v-162z" />
    <glyph glyph-name="logicalnot" unicode="&#xac;" horiz-adv-x="1284" 
d="M891 291v372h-738v134h878v-506h-140z" />
    <glyph glyph-name="uni00AD" unicode="&#xad;" horiz-adv-x="979" 
d="M161 578v114h657v-114h-657z" />
    <glyph glyph-name="registered" unicode="&#xae;" horiz-adv-x="1750" 
d="M497.5 53q-172.5 102 -273.5 276t-101 380q0 205 101 379t274 276t377 102t377 -102t274 -276t101 -379q0 -206 -101 -380t-274 -276t-377 -102q-205 0 -377.5 102zM1194.5 150.5q147.5 87.5 234.5 236.5t87 322t-87 321.5t-234.5 236.5t-319.5 88t-319.5 -88
t-235 -236.5t-87.5 -321.5t87.5 -322t235 -236.5t319.5 -87.5t319.5 87.5zM627 1099h302q132 0 196.5 -60t64.5 -172q0 -95 -46.5 -149t-119.5 -69l202 -345h-142l-177 333h-158v-333h-122v795zM929 747q75 0 112 29.5t37 90.5q0 63 -36 92t-113 29h-190v-241h190z" />
    <glyph glyph-name="macron" unicode="&#xaf;" horiz-adv-x="862" 
d="M158 1183v125h541v-125h-541z" />
    <glyph glyph-name="degree" unicode="&#xb0;" horiz-adv-x="950" 
d="M329.5 887.5q-67.5 39.5 -107 106.5t-39.5 147t39.5 147t107 106.5t146.5 39.5t145.5 -39.5t106 -106.5t39.5 -147t-39.5 -147t-106 -106.5t-145.5 -39.5t-146.5 39.5zM574.5 968q45.5 27 72.5 73t27 100t-27 99.5t-72.5 72.5t-98.5 27q-54 0 -100 -27t-73 -72.5
t-27 -99.5t27 -100t73 -73t100 -27q53 0 98.5 27z" />
    <glyph glyph-name="plusminus" unicode="&#xb1;" horiz-adv-x="1320" 
d="M603 106v463h-457v113h457v461h114v-461h457v-113h-457v-463h-114zM147 -114v114h1026v-114h-1026z" />
    <glyph glyph-name="acute" unicode="&#xb4;" horiz-adv-x="532" 
d="M66 1124l217 289h193l-277 -289h-133z" />
    <glyph glyph-name="uni00B5" unicode="&#xb5;" horiz-adv-x="1298" 
d="M255 999h157v-596q0 -124 46 -204.5t158 -80.5q80 0 148.5 43.5t109.5 115t41 151.5v571h157v-999h-157v169q-23 -46 -69 -90.5t-109.5 -73t-134.5 -28.5q-104 0 -189 51l-22 -294h-136v1265z" />
    <glyph glyph-name="paragraph" unicode="&#xb6;" horiz-adv-x="1332" 
d="M572 623q-119 0 -222.5 47.5t-166.5 137.5t-63 210t63 210t166.5 137.5t222.5 47.5h136v-1659h-136v869zM940 -246v1659h136v-1659h-136z" />
    <glyph glyph-name="periodcentered" unicode="&#xb7;" horiz-adv-x="643" 
d="M232 735.5q-36 36.5 -36 88.5q0 54 35.5 89t88.5 35t89 -35.5t36 -88.5q0 -52 -36.5 -88.5t-88.5 -36.5t-88 36.5z" />
    <glyph glyph-name="cedilla" unicode="&#xb8;" horiz-adv-x="576" 
d="M152.5 -468.5q-49.5 35.5 -70.5 88.5l99 51q6 -29 30.5 -50.5t58.5 -21.5q44 0 71 28t27 68q0 32 -20.5 61t-62.5 46.5t-103 17.5h-42l99 180h119l-68 -117q90 -4 138 -55t48 -125q0 -53 -26 -100.5t-74 -77t-112 -29.5q-62 0 -111.5 35.5z" />
    <glyph glyph-name="ordmasculine" unicode="&#xba;" horiz-adv-x="898" 
d="M273.5 759.5q-77.5 48.5 -121 131t-43.5 182.5q0 99 43.5 181.5t121 131t176.5 48.5q97 0 174.5 -48.5t120.5 -131t43 -181.5t-43 -182t-120.5 -131.5t-174.5 -48.5q-99 0 -176.5 48.5zM605.5 891.5q50.5 71.5 50.5 181.5t-51 181.5t-155 71.5q-106 0 -157.5 -71.5
t-51.5 -181.5q0 -111 51 -182t158 -71q105 0 155.5 71.5z" />
    <glyph glyph-name="guillemotright" unicode="&#xbb;" horiz-adv-x="963" 
d="M163 185v162l194 165l-194 163v162l369 -325zM526 185v162l193 165l-193 163v162l371 -325z" />
    <glyph glyph-name="questiondown" unicode="&#xbf;" horiz-adv-x="1019" 
d="M417 806v193h195v-193h-195zM314 -392q-94 42 -149.5 123.5t-55.5 197.5q0 90 29 149t70.5 92t105.5 69q46 26 73 45t44.5 47t17.5 67v225h137v-227q0 -69 -23 -114t-56.5 -70.5t-89.5 -56.5q-55 -30 -87.5 -54.5t-55 -67.5t-22.5 -108q0 -112 74 -169.5t191 -57.5
q74 0 134.5 28.5t95.5 83.5t36 131h145q-1 -114 -54.5 -199t-145.5 -130.5t-204 -45.5q-116 0 -210 42z" />
    <glyph glyph-name="Agrave" unicode="&#xc0;" horiz-adv-x="1306" 
d="M63 0l531 1413h122l527 -1413h-170l-108 307h-621l-108 -307h-173zM397 452h514l-255 728zM582 1536l-258 291h192l218 -291h-152z" />
    <glyph glyph-name="Aacute" unicode="&#xc1;" horiz-adv-x="1306" 
d="M63 0l531 1413h122l527 -1413h-170l-108 307h-621l-108 -307h-173zM397 452h514l-255 728zM559 1538l217 289h193l-277 -289h-133z" />
    <glyph glyph-name="Acircumflex" unicode="&#xc2;" horiz-adv-x="1306" 
d="M63 0l531 1413h122l527 -1413h-170l-108 307h-621l-108 -307h-173zM397 452h514l-255 728zM325 1512l329 355l329 -355h-161l-168 186l-167 -186h-162z" />
    <glyph glyph-name="Atilde" unicode="&#xc3;" horiz-adv-x="1306" 
d="M63 0l531 1413h122l527 -1413h-170l-108 307h-621l-108 -307h-173zM397 452h514l-255 728zM688.5 1584.5q-35.5 24.5 -75.5 69.5q-31 33 -50.5 48t-42.5 15q-36 0 -52.5 -38t-16.5 -99h-100q0 114 44 182t125 68q39 0 69.5 -14t51.5 -33t48 -50q28 -32 46.5 -47t41.5 -15
q71 0 71 153h106q0 -128 -46.5 -196t-132.5 -68q-51 0 -86.5 24.5z" />
    <glyph glyph-name="Adieresis" unicode="&#xc4;" horiz-adv-x="1306" 
d="M63 0l531 1413h122l527 -1413h-170l-108 307h-621l-108 -307h-173zM397 452h514l-255 728zM399 1635v192h169v-192h-169zM736 1635v192h168v-192h-168z" />
    <glyph glyph-name="Aring" unicode="&#xc5;" horiz-adv-x="1306" 
d="M564 1337q-51 24 -82 73.5t-31 109.5q0 56 27 103t73 74t101 27t102 -27t75 -73.5t28 -103.5q0 -58 -31.5 -107t-81.5 -73l499 -1340h-170l-108 307h-621l-108 -307h-173zM723 1449q29 29 29 72q0 42 -28 70t-72 28t-71 -27t-27 -71t28 -72.5t70 -28.5t71 29zM397 452
h514l-255 728z" />
    <glyph glyph-name="AE" unicode="&#xc6;" horiz-adv-x="1815" 
d="M63 0l526 1413h1117v-129h-747v-510h659v-135h-659v-503h747v-136h-902v307h-466l-111 -307h-164zM387 448h417v836h-113z" />
    <glyph glyph-name="Ccedilla" unicode="&#xc7;" horiz-adv-x="1420" 
d="M1140.5 102q-123.5 -95 -291.5 -116l-60 -103q90 -4 138 -55t48 -125q0 -53 -26 -100.5t-74 -77t-112 -29.5q-62 0 -111.5 35.5t-70.5 88.5l99 51q6 -29 30.5 -50.5t58.5 -21.5q44 0 71 28t27 68q0 32 -20.5 61t-62.5 46.5t-103 17.5h-42l88 160q-197 7 -332.5 105
t-202.5 261t-67 364q0 203 69 367t213 261.5t360 97.5q202 0 347 -92.5t218 -283.5l-146 -63q-42 153 -158.5 222.5t-267.5 69.5q-165 0 -272.5 -78t-157 -208t-49.5 -291q0 -164 50.5 -296t159 -211t273.5 -79q317 0 424 295l146 -63q-70 -161 -193.5 -256z" />
    <glyph glyph-name="Egrave" unicode="&#xc8;" horiz-adv-x="1239" 
d="M212 0v1413h915v-137h-756v-502h657v-133h-657v-496h756v-145h-915zM594 1536l-258 291h192l218 -291h-152z" />
    <glyph glyph-name="Eacute" unicode="&#xc9;" horiz-adv-x="1239" 
d="M212 0v1413h915v-137h-756v-502h657v-133h-657v-496h756v-145h-915zM571 1538l217 289h193l-277 -289h-133z" />
    <glyph glyph-name="Ecircumflex" unicode="&#xca;" horiz-adv-x="1239" 
d="M212 0v1413h915v-137h-756v-502h657v-133h-657v-496h756v-145h-915zM337 1512l329 355l329 -355h-161l-168 186l-167 -186h-162z" />
    <glyph glyph-name="Edieresis" unicode="&#xcb;" horiz-adv-x="1239" 
d="M212 0v1413h915v-137h-756v-502h657v-133h-657v-496h756v-145h-915zM411 1635v192h169v-192h-169zM748 1635v192h168v-192h-168z" />
    <glyph glyph-name="Igrave" unicode="&#xcc;" horiz-adv-x="582" 
d="M212 0v1413h159v-1413h-159zM218 1536l-258 291h192l218 -291h-152z" />
    <glyph glyph-name="Iacute" unicode="&#xcd;" horiz-adv-x="582" 
d="M212 0v1413h159v-1413h-159zM195 1538l217 289h193l-277 -289h-133z" />
    <glyph glyph-name="Icircumflex" unicode="&#xce;" horiz-adv-x="582" 
d="M212 0v1413h159v-1413h-159zM-39 1512l329 355l329 -355h-161l-168 186l-167 -186h-162z" />
    <glyph glyph-name="Idieresis" unicode="&#xcf;" horiz-adv-x="582" 
d="M212 0v1413h159v-1413h-159zM35 1635v192h169v-192h-169zM372 1635v192h168v-192h-168z" />
    <glyph glyph-name="Eth" unicode="&#xd0;" horiz-adv-x="1423" 
d="M229 655h-112v115h112v643h365q227 0 385.5 -82.5t240.5 -243t82 -391.5q0 -221 -83 -377.5t-242.5 -237.5t-384.5 -81h-363v655zM568 147q169 0 297 60t201 185.5t73 314.5q0 276 -137.5 418.5t-411.5 142.5h-199v-498h381v-115h-381v-508h177z" />
    <glyph glyph-name="Ntilde" unicode="&#xd1;" horiz-adv-x="1418" 
d="M212 0v1413h229l608 -1245v1245h157v-1413h-232l-604 1247v-1247h-158zM741.5 1584.5q-35.5 24.5 -75.5 69.5q-31 33 -50.5 48t-42.5 15q-36 0 -52.5 -38t-16.5 -99h-100q0 114 44 182t125 68q39 0 69.5 -14t51.5 -33t48 -50q28 -32 46.5 -47t41.5 -15q71 0 71 153h106
q0 -128 -46.5 -196t-132.5 -68q-51 0 -86.5 24.5z" />
    <glyph glyph-name="Ograve" unicode="&#xd2;" horiz-adv-x="1515" 
d="M406.5 77.5q-142.5 97.5 -213 262.5t-70.5 367t70.5 367t213 262.5t349.5 97.5q208 0 351 -97.5t214 -262.5t71 -367t-71 -367t-214 -262.5t-351 -97.5q-207 0 -349.5 97.5zM1028.5 205.5q108.5 79.5 159 211t50.5 290.5t-50.5 290t-159 210.5t-272.5 79.5
q-162 0 -269.5 -79.5t-158 -210.5t-50.5 -290t50.5 -290.5t158 -211t269.5 -79.5q164 0 272.5 79.5zM684 1536l-258 291h192l218 -291h-152z" />
    <glyph glyph-name="Oacute" unicode="&#xd3;" horiz-adv-x="1515" 
d="M406.5 77.5q-142.5 97.5 -213 262.5t-70.5 367t70.5 367t213 262.5t349.5 97.5q208 0 351 -97.5t214 -262.5t71 -367t-71 -367t-214 -262.5t-351 -97.5q-207 0 -349.5 97.5zM1028.5 205.5q108.5 79.5 159 211t50.5 290.5t-50.5 290t-159 210.5t-272.5 79.5
q-162 0 -269.5 -79.5t-158 -210.5t-50.5 -290t50.5 -290.5t158 -211t269.5 -79.5q164 0 272.5 79.5zM661 1538l217 289h193l-277 -289h-133z" />
    <glyph glyph-name="Ocircumflex" unicode="&#xd4;" horiz-adv-x="1515" 
d="M406.5 77.5q-142.5 97.5 -213 262.5t-70.5 367t70.5 367t213 262.5t349.5 97.5q208 0 351 -97.5t214 -262.5t71 -367t-71 -367t-214 -262.5t-351 -97.5q-207 0 -349.5 97.5zM1028.5 205.5q108.5 79.5 159 211t50.5 290.5t-50.5 290t-159 210.5t-272.5 79.5
q-162 0 -269.5 -79.5t-158 -210.5t-50.5 -290t50.5 -290.5t158 -211t269.5 -79.5q164 0 272.5 79.5zM427 1512l329 355l329 -355h-161l-168 186l-167 -186h-162z" />
    <glyph glyph-name="Otilde" unicode="&#xd5;" horiz-adv-x="1515" 
d="M406.5 77.5q-142.5 97.5 -213 262.5t-70.5 367t70.5 367t213 262.5t349.5 97.5q208 0 351 -97.5t214 -262.5t71 -367t-71 -367t-214 -262.5t-351 -97.5q-207 0 -349.5 97.5zM1028.5 205.5q108.5 79.5 159 211t50.5 290.5t-50.5 290t-159 210.5t-272.5 79.5
q-162 0 -269.5 -79.5t-158 -210.5t-50.5 -290t50.5 -290.5t158 -211t269.5 -79.5q164 0 272.5 79.5zM790.5 1584.5q-35.5 24.5 -75.5 69.5q-31 33 -50.5 48t-42.5 15q-36 0 -52.5 -38t-16.5 -99h-100q0 114 44 182t125 68q39 0 69.5 -14t51.5 -33t48 -50q28 -32 46.5 -47
t41.5 -15q71 0 71 153h106q0 -128 -46.5 -196t-132.5 -68q-51 0 -86.5 24.5z" />
    <glyph glyph-name="Odieresis" unicode="&#xd6;" horiz-adv-x="1515" 
d="M406.5 77.5q-142.5 97.5 -213 262.5t-70.5 367t70.5 367t213 262.5t349.5 97.5q208 0 351 -97.5t214 -262.5t71 -367t-71 -367t-214 -262.5t-351 -97.5q-207 0 -349.5 97.5zM1028.5 205.5q108.5 79.5 159 211t50.5 290.5t-50.5 290t-159 210.5t-272.5 79.5
q-162 0 -269.5 -79.5t-158 -210.5t-50.5 -290t50.5 -290.5t158 -211t269.5 -79.5q164 0 272.5 79.5zM501 1635v192h169v-192h-169zM838 1635v192h168v-192h-168z" />
    <glyph glyph-name="multiply" unicode="&#xd7;" horiz-adv-x="1104" 
d="M229 221l-81 80l323 324l-326 325l81 82l327 -327l322 323l81 -80l-323 -323l326 -326l-80 -82l-326 327z" />
    <glyph glyph-name="Oslash" unicode="&#xd8;" horiz-adv-x="1515" 
d="M1332.5 1047q59.5 -155 59.5 -340q0 -202 -71 -367t-214 -262.5t-351 -97.5q-176 0 -308 73l-30 -53h-128l66 116q-115 97 -174 252t-59 339q0 202 70.5 367t213 262.5t349.5 97.5q174 0 307 -72l29 51h128l-64 -113q117 -98 176.5 -253zM316.5 450q38.5 -119 116.5 -198
l556 980q-101 55 -233 55q-162 0 -269.5 -79.5t-158 -210.5t-50.5 -290q0 -138 38.5 -257zM1028.5 205.5q108.5 79.5 159 211t50.5 290.5q0 140 -39.5 259.5t-119.5 198.5l-557 -982q101 -57 234 -57q164 0 272.5 79.5z" />
    <glyph glyph-name="Ugrave" unicode="&#xd9;" horiz-adv-x="1352" 
d="M397 53q-110 73 -161.5 194.5t-51.5 270.5v895h159v-850q0 -201 76 -317t256 -116q336 0 336 433v850h159v-885q0 -154 -52.5 -277.5t-163.5 -197t-279 -73.5t-278 73zM608 1536l-258 291h192l218 -291h-152z" />
    <glyph glyph-name="Uacute" unicode="&#xda;" horiz-adv-x="1352" 
d="M397 53q-110 73 -161.5 194.5t-51.5 270.5v895h159v-850q0 -201 76 -317t256 -116q336 0 336 433v850h159v-885q0 -154 -52.5 -277.5t-163.5 -197t-279 -73.5t-278 73zM585 1538l217 289h193l-277 -289h-133z" />
    <glyph glyph-name="Ucircumflex" unicode="&#xdb;" horiz-adv-x="1352" 
d="M397 53q-110 73 -161.5 194.5t-51.5 270.5v895h159v-850q0 -201 76 -317t256 -116q336 0 336 433v850h159v-885q0 -154 -52.5 -277.5t-163.5 -197t-279 -73.5t-278 73zM351 1512l329 355l329 -355h-161l-168 186l-167 -186h-162z" />
    <glyph glyph-name="Udieresis" unicode="&#xdc;" horiz-adv-x="1352" 
d="M397 53q-110 73 -161.5 194.5t-51.5 270.5v895h159v-850q0 -201 76 -317t256 -116q336 0 336 433v850h159v-885q0 -154 -52.5 -277.5t-163.5 -197t-279 -73.5t-278 73zM425 1635v192h169v-192h-169zM762 1635v192h168v-192h-168z" />
    <glyph glyph-name="Yacute" unicode="&#xdd;" horiz-adv-x="1316" 
d="M581 0v553l-529 860h186l419 -699l422 699h185l-527 -860v-553h-156zM562 1538l217 289h193l-277 -289h-133z" />
    <glyph glyph-name="Thorn" unicode="&#xde;" horiz-adv-x="1149" 
d="M212 1413h159v-199h250q134 0 233 -47.5t153 -136.5t54 -211t-56 -209t-158.5 -132.5t-237.5 -45.5h-238v-432h-159v1413zM609 579q141 0 217 60t76 177t-76.5 180t-216.5 63h-238v-480h238z" />
    <glyph glyph-name="germandbls" unicode="&#xdf;" horiz-adv-x="1178" 
d="M589.5 -1q-63.5 17 -135.5 49l61 140q51 -28 103.5 -42.5t99.5 -14.5q46 0 90.5 22t72 59t27.5 81q0 49 -21 88.5t-51.5 69.5t-82.5 73q-54 44 -86.5 76t-54.5 75t-22 97q0 41 16 71.5t39 50.5t62 48q38 26 61 46.5t38.5 49.5t15.5 68q0 53 -29.5 96.5t-84 69
t-127.5 25.5q-262 0 -262 -390v-907h-149v908q0 274 111.5 400t295.5 126q97 0 189.5 -42.5t150.5 -120t58 -177.5q0 -52 -18.5 -88.5t-45 -60t-69.5 -51.5q-34 -23 -53 -39t-31.5 -37.5t-12.5 -49.5q0 -30 16 -56t39.5 -47t67.5 -56q61 -46 99 -83t65.5 -92t27.5 -126
q0 -94 -45 -168.5t-123 -116t-173 -41.5q-66 0 -129.5 17z" />
    <glyph glyph-name="agrave" unicode="&#xe0;" horiz-adv-x="1025" 
d="M233.5 15.5q-73.5 35.5 -115 103t-41.5 159.5q0 148 112 220.5t328 72.5h228q0 319 -245 319q-97 0 -165 -43.5t-112 -107.5l-109 85q142 196 377 196q125 0 213 -50.5t133 -142.5t45 -214v-613h-127l-3 193q-52 -108 -145 -160.5t-206 -52.5q-94 0 -167.5 35.5z
M590 158.5q75 52.5 115 134.5t40 165h-214q-152 0 -226 -43t-74 -141q0 -85 51.5 -126.5t135.5 -41.5q97 0 172 52.5zM430 1122l-258 291h192l218 -291h-152z" />
    <glyph glyph-name="aacute" unicode="&#xe1;" horiz-adv-x="1025" 
d="M233.5 15.5q-73.5 35.5 -115 103t-41.5 159.5q0 148 112 220.5t328 72.5h228q0 319 -245 319q-97 0 -165 -43.5t-112 -107.5l-109 85q142 196 377 196q125 0 213 -50.5t133 -142.5t45 -214v-613h-127l-3 193q-52 -108 -145 -160.5t-206 -52.5q-94 0 -167.5 35.5z
M590 158.5q75 52.5 115 134.5t40 165h-214q-152 0 -226 -43t-74 -141q0 -85 51.5 -126.5t135.5 -41.5q97 0 172 52.5zM407 1124l217 289h193l-277 -289h-133z" />
    <glyph glyph-name="acircumflex" unicode="&#xe2;" horiz-adv-x="1025" 
d="M233.5 15.5q-73.5 35.5 -115 103t-41.5 159.5q0 148 112 220.5t328 72.5h228q0 319 -245 319q-97 0 -165 -43.5t-112 -107.5l-109 85q142 196 377 196q125 0 213 -50.5t133 -142.5t45 -214v-613h-127l-3 193q-52 -108 -145 -160.5t-206 -52.5q-94 0 -167.5 35.5z
M590 158.5q75 52.5 115 134.5t40 165h-214q-152 0 -226 -43t-74 -141q0 -85 51.5 -126.5t135.5 -41.5q97 0 172 52.5zM173 1098l329 355l329 -355h-161l-168 186l-167 -186h-162z" />
    <glyph glyph-name="atilde" unicode="&#xe3;" horiz-adv-x="1025" 
d="M233.5 15.5q-73.5 35.5 -115 103t-41.5 159.5q0 148 112 220.5t328 72.5h228q0 319 -245 319q-97 0 -165 -43.5t-112 -107.5l-109 85q142 196 377 196q125 0 213 -50.5t133 -142.5t45 -214v-613h-127l-3 193q-52 -108 -145 -160.5t-206 -52.5q-94 0 -167.5 35.5z
M590 158.5q75 52.5 115 134.5t40 165h-214q-152 0 -226 -43t-74 -141q0 -85 51.5 -126.5t135.5 -41.5q97 0 172 52.5zM536.5 1170.5q-35.5 24.5 -75.5 69.5q-31 33 -50.5 48t-42.5 15q-36 0 -52.5 -38t-16.5 -99h-100q0 114 44 182t125 68q39 0 69.5 -14t51.5 -33t48 -50
q28 -32 46.5 -47t41.5 -15q71 0 71 153h106q0 -128 -46.5 -196t-132.5 -68q-51 0 -86.5 24.5z" />
    <glyph glyph-name="adieresis" unicode="&#xe4;" horiz-adv-x="1025" 
d="M233.5 15.5q-73.5 35.5 -115 103t-41.5 159.5q0 148 112 220.5t328 72.5h228q0 319 -245 319q-97 0 -165 -43.5t-112 -107.5l-109 85q142 196 377 196q125 0 213 -50.5t133 -142.5t45 -214v-613h-127l-3 193q-52 -108 -145 -160.5t-206 -52.5q-94 0 -167.5 35.5z
M590 158.5q75 52.5 115 134.5t40 165h-214q-152 0 -226 -43t-74 -141q0 -85 51.5 -126.5t135.5 -41.5q97 0 172 52.5zM247 1221v192h169v-192h-169zM584 1221v192h168v-192h-168z" />
    <glyph glyph-name="aring" unicode="&#xe5;" horiz-adv-x="1025" 
d="M233.5 15.5q-73.5 35.5 -115 103t-41.5 159.5q0 148 112 220.5t328 72.5h228q0 319 -245 319q-97 0 -165 -43.5t-112 -107.5l-109 85q142 196 377 196q125 0 213 -50.5t133 -142.5t45 -214v-613h-127l-3 193q-52 -108 -145 -160.5t-206 -52.5q-94 0 -167.5 35.5z
M590 158.5q75 52.5 115 134.5t40 165h-214q-152 0 -226 -43t-74 -141q0 -85 51.5 -126.5t135.5 -41.5q97 0 172 52.5zM396.5 1106.5q-46.5 27.5 -73 74t-26.5 101.5q0 56 27 102.5t73.5 74t102.5 27.5q54 0 101 -27t75 -74t28 -103q0 -55 -27.5 -101.5t-74 -74t-102.5 -27.5
q-57 0 -103.5 27.5zM571 1211q29 29 29 72q0 42 -28 70t-72 28t-71 -27t-27 -71t28 -72.5t70 -28.5t71 29z" />
    <glyph glyph-name="ae" unicode="&#xe6;" horiz-adv-x="1664" 
d="M235.5 17q-73.5 37 -116.5 103.5t-43 152.5q0 154 97.5 226t267.5 72h310q0 325 -257 325q-86 0 -154.5 -42t-108.5 -105l-115 76q76 97 167 144t220 47q122 0 204.5 -48.5t122.5 -141.5q96 186 328 186q227 0 325.5 -147t98.5 -378q0 -11 -1 -22.5t-1 -15.5h-696
q-1 -91 32 -165.5t98.5 -119t158.5 -44.5q95 0 160.5 22.5t126.5 81.5l98 -82q-81 -82 -172 -118t-211 -36q-152 0 -248 75.5t-136 205.5q-50 -138 -148.5 -213.5t-246.5 -75.5q-87 0 -160.5 37zM1441 571q1 141 -71.5 224.5t-212.5 83.5q-86 0 -147 -41t-92.5 -110.5
t-34.5 -156.5h558zM597 157.5q74 49.5 115.5 128.5t38.5 163h-296q-96 0 -159 -46t-63 -129q0 -45 31 -83.5t78 -60.5t93 -22q88 0 162 49.5z" />
    <glyph glyph-name="ccedilla" unicode="&#xe7;" horiz-adv-x="974" 
d="M682 159q67 53 90 142l130 -56q-40 -111 -123 -179.5t-197 -82.5l-58 -100q90 -4 138 -55t48 -125q0 -53 -26 -100.5t-74 -77t-112 -29.5q-62 0 -111.5 35.5t-70.5 88.5l99 51q6 -29 30.5 -50.5t58.5 -21.5q44 0 71 28t27 68q0 32 -20.5 61t-62.5 46.5t-103 17.5h-42
l90 164q-119 16 -203 89.5t-126.5 184.5t-42.5 240q0 138 49.5 257.5t147 192t235.5 72.5q134 0 235 -70.5t154 -195.5l-141 -60q-22 91 -90 145.5t-158 54.5q-97 0 -160 -58.5t-91 -149t-28 -188.5q0 -100 27.5 -189t90.5 -146t161 -57q91 0 158 53z" />
    <glyph glyph-name="egrave" unicode="&#xe8;" horiz-adv-x="1038" 
d="M293.5 54.5q-101.5 68.5 -152 184t-50.5 255.5q0 138 49.5 256.5t147.5 190.5t237 72q153 0 247.5 -70.5t135.5 -180.5t41 -236q0 -32 -5 -77h-696q-1 -91 32.5 -166.5t99.5 -120.5t160 -45q91 0 158 23.5t123 83.5l102 -82q-81 -82 -171.5 -119t-210.5 -37
q-146 0 -247.5 68.5zM806 571q-3 136 -71 227.5t-210 91.5q-88 0 -149 -43t-92.5 -115t-35.5 -161h558zM440 1122l-258 291h192l218 -291h-152z" />
    <glyph glyph-name="eacute" unicode="&#xe9;" horiz-adv-x="1038" 
d="M293.5 54.5q-101.5 68.5 -152 184t-50.5 255.5q0 138 49.5 256.5t147.5 190.5t237 72q153 0 247.5 -70.5t135.5 -180.5t41 -236q0 -32 -5 -77h-696q-1 -91 32.5 -166.5t99.5 -120.5t160 -45q91 0 158 23.5t123 83.5l102 -82q-81 -82 -171.5 -119t-210.5 -37
q-146 0 -247.5 68.5zM806 571q-3 136 -71 227.5t-210 91.5q-88 0 -149 -43t-92.5 -115t-35.5 -161h558zM417 1124l217 289h193l-277 -289h-133z" />
    <glyph glyph-name="ecircumflex" unicode="&#xea;" horiz-adv-x="1038" 
d="M293.5 54.5q-101.5 68.5 -152 184t-50.5 255.5q0 138 49.5 256.5t147.5 190.5t237 72q153 0 247.5 -70.5t135.5 -180.5t41 -236q0 -32 -5 -77h-696q-1 -91 32.5 -166.5t99.5 -120.5t160 -45q91 0 158 23.5t123 83.5l102 -82q-81 -82 -171.5 -119t-210.5 -37
q-146 0 -247.5 68.5zM806 571q-3 136 -71 227.5t-210 91.5q-88 0 -149 -43t-92.5 -115t-35.5 -161h558zM183 1098l329 355l329 -355h-161l-168 186l-167 -186h-162z" />
    <glyph glyph-name="edieresis" unicode="&#xeb;" horiz-adv-x="1038" 
d="M293.5 54.5q-101.5 68.5 -152 184t-50.5 255.5q0 138 49.5 256.5t147.5 190.5t237 72q153 0 247.5 -70.5t135.5 -180.5t41 -236q0 -32 -5 -77h-696q-1 -91 32.5 -166.5t99.5 -120.5t160 -45q91 0 158 23.5t123 83.5l102 -82q-81 -82 -171.5 -119t-210.5 -37
q-146 0 -247.5 68.5zM806 571q-3 136 -71 227.5t-210 91.5q-88 0 -149 -43t-92.5 -115t-35.5 -161h558zM257 1221v192h169v-192h-169zM594 1221v192h168v-192h-168z" />
    <glyph glyph-name="igrave" unicode="&#xec;" horiz-adv-x="501" 
d="M168 0v999h165v-999h-165zM178 1122l-258 291h192l218 -291h-152z" />
    <glyph glyph-name="iacute" unicode="&#xed;" horiz-adv-x="501" 
d="M168 0v999h165v-999h-165zM155 1124l217 289h193l-277 -289h-133z" />
    <glyph glyph-name="icircumflex" unicode="&#xee;" horiz-adv-x="501" 
d="M168 0v999h165v-999h-165zM-79 1098l329 355l329 -355h-161l-168 186l-167 -186h-162z" />
    <glyph glyph-name="idieresis" unicode="&#xef;" horiz-adv-x="501" 
d="M168 0v999h165v-999h-165zM-5 1221v192h169v-192h-169zM332 1221v192h168v-192h-168z" />
    <glyph glyph-name="eth" unicode="&#xf0;" horiz-adv-x="1156" 
d="M943.5 1039.5q100.5 -207.5 100.5 -516.5q0 -148 -57 -271t-165 -195.5t-254 -72.5q-148 0 -257 73t-166 194.5t-57 264.5q0 141 56 255.5t159.5 181.5t240.5 67q89 0 162.5 -27t110.5 -67q-22 103 -92.5 188t-171.5 152l-91 -134l-90 59l88 132q-69 38 -167 77l76 116
q97 -38 169 -77l62 92l95 -56l-62 -92q210 -136 310.5 -343.5zM740 181.5q70 54.5 104.5 143.5t34.5 192q0 105 -35.5 193.5t-106 141.5t-170.5 53q-103 0 -174 -54.5t-105 -143t-34 -191.5t34 -191.5t105 -143t174 -54.5t173 54.5z" />
    <glyph glyph-name="ntilde" unicode="&#xf1;" 
d="M168 999h149v-174q51 90 133.5 141t188.5 51q114 0 189 -55t110.5 -147.5t35.5 -207.5v-607h-148v592q0 122 -53.5 210t-173.5 88q-80 0 -144 -42t-101 -125.5t-37 -203.5v-519h-149v999zM584.5 1170.5q-35.5 24.5 -75.5 69.5q-31 33 -50.5 48t-42.5 15q-36 0 -52.5 -38
t-16.5 -99h-100q0 114 44 182t125 68q39 0 69.5 -14t51.5 -33t48 -50q28 -32 46.5 -47t41.5 -15q71 0 71 153h106q0 -128 -46.5 -196t-132.5 -68q-51 0 -86.5 24.5z" />
    <glyph glyph-name="ograve" unicode="&#xf2;" 
d="M312.5 50.5q-107.5 70.5 -167 190t-59.5 261.5t59.5 260.5t166.5 188t245 69.5q137 0 245.5 -69.5t169.5 -188.5t61 -260q0 -142 -61 -261.5t-169.5 -190t-245.5 -70.5t-244.5 70.5zM738 160.5q73 56.5 108.5 147t35.5 194.5q0 105 -35.5 194.5t-108 144.5t-178.5 55
t-179 -55t-109 -145t-36 -194q0 -105 36 -196t108.5 -146.5t177.5 -55.5q107 0 180 56.5zM486 1122l-258 291h192l218 -291h-152z" />
    <glyph glyph-name="oacute" unicode="&#xf3;" 
d="M312.5 50.5q-107.5 70.5 -167 190t-59.5 261.5t59.5 260.5t166.5 188t245 69.5q137 0 245.5 -69.5t169.5 -188.5t61 -260q0 -142 -61 -261.5t-169.5 -190t-245.5 -70.5t-244.5 70.5zM738 160.5q73 56.5 108.5 147t35.5 194.5q0 105 -35.5 194.5t-108 144.5t-178.5 55
t-179 -55t-109 -145t-36 -194q0 -105 36 -196t108.5 -146.5t177.5 -55.5q107 0 180 56.5zM463 1124l217 289h193l-277 -289h-133z" />
    <glyph glyph-name="ocircumflex" unicode="&#xf4;" 
d="M312.5 50.5q-107.5 70.5 -167 190t-59.5 261.5t59.5 260.5t166.5 188t245 69.5q137 0 245.5 -69.5t169.5 -188.5t61 -260q0 -142 -61 -261.5t-169.5 -190t-245.5 -70.5t-244.5 70.5zM738 160.5q73 56.5 108.5 147t35.5 194.5q0 105 -35.5 194.5t-108 144.5t-178.5 55
t-179 -55t-109 -145t-36 -194q0 -105 36 -196t108.5 -146.5t177.5 -55.5q107 0 180 56.5zM229 1098l329 355l329 -355h-161l-168 186l-167 -186h-162z" />
    <glyph glyph-name="otilde" unicode="&#xf5;" 
d="M312.5 50.5q-107.5 70.5 -167 190t-59.5 261.5t59.5 260.5t166.5 188t245 69.5q137 0 245.5 -69.5t169.5 -188.5t61 -260q0 -142 -61 -261.5t-169.5 -190t-245.5 -70.5t-244.5 70.5zM738 160.5q73 56.5 108.5 147t35.5 194.5q0 105 -35.5 194.5t-108 144.5t-178.5 55
t-179 -55t-109 -145t-36 -194q0 -105 36 -196t108.5 -146.5t177.5 -55.5q107 0 180 56.5zM592.5 1170.5q-35.5 24.5 -75.5 69.5q-31 33 -50.5 48t-42.5 15q-36 0 -52.5 -38t-16.5 -99h-100q0 114 44 182t125 68q39 0 69.5 -14t51.5 -33t48 -50q28 -32 46.5 -47t41.5 -15
q71 0 71 153h106q0 -128 -46.5 -196t-132.5 -68q-51 0 -86.5 24.5z" />
    <glyph glyph-name="odieresis" unicode="&#xf6;" 
d="M312.5 50.5q-107.5 70.5 -167 190t-59.5 261.5t59.5 260.5t166.5 188t245 69.5q137 0 245.5 -69.5t169.5 -188.5t61 -260q0 -142 -61 -261.5t-169.5 -190t-245.5 -70.5t-244.5 70.5zM738 160.5q73 56.5 108.5 147t35.5 194.5q0 105 -35.5 194.5t-108 144.5t-178.5 55
t-179 -55t-109 -145t-36 -194q0 -105 36 -196t108.5 -146.5t177.5 -55.5q107 0 180 56.5zM303 1221v192h169v-192h-169zM640 1221v192h168v-192h-168z" />
    <glyph glyph-name="divide" unicode="&#xf7;" horiz-adv-x="958" 
d="M377 902v194h196v-194h-196zM125 571v114h700v-114h-700zM377 142v193h196v-193h-196z" />
    <glyph glyph-name="oslash" unicode="&#xf8;" 
d="M982.5 740.5q50.5 -110.5 50.5 -238.5q0 -142 -61 -261.5t-169.5 -190t-245.5 -70.5q-118 0 -219 55l-19 -34h-90l44 78q-89 71 -138 182t-49 241q0 142 59.5 260.5t166.5 188t245 69.5q117 0 219 -54l19 33h91l-44 -77q90 -71 140.5 -181.5zM262.5 332
q26.5 -80 77.5 -136l374 661q-66 39 -154 39q-106 0 -179 -55t-109 -145t-36 -194q0 -90 26.5 -170zM738 160.5q73 56.5 108.5 147t35.5 194.5q0 90 -26.5 170t-78.5 135l-376 -661q67 -42 157 -42q107 0 180 56.5z" />
    <glyph glyph-name="ugrave" unicode="&#xf9;" horiz-adv-x="1117" 
d="M227 98.5q-84 120.5 -84 320.5v580h149v-590q0 -130 47 -217.5t163 -87.5q79 0 147.5 45t109.5 123t41 174v553h148v-999h-148v169q-21 -46 -66 -90t-109.5 -72.5t-138.5 -28.5q-175 0 -259 120.5zM487 1122l-258 291h192l218 -291h-152z" />
    <glyph glyph-name="uacute" unicode="&#xfa;" horiz-adv-x="1117" 
d="M227 98.5q-84 120.5 -84 320.5v580h149v-590q0 -130 47 -217.5t163 -87.5q79 0 147.5 45t109.5 123t41 174v553h148v-999h-148v169q-21 -46 -66 -90t-109.5 -72.5t-138.5 -28.5q-175 0 -259 120.5zM464 1124l217 289h193l-277 -289h-133z" />
    <glyph glyph-name="ucircumflex" unicode="&#xfb;" horiz-adv-x="1117" 
d="M227 98.5q-84 120.5 -84 320.5v580h149v-590q0 -130 47 -217.5t163 -87.5q79 0 147.5 45t109.5 123t41 174v553h148v-999h-148v169q-21 -46 -66 -90t-109.5 -72.5t-138.5 -28.5q-175 0 -259 120.5zM230 1098l329 355l329 -355h-161l-168 186l-167 -186h-162z" />
    <glyph glyph-name="udieresis" unicode="&#xfc;" horiz-adv-x="1117" 
d="M227 98.5q-84 120.5 -84 320.5v580h149v-590q0 -130 47 -217.5t163 -87.5q79 0 147.5 45t109.5 123t41 174v553h148v-999h-148v169q-21 -46 -66 -90t-109.5 -72.5t-138.5 -28.5q-175 0 -259 120.5zM304 1221v192h169v-192h-169zM641 1221v192h168v-192h-168z" />
    <glyph glyph-name="yacute" unicode="&#xfd;" horiz-adv-x="975" 
d="M248 -430l171 435l-384 994h165l293 -817l284 817h163l-535 -1429h-157zM388 1124l217 289h193l-277 -289h-133z" />
    <glyph glyph-name="thorn" unicode="&#xfe;" horiz-adv-x="1140" 
d="M172 1413h159v-553q50 76 130 118t185 42q125 0 215 -69.5t136.5 -187.5t46.5 -263t-46.5 -263.5t-136.5 -187.5t-215 -69q-105 0 -184.5 41.5t-130.5 117.5v-577h-159v1851zM765 169q64 51 95 137.5t31 193.5q0 106 -31 192t-95.5 137.5t-159.5 51.5t-160.5 -51.5
t-97.5 -138t-32 -191.5q0 -106 32 -193t97.5 -138t160.5 -51q96 0 160 51z" />
    <glyph glyph-name="ydieresis" unicode="&#xff;" horiz-adv-x="975" 
d="M248 -430l171 435l-384 994h165l293 -817l284 817h163l-535 -1429h-157zM228 1221v192h169v-192h-169zM565 1221v192h168v-192h-168z" />
    <glyph glyph-name="Amacron" unicode="&#x100;" horiz-adv-x="1306" 
d="M63 0l531 1413h122l527 -1413h-170l-108 307h-621l-108 -307h-173zM397 452h514l-255 728zM385 1597v125h541v-125h-541z" />
    <glyph glyph-name="amacron" unicode="&#x101;" horiz-adv-x="1025" 
d="M233.5 15.5q-73.5 35.5 -115 103t-41.5 159.5q0 148 112 220.5t328 72.5h228q0 319 -245 319q-97 0 -165 -43.5t-112 -107.5l-109 85q142 196 377 196q125 0 213 -50.5t133 -142.5t45 -214v-613h-127l-3 193q-52 -108 -145 -160.5t-206 -52.5q-94 0 -167.5 35.5z
M590 158.5q75 52.5 115 134.5t40 165h-214q-152 0 -226 -43t-74 -141q0 -85 51.5 -126.5t135.5 -41.5q97 0 172 52.5zM233 1183v125h541v-125h-541z" />
    <glyph glyph-name="Abreve" unicode="&#x102;" horiz-adv-x="1306" 
d="M63 0l531 1413h122l527 -1413h-170l-108 307h-621l-108 -307h-173zM397 452h514l-255 728zM494.5 1588.5q-69.5 31.5 -108.5 92.5t-39 146h136q0 -46 23 -81.5t62 -55t86 -19.5t86 19.5t61.5 55t22.5 81.5h136q0 -86 -39 -147t-108 -92t-159 -31t-159.5 31.5z" />
    <glyph glyph-name="abreve" unicode="&#x103;" horiz-adv-x="1025" 
d="M233.5 15.5q-73.5 35.5 -115 103t-41.5 159.5q0 148 112 220.5t328 72.5h228q0 319 -245 319q-97 0 -165 -43.5t-112 -107.5l-109 85q142 196 377 196q125 0 213 -50.5t133 -142.5t45 -214v-613h-127l-3 193q-52 -108 -145 -160.5t-206 -52.5q-94 0 -167.5 35.5z
M590 158.5q75 52.5 115 134.5t40 165h-214q-152 0 -226 -43t-74 -141q0 -85 51.5 -126.5t135.5 -41.5q97 0 172 52.5zM342.5 1174.5q-69.5 31.5 -108.5 92.5t-39 146h136q0 -46 23 -81.5t62 -55t86 -19.5t86 19.5t61.5 55t22.5 81.5h136q0 -86 -39 -147t-108 -92t-159 -31
t-159.5 31.5z" />
    <glyph glyph-name="Aogonek" unicode="&#x104;" horiz-adv-x="1306" 
d="M63 0l531 1413h122l527 -1413h-170l-108 307h-621l-108 -307h-173zM397 452h514l-255 728zM1006 -425.5q-47 25.5 -73.5 72t-26.5 107.5q0 69 37 121t85.5 82t90.5 43h124q-24 -8 -75.5 -34.5t-101.5 -77t-50 -117.5q0 -51 24.5 -79.5t62.5 -28.5q40 0 69.5 16t52.5 48
l93 -65q-38 -54 -86.5 -83.5t-119.5 -29.5q-59 0 -106 25.5z" />
    <glyph glyph-name="aogonek" unicode="&#x105;" horiz-adv-x="1025" 
d="M957 -338q-38 -54 -86.5 -83.5t-119.5 -29.5q-59 0 -106 25.5t-73.5 72t-26.5 107.5q0 69 37 121t85.5 82t90.5 43h-3l-3 193q-52 -108 -145 -160.5t-206 -52.5q-94 0 -167.5 35.5t-115 103t-41.5 159.5q0 148 112 220.5t328 72.5h228q0 319 -245 319q-97 0 -165 -43.5
t-112 -107.5l-109 85q142 196 377 196q125 0 213 -50.5t133 -142.5t45 -214v-613q-24 -8 -75.5 -34.5t-101.5 -77t-50 -117.5q0 -51 24.5 -79.5t62.5 -28.5q40 0 69.5 16t52.5 48zM590 158.5q75 52.5 115 134.5t40 165h-214q-152 0 -226 -43t-74 -141q0 -85 51.5 -126.5
t135.5 -41.5q97 0 172 52.5z" />
    <glyph glyph-name="Cacute" unicode="&#x106;" horiz-adv-x="1420" 
d="M406 77q-142 97 -211.5 262t-69.5 371q0 203 69 367t213 261.5t360 97.5q202 0 347 -92.5t218 -283.5l-146 -63q-42 153 -158.5 222.5t-267.5 69.5q-165 0 -272.5 -78t-157 -208t-49.5 -291q0 -164 50.5 -296t159 -211t273.5 -79q317 0 424 295l146 -63
q-80 -183 -228.5 -280.5t-351.5 -97.5q-206 0 -348 97zM623 1538l217 289h193l-277 -289h-133z" />
    <glyph glyph-name="cacute" unicode="&#x107;" horiz-adv-x="974" 
d="M289.5 51q-98.5 71 -148 189.5t-49.5 257.5q0 138 49.5 257.5t147 192t235.5 72.5q134 0 235 -70.5t154 -195.5l-141 -60q-22 91 -90 145.5t-158 54.5q-97 0 -160 -58.5t-91 -149t-28 -188.5q0 -100 27.5 -189t90.5 -146t161 -57q91 0 158 53t90 142l130 -56
q-45 -125 -143 -195t-233 -70q-138 0 -236.5 71zM431 1124l217 289h193l-277 -289h-133z" />
    <glyph glyph-name="Cdotaccent" unicode="&#x10a;" horiz-adv-x="1420" 
d="M406 77q-142 97 -211.5 262t-69.5 371q0 203 69 367t213 261.5t360 97.5q202 0 347 -92.5t218 -283.5l-146 -63q-42 153 -158.5 222.5t-267.5 69.5q-165 0 -272.5 -78t-157 -208t-49.5 -291q0 -164 50.5 -296t159 -211t273.5 -79q317 0 424 295l146 -63
q-80 -183 -228.5 -280.5t-351.5 -97.5q-206 0 -348 97zM630 1635v192h173v-192h-173z" />
    <glyph glyph-name="cdotaccent" unicode="&#x10b;" horiz-adv-x="974" 
d="M289.5 51q-98.5 71 -148 189.5t-49.5 257.5q0 138 49.5 257.5t147 192t235.5 72.5q134 0 235 -70.5t154 -195.5l-141 -60q-22 91 -90 145.5t-158 54.5q-97 0 -160 -58.5t-91 -149t-28 -188.5q0 -100 27.5 -189t90.5 -146t161 -57q91 0 158 53t90 142l130 -56
q-45 -125 -143 -195t-233 -70q-138 0 -236.5 71zM438 1221v192h173v-192h-173z" />
    <glyph glyph-name="Ccaron" unicode="&#x10c;" horiz-adv-x="1420" 
d="M406 77q-142 97 -211.5 262t-69.5 371q0 203 69 367t213 261.5t360 97.5q202 0 347 -92.5t218 -283.5l-146 -63q-42 153 -158.5 222.5t-267.5 69.5q-165 0 -272.5 -78t-157 -208t-49.5 -291q0 -164 50.5 -296t159 -211t273.5 -79q317 0 424 295l146 -63
q-80 -183 -228.5 -280.5t-351.5 -97.5q-206 0 -348 97zM718 1495l-329 332h162l167 -181l168 181h161z" />
    <glyph glyph-name="ccaron" unicode="&#x10d;" horiz-adv-x="974" 
d="M289.5 51q-98.5 71 -148 189.5t-49.5 257.5q0 138 49.5 257.5t147 192t235.5 72.5q134 0 235 -70.5t154 -195.5l-141 -60q-22 91 -90 145.5t-158 54.5q-97 0 -160 -58.5t-91 -149t-28 -188.5q0 -100 27.5 -189t90.5 -146t161 -57q91 0 158 53t90 142l130 -56
q-45 -125 -143 -195t-233 -70q-138 0 -236.5 71zM526 1081l-329 332h162l167 -181l168 181h161z" />
    <glyph glyph-name="Dcaron" unicode="&#x10e;" horiz-adv-x="1406" 
d="M212 1413h360q229 0 388.5 -82.5t242 -243t82.5 -391.5q0 -221 -83.5 -377.5t-244 -237.5t-387.5 -81h-358v1413zM546 145q169 0 300 61t205.5 187t74.5 314q0 276 -140 420t-418 144h-197v-1126h175zM721 1495l-329 332h162l167 -181l168 181h161z" />
    <glyph glyph-name="dcaron" unicode="&#x10f;" horiz-adv-x="1193" 
d="M283 49q-92 69 -139.5 187t-47.5 264q0 145 47.5 263.5t139.5 187.5t220 69q98 0 177 -41t129 -116v550h149v-1413h-149v136q-51 -72 -127.5 -114t-177.5 -42q-129 0 -221 69zM1069 1017l103 396h212l-208 -396h-107zM697.5 168q63.5 52 93.5 139t30 193t-30 192.5
t-93.5 138t-160.5 51.5t-161.5 -51.5t-95.5 -138t-31 -192.5t31 -193t95.5 -139t161.5 -52t160.5 52z" />
    <glyph glyph-name="Dcroat" unicode="&#x110;" horiz-adv-x="1423" 
d="M229 655h-112v115h112v643h365q227 0 385.5 -82.5t240.5 -243t82 -391.5q0 -221 -83 -377.5t-242.5 -237.5t-384.5 -81h-363v655zM568 147q169 0 297 60t201 185.5t73 314.5q0 276 -137.5 418.5t-411.5 142.5h-199v-498h381v-115h-381v-508h177z" />
    <glyph glyph-name="dcroat" unicode="&#x111;" horiz-adv-x="1129" 
d="M1146 1158h-188v-1158h-145l-3 139q-53 -76 -129 -117.5t-184 -41.5q-124 0 -215 69.5t-138.5 188t-47.5 262.5q0 145 47.5 263.5t138 187.5t214.5 69q205 0 313 -157v295h-297v116h297v139h149v-139h188v-116zM696.5 160q64.5 54 94.5 143t30 197q0 107 -30 196
t-94.5 143.5t-161.5 54.5q-96 0 -160 -54.5t-95 -144t-31 -195.5q0 -107 31 -196.5t95 -143.5t160 -54q97 0 161.5 54z" />
    <glyph glyph-name="Emacron" unicode="&#x112;" horiz-adv-x="1239" 
d="M212 0v1413h915v-137h-756v-502h657v-133h-657v-496h756v-145h-915zM397 1597v125h541v-125h-541z" />
    <glyph glyph-name="emacron" unicode="&#x113;" horiz-adv-x="1038" 
d="M293.5 54.5q-101.5 68.5 -152 184t-50.5 255.5q0 138 49.5 256.5t147.5 190.5t237 72q153 0 247.5 -70.5t135.5 -180.5t41 -236q0 -32 -5 -77h-696q-1 -91 32.5 -166.5t99.5 -120.5t160 -45q91 0 158 23.5t123 83.5l102 -82q-81 -82 -171.5 -119t-210.5 -37
q-146 0 -247.5 68.5zM806 571q-3 136 -71 227.5t-210 91.5q-88 0 -149 -43t-92.5 -115t-35.5 -161h558zM243 1183v125h541v-125h-541z" />
    <glyph glyph-name="Edotaccent" unicode="&#x116;" horiz-adv-x="1239" 
d="M212 0v1413h915v-137h-756v-502h657v-133h-657v-496h756v-145h-915zM578 1635v192h173v-192h-173z" />
    <glyph glyph-name="edotaccent" unicode="&#x117;" horiz-adv-x="1038" 
d="M293.5 54.5q-101.5 68.5 -152 184t-50.5 255.5q0 138 49.5 256.5t147.5 190.5t237 72q153 0 247.5 -70.5t135.5 -180.5t41 -236q0 -32 -5 -77h-696q-1 -91 32.5 -166.5t99.5 -120.5t160 -45q91 0 158 23.5t123 83.5l102 -82q-81 -82 -171.5 -119t-210.5 -37
q-146 0 -247.5 68.5zM806 571q-3 136 -71 227.5t-210 91.5q-88 0 -149 -43t-92.5 -115t-35.5 -161h558zM424 1221v192h173v-192h-173z" />
    <glyph glyph-name="Eogonek" unicode="&#x118;" horiz-adv-x="1239" 
d="M212 0v1413h915v-137h-756v-502h657v-133h-657v-496h756v-145h-915zM890 -425.5q-47 25.5 -73.5 72t-26.5 107.5q0 69 37 121t85.5 82t90.5 43h124q-24 -8 -75.5 -34.5t-101.5 -77t-50 -117.5q0 -51 24.5 -79.5t62.5 -28.5q40 0 69.5 16t52.5 48l93 -65
q-38 -54 -86.5 -83.5t-119.5 -29.5q-59 0 -106 25.5z" />
    <glyph glyph-name="eogonek" unicode="&#x119;" horiz-adv-x="1038" 
d="M248 449q-1 -91 32.5 -166.5t99.5 -120.5t160 -45q91 0 158 23.5t123 83.5l102 -82q-100 -101 -218 -135q-61 -34 -103 -82t-42 -109q0 -51 24.5 -79.5t62.5 -28.5q40 0 69.5 16t52.5 48l93 -65q-38 -54 -86.5 -83.5t-119.5 -29.5q-59 0 -106 25.5t-73.5 72t-26.5 107.5
q0 60 27.5 106.5t72.5 80.5h-9q-146 0 -247.5 68.5t-152 184t-50.5 255.5q0 138 49.5 256.5t147.5 190.5t237 72q153 0 247.5 -70.5t135.5 -180.5t41 -236q0 -32 -5 -77h-696zM376 847q-61 -43 -92.5 -115t-35.5 -161h558q-3 136 -71 227.5t-210 91.5q-88 0 -149 -43z" />
    <glyph glyph-name="Ecaron" unicode="&#x11a;" horiz-adv-x="1239" 
d="M212 0v1413h915v-137h-756v-502h657v-133h-657v-496h756v-145h-915zM666 1495l-329 332h162l167 -181l168 181h161z" />
    <glyph glyph-name="ecaron" unicode="&#x11b;" horiz-adv-x="1038" 
d="M293.5 54.5q-101.5 68.5 -152 184t-50.5 255.5q0 138 49.5 256.5t147.5 190.5t237 72q153 0 247.5 -70.5t135.5 -180.5t41 -236q0 -32 -5 -77h-696q-1 -91 32.5 -166.5t99.5 -120.5t160 -45q91 0 158 23.5t123 83.5l102 -82q-81 -82 -171.5 -119t-210.5 -37
q-146 0 -247.5 68.5zM806 571q-3 136 -71 227.5t-210 91.5q-88 0 -149 -43t-92.5 -115t-35.5 -161h558zM512 1081l-329 332h162l167 -181l168 181h161z" />
    <glyph glyph-name="Gbreve" unicode="&#x11e;" horiz-adv-x="1509" 
d="M407 77q-143 97 -212.5 261.5t-69.5 368.5q0 203 70.5 368t212.5 263t349 98q199 0 346 -96.5t228 -279.5l-145 -63q-64 141 -173.5 215.5t-257.5 74.5q-160 0 -266.5 -77.5t-157 -206t-50.5 -286.5q0 -166 50.5 -298.5t157.5 -211.5t270 -79q122 0 223 54.5t161 159
t62 248.5h-323v125h473v-715h-132l-2 258q-30 -75 -94 -138.5t-158.5 -101.5t-209.5 -38q-209 0 -352 97zM600.5 1588.5q-69.5 31.5 -108.5 92.5t-39 146h136q0 -46 23 -81.5t62 -55t86 -19.5t86 19.5t61.5 55t22.5 81.5h136q0 -86 -39 -147t-108 -92t-159 -31t-159.5 31.5z
" />
    <glyph glyph-name="gbreve" unicode="&#x11f;" horiz-adv-x="1024" 
d="M743.5 88.5q82.5 -22.5 139 -80t56.5 -162.5q0 -99 -54.5 -167.5t-145.5 -102.5t-200 -34q-127 0 -225 45t-152 122.5t-54 172.5q0 17 3 38l144 145q-127 70 -127 205q0 102 73 165q-84 94 -84 228q0 104 49 183.5t134.5 123t190.5 43.5q77 0 143 -24.5t115 -68.5
l150 136l85 -106l-161 -127q37 -74 37 -162q0 -105 -48.5 -183t-132.5 -119.5t-188 -41.5q-102 0 -188 42q-43 -33 -43 -77q0 -70 69.5 -102.5t197.5 -50.5q134 -18 216.5 -40.5zM373 863.5q-50 -31.5 -77 -83.5t-27 -114q0 -67 27 -118t76.5 -79t116.5 -28t117 28t77 79
t27 118q0 63 -27 115.5t-77.5 83t-116.5 30.5t-116 -31.5zM677.5 -308q58.5 18 93.5 54.5t35 88.5q0 53 -33 82t-83.5 42.5t-143.5 27.5q-46 7 -63 10q-83 15 -119 26l-118 -144q1 -53 37.5 -100t105.5 -76t162 -29q68 0 126.5 18zM340.5 1174.5q-69.5 31.5 -108.5 92.5
t-39 146h136q0 -46 23 -81.5t62 -55t86 -19.5t86 19.5t61.5 55t22.5 81.5h136q0 -86 -39 -147t-108 -92t-159 -31t-159.5 31.5z" />
    <glyph glyph-name="Gdotaccent" unicode="&#x120;" horiz-adv-x="1509" 
d="M407 77q-143 97 -212.5 261.5t-69.5 368.5q0 203 70.5 368t212.5 263t349 98q199 0 346 -96.5t228 -279.5l-145 -63q-64 141 -173.5 215.5t-257.5 74.5q-160 0 -266.5 -77.5t-157 -206t-50.5 -286.5q0 -166 50.5 -298.5t157.5 -211.5t270 -79q122 0 223 54.5t161 159
t62 248.5h-323v125h473v-715h-132l-2 258q-30 -75 -94 -138.5t-158.5 -101.5t-209.5 -38q-209 0 -352 97zM672 1635v192h173v-192h-173z" />
    <glyph glyph-name="gdotaccent" unicode="&#x121;" horiz-adv-x="1024" 
d="M743.5 88.5q82.5 -22.5 139 -80t56.5 -162.5q0 -99 -54.5 -167.5t-145.5 -102.5t-200 -34q-127 0 -225 45t-152 122.5t-54 172.5q0 17 3 38l144 145q-127 70 -127 205q0 102 73 165q-84 94 -84 228q0 104 49 183.5t134.5 123t190.5 43.5q77 0 143 -24.5t115 -68.5
l150 136l85 -106l-161 -127q37 -74 37 -162q0 -105 -48.5 -183t-132.5 -119.5t-188 -41.5q-102 0 -188 42q-43 -33 -43 -77q0 -70 69.5 -102.5t197.5 -50.5q134 -18 216.5 -40.5zM373 863.5q-50 -31.5 -77 -83.5t-27 -114q0 -67 27 -118t76.5 -79t116.5 -28t117 28t77 79
t27 118q0 63 -27 115.5t-77.5 83t-116.5 30.5t-116 -31.5zM677.5 -308q58.5 18 93.5 54.5t35 88.5q0 53 -33 82t-83.5 42.5t-143.5 27.5q-46 7 -63 10q-83 15 -119 26l-118 -144q1 -53 37.5 -100t105.5 -76t162 -29q68 0 126.5 18zM412 1221v192h173v-192h-173z" />
    <glyph glyph-name="Gcommaaccent" unicode="&#x122;" horiz-adv-x="1509" 
d="M407 77q-143 97 -212.5 261.5t-69.5 368.5q0 203 70.5 368t212.5 263t349 98q199 0 346 -96.5t228 -279.5l-145 -63q-64 141 -173.5 215.5t-257.5 74.5q-160 0 -266.5 -77.5t-157 -206t-50.5 -286.5q0 -166 50.5 -298.5t157.5 -211.5t270 -79q122 0 223 54.5t161 159
t62 248.5h-323v125h473v-715h-132l-2 258q-30 -75 -94 -138.5t-158.5 -101.5t-209.5 -38q-209 0 -352 97zM555 -446l123 335h212l-228 -335h-107z" />
    <glyph glyph-name="gcommaaccent" unicode="&#x123;" horiz-adv-x="1024" 
d="M722 1423l-123 -300h-212l228 300h107zM743.5 88.5q82.5 -22.5 139 -80t56.5 -162.5q0 -99 -54.5 -167.5t-145.5 -102.5t-200 -34q-127 0 -225 45t-152 122.5t-54 172.5q0 17 3 38l144 145q-127 70 -127 205q0 102 73 165q-84 94 -84 228q0 104 49 183.5t134.5 123
t190.5 43.5q77 0 143 -24.5t115 -68.5l150 136l85 -106l-161 -127q37 -74 37 -162q0 -105 -48.5 -183t-132.5 -119.5t-188 -41.5q-102 0 -188 42q-43 -33 -43 -77q0 -70 69.5 -102.5t197.5 -50.5q134 -18 216.5 -40.5zM373 863.5q-50 -31.5 -77 -83.5t-27 -114
q0 -67 27 -118t76.5 -79t116.5 -28t117 28t77 79t27 118q0 63 -27 115.5t-77.5 83t-116.5 30.5t-116 -31.5zM677.5 -308q58.5 18 93.5 54.5t35 88.5q0 53 -33 82t-83.5 42.5t-143.5 27.5q-46 7 -63 10q-83 15 -119 26l-118 -144q1 -53 37.5 -100t105.5 -76t162 -29
q68 0 126.5 18z" />
    <glyph glyph-name="Hbar" unicode="&#x126;" horiz-adv-x="1455" 
d="M1356 1160v-89h-113v-1071h-159v641h-713v-641h-159v1071h-115v89h115v253h159v-253h713v253h159v-253h113zM1084 774v297h-713v-297h713z" />
    <glyph glyph-name="hbar" unicode="&#x127;" horiz-adv-x="1124" 
d="M832.5 963q75.5 -54 111 -144.5t35.5 -202.5v-616h-151v592q0 122 -47.5 203.5t-164.5 81.5q-85 0 -153.5 -45.5t-106.5 -123t-38 -169.5v-539h-148v1128h-181v116h181v169h148v-169h305v-116h-305v-293q50 82 139 132t186 50q114 0 189.5 -54z" />
    <glyph glyph-name="Itilde" unicode="&#x128;" horiz-adv-x="582" 
d="M212 0v1413h159v-1413h-159zM324.5 1584.5q-35.5 24.5 -75.5 69.5q-31 33 -50.5 48t-42.5 15q-36 0 -52.5 -38t-16.5 -99h-100q0 114 44 182t125 68q39 0 69.5 -14t51.5 -33t48 -50q28 -32 46.5 -47t41.5 -15q71 0 71 153h106q0 -128 -46.5 -196t-132.5 -68
q-51 0 -86.5 24.5z" />
    <glyph glyph-name="itilde" unicode="&#x129;" horiz-adv-x="501" 
d="M168 0v999h165v-999h-165zM284.5 1170.5q-35.5 24.5 -75.5 69.5q-31 33 -50.5 48t-42.5 15q-36 0 -52.5 -38t-16.5 -99h-100q0 114 44 182t125 68q39 0 69.5 -14t51.5 -33t48 -50q28 -32 46.5 -47t41.5 -15q71 0 71 153h106q0 -128 -46.5 -196t-132.5 -68
q-51 0 -86.5 24.5z" />
    <glyph glyph-name="Imacron" unicode="&#x12a;" horiz-adv-x="582" 
d="M212 0v1413h159v-1413h-159zM21 1597v125h541v-125h-541z" />
    <glyph glyph-name="imacron" unicode="&#x12b;" horiz-adv-x="501" 
d="M168 0v999h165v-999h-165zM-19 1183v125h541v-125h-541z" />
    <glyph glyph-name="Iogonek" unicode="&#x12e;" horiz-adv-x="582" 
d="M212 0v1413h159v-1413h-159zM134 -425.5q-47 25.5 -73.5 72t-26.5 107.5q0 69 37 121t85.5 82t90.5 43h124q-24 -8 -75.5 -34.5t-101.5 -77t-50 -117.5q0 -51 24.5 -79.5t62.5 -28.5q40 0 69.5 16t52.5 48l93 -65q-38 -54 -86.5 -83.5t-119.5 -29.5q-59 0 -106 25.5z" />
    <glyph glyph-name="iogonek" unicode="&#x12f;" horiz-adv-x="501" 
d="M168 0v999h165v-999h-165zM162 1221v192h173v-192h-173zM96 -425.5q-47 25.5 -73.5 72t-26.5 107.5q0 69 37 121t85.5 82t90.5 43h124q-24 -8 -75.5 -34.5t-101.5 -77t-50 -117.5q0 -51 24.5 -79.5t62.5 -28.5q40 0 69.5 16t52.5 48l93 -65q-38 -54 -86.5 -83.5
t-119.5 -29.5q-59 0 -106 25.5z" />
    <glyph glyph-name="Idotaccent" unicode="&#x130;" horiz-adv-x="582" 
d="M212 0v1413h159v-1413h-159zM202 1635v192h173v-192h-173z" />
    <glyph glyph-name="dotlessi" unicode="&#x131;" horiz-adv-x="501" 
d="M168 0v999h165v-999h-165z" />
    <glyph glyph-name="IJ" unicode="&#x132;" horiz-adv-x="1701" 
d="M212 0v1413h159v-1413h-159zM860.5 35q-93.5 55 -146 149.5t-60.5 211.5l155 21q5 -79 35.5 -146.5t89.5 -109t146 -41.5q109 0 169.5 47t82.5 126.5t22 191.5v791h-532v137h691v-911q0 -248 -104 -385t-329 -137q-126 0 -219.5 55z" />
    <glyph glyph-name="Kcommaaccent" unicode="&#x136;" horiz-adv-x="1452" 
d="M212 0v1413h159v-829l781 829h204l-534 -557l567 -856h-191l-482 747l-345 -357v-390h-159zM479 -446l123 335h212l-228 -335h-107z" />
    <glyph glyph-name="kcommaaccent" unicode="&#x137;" horiz-adv-x="1048" 
d="M170 0v1413h151v-952l445 538h187l-326 -367l391 -632h-177l-306 530l-214 -237v-293h-151zM373 -446l123 335h212l-228 -335h-107z" />
    <glyph glyph-name="kgreenlandic" unicode="&#x138;" horiz-adv-x="1044" 
d="M168 0v999h149v-523l446 523h186l-326 -367l392 -632h-179l-305 527l-214 -237v-290h-149z" />
    <glyph glyph-name="Lacute" unicode="&#x139;" horiz-adv-x="1037" 
d="M212 0v1413h159v-1268h604v-145h-763zM216 1538l217 289h193l-277 -289h-133z" />
    <glyph glyph-name="lacute" unicode="&#x13a;" horiz-adv-x="518" 
d="M462 120v-120q-27 -8 -63 -14t-72 -6q-71 0 -106.5 29t-45.5 75t-10 118v1211h151v-1246q0 -14 10.5 -35.5t38.5 -21.5q42 0 97 10zM143 1538l217 289h193l-277 -289h-133z" />
    <glyph glyph-name="Lcommaaccent" unicode="&#x13b;" horiz-adv-x="1037" 
d="M212 0v1413h159v-1268h604v-145h-763zM309 -446l123 335h212l-228 -335h-107z" />
    <glyph glyph-name="lcommaaccent" unicode="&#x13c;" horiz-adv-x="518" 
d="M462 120v-120q-27 -8 -63 -14t-72 -6q-71 0 -106.5 29t-45.5 75t-10 118v1211h151v-1246q0 -14 10.5 -35.5t38.5 -21.5q42 0 97 10zM127 -446l123 335h212l-228 -335h-107z" />
    <glyph glyph-name="Lcaron" unicode="&#x13d;" horiz-adv-x="1051" 
d="M212 0v1413h159v-1268h604v-145h-763zM601 1017l103 396h212l-208 -396h-107z" />
    <glyph glyph-name="lcaron" unicode="&#x13e;" horiz-adv-x="567" 
d="M326.5 130.5q10.5 -20.5 39.5 -20.5q41 0 96 10v-120q-26 -8 -63 -14t-71 -6q-72 0 -107.5 28.5t-45.5 74.5t-10 119v1211h151v-1247q0 -15 10.5 -35.5zM546 1413h212l-207 -396h-108z" />
    <glyph glyph-name="Lslash" unicode="&#x141;" horiz-adv-x="1058" 
d="M389 145h604v-145h-763v317l-104 -115v185l104 118v908h159v-727l366 415v-206l-366 -403v-347z" />
    <glyph glyph-name="lslash" unicode="&#x142;" horiz-adv-x="518" 
d="M316 654v-487q0 -14 10.5 -35.5t38.5 -21.5q42 0 97 10v-120q-27 -8 -63 -14t-72 -6q-71 0 -106.5 29t-45.5 75t-10 118v282l-157 -177v147l157 177v782h151v-612l180 203v-147z" />
    <glyph glyph-name="Nacute" unicode="&#x143;" horiz-adv-x="1418" 
d="M212 0v1413h229l608 -1245v1245h157v-1413h-232l-604 1247v-1247h-158zM612 1538l217 289h193l-277 -289h-133z" />
    <glyph glyph-name="nacute" unicode="&#x144;" 
d="M168 999h149v-174q51 90 133.5 141t188.5 51q114 0 189 -55t110.5 -147.5t35.5 -207.5v-607h-148v592q0 122 -53.5 210t-173.5 88q-80 0 -144 -42t-101 -125.5t-37 -203.5v-519h-149v999zM455 1124l217 289h193l-277 -289h-133z" />
    <glyph glyph-name="Ncommaaccent" unicode="&#x145;" horiz-adv-x="1418" 
d="M212 0v1413h229l608 -1245v1245h157v-1413h-232l-604 1247v-1247h-158zM480 -446l123 335h212l-228 -335h-107z" />
    <glyph glyph-name="ncommaaccent" unicode="&#x146;" 
d="M168 999h149v-174q51 90 133.5 141t188.5 51q114 0 189 -55t110.5 -147.5t35.5 -207.5v-607h-148v592q0 122 -53.5 210t-173.5 88q-80 0 -144 -42t-101 -125.5t-37 -203.5v-519h-149v999zM323 -446l123 335h212l-228 -335h-107z" />
    <glyph glyph-name="Ncaron" unicode="&#x147;" horiz-adv-x="1418" 
d="M212 0v1413h229l608 -1245v1245h157v-1413h-232l-604 1247v-1247h-158zM707 1495l-329 332h162l167 -181l168 181h161z" />
    <glyph glyph-name="ncaron" unicode="&#x148;" 
d="M168 999h149v-174q51 90 133.5 141t188.5 51q114 0 189 -55t110.5 -147.5t35.5 -207.5v-607h-148v592q0 122 -53.5 210t-173.5 88q-80 0 -144 -42t-101 -125.5t-37 -203.5v-519h-149v999zM550 1081l-329 332h162l167 -181l168 181h161z" />
    <glyph glyph-name="Eng" unicode="&#x14a;" horiz-adv-x="1420" 
d="M845 -248q90 -1 141.5 33t51.5 88q0 26 -14 57l-654 1298v-1228h-158v1413h222l615 -1228v1228h157v-1413q0 -85 -14.5 -161.5t-77 -142t-190.5 -65.5h-79v121z" />
    <glyph glyph-name="eng" unicode="&#x14b;" 
d="M622 -240h56q66 0 98.5 31t40 69t7.5 82v651q0 121 -45.5 199.5t-159.5 78.5q-81 0 -150 -41.5t-109.5 -111t-40.5 -149.5v-569h-151v999h151v-158q47 79 132.5 127t180.5 48q120 0 196.5 -55.5t111 -147.5t34.5 -206v-691q0 -114 -52 -199.5t-215 -85.5h-85v129z" />
    <glyph glyph-name="Omacron" unicode="&#x14c;" horiz-adv-x="1515" 
d="M406.5 77.5q-142.5 97.5 -213 262.5t-70.5 367t70.5 367t213 262.5t349.5 97.5q208 0 351 -97.5t214 -262.5t71 -367t-71 -367t-214 -262.5t-351 -97.5q-207 0 -349.5 97.5zM1028.5 205.5q108.5 79.5 159 211t50.5 290.5t-50.5 290t-159 210.5t-272.5 79.5
q-162 0 -269.5 -79.5t-158 -210.5t-50.5 -290t50.5 -290.5t158 -211t269.5 -79.5q164 0 272.5 79.5zM487 1597v125h541v-125h-541z" />
    <glyph glyph-name="omacron" unicode="&#x14d;" 
d="M312.5 50.5q-107.5 70.5 -167 190t-59.5 261.5t59.5 260.5t166.5 188t245 69.5q137 0 245.5 -69.5t169.5 -188.5t61 -260q0 -142 -61 -261.5t-169.5 -190t-245.5 -70.5t-244.5 70.5zM738 160.5q73 56.5 108.5 147t35.5 194.5q0 105 -35.5 194.5t-108 144.5t-178.5 55
t-179 -55t-109 -145t-36 -194q0 -105 36 -196t108.5 -146.5t177.5 -55.5q107 0 180 56.5zM289 1183v125h541v-125h-541z" />
    <glyph glyph-name="Ohungarumlaut" unicode="&#x150;" horiz-adv-x="1515" 
d="M406.5 77.5q-142.5 97.5 -213 262.5t-70.5 367t70.5 367t213 262.5t349.5 97.5q208 0 351 -97.5t214 -262.5t71 -367t-71 -367t-214 -262.5t-351 -97.5q-207 0 -349.5 97.5zM1028.5 205.5q108.5 79.5 159 211t50.5 290.5t-50.5 290t-159 210.5t-272.5 79.5
q-162 0 -269.5 -79.5t-158 -210.5t-50.5 -290t50.5 -290.5t158 -211t269.5 -79.5q164 0 272.5 79.5zM495 1533l217 294h188l-271 -294h-134zM825 1533l217 294h193l-276 -294h-134z" />
    <glyph glyph-name="ohungarumlaut" unicode="&#x151;" 
d="M312.5 50.5q-107.5 70.5 -167 190t-59.5 261.5t59.5 260.5t166.5 188t245 69.5q137 0 245.5 -69.5t169.5 -188.5t61 -260q0 -142 -61 -261.5t-169.5 -190t-245.5 -70.5t-244.5 70.5zM738 160.5q73 56.5 108.5 147t35.5 194.5q0 105 -35.5 194.5t-108 144.5t-178.5 55
t-179 -55t-109 -145t-36 -194q0 -105 36 -196t108.5 -146.5t177.5 -55.5q107 0 180 56.5zM297 1119l217 294h188l-271 -294h-134zM627 1119l217 294h193l-276 -294h-134z" />
    <glyph glyph-name="OE" unicode="&#x152;" horiz-adv-x="2243" 
d="M406.5 77.5q-142.5 97.5 -213 262.5t-70.5 367t70.5 367t213 262.5t349.5 97.5q180 0 296.5 -71.5t180.5 -204.5v255h899v-137h-740v-502h657v-133h-657v-496h740v-145h-899v256q-61 -131 -178.5 -203.5t-298.5 -72.5q-207 0 -349.5 97.5zM1027 204q107 80 156.5 211.5
t49.5 291.5t-49.5 291.5t-156.5 211t-271 79.5q-162 0 -268.5 -80t-156 -211.5t-49.5 -290.5q0 -160 49.5 -291.5t156 -211.5t268.5 -80q164 0 271 80z" />
    <glyph glyph-name="oe" unicode="&#x153;" horiz-adv-x="1785" 
d="M312 49q-107 69 -166.5 187t-59.5 260q0 141 59.5 259t167 187.5t244.5 69.5q125 0 220.5 -55.5t153.5 -155.5q49 98 137.5 154.5t213.5 56.5q227 0 324 -147t97 -379q0 -10 -1 -21.5t-1 -15.5h-696q1 -91 34 -167t98.5 -121t159.5 -45q92 0 157 22.5t122 83.5l99 -80
q-78 -84 -167.5 -119t-208.5 -35q-251 0 -366 208q-56 -101 -152 -158.5t-224 -57.5q-138 0 -245 69zM1564 571q1 141 -71 226t-211 85q-89 0 -150 -41.5t-92.5 -111.5t-35.5 -158h560zM733 169q69 51 100 136t31 191q0 105 -31.5 190.5t-100 137t-175.5 51.5
q-105 0 -173.5 -51.5t-100.5 -137.5t-32 -191t32 -190t100.5 -136t173.5 -51q107 0 176 51z" />
    <glyph glyph-name="Racute" unicode="&#x154;" horiz-adv-x="1220" 
d="M212 1411h404q125 0 226 -47.5t159.5 -136.5t58.5 -208q0 -94 -37.5 -170t-105.5 -126.5t-158 -69.5l383 -655h-186l-353 634h-232v-634h-159v1413zM642 778q118 6 190 68.5t72 172.5q0 79 -36.5 136t-101 86.5t-148.5 29.5h-245v-493h269zM516 1538l217 289h193
l-277 -289h-133z" />
    <glyph glyph-name="racute" unicode="&#x155;" horiz-adv-x="795" 
d="M168 999h149v-177q39 91 119.5 144.5t175.5 53.5q49 0 90 -14t71 -38l-63 -129q-45 38 -122 38q-85 0 -146.5 -44.5t-94 -129.5t-32.5 -204v-499h-147v999zM269 1124l217 289h193l-277 -289h-133z" />
    <glyph glyph-name="Rcommaaccent" unicode="&#x156;" horiz-adv-x="1220" 
d="M212 1411h404q125 0 226 -47.5t159.5 -136.5t58.5 -208q0 -94 -37.5 -170t-105.5 -126.5t-158 -69.5l383 -655h-186l-353 634h-232v-634h-159v1413zM642 778q118 6 190 68.5t72 172.5q0 79 -36.5 136t-101 86.5t-148.5 29.5h-245v-493h269zM461 -446l123 335h212
l-228 -335h-107z" />
    <glyph glyph-name="rcommaaccent" unicode="&#x157;" horiz-adv-x="795" 
d="M168 999h149v-177q39 91 119.5 144.5t175.5 53.5q49 0 90 -14t71 -38l-63 -129q-45 38 -122 38q-85 0 -146.5 -44.5t-94 -129.5t-32.5 -204v-499h-147v999zM16 -446l123 335h212l-228 -335h-107z" />
    <glyph glyph-name="Rcaron" unicode="&#x158;" horiz-adv-x="1220" 
d="M212 1411h404q125 0 226 -47.5t159.5 -136.5t58.5 -208q0 -94 -37.5 -170t-105.5 -126.5t-158 -69.5l383 -655h-186l-353 634h-232v-634h-159v1413zM642 778q118 6 190 68.5t72 172.5q0 79 -36.5 136t-101 86.5t-148.5 29.5h-245v-493h269zM611 1495l-329 332h162
l167 -181l168 181h161z" />
    <glyph glyph-name="rcaron" unicode="&#x159;" horiz-adv-x="795" 
d="M168 999h149v-177q39 91 119.5 144.5t175.5 53.5q49 0 90 -14t71 -38l-63 -129q-45 38 -122 38q-85 0 -146.5 -44.5t-94 -129.5t-32.5 -204v-499h-147v999zM364 1081l-329 332h162l167 -181l168 181h161z" />
    <glyph glyph-name="Sacute" unicode="&#x15a;" horiz-adv-x="1110" 
d="M349 27q-104 43 -175.5 128t-90.5 207l148 44q10 -92 58 -155.5t122 -94.5t161 -31q131 0 208.5 64.5t77.5 188.5q0 82 -43 138.5t-106 93t-171 83.5q-119 52 -190.5 94.5t-121 113.5t-49.5 175q0 106 51.5 187.5t139 126t192.5 44.5q127 0 227 -55t165 -165l-119 -80
q-41 81 -114 122t-161 41q-60 0 -112 -25.5t-83.5 -72.5t-31.5 -109q0 -67 39 -116t97 -82.5t158 -78.5q125 -56 202 -103t131 -125.5t54 -194.5q0 -121 -57.5 -213.5t-158 -142.5t-225.5 -50q-118 0 -222 43zM456 1538l217 289h193l-277 -289h-133z" />
    <glyph glyph-name="sacute" unicode="&#x15b;" horiz-adv-x="868" 
d="M277.5 13.5q-76.5 33.5 -129 89.5t-76.5 124l126 65q28 -85 91 -137.5t158 -52.5q88 0 142 43t54 122q0 59 -32.5 97t-80 59t-130.5 48q-94 30 -151 57.5t-97 79.5t-40 135q0 87 43 149.5t115 95t159 32.5q112 0 196.5 -53.5t131.5 -145.5l-110 -63q-33 67 -89 104
t-134 37q-80 0 -127.5 -38t-47.5 -100q0 -48 29 -79t73 -50t121 -43q100 -31 163.5 -61t108 -89t44.5 -154q0 -98 -48 -167t-126.5 -103.5t-168.5 -34.5q-91 0 -167.5 33.5zM333 1124l217 289h193l-277 -289h-133z" />
    <glyph glyph-name="Scedilla" unicode="&#x15e;" horiz-adv-x="1110" 
d="M960 185q-52 -89 -143.5 -140.5t-208.5 -59.5l-59 -102q90 -4 138 -55t48 -125q0 -53 -26 -100.5t-74 -77t-112 -29.5q-62 0 -111.5 35.5t-70.5 88.5l99 51q6 -29 30.5 -50.5t58.5 -21.5q44 0 71 28t27 68q0 32 -20.5 61t-62.5 46.5t-103 17.5h-42l93 169
q-103 13 -189 59.5t-144.5 126t-75.5 187.5l148 44q10 -92 58 -155.5t122 -94.5t161 -31q131 0 208.5 64.5t77.5 188.5q0 82 -43 138.5t-106 93t-171 83.5q-119 52 -190.5 94.5t-121 113.5t-49.5 175q0 106 51.5 187.5t139 126t192.5 44.5q127 0 227 -55t165 -165l-119 -80
q-41 81 -114 122t-161 41q-60 0 -112 -25.5t-83.5 -72.5t-31.5 -109q0 -67 39 -116t97 -82.5t158 -78.5q125 -56 202 -103t131 -125.5t54 -194.5t-52 -205z" />
    <glyph glyph-name="scedilla" unicode="&#x15f;" horiz-adv-x="868" 
d="M713 84.5q-75 -76.5 -190 -97.5l-60 -104q90 -4 138 -55t48 -125q0 -53 -26 -100.5t-74 -77t-112 -29.5q-62 0 -111.5 35.5t-70.5 88.5l99 51q6 -29 30.5 -50.5t58.5 -21.5q44 0 71 28t27 68q0 32 -20.5 61t-62.5 46.5t-103 17.5h-42l89 162q-80 8 -147.5 42.5
t-114.5 87.5t-68 115l126 65q28 -85 91 -137.5t158 -52.5q88 0 142 43t54 122q0 59 -32.5 97t-80 59t-130.5 48q-94 30 -151 57.5t-97 79.5t-40 135q0 87 43 149.5t115 95t159 32.5q112 0 196.5 -53.5t131.5 -145.5l-110 -63q-33 67 -89 104t-134 37q-80 0 -127.5 -38
t-47.5 -100q0 -48 29 -79t73 -50t121 -43q100 -31 163.5 -61t108 -89t44.5 -154q0 -124 -75 -200.5z" />
    <glyph glyph-name="Scaron" unicode="&#x160;" horiz-adv-x="1110" 
d="M349 27q-104 43 -175.5 128t-90.5 207l148 44q10 -92 58 -155.5t122 -94.5t161 -31q131 0 208.5 64.5t77.5 188.5q0 82 -43 138.5t-106 93t-171 83.5q-119 52 -190.5 94.5t-121 113.5t-49.5 175q0 106 51.5 187.5t139 126t192.5 44.5q127 0 227 -55t165 -165l-119 -80
q-41 81 -114 122t-161 41q-60 0 -112 -25.5t-83.5 -72.5t-31.5 -109q0 -67 39 -116t97 -82.5t158 -78.5q125 -56 202 -103t131 -125.5t54 -194.5q0 -121 -57.5 -213.5t-158 -142.5t-225.5 -50q-118 0 -222 43zM551 1495l-329 332h162l167 -181l168 181h161z" />
    <glyph glyph-name="scaron" unicode="&#x161;" horiz-adv-x="868" 
d="M277.5 13.5q-76.5 33.5 -129 89.5t-76.5 124l126 65q28 -85 91 -137.5t158 -52.5q88 0 142 43t54 122q0 59 -32.5 97t-80 59t-130.5 48q-94 30 -151 57.5t-97 79.5t-40 135q0 87 43 149.5t115 95t159 32.5q112 0 196.5 -53.5t131.5 -145.5l-110 -63q-33 67 -89 104
t-134 37q-80 0 -127.5 -38t-47.5 -100q0 -48 29 -79t73 -50t121 -43q100 -31 163.5 -61t108 -89t44.5 -154q0 -98 -48 -167t-126.5 -103.5t-168.5 -34.5q-91 0 -167.5 33.5zM428 1081l-329 332h162l167 -181l168 181h161z" />
    <glyph glyph-name="uni0162" unicode="&#x162;" horiz-adv-x="1234" 
d="M537 0v1282h-477v131h1114v-131h-477v-1282h-160zM481.5 -468.5q-49.5 35.5 -70.5 88.5l99 51q6 -29 30.5 -50.5t58.5 -21.5q44 0 71 28t27 68q0 32 -20.5 61t-62.5 46.5t-103 17.5h-42l99 180h119l-68 -117q90 -4 138 -55t48 -125q0 -53 -26 -100.5t-74 -77t-112 -29.5
q-62 0 -111.5 35.5z" />
    <glyph glyph-name="uni0163" unicode="&#x163;" horiz-adv-x="673" 
d="M582 -172q48 -51 48 -125q0 -53 -26 -100.5t-74 -77t-112 -29.5q-62 0 -111.5 35.5t-70.5 88.5l99 51q6 -29 30.5 -50.5t58.5 -21.5q44 0 71 28t27 68q0 32 -20.5 61t-62.5 46.5t-103 17.5h-42l91 165q-181 33 -181 280v612h-160v122h161v225l148 140v-365h253v-122h-253
v-613q0 -79 35 -120t92 -41q48 0 100 25v-128q-28 -11 -78 -17l-58 -100q90 -4 138 -55z" />
    <glyph glyph-name="Tcaron" unicode="&#x164;" horiz-adv-x="1234" 
d="M537 0v1282h-477v131h1114v-131h-477v-1282h-160zM621 1495l-329 332h162l167 -181l168 181h161z" />
    <glyph glyph-name="tcaron" unicode="&#x165;" horiz-adv-x="675" 
d="M478 1104l121 373h196l-223 -373h-94zM202 265v608h-157v126h157v225l149 140v-365h256v-126h-256v-617q0 -146 109 -146q35 0 61.5 4t41 8.5t17.5 5.5v-128q-4 -2 -21 -6.5t-46 -9t-65 -4.5q-246 0 -246 285z" />
    <glyph glyph-name="Tbar" unicode="&#x166;" horiz-adv-x="1234" 
d="M1174 1282h-477v-518h241v-116h-241v-648h-160v648h-233v116h233v518h-477v131h1114v-131z" />
    <glyph glyph-name="tbar" unicode="&#x167;" horiz-adv-x="673" 
d="M353 441v-177q0 -79 35 -120t92 -41q48 0 100 25v-128q-19 -8 -55.5 -14t-78.5 -6q-242 0 -242 285v176h-202v116h202v320h-160v122h161v225l148 140v-365h253v-122h-253v-320h283v-116h-283z" />
    <glyph glyph-name="Utilde" unicode="&#x168;" horiz-adv-x="1352" 
d="M397 53q-110 73 -161.5 194.5t-51.5 270.5v895h159v-850q0 -201 76 -317t256 -116q336 0 336 433v850h159v-885q0 -154 -52.5 -277.5t-163.5 -197t-279 -73.5t-278 73zM714.5 1584.5q-35.5 24.5 -75.5 69.5q-31 33 -50.5 48t-42.5 15q-36 0 -52.5 -38t-16.5 -99h-100
q0 114 44 182t125 68q39 0 69.5 -14t51.5 -33t48 -50q28 -32 46.5 -47t41.5 -15q71 0 71 153h106q0 -128 -46.5 -196t-132.5 -68q-51 0 -86.5 24.5z" />
    <glyph glyph-name="utilde" unicode="&#x169;" horiz-adv-x="1117" 
d="M227 98.5q-84 120.5 -84 320.5v580h149v-590q0 -130 47 -217.5t163 -87.5q79 0 147.5 45t109.5 123t41 174v553h148v-999h-148v169q-21 -46 -66 -90t-109.5 -72.5t-138.5 -28.5q-175 0 -259 120.5zM593.5 1170.5q-35.5 24.5 -75.5 69.5q-31 33 -50.5 48t-42.5 15
q-36 0 -52.5 -38t-16.5 -99h-100q0 114 44 182t125 68q39 0 69.5 -14t51.5 -33t48 -50q28 -32 46.5 -47t41.5 -15q71 0 71 153h106q0 -128 -46.5 -196t-132.5 -68q-51 0 -86.5 24.5z" />
    <glyph glyph-name="Umacron" unicode="&#x16a;" horiz-adv-x="1352" 
d="M397 53q-110 73 -161.5 194.5t-51.5 270.5v895h159v-850q0 -201 76 -317t256 -116q336 0 336 433v850h159v-885q0 -154 -52.5 -277.5t-163.5 -197t-279 -73.5t-278 73zM411 1597v125h541v-125h-541z" />
    <glyph glyph-name="umacron" unicode="&#x16b;" horiz-adv-x="1117" 
d="M227 98.5q-84 120.5 -84 320.5v580h149v-590q0 -130 47 -217.5t163 -87.5q79 0 147.5 45t109.5 123t41 174v553h148v-999h-148v169q-21 -46 -66 -90t-109.5 -72.5t-138.5 -28.5q-175 0 -259 120.5zM290 1183v125h541v-125h-541z" />
    <glyph glyph-name="Uring" unicode="&#x16e;" horiz-adv-x="1352" 
d="M397 53q-110 73 -161.5 194.5t-51.5 270.5v895h159v-850q0 -201 76 -317t256 -116q336 0 336 433v850h159v-885q0 -154 -52.5 -277.5t-163.5 -197t-279 -73.5t-278 73zM574.5 1520.5q-46.5 27.5 -73 74t-26.5 101.5q0 56 27 102.5t73.5 74t102.5 27.5q54 0 101 -27
t75 -74t28 -103q0 -55 -27.5 -101.5t-74 -74t-102.5 -27.5q-57 0 -103.5 27.5zM749 1625q29 29 29 72q0 42 -28 70t-72 28t-71 -27t-27 -71t28 -72.5t70 -28.5t71 29z" />
    <glyph glyph-name="uring" unicode="&#x16f;" horiz-adv-x="1117" 
d="M227 98.5q-84 120.5 -84 320.5v580h149v-590q0 -130 47 -217.5t163 -87.5q79 0 147.5 45t109.5 123t41 174v553h148v-999h-148v169q-21 -46 -66 -90t-109.5 -72.5t-138.5 -28.5q-175 0 -259 120.5zM453.5 1106.5q-46.5 27.5 -73 74t-26.5 101.5q0 56 27 102.5t73.5 74
t102.5 27.5q54 0 101 -27t75 -74t28 -103q0 -55 -27.5 -101.5t-74 -74t-102.5 -27.5q-57 0 -103.5 27.5zM628 1211q29 29 29 72q0 42 -28 70t-72 28t-71 -27t-27 -71t28 -72.5t70 -28.5t71 29z" />
    <glyph glyph-name="Uhungarumlaut" unicode="&#x170;" horiz-adv-x="1352" 
d="M397 53q-110 73 -161.5 194.5t-51.5 270.5v895h159v-850q0 -201 76 -317t256 -116q336 0 336 433v850h159v-885q0 -154 -52.5 -277.5t-163.5 -197t-279 -73.5t-278 73zM419 1533l217 294h188l-271 -294h-134zM749 1533l217 294h193l-276 -294h-134z" />
    <glyph glyph-name="uhungarumlaut" unicode="&#x171;" horiz-adv-x="1117" 
d="M227 98.5q-84 120.5 -84 320.5v580h149v-590q0 -130 47 -217.5t163 -87.5q79 0 147.5 45t109.5 123t41 174v553h148v-999h-148v169q-21 -46 -66 -90t-109.5 -72.5t-138.5 -28.5q-175 0 -259 120.5zM298 1119l217 294h188l-271 -294h-134zM628 1119l217 294h193l-276 -294
h-134z" />
    <glyph glyph-name="Uogonek" unicode="&#x172;" horiz-adv-x="1352" 
d="M1170 1413v-885q0 -177 -69.5 -312.5t-209.5 -195.5l-2 -1q-12 -4 -18 -7q-73 -30 -140 -85.5t-67 -135.5q0 -51 24.5 -79.5t62.5 -28.5q40 0 69.5 16t52.5 48l93 -65q-38 -54 -86.5 -83.5t-119.5 -29.5q-59 0 -106 25.5t-73.5 72t-26.5 107.5q0 69 36.5 120.5t91.5 85.5
h-7q-168 0 -278 73t-161.5 194.5t-51.5 270.5v895h159v-850q0 -201 76 -317t256 -116q336 0 336 433v850h159z" />
    <glyph glyph-name="uogonek" unicode="&#x173;" horiz-adv-x="1117" 
d="M1023 -338q-38 -54 -86.5 -83.5t-119.5 -29.5q-59 0 -106 25.5t-73.5 72t-26.5 107.5q0 69 37 121t85.5 82t90.5 43h-24v169q-21 -46 -66 -90t-109.5 -72.5t-138.5 -28.5q-175 0 -259 120.5t-84 320.5v580h149v-590q0 -130 47 -217.5t163 -87.5q79 0 147.5 45t109.5 123
t41 174v553h148v-999q-24 -8 -75.5 -34.5t-101.5 -77t-50 -117.5q0 -51 24.5 -79.5t62.5 -28.5q40 0 69.5 16t52.5 48z" />
    <glyph glyph-name="Wcircumflex" unicode="&#x174;" horiz-adv-x="1973" 
d="M471 0l-397 1413h162l336 -1219l351 1137h128l352 -1137l334 1219h163l-398 -1413h-174l-338 1076l-345 -1076h-174zM661 1487l329 355l329 -355h-161l-168 186l-167 -186h-162z" />
    <glyph glyph-name="wcircumflex" unicode="&#x175;" horiz-adv-x="1419" 
d="M329 -1l-279 1000h158l204 -802l230 802h137l229 -800l203 800h159l-280 -999h-145l-233 811l-238 -812h-145zM383 1098l329 355l329 -355h-161l-168 186l-167 -186h-162z" />
    <glyph glyph-name="Ycircumflex" unicode="&#x176;" horiz-adv-x="1316" 
d="M581 0v553l-529 860h186l419 -699l422 699h185l-527 -860v-553h-156zM328 1512l329 355l329 -355h-161l-168 186l-167 -186h-162z" />
    <glyph glyph-name="ycircumflex" unicode="&#x177;" horiz-adv-x="975" 
d="M248 -430l171 435l-384 994h165l293 -817l284 817h163l-535 -1429h-157zM154 1098l329 355l329 -355h-161l-168 186l-167 -186h-162z" />
    <glyph glyph-name="Ydieresis" unicode="&#x178;" horiz-adv-x="1316" 
d="M581 0v553l-529 860h186l419 -699l422 699h185l-527 -860v-553h-156zM402 1635v192h169v-192h-169zM739 1635v192h168v-192h-168z" />
    <glyph glyph-name="Zacute" unicode="&#x179;" horiz-adv-x="1273" 
d="M87 0v124l895 1152h-850v137h1043v-130l-891 -1139h891v-144h-1088zM542 1538l217 289h193l-277 -289h-133z" />
    <glyph glyph-name="zacute" unicode="&#x17a;" horiz-adv-x="930" 
d="M852 999v-123l-600 -748h600v-128h-786v113l611 764h-582v122h757zM363 1124l217 289h193l-277 -289h-133z" />
    <glyph glyph-name="Zdotaccent" unicode="&#x17b;" horiz-adv-x="1273" 
d="M87 0v124l895 1152h-850v137h1043v-130l-891 -1139h891v-144h-1088zM549 1635v192h173v-192h-173z" />
    <glyph glyph-name="zdotaccent" unicode="&#x17c;" horiz-adv-x="930" 
d="M852 999v-123l-600 -748h600v-128h-786v113l611 764h-582v122h757zM370 1221v192h173v-192h-173z" />
    <glyph glyph-name="Zcaron" unicode="&#x17d;" horiz-adv-x="1273" 
d="M87 0v124l895 1152h-850v137h1043v-130l-891 -1139h891v-144h-1088zM637 1495l-329 332h162l167 -181l168 181h161z" />
    <glyph glyph-name="zcaron" unicode="&#x17e;" horiz-adv-x="930" 
d="M852 999v-123l-600 -748h600v-128h-786v113l611 764h-582v122h757zM458 1081l-329 332h162l167 -181l168 181h161z" />
    <glyph glyph-name="florin" unicode="&#x192;" horiz-adv-x="1046" 
d="M114 -322q177 0 257.5 75t80.5 242v872h-178v132h178v161q0 83 36 149.5t97 103.5t134 37q52 0 103.5 -19.5t93.5 -56.5l-87 -103q-25 22 -55 33t-55 11q-56 0 -94 -40t-38 -115v-161h305v-132h-305v-872q0 -146 -58 -247.5t-164.5 -153t-250.5 -51.5v135z" />
    <glyph glyph-name="uni01C3" unicode="&#x1c3;" horiz-adv-x="646" 
d="M267 379l-29 1056h170l-29 -1056h-112zM226 0v192h194v-192h-194z" />
    <glyph glyph-name="uni01C4" unicode="&#x1c4;" horiz-adv-x="2679" 
d="M212 1413h360q229 0 388.5 -82.5t242 -243t82.5 -391.5q0 -221 -83.5 -377.5t-244 -237.5t-387.5 -81h-358v1413zM546 145q169 0 300 61t205.5 187t74.5 314q0 276 -140 420t-418 144h-197v-1126h175zM1493 0v124l895 1152h-850v137h1043v-130l-891 -1139h891v-144h-1088
zM2043 1495l-329 332h162l167 -181l168 181h161z" />
    <glyph glyph-name="uni01C5" unicode="&#x1c5;" horiz-adv-x="2336" 
d="M212 1413h360q229 0 388.5 -82.5t242 -243t82.5 -391.5q0 -221 -83.5 -377.5t-244 -237.5t-387.5 -81h-358v1413zM546 145q169 0 300 61t205.5 187t74.5 314q0 276 -140 420t-418 144h-197v-1126h175zM2258 999v-123l-600 -748h600v-128h-786v113l611 764h-582v122h757z
M1864 1081l-329 332h162l167 -181l168 181h161z" />
    <glyph glyph-name="uni01C6" unicode="&#x1c6;" horiz-adv-x="2059" 
d="M958 1413v-1413h-145l-3 139q-53 -76 -129 -117.5t-184 -41.5q-124 0 -215 69.5t-138.5 188t-47.5 262.5q0 145 47.5 263.5t138 187.5t214.5 69q205 0 313 -157v550h149zM696.5 160q64.5 54 94.5 143t30 197q0 107 -30 196t-94.5 143.5t-161.5 54.5q-96 0 -160 -54.5
t-95 -144t-31 -195.5q0 -107 31 -196.5t95 -143.5t160 -54q97 0 161.5 54zM1981 999v-123l-600 -748h600v-128h-786v113l611 764h-582v122h757zM1587 1081l-329 332h162l167 -181l168 181h161z" />
    <glyph glyph-name="uni01C7" unicode="&#x1c7;" horiz-adv-x="2156" 
d="M212 0v1413h159v-1268h604v-145h-763zM1315.5 35q-93.5 55 -146 149.5t-60.5 211.5l155 21q5 -79 35.5 -146.5t89.5 -109t146 -41.5q109 0 169.5 47t82.5 126.5t22 191.5v791h-532v137h691v-911q0 -248 -104 -385t-329 -137q-126 0 -219.5 55z" />
    <glyph glyph-name="uni01C8" unicode="&#x1c8;" horiz-adv-x="1530" 
d="M212 0v1413h159v-1268h604v-145h-763zM1198 1227v186h172v-186h-172zM1028.5 -429q-43.5 9 -75.5 22l32 112q22 -7 55.5 -12t59.5 -5q58 0 83 38.5t25 96.5v1176h152v-1154q0 -130 -63 -206.5t-193 -76.5q-32 0 -75.5 9z" />
    <glyph glyph-name="uni01C9" unicode="&#x1c9;" horiz-adv-x="1011" 
d="M462 120v-120q-27 -8 -63 -14t-72 -6q-71 0 -106.5 29t-45.5 75t-10 118v1211h151v-1246q0 -14 10.5 -35.5t38.5 -21.5q42 0 97 10zM679 1227v186h172v-186h-172zM509.5 -429q-43.5 9 -75.5 22l32 112q22 -7 55.5 -12t59.5 -5q58 0 83 38.5t25 96.5v1176h152v-1154
q0 -130 -63 -206.5t-193 -76.5q-32 0 -75.5 9z" />
    <glyph glyph-name="uni01CA" unicode="&#x1ca;" horiz-adv-x="2537" 
d="M212 0v1413h229l608 -1245v1245h157v-1413h-232l-604 1247v-1247h-158zM1696.5 35q-93.5 55 -146 149.5t-60.5 211.5l155 21q5 -79 35.5 -146.5t89.5 -109t146 -41.5q109 0 169.5 47t82.5 126.5t22 191.5v791h-532v137h691v-911q0 -248 -104 -385t-329 -137
q-126 0 -219.5 55z" />
    <glyph glyph-name="uni01CB" unicode="&#x1cb;" horiz-adv-x="1911" 
d="M212 0v1413h229l608 -1245v1245h157v-1413h-232l-604 1247v-1247h-158zM1579 1227v186h172v-186h-172zM1409.5 -429q-43.5 9 -75.5 22l32 112q22 -7 55.5 -12t59.5 -5q58 0 83 38.5t25 96.5v1176h152v-1154q0 -130 -63 -206.5t-193 -76.5q-32 0 -75.5 9z" />
    <glyph glyph-name="uni01CC" unicode="&#x1cc;" horiz-adv-x="1612" 
d="M168 999h149v-174q51 90 133.5 141t188.5 51q114 0 189 -55t110.5 -147.5t35.5 -207.5v-607h-148v592q0 122 -53.5 210t-173.5 88q-80 0 -144 -42t-101 -125.5t-37 -203.5v-519h-149v999zM1280 1227v186h172v-186h-172zM1110.5 -429q-43.5 9 -75.5 22l32 112
q22 -7 55.5 -12t59.5 -5q58 0 83 38.5t25 96.5v1176h152v-1154q0 -130 -63 -206.5t-193 -76.5q-32 0 -75.5 9z" />
    <glyph glyph-name="uni01CD" unicode="&#x1cd;" horiz-adv-x="1306" 
d="M63 0l531 1413h122l527 -1413h-170l-108 307h-621l-108 -307h-173zM397 452h514l-255 728zM654 1495l-329 332h162l167 -181l168 181h161z" />
    <glyph glyph-name="uni01CE" unicode="&#x1ce;" horiz-adv-x="1025" 
d="M233.5 15.5q-73.5 35.5 -115 103t-41.5 159.5q0 148 112 220.5t328 72.5h228q0 319 -245 319q-97 0 -165 -43.5t-112 -107.5l-109 85q142 196 377 196q125 0 213 -50.5t133 -142.5t45 -214v-613h-127l-3 193q-52 -108 -145 -160.5t-206 -52.5q-94 0 -167.5 35.5z
M590 158.5q75 52.5 115 134.5t40 165h-214q-152 0 -226 -43t-74 -141q0 -85 51.5 -126.5t135.5 -41.5q97 0 172 52.5zM502 1081l-329 332h162l167 -181l168 181h161z" />
    <glyph glyph-name="uni01CF" unicode="&#x1cf;" horiz-adv-x="582" 
d="M212 0v1413h159v-1413h-159zM290 1495l-329 332h162l167 -181l168 181h161z" />
    <glyph glyph-name="uni01D0" unicode="&#x1d0;" horiz-adv-x="501" 
d="M168 0v999h165v-999h-165zM250 1081l-329 332h162l167 -181l168 181h161z" />
    <glyph glyph-name="uni01D1" unicode="&#x1d1;" horiz-adv-x="1515" 
d="M406.5 77.5q-142.5 97.5 -213 262.5t-70.5 367t70.5 367t213 262.5t349.5 97.5q208 0 351 -97.5t214 -262.5t71 -367t-71 -367t-214 -262.5t-351 -97.5q-207 0 -349.5 97.5zM1028.5 205.5q108.5 79.5 159 211t50.5 290.5t-50.5 290t-159 210.5t-272.5 79.5
q-162 0 -269.5 -79.5t-158 -210.5t-50.5 -290t50.5 -290.5t158 -211t269.5 -79.5q164 0 272.5 79.5zM756 1495l-329 332h162l167 -181l168 181h161z" />
    <glyph glyph-name="uni01D2" unicode="&#x1d2;" 
d="M312.5 50.5q-107.5 70.5 -167 190t-59.5 261.5t59.5 260.5t166.5 188t245 69.5q137 0 245.5 -69.5t169.5 -188.5t61 -260q0 -142 -61 -261.5t-169.5 -190t-245.5 -70.5t-244.5 70.5zM738 160.5q73 56.5 108.5 147t35.5 194.5q0 105 -35.5 194.5t-108 144.5t-178.5 55
t-179 -55t-109 -145t-36 -194q0 -105 36 -196t108.5 -146.5t177.5 -55.5q107 0 180 56.5zM558 1081l-329 332h162l167 -181l168 181h161z" />
    <glyph glyph-name="uni01D3" unicode="&#x1d3;" horiz-adv-x="1352" 
d="M397 53q-110 73 -161.5 194.5t-51.5 270.5v895h159v-850q0 -201 76 -317t256 -116q336 0 336 433v850h159v-885q0 -154 -52.5 -277.5t-163.5 -197t-279 -73.5t-278 73zM680 1495l-329 332h162l167 -181l168 181h161z" />
    <glyph glyph-name="uni01D4" unicode="&#x1d4;" horiz-adv-x="1117" 
d="M227 98.5q-84 120.5 -84 320.5v580h149v-590q0 -130 47 -217.5t163 -87.5q79 0 147.5 45t109.5 123t41 174v553h148v-999h-148v169q-21 -46 -66 -90t-109.5 -72.5t-138.5 -28.5q-175 0 -259 120.5zM559 1081l-329 332h162l167 -181l168 181h161z" />
    <glyph glyph-name="uni01D5" unicode="&#x1d5;" horiz-adv-x="1352" 
d="M397 53q-110 73 -161.5 194.5t-51.5 270.5v895h159v-850q0 -201 76 -317t256 -116q336 0 336 433v850h159v-885q0 -154 -52.5 -277.5t-163.5 -197t-279 -73.5t-278 73zM425 1635v192h169v-192h-169zM762 1635v192h168v-192h-168zM411 2011v125h541v-125h-541z" />
    <glyph glyph-name="uni01D6" unicode="&#x1d6;" horiz-adv-x="1117" 
d="M227 98.5q-84 120.5 -84 320.5v580h149v-590q0 -130 47 -217.5t163 -87.5q79 0 147.5 45t109.5 123t41 174v553h148v-999h-148v169q-21 -46 -66 -90t-109.5 -72.5t-138.5 -28.5q-175 0 -259 120.5zM304 1221v192h169v-192h-169zM641 1221v192h168v-192h-168zM290 1597
v125h541v-125h-541z" />
    <glyph glyph-name="uni01D7" unicode="&#x1d7;" horiz-adv-x="1352" 
d="M397 53q-110 73 -161.5 194.5t-51.5 270.5v895h159v-850q0 -201 76 -317t256 -116q336 0 336 433v850h159v-885q0 -154 -52.5 -277.5t-163.5 -197t-279 -73.5t-278 73zM425 1635v192h169v-192h-169zM762 1635v192h168v-192h-168zM585 1952l217 289h193l-277 -289h-133z
" />
    <glyph glyph-name="uni01D8" unicode="&#x1d8;" horiz-adv-x="1117" 
d="M227 98.5q-84 120.5 -84 320.5v580h149v-590q0 -130 47 -217.5t163 -87.5q79 0 147.5 45t109.5 123t41 174v553h148v-999h-148v169q-21 -46 -66 -90t-109.5 -72.5t-138.5 -28.5q-175 0 -259 120.5zM304 1221v192h169v-192h-169zM641 1221v192h168v-192h-168zM464 1538
l217 289h193l-277 -289h-133z" />
    <glyph glyph-name="uni01D9" unicode="&#x1d9;" horiz-adv-x="1352" 
d="M397 53q-110 73 -161.5 194.5t-51.5 270.5v895h159v-850q0 -201 76 -317t256 -116q336 0 336 433v850h159v-885q0 -154 -52.5 -277.5t-163.5 -197t-279 -73.5t-278 73zM425 1635v192h169v-192h-169zM762 1635v192h168v-192h-168zM680 1909l-329 332h162l167 -181l168 181
h161z" />
    <glyph glyph-name="uni01DA" unicode="&#x1da;" horiz-adv-x="1117" 
d="M227 98.5q-84 120.5 -84 320.5v580h149v-590q0 -130 47 -217.5t163 -87.5q79 0 147.5 45t109.5 123t41 174v553h148v-999h-148v169q-21 -46 -66 -90t-109.5 -72.5t-138.5 -28.5q-175 0 -259 120.5zM304 1221v192h169v-192h-169zM641 1221v192h168v-192h-168zM559 1495
l-329 332h162l167 -181l168 181h161z" />
    <glyph glyph-name="uni01DB" unicode="&#x1db;" horiz-adv-x="1352" 
d="M397 53q-110 73 -161.5 194.5t-51.5 270.5v895h159v-850q0 -201 76 -317t256 -116q336 0 336 433v850h159v-885q0 -154 -52.5 -277.5t-163.5 -197t-279 -73.5t-278 73zM425 1635v192h169v-192h-169zM762 1635v192h168v-192h-168zM608 1950l-258 291h192l218 -291h-152z
" />
    <glyph glyph-name="uni01DC" unicode="&#x1dc;" horiz-adv-x="1117" 
d="M227 98.5q-84 120.5 -84 320.5v580h149v-590q0 -130 47 -217.5t163 -87.5q79 0 147.5 45t109.5 123t41 174v553h148v-999h-148v169q-21 -46 -66 -90t-109.5 -72.5t-138.5 -28.5q-175 0 -259 120.5zM304 1221v192h169v-192h-169zM641 1221v192h168v-192h-168zM487 1536
l-258 291h192l218 -291h-152z" />
    <glyph glyph-name="uni01DD" unicode="&#x1dd;" horiz-adv-x="1029" 
d="M183 135q-97 147 -97 382q0 8 1.5 17.5t1.5 15.5h696q-1 100 -37 175t-102 115.5t-153 40.5q-92 0 -159 -23.5t-124 -83.5l-101 82q80 84 171 120t209 36q147 0 249 -68t153.5 -183t51.5 -255t-49 -258t-147.5 -189t-239.5 -71q-227 0 -324 147zM657.5 161
q61.5 41 93 110t34.5 155h-558q2 -139 73 -222.5t207 -83.5q89 0 150.5 41z" />
    <glyph glyph-name="uni01E3" unicode="&#x1e3;" horiz-adv-x="1671" 
d="M562 1196v117h532v-117h-532zM236 16.5q-73 36.5 -116 104t-43 155.5q0 152 97.5 224.5t265.5 72.5h313q0 323 -260 323q-84 0 -153 -42t-112 -105l-113 74q72 98 165 145.5t221 47.5q124 0 206 -49t123 -141q101 186 326 186q229 0 327 -147t98 -382l-1 -34h-697
q1 -100 37 -174.5t102 -115.5t153 -41q91 0 157.5 24t126.5 85l100 -84q-79 -83 -170.5 -119t-211.5 -36q-153 0 -248.5 74.5t-137.5 204.5q-51 -137 -149.5 -212t-246.5 -75q-86 0 -159 36.5zM1441 573q-2 145 -75.5 225.5t-206.5 80.5q-88 0 -149.5 -41t-92.5 -110.5
t-34 -154.5h558zM593 154.5q73 46.5 116 125t44 169.5h-299q-95 0 -157.5 -46t-62.5 -128q0 -47 30.5 -85.5t77.5 -60t92 -21.5q86 0 159 46.5z" />
    <glyph glyph-name="uni01EB" unicode="&#x1eb;" 
d="M518 -96q-65 -55 -65 -133q0 -51 24.5 -79.5t62.5 -28.5q40 0 69.5 16t52.5 48l93 -65q-38 -54 -86.5 -83.5t-119.5 -29.5q-59 0 -106 25.5t-73.5 72t-26.5 107.5q0 83 50 139t118 89q-125 12 -222 84.5t-150 187t-53 248.5q0 142 59.5 260.5t166.5 188t245 69.5
q137 0 245.5 -69.5t169.5 -188.5t61 -260q0 -125 -47.5 -233t-133 -181.5t-197.5 -97.5q-72 -31 -137 -86zM272 306q36 -91 108.5 -146.5t177.5 -55.5q107 0 180 56.5t108.5 147t35.5 194.5q0 105 -35.5 194.5t-108 144.5t-178.5 55t-179 -55t-109 -145t-36 -194
q0 -105 36 -196z" />
    <glyph glyph-name="uni01F1" unicode="&#x1f1;" horiz-adv-x="2679" 
d="M212 1413h360q229 0 388.5 -82.5t242 -243t82.5 -391.5q0 -221 -83.5 -377.5t-244 -237.5t-387.5 -81h-358v1413zM546 145q169 0 300 61t205.5 187t74.5 314q0 276 -140 420t-418 144h-197v-1126h175zM1493 0v124l895 1152h-850v137h1043v-130l-891 -1139h891v-144h-1088
z" />
    <glyph glyph-name="uni01F2" unicode="&#x1f2;" horiz-adv-x="2336" 
d="M212 1413h360q229 0 388.5 -82.5t242 -243t82.5 -391.5q0 -221 -83.5 -377.5t-244 -237.5t-387.5 -81h-358v1413zM546 145q169 0 300 61t205.5 187t74.5 314q0 276 -140 420t-418 144h-197v-1126h175zM2258 999v-123l-600 -748h600v-128h-786v113l611 764h-582v122h757z
" />
    <glyph glyph-name="uni01F3" unicode="&#x1f3;" horiz-adv-x="2059" 
d="M958 1413v-1413h-145l-3 139q-53 -76 -129 -117.5t-184 -41.5q-124 0 -215 69.5t-138.5 188t-47.5 262.5q0 145 47.5 263.5t138 187.5t214.5 69q205 0 313 -157v550h149zM696.5 160q64.5 54 94.5 143t30 197q0 107 -30 196t-94.5 143.5t-161.5 54.5q-96 0 -160 -54.5
t-95 -144t-31 -195.5q0 -107 31 -196.5t95 -143.5t160 -54q97 0 161.5 54zM1981 999v-123l-600 -748h600v-128h-786v113l611 764h-582v122h757z" />
    <glyph glyph-name="Scommaaccent" unicode="&#x218;" horiz-adv-x="1110" 
d="M349 27q-104 43 -175.5 128t-90.5 207l148 44q10 -92 58 -155.5t122 -94.5t161 -31q131 0 208.5 64.5t77.5 188.5q0 82 -43 138.5t-106 93t-171 83.5q-119 52 -190.5 94.5t-121 113.5t-49.5 175q0 106 51.5 187.5t139 126t192.5 44.5q127 0 227 -55t165 -165l-119 -80
q-41 81 -114 122t-161 41q-60 0 -112 -25.5t-83.5 -72.5t-31.5 -109q0 -67 39 -116t97 -82.5t158 -78.5q125 -56 202 -103t131 -125.5t54 -194.5q0 -121 -57.5 -213.5t-158 -142.5t-225.5 -50q-118 0 -222 43zM324 -446l123 335h212l-228 -335h-107z" />
    <glyph glyph-name="scommaaccent" unicode="&#x219;" horiz-adv-x="868" 
d="M277.5 13.5q-76.5 33.5 -129 89.5t-76.5 124l126 65q28 -85 91 -137.5t158 -52.5q88 0 142 43t54 122q0 59 -32.5 97t-80 59t-130.5 48q-94 30 -151 57.5t-97 79.5t-40 135q0 87 43 149.5t115 95t159 32.5q112 0 196.5 -53.5t131.5 -145.5l-110 -63q-33 67 -89 104
t-134 37q-80 0 -127.5 -38t-47.5 -100q0 -48 29 -79t73 -50t121 -43q100 -31 163.5 -61t108 -89t44.5 -154q0 -98 -48 -167t-126.5 -103.5t-168.5 -34.5q-91 0 -167.5 33.5zM238 -446l123 335h212l-228 -335h-107z" />
    <glyph glyph-name="uni021A" unicode="&#x21a;" horiz-adv-x="1234" 
d="M537 0v1282h-477v131h1114v-131h-477v-1282h-160zM394 -446l123 335h212l-228 -335h-107z" />
    <glyph glyph-name="uni021B" unicode="&#x21b;" horiz-adv-x="673" 
d="M204 265v612h-160v122h161v225l148 140v-365h253v-122h-253v-613q0 -79 35 -120t92 -41q48 0 100 25v-128q-19 -8 -55.5 -14t-78.5 -6q-242 0 -242 285zM219 -446l123 335h212l-228 -335h-107z" />
    <glyph glyph-name="uni0237" unicode="&#x237;" horiz-adv-x="503" 
d="M-5 -428.5q-44 9.5 -74 21.5l34 132q23 -6 55.5 -11t56.5 -5q58 0 81 36.5t23 95.5v1158h161v-1150q0 -131 -64.5 -209t-194.5 -78q-34 0 -78 9.5z" />
    <glyph glyph-name="uni0250" unicode="&#x250;" horiz-adv-x="1055" 
d="M344.5 29q-86.5 49 -131.5 139.5t-45 212.5v614h124l8 -177q68 103 153.5 150.5t205.5 47.5q87 0 159.5 -37t115 -104.5t42.5 -155.5q0 -151 -97 -224t-266 -73h-311q0 -152 60 -231t198 -79q84 0 154 41t113 103l110 -84q-71 -99 -163 -145.5t-223 -46.5
q-120 0 -206.5 49zM598 546q97 0 160.5 46t63.5 127q0 84 -57 123t-144 39q-89 0 -162 -48t-114.5 -125.5t-42.5 -161.5h296z" />
    <glyph glyph-name="uni0254" unicode="&#x254;" horiz-adv-x="970" 
d="M217 48.5q-101 68.5 -155 192.5l142 60q23 -88 90.5 -141t157.5 -53q97 0 160 57.5t91 146t28 187.5t-27.5 187.5t-90.5 145.5t-161 57q-90 0 -157.5 -53t-90.5 -141l-130 56q44 127 142 196.5t234 69.5q140 0 238 -70.5t147 -188.5t49 -259q0 -140 -48.5 -258t-146 -189
t-237.5 -71q-134 0 -235 68.5z" />
    <glyph glyph-name="uni0258" unicode="&#x258;" horiz-adv-x="1029" 
d="M280 24q-91 36 -171 119l101 84q57 -61 124 -85t159 -24q87 0 153 41t102 115.5t37 174.5h-696q-3 30 -3 34q0 235 97 382t324 147q142 0 240 -71t147 -188.5t49 -258.5q0 -140 -51.5 -255t-153.5 -183t-249 -68q-118 0 -209 36zM785 573q-3 86 -34.5 155t-93 110
t-150.5 41q-136 0 -207 -83.5t-73 -222.5h558z" />
    <glyph glyph-name="uni0259" unicode="&#x259;" horiz-adv-x="1029" 
d="M183 135q-97 147 -97 382q0 8 1.5 17.5t1.5 15.5h696q-1 100 -37 175t-102 115.5t-153 40.5q-92 0 -159 -23.5t-124 -83.5l-101 82q80 84 171 120t209 36q147 0 249 -68t153.5 -183t51.5 -255t-49 -258t-147.5 -189t-239.5 -71q-227 0 -324 147zM657.5 161
q61.5 41 93 110t34.5 155h-558q2 -139 73 -222.5t207 -83.5q89 0 150.5 41z" />
    <glyph glyph-name="uni0261" unicode="&#x261;" horiz-adv-x="1117" 
d="M898 -230.5q-49 -97.5 -143.5 -150t-228.5 -52.5q-130 0 -231 50t-163 147l116 86q47 -77 118 -115.5t159 -38.5q132 0 202.5 82.5t70.5 221.5v140q-48 -69 -126.5 -104.5t-173.5 -35.5q-133 0 -225.5 66.5t-139.5 181.5t-47 260t47 261.5t138.5 183.5t219.5 67
q99 0 178 -41t129 -116v136h151l-2 -999q0 -133 -49 -230.5zM687 183q64 51 94 136.5t30 190.5t-30 190t-94 136t-161 51t-161.5 -51t-95.5 -136t-31 -190t31 -190.5t95.5 -136.5t161.5 -51t161 51z" />
    <glyph glyph-name="circumflex" unicode="&#x2c6;" horiz-adv-x="750" 
d="M43 1098l329 355l329 -355h-161l-168 186l-167 -186h-162z" />
    <glyph glyph-name="caron" unicode="&#x2c7;" horiz-adv-x="751" 
d="M376 1081l-329 332h162l167 -181l168 181h161z" />
    <glyph glyph-name="uni02D0" unicode="&#x2d0;" horiz-adv-x="532" 
d="M285 637l-230 362l402 38zM75 -38l171 400l231 -362z" />
    <glyph glyph-name="uni02D1" unicode="&#x2d1;" horiz-adv-x="553" 
d="M297 265l-231 363l403 38z" />
    <glyph glyph-name="breve" unicode="&#x2d8;" horiz-adv-x="831" 
d="M252.5 1174.5q-69.5 31.5 -108.5 92.5t-39 146h136q0 -46 23 -81.5t62 -55t86 -19.5t86 19.5t61.5 55t22.5 81.5h136q0 -86 -39 -147t-108 -92t-159 -31t-159.5 31.5z" />
    <glyph glyph-name="dotaccent" unicode="&#x2d9;" horiz-adv-x="501" 
d="M166 1221v192h173v-192h-173z" />
    <glyph glyph-name="ring" unicode="&#x2da;" horiz-adv-x="634" 
d="M210.5 1106.5q-46.5 27.5 -73 74t-26.5 101.5q0 56 27 102.5t73.5 74t102.5 27.5q54 0 101 -27t75 -74t28 -103q0 -55 -27.5 -101.5t-74 -74t-102.5 -27.5q-57 0 -103.5 27.5zM385 1211q29 29 29 72q0 42 -28 70t-72 28t-71 -27t-27 -71t28 -72.5t70 -28.5t71 29z" />
    <glyph glyph-name="ogonek" unicode="&#x2db;" horiz-adv-x="591" 
d="M207 -425.5q-47 25.5 -73.5 72t-26.5 107.5q0 69 37 121t85.5 82t90.5 43h124q-24 -8 -75.5 -34.5t-101.5 -77t-50 -117.5q0 -51 24.5 -79.5t62.5 -28.5q40 0 69.5 16t52.5 48l93 -65q-38 -54 -86.5 -83.5t-119.5 -29.5q-59 0 -106 25.5z" />
    <glyph glyph-name="tilde" unicode="&#x2dc;" horiz-adv-x="859" 
d="M503.5 1173.5q-35.5 24.5 -75.5 69.5q-31 33 -50.5 48t-42.5 15q-36 0 -52.5 -38t-16.5 -99h-100q0 114 44 182t125 68q39 0 69.5 -14t51.5 -33t48 -50q28 -32 46.5 -47t41.5 -15q71 0 71 153h106q0 -128 -46.5 -196t-132.5 -68q-51 0 -86.5 24.5z" />
    <glyph glyph-name="hungarumlaut" unicode="&#x2dd;" horiz-adv-x="865" 
d="M68 1119l217 294h188l-271 -294h-134zM398 1119l217 294h193l-276 -294h-134z" />
    <glyph glyph-name="uni02F5" unicode="&#x2f5;" horiz-adv-x="1285" 
d="M464 717l-243 282h198l212 -282h-167zM892 717l-244 282h198l212 -282h-166z" />
    <glyph glyph-name="uni02F6" unicode="&#x2f6;" horiz-adv-x="1285" 
d="M226 717l214 282h196l-243 -282h-167zM654 717l214 282h196l-244 -282h-166z" />
    <glyph glyph-name="gravecomb" unicode="&#x300;" horiz-adv-x="0" 
d="M-219 1122l-258 291h192l218 -291h-152z" />
    <glyph glyph-name="acutecomb" unicode="&#x301;" horiz-adv-x="0" 
d="M-466 1124l217 289h193l-277 -289h-133z" />
    <glyph glyph-name="uni0302" unicode="&#x302;" horiz-adv-x="0" 
d="M-704 1098l329 355l329 -355h-161l-168 186l-167 -186h-162z" />
    <glyph glyph-name="tildecomb" unicode="&#x303;" horiz-adv-x="0" 
d="M-393.5 1173.5q-35.5 24.5 -75.5 69.5q-31 33 -50.5 48t-42.5 15q-36 0 -52.5 -38t-16.5 -99h-100q0 114 44 182t125 68q39 0 69.5 -14t51.5 -33t48 -50q28 -32 46.5 -47t41.5 -15q71 0 71 153h106q0 -128 -46.5 -196t-132.5 -68q-51 0 -86.5 24.5z" />
    <glyph glyph-name="uni0304" unicode="&#x304;" horiz-adv-x="0" 
d="M-701 1183v125h541v-125h-541z" />
    <glyph glyph-name="uni0306" unicode="&#x306;" horiz-adv-x="0" 
d="M-575.5 1174.5q-69.5 31.5 -108.5 92.5t-39 146h136q0 -46 23 -81.5t62 -55t86 -19.5t86 19.5t61.5 55t22.5 81.5h136q0 -86 -39 -147t-108 -92t-159 -31t-159.5 31.5z" />
    <glyph glyph-name="uni0307" unicode="&#x307;" horiz-adv-x="0" 
d="M-337 1221v192h173v-192h-173z" />
    <glyph glyph-name="uni0308" unicode="&#x308;" horiz-adv-x="0" 
d="M-670 1221v192h169v-192h-169zM-333 1221v192h168v-192h-168z" />
    <glyph glyph-name="uni030A" unicode="&#x30a;" horiz-adv-x="0" 
d="M-420.5 1106.5q-46.5 27.5 -73 74t-26.5 101.5q0 56 27 102.5t73.5 74t102.5 27.5q54 0 101 -27t75 -74t28 -103q0 -55 -27.5 -101.5t-74 -74t-102.5 -27.5q-57 0 -103.5 27.5zM-246 1211q29 29 29 72q0 42 -28 70t-72 28t-71 -27t-27 -71t28 -72.5t70 -28.5t71 29z" />
    <glyph glyph-name="uni030B" unicode="&#x30b;" horiz-adv-x="0" 
d="M-797 1119l217 294h188l-271 -294h-134zM-467 1119l217 294h193l-276 -294h-134z" />
    <glyph glyph-name="uni030C" unicode="&#x30c;" horiz-adv-x="0" 
d="M-375 1081l-329 332h162l167 -181l168 181h161z" />
    <glyph glyph-name="uni030F" unicode="&#x30f;" horiz-adv-x="0" 
d="M-570 1119l-258 294h211l217 -294h-170zM-239 1119l-256 294h211l217 -294h-172z" />
    <glyph glyph-name="uni0312" unicode="&#x312;" horiz-adv-x="0" 
d="M-108 1423l-123 -300h-212l228 300h107z" />
    <glyph glyph-name="uni031B" unicode="&#x31b;" horiz-adv-x="0" 
d="M-400 999l124 414h211l-228 -414h-107z" />
    <glyph glyph-name="uni0326" unicode="&#x326;" horiz-adv-x="0" 
d="M-399 -446l123 335h212l-228 -335h-107z" />
    <glyph glyph-name="uni0327" unicode="&#x327;" horiz-adv-x="0" 
d="M-423.5 -468.5q-49.5 35.5 -70.5 88.5l99 51q6 -29 30.5 -50.5t58.5 -21.5q44 0 71 28t27 68q0 32 -20.5 61t-62.5 46.5t-103 17.5h-42l99 180h119l-68 -117q90 -4 138 -55t48 -125q0 -53 -26 -100.5t-74 -77t-112 -29.5q-62 0 -111.5 35.5z" />
    <glyph glyph-name="uni0328" unicode="&#x328;" horiz-adv-x="0" 
d="M-384 -425.5q-47 25.5 -73.5 72t-26.5 107.5q0 69 37 121t85.5 82t90.5 43h124q-24 -8 -75.5 -34.5t-101.5 -77t-50 -117.5q0 -51 24.5 -79.5t62.5 -28.5q40 0 69.5 16t52.5 48l93 -65q-38 -54 -86.5 -83.5t-119.5 -29.5q-59 0 -106 25.5z" />
    <glyph glyph-name="pi" unicode="&#x3c0;" horiz-adv-x="989" 
d="M719 12q-47 32 -73 85t-26 113v639h-282v-849h-150v849h-82v150h746v-150h-82v-633q0 -53 20 -81.5t53 -28.5q27 0 54 17l40 -112q-52 -31 -110 -31q-61 0 -108 32z" />
    <glyph glyph-name="uni0400" unicode="&#x400;" horiz-adv-x="1239" 
d="M212 0v1413h915v-137h-756v-502h657v-133h-657v-496h756v-145h-915zM594 1536l-258 291h192l218 -291h-152z" />
    <glyph glyph-name="uni0401" unicode="&#x401;" horiz-adv-x="1239" 
d="M212 0v1413h915v-137h-756v-502h657v-133h-657v-496h756v-145h-915zM411 1635v192h169v-192h-169zM748 1635v192h168v-192h-168z" />
    <glyph glyph-name="uni0402" unicode="&#x402;" horiz-adv-x="1631" 
d="M956.5 15.5q-82.5 32.5 -137.5 94.5l103 105q73 -88 213 -88q64 0 117 41.5t83.5 116t30.5 170.5q0 136 -31 222t-104.5 130t-200.5 44q-103 0 -192.5 -41t-140.5 -106v-704h-159v1284h-478v129h1114v-129h-477v-408q67 60 153 92.5t180 32.5q253 0 374 -137.5
t121 -405.5q0 -132 -49 -240.5t-137 -171.5t-199 -63q-101 0 -183.5 32.5z" />
    <glyph glyph-name="uni0403" unicode="&#x403;" horiz-adv-x="1068" 
d="M459 1538l214 288h172l-268 -288h-118zM212 0v1413h796v-135h-639v-1278h-157z" />
    <glyph glyph-name="uni0404" unicode="&#x404;" horiz-adv-x="1420" 
d="M408 77q-143 97 -213 261.5t-70 368.5t70 369.5t212 262.5t350 97q198 0 346 -96t229 -280l-146 -60q-43 149 -157.5 219t-273.5 70q-150 0 -253 -69t-156.5 -185.5t-62.5 -263.5h631v-117h-631q9 -152 63 -271t157.5 -188t255.5 -69q154 0 262.5 70t165.5 222l147 -60
q-79 -185 -227.5 -281.5t-347.5 -96.5q-208 0 -351 97z" />
    <glyph glyph-name="uni0405" unicode="&#x405;" horiz-adv-x="1110" 
d="M349 27q-104 43 -175.5 128t-90.5 207l148 44q10 -92 58 -155.5t122 -94.5t161 -31q131 0 208.5 64.5t77.5 188.5q0 82 -43 138.5t-106 93t-171 83.5q-119 52 -190.5 94.5t-121 113.5t-49.5 175q0 106 51.5 187.5t139 126t192.5 44.5q127 0 227 -55t165 -165l-119 -80
q-41 81 -114 122t-161 41q-60 0 -112 -25.5t-83.5 -72.5t-31.5 -109q0 -67 39 -116t97 -82.5t158 -78.5q125 -56 202 -103t131 -125.5t54 -194.5q0 -121 -57.5 -213.5t-158 -142.5t-225.5 -50q-118 0 -222 43z" />
    <glyph glyph-name="uni0406" unicode="&#x406;" horiz-adv-x="582" 
d="M212 0v1413h159v-1413h-159z" />
    <glyph glyph-name="uni0407" unicode="&#x407;" horiz-adv-x="581" 
d="M45 1598v167h156v-167h-156zM376 1598v167h156v-167h-156zM212 0v1413h157v-1413h-157z" />
    <glyph glyph-name="uni0408" unicode="&#x408;" 
d="M280 35.5q-94 55.5 -147 150t-61 210.5l155 22q5 -80 36 -147.5t90.5 -109t146.5 -41.5q107 0 167 46.5t82.5 126.5t22.5 193v792h-532v135h691v-916q0 -245 -102.5 -381t-328.5 -136q-126 0 -220 55.5z" />
    <glyph glyph-name="uni0409" unicode="&#x409;" horiz-adv-x="2019" 
d="M136 -9q-46 11 -81 32l63 145q36 -13 58.5 -18.5t47.5 -5.5q64 0 102.5 117.5t53.5 285t15 334.5v532h845v-637h239q137 0 238.5 -45t157 -131.5t55.5 -208.5q0 -121 -55.5 -209.5t-157.5 -135t-238 -46.5h-396v1278h-531v-396q0 -229 -17.5 -415.5t-90 -336.5
t-220.5 -150q-42 0 -88 11zM1479 141q142 0 219.5 65.5t77.5 184.5t-77 181.5t-220 62.5h-239v-494h239z" />
    <glyph glyph-name="uni040A" unicode="&#x40a;" horiz-adv-x="2022" 
d="M212 1413h157v-639h715v639h159v-637h239q137 0 238.5 -45t157 -131.5t55.5 -208.5q0 -121 -55.5 -209.5t-157.5 -135t-238 -46.5h-398v639h-715v-639h-157v1413zM1482 141q140 0 218 66t78 184q0 119 -77 181.5t-219 62.5h-239v-494h239z" />
    <glyph glyph-name="uni040B" unicode="&#x40b;" horiz-adv-x="1652" 
d="M538 1284h-478v129h1114v-129h-477v-408q122 125 333 125q252 0 373.5 -163.5t121.5 -441.5v-396h-159v401q0 214 -76 332t-260 118q-103 0 -192.5 -41t-140.5 -106v-704h-159v1284z" />
    <glyph glyph-name="uni040C" unicode="&#x40c;" horiz-adv-x="1266" 
d="M493 1538l214 288h172l-268 -288h-118zM212 1413h157v-574h168l381 574h201l-411 -597q59 0 110.5 -29t86.5 -69.5t48 -74.5l242 -643h-189l-202 563q-9 28 -36 61t-67 57t-87 24h-245v-705h-157v1413z" />
    <glyph glyph-name="uni040D" unicode="&#x40d;" horiz-adv-x="1453" 
d="M710 1540l-241 286h171l212 -286h-142zM212 1413h157v-1077q0 -49 -10 -147l3 1l681 1223h198v-1413h-157v1081q0 76 10 142l-3 -1l-681 -1222h-198v1413z" />
    <glyph glyph-name="uni040E" unicode="&#x40e;" horiz-adv-x="1115" 
d="M405 1587.5q-69 31.5 -109 92.5t-40 146h123q0 -47 24.5 -84.5t65.5 -58.5t90 -21q48 0 89 21t65.5 58.5t24.5 84.5h123q0 -84 -39.5 -145t-108.5 -93t-154 -32t-154 31.5zM262 0l197 457l-396 956h173l306 -789l333 789h177l-621 -1413h-169z" />
    <glyph glyph-name="uni040F" unicode="&#x40f;" horiz-adv-x="1453" 
d="M648 -307v307h-436v1413h157v-1276h715v1276h157v-1413h-436v-307h-157z" />
    <glyph glyph-name="uni0410" unicode="&#x410;" horiz-adv-x="1304" 
d="M63 0l529 1413h122l527 -1413h-169l-111 307h-616l-110 -307h-172zM395 452h516l-257 729z" />
    <glyph glyph-name="uni0411" unicode="&#x411;" horiz-adv-x="1244" 
d="M212 1413h746v-143h-589v-477h332q131 0 226.5 -46t147.5 -137t52 -222q0 -119 -57 -206.5t-159.5 -134.5t-234.5 -47h-464v1413zM680 147q76 0 142 31.5t105.5 89.5t39.5 133q0 77 -39 133t-104 85t-141 29h-314v-501h311z" />
    <glyph glyph-name="uni0412" unicode="&#x412;" horiz-adv-x="1243" 
d="M212 1413h391q121 0 223.5 -35.5t166 -114t63.5 -200.5q0 -209 -183 -315q119 -53 185.5 -142.5t66.5 -228.5q0 -134 -63 -218t-164.5 -121.5t-221.5 -37.5h-464v1413zM603 791q128 0 208 62.5t80 188.5q0 127 -77.5 178t-208.5 51h-238v-480h236zM680 147q129 0 209 54
t80 185q0 141 -80 202t-206 61h-316v-502h313z" />
    <glyph glyph-name="uni0413" unicode="&#x413;" horiz-adv-x="1068" 
d="M212 0v1413h796v-135h-639v-1278h-157z" />
    <glyph glyph-name="uni0414" unicode="&#x414;" horiz-adv-x="1462" 
d="M60 -253v383h123l479 1283h137l479 -1283h124v-383h-157v253h-1028v-253h-157zM346 130h770l-384 1073z" />
    <glyph glyph-name="uni0415" unicode="&#x415;" horiz-adv-x="1239" 
d="M212 0v1413h915v-137h-756v-502h657v-133h-657v-496h756v-145h-915z" />
    <glyph glyph-name="uni0416" unicode="&#x416;" horiz-adv-x="1954" 
d="M315 643q13 34 47 74.5t85.5 69.5t111.5 29l-410 597h199l383 -574h167v574h158v-574h167l381 574h201l-410 -597q59 0 110.5 -29t86 -69.5t47.5 -74.5l243 -643h-190l-200 563q-20 56 -71 99t-121 43h-244v-705h-158v705h-245q-71 0 -120 -40.5t-70 -101.5l-202 -563
h-189z" />
    <glyph glyph-name="uni0417" unicode="&#x417;" horiz-adv-x="1112" 
d="M254 38q-116 58 -170 171l131 86q34 -89 117 -136t187 -47q85 0 158 33t117.5 99t44.5 159q0 90 -43.5 152.5t-116 93.5t-160.5 31h-167l-1 140h174q71 0 128 27t90.5 79.5t33.5 124.5q0 77 -34 132.5t-91.5 84.5t-128.5 29q-64 0 -121.5 -26.5t-93.5 -77t-36 -119.5
h-154q1 111 55.5 192.5t146 124.5t201.5 43t201.5 -43.5t145.5 -126t54 -194.5q0 -100 -46 -180.5t-133 -127.5q118 -47 184.5 -143.5t66.5 -228.5q0 -134 -63.5 -226.5t-171.5 -138t-240 -45.5q-149 0 -265 58z" />
    <glyph glyph-name="uni0418" unicode="&#x418;" horiz-adv-x="1418" 
d="M1206 0h-158v1247l-604 -1247h-232v1413h157v-1245l608 1245h229v-1413z" />
    <glyph glyph-name="uni0419" unicode="&#x419;" horiz-adv-x="1453" 
d="M601 1587.5q-69 31.5 -109 92.5t-40 146h123q0 -47 24.5 -84.5t65.5 -58.5t89 -21q49 0 90 21t65.5 58.5t24.5 84.5h124q0 -84 -40 -145t-109 -93t-155 -32q-84 0 -153 31.5zM212 1413h157v-1077q0 -49 -10 -147l3 1l681 1223h198v-1413h-157v1081q0 76 10 142l-3 -1
l-681 -1222h-198v1413z" />
    <glyph glyph-name="uni041A" unicode="&#x41a;" horiz-adv-x="1266" 
d="M212 1413h157v-574h168l381 574h201l-411 -597q59 0 110.5 -29t86.5 -69.5t48 -74.5l242 -643h-189l-202 563q-9 28 -36 61t-67 57t-87 24h-245v-705h-157v1413z" />
    <glyph glyph-name="uni041B" unicode="&#x41b;" horiz-adv-x="1325" 
d="M63 0l531 1413h136l532 -1413h-164l-435 1203l-433 -1203h-167z" />
    <glyph glyph-name="uni041C" unicode="&#x41c;" horiz-adv-x="1762" 
d="M212 0v1413h258l408 -1135l414 1135h258v-1413h-157v1276l-425 -1153h-174l-424 1153v-1276h-158z" />
    <glyph glyph-name="uni041D" unicode="&#x41d;" horiz-adv-x="1455" 
d="M212 0v1413h159v-639h713v639h159v-1413h-159v641h-713v-641h-159z" />
    <glyph glyph-name="uni041E" unicode="&#x41e;" horiz-adv-x="1515" 
d="M406.5 77.5q-142.5 97.5 -213 262.5t-70.5 367t70.5 367t213 262.5t349.5 97.5q208 0 351 -97.5t214 -262.5t71 -367t-71 -367t-214 -262.5t-351 -97.5q-207 0 -349.5 97.5zM1028.5 205.5q108.5 79.5 159 211t50.5 290.5t-50.5 290t-159 210.5t-272.5 79.5
q-162 0 -269.5 -79.5t-158 -210.5t-50.5 -290t50.5 -290.5t158 -211t269.5 -79.5q164 0 272.5 79.5z" />
    <glyph glyph-name="uni041F" unicode="&#x41f;" horiz-adv-x="1453" 
d="M212 0v1413h1029v-1413h-157v1278h-715v-1278h-157z" />
    <glyph glyph-name="uni0420" unicode="&#x420;" horiz-adv-x="1148" 
d="M212 1413h396q137 0 239 -46.5t157.5 -134.5t55.5 -209q0 -123 -55.5 -209.5t-157.5 -131.5t-239 -45h-238v-637h-158v1413zM608 779q143 0 220 62t77 182q0 118 -78 184t-219 66h-238v-494h238z" />
    <glyph glyph-name="uni0421" unicode="&#x421;" horiz-adv-x="1420" 
d="M408 77q-143 97 -213 261.5t-70 368.5t70 369.5t212 262.5t350 97q198 0 346 -96t229 -280l-146 -60q-43 149 -157.5 219t-273.5 70q-160 0 -266.5 -77.5t-157 -206.5t-50.5 -288q0 -166 50.5 -299.5t157.5 -212.5t270 -79q154 0 262.5 70t165.5 222l147 -60
q-79 -185 -227.5 -281.5t-347.5 -96.5q-208 0 -351 97z" />
    <glyph glyph-name="uni0422" unicode="&#x422;" horiz-adv-x="1234" 
d="M538 0v1284h-478v129h1114v-129h-478v-1284h-158z" />
    <glyph glyph-name="uni0423" unicode="&#x423;" horiz-adv-x="1115" 
d="M262 0l197 457l-396 956h173l306 -789l333 789h177l-621 -1413h-169z" />
    <glyph glyph-name="uni0424" unicode="&#x424;" horiz-adv-x="1690" 
d="M766 116q-322 0 -482.5 148.5t-160.5 441.5q0 295 161.5 450.5t481.5 155.5v101h158v-101q321 0 482 -155.5t161 -450.5q0 -590 -643 -590v-116h-158v116zM766 1167q-248 0 -368 -116.5t-120 -344.5q0 -226 119 -335.5t369 -109.5v906zM1292.5 371q119.5 110 119.5 335
q0 461 -488 461v-906q249 0 368.5 110z" />
    <glyph glyph-name="uni0425" unicode="&#x425;" horiz-adv-x="1260" 
d="M72 0l467 707l-465 706h189l366 -587l370 587h187l-463 -706l465 -707h-187l-374 578l-366 -578h-189z" />
    <glyph glyph-name="uni0426" unicode="&#x426;" horiz-adv-x="1479" 
d="M1229 -253v253h-1017v1413h157v-1276h715v1276h157v-1276h144v-390h-156z" />
    <glyph glyph-name="uni0427" unicode="&#x427;" horiz-adv-x="1325" 
d="M955 537q-123 -126 -334 -126q-251 0 -372.5 164t-121.5 442v396h159v-402q0 -213 76 -331t259 -118q104 0 193 41t141 106v704h159v-1413h-159v537z" />
    <glyph glyph-name="uni0428" unicode="&#x428;" horiz-adv-x="1745" 
d="M212 0v1413h157v-1276h422v1276h158v-1276h427v1276h157v-1413h-1321z" />
    <glyph glyph-name="uni0429" unicode="&#x429;" horiz-adv-x="1770" 
d="M1521 -253v253h-1309v1413h157v-1276h422v1276h158v-1276h427v1276h157v-1276h143v-390h-155z" />
    <glyph glyph-name="uni042A" unicode="&#x42a;" horiz-adv-x="1369" 
d="M433 1285h-373v128h530v-637h239q137 0 238.5 -45t157 -131.5t55.5 -208.5q0 -121 -55.5 -209.5t-157.5 -135t-238 -46.5h-396v1285zM829 141q142 0 219.5 65.5t77.5 184.5t-77 181.5t-220 62.5h-239v-494h239z" />
    <glyph glyph-name="uni042B" unicode="&#x42b;" horiz-adv-x="1627" 
d="M212 1413h158v-637h238q137 0 239 -45t157.5 -131.5t55.5 -208.5q0 -121 -55.5 -209.5t-157.5 -135t-239 -46.5h-396v1413zM1258 0v1413h157v-1413h-157zM608 141q142 0 219.5 65.5t77.5 184.5t-77 181.5t-220 62.5h-238v-494h238z" />
    <glyph glyph-name="uni042C" unicode="&#x42c;" horiz-adv-x="1148" 
d="M212 1413h158v-637h238q137 0 239 -45t157.5 -131.5t55.5 -208.5q0 -121 -55.5 -209.5t-157.5 -135t-239 -46.5h-396v1413zM608 141q142 0 219.5 65.5t77.5 184.5t-77 181.5t-220 62.5h-238v-494h238z" />
    <glyph glyph-name="uni042D" unicode="&#x42d;" horiz-adv-x="1420" 
d="M314 76.5q-148 96.5 -228 281.5l147 60q58 -152 166 -222t262 -70q152 0 255.5 69t157.5 188t63 271h-631v117h629q-8 146 -61 263t-155.5 186t-253.5 69q-159 0 -273.5 -70t-157.5 -219l-146 60q81 184 229 280t346 96q208 0 350.5 -97t212.5 -262.5t70 -369.5
t-70.5 -368.5t-213.5 -261.5t-351 -97q-199 0 -347 96.5z" />
    <glyph glyph-name="uni042E" unicode="&#x42e;" horiz-adv-x="1892" 
d="M797 66.5q-138 86.5 -212 235.5t-85 337h-131v-639h-157v1413h157v-639h131q11 187 85 336.5t212 236.5t334 87q210 0 353 -97t213 -261.5t70 -368.5t-70 -368.5t-213 -261.5t-353 -97q-196 0 -334 86.5zM1401 205.5q108 79.5 159 211t51 290.5t-51 290.5t-159 210.5
t-270 79t-269 -79t-157.5 -210.5t-50.5 -290.5q0 -160 50.5 -291.5t157.5 -210.5t269 -79t270 79.5z" />
    <glyph glyph-name="uni042F" unicode="&#x42f;" horiz-adv-x="1220" 
d="M849 -2v634h-232l-353 -634h-186l383 655q-90 19 -158 69.5t-105.5 126.5t-37.5 170q0 119 58.5 208t159.5 136.5t226 47.5h404v-1413h-159zM847 1271h-245q-84 0 -148.5 -29.5t-101 -86.5t-36.5 -136q0 -110 72 -172.5t190 -68.5h269v493z" />
    <glyph glyph-name="uni0430" unicode="&#x430;" horiz-adv-x="1025" 
d="M233.5 15.5q-73.5 35.5 -115 103t-41.5 159.5q0 148 112 220.5t328 72.5h228q0 319 -245 319q-97 0 -165 -43.5t-112 -107.5l-109 85q142 196 377 196q125 0 213 -50.5t133 -142.5t45 -214v-613h-127l-3 193q-52 -108 -145 -160.5t-206 -52.5q-94 0 -167.5 35.5z
M590 158.5q75 52.5 115 134.5t40 165h-214q-152 0 -226 -43t-74 -141q0 -85 51.5 -126.5t135.5 -41.5q97 0 172 52.5z" />
    <glyph glyph-name="uni0431" unicode="&#x431;" horiz-adv-x="1126" 
d="M842.5 894.5q96.5 -64.5 147 -175.5t50.5 -246q0 -136 -59 -248.5t-164 -178.5t-238 -66t-235 65t-158 177.5t-56 252.5v335q0 175 63 279t156 157q103 59 220 103.5t248 84.5v-145l-25 -9q-164 -58 -243 -89.5t-130 -64.5q-55 -35 -88 -76.5t-48.5 -101t-15.5 -146.5
v-21q53 76 144.5 127t202.5 51q132 0 228.5 -64.5zM747.5 153.5q66.5 49.5 97.5 132t31 184.5q0 100 -30.5 182t-97 131.5t-169.5 49.5q-101 0 -167.5 -50.5t-97.5 -132.5t-31 -180q0 -102 30.5 -184.5t97 -132t168.5 -49.5t168.5 49.5z" />
    <glyph glyph-name="uni0432" unicode="&#x432;" horiz-adv-x="1146" 
d="M340 29.5q-99 49.5 -149.5 159t-50.5 288.5v503q0 217 108.5 335.5t323.5 118.5q184 0 294 -88t110 -261q0 -45 -22 -100.5t-67.5 -103.5t-109.5 -70q78 -10 135.5 -64.5t87 -135t29.5 -167.5q0 -143 -54.5 -248t-154 -160.5t-229.5 -55.5q-152 0 -251 49.5zM800.5 197.5
q66.5 85.5 66.5 246.5q0 99 -36.5 165t-97 97.5t-134.5 31.5q-60 0 -109 -11t-91 -45v130q45 27 113.5 39t130.5 14q57 1 95.5 35t57 83.5t18.5 98.5q0 109 -60.5 162t-181.5 53q-105 0 -166.5 -34t-88 -102t-26.5 -174v-509q0 -144 30 -223t92 -111t167 -32
q154 0 220.5 85.5z" />
    <glyph glyph-name="uni0433" unicode="&#x433;" horiz-adv-x="868" 
d="M249.5 10q-78.5 30 -125.5 91.5t-47 152.5q0 98 44.5 159t106.5 93t163 67q76 26 119.5 46t72.5 52.5t29 81.5q0 126 -163 126q-78 0 -130.5 -33t-84.5 -95l-117 67q48 87 132 141.5t200 54.5q83 0 154.5 -31.5t114.5 -91.5t43 -141q0 -95 -43 -154t-103.5 -89
t-158.5 -63q-79 -26 -124 -47t-75.5 -56t-30.5 -89q0 -79 53.5 -109.5t141.5 -30.5q56 0 106.5 24.5t87 66t53.5 91.5l124 -68q-21 -67 -73.5 -123.5t-129 -89.5t-166.5 -33q-95 0 -173.5 30z" />
    <glyph glyph-name="uni0434" unicode="&#x434;" horiz-adv-x="1117" 
d="M898 -230.5q-49 -97.5 -143.5 -150t-228.5 -52.5q-130 0 -231 50t-163 147l116 86q47 -77 118 -115.5t159 -38.5q132 0 202.5 82.5t70.5 221.5v140q-48 -69 -126.5 -104.5t-173.5 -35.5q-133 0 -225.5 66.5t-139.5 181.5t-47 260t47 261.5t138.5 183.5t219.5 67
q99 0 178 -41t129 -116v136h151l-2 -999q0 -133 -49 -230.5zM687 183q64 51 94 136.5t30 190.5t-30 190t-94 136t-161 51t-161.5 -51t-95.5 -136t-31 -190t31 -190.5t95.5 -136.5t161.5 -51t161 51z" />
    <glyph glyph-name="uni0435" unicode="&#x435;" horiz-adv-x="1038" 
d="M293.5 54.5q-101.5 68.5 -152 184t-50.5 255.5q0 138 49.5 256.5t147.5 190.5t237 72q153 0 247.5 -70.5t135.5 -180.5t41 -236q0 -32 -5 -77h-696q-1 -91 32.5 -166.5t99.5 -120.5t160 -45q91 0 158 23.5t123 83.5l102 -82q-81 -82 -171.5 -119t-210.5 -37
q-146 0 -247.5 68.5zM806 571q-3 136 -71 227.5t-210 91.5q-88 0 -149 -43t-92.5 -115t-35.5 -161h558z" />
    <glyph glyph-name="uni0436" unicode="&#x436;" horiz-adv-x="1432" 
d="M209 435q25 64 65.5 112.5t89.5 48.5l-255 403h183l220 -371h129v785h151v-785h128l222 371h182l-255 -403q50 0 89.5 -48.5t63.5 -112.5l163 -435h-172l-123 359q-25 75 -62.5 109t-99.5 34h-136v-502h-151v502h-138q-61 0 -98 -34t-62 -109l-123 -359h-174z" />
    <glyph glyph-name="uni0437" unicode="&#x437;" horiz-adv-x="924" 
d="M243.5 -435q-68.5 22 -122.5 61.5t-110 102.5l113 89q87 -143 266 -143q144 0 217 94.5t73 252.5q0 98 -35 164.5t-94.5 98t-131.5 31.5h-202v132h246q50 10 88.5 43t59.5 78.5t21 90.5q0 121 -60.5 174.5t-184.5 53.5q-81 0 -144.5 -42.5t-102.5 -114.5l-117 63
q53 104 145.5 161t218.5 57q183 0 289 -87t106 -262q0 -46 -19.5 -101t-62.5 -102.5t-110 -69.5q80 -10 135.5 -64.5t83.5 -135t28 -168.5q0 -144 -54.5 -252.5t-152.5 -167.5t-227 -59q-91 0 -159.5 22z" />
    <glyph glyph-name="uni0438" unicode="&#x438;" horiz-adv-x="1117" 
d="M227 98.5q-84 120.5 -84 320.5v580h149v-590q0 -130 47 -217.5t163 -87.5q79 0 147.5 45t109.5 123t41 174v553h148v-999h-148v169q-21 -46 -66 -90t-109.5 -72.5t-138.5 -28.5q-175 0 -259 120.5z" />
    <glyph glyph-name="uni0439" unicode="&#x439;" horiz-adv-x="1142" 
d="M405 1174.5q-69 31.5 -109 92.5t-40 146h123q0 -47 24.5 -84.5t65.5 -59t90 -21.5q48 0 89 21t65.5 59t24.5 85h123q0 -84 -39.5 -145t-108.5 -93t-154 -32t-154 31.5zM316 34.5q-77 57.5 -112.5 154t-35.5 216.5v594h150v-596q0 -126 46.5 -211.5t160.5 -85.5
q80 0 149.5 45.5t110.5 120t41 155.5v572h148v-999h-148v168q-22 -44 -67.5 -88t-109.5 -73.5t-136 -29.5q-120 0 -197 57.5z" />
    <glyph glyph-name="uni043A" unicode="&#x43a;" horiz-adv-x="963" 
d="M168 1413h151v-785h127l222 371h183l-255 -403q49 0 89 -48t66 -113l163 -435h-174l-123 359q-25 75 -62.5 109t-99.5 34h-136v-502h-151v1413z" />
    <glyph glyph-name="uni043B" unicode="&#x43b;" horiz-adv-x="945" 
d="M34 0l372 999h133l372 -999h-163l-276 805l-277 -805h-161z" />
    <glyph glyph-name="uni043C" unicode="&#x43c;" horiz-adv-x="1393" 
d="M168 0v999h209l321 -815l318 814h209v-998h-148v809l-322 -809h-116l-323 807v-807h-148z" />
    <glyph glyph-name="uni043D" unicode="&#x43d;" horiz-adv-x="1142" 
d="M168 0v999h151v-390h506v390h149v-999h-149v491h-506v-491h-151z" />
    <glyph glyph-name="uni043E" unicode="&#x43e;" 
d="M312.5 50.5q-107.5 70.5 -167 190t-59.5 261.5t59.5 260.5t166.5 188t245 69.5q137 0 245.5 -69.5t169.5 -188.5t61 -260q0 -142 -61 -261.5t-169.5 -190t-245.5 -70.5t-244.5 70.5zM738 160.5q73 56.5 108.5 147t35.5 194.5q0 105 -35.5 194.5t-108 144.5t-178.5 55
t-179 -55t-109 -145t-36 -194q0 -105 36 -196t108.5 -146.5t177.5 -55.5q107 0 180 56.5z" />
    <glyph glyph-name="uni043F" unicode="&#x43f;" horiz-adv-x="1120" 
d="M168 999h150v-159q48 80 132.5 128t179.5 48q120 0 197 -55t112.5 -146.5t35.5 -204.5v-610h-149v591q0 122 -48 202.5t-163 80.5q-80 0 -148 -42.5t-108.5 -113.5t-40.5 -152v-566h-150v999z" />
    <glyph glyph-name="uni0440" unicode="&#x440;" horiz-adv-x="1118" 
d="M168 999h150v-138q50 75 127.5 117t183.5 42q125 0 216.5 -68.5t139 -187t47.5 -264.5q0 -147 -47.5 -265t-139 -186.5t-216.5 -68.5q-204 0 -311 158v-576h-150v1437zM752 163.5q65 52.5 96 140.5t31 194q0 107 -31 195.5t-96 141.5t-161 53q-97 0 -160.5 -53
t-93.5 -141t-30 -196q0 -107 30 -194.5t93.5 -140t160.5 -52.5q96 0 161 52.5z" />
    <glyph glyph-name="uni0441" unicode="&#x441;" horiz-adv-x="974" 
d="M289.5 51q-98.5 71 -148 189.5t-49.5 257.5q0 138 49.5 257.5t147 192t235.5 72.5q134 0 235 -70.5t154 -195.5l-141 -60q-22 91 -90 145.5t-158 54.5q-97 0 -160 -58.5t-91 -149t-28 -188.5q0 -100 27.5 -189t90.5 -146t161 -57q91 0 158 53t90 142l130 -56
q-45 -125 -143 -195t-233 -70q-138 0 -236.5 71z" />
    <glyph glyph-name="uni0442" unicode="&#x442;" horiz-adv-x="1699" 
d="M168 999h151v-171q33 86 106 138t165 52q108 0 188.5 -52t119.5 -151q46 99 124.5 150t183.5 51q120 0 198 -55t114 -146.5t36 -204.5v-610h-151v591q0 125 -48.5 212t-164.5 87q-78 0 -135.5 -45t-88 -118.5t-30.5 -157.5v-569h-152v595q0 125 -47.5 210t-162.5 85
q-79 0 -136.5 -45t-88 -118.5t-30.5 -157.5v-569h-151v999z" />
    <glyph glyph-name="uni0443" unicode="&#x443;" horiz-adv-x="975" 
d="M251 -430l167 437l-383 992h165l289 -817l286 817h165l-535 -1429h-154z" />
    <glyph glyph-name="uni0444" unicode="&#x444;" horiz-adv-x="1397" 
d="M623 -15q-32 -5 -64 -5q-137 0 -245 69t-168 187t-60 260q0 141 60 259.5t168 187.5t245 69q45 -2 64 -6v407h151v-407q28 6 63 6q137 0 245.5 -69t169 -187.5t60.5 -259.5q0 -142 -60.5 -260t-169 -187t-245.5 -69q-31 0 -63 5v-415h-151v415zM623 116v758q-32 5 -64 5
q-106 0 -174.5 -52t-100 -138.5t-31.5 -192.5q0 -107 31.5 -193.5t100 -138.5t174.5 -52q45 0 64 4zM1012 164q69 52 100.5 138.5t31.5 193.5q0 106 -31.5 192.5t-100.5 138.5t-175 52q-31 0 -63 -5v-758q19 -4 63 -4q106 0 175 52z" />
    <glyph glyph-name="uni0445" unicode="&#x445;" horiz-adv-x="922" 
d="M46 0l336 504l-336 495h183l233 -372l234 372h180l-333 -495l333 -504h-180l-234 378l-233 -378h-183z" />
    <glyph glyph-name="uni0446" unicode="&#x446;" horiz-adv-x="1147" 
d="M949 -23q-37 0 -70.5 24.5t-54.5 68t-22 98.5q-22 -44 -67.5 -88.5t-109.5 -73.5t-136 -29q-120 0 -197.5 57.5t-113 154t-35.5 216.5v594h151v-596q0 -126 46.5 -211.5t160.5 -85.5q80 0 149.5 45.5t110.5 120t41 155.5v572h151v-786q0 -74 41.5 -112.5t103.5 -38.5
l-34 -369h-115v284z" />
    <glyph glyph-name="uni0447" unicode="&#x447;" horiz-adv-x="1077" 
d="M757 433q-22 -44 -67.5 -88t-109.5 -73t-136 -29q-120 0 -197.5 57.5t-113 154t-35.5 216.5v328h151v-331q0 -126 46.5 -211t160.5 -85q80 0 149.5 45.5t110.5 119.5t41 156v306h151v-999h-151v433z" />
    <glyph glyph-name="uni0448" unicode="&#x448;" horiz-adv-x="1722" 
d="M943.5 33.5q-80.5 51.5 -118.5 150.5q-48 -99 -126 -149.5t-183 -50.5q-121 0 -198.5 54.5t-113.5 146.5t-36 206v608h151v-590q0 -125 48 -212.5t163 -87.5q79 0 137.5 45t89 119t30.5 158v568h151v-594q0 -126 47 -211t162 -85q79 0 137 45t88.5 119t30.5 158v568h151
v-999h-151v172q-34 -85 -106.5 -137.5t-163.5 -52.5q-109 0 -189.5 51.5z" />
    <glyph glyph-name="uni0449" unicode="&#x449;" horiz-adv-x="1724" 
d="M1525 -23q-36 0 -69.5 26t-54.5 71t-22 98q-35 -85 -107.5 -137.5t-163.5 -52.5q-108 0 -188.5 51.5t-119.5 150.5q-47 -99 -125 -149.5t-183 -50.5q-121 0 -198.5 54.5t-113.5 146.5t-36 206v608h151v-590q0 -125 48 -212.5t163 -87.5q79 0 137.5 45t89 119t30.5 158
v568h151v-594q0 -126 47 -211t162 -85q79 0 137 45t88.5 119t30.5 158v568h151v-786q0 -74 41.5 -112.5t103.5 -38.5l-35 -369h-115v284z" />
    <glyph glyph-name="uni044A" unicode="&#x44a;" horiz-adv-x="1160" 
d="M428 24.5q-91 44.5 -145 133.5t-54 218v500h-200v123h349v-330q24 36 69 68t104 52t124 20q116 0 206 -46t141.5 -139t51.5 -229t-58 -229.5t-158 -139.5t-226 -46q-113 0 -204 44.5zM788 148.5q58 36.5 88.5 100.5t30.5 146q0 79 -32.5 143.5t-92.5 101.5t-140 37
q-75 0 -135.5 -32t-94.5 -88.5t-34 -127.5v-67q0 -71 33 -128t94.5 -89.5t144.5 -32.5q80 0 138 36.5z" />
    <glyph glyph-name="uni044B" unicode="&#x44b;" horiz-adv-x="1415" 
d="M388.5 24.5q-93.5 44.5 -149 134t-55.5 217.5v623h148v-330q39 60 107 100t161 40q117 0 214.5 -46.5t156 -140t58.5 -227.5q0 -135 -59.5 -228.5t-158.5 -140t-216 -46.5q-113 0 -206.5 44.5zM1182 0v999h147v-999h-147zM735.5 148.5q60.5 36.5 93 101t32.5 145.5
q0 79 -33 143.5t-93 101.5t-140 37q-74 0 -131.5 -32t-91.5 -88.5t-40 -127.5v-67q6 -73 40 -129.5t91.5 -88.5t131.5 -32q80 0 140.5 36.5z" />
    <glyph glyph-name="uni044C" unicode="&#x44c;" horiz-adv-x="1107" 
d="M370.5 24.5q-93.5 44.5 -149.5 134t-56 217.5v623h149v-330q40 60 107 100t161 40q116 0 213.5 -46.5t156 -140t58.5 -227.5q0 -135 -59.5 -228.5t-158 -140t-215.5 -46.5q-113 0 -206.5 44.5zM717.5 148.5q60.5 36.5 93 101t32.5 145.5q0 79 -33 143.5t-93 101.5
t-140 37q-74 0 -131.5 -32t-91.5 -88.5t-40 -127.5v-67q6 -73 39.5 -129.5t91 -88.5t132.5 -32q80 0 140.5 36.5z" />
    <glyph glyph-name="uni044D" unicode="&#x44d;" horiz-adv-x="968" 
d="M214 49q-98 69 -142 196l130 56q23 -87 90.5 -140.5t157.5 -53.5q127 0 195 94t82 232h-402v111h403q-6 90 -37 168t-91.5 127t-149.5 49q-90 0 -157.5 -52.5t-90.5 -141.5l-141 60q53 124 154 193t235 69q140 0 237.5 -71t146 -189t48.5 -258q0 -141 -49 -259
t-147 -188.5t-238 -70.5q-136 0 -234 69z" />
    <glyph glyph-name="uni044E" unicode="&#x44e;" horiz-adv-x="1444" 
d="M641.5 48q-107.5 68 -168 185t-61.5 258h-93v-491h-151v1413h151v-804h102q23 115 87 206.5t161.5 144t215.5 52.5q137 0 245 -69t168 -187.5t60 -259.5q0 -142 -60 -260t-168 -187t-245 -69q-136 0 -243.5 68zM1060 164q69 52 100.5 138.5t31.5 193.5q0 106 -31.5 192.5
t-100.5 138.5t-175 52t-175 -52t-100.5 -138.5t-31.5 -192.5q0 -107 31.5 -193.5t100.5 -138.5t175 -52t175 52z" />
    <glyph glyph-name="uni044F" unicode="&#x44f;" horiz-adv-x="983" 
d="M207 342q28 66 66.5 113.5t86.5 47.5q-115 21 -176.5 77.5t-61.5 173.5q0 64 32 119.5t104 90.5t187 35h370v-999h-150v457h-142q-61 0 -98.5 -34t-63.5 -109l-112 -314h-173zM665 585v294h-225q-73 0 -111.5 -36.5t-38.5 -97.5q0 -77 47 -118.5t157 -41.5h171z" />
    <glyph glyph-name="uni0450" unicode="&#x450;" horiz-adv-x="1038" 
d="M293.5 54.5q-101.5 68.5 -152 184t-50.5 255.5q0 138 49.5 256.5t147.5 190.5t237 72q153 0 247.5 -70.5t135.5 -180.5t41 -236q0 -32 -5 -77h-696q-1 -91 32.5 -166.5t99.5 -120.5t160 -45q91 0 158 23.5t123 83.5l102 -82q-81 -82 -171.5 -119t-210.5 -37
q-146 0 -247.5 68.5zM806 571q-3 136 -71 227.5t-210 91.5q-88 0 -149 -43t-92.5 -115t-35.5 -161h558zM440 1122l-258 291h192l218 -291h-152z" />
    <glyph glyph-name="uni0451" unicode="&#x451;" horiz-adv-x="1038" 
d="M293.5 54.5q-101.5 68.5 -152 184t-50.5 255.5q0 138 49.5 256.5t147.5 190.5t237 72q153 0 247.5 -70.5t135.5 -180.5t41 -236q0 -32 -5 -77h-696q-1 -91 32.5 -166.5t99.5 -120.5t160 -45q91 0 158 23.5t123 83.5l102 -82q-81 -82 -171.5 -119t-210.5 -37
q-146 0 -247.5 68.5zM806 571q-3 136 -71 227.5t-210 91.5q-88 0 -149 -43t-92.5 -115t-35.5 -161h558zM257 1221v192h169v-192h-169zM594 1221v192h168v-192h-168z" />
    <glyph glyph-name="uni0452" unicode="&#x452;" horiz-adv-x="1123" 
d="M436 -416q-77 40 -159 121l95 97q59 -63 110 -95t116 -32q95 0 145 44.5t67 120t17 190.5v560q0 124 -47 204t-164 80q-81 0 -149.5 -44t-108 -120.5t-39.5 -168.5v-541h-149v1146h-183v117h183v150h149v-150h303v-117h-303v-309q48 81 134.5 129.5t181.5 48.5
q118 0 195 -54t112.5 -144.5t35.5 -202.5v-577q0 -236 -88.5 -364.5t-277.5 -128.5q-99 0 -176 40z" />
    <glyph glyph-name="uni0453" unicode="&#x453;" horiz-adv-x="763" 
d="M326 1124l212 289h172l-266 -289h-118zM165 0v999h571v-118h-421v-881h-150z" />
    <glyph glyph-name="uni0454" unicode="&#x454;" horiz-adv-x="968" 
d="M282 50.5q-98 70.5 -147 188.5t-49 259q0 140 48.5 258t146 189t237.5 71q134 0 234.5 -69t154.5 -193l-141 -60q-24 89 -91 141.5t-157 52.5t-150 -49t-90.5 -126.5t-37.5 -168.5h403v-111h-403q14 -138 82.5 -232t195.5 -94q90 0 157 53.5t91 140.5l129 -56
q-44 -127 -142 -196t-233 -69q-140 0 -238 70.5z" />
    <glyph glyph-name="uni0455" unicode="&#x455;" horiz-adv-x="867" 
d="M275.5 13q-76.5 33 -129 89.5t-74.5 123.5l125 68q16 -50 52 -91.5t87 -66t108 -24.5q85 0 142 40t57 126q0 54 -30.5 87t-76.5 50t-125 37q-99 24 -160 49.5t-104 80.5t-43 150q0 81 43 145.5t114.5 100.5t153.5 36q116 0 200.5 -54.5t132.5 -141.5l-117 -67
q-33 62 -85 95t-130 33q-75 0 -125 -37.5t-50 -106.5q0 -43 27.5 -69.5t69.5 -41.5t116 -32q106 -26 172 -53t114 -88t48 -167q0 -91 -48 -160.5t-127 -106.5t-171 -37q-90 0 -166.5 33z" />
    <glyph glyph-name="uni0456" unicode="&#x456;" horiz-adv-x="494" 
d="M159 1222v191h176v-191h-176zM170 0v999h150v-999h-150z" />
    <glyph glyph-name="uni0457" unicode="&#x457;" horiz-adv-x="483" 
d="M-5 1185v166h156v-166h-156zM327 1185v166h156v-166h-156zM159 0v999h163v-999h-163z" />
    <glyph glyph-name="uni0458" unicode="&#x458;" horiz-adv-x="492" 
d="M156 1224v197h176v-197h-176zM0.5 -431q-33.5 7 -57 14.5t-29.5 9.5l32 112q5 -1 22 -4.5t43 -7t50 -3.5q59 0 84.5 38t25.5 97v1174h151v-1153q0 -130 -64 -207t-192 -77q-32 0 -65.5 7z" />
    <glyph glyph-name="uni0459" unicode="&#x459;" horiz-adv-x="1620" 
d="M63 22l48 109q27 -15 46 -23.5t42 -8.5q43 0 77.5 109t34.5 411v380h634v-334h186q124 0 209 -28t134 -102.5t49 -208.5q0 -101 -50 -175t-139 -112.5t-202 -38.5h-337v881h-336v-263q0 -370 -73.5 -505t-177.5 -135q-53 0 -145 44zM1131 122q224 0 224 204
q0 121 -60 169t-164 48h-186v-421h186z" />
    <glyph glyph-name="uni045A" unicode="&#x45a;" horiz-adv-x="1651" 
d="M168 999h150v-390h508v390h148v-390h188q127 0 211 -23t132.5 -90t48.5 -192q0 -150 -107 -227t-284 -77h-337v491h-508v-491h-150v999zM1162 122q70 0 118 13.5t77 53.5t29 115q0 83 -28.5 122.5t-74 50t-121.5 10.5h-188v-365h188z" />
    <glyph glyph-name="uni045B" unicode="&#x45b;" horiz-adv-x="1124" 
d="M832.5 963q75.5 -54 111 -144.5t35.5 -202.5v-616h-151v592q0 122 -47.5 203.5t-164.5 81.5q-85 0 -153.5 -45.5t-106.5 -123t-38 -169.5v-539h-148v1128h-181v116h181v169h148v-169h305v-116h-305v-293q50 82 139 132t186 50q114 0 189.5 -54z" />
    <glyph glyph-name="uni045C" unicode="&#x45c;" horiz-adv-x="960" 
d="M422 1124l212 289h174l-268 -289h-118zM168 999h151v-371h127l222 371h183l-255 -403q49 0 89 -48t66 -113l163 -435h-174l-123 359q-25 75 -62.5 109t-99.5 34h-136v-502h-151v999z" />
    <glyph glyph-name="uni045D" unicode="&#x45d;" horiz-adv-x="1142" 
d="M510 1127l-242 286h172l212 -286h-142zM316 34.5q-77 57.5 -112.5 154t-35.5 216.5v594h150v-596q0 -126 46.5 -211.5t160.5 -85.5q80 0 149.5 45.5t110.5 120t41 155.5v572h148v-999h-148v168q-22 -44 -67.5 -88t-109.5 -73.5t-136 -29.5q-120 0 -197 57.5z" />
    <glyph glyph-name="uni045E" unicode="&#x45e;" horiz-adv-x="975" 
d="M328 1174.5q-69 31.5 -109 92.5t-40 146h123q0 -47 24.5 -84.5t65.5 -59t90 -21.5q48 0 89 21t65.5 59t24.5 85h123q0 -84 -39.5 -145t-108.5 -93t-154 -32t-154 31.5zM251 -430l167 437l-383 992h165l289 -817l286 817h165l-535 -1429h-154z" />
    <glyph glyph-name="uni045F" unicode="&#x45f;" horiz-adv-x="1142" 
d="M496 -307v307h-328v999h150v-879h508v879h148v-999h-330v-307h-148z" />
    <glyph glyph-name="uni0462" unicode="&#x462;" horiz-adv-x="1328" 
d="M390 1101h-322v135h322v177h159v-177h348v-135h-348v-325h239q137 0 238.5 -45t157 -131.5t55.5 -208.5q0 -121 -55.5 -209.5t-157.5 -135t-238 -46.5h-398v1101zM788 141q141 0 218.5 65.5t77.5 184.5t-77 181.5t-219 62.5h-239v-494h239z" />
    <glyph glyph-name="uni0463" unicode="&#x463;" horiz-adv-x="995" 
d="M170 1146h-197v117h197v150h148v-150h227v-117h-227v-481h187q125 0 210.5 -28t134.5 -102.5t49 -208.5q0 -101 -50.5 -175t-139.5 -112.5t-204 -38.5h-335v1146zM505 122q104 0 164.5 46t60.5 158q0 122 -60 169.5t-165 47.5h-187v-421h187z" />
    <glyph glyph-name="uni0464" unicode="&#x464;" horiz-adv-x="1815" 
d="M818 66q-139 86 -213.5 235t-85.5 338h-150v-639h-157v1413h157v-639h150q11 189 85 338.5t212.5 236.5t335.5 87q198 0 345.5 -96t226.5 -280l-145 -60q-43 149 -157 219t-272 70q-151 0 -254.5 -68.5t-157 -184.5t-61.5 -262h630v-135h-629q9 -151 62.5 -266
t157.5 -181t256 -66q154 0 261 69.5t164 222.5l147 -60q-77 -184 -225.5 -281t-346.5 -97q-197 0 -336 86z" />
    <glyph glyph-name="uni0465" unicode="&#x465;" horiz-adv-x="1339" 
d="M656 48q-97 68 -146.5 182t-52.5 253h-139v-483h-150v999h150v-397h147q17 117 69.5 210.5t142.5 148.5t212 55q134 0 235 -69t155 -193l-142 -60q-25 89 -91.5 141.5t-156.5 52.5q-87 0 -149.5 -49.5t-94.5 -117.5t-33 -119h402v-112h-402q2 -172 73 -277.5t204 -105.5
q89 0 156 53.5t92 140.5l128 -56q-43 -127 -140.5 -196t-233.5 -69q-138 0 -235 68z" />
    <glyph glyph-name="uni0466" unicode="&#x466;" horiz-adv-x="1304" 
d="M63 0l529 1413h122l527 -1413h-169l-214 605h-128v-605h-155v605h-126l-214 -605h-172zM497 739h313l-156 442z" />
    <glyph glyph-name="uni0467" unicode="&#x467;" horiz-adv-x="1008" 
d="M63 0l381 999h122l379 -999h-165l-116 363h-92v-363h-136v363h-87l-137 -363h-149zM388 479h239l-121 334z" />
    <glyph glyph-name="uni0468" unicode="&#x468;" horiz-adv-x="1690" 
d="M212 0v1413h157v-639h370l239 639h122l527 -1413h-170l-213 605h-128v-605h-155v605h-127l-213 -605h-172l239 639h-319v-639h-157zM883 739h313l-156 442z" />
    <glyph glyph-name="uni0469" unicode="&#x469;" horiz-adv-x="1343" 
d="M168 0v999h150v-487h273l186 487h124l379 -999h-167l-114 363h-92v-363h-137v363h-86l-137 -363h-151l150 393h-228v-393h-150zM723 479h239l-121 334z" />
    <glyph glyph-name="uni046A" unicode="&#x46a;" horiz-adv-x="1560" 
d="M299 583q38 93 118 139t197 46l-371 510v135h1061v-135l-373 -510q243 0 319 -185l238 -583h-185l-202 503q-19 57 -53 99t-101 42h-95v-644h-157v644h-93q-66 0 -100.5 -42.5t-53.5 -98.5l-202 -503h-182zM773 808l346 470h-691z" />
    <glyph glyph-name="uni046B" unicode="&#x46b;" horiz-adv-x="1256" 
d="M1193 0h-174l-123 359q-24 73 -67.5 101.5t-126.5 28.5v-489h-148v489q-58 0 -94.5 -12t-59.5 -39.5t-40 -78.5l-123 -359h-174l163 435q26 67 79.5 114t145.5 47l-234 285v118h821v-118l-231 -285q91 0 144 -47t79 -114zM626 599l226 282h-449z" />
    <glyph glyph-name="uni046C" unicode="&#x46c;" horiz-adv-x="1917" 
d="M212 1413h157v-645h621l-374 510v135h1062v-135l-373 -510q120 0 192 -45.5t110 -139.5l238 -583h-169l-201 503q-15 38 -30.5 66t-46 51.5t-77.5 23.5h-93v-644h-159v644h-92q-47 0 -78 -23t-46 -50t-33 -68l-200 -503h-164l231 572q2 5 11 25t21 39h-350v-636h-157
v1413zM1147 808l345 470h-690z" />
    <glyph glyph-name="uni046D" unicode="&#x46d;" horiz-adv-x="1575" 
d="M1512 0h-173l-122 359q-22 61 -45.5 91t-58 40.5t-94.5 10.5v-501h-146v501q-60 0 -95 -12t-57.5 -42t-41.5 -88l-123 -359h-174l158 419q11 39 39 76h-261v-495h-150v999h150v-384h435l-216 266v118h820v-118l-220 -269q63 0 105 -27.5t65 -64t42 -85.5zM945 599
l226 282h-450z" />
    <glyph glyph-name="uni0472" unicode="&#x472;" horiz-adv-x="1515" 
d="M405.5 77q-142.5 97 -212.5 262t-70 368t70 368t212.5 262t350.5 97q210 0 353 -97t213 -261.5t70 -368.5t-70 -368.5t-213 -261.5t-353 -97q-208 0 -350.5 97zM1232 779q-11 144 -65.5 258.5t-157.5 182t-253 67.5q-149 0 -252.5 -67.5t-158 -182.5t-64.5 -258h951z
M1016.5 198.5q105.5 72.5 158.5 195t59 273.5h-955q6 -151 58.5 -273.5t158 -195t260.5 -72.5t260.5 72.5z" />
    <glyph glyph-name="uni0473" unicode="&#x473;" 
d="M314 49q-108 69 -168 187t-60 260q0 141 60 259.5t168 187.5t245 69t245 -69t168.5 -187t60.5 -260t-60 -260t-168.5 -187t-245.5 -69t-245 69zM861 570q-15 138 -89.5 223.5t-212.5 85.5t-213.5 -85.5t-90.5 -223.5h606zM780 208.5q74 96.5 82 249.5h-609
q8 -153 83 -249.5t223 -96.5q147 0 221 96.5z" />
    <glyph glyph-name="uni0474" unicode="&#x474;" horiz-adv-x="1288" 
d="M32 1413h166l381 -1203l291 789q70 191 164.5 288.5t226.5 125.5v-151q-78 -37 -127 -88.5t-68 -87t-49 -104.5l-370 -982h-137z" />
    <glyph glyph-name="uni0475" unicode="&#x475;" horiz-adv-x="967" 
d="M36 999h163l240 -803l143 399q75 207 166.5 304.5t182.5 99.5v-153q-36 -12 -61 -28t-59 -67t-73 -151l-233 -600h-133z" />
    <glyph glyph-name="uni0478" unicode="&#x478;" horiz-adv-x="2490" 
d="M406.5 77.5q-142.5 97.5 -213 262.5t-70.5 367t70.5 367t213 262.5t349.5 97.5q208 0 351 -97.5t214 -262.5t71 -367t-71 -367t-214 -262.5t-351 -97.5q-207 0 -349.5 97.5zM1028.5 205.5q108.5 79.5 159 211t50.5 290.5t-50.5 290t-159 210.5t-272.5 79.5
q-162 0 -269.5 -79.5t-158 -210.5t-50.5 -290t50.5 -290.5t158 -211t269.5 -79.5q164 0 272.5 79.5zM1763 -430l171 435l-384 994h165l293 -817l284 817h163l-535 -1429h-157z" />
    <glyph glyph-name="uni0479" unicode="&#x479;" horiz-adv-x="2094" 
d="M312.5 50.5q-107.5 70.5 -167 190t-59.5 261.5t59.5 260.5t166.5 188t245 69.5q137 0 245.5 -69.5t169.5 -188.5t61 -260q0 -142 -61 -261.5t-169.5 -190t-245.5 -70.5t-244.5 70.5zM738 160.5q73 56.5 108.5 147t35.5 194.5q0 105 -35.5 194.5t-108 144.5t-178.5 55
t-179 -55t-109 -145t-36 -194q0 -105 36 -196t108.5 -146.5t177.5 -55.5q107 0 180 56.5zM1367 -430l171 435l-384 994h165l293 -817l284 817h163l-535 -1429h-157z" />
    <glyph glyph-name="uni0483" unicode="&#x483;" horiz-adv-x="0" 
d="M-932 1547v261h675v137h130v-245h-682v-153h-123z" />
    <glyph glyph-name="uni0490" unicode="&#x490;" horiz-adv-x="1068" 
d="M212 0v1413h641v307h155v-442h-639v-1278h-157z" />
    <glyph glyph-name="uni0491" unicode="&#x491;" horiz-adv-x="766" 
d="M165 0v999h424v308h147v-426h-421v-881h-150z" />
    <glyph glyph-name="uni0492" unicode="&#x492;" horiz-adv-x="1153" 
d="M1093 1278h-640v-456h261v-131h-261v-691h-157v691h-307v131h307v591h797v-135z" />
    <glyph glyph-name="uni0493" unicode="&#x493;" horiz-adv-x="766" 
d="M168 0v999h571v-118h-421v-881h-150z" />
    <glyph glyph-name="uni0496" unicode="&#x496;" horiz-adv-x="1954" 
d="M1955 168v-406h-150v238h-113l-200 563q-20 56 -71 99t-121 43h-244v-705h-158v705h-245q-71 0 -120 -40.5t-70 -101.5l-202 -563h-189l243 643q13 34 47 74.5t85.5 69.5t111.5 29l-410 597h199l383 -574h167v574h158v-574h167l381 574h201l-410 -597q59 0 110.5 -29
t86 -69.5t47.5 -74.5l180 -475h136z" />
    <glyph glyph-name="uni0497" unicode="&#x497;" horiz-adv-x="1433" 
d="M1462 168v-406h-150v238h-99l-123 359q-25 75 -62.5 109t-99.5 34h-136v-502h-151v502h-136q-62 0 -99.5 -34t-62.5 -109l-123 -359h-174l163 435q25 64 65.5 112.5t89.5 48.5l-255 403h183l222 -371h127v371h151v-371h128l222 371h182l-255 -403q50 0 90 -48.5
t65 -112.5l100 -267h138z" />
    <glyph glyph-name="uni049A" unicode="&#x49a;" horiz-adv-x="1266" 
d="M1268 168v-406h-150v238h-112l-202 563q-9 28 -36 61t-67 57t-87 24h-245v-705h-157v1413h157v-574h168l381 574h201l-411 -597q59 0 110.5 -29t86.5 -69.5t48 -74.5l179 -475h136z" />
    <glyph glyph-name="uni049B" unicode="&#x49b;" horiz-adv-x="963" 
d="M989 168v-406h-150v238h-99l-123 359q-25 75 -62.5 109t-99.5 34h-136v-502h-151v1413h151v-785h127l222 371h183l-255 -403q49 0 89 -48t66 -113l100 -267h138z" />
    <glyph glyph-name="uni04A2" unicode="&#x4a2;" horiz-adv-x="1455" 
d="M1243 168h136v-406h-150v238h-145v641h-713v-641h-159v1413h159v-639h713v639h159v-1245z" />
    <glyph glyph-name="uni04A3" unicode="&#x4a3;" horiz-adv-x="1142" 
d="M974 168h145v-406h-150v238h-144v491h-506v-491h-151v999h151v-390h506v390h149v-831z" />
    <glyph glyph-name="uni04AE" unicode="&#x4ae;" horiz-adv-x="1316" 
d="M581 0v553l-529 860h186l419 -699l422 699h185l-527 -860v-553h-156z" />
    <glyph glyph-name="uni04AF" unicode="&#x4af;" horiz-adv-x="956" 
d="M403 0v443l-351 556h181l245 -399l246 399h180l-349 -556v-443h-152z" />
    <glyph glyph-name="uni04B0" unicode="&#x4b0;" horiz-adv-x="1319" 
d="M737 553v-100h181v-131h-181v-322h-156v322h-388v131h388v100l-529 860h186l419 -699l422 699h185z" />
    <glyph glyph-name="uni04B1" unicode="&#x4b1;" horiz-adv-x="988" 
d="M555 443v-94h225v-131h-225v-218h-152v218h-348v131h348v94l-351 556h181l245 -399l246 399h180z" />
    <glyph glyph-name="uni04B2" unicode="&#x4b2;" horiz-adv-x="1260" 
d="M1078 168h137v-406h-150v238h-64l-374 578l-366 -578h-189l467 707l-465 706h189l366 -587l370 587h187l-463 -706z" />
    <glyph glyph-name="uni04B3" unicode="&#x4b3;" horiz-adv-x="922" 
d="M765 168h143v-406h-150v238h-62l-234 378l-233 -378h-183l336 504l-336 495h183l233 -372l234 372h180l-333 -495z" />
    <glyph glyph-name="uni04B6" unicode="&#x4b6;" horiz-adv-x="1325" 
d="M1251 168v-406h-150v238h-146v537q-123 -126 -334 -126q-251 0 -372.5 164t-121.5 442v396h159v-402q0 -213 76 -331t259 -118q104 0 193 41t141 106v704h159v-1245h137z" />
    <glyph glyph-name="uni04B7" unicode="&#x4b7;" horiz-adv-x="1077" 
d="M1045 168v-406h-150v238h-138v433q-22 -44 -67.5 -88t-109.5 -73t-136 -29q-120 0 -197.5 57.5t-113 154t-35.5 216.5v328h151v-331q0 -126 46.5 -211t160.5 -85q80 0 149.5 45.5t110.5 119.5t41 156v306h151v-831h137z" />
    <glyph glyph-name="uni04BA" unicode="&#x4ba;" horiz-adv-x="1325" 
d="M370 876q123 126 334 126q251 0 372.5 -164t121.5 -442v-396h-159v402q0 213 -76 331t-259 118q-104 0 -193 -41t-141 -106v-704h-159v1413h159v-537z" />
    <glyph glyph-name="uni04BB" unicode="&#x4bb;" horiz-adv-x="1124" 
d="M170 1413h148v-578q50 82 139 132t186 50q114 0 189.5 -54t111 -144.5t35.5 -202.5v-616h-151v592q0 122 -47.5 203.5t-164.5 81.5q-85 0 -153.5 -45.5t-106.5 -123t-38 -169.5v-539h-148v1413z" />
    <glyph glyph-name="uni04C0" unicode="&#x4c0;" horiz-adv-x="582" 
d="M212 0v1413h159v-1413h-159z" />
    <glyph glyph-name="uni04CF" unicode="&#x4cf;" horiz-adv-x="487" 
d="M168 0v1413h151v-1413h-151z" />
    <glyph glyph-name="uni04D8" unicode="&#x4d8;" horiz-adv-x="1515" 
d="M405.5 77q-142.5 97 -212.5 262t-70 368l1 36q1 12 1 36h1107q-11 144 -65.5 258.5t-157.5 182t-253 67.5q-133 0 -229.5 -54.5t-157.5 -150.5l-133 78q80 129 210.5 201.5t309.5 72.5q210 0 353 -97t213 -261.5t70 -368.5t-70 -368.5t-213 -261.5t-353 -97
q-208 0 -350.5 97zM1016.5 198.5q105.5 72.5 158.5 195t59 273.5h-955q6 -151 58.5 -273.5t158 -195t260.5 -72.5t260.5 72.5z" />
    <glyph glyph-name="uni04D9" unicode="&#x4d9;" horiz-adv-x="1038" 
d="M744.5 944.5q101.5 -68.5 152 -184t50.5 -255.5q0 -138 -49.5 -256.5t-147.5 -190.5t-237 -72q-153 0 -247.5 70.5t-135.5 180.5t-41 236q0 32 5 77h696q1 91 -32.5 166.5t-99.5 120.5t-160 45q-91 0 -158 -23.5t-123 -83.5l-102 82q81 82 171.5 119t210.5 37
q146 0 247.5 -68.5zM232 428q3 -136 71 -227.5t210 -91.5q88 0 149 43t92.5 115t35.5 161h-558z" />
    <glyph glyph-name="uni04E2" unicode="&#x4e2;" horiz-adv-x="1418" 
d="M1206 0h-158v1247l-604 -1247h-232v1413h157v-1245l608 1245h229v-1413zM442 1597v125h541v-125h-541z" />
    <glyph glyph-name="uni04E3" unicode="&#x4e3;" horiz-adv-x="1117" 
d="M227 98.5q-84 120.5 -84 320.5v580h149v-590q0 -130 47 -217.5t163 -87.5q79 0 147.5 45t109.5 123t41 174v553h148v-999h-148v169q-21 -46 -66 -90t-109.5 -72.5t-138.5 -28.5q-175 0 -259 120.5zM290 1183v125h541v-125h-541z" />
    <glyph glyph-name="uni04E8" unicode="&#x4e8;" horiz-adv-x="1515" 
d="M405.5 77q-142.5 97 -212.5 262t-70 368t70 368t212.5 262t350.5 97q210 0 353 -97t213 -261.5t70 -368.5t-70 -368.5t-213 -261.5t-353 -97q-208 0 -350.5 97zM1232 779q-11 144 -65.5 258.5t-157.5 182t-253 67.5q-149 0 -252.5 -67.5t-158 -182.5t-64.5 -258h951z
M1016.5 198.5q105.5 72.5 158.5 195t59 273.5h-955q6 -151 58.5 -273.5t158 -195t260.5 -72.5t260.5 72.5z" />
    <glyph glyph-name="uni04E9" unicode="&#x4e9;" 
d="M314 49q-108 69 -168 187t-60 260q0 141 60 259.5t168 187.5t245 69t245 -69t168.5 -187t60.5 -260t-60 -260t-168.5 -187t-245.5 -69t-245 69zM861 570q-15 138 -89.5 223.5t-212.5 85.5t-213.5 -85.5t-90.5 -223.5h606zM780 208.5q74 96.5 82 249.5h-609
q8 -153 83 -249.5t223 -96.5q147 0 221 96.5z" />
    <glyph glyph-name="uni04EE" unicode="&#x4ee;" horiz-adv-x="1115" 
d="M262 0l197 457l-396 956h173l306 -789l333 789h177l-621 -1413h-169zM289 1597v125h541v-125h-541z" />
    <glyph glyph-name="uni04EF" unicode="&#x4ef;" horiz-adv-x="975" 
d="M251 -430l167 437l-383 992h165l289 -817l286 817h165l-535 -1429h-154zM219 1183v125h541v-125h-541z" />
    <glyph glyph-name="Wgrave" unicode="&#x1e80;" horiz-adv-x="1973" 
d="M471 0l-397 1413h162l336 -1219l351 1137h128l352 -1137l334 1219h163l-398 -1413h-174l-338 1076l-345 -1076h-174zM918 1511l-258 291h192l218 -291h-152z" />
    <glyph glyph-name="wgrave" unicode="&#x1e81;" horiz-adv-x="1419" 
d="M329 -1l-279 1000h158l204 -802l230 802h137l229 -800l203 800h159l-280 -999h-145l-233 811l-238 -812h-145zM640 1122l-258 291h192l218 -291h-152z" />
    <glyph glyph-name="Wacute" unicode="&#x1e82;" horiz-adv-x="1973" 
d="M471 0l-397 1413h162l336 -1219l351 1137h128l352 -1137l334 1219h163l-398 -1413h-174l-338 1076l-345 -1076h-174zM895 1513l217 289h193l-277 -289h-133z" />
    <glyph glyph-name="wacute" unicode="&#x1e83;" horiz-adv-x="1419" 
d="M329 -1l-279 1000h158l204 -802l230 802h137l229 -800l203 800h159l-280 -999h-145l-233 811l-238 -812h-145zM617 1124l217 289h193l-277 -289h-133z" />
    <glyph glyph-name="Wdieresis" unicode="&#x1e84;" horiz-adv-x="1973" 
d="M471 0l-397 1413h162l336 -1219l351 1137h128l352 -1137l334 1219h163l-398 -1413h-174l-338 1076l-345 -1076h-174zM735 1610v192h169v-192h-169zM1072 1610v192h168v-192h-168z" />
    <glyph glyph-name="wdieresis" unicode="&#x1e85;" horiz-adv-x="1419" 
d="M329 -1l-279 1000h158l204 -802l230 802h137l229 -800l203 800h159l-280 -999h-145l-233 811l-238 -812h-145zM457 1221v192h169v-192h-169zM794 1221v192h168v-192h-168z" />
    <glyph glyph-name="uni1EA4" unicode="&#x1ea4;" horiz-adv-x="1306" 
d="M63 0l531 1413h122l527 -1413h-170l-108 307h-621l-108 -307h-173zM397 452h514l-255 728zM325 1512l329 355l329 -355h-161l-168 186l-167 -186h-162zM559 1952l217 289h193l-277 -289h-133z" />
    <glyph glyph-name="uni1EA5" unicode="&#x1ea5;" horiz-adv-x="1025" 
d="M233.5 15.5q-73.5 35.5 -115 103t-41.5 159.5q0 148 112 220.5t328 72.5h228q0 319 -245 319q-97 0 -165 -43.5t-112 -107.5l-109 85q142 196 377 196q125 0 213 -50.5t133 -142.5t45 -214v-613h-127l-3 193q-52 -108 -145 -160.5t-206 -52.5q-94 0 -167.5 35.5z
M590 158.5q75 52.5 115 134.5t40 165h-214q-152 0 -226 -43t-74 -141q0 -85 51.5 -126.5t135.5 -41.5q97 0 172 52.5zM173 1098l329 355l329 -355h-161l-168 186l-167 -186h-162zM407 1538l217 289h193l-277 -289h-133z" />
    <glyph glyph-name="uni1EA6" unicode="&#x1ea6;" horiz-adv-x="1306" 
d="M63 0l531 1413h122l527 -1413h-170l-108 307h-621l-108 -307h-173zM397 452h514l-255 728zM325 1512l329 355l329 -355h-161l-168 186l-167 -186h-162zM582 1950l-258 291h192l218 -291h-152z" />
    <glyph glyph-name="uni1EA7" unicode="&#x1ea7;" horiz-adv-x="1025" 
d="M233.5 15.5q-73.5 35.5 -115 103t-41.5 159.5q0 148 112 220.5t328 72.5h228q0 319 -245 319q-97 0 -165 -43.5t-112 -107.5l-109 85q142 196 377 196q125 0 213 -50.5t133 -142.5t45 -214v-613h-127l-3 193q-52 -108 -145 -160.5t-206 -52.5q-94 0 -167.5 35.5z
M590 158.5q75 52.5 115 134.5t40 165h-214q-152 0 -226 -43t-74 -141q0 -85 51.5 -126.5t135.5 -41.5q97 0 172 52.5zM173 1098l329 355l329 -355h-161l-168 186l-167 -186h-162zM430 1536l-258 291h192l218 -291h-152z" />
    <glyph glyph-name="uni1EAA" unicode="&#x1eaa;" horiz-adv-x="1306" 
d="M63 0l531 1413h122l527 -1413h-170l-108 307h-621l-108 -307h-173zM397 452h514l-255 728zM325 1512l329 355l329 -355h-161l-168 186l-167 -186h-162zM688.5 1998.5q-35.5 24.5 -75.5 69.5q-31 33 -50.5 48t-42.5 15q-36 0 -52.5 -38t-16.5 -99h-100q0 114 44 182
t125 68q39 0 69.5 -14t51.5 -33t48 -50q28 -32 46.5 -47t41.5 -15q71 0 71 153h106q0 -128 -46.5 -196t-132.5 -68q-51 0 -86.5 24.5z" />
    <glyph glyph-name="uni1EAB" unicode="&#x1eab;" horiz-adv-x="1025" 
d="M233.5 15.5q-73.5 35.5 -115 103t-41.5 159.5q0 148 112 220.5t328 72.5h228q0 319 -245 319q-97 0 -165 -43.5t-112 -107.5l-109 85q142 196 377 196q125 0 213 -50.5t133 -142.5t45 -214v-613h-127l-3 193q-52 -108 -145 -160.5t-206 -52.5q-94 0 -167.5 35.5z
M590 158.5q75 52.5 115 134.5t40 165h-214q-152 0 -226 -43t-74 -141q0 -85 51.5 -126.5t135.5 -41.5q97 0 172 52.5zM173 1098l329 355l329 -355h-161l-168 186l-167 -186h-162zM536.5 1584.5q-35.5 24.5 -75.5 69.5q-31 33 -50.5 48t-42.5 15q-36 0 -52.5 -38t-16.5 -99
h-100q0 114 44 182t125 68q39 0 69.5 -14t51.5 -33t48 -50q28 -32 46.5 -47t41.5 -15q71 0 71 153h106q0 -128 -46.5 -196t-132.5 -68q-51 0 -86.5 24.5z" />
    <glyph glyph-name="uni1EAE" unicode="&#x1eae;" horiz-adv-x="1306" 
d="M63 0l531 1413h122l527 -1413h-170l-108 307h-621l-108 -307h-173zM397 452h514l-255 728zM494.5 1588.5q-69.5 31.5 -108.5 92.5t-39 146h136q0 -46 23 -81.5t62 -55t86 -19.5t86 19.5t61.5 55t22.5 81.5h136q0 -86 -39 -147t-108 -92t-159 -31t-159.5 31.5zM559 1952
l217 289h193l-277 -289h-133z" />
    <glyph glyph-name="uni1EAF" unicode="&#x1eaf;" horiz-adv-x="1025" 
d="M233.5 15.5q-73.5 35.5 -115 103t-41.5 159.5q0 148 112 220.5t328 72.5h228q0 319 -245 319q-97 0 -165 -43.5t-112 -107.5l-109 85q142 196 377 196q125 0 213 -50.5t133 -142.5t45 -214v-613h-127l-3 193q-52 -108 -145 -160.5t-206 -52.5q-94 0 -167.5 35.5z
M590 158.5q75 52.5 115 134.5t40 165h-214q-152 0 -226 -43t-74 -141q0 -85 51.5 -126.5t135.5 -41.5q97 0 172 52.5zM342.5 1174.5q-69.5 31.5 -108.5 92.5t-39 146h136q0 -46 23 -81.5t62 -55t86 -19.5t86 19.5t61.5 55t22.5 81.5h136q0 -86 -39 -147t-108 -92t-159 -31
t-159.5 31.5zM407 1538l217 289h193l-277 -289h-133z" />
    <glyph glyph-name="uni1EB0" unicode="&#x1eb0;" horiz-adv-x="1306" 
d="M63 0l531 1413h122l527 -1413h-170l-108 307h-621l-108 -307h-173zM397 452h514l-255 728zM494.5 1588.5q-69.5 31.5 -108.5 92.5t-39 146h136q0 -46 23 -81.5t62 -55t86 -19.5t86 19.5t61.5 55t22.5 81.5h136q0 -86 -39 -147t-108 -92t-159 -31t-159.5 31.5zM582 1950
l-258 291h192l218 -291h-152z" />
    <glyph glyph-name="uni1EB1" unicode="&#x1eb1;" horiz-adv-x="1025" 
d="M233.5 15.5q-73.5 35.5 -115 103t-41.5 159.5q0 148 112 220.5t328 72.5h228q0 319 -245 319q-97 0 -165 -43.5t-112 -107.5l-109 85q142 196 377 196q125 0 213 -50.5t133 -142.5t45 -214v-613h-127l-3 193q-52 -108 -145 -160.5t-206 -52.5q-94 0 -167.5 35.5z
M590 158.5q75 52.5 115 134.5t40 165h-214q-152 0 -226 -43t-74 -141q0 -85 51.5 -126.5t135.5 -41.5q97 0 172 52.5zM342.5 1174.5q-69.5 31.5 -108.5 92.5t-39 146h136q0 -46 23 -81.5t62 -55t86 -19.5t86 19.5t61.5 55t22.5 81.5h136q0 -86 -39 -147t-108 -92t-159 -31
t-159.5 31.5zM430 1536l-258 291h192l218 -291h-152z" />
    <glyph glyph-name="uni1EB4" unicode="&#x1eb4;" horiz-adv-x="1306" 
d="M63 0l531 1413h122l527 -1413h-170l-108 307h-621l-108 -307h-173zM397 452h514l-255 728zM494.5 1588.5q-69.5 31.5 -108.5 92.5t-39 146h136q0 -46 23 -81.5t62 -55t86 -19.5t86 19.5t61.5 55t22.5 81.5h136q0 -86 -39 -147t-108 -92t-159 -31t-159.5 31.5z
M688.5 1998.5q-35.5 24.5 -75.5 69.5q-31 33 -50.5 48t-42.5 15q-36 0 -52.5 -38t-16.5 -99h-100q0 114 44 182t125 68q39 0 69.5 -14t51.5 -33t48 -50q28 -32 46.5 -47t41.5 -15q71 0 71 153h106q0 -128 -46.5 -196t-132.5 -68q-51 0 -86.5 24.5z" />
    <glyph glyph-name="uni1EB5" unicode="&#x1eb5;" horiz-adv-x="1025" 
d="M233.5 15.5q-73.5 35.5 -115 103t-41.5 159.5q0 148 112 220.5t328 72.5h228q0 319 -245 319q-97 0 -165 -43.5t-112 -107.5l-109 85q142 196 377 196q125 0 213 -50.5t133 -142.5t45 -214v-613h-127l-3 193q-52 -108 -145 -160.5t-206 -52.5q-94 0 -167.5 35.5z
M590 158.5q75 52.5 115 134.5t40 165h-214q-152 0 -226 -43t-74 -141q0 -85 51.5 -126.5t135.5 -41.5q97 0 172 52.5zM342.5 1174.5q-69.5 31.5 -108.5 92.5t-39 146h136q0 -46 23 -81.5t62 -55t86 -19.5t86 19.5t61.5 55t22.5 81.5h136q0 -86 -39 -147t-108 -92t-159 -31
t-159.5 31.5zM536.5 1584.5q-35.5 24.5 -75.5 69.5q-31 33 -50.5 48t-42.5 15q-36 0 -52.5 -38t-16.5 -99h-100q0 114 44 182t125 68q39 0 69.5 -14t51.5 -33t48 -50q28 -32 46.5 -47t41.5 -15q71 0 71 153h106q0 -128 -46.5 -196t-132.5 -68q-51 0 -86.5 24.5z" />
    <glyph glyph-name="uni1EBC" unicode="&#x1ebc;" horiz-adv-x="1239" 
d="M212 0v1413h915v-137h-756v-502h657v-133h-657v-496h756v-145h-915zM700.5 1584.5q-35.5 24.5 -75.5 69.5q-31 33 -50.5 48t-42.5 15q-36 0 -52.5 -38t-16.5 -99h-100q0 114 44 182t125 68q39 0 69.5 -14t51.5 -33t48 -50q28 -32 46.5 -47t41.5 -15q71 0 71 153h106
q0 -128 -46.5 -196t-132.5 -68q-51 0 -86.5 24.5z" />
    <glyph glyph-name="uni1EBD" unicode="&#x1ebd;" horiz-adv-x="1038" 
d="M293.5 54.5q-101.5 68.5 -152 184t-50.5 255.5q0 138 49.5 256.5t147.5 190.5t237 72q153 0 247.5 -70.5t135.5 -180.5t41 -236q0 -32 -5 -77h-696q-1 -91 32.5 -166.5t99.5 -120.5t160 -45q91 0 158 23.5t123 83.5l102 -82q-81 -82 -171.5 -119t-210.5 -37
q-146 0 -247.5 68.5zM806 571q-3 136 -71 227.5t-210 91.5q-88 0 -149 -43t-92.5 -115t-35.5 -161h558zM546.5 1170.5q-35.5 24.5 -75.5 69.5q-31 33 -50.5 48t-42.5 15q-36 0 -52.5 -38t-16.5 -99h-100q0 114 44 182t125 68q39 0 69.5 -14t51.5 -33t48 -50q28 -32 46.5 -47
t41.5 -15q71 0 71 153h106q0 -128 -46.5 -196t-132.5 -68q-51 0 -86.5 24.5z" />
    <glyph glyph-name="uni1EBE" unicode="&#x1ebe;" horiz-adv-x="1239" 
d="M212 0v1413h915v-137h-756v-502h657v-133h-657v-496h756v-145h-915zM337 1512l329 355l329 -355h-161l-168 186l-167 -186h-162zM571 1952l217 289h193l-277 -289h-133z" />
    <glyph glyph-name="uni1EBF" unicode="&#x1ebf;" horiz-adv-x="1038" 
d="M293.5 54.5q-101.5 68.5 -152 184t-50.5 255.5q0 138 49.5 256.5t147.5 190.5t237 72q153 0 247.5 -70.5t135.5 -180.5t41 -236q0 -32 -5 -77h-696q-1 -91 32.5 -166.5t99.5 -120.5t160 -45q91 0 158 23.5t123 83.5l102 -82q-81 -82 -171.5 -119t-210.5 -37
q-146 0 -247.5 68.5zM806 571q-3 136 -71 227.5t-210 91.5q-88 0 -149 -43t-92.5 -115t-35.5 -161h558zM183 1098l329 355l329 -355h-161l-168 186l-167 -186h-162zM417 1538l217 289h193l-277 -289h-133z" />
    <glyph glyph-name="uni1EC0" unicode="&#x1ec0;" horiz-adv-x="1239" 
d="M212 0v1413h915v-137h-756v-502h657v-133h-657v-496h756v-145h-915zM337 1512l329 355l329 -355h-161l-168 186l-167 -186h-162zM594 1950l-258 291h192l218 -291h-152z" />
    <glyph glyph-name="uni1EC1" unicode="&#x1ec1;" horiz-adv-x="1038" 
d="M293.5 54.5q-101.5 68.5 -152 184t-50.5 255.5q0 138 49.5 256.5t147.5 190.5t237 72q153 0 247.5 -70.5t135.5 -180.5t41 -236q0 -32 -5 -77h-696q-1 -91 32.5 -166.5t99.5 -120.5t160 -45q91 0 158 23.5t123 83.5l102 -82q-81 -82 -171.5 -119t-210.5 -37
q-146 0 -247.5 68.5zM806 571q-3 136 -71 227.5t-210 91.5q-88 0 -149 -43t-92.5 -115t-35.5 -161h558zM183 1098l329 355l329 -355h-161l-168 186l-167 -186h-162zM440 1536l-258 291h192l218 -291h-152z" />
    <glyph glyph-name="uni1EC4" unicode="&#x1ec4;" horiz-adv-x="1239" 
d="M212 0v1413h915v-137h-756v-502h657v-133h-657v-496h756v-145h-915zM337 1512l329 355l329 -355h-161l-168 186l-167 -186h-162zM700.5 1998.5q-35.5 24.5 -75.5 69.5q-31 33 -50.5 48t-42.5 15q-36 0 -52.5 -38t-16.5 -99h-100q0 114 44 182t125 68q39 0 69.5 -14
t51.5 -33t48 -50q28 -32 46.5 -47t41.5 -15q71 0 71 153h106q0 -128 -46.5 -196t-132.5 -68q-51 0 -86.5 24.5z" />
    <glyph glyph-name="uni1EC5" unicode="&#x1ec5;" horiz-adv-x="1038" 
d="M293.5 54.5q-101.5 68.5 -152 184t-50.5 255.5q0 138 49.5 256.5t147.5 190.5t237 72q153 0 247.5 -70.5t135.5 -180.5t41 -236q0 -32 -5 -77h-696q-1 -91 32.5 -166.5t99.5 -120.5t160 -45q91 0 158 23.5t123 83.5l102 -82q-81 -82 -171.5 -119t-210.5 -37
q-146 0 -247.5 68.5zM806 571q-3 136 -71 227.5t-210 91.5q-88 0 -149 -43t-92.5 -115t-35.5 -161h558zM183 1098l329 355l329 -355h-161l-168 186l-167 -186h-162zM546.5 1584.5q-35.5 24.5 -75.5 69.5q-31 33 -50.5 48t-42.5 15q-36 0 -52.5 -38t-16.5 -99h-100
q0 114 44 182t125 68q39 0 69.5 -14t51.5 -33t48 -50q28 -32 46.5 -47t41.5 -15q71 0 71 153h106q0 -128 -46.5 -196t-132.5 -68q-51 0 -86.5 24.5z" />
    <glyph glyph-name="uni1ED0" unicode="&#x1ed0;" horiz-adv-x="1515" 
d="M406.5 77.5q-142.5 97.5 -213 262.5t-70.5 367t70.5 367t213 262.5t349.5 97.5q208 0 351 -97.5t214 -262.5t71 -367t-71 -367t-214 -262.5t-351 -97.5q-207 0 -349.5 97.5zM1028.5 205.5q108.5 79.5 159 211t50.5 290.5t-50.5 290t-159 210.5t-272.5 79.5
q-162 0 -269.5 -79.5t-158 -210.5t-50.5 -290t50.5 -290.5t158 -211t269.5 -79.5q164 0 272.5 79.5zM427 1512l329 355l329 -355h-161l-168 186l-167 -186h-162zM661 1952l217 289h193l-277 -289h-133z" />
    <glyph glyph-name="uni1ED1" unicode="&#x1ed1;" 
d="M312.5 50.5q-107.5 70.5 -167 190t-59.5 261.5t59.5 260.5t166.5 188t245 69.5q137 0 245.5 -69.5t169.5 -188.5t61 -260q0 -142 -61 -261.5t-169.5 -190t-245.5 -70.5t-244.5 70.5zM738 160.5q73 56.5 108.5 147t35.5 194.5q0 105 -35.5 194.5t-108 144.5t-178.5 55
t-179 -55t-109 -145t-36 -194q0 -105 36 -196t108.5 -146.5t177.5 -55.5q107 0 180 56.5zM229 1098l329 355l329 -355h-161l-168 186l-167 -186h-162zM463 1538l217 289h193l-277 -289h-133z" />
    <glyph glyph-name="uni1ED2" unicode="&#x1ed2;" horiz-adv-x="1515" 
d="M406.5 77.5q-142.5 97.5 -213 262.5t-70.5 367t70.5 367t213 262.5t349.5 97.5q208 0 351 -97.5t214 -262.5t71 -367t-71 -367t-214 -262.5t-351 -97.5q-207 0 -349.5 97.5zM1028.5 205.5q108.5 79.5 159 211t50.5 290.5t-50.5 290t-159 210.5t-272.5 79.5
q-162 0 -269.5 -79.5t-158 -210.5t-50.5 -290t50.5 -290.5t158 -211t269.5 -79.5q164 0 272.5 79.5zM427 1512l329 355l329 -355h-161l-168 186l-167 -186h-162zM684 1950l-258 291h192l218 -291h-152z" />
    <glyph glyph-name="uni1ED3" unicode="&#x1ed3;" 
d="M312.5 50.5q-107.5 70.5 -167 190t-59.5 261.5t59.5 260.5t166.5 188t245 69.5q137 0 245.5 -69.5t169.5 -188.5t61 -260q0 -142 -61 -261.5t-169.5 -190t-245.5 -70.5t-244.5 70.5zM738 160.5q73 56.5 108.5 147t35.5 194.5q0 105 -35.5 194.5t-108 144.5t-178.5 55
t-179 -55t-109 -145t-36 -194q0 -105 36 -196t108.5 -146.5t177.5 -55.5q107 0 180 56.5zM229 1098l329 355l329 -355h-161l-168 186l-167 -186h-162zM486 1536l-258 291h192l218 -291h-152z" />
    <glyph glyph-name="uni1ED6" unicode="&#x1ed6;" horiz-adv-x="1515" 
d="M406.5 77.5q-142.5 97.5 -213 262.5t-70.5 367t70.5 367t213 262.5t349.5 97.5q208 0 351 -97.5t214 -262.5t71 -367t-71 -367t-214 -262.5t-351 -97.5q-207 0 -349.5 97.5zM1028.5 205.5q108.5 79.5 159 211t50.5 290.5t-50.5 290t-159 210.5t-272.5 79.5
q-162 0 -269.5 -79.5t-158 -210.5t-50.5 -290t50.5 -290.5t158 -211t269.5 -79.5q164 0 272.5 79.5zM427 1512l329 355l329 -355h-161l-168 186l-167 -186h-162zM790.5 1998.5q-35.5 24.5 -75.5 69.5q-31 33 -50.5 48t-42.5 15q-36 0 -52.5 -38t-16.5 -99h-100q0 114 44 182
t125 68q39 0 69.5 -14t51.5 -33t48 -50q28 -32 46.5 -47t41.5 -15q71 0 71 153h106q0 -128 -46.5 -196t-132.5 -68q-51 0 -86.5 24.5z" />
    <glyph glyph-name="uni1ED7" unicode="&#x1ed7;" 
d="M312.5 50.5q-107.5 70.5 -167 190t-59.5 261.5t59.5 260.5t166.5 188t245 69.5q137 0 245.5 -69.5t169.5 -188.5t61 -260q0 -142 -61 -261.5t-169.5 -190t-245.5 -70.5t-244.5 70.5zM738 160.5q73 56.5 108.5 147t35.5 194.5q0 105 -35.5 194.5t-108 144.5t-178.5 55
t-179 -55t-109 -145t-36 -194q0 -105 36 -196t108.5 -146.5t177.5 -55.5q107 0 180 56.5zM229 1098l329 355l329 -355h-161l-168 186l-167 -186h-162zM592.5 1584.5q-35.5 24.5 -75.5 69.5q-31 33 -50.5 48t-42.5 15q-36 0 -52.5 -38t-16.5 -99h-100q0 114 44 182t125 68
q39 0 69.5 -14t51.5 -33t48 -50q28 -32 46.5 -47t41.5 -15q71 0 71 153h106q0 -128 -46.5 -196t-132.5 -68q-51 0 -86.5 24.5z" />
    <glyph glyph-name="Ygrave" unicode="&#x1ef2;" horiz-adv-x="1316" 
d="M581 0v553l-529 860h186l419 -699l422 699h185l-527 -860v-553h-156zM585 1536l-258 291h192l218 -291h-152z" />
    <glyph glyph-name="ygrave" unicode="&#x1ef3;" horiz-adv-x="975" 
d="M248 -430l171 435l-384 994h165l293 -817l284 817h163l-535 -1429h-157zM411 1122l-258 291h192l218 -291h-152z" />
    <glyph glyph-name="uni1EF8" unicode="&#x1ef8;" horiz-adv-x="1316" 
d="M581 0v553l-529 860h186l419 -699l422 699h185l-527 -860v-553h-156zM691.5 1584.5q-35.5 24.5 -75.5 69.5q-31 33 -50.5 48t-42.5 15q-36 0 -52.5 -38t-16.5 -99h-100q0 114 44 182t125 68q39 0 69.5 -14t51.5 -33t48 -50q28 -32 46.5 -47t41.5 -15q71 0 71 153h106
q0 -128 -46.5 -196t-132.5 -68q-51 0 -86.5 24.5z" />
    <glyph glyph-name="uni1EF9" unicode="&#x1ef9;" horiz-adv-x="975" 
d="M248 -430l171 435l-384 994h165l293 -817l284 817h163l-535 -1429h-157zM517.5 1170.5q-35.5 24.5 -75.5 69.5q-31 33 -50.5 48t-42.5 15q-36 0 -52.5 -38t-16.5 -99h-100q0 114 44 182t125 68q39 0 69.5 -14t51.5 -33t48 -50q28 -32 46.5 -47t41.5 -15q71 0 71 153h106
q0 -128 -46.5 -196t-132.5 -68q-51 0 -86.5 24.5z" />
    <glyph glyph-name="endash" unicode="&#x2013;" horiz-adv-x="1019" 
d="M161 578v114h698v-114h-698z" />
    <glyph glyph-name="emdash" unicode="&#x2014;" horiz-adv-x="2048" 
d="M0 578v114h2048v-114h-2048z" />
    <glyph glyph-name="uni2015" unicode="&#x2015;" horiz-adv-x="1511" 
d="M161 578v114h1189v-114h-1189z" />
    <glyph glyph-name="quoteleft" unicode="&#x2018;" horiz-adv-x="559" 
d="M322 927l-221 486h196l120 -486h-95z" />
    <glyph glyph-name="quoteright" unicode="&#x2019;" horiz-adv-x="559" 
d="M142 927l121 486h195l-223 -486h-93z" />
    <glyph glyph-name="quotesinglbase" unicode="&#x201a;" horiz-adv-x="561" 
d="M141 -225l122 489h196l-221 -489h-97z" />
    <glyph glyph-name="quotedblleft" unicode="&#x201c;" horiz-adv-x="868" 
d="M322 927l-221 486h196l120 -486h-95zM632 927l-222 486h195l120 -486h-93z" />
    <glyph glyph-name="quotedblright" unicode="&#x201d;" horiz-adv-x="868" 
d="M142 927l121 486h195l-223 -486h-93zM451 927l122 486h193l-220 -486h-95z" />
    <glyph glyph-name="quotedblbase" unicode="&#x201e;" horiz-adv-x="877" 
d="M141 -225l122 489h196l-221 -489h-97zM456 -225l122 489h197l-222 -489h-97z" />
    <glyph glyph-name="dagger" unicode="&#x2020;" horiz-adv-x="806" 
d="M328 -205v1050h-222v149h222v419h150v-419h222v-149h-222v-1050h-150z" />
    <glyph glyph-name="daggerdbl" unicode="&#x2021;" horiz-adv-x="878" 
d="M364 -205v418h-221v152h221v480h-221v149h221v419h150v-419h222v-149h-222v-480h222v-152h-222v-418h-150z" />
    <glyph glyph-name="bullet" unicode="&#x2022;" horiz-adv-x="823" 
d="M293 276q-55 32 -87 86.5t-32 118.5t32 119t87 87t119 32t118.5 -32t86.5 -87t32 -119t-32 -118.5t-86.5 -86.5t-118.5 -32t-119 32z" />
    <glyph glyph-name="uni2023" unicode="&#x2023;" horiz-adv-x="797" 
d="M236 237v504l446 -251z" />
    <glyph glyph-name="twodotenleader" unicode="&#x2025;" horiz-adv-x="1076" 
d="M232 0v194h198v-194h-198zM646 0v194h198v-194h-198z" />
    <glyph glyph-name="ellipsis" unicode="&#x2026;" horiz-adv-x="1489" 
d="M232 0v194h198v-194h-198zM646 0v194h198v-194h-198zM1059 0v194h198v-194h-198z" />
    <glyph glyph-name="perthousand" unicode="&#x2030;" horiz-adv-x="2169" 
d="M233.5 852.5q-55.5 48.5 -79.5 120.5t-24 145q0 75 24 147.5t78 121.5t140 49q81 0 137.5 -46t84 -118.5t27.5 -153.5q0 -80 -27 -152t-82 -117t-134 -45q-89 0 -144.5 48.5zM339 2l753 1405h132l-753 -1405h-132zM451 936q30 32 44 81.5t14 102.5t-14.5 102t-45.5 80.5
t-77 31.5q-68 0 -102 -65t-34 -151q0 -85 35 -149.5t105 -64.5q45 0 75 32zM1061.5 51.5q-55.5 48.5 -80 120t-24.5 144.5q0 74 24 146t78.5 121t140.5 49q80 0 136 -45.5t84 -118t28 -153.5q0 -80 -27 -151.5t-81.5 -116t-133.5 -44.5q-89 0 -144.5 48.5zM1652.5 51.5
q-55.5 48.5 -79.5 120t-24 144.5q0 74 24 146t78 121t140 49q81 0 137.5 -45.5t84.5 -118t28 -153.5q0 -80 -27 -151.5t-82.5 -116t-134.5 -44.5q-89 0 -144.5 48.5zM1279 135q30 32 44.5 81.5t14.5 100.5q0 85 -34.5 149t-103.5 64q-68 0 -102.5 -64t-34.5 -150
q0 -85 35 -149t106 -64q45 0 75 32zM1870.5 135q29.5 32 43.5 81.5t14 100.5q0 85 -34.5 149t-102.5 64q-67 0 -101 -64t-34 -150q0 -53 14.5 -101.5t46.5 -80t80 -31.5q44 0 73.5 32z" />
    <glyph glyph-name="uni2031" unicode="&#x2031;" horiz-adv-x="2745" 
d="M233.5 853q-55.5 49 -79.5 121t-24 146t23.5 146t77.5 121t141 49q79 0 135 -46t84 -119t28 -153t-27 -152t-81.5 -117t-132.5 -45q-89 0 -144.5 49zM339 2l753 1403h131l-752 -1403h-132zM451 936q30 32 44 81.5t14 102.5q0 86 -34.5 150.5t-102.5 64.5
q-69 0 -103.5 -65t-34.5 -150q0 -86 35 -151t107 -65q45 0 75 32zM1061.5 51.5q-55.5 48.5 -80 120t-24.5 144.5q0 74 24 146t78.5 121t140.5 49q79 0 135 -46t83.5 -118.5t27.5 -152.5t-27 -151t-81 -116t-132 -45q-89 0 -144.5 48.5zM1651.5 51.5q-55.5 48.5 -80 120
t-24.5 144.5q0 74 24 146t78.5 121t140.5 49q81 0 136.5 -46t82.5 -118.5t27 -152.5t-27 -151.5t-81 -116t-132 -44.5q-89 0 -144.5 48.5zM2231.5 51.5q-55.5 48.5 -79.5 120t-24 144.5q0 74 24 146t78 121t140 49q81 0 137 -46t83 -118.5t27 -152.5t-27 -151.5t-81.5 -116
t-132.5 -44.5q-89 0 -144.5 48.5zM1279 133.5q30 32.5 44.5 82t14.5 101.5q0 85 -34.5 149.5t-103.5 64.5t-104 -64.5t-35 -150.5q0 -53 15 -102t47 -81t81 -32q45 0 75 32.5zM1868.5 133.5q30.5 32.5 45 82t14.5 101.5q0 85 -34.5 149.5t-103.5 64.5t-104 -64.5t-35 -150.5
q0 -53 15 -102t46.5 -81t80.5 -32q45 0 75.5 32.5zM2449.5 133.5q30.5 32.5 45 82t14.5 101.5q0 86 -35 150t-104 64t-103.5 -64.5t-34.5 -150.5q0 -53 14.5 -102t46.5 -81t81 -32q45 0 75.5 32.5z" />
    <glyph glyph-name="guilsinglleft" unicode="&#x2039;" horiz-adv-x="598" 
d="M433 185l-369 327l369 325v-162l-193 -163l193 -165v-162z" />
    <glyph glyph-name="guilsinglright" unicode="&#x203a;" horiz-adv-x="599" 
d="M163 185v162l194 165l-194 163v162l369 -325z" />
    <glyph glyph-name="fraction" unicode="&#x2044;" horiz-adv-x="750" 
d="M-82 0l756 1413h158l-754 -1413h-160z" />
    <glyph glyph-name="Euro" unicode="&#x20ac;" horiz-adv-x="1277" 
d="M540 43q-102 63 -166.5 174t-91.5 257h-137l55 128h64q-2 35 -2 105q0 76 5 117h-122l55 124h84q29 144 93 253.5t164.5 172t233.5 62.5q113 0 207 -48.5t162 -143.5l-106 -89q-47 75 -114 107.5t-152 32.5q-134 0 -223 -96t-126 -251h526l-55 -128h-492q-4 -68 -4 -105
q0 -43 4 -115h547l-55 -129h-471q37 -157 126 -254t228 -97q83 0 147 33.5t109 108.5l99 -108q-66 -85 -157 -129.5t-198 -44.5q-135 0 -237 63z" />
    <glyph glyph-name="uni20B1" unicode="&#x20b1;" horiz-adv-x="1345" 
d="M1220 982h-83q-9 -110 -66.5 -187.5t-155.5 -117t-228 -39.5h-238v-638h-158v982h-140v92h140v339h396q126 0 223.5 -40.5t156 -117t69.5 -181.5h84v-92zM449 1074h530q-16 95 -91.5 146.5t-200.5 51.5h-238v-198zM892.5 830q75.5 51 88.5 152h-532v-203h238
q130 0 205.5 51z" />
    <glyph glyph-name="uni20B3" unicode="&#x20b3;" horiz-adv-x="1306" 
d="M1128 307l115 -307h-170l-108 307h-621l-108 -307h-173l115 307h-99v113h142l81 216h-223v113h265l250 664h122l248 -664h262v-113h-220l80 -216h140v-113h-98zM654 1225l-167 -476h332zM448 636l-76 -216h562l-75 216h-411z" />
    <glyph glyph-name="uni20B4" unicode="&#x20b4;" horiz-adv-x="1244" 
d="M1099 362q-19 -122 -90.5 -207t-175.5 -128t-222 -43q-125 0 -225.5 50t-158 142.5t-57.5 214.5q0 114 52 189t126 119t197 97l85 38h-381v98h535q66 66 66 158q0 62 -31.5 109t-83.5 72.5t-112 25.5q-87 0 -160 -41t-114 -122l-120 80q65 110 165.5 165t227.5 55
q105 0 192.5 -44.5t139 -126t51.5 -187.5q0 -104 -49 -172.5t-120 -109t-189 -89.5q-14 -6 -48.5 -20.5t-60.5 -27.5h423v-99h-570q-66 -69 -66 -170q0 -131 76.5 -196t208.5 -65q86 0 160 31t122 94t58 154z" />
    <glyph glyph-name="uni20B8" unicode="&#x20b8;" horiz-adv-x="1424" 
d="M155 1281v130h1114v-130h-1114zM633 0v993h-478v129h1114v-129h-478v-993h-158z" />
    <glyph glyph-name="uni20BD" unicode="&#x20bd;" horiz-adv-x="1332" 
d="M337 357h-175v135h175v149h-175v138h175v634h397q136 0 237.5 -46.5t157 -134.5t55.5 -209q0 -122 -55.5 -208t-156.5 -130t-238 -44h-240v-149h383v-135h-383v-357h-157v357zM734 779q143 0 220 62t77 182q0 118 -78 183.5t-219 65.5h-240v-493h240z" />
    <glyph glyph-name="uni2116" unicode="&#x2116;" horiz-adv-x="2315" 
d="M212 0v1413h229l608 -1245v1245h157v-1413h-232l-604 1247v-1247h-158zM1576 358q-92 60 -142.5 162.5t-50.5 223.5t50.5 222.5t142 161t209.5 59.5t210.5 -59.5t144.5 -161t52 -222.5t-52 -223.5t-144.5 -162.5t-210.5 -60q-117 0 -209 60zM1939.5 452q62.5 48 93 125.5
t30.5 166.5t-30 166t-92 124t-153 47t-153.5 -47t-93 -124t-30.5 -166q0 -90 30.5 -167.5t92.5 -125t152 -47.5q91 0 153.5 48zM1434 0v127h700v-127h-700z" />
    <glyph glyph-name="trademark" unicode="&#x2122;" horiz-adv-x="1295" 
d="M297 877v467h-146v69h372v-69h-145v-467h-81zM586 877v536h92l138 -353l138 353h88v-536h-81v385l-111 -304h-70l-113 307v-388h-81z" />
    <glyph glyph-name="uni2126" unicode="&#x2126;" horiz-adv-x="1678" 
d="M181 132h345q-103 58 -180 149.5t-119 203.5t-42 231q0 132 46.5 259.5t125.5 212.5q91 100 220.5 159.5t261.5 59.5q130 0 260 -59.5t223 -159.5q78 -85 124.5 -212.5t46.5 -259.5q0 -121 -39.5 -234t-112.5 -203t-170 -145h324v-134h-509v134q110 34 192 121t127 213
t45 277q0 95 -33.5 189t-88.5 158q-74 82 -179.5 131.5t-209.5 49.5q-105 0 -209.5 -49.5t-177.5 -131.5q-57 -64 -90.5 -157t-33.5 -190q0 -139 44.5 -261t126 -212.5t191.5 -137.5v-134h-509v132z" />
    <glyph glyph-name="arrowleft" unicode="&#x2190;" horiz-adv-x="2187" 
d="M1000 137l-896 502l896 496l65 -116l-634 -329h1635v-110h-1622l621 -330z" />
    <glyph glyph-name="arrowright" unicode="&#x2192;" horiz-adv-x="2187" 
d="M1187 137l-65 113l621 330h-1622v110h1634l-633 329l65 116l897 -496z" />
    <glyph glyph-name="partialdiff" unicode="&#x2202;" horiz-adv-x="1307" 
d="M343 44.5q-94 55.5 -145.5 155.5t-51.5 229q0 167 72 303t199 214.5t284 78.5q84 0 155.5 -32.5t120.5 -93.5q-10 197 -93 298.5t-223 101.5q-84 0 -148 -37t-104 -126l-142 36q49 122 154 189t250 67q236 0 348.5 -179t112.5 -511q0 -201 -62 -371.5t-190.5 -274
t-318.5 -103.5q-124 0 -218 55.5zM775.5 188q88.5 63 137 169t48.5 232q0 138 -68 219.5t-199 81.5q-118 0 -207 -68t-137 -175t-48 -221q0 -89 33.5 -157t94.5 -106t142 -38q115 0 203.5 63z" />
    <glyph glyph-name="uni2206" unicode="&#x2206;" horiz-adv-x="1305" 
d="M104 0l549 1429l548 -1429h-1097zM301 134h702l-350 923z" />
    <glyph glyph-name="product" unicode="&#x220f;" horiz-adv-x="1335" 
d="M267 0v1279h-82v134h966v-134h-82v-1279h-135v1279h-533v-1279h-134z" />
    <glyph glyph-name="summation" unicode="&#x2211;" horiz-adv-x="1269" 
d="M122 0v64l581 643l-581 642v64h1011v-134h-763l527 -571l-527 -574h763v-134h-1011z" />
    <glyph glyph-name="minus" unicode="&#x2212;" horiz-adv-x="1192" 
d="M246 571v114h700v-114h-700z" />
    <glyph glyph-name="radical" unicode="&#x221a;" horiz-adv-x="1212" 
d="M510 -174l-256 751h-150v134h245l168 -533l464 1238l126 -47z" />
    <glyph glyph-name="infinity" unicode="&#x221e;" horiz-adv-x="1898" 
d="M349 401.5q-82 47.5 -125 134t-43 199.5q0 114 43 200t125 133.5t195 47.5q112 0 217.5 -62t188.5 -174q82 112 187 174t218 62t194.5 -47.5t124.5 -133.5t43 -200q0 -113 -43 -199.5t-124.5 -134t-194.5 -47.5t-218 62.5t-187 174.5q-83 -113 -188.5 -175t-217.5 -62
q-113 0 -195 47.5zM742 549.5q83 69.5 137 185.5q-35 75 -85.5 132.5t-107 90t-111.5 32.5q-73 0 -129 -30.5t-87 -88t-31 -136.5t31 -136.5t87 -88t129 -30.5q84 0 167 69.5zM1453 510.5q55 30.5 86 88t31 136.5t-31 136.5t-86 88t-128 30.5q-85 0 -168 -69.5t-138 -185.5
q55 -114 138.5 -184.5t167.5 -70.5q73 0 128 30.5z" />
    <glyph glyph-name="integral" unicode="&#x222b;" horiz-adv-x="992" 
d="M95 -322q121 0 196.5 32.5t111 102.5t35.5 185v1160q0 84 35.5 150.5t96 104t133.5 37.5q51 0 103.5 -20t98.5 -58l-88 -105q-52 48 -114 48q-54 0 -92 -40.5t-38 -114.5v-1162q0 -148 -58 -250t-165 -153.5t-255 -51.5v135z" />
    <glyph glyph-name="approxequal" unicode="&#x2248;" horiz-adv-x="1170" 
d="M665.5 747.5q-34.5 13.5 -59.5 32.5t-60 50q-44 39 -73 57t-66 18q-52 0 -73.5 -40t-20.5 -105h-99q0 109 49 176.5t142 67.5q51 0 90.5 -14.5t67 -34.5t62.5 -52q37 -35 63 -51t59 -16q56 0 79.5 42.5t23.5 121.5h106q0 -127 -56 -196.5t-159 -69.5q-41 0 -75.5 13.5z
M642 414q-42 25 -95 72q-44 39 -73.5 57.5t-66.5 18.5q-52 0 -73.5 -40.5t-20.5 -106.5h-99q0 109 49 177.5t142 68.5q51 0 90.5 -14.5t67 -34.5t62.5 -52q38 -35 63.5 -51.5t58.5 -16.5q56 0 79.5 42t23.5 121h106q0 -126 -55.5 -196t-157.5 -70q-59 0 -101 25z" />
    <glyph glyph-name="notequal" unicode="&#x2260;" horiz-adv-x="1178" 
d="M138 0l229 428h-164v141h238l110 206h-348v140h424l266 498h155l-266 -498h184v-140h-258l-111 -206h369v-141h-445l-227 -428h-156z" />
    <glyph glyph-name="lessequal" unicode="&#x2264;" horiz-adv-x="1320" 
d="M1081 119l-898 503l898 500l68 -118l-716 -382l716 -385zM114 -114v114h1054v-114h-1054z" />
    <glyph glyph-name="greaterequal" unicode="&#x2265;" horiz-adv-x="1320" 
d="M239 119l-68 118l716 385l-716 382l68 118l898 -500zM152 -114v114h1053v-114h-1053z" />
    <glyph glyph-name="lozenge" unicode="&#x25ca;" horiz-adv-x="1127" 
d="M483 0l-367 717l367 717h162l367 -717l-367 -717h-162zM564 150l285 567l-285 566l-285 -566z" />
    <glyph glyph-name="uniF8FF" unicode="&#xf8ff;" horiz-adv-x="1794" 
d="M508.5 43q-177.5 104 -281.5 281.5t-104 388.5t104 388.5t281.5 281.5t388.5 104t388.5 -104t281.5 -281.5t104 -388.5t-104 -388.5t-281.5 -281.5t-388.5 -104t-388.5 104zM1249.5 104.5q161.5 94.5 255.5 256t94 352.5t-94 352.5t-255.5 255.5t-352.5 94t-352.5 -94
t-255.5 -255.5t-94 -352.5t94 -352.5t255.5 -256t352.5 -94.5t352.5 94.5zM469 419.5q-10 9.5 -10 24.5v537q0 15 10.5 26t24.5 11q15 0 25.5 -11t10.5 -26v-537q0 -15 -10.5 -24.5t-25.5 -9.5t-25 9.5zM872 419.5q-10 9.5 -10 24.5v537q0 15 10 26t25 11t25 -11t10 -26
v-537q0 -15 -9.5 -24.5t-25.5 -9.5q-15 0 -25 9.5zM1276 420l-270 268q-9 10 -9 25q0 16 9 24l272 269q6 12 20 12t25.5 -11.5t11.5 -25.5t-10 -25l-244 -243l244 -244q10 -10 10 -25q0 -13 -11.5 -23.5t-25.5 -10.5q-15 0 -22 10zM603.5 687.5q-9.5 9.5 -9.5 25.5
q0 15 9.5 25t25.5 10h133q15 0 26 -10t11 -25t-11 -25t-26 -10h-133q-16 0 -25.5 9.5z" />
    <glyph glyph-name="c.001" horiz-adv-x="974" 
d="M289.5 51q-98.5 71 -148 189.5t-49.5 257.5q0 138 49.5 257.5t147 192t235.5 72.5q133 0 234 -71t155 -195l-141 -60q-22 91 -90 145.5t-158 54.5q-97 0 -160 -58.5t-91 -149t-28 -188.5q0 -100 27.5 -189t90.5 -146t161 -57q91 0 158 53t90 142l130 -56
q-45 -125 -143 -195t-233 -70q-138 0 -236.5 71z" />
    <glyph glyph-name="g.ss01" horiz-adv-x="1117" 
d="M898 -230.5q-49 -97.5 -143.5 -150t-228.5 -52.5q-130 0 -231 50t-163 147l116 86q47 -77 118 -115.5t159 -38.5q132 0 202.5 82.5t70.5 221.5v140q-48 -69 -126.5 -104.5t-173.5 -35.5q-133 0 -225.5 66.5t-139.5 181.5t-47 260t47 261.5t138.5 183.5t219.5 67
q99 0 178 -41t129 -116v136h151l-2 -999q0 -133 -49 -230.5zM687 183q64 51 94 136.5t30 190.5t-30 190t-94 136t-161 51t-161.5 -51t-95.5 -136t-31 -190t31 -190.5t95.5 -136.5t161.5 -51t161 51z" />
    <glyph glyph-name="gbreve.ss01" horiz-adv-x="1117" 
d="M898 -230.5q-49 -97.5 -143.5 -150t-228.5 -52.5q-130 0 -231 50t-163 147l116 86q47 -77 118 -115.5t159 -38.5q132 0 202.5 82.5t70.5 221.5v140q-48 -69 -126.5 -104.5t-173.5 -35.5q-133 0 -225.5 66.5t-139.5 181.5t-47 260t47 261.5t138.5 183.5t219.5 67
q99 0 178 -41t129 -116v136h151l-2 -999q0 -133 -49 -230.5zM687 183q64 51 94 136.5t30 190.5t-30 190t-94 136t-161 51t-161.5 -51t-95.5 -136t-31 -190t31 -190.5t95.5 -136.5t161.5 -51t161 51zM370.5 1174.5q-69.5 31.5 -108.5 92.5t-39 146h136q0 -46 23 -81.5t62 -55
t86 -19.5t86 19.5t61.5 55t22.5 81.5h136q0 -86 -39 -147t-108 -92t-159 -31t-159.5 31.5z" />
    <glyph glyph-name="gcommaaccent.ss01" horiz-adv-x="1117" 
d="M757 1398l-123 -300h-212l228 300h107zM898 -230.5q-49 -97.5 -143.5 -150t-228.5 -52.5q-130 0 -231 50t-163 147l116 86q47 -77 118 -115.5t159 -38.5q132 0 202.5 82.5t70.5 221.5v140q-48 -69 -126.5 -104.5t-173.5 -35.5q-133 0 -225.5 66.5t-139.5 181.5t-47 260
t47 261.5t138.5 183.5t219.5 67q99 0 178 -41t129 -116v136h151l-2 -999q0 -133 -49 -230.5zM687 183q64 51 94 136.5t30 190.5t-30 190t-94 136t-161 51t-161.5 -51t-95.5 -136t-31 -190t31 -190.5t95.5 -136.5t161.5 -51t161 51z" />
    <glyph glyph-name="gdotaccent.ss01" horiz-adv-x="1117" 
d="M898 -230.5q-49 -97.5 -143.5 -150t-228.5 -52.5q-130 0 -231 50t-163 147l116 86q47 -77 118 -115.5t159 -38.5q132 0 202.5 82.5t70.5 221.5v140q-48 -69 -126.5 -104.5t-173.5 -35.5q-133 0 -225.5 66.5t-139.5 181.5t-47 260t47 261.5t138.5 183.5t219.5 67
q99 0 178 -41t129 -116v136h151l-2 -999q0 -133 -49 -230.5zM687 183q64 51 94 136.5t30 190.5t-30 190t-94 136t-161 51t-161.5 -51t-95.5 -136t-31 -190t31 -190.5t95.5 -136.5t161.5 -51t161 51zM442 1221v192h173v-192h-173z" />
    <glyph glyph-name="i.loclTRK" horiz-adv-x="501" 
d="M168 0v999h165v-999h-165zM162 1221v192h173v-192h-173z" />
    <glyph glyph-name="f_t" horiz-adv-x="1215" 
d="M743 265v612h-380v-877h-149v877h-182v120h183v170q0 87 36 147t97 90t137 30q86 0 164 -38l-36 -119q-65 31 -117 31q-60 0 -96.5 -37.5t-36.5 -111.5v-160h380v225l150 140v-365h255v-122h-255v-613q0 -79 35.5 -120t93.5 -41q47 0 99 25v-128q-19 -8 -55 -14t-79 -6
q-244 0 -244 285z" />
    <glyph glyph-name="uni0414.loclRUS" horiz-adv-x="1448" 
d="M61 127h135q64 124 101.5 234t56.5 243.5t19 313.5v495h842v-1286h121v-434h-156v307h-961v-307h-158v434zM1058 127v1151h-528v-360q0 -180 -18.5 -313.5t-56 -243.5t-100.5 -234h703z" />
    <glyph glyph-name="uni0414.loclSRB" horiz-adv-x="1448" 
d="M61 130h135q64 125 101.5 234t56.5 241.5t19 312.5v495h842v-1283h121v-437h-156v307h-961v-307h-158v437zM1058 130v1148h-528v-360q0 -180 -18.5 -313t-56 -241.5t-100.5 -233.5h703z" />
    <glyph glyph-name="uni041B.loclRUS" horiz-adv-x="1458" 
d="M144 -8.5q-46 11.5 -81 31.5l63 148q47 -32 88 -32q87 0 128.5 141t51 335.5t9.5 492.5v305h843v-1413h-155v1278h-531v-182q0 -351 -16.5 -574t-88.5 -382.5t-224 -159.5q-41 0 -87 11.5z" />
    <glyph glyph-name="uni041B.loclSRB" horiz-adv-x="1458" 
d="M144 -8.5q-46 11.5 -81 31.5l63 148q47 -32 88 -32q87 0 128.5 141t51 335.5t9.5 492.5v305h843v-1413h-155v1278h-531v-182q0 -351 -16.5 -574t-88.5 -382.5t-224 -159.5q-41 0 -87 11.5z" />
    <glyph glyph-name="uni042E.loclRUS" horiz-adv-x="1892" 
d="M797 66.5q-138 86.5 -212 235.5t-85 337h-131v-639h-157v1413h157v-639h131q11 187 85 336.5t212 236.5t334 87q210 0 353 -97t213 -261.5t70 -368.5t-70 -368.5t-213 -261.5t-353 -97q-196 0 -334 86.5zM1401 205.5q108 79.5 159 211t51 290.5t-51 290.5t-159 210.5
t-270 79t-269 -79t-157.5 -210.5t-50.5 -290.5q0 -160 50.5 -291.5t157.5 -210.5t269 -79t270 79.5z" />
    <glyph glyph-name="uni0431.loclSRB" horiz-adv-x="1129" 
d="M305 52q-107 68 -164.5 182t-57.5 249q0 97 32 190.5t102 169.5t180 115q-89 60 -127 90t-61 68t-23 91q0 66 34.5 117.5t100 80.5t156.5 29q74 0 166.5 -21.5t189.5 -71.5l-43 -140q-162 107 -303 107q-65 0 -96.5 -22.5t-31.5 -68.5q0 -40 25 -72t77.5 -61.5
t141.5 -64.5q205 -64 316.5 -184.5t111.5 -329.5q0 -152 -61 -270.5t-169.5 -184.5t-247.5 -66q-141 0 -248 68zM733.5 172q69.5 60 99.5 147.5t30 176.5q0 129 -57.5 211.5t-137.5 121.5t-158 49q-260 -84 -260 -388q0 -117 37.5 -202.5t106 -130.5t160.5 -45
q110 0 179.5 60z" />
    <glyph glyph-name="uni0432.loclRUS" horiz-adv-x="1054" 
d="M165 999h423q154 0 233.5 -55.5t79.5 -192.5q0 -83 -44 -144.5t-139 -76.5q118 -10 179 -70t61 -157q0 -121 -38 -186.5t-117 -91t-216 -25.5h-422v999zM557 588q51 0 95.5 19t71.5 52t27 73q0 77 -45 110.5t-149 33.5h-253v-288h253zM556 132q99 0 152 15.5t75.5 52.5
t22.5 105q0 85 -66 118t-184 33h-252v-324h252z" />
    <glyph glyph-name="uni0432.loclSRB" horiz-adv-x="1054" 
d="M165 999h423q154 0 233.5 -55.5t79.5 -192.5q0 -83 -44 -144.5t-139 -76.5q118 -10 179 -70t61 -157q0 -121 -38 -186.5t-117 -91t-216 -25.5h-422v999zM557 588q51 0 95.5 19t71.5 52t27 73q0 77 -45 110.5t-149 33.5h-253v-288h253zM556 132q99 0 152 15.5t75.5 52.5
t22.5 105q0 85 -66 118t-184 33h-252v-324h252z" />
    <glyph glyph-name="uni0433.loclRUS" horiz-adv-x="763" 
d="M165 0v999h571v-118h-421v-881h-150z" />
    <glyph glyph-name="uni0433.loclSRB" horiz-adv-x="763" 
d="M165 0v999h571v-118h-421v-881h-150z" />
    <glyph glyph-name="uni0434.loclRUS" horiz-adv-x="1092" 
d="M29 120h105q67 80 100 207t33 292v380h636v-879h95v-427h-150v307h-670v-307h-149v427zM753 120v761h-337v-263q0 -176 -31.5 -301.5t-86.5 -196.5h455z" />
    <glyph glyph-name="uni0434.loclSRB" horiz-adv-x="1092" 
d="M29 120h105q67 80 100 207t33 292v380h636v-879h95v-427h-150v307h-670v-307h-149v427zM753 120v761h-337v-263q0 -176 -31.5 -301.5t-86.5 -196.5h455z" />
    <glyph glyph-name="uni0436.loclRUS" horiz-adv-x="1433" 
d="M209 435q25 64 65.5 112.5t89.5 48.5l-255 403h183l222 -371h127v371h151v-371h128l222 371h182l-255 -403q50 0 90 -48.5t65 -112.5l163 -435h-174l-123 359q-25 75 -62.5 109t-99.5 34h-136v-502h-151v502h-136q-62 0 -99.5 -34t-62.5 -109l-123 -359h-174z" />
    <glyph glyph-name="uni0436.loclSRB" horiz-adv-x="1433" 
d="M209 435q25 64 65.5 112.5t89.5 48.5l-255 403h183l222 -371h127v371h151v-371h128l222 371h182l-255 -403q50 0 90 -48.5t65 -112.5l163 -435h-174l-123 359q-25 75 -62.5 109t-99.5 34h-136v-502h-151v502h-136q-62 0 -99.5 -34t-62.5 -109l-123 -359h-174z" />
    <glyph glyph-name="uni0437.loclRUS" horiz-adv-x="942" 
d="M280.5 2q-68.5 22 -122 62t-110.5 103l113 89q45 -73 111.5 -112.5t154.5 -39.5q269 0 269 176q0 88 -62.5 121.5t-179.5 33.5h-127v130h153q82 17 124 56t42 112t-46 113.5t-160 40.5q-82 0 -153.5 -41.5t-107.5 -109.5l-119 66q56 101 157 155.5t223 54.5
q177 0 266.5 -69t89.5 -207q0 -198 -174 -229q69 -7 120 -39t78.5 -81.5t27.5 -106.5q0 -146 -106 -223t-302 -77q-91 0 -159.5 22z" />
    <glyph glyph-name="uni0437.loclSRB" horiz-adv-x="942" 
d="M280.5 2q-68.5 22 -122 62t-110.5 103l113 89q45 -73 111.5 -112.5t154.5 -39.5q269 0 269 176q0 88 -62.5 121.5t-179.5 33.5h-127v130h153q82 17 124 56t42 112t-46 113.5t-160 40.5q-82 0 -153.5 -41.5t-107.5 -109.5l-119 66q56 101 157 155.5t223 54.5
q177 0 266.5 -69t89.5 -207q0 -198 -174 -229q69 -7 120 -39t78.5 -81.5t27.5 -106.5q0 -146 -106 -223t-302 -77q-91 0 -159.5 22z" />
    <glyph glyph-name="uni0438.loclRUS" horiz-adv-x="1142" 
d="M168 999h150v-672q0 -35 -7 -88l-3 -29h10l488 789h168v-999h-148v673q0 51 10 116h-10l-488 -789h-170v999z" />
    <glyph glyph-name="uni0438.loclSRB" horiz-adv-x="1142" 
d="M168 999h150v-672q0 -35 -7 -88l-3 -29h10l488 789h168v-999h-148v673q0 51 10 116h-10l-488 -789h-170v999z" />
    <glyph glyph-name="uni0439.loclRUS" horiz-adv-x="1142" 
d="M405 1174.5q-69 31.5 -109 92.5t-40 146h123q0 -47 24.5 -84.5t65.5 -59t90 -21.5q48 0 89 21t65.5 59t24.5 85h123q0 -84 -39.5 -145t-108.5 -93t-154 -32t-154 31.5zM168 999h150v-672q0 -35 -7 -88l-3 -29h10l488 789h168v-999h-148v673q0 51 10 116h-10l-488 -789
h-170v999z" />
    <glyph glyph-name="uni0439.loclSRB" horiz-adv-x="1142" 
d="M405 1174.5q-69 31.5 -109 92.5t-40 146h123q0 -47 24.5 -84.5t65.5 -59t90 -21.5q48 0 89 21t65.5 59t24.5 85h123q0 -84 -39.5 -145t-108.5 -93t-154 -32t-154 31.5zM168 999h150v-672q0 -35 -7 -88l-3 -29h10l488 789h168v-999h-148v673q0 51 10 116h-10l-488 -789
h-170v999z" />
    <glyph glyph-name="uni045D.loclRUS" horiz-adv-x="1142" 
d="M517 1129l-242 287h172l212 -287h-142zM168 999h150v-672q0 -35 -7 -88l-3 -29h10l488 789h168v-999h-148v673q0 51 10 116h-10l-488 -789h-170v999z" />
    <glyph glyph-name="uni045D.loclSRB" horiz-adv-x="1142" 
d="M517 1129l-242 287h172l212 -287h-142zM168 999h150v-672q0 -35 -7 -88l-3 -29h10l488 789h168v-999h-148v673q0 51 10 116h-10l-488 -789h-170v999z" />
    <glyph glyph-name="uni043A.loclRUS" horiz-adv-x="963" 
d="M168 999h151v-371h127l222 371h183l-255 -403q49 0 89 -48t66 -113l163 -435h-174l-123 359q-25 75 -62.5 109t-99.5 34h-136v-502h-151v999z" />
    <glyph glyph-name="uni043A.loclSRB" horiz-adv-x="963" 
d="M168 999h151v-371h127l222 371h183l-255 -403q49 0 89 -48t66 -113l163 -435h-174l-123 359q-25 75 -62.5 109t-99.5 34h-136v-502h-151v999z" />
    <glyph glyph-name="uni043B.loclRUS" horiz-adv-x="1069" 
d="M101 -8.5q-50 13.5 -82 30.5l47 109q6 -3 22 -11.5t32 -14t29 -5.5q50 0 84 106.5t34 412.5v380h633v-999h-149v881h-336v-287q0 -254 -31.5 -390t-79.5 -181t-111 -45q-42 0 -92 13.5z" />
    <glyph glyph-name="uni043B.loclSRB" horiz-adv-x="1069" 
d="M101 -8.5q-50 13.5 -82 30.5l47 109q6 -3 22 -11.5t32 -14t29 -5.5q50 0 84 106.5t34 412.5v380h633v-999h-149v881h-336v-287q0 -254 -31.5 -390t-79.5 -181t-111 -45q-42 0 -92 13.5z" />
    <glyph glyph-name="uni043F.loclRUS" horiz-adv-x="1142" 
d="M168 0v999h806v-999h-148v881h-508v-881h-150z" />
    <glyph glyph-name="uni043F.loclSRB" horiz-adv-x="1142" 
d="M168 0v999h806v-999h-148v881h-508v-881h-150z" />
    <glyph glyph-name="uni0442.loclRUS" horiz-adv-x="860" 
d="M355 0v881h-328v118h806v-118h-330v-881h-148z" />
    <glyph glyph-name="uni0442.loclSRB" horiz-adv-x="860" 
d="M355 0v881h-328v118h806v-118h-330v-881h-148z" />
    <glyph glyph-name="uni0446.loclRUS" horiz-adv-x="1176" 
d="M968 -307v307h-800v999h150v-879h508v879h148v-879h142v-427h-148z" />
    <glyph glyph-name="uni0446.loclSRB" horiz-adv-x="1176" 
d="M968 -307v307h-800v999h150v-879h508v879h148v-879h142v-427h-148z" />
    <glyph glyph-name="uni0448.loclRUS" horiz-adv-x="1546" 
d="M168 0v999h150v-879h382v879h147v-879h383v879h147v-999h-1209z" />
    <glyph glyph-name="uni0448.loclSRB" horiz-adv-x="1546" 
d="M168 0v999h150v-879h382v879h147v-879h383v879h147v-999h-1209z" />
    <glyph glyph-name="uni0449.loclRUS" horiz-adv-x="1580" 
d="M1371 -307v307h-1203v999h150v-879h382v879h147v-879h383v879h147v-879h142v-427h-148z" />
    <glyph glyph-name="uni0449.loclSRB" horiz-adv-x="1580" 
d="M1371 -307v307h-1203v999h150v-879h382v879h147v-879h383v879h147v-879h142v-427h-148z" />
    <glyph glyph-name="uni044C.loclRUS" horiz-adv-x="993" 
d="M168 999h150v-334h187q124 0 209 -28t134 -102.5t49 -208.5q0 -101 -50.5 -175t-139 -112.5t-202.5 -38.5h-337v999zM505 122q102 0 162.5 46t60.5 158q0 122 -59.5 169.5t-163.5 47.5h-187v-421h187z" />
    <glyph glyph-name="uni044A.loclRUS" horiz-adv-x="1117" 
d="M292 881h-265v118h413v-334h187q125 0 210 -28t134 -102.5t49 -208.5q0 -101 -50.5 -175t-139.5 -112.5t-203 -38.5h-335v881zM627 122q102 0 162.5 46t60.5 158q0 122 -59.5 169.5t-163.5 47.5h-187v-421h187z" />
    <glyph glyph-name="uni044B.loclRUS" horiz-adv-x="1377" 
d="M168 999h150v-334h187q124 0 209 -28t134 -102.5t49 -208.5q0 -101 -50.5 -175t-139 -112.5t-202.5 -38.5h-337v999zM1060 0v999h149v-999h-149zM505 122q102 0 162.5 46t60.5 158q0 122 -59.5 169.5t-163.5 47.5h-187v-421h187z" />
    <glyph glyph-name="uni044E.loclRUS" horiz-adv-x="1443" 
d="M640 48q-108 68 -168.5 185t-61.5 258h-92v-491h-150v999h150v-390h101q23 115 86.5 206.5t161 144t217.5 52.5q136 0 244 -69t168.5 -187.5t60.5 -259.5q0 -142 -60.5 -260t-168.5 -187t-244 -69t-244 68zM1059 164q69 52 100.5 138.5t31.5 193.5q0 106 -31.5 192.5
t-100.5 138.5t-175 52t-175 -52t-101 -138.5t-32 -192.5q0 -107 32 -193.5t101 -138.5t175 -52t175 52z" />
    <glyph glyph-name="strokecy" horiz-adv-x="1115" 
d="M195 322v131h725v-131h-725z" />
    </font>
</defs>
</svg>
