<?xml version="1.0" encoding="UTF-8" standalone="no"?>
<!-- Created with Inkscape (http://www.inkscape.org/) -->

<svg
   xmlns:dc="http://purl.org/dc/elements/1.1/"
   xmlns:cc="http://creativecommons.org/ns#"
   xmlns:rdf="http://www.w3.org/1999/02/22-rdf-syntax-ns#"
   xmlns:svg="http://www.w3.org/2000/svg"
   xmlns="http://www.w3.org/2000/svg"
   xmlns:sodipodi="http://sodipodi.sourceforge.net/DTD/sodipodi-0.dtd"
   xmlns:inkscape="http://www.inkscape.org/namespaces/inkscape"
   width="79.999992"
   height="80"
   viewBox="0 0 79.999992 80"
   id="svg4171"
   version="1.1"
   inkscape:version="0.91 r13725"
   sodipodi:docname="pager_neg.svg">
  <defs
     id="defs4173" />
  <sodipodi:namedview
     id="base"
     pagecolor="#ffffff"
     bordercolor="#666666"
     borderopacity="1.0"
     inkscape:pageopacity="0.0"
     inkscape:pageshadow="2"
     inkscape:zoom="0.35"
     inkscape:cx="-247.20789"
     inkscape:cy="-407.16913"
     inkscape:document-units="px"
     inkscape:current-layer="layer1"
     showgrid="false"
     inkscape:window-width="1366"
     inkscape:window-height="719"
     inkscape:window-x="0"
     inkscape:window-y="25"
     inkscape:window-maximized="1"
     units="px"
     fit-margin-top="0"
     fit-margin-left="0"
     fit-margin-right="0"
     fit-margin-bottom="0" />
  <metadata
     id="metadata4176">
    <rdf:RDF>
      <cc:Work
         rdf:about="">
        <dc:format>image/svg+xml</dc:format>
        <dc:type
           rdf:resource="http://purl.org/dc/dcmitype/StillImage" />
        <dc:title></dc:title>
      </cc:Work>
    </rdf:RDF>
  </metadata>
  <g
     inkscape:label="Ebene 1"
     inkscape:groupmode="layer"
     id="layer1"
     transform="translate(-60.779316,-45.19308)">
    <path
       d="m 95.97349,121.76359 c 2.230555,-0.38466 8.08224,-2.84 12.84501,-3.42417 3.24712,-0.39785 11.09944,-0.15878 16.74389,-0.46435 6.24899,-0.33852 11.78736,-1.46074 11.78736,-1.46074 l -0.78052,-53.229567 c 0,0 -8.79223,2.370849 -14.0455,2.309146 -7.2631,-0.08563 -16.18778,-0.855595 -23.047446,5.243207 0.13121,8.465467 -3.502794,51.026474 -3.502794,51.026474 z"
       id="path3061"
       style="fill:#ffffff;fill-opacity:1;stroke:#6c6c6c;stroke-width:4;stroke-linecap:round;stroke-linejoin:round;stroke-miterlimit:4;stroke-dasharray:none;stroke-opacity:1"
       inkscape:connector-curvature="0" />
    <path
       d="m 69.852071,48.622625 c 6.694121,0.38526 20.779489,0.985007 23.66977,1.02635 6.081608,0.08563 14.131349,2.309146 14.657409,4.104813 0.52422,1.795668 -3.28207,50.406952 -3.41328,51.048642 -0.13121,0.6411 -0.52422,-2.30913 -5.643825,-3.20727 -5.119,-0.89754 -33.469379,-1.923885 -34.9133,-1.923885 0.787258,-8.208437 5.643226,-51.04865 5.643226,-51.04865 z"
       id="path3067"
       style="fill:#ffffff;fill-opacity:1;stroke:#6c6c6c;stroke-width:4;stroke-linecap:round;stroke-linejoin:round;stroke-miterlimit:4;stroke-dasharray:none;stroke-opacity:1"
       inkscape:connector-curvature="0" />
  </g>
</svg>
